<?xml version="1.0" encoding="UTF-8"?>
<svg id="Capa_1" data-name="Capa 1" xmlns="http://www.w3.org/2000/svg" xmlns:xlink="http://www.w3.org/1999/xlink" viewBox="0 0 926.64 914.93">
  <defs>
    <style>
      .cls-1 {
        fill: url(#Degradado_sin_nombre_199);
      }

      .cls-2 {
        fill: url(#Degradado_sin_nombre_170);
      }

      .cls-3 {
        fill: url(#Degradado_sin_nombre_170-2);
      }

      .cls-4 {
        fill: url(#Degradado_sin_nombre_195);
      }

      .cls-5 {
        fill: #641eff;
      }

      .cls-6 {
        fill: url(#Degradado_sin_nombre_218);
      }

      .cls-7 {
        fill: url(#Degradado_sin_nombre_196);
      }

      .cls-8 {
        fill: url(#Degradado_sin_nombre_220);
      }
    </style>
    <linearGradient id="Degradado_sin_nombre_199" data-name="Degradado sin nombre 199" x1="471.99" y1="875.12" x2="455.71" y2="382.81" gradientUnits="userSpaceOnUse">
      <stop offset=".34" stop-color="#6723ff"/>
      <stop offset="1" stop-color="#663382"/>
    </linearGradient>
    <linearGradient id="Degradado_sin_nombre_196" data-name="Degradado sin nombre 196" x1="470.38" y1="875.17" x2="442.6" y2="34.84" gradientUnits="userSpaceOnUse">
      <stop offset=".29" stop-color="#641eff"/>
      <stop offset=".96" stop-color="#663382"/>
    </linearGradient>
    <linearGradient id="Degradado_sin_nombre_218" data-name="Degradado sin nombre 218" x1="309.8" y1="880.45" x2="316.78" y2="1209.14" gradientUnits="userSpaceOnUse">
      <stop offset=".02" stop-color="#641eff"/>
      <stop offset=".48" stop-color="#6e2fff"/>
    </linearGradient>
    <linearGradient id="Degradado_sin_nombre_170" data-name="Degradado sin nombre 170" x1="749.78" y1="865.93" x2="725.4" y2="128.34" gradientUnits="userSpaceOnUse">
      <stop offset="0" stop-color="#b7aaff"/>
      <stop offset="0" stop-color="#6e2fff"/>
      <stop offset="1" stop-color="#641eff"/>
    </linearGradient>
    <linearGradient id="Degradado_sin_nombre_220" data-name="Degradado sin nombre 220" x1="622.76" y1="870.13" x2="611.71" y2="535.97" gradientUnits="userSpaceOnUse">
      <stop offset=".43" stop-color="#6e2fff"/>
      <stop offset="1" stop-color="#641eff"/>
    </linearGradient>
    <linearGradient id="Degradado_sin_nombre_170-2" data-name="Degradado sin nombre 170" x1="183.94" y1="884.64" x2="159.55" y2="147.05" xlink:href="#Degradado_sin_nombre_170"/>
    <linearGradient id="Degradado_sin_nombre_195" data-name="Degradado sin nombre 195" x1="470.09" y1="875.18" x2="445.71" y2="137.59" gradientUnits="userSpaceOnUse">
      <stop offset=".53" stop-color="#641eff"/>
      <stop offset=".76" stop-color="#663382"/>
    </linearGradient>
  </defs>
  <path class="cls-1" d="M842.08,549.53v.12c0,.32,0,.63,0,.94-.11,4.7-.99,9.33-2.61,13.89-.22.64-.45,1.27-.71,1.9,0,.03-.02.05-.03.08-10.69,26.8-46.45,50.96-99.13,69.78-12.46,4.46-25.88,8.61-40.14,12.43-24.12,6.47-50.65,11.97-79.07,16.33h0c-13.48,2.07-27.4,3.89-41.67,5.43-37,4-76.48,6.16-117.48,6.16s-79.43-2.1-116.01-6.01c-14.3-1.51-28.22-3.31-41.72-5.37-28.81-4.37-55.69-9.91-80.11-16.44-14.33-3.82-27.79-7.98-40.32-12.45-51.37-18.3-86.67-41.7-98.41-67.67-.37-.81-.71-1.61-1.01-2.43-2.16-5.45-3.26-11.02-3.26-16.67,0-.41,0-.8.02-1.2v-.16c.02-.47.05-.94.08-1.4,2.83-44.29,73.62-83.01,179-105l-13.66,34.76-3.28,8.36c-40.48,8.59-72.79,19.5-93.61,31.91-16.88,10.08-26.57,21.14-26.21,32.74.89,28.87,54.77,46.83,73.7,52.75,12.37,3.89,26.06,7.49,40.93,10.77,23.94,5.28,50.89,9.74,80.13,13.17,13.45,1.58,27.38,2.95,41.72,4.08,32.19,2.55,66.47,3.92,102.03,3.92s70.75-1.41,103.32-4.02c14.34-1.14,28.25-2.53,41.68-4.13,28.9-3.43,55.54-7.86,79.23-13.1,14.82-3.28,28.49-6.88,40.83-10.77,18.86-5.92,34.6-12.49,46.62-19.57,5.84-3.43,10.78-6.97,14.78-10.63,0,0,12.3-10.12,12.06-22.47-.23-11.63-9.37-22.71-26.32-32.8-20.73-12.34-52.8-23.19-92.96-31.73l-3.39-8.67-13.46-34.42c104.82,21.98,175.29,60.51,178.35,104.6.03.41.05.81.07,1.21.02.24.02.47.03.71,0,.09,0,.17,0,.26,0,.1,0,.2,0,.3v.13c0,.14,0,.28,0,.42Z"/>
  <path class="cls-7" d="M726.28,602.2c-12.34,3.89-26,7.49-40.83,10.77l-53.61-136.62-3.74-9.54h0S477.06,81.88,477.06,81.88l-.06-.15-2.87-7.31c-2.88-4.01-7.58-6.62-12.9-6.62s-10.29,2.76-13.15,6.95l-.02.04-.03.06-.04.09c-3.67,8.23-105.76,269.88-133.38,340.74l-1.26,3.23-1.16,2.98c-.27.68-.53,1.33-.77,1.96l-1.24,3.18-.45,1.14-.21.54-.56,1.42-.32.81-.89,2.28-13.21,33.76-3.65,9.32-53.53,136.73c-14.86-3.28-28.56-6.88-40.93-10.77l46.12-117.41,3.28-8.36,13.66-34.76L422.6,26.51c6.28-15.54,20.77-26.51,38.55-26.51s34.06,11.21,40.21,27.02l162.24,414.88,13.46,34.42,3.39,8.67,45.83,117.21Z"/>
  <path class="cls-6" d="M334.54,700.91c.07,0,.11.08.09.14l-15.58,44.87h0c-2.92,8.88-11.61,15.14-21.65,14.33-10.34-.83-18.63-9.4-19.18-19.76-.16-3.04.33-5.93,1.34-8.58h0l13.22-36.8c.02-.05.07-.09.13-.08,13.46,2.22,27.36,4.19,41.65,5.88Z"/>
  <path class="cls-2" d="M778.14,742.59c-1.52,10.08-10.37,17.66-20.56,17.74-9.78.07-17.1-6.89-20.4-15.56l-26.42-67.34c-.02-.06,0-.12.07-.14,14.12-4.07,27.34-8.48,39.54-13.21.06-.02.13,0,.15.07l26.66,68.18c1.12,3.14,1.52,6.65.97,10.27Z"/>
  <path class="cls-8" d="M646.04,741.39c-1,10.61-10.12,18.9-20.78,18.93-9.54.03-17.61-6.31-20.18-15.02l-15.62-44.37s0-.05.03-.06c14.33-1.7,28.26-3.67,41.75-5.92.03,0,.05.01.06.04l13.13,36.09h0c1.36,3.12,1.96,6.64,1.62,10.3Z"/>
  <path class="cls-3" d="M212,677.02c.15.04.23.2.17.35l-27.35,69.88-.06-.02c-3.46,9.12-13.85,15.12-24.44,12.75-9.12-2.04-15.85-10.14-16.27-19.48-.15-3.32.48-6.46,1.71-9.26l26.45-67.34c.05-.13.2-.2.33-.15,12.17,4.74,25.36,9.18,39.45,13.27Z"/>
  <path class="cls-4" d="M506.58,465.58l57.97,164.62,41.68-4.13-57.63-158.39h0s-3.84-10.56-3.84-10.56l-11.77-32.37h0l-38.29-105.26-.07-.2c-.08-.26-.18-.51-.28-.77-4.14-11.17-13.77-19.69-25.62-22.26-2.44-.54-4.97-.82-7.58-.82s-4.89.26-7.22.74c-12.02,2.5-21.81,11.08-25.98,22.38l-.33.93-37.78,105.24h0l-11.65,32.46-3.75,10.46-56.94,158.58,41.72,4.08,57.21-164.74,3.72-10.7,11.11-31.98s21.49-61.14,22.14-62.53c.07,0,2.9-4.34,7.76-4.34,3.36,0,6.64,1.72,8.36,4.33,0,0,37.07,105.25,37.07,105.25Z"/>
  <path class="cls-5" d="M49.09,807.49h0c3.43,0,6.52,2.08,7.82,5.25l41.13,100.69h-14.32l-11.88-31.04H26.26l-11.93,31.04H0l41.27-100.7c1.3-3.17,4.39-5.24,7.82-5.24ZM67.83,871.95l-18.3-47.79c-.15-.4-.73-.4-.88,0l-18.38,47.79h37.56Z"/>
  <path class="cls-5" d="M135.64,914.93c-6.47,0-12.53-1.07-18.21-3.21-5.67-2.14-10.54-5.35-14.62-9.63l5.07-9.25c4.48,4.18,8.95,7.16,13.43,8.95,4.48,1.79,9.05,2.69,13.73,2.69,5.34,0,9.71-.99,13.08-2.99,3.16-1.87,5.12-5.26,5.12-8.94,0-2.86-.87-4.98-2.61-6.36-1.74-1.38-4.2-2.54-7.39-3.48-3.19-.94-6.97-2-11.34-3.18-5.37-1.58-9.9-3.26-13.58-5.03-3.68-1.78-6.47-4-8.36-6.67-1.89-2.67-2.83-6.03-2.83-10.07,0-4.94,1.29-9.11,3.88-12.52,2.59-3.41,6.14-6,10.67-7.78,4.53-1.78,9.67-2.67,15.44-2.67s10.99.89,15.67,2.69c3.01,1.15,5.76,2.66,8.24,4.52,2.28,1.71,2.88,4.86,1.32,7.24l-.13.2c-1.68,2.56-5.13,3.1-7.6,1.29-1.86-1.36-3.81-2.47-5.86-3.33-3.68-1.54-7.81-2.31-12.38-2.31-2.69,0-5.32.32-7.91.96-2.59.64-4.73,1.77-6.42,3.4-1.69,1.63-2.54,3.92-2.54,6.88,0,2.47.67,4.41,2.01,5.84,1.34,1.43,3.33,2.64,5.97,3.63,2.63.99,5.84,2.07,9.63,3.25,5.87,1.68,10.97,3.36,15.3,5.03,4.33,1.68,7.68,3.85,10.07,6.51s3.58,6.36,3.58,11.1c0,7.3-2.79,13-8.36,17.09-5.57,4.09-12.93,6.14-22.08,6.14Z"/>
  <path class="cls-5" d="M222.04,910c-1.1.5-2.59,1.15-4.48,1.94-1.89.8-4.08,1.49-6.57,2.09-2.49.6-5.12.9-7.91.9-3.18,0-6.12-.57-8.8-1.72-2.69-1.14-4.83-2.93-6.42-5.37-1.59-2.44-2.39-5.5-2.39-9.18v-52.38h-10.59v-10.3h10.59v-19.4c0-3.63,2.94-6.57,6.57-6.57h0c3.63,0,6.57,2.94,6.57,6.57v19.4h17.46v10.3h-17.46v48.35c.2,2.79,1.14,4.85,2.84,6.19,1.69,1.34,3.68,2.01,5.97,2.01,2.59,0,4.97-.45,7.16-1.34,2.19-.9,3.63-1.54,4.33-1.94l3.13,10.45Z"/>
  <path class="cls-5" d="M275.46,845.28c0,.95-.73,1.76-1.68,1.81-5.88.34-11.12,1.98-15.71,4.94-5.02,3.23-8.58,7.68-10.67,13.35v48.05h-13.13v-71.33c0-3.38,2.74-6.12,6.12-6.12h0c3.38,0,6.12,2.74,6.12,6.12v11.49c2.69-5.37,6.24-9.72,10.67-13.06,4.43-3.33,9.08-5.2,13.95-5.6h2.54s.01,0,.02,0c.99,0,1.77.83,1.77,1.82v8.52Z"/>
  <path class="cls-5" d="M405.57,914.93c-5.87,0-11.22-1.06-16.04-3.18-4.83-2.12-9-5.06-12.53-8.81-3.53-3.75-6.27-8.05-8.21-12.88s-2.91-9.97-2.91-15.4c0-7.31,1.64-13.97,4.92-20,3.28-6.03,7.91-10.84,13.88-14.44,5.97-3.6,12.88-5.41,20.74-5.41s14.35,1.72,20.07,5.15c2.74,1.64,5.14,3.55,7.21,5.73,3.31,3.49,1.88,9.22-2.7,10.66h0c-2.51.79-5.25-.03-6.92-2.07s-3.67-3.73-6.02-5.07c-3.58-2.04-7.56-3.06-11.94-3.06-4.77,0-9.13,1.23-13.06,3.69-3.93,2.46-7.04,5.83-9.33,10.12-2.29,4.28-3.43,9.18-3.43,14.69s1.17,10.32,3.51,14.7c2.34,4.38,5.47,7.85,9.4,10.41,3.93,2.56,8.28,3.84,13.06,3.84,3.08,0,6.04-.55,8.88-1.64,2.84-1.09,5.32-2.56,7.46-4.4,2.14-1.84,3.61-3.85,4.4-6.04l12.83,3.88c-1.59,3.78-4.01,7.14-7.24,10.07-3.23,2.94-7.06,5.25-11.49,6.94-4.43,1.69-9.28,2.54-14.55,2.54Z"/>
  <path class="cls-5" d="M487.04,914.93c-5.87,0-11.19-1.06-15.97-3.18-4.77-2.12-8.9-5.04-12.39-8.74-3.48-3.7-6.17-7.97-8.06-12.81-1.89-4.84-2.83-9.92-2.83-15.26s.94-10.56,2.83-15.4c1.89-4.84,4.57-9.11,8.06-12.81,3.48-3.7,7.63-6.61,12.46-8.74,4.82-2.12,10.12-3.18,15.89-3.18s11.19,1.06,15.97,3.18c4.77,2.12,8.93,5.04,12.46,8.74,3.53,3.7,6.24,7.97,8.13,12.81,1.89,4.84,2.84,9.98,2.84,15.4s-.95,10.42-2.84,15.26c-1.89,4.84-4.58,9.11-8.06,12.81-3.48,3.7-7.64,6.62-12.46,8.74-4.83,2.12-10.17,3.18-16.04,3.18ZM461.23,875.08c0,5.32,1.17,10.14,3.51,14.48,2.34,4.33,5.45,7.75,9.33,10.26,3.88,2.51,8.21,3.77,12.98,3.77s9.13-1.28,13.06-3.84c3.93-2.56,7.06-6.03,9.4-10.41,2.34-4.38,3.51-9.23,3.51-14.55s-1.17-10.14-3.51-14.47c-2.34-4.33-5.47-7.78-9.4-10.34-3.93-2.56-8.28-3.84-13.06-3.84s-9.1,1.31-12.98,3.92c-3.88,2.61-6.99,6.08-9.33,10.41-2.34,4.33-3.51,9.21-3.51,14.62Z"/>
  <path class="cls-5" d="M537.33,874.94c0-7.31,1.52-14,4.55-20.07,3.03-6.07,7.21-10.93,12.53-14.59,5.32-3.65,11.42-5.48,18.28-5.48,6.27,0,11.89,1.64,16.86,4.92,4.97,3.28,8.85,7.26,11.64,11.94v-40.59c0-3.63,2.94-6.57,6.57-6.57h0c3.63,0,6.57,2.94,6.57,6.57v87.44c0,1.59.32,2.76.97,3.51.65.75,1.72,1.17,3.21,1.27v10.15c-2.49.4-4.43.6-5.82.6-2.59,0-4.85-.89-6.79-2.69-1.94-1.79-2.91-3.78-2.91-5.97v-6.57c-3.08,4.98-7.21,8.9-12.39,11.79-5.17,2.88-10.55,4.33-16.11,4.33s-10.32-1.06-14.85-3.18c-4.53-2.12-8.46-5.06-11.79-8.81-3.33-3.75-5.92-8.02-7.76-12.81-1.84-4.79-2.76-9.85-2.76-15.18ZM601.2,886.31v-22.15c-1.19-3.35-3.13-6.37-5.82-9.08-2.69-2.71-5.7-4.87-9.03-6.5-3.33-1.62-6.64-2.44-9.92-2.44-3.88,0-7.39.81-10.52,2.44-3.13,1.63-5.82,3.79-8.06,6.5-2.24,2.71-3.95,5.79-5.15,9.23-1.19,3.45-1.79,7.04-1.79,10.78s.67,7.48,2.01,10.93c1.34,3.45,3.23,6.5,5.67,9.16,2.44,2.66,5.27,4.73,8.51,6.2,3.23,1.48,6.74,2.21,10.52,2.21,2.39,0,4.85-.44,7.39-1.33,2.54-.89,4.95-2.11,7.24-3.69,2.29-1.58,4.23-3.42,5.82-5.54,1.59-2.12,2.63-4.36,3.13-6.72Z"/>
  <path class="cls-5" d="M670.73,914.93c-5.87,0-11.22-1.06-16.04-3.18-4.83-2.12-9-5.04-12.53-8.74-3.53-3.7-6.27-7.97-8.21-12.81-1.94-4.84-2.91-9.97-2.91-15.4,0-7.31,1.69-13.97,5.07-20,3.38-6.02,8.08-10.86,14.1-14.51,6.02-3.65,12.91-5.48,20.67-5.48s14.7,1.85,20.52,5.56c5.82,3.71,10.35,8.55,13.58,14.53,3.23,5.98,4.85,12.43,4.85,19.35,0,.99-.03,1.95-.07,2.89-.05.94-.13,1.66-.22,2.15h-64.61c.4,5.02,1.81,9.47,4.25,13.35,2.44,3.88,5.6,6.93,9.48,9.15,3.88,2.21,8.06,3.32,12.53,3.32,4.77,0,9.27-1.19,13.5-3.58,4.23-2.39,7.14-5.52,8.73-9.4l11.34,3.13c-1.69,3.78-4.2,7.16-7.54,10.15-3.33,2.98-7.26,5.32-11.79,7.01-4.53,1.69-9.43,2.54-14.7,2.54ZM644.47,870.16h53.12c-.4-5.01-1.84-9.44-4.33-13.27-2.49-3.84-5.67-6.83-9.55-9-3.88-2.16-8.16-3.25-12.83-3.25s-8.8,1.08-12.68,3.25c-3.88,2.16-7.04,5.16-9.48,9-2.44,3.84-3.86,8.26-4.25,13.27Z"/>
  <path class="cls-5" d="M731.32,804.5h0c3.63,0,6.57,2.94,6.57,6.57v82.63c0,4.3.6,6.95,1.79,7.94,1.19,1,2.63,1.5,4.33,1.5,2.09,0,4.08-.22,5.97-.67,1.89-.45,3.48-.92,4.77-1.42l2.09,10.74c-2.19.9-4.77,1.64-7.76,2.24-2.98.6-5.62.9-7.91.9-5.07,0-9.08-1.45-12.01-4.34-2.94-2.9-4.4-6.94-4.4-12.14v-87.37c0-3.63,2.94-6.57,6.57-6.57Z"/>
  <path class="cls-5" d="M761.01,891.05c0-4.94,1.42-9.22,4.25-12.83,2.83-3.61,6.74-6.4,11.71-8.38,4.97-1.98,10.74-2.97,17.31-2.97,3.48,0,7.16.27,11.04.82,3.88.55,7.31,1.37,10.3,2.46v-5.64c0-5.89-1.79-10.52-5.37-13.91-3.58-3.39-8.65-5.08-15.22-5.08-4.28,0-8.38.77-12.31,2.31-2.5.98-5.09,2.23-7.76,3.75-2.6,1.48-5.91.54-7.28-2.12h0c-1.27-2.47-.4-5.5,1.99-6.91,3.68-2.18,7.36-3.9,11.04-5.16,5.07-1.74,10.35-2.61,15.82-2.61,9.95,0,17.81,2.74,23.58,8.21,5.77,5.47,8.65,13.09,8.65,22.85v32.69c0,1.58.32,2.74.97,3.48.65.74,1.72,1.16,3.21,1.26v10.15c-1.29.2-2.41.35-3.36.45-.95.1-1.72.15-2.31.15-3.08,0-5.4-.84-6.94-2.54-1.54-1.69-2.41-3.48-2.61-5.37l-.3-4.92c-3.38,4.38-7.81,7.76-13.28,10.15-5.47,2.39-10.89,3.58-16.26,3.58s-9.8-1.06-13.88-3.19c-4.08-2.13-7.26-4.99-9.55-8.6-2.29-3.61-3.43-7.64-3.43-12.09ZM811.74,896.51c1.19-1.38,2.14-2.78,2.83-4.21.7-1.43,1.05-2.63,1.05-3.62v-9.6c-3.09-1.18-6.32-2.09-9.7-2.73-3.38-.64-6.71-.96-10-.96-6.67,0-12.06,1.31-16.19,3.92-4.13,2.61-6.19,6.18-6.19,10.71,0,2.46.67,4.85,2.01,7.16,1.34,2.32,3.33,4.21,5.97,5.69,2.63,1.48,5.89,2.21,9.77,2.21,4.08,0,7.96-.81,11.64-2.44,3.68-1.62,6.61-3.67,8.8-6.13Z"/>
  <path class="cls-5" d="M889.78,914.93c-6.07,0-11.59-1.49-16.56-4.48-4.98-2.98-8.9-6.86-11.79-11.64v14.62h-11.64v-102.37c0-3.63,2.94-6.57,6.57-6.57h0c3.63,0,6.57,2.94,6.57,6.57v40.59c3.28-5.07,7.31-9.15,12.09-12.24,4.77-3.08,10.35-4.63,16.71-4.63,5.37,0,10.2,1.11,14.47,3.33,4.28,2.22,7.93,5.23,10.97,9.03,3.03,3.8,5.37,8.1,7.01,12.88,1.64,4.79,2.46,9.8,2.46,15.03s-.92,10.54-2.76,15.33c-1.84,4.79-4.45,9.04-7.83,12.74-3.38,3.7-7.29,6.59-11.71,8.66-4.43,2.07-9.28,3.11-14.55,3.11ZM886.5,903.59c3.88,0,7.46-.78,10.74-2.36,3.28-1.58,6.12-3.69,8.51-6.35,2.39-2.66,4.23-5.71,5.52-9.16,1.29-3.45,1.94-6.99,1.94-10.63,0-5.02-1.07-9.75-3.21-14.18-2.14-4.43-5.12-8-8.95-10.71-3.83-2.71-8.28-4.06-13.35-4.06-3.68,0-7.11.84-10.3,2.51-3.19,1.67-6,3.87-8.43,6.57-2.44,2.71-4.45,5.68-6.04,8.93v22.3c.5,2.46,1.54,4.73,3.13,6.79,1.59,2.07,3.53,3.87,5.82,5.39,2.29,1.53,4.7,2.73,7.24,3.62s5,1.33,7.39,1.33Z"/>
  <path class="cls-5" d="M316.4,845.61l-29.1,67.45h-12.83l34.99-77.73c1.23-2.73,3.94-4.49,6.94-4.49h0c3,0,5.72,1.76,6.94,4.5l34.84,77.72h-12.68"/>
</svg>