<svg width="500" height="500" viewBox="0 0 500 500" fill="none" xmlns="http://www.w3.org/2000/svg">
<path d="M489.26 244.17C484.08 190.47 457.11 136.9 433.84 107.31C335.23 -18.09 137.31 -17.85 43.05 139.66C16.46 184.08 -0.229997 282.85 19.52 355.9C44.79 449.4 144.37 485.81 255.11 485C358.58 484.2 439.94 439.21 470.4 377.06C489.46 338.13 494.44 297.87 489.26 244.17Z" fill="#37474F"/>
<path d="M43.05 139.66C16.46 184.08 -0.229997 282.85 19.52 355.9C23.6787 371.584 30.3773 386.481 39.35 400L149.35 336.53L243 282.39L463.12 155.32C453.96 136.32 443.58 119.7 433.84 107.32C335.23 -18.09 137.31 -17.85 43.05 139.66Z" fill="#263238"/>
<g opacity="0.2">
<path d="M43.2197 215.1C44.3427 214.368 45.2774 213.382 45.948 212.221C46.6187 211.061 47.0064 209.758 47.0797 208.42V200.62C47.0797 198.16 45.3497 197.16 43.2197 198.39L17.7496 213.1C16.5796 219.1 15.5396 225.31 14.6396 231.6L43.2197 215.1Z" fill="black"/>
<path d="M34.1396 157.43L43.2197 152.18C44.3427 151.448 45.2774 150.462 45.948 149.301C46.6187 148.141 47.0064 146.838 47.0797 145.5V137.7C47.1391 137.197 47.0506 136.688 46.825 136.235C46.5994 135.783 46.2465 135.405 45.8097 135.15C44.883 136.637 43.963 138.14 43.0496 139.66C39.6742 145.371 36.6971 151.309 34.1396 157.43Z" fill="black"/>
<path d="M82 88.82L89.7 84.37C90.8196 83.6401 91.7516 82.6569 92.4205 81.4998C93.0894 80.3428 93.4763 79.0444 93.55 77.71C89.6033 81.2366 85.7533 84.94 82 88.82Z" fill="black"/>
<path d="M47.0797 290.49V282.69C47.0797 280.23 45.3497 279.23 43.2197 280.46L11.2197 298.96C11.4331 304.32 11.7931 309.667 12.2997 315L43.2197 297.15C44.3401 296.42 45.2732 295.437 45.9437 294.28C46.6142 293.123 47.0034 291.825 47.0797 290.49Z" fill="black"/>
<path d="M140 174V166.2C140 163.74 138.27 162.74 136.14 163.97L100.44 184.58C99.3181 185.312 98.3849 186.299 97.716 187.46C97.0471 188.62 96.6612 189.922 96.5898 191.26V199.06C96.5898 201.52 98.3098 202.52 100.44 201.29L136.14 180.68C137.263 179.948 138.198 178.962 138.868 177.801C139.539 176.641 139.927 175.339 140 174Z" fill="black"/>
<path d="M20.4297 359.05C21.1897 361.62 21.9897 364.16 22.8597 366.65V361.77C22.8597 359.9 21.8497 358.88 20.4297 359.05Z" fill="black"/>
<path d="M20.6798 267.68C21.8015 266.948 22.7347 265.961 23.4037 264.801C24.0726 263.64 24.4584 262.338 24.5298 261V253.2C24.5298 250.74 22.8098 249.74 20.6798 250.97L11.9998 256C11.5465 261.72 11.2365 267.47 11.0698 273.25L20.6798 267.68Z" fill="black"/>
<path d="M146.86 133.52L182.55 112.91C183.673 112.178 184.608 111.192 185.278 110.031C185.949 108.871 186.337 107.568 186.41 106.23V98.4198C186.41 95.9698 184.68 94.9698 182.55 96.1998L146.86 116.81C145.737 117.542 144.802 118.528 144.132 119.688C143.461 120.849 143.073 122.151 143 123.49V131.29C143 133.75 144.73 134.75 146.86 133.52Z" fill="black"/>
<path d="M170.749 263.28L206.449 242.67C207.57 241.939 208.503 240.954 209.172 239.795C209.841 238.636 210.227 237.336 210.299 236V228.19C210.299 225.73 208.579 224.74 206.449 225.97L170.749 246.58C169.628 247.311 168.696 248.295 168.027 249.454C167.358 250.613 166.972 251.914 166.899 253.25V261.06C166.899 263.52 168.619 264.51 170.749 263.28Z" fill="black"/>
<path d="M77.87 111.65L113.56 90.9999C114.683 90.2681 115.618 89.2819 116.288 88.1213C116.959 86.9607 117.347 85.6583 117.42 84.3199V76.5199C117.42 74.0599 115.69 73.0599 113.56 74.2899L77.87 94.9399C76.7451 95.6707 75.8085 96.6564 75.136 97.8171C74.4636 98.9777 74.0744 100.281 74 101.62V109.42C74 111.88 75.74 112.88 77.87 111.65Z" fill="black"/>
<path d="M143 172.32C143 174.78 144.73 175.78 146.86 174.55L182.55 153.94C183.673 153.208 184.608 152.222 185.278 151.061C185.949 149.901 186.337 148.598 186.41 147.26V139.46C186.41 137 184.68 136 182.55 137.23L146.86 157.84C145.737 158.572 144.802 159.558 144.132 160.719C143.461 161.879 143.073 163.181 143 164.52V172.32Z" fill="black"/>
<path d="M89.6696 272.84L53.9996 293.45C52.8766 294.182 51.9419 295.168 51.2713 296.328C50.6006 297.489 50.2129 298.791 50.1396 300.13V307.93C50.1396 310.39 51.8696 311.39 53.9996 310.16L89.6996 289.55C90.8214 288.817 91.7546 287.831 92.4235 286.67C93.0924 285.509 93.4783 284.207 93.5497 282.87V275.07C93.5197 272.61 91.7996 271.61 89.6696 272.84Z" fill="black"/>
<path d="M232.599 17.6699C221.888 18.4623 211.246 20.0027 200.749 22.2799L193.299 26.5799C192.176 27.3118 191.242 28.298 190.571 29.4586C189.9 30.6192 189.513 31.9215 189.439 33.2599V41.0699C189.439 43.5299 191.169 44.5199 193.299 43.2899L228.999 22.6799C230.78 21.5154 232.064 19.7293 232.599 17.6699Z" fill="black"/>
<path d="M117.42 248.5V240.7C117.42 238.24 115.69 237.24 113.56 238.47L77.87 259.08C76.7451 259.811 75.8085 260.797 75.136 261.957C74.4636 263.118 74.0744 264.421 74 265.76V273.56C74 276.02 75.73 277.02 77.86 275.79L113.55 255.18C114.675 254.449 115.612 253.464 116.284 252.303C116.956 251.142 117.346 249.839 117.42 248.5Z" fill="black"/>
<path d="M163.86 303.8V296C163.86 293.54 162.14 292.54 160.01 293.77L124.31 314.38C123.187 315.112 122.252 316.098 121.581 317.259C120.911 318.419 120.523 319.721 120.45 321.06V328.86C120.45 331.32 122.18 332.32 124.31 331.09L160 310.48C161.123 309.749 162.058 308.763 162.729 307.602C163.4 306.441 163.787 305.139 163.86 303.8Z" fill="black"/>
<path d="M286.18 217.35L321.88 196.74C323.003 196.008 323.938 195.022 324.608 193.862C325.279 192.701 325.667 191.399 325.74 190.06V182.26C325.74 179.8 324.01 178.8 321.88 180.03L286.18 200.64C285.058 201.373 284.125 202.359 283.456 203.52C282.787 204.68 282.401 205.982 282.33 207.32V215.12C282.33 217.58 284.05 218.58 286.18 217.35Z" fill="black"/>
<path d="M310.08 224L345.78 203.39C346.901 202.658 347.835 201.671 348.504 200.51C349.173 199.35 349.558 198.048 349.63 196.71V188.91C349.63 186.45 347.91 185.45 345.78 186.68L310.08 207.29C308.957 208.022 308.022 209.008 307.351 210.169C306.681 211.329 306.293 212.632 306.22 213.97V221.77C306.22 224.24 308 225.24 310.08 224Z" fill="black"/>
<path d="M282.33 107.2V115C282.33 117.46 284.05 118.46 286.18 117.23L321.88 96.62C323.003 95.8882 323.938 94.902 324.608 93.7414C325.279 92.5808 325.667 91.2785 325.74 89.94V82.14C325.74 79.68 324.01 78.68 321.88 79.91L286.18 100.52C285.058 101.252 284.125 102.239 283.456 103.4C282.787 104.56 282.401 105.862 282.33 107.2Z" fill="black"/>
<path d="M306.54 33C305.417 33.7319 304.482 34.7181 303.811 35.8787C303.141 37.0393 302.753 38.3416 302.68 39.68V47.49C302.68 49.94 304.41 50.94 306.54 49.71L334.89 33.3C328.963 30.9533 322.94 28.8533 316.82 27L306.54 33Z" fill="black"/>
<path d="M299.33 72.3099L263.64 92.9199C262.517 93.6518 261.583 94.638 260.912 95.7986C260.241 96.9592 259.854 98.2615 259.78 99.5999V107.4C259.78 109.86 261.51 110.86 263.64 109.63L299.33 88.9999C300.453 88.2681 301.388 87.2819 302.059 86.1213C302.729 84.9607 303.117 83.6584 303.19 82.3199V74.5199C303.19 72.0799 301.46 71.0799 299.33 72.3099Z" fill="black"/>
<path d="M349.63 106.85C349.63 104.39 347.91 103.39 345.78 104.62L310.08 125.23C308.957 125.962 308.022 126.948 307.351 128.109C306.681 129.269 306.293 130.572 306.22 131.91V139.71C306.22 142.17 307.95 143.17 310.08 141.94L345.78 121.33C346.901 120.598 347.835 119.611 348.504 118.45C349.173 117.29 349.558 115.988 349.63 114.65V106.85Z" fill="black"/>
<path d="M438.66 133.16L403 153.76C401.877 154.492 400.942 155.478 400.271 156.639C399.601 157.799 399.213 159.102 399.14 160.44V168.25C399.14 170.71 400.86 171.7 402.99 170.47L438.69 149.86C439.813 149.128 440.747 148.142 441.418 146.981C442.089 145.821 442.476 144.519 442.55 143.18V135.38C442.52 132.92 440.79 131.93 438.66 133.16Z" fill="black"/>
<path d="M438.149 113L425.509 120.32C424.386 121.052 423.452 122.038 422.781 123.199C422.11 124.359 421.723 125.662 421.649 127V134.8C421.649 137.26 423.379 138.26 425.509 137.03L446.309 125.03C443.583 120.743 440.863 116.733 438.149 113Z" fill="black"/>
<path d="M256.75 168.19V160.39C256.75 157.93 255.02 156.93 252.89 158.16L217.19 178.77C216.069 179.504 215.137 180.49 214.468 181.651C213.799 182.811 213.413 184.113 213.34 185.45V193.25C213.34 195.71 215.07 196.71 217.19 195.48L252.89 174.87C254.013 174.138 254.948 173.152 255.618 171.991C256.289 170.831 256.677 169.528 256.75 168.19Z" fill="black"/>
<path d="M392.22 77.85L356.52 98.46C355.398 99.1924 354.465 100.179 353.796 101.34C353.127 102.5 352.741 103.802 352.67 105.14V112.94C352.67 115.4 354.39 116.4 356.52 115.17L392.22 94.56C393.343 93.8281 394.278 92.8419 394.948 91.6813C395.619 90.5207 396.007 89.2184 396.08 87.88V80.08C396.08 77.62 394.35 76.62 392.22 77.85Z" fill="black"/>
<path d="M228.999 233.57L193.299 254.18C192.176 254.912 191.242 255.898 190.571 257.058C189.9 258.219 189.513 259.521 189.439 260.86V268.66C189.439 271.12 191.169 272.12 193.299 270.89L228.999 250.28C230.122 249.548 231.057 248.562 231.728 247.401C232.398 246.24 232.786 244.938 232.859 243.6V235.8C232.849 233.34 231.119 232.34 228.999 233.57Z" fill="black"/>
<path d="M42.8996 382.92C44.0213 382.187 44.9545 381.201 45.6235 380.04C46.2924 378.88 46.6782 377.578 46.7496 376.24V368.44C46.7496 365.98 45.0296 364.98 42.8996 366.21L26.3696 375.75C28.2461 380.212 30.3454 384.578 32.6596 388.83L42.8996 382.92Z" fill="black"/>
<path d="M375.21 153.78V161.58C375.21 164.04 376.94 165.04 379.07 163.81L414.76 143.2C415.883 142.468 416.818 141.482 417.488 140.321C418.159 139.161 418.547 137.859 418.62 136.52V128.72C418.62 126.26 416.89 125.26 414.76 126.49L379.07 147.1C377.947 147.832 377.012 148.818 376.342 149.979C375.671 151.139 375.283 152.442 375.21 153.78Z" fill="black"/>
</g>
<path opacity="0.15" d="M169.49 404.33C169.091 404.101 168.681 403.894 168.26 403.71L168.41 403.62L98.4099 365.32V339.55L82.6499 348.64V374.41L147.59 409.94C147.73 411.72 148.97 413.49 151.33 414.85C156.33 417.75 164.46 417.75 169.48 414.85C172 413.41 173.25 411.49 173.25 409.58C173.25 407.67 172 405.77 169.49 404.33Z" fill="black"/>
<path opacity="0.15" d="M148.94 416.73C148.539 416.5 148.125 416.293 147.7 416.11L147.85 416.02L77.8499 377.72V352L62.1099 361V386.77L127.05 422.3C127.19 424.08 128.42 425.85 130.79 427.21C135.79 430.11 143.92 430.11 148.94 427.21C151.46 425.76 152.71 423.85 152.71 421.94C152.71 420.03 151.46 418.17 148.94 416.73Z" fill="black"/>
<path opacity="0.15" d="M387.18 462.28C380.221 458.094 372.707 454.909 364.86 452.82C354.8 449.94 342.86 447.82 334.34 444.33C323.22 439.8 318.24 433.09 317.91 425.65C317.72 421.44 319.51 416.47 328.49 412.02C331.119 410.704 333.909 409.739 336.79 409.15C340.813 408.411 344.935 408.38 348.97 409.06C367.09 411.74 375.64 418.72 382.61 425.69C389.58 432.66 397.32 436.16 411.11 441.69C417.01 444.04 423.29 446.27 428.9 448.69L429.03 448.75C431.846 449.826 434.588 451.085 437.24 452.52C440.9 454.82 444.19 457.27 445.82 460.13C447.45 462.99 447.33 466.31 444.31 469.84C443.311 471.033 442.033 471.96 440.59 472.54C438.757 473.276 436.849 473.806 434.9 474.12C431.068 474.815 427.17 475.08 423.28 474.91C420.197 474.75 417.133 474.332 414.12 473.66C404.502 471.602 395.36 467.74 387.18 462.28Z" fill="black"/>
<path d="M95.5599 335.79L100.7 338.79L90.3999 356.58L85.2599 353.58C83.9399 352.82 83.1299 351.19 83.1299 348.87C83.2654 346.345 83.9943 343.887 85.2574 341.696C86.5206 339.505 88.2824 337.643 90.3999 336.26C92.4199 335.13 94.2399 335 95.5599 335.79Z" fill="#455A64"/>
<path d="M88.27 351.87C88.4075 349.344 89.1382 346.886 90.4031 344.695C91.6679 342.505 93.4312 340.643 95.55 339.26C99.55 336.94 102.83 338.82 102.83 343.46C102.693 345.986 101.962 348.445 100.697 350.635C99.4322 352.826 97.6689 354.688 95.55 356.07C91.53 358.39 88.27 356.51 88.27 351.87Z" fill="#263238"/>
<g opacity="0.3">
<path d="M90.3999 350.64C90.4965 348.853 91.0131 347.114 91.908 345.564C92.8028 344.014 94.0506 342.697 95.5499 341.72C98.3899 340.08 100.7 341.41 100.7 344.72C100.603 346.507 100.087 348.246 99.1918 349.796C98.297 351.346 97.0493 352.663 95.5499 353.64C92.7099 355.25 90.3999 353.92 90.3999 350.64Z" fill="black"/>
</g>
<g opacity="0.3">
<path d="M97.0599 342.59C96.9633 344.377 96.4467 346.116 95.5518 347.666C94.657 349.216 93.4093 350.533 91.9099 351.51C91.4966 351.742 91.0568 351.924 90.5999 352.05C90.4676 351.592 90.4003 351.117 90.3999 350.64C90.4965 348.853 91.0131 347.114 91.908 345.564C92.8028 344.014 94.0506 342.697 95.5499 341.72C95.9658 341.486 96.4092 341.305 96.8699 341.18C96.9937 341.64 97.0575 342.114 97.0599 342.59Z" fill="black"/>
</g>
<path d="M91.9099 354L152.24 388.87C152.518 389.03 152.75 389.26 152.911 389.537C153.073 389.814 153.159 390.129 153.16 390.45V411.09H167.72V393.16V388.51C167.721 386.218 167.118 383.965 165.971 381.98C164.825 379.994 163.176 378.346 161.19 377.2L99.1899 341.37C98.6069 341.099 97.9622 340.989 97.3223 341.05C96.6824 341.112 96.0705 341.343 95.5499 341.72C94.0505 342.697 92.8028 344.014 91.9079 345.564C91.0131 347.114 90.4964 348.853 90.3999 350.64C90.3267 351.285 90.4294 351.938 90.697 352.53C90.9645 353.121 91.3871 353.629 91.9199 354H91.9099Z" fill="#455A64"/>
<path d="M167.72 389.2C167.716 388.189 167.592 387.182 167.35 386.2C167.4 386.59 167.56 389.37 162.21 391.15C156.43 393.07 153.16 391.15 153.16 391.15V411.1H167.72V393.85V389.2Z" fill="#37474F"/>
<g opacity="0.3">
<path d="M91.9099 354L152.24 388.87C152.518 389.03 152.75 389.26 152.911 389.537C153.073 389.814 153.159 390.129 153.16 390.45V411.09H158.56V395.68V393.68C158.557 391.383 157.948 389.128 156.797 387.141C155.645 385.154 153.991 383.505 152 382.36L91.1899 347.21C90.7194 348.295 90.4516 349.458 90.3999 350.64C90.3267 351.285 90.4294 351.938 90.697 352.529C90.9645 353.121 91.3871 353.629 91.9199 354H91.9099Z" fill="black"/>
</g>
<path d="M170.739 402.79V408.74C170.739 410.27 169.739 411.81 167.739 412.97C165.479 414.119 162.98 414.718 160.444 414.718C157.909 414.718 155.41 414.119 153.149 412.97C151.149 411.81 150.149 410.27 150.149 408.75V402.75H153.219C153.233 403.15 153.329 403.543 153.501 403.904C153.673 404.265 153.918 404.587 154.219 404.85L154.469 405.09C154.748 405.328 155.046 405.542 155.359 405.73C156.956 406.543 158.723 406.967 160.514 406.967C162.306 406.967 164.073 406.543 165.669 405.73C165.985 405.544 166.283 405.33 166.559 405.09L166.809 404.85C167.111 404.587 167.355 404.265 167.527 403.903C167.699 403.542 167.795 403.15 167.809 402.75L170.739 402.79Z" fill="#263238"/>
<path d="M170.739 402.79C170.739 404.31 169.739 405.85 167.739 407.01C165.478 408.154 162.979 408.75 160.444 408.75C157.91 408.75 155.411 408.154 153.149 407.01C151.149 405.85 150.149 404.31 150.149 402.79C150.149 401.27 151.149 399.74 153.149 398.58V402.82C153.163 403.22 153.259 403.613 153.431 403.974C153.603 404.335 153.848 404.657 154.149 404.92L154.399 405.16C154.678 405.398 154.976 405.612 155.289 405.8C156.886 406.613 158.653 407.037 160.444 407.037C162.236 407.037 164.003 406.613 165.599 405.8C165.915 405.614 166.213 405.4 166.489 405.16L166.739 404.92C167.041 404.657 167.285 404.335 167.457 403.974C167.629 403.612 167.725 403.22 167.739 402.82V398.61C169.739 399.74 170.739 401.27 170.739 402.79Z" fill="#455A64"/>
<path d="M74.5399 347.93L79.6799 350.93L69.3899 368.72L64.2399 365.72C62.9199 364.96 62.1099 363.33 62.1099 361.01C62.2473 358.484 62.9781 356.026 64.2429 353.835C65.5077 351.644 67.271 349.782 69.3899 348.4C71.3999 347.27 73.2299 347.16 74.5399 347.93Z" fill="#455A64"/>
<path d="M67.25 364C67.3874 361.474 68.1182 359.016 69.383 356.825C70.6479 354.634 72.4112 352.772 74.53 351.39C78.53 349.07 81.81 350.95 81.81 355.59C81.6726 358.116 80.9418 360.574 79.677 362.765C78.4121 364.956 76.6488 366.818 74.53 368.2C70.51 370.53 67.25 368.65 67.25 364Z" fill="#263238"/>
<g opacity="0.3">
<path d="M69.3896 362.78C69.4859 360.994 70.0014 359.256 70.8943 357.706C71.7873 356.157 73.0327 354.839 74.5296 353.86C77.3796 352.22 79.6796 353.55 79.6796 356.86C79.5847 358.648 79.0687 360.387 78.1737 361.938C77.2787 363.488 76.0301 364.804 74.5296 365.78C71.6896 367.39 69.3896 366.06 69.3896 362.78Z" fill="black"/>
</g>
<g opacity="0.3">
<path d="M76.0001 354.73C75.9051 356.518 75.3891 358.257 74.4941 359.808C73.5992 361.358 72.3506 362.674 70.8501 363.65C70.4377 363.884 69.9976 364.066 69.5401 364.19C69.4163 363.73 69.3525 363.257 69.3501 362.78C69.4463 360.994 69.9618 359.256 70.8548 357.706C71.7478 356.157 72.9932 354.839 74.4901 353.86C74.9068 353.628 75.35 353.447 75.8101 353.32C75.9339 353.78 75.9977 354.254 76.0001 354.73Z" fill="black"/>
</g>
<path d="M70.8998 366.12L131.23 401C131.506 401.162 131.735 401.392 131.894 401.669C132.054 401.947 132.138 402.26 132.14 402.58V422.53H146.7V405.3V400.65C146.7 398.358 146.096 396.106 144.95 394.12C143.804 392.135 142.155 390.486 140.17 389.34L78.1698 353.51C77.5851 353.239 76.9388 353.129 76.2974 353.19C75.6559 353.252 75.0424 353.483 74.5198 353.86C73.0229 354.839 71.7775 356.157 70.8845 357.706C69.9915 359.256 69.476 360.994 69.3798 362.78C69.3133 363.419 69.4181 364.065 69.6835 364.65C69.9488 365.235 70.3652 365.739 70.8898 366.11L70.8998 366.12Z" fill="#455A64"/>
<path d="M146.7 400.65C146.696 399.639 146.571 398.632 146.33 397.65C146.39 398.05 146.54 400.82 141.19 402.6C135.41 404.52 132.14 402.6 132.14 402.6V422.55H146.7V405.3V400.65Z" fill="#37474F"/>
<g opacity="0.3">
<path d="M70.9001 366.12L131.23 401C131.506 401.162 131.735 401.392 131.895 401.669C132.054 401.946 132.139 402.26 132.14 402.58V422.53H137.54V407.83V405.83C137.542 403.535 136.938 401.28 135.79 399.292C134.642 397.305 132.989 395.655 131 394.51L70.18 359.35C69.7047 360.434 69.4367 361.597 69.39 362.78C69.3235 363.419 69.4284 364.065 69.6937 364.65C69.9591 365.235 70.3755 365.739 70.9001 366.11V366.12Z" fill="black"/>
</g>
<path d="M149.73 414.93V420.88C149.73 422.41 148.73 423.95 146.73 425.11C144.468 426.259 141.967 426.858 139.43 426.858C136.893 426.858 134.392 426.259 132.13 425.11C130.13 423.95 129.13 422.41 129.13 420.89V414.89H132.2C132.212 415.29 132.307 415.684 132.479 416.045C132.651 416.407 132.897 416.728 133.2 416.99C133.275 417.075 133.355 417.155 133.44 417.23C133.716 417.471 134.014 417.685 134.33 417.87C135.928 418.683 137.696 419.107 139.49 419.107C141.283 419.107 143.051 418.683 144.65 417.87C144.964 417.683 145.262 417.469 145.54 417.23C145.63 417.15 145.7 417.07 145.78 416.99C146.078 416.724 146.32 416.402 146.492 416.041C146.663 415.68 146.761 415.289 146.78 414.89L149.73 414.93Z" fill="#263238"/>
<path d="M149.73 414.93C149.73 416.45 148.73 417.99 146.73 419.15C144.467 420.294 141.966 420.891 139.43 420.891C136.894 420.891 134.393 420.294 132.13 419.15C130.13 417.99 129.13 416.45 129.13 414.93C129.13 413.41 130.13 411.88 132.13 410.72V414.96C132.142 415.36 132.237 415.754 132.409 416.115C132.581 416.477 132.827 416.799 133.13 417.06C133.205 417.145 133.285 417.225 133.37 417.3C133.646 417.541 133.944 417.755 134.26 417.94C135.858 418.753 137.626 419.177 139.42 419.177C141.213 419.177 142.981 418.753 144.58 417.94C144.894 417.753 145.192 417.539 145.47 417.3C145.56 417.22 145.63 417.14 145.71 417.06C146.008 416.794 146.25 416.472 146.422 416.111C146.593 415.75 146.691 415.359 146.71 414.96V410.75C148.72 411.88 149.73 413.41 149.73 414.93Z" fill="#455A64"/>
<path d="M241.45 118.88C241.45 87.8804 230.56 66.0904 212.97 55.9304C195.38 45.7704 171.07 47.2404 144.21 62.7504C90.51 93.7504 47 169.15 47 231.16C47 262.16 57.89 283.95 75.48 294.1C93.07 304.25 117.38 302.79 144.24 287.29C197.92 256.29 241.45 180.89 241.45 118.88Z" fill="#641EFF"/>
<path opacity="0.95" d="M241.45 118.88C241.45 87.8804 230.56 66.0904 212.97 55.9304C195.38 45.7704 171.07 47.2404 144.21 62.7504C90.51 93.7504 47 169.15 47 231.16C47 262.16 57.89 283.95 75.48 294.1C93.07 304.25 117.38 302.79 144.24 287.29C197.92 256.29 241.45 180.89 241.45 118.88Z" fill="white"/>
<g opacity="0.2">
<path d="M89.6698 272.841L65.7598 286.641C68.6528 289.541 71.914 292.049 75.4598 294.101C76.5398 294.731 77.6398 295.311 78.7698 295.841L89.6698 289.551C90.7915 288.818 91.7247 287.832 92.3936 286.671C93.0625 285.51 93.4484 284.208 93.5198 282.871V275.071C93.5198 272.611 91.7998 271.611 89.6698 272.841Z" fill="#641EFF"/>
<path d="M143 131.29C143 133.75 144.73 134.75 146.86 133.52L182.55 112.91C183.673 112.178 184.608 111.192 185.278 110.032C185.949 108.871 186.337 107.569 186.41 106.23V98.4203C186.41 95.9703 184.68 94.9703 182.55 96.2003L146.86 116.81C145.737 117.542 144.802 118.528 144.132 119.689C143.461 120.85 143.073 122.152 143 123.49V131.29Z" fill="#641EFF"/>
<path d="M182.55 137.23L146.86 157.84C145.737 158.572 144.802 159.558 144.132 160.719C143.461 161.88 143.073 163.182 143 164.52V172.32C143 174.78 144.73 175.78 146.86 174.55L182.55 153.94C183.673 153.209 184.608 152.222 185.278 151.062C185.949 149.901 186.337 148.599 186.41 147.26V139.46C186.41 137 184.68 136 182.55 137.23Z" fill="#641EFF"/>
<path d="M117.42 84.3605V82.5405C112.366 87.1636 107.553 92.0433 103 97.1605L113.56 91.0005C114.678 90.2726 115.609 89.2927 116.28 88.1395C116.95 86.9864 117.341 85.692 117.42 84.3605Z" fill="#641EFF"/>
<path d="M205.799 226.34L170.749 246.58C169.628 247.311 168.696 248.296 168.027 249.455C167.358 250.614 166.972 251.914 166.899 253.25V261.06C166.899 263.52 168.619 264.51 170.749 263.28L181.749 256.92C190.641 247.446 198.688 237.214 205.799 226.34Z" fill="#641EFF"/>
<path d="M217.19 178.771C216.069 179.504 215.137 180.491 214.468 181.651C213.799 182.812 213.413 184.113 213.34 185.451V193.251C213.34 195.711 215.07 196.711 217.19 195.481L224.94 191.011C227.973 184.037 230.643 176.911 232.94 169.661L217.19 178.771Z" fill="#641EFF"/>
<path d="M117.42 248.501V240.701C117.42 238.241 115.69 237.241 113.56 238.471L77.87 259.081C76.7451 259.811 75.8085 260.797 75.136 261.958C74.4636 263.118 74.0744 264.421 74 265.761V273.561C74 276.021 75.73 277.021 77.86 275.791L113.55 255.181C114.675 254.45 115.612 253.464 116.284 252.303C116.956 251.143 117.346 249.84 117.42 248.501Z" fill="#641EFF"/>
<path d="M136.11 164.001L100.41 184.611C99.2879 185.343 98.3547 186.33 97.6857 187.49C97.0168 188.651 96.631 189.953 96.5596 191.291V199.091C96.5596 201.551 98.2796 202.551 100.41 201.321L136.11 180.711C137.242 179.979 138.185 178.99 138.861 177.823C139.537 176.657 139.928 175.347 140 174.001V166.201C140 163.771 138.24 162.771 136.11 164.001Z" fill="#641EFF"/>
</g>
<path opacity="0.2" d="M303.46 266.59L111.46 299.67C97.8 301.92 85.54 299.92 75.46 294.11C57.87 283.94 47 262.16 47 231.16C47 169.16 90.54 93.7502 144.24 62.7402C171.09 47.2402 195.4 45.7402 212.99 55.9302C223.05 61.7402 230.91 71.3502 235.8 84.3102L303.46 266.59Z" fill="#641EFF"/>
<path opacity="0.2" d="M303.46 266.59L111.46 299.67C97.8 301.92 85.54 299.92 75.46 294.11C57.87 283.94 47 262.16 47 231.16C47 169.16 90.54 93.7502 144.24 62.7402C171.09 47.2402 195.4 45.7402 212.99 55.9302C223.05 61.7402 230.91 71.3502 235.8 84.3102L303.46 266.59Z" fill="white"/>
<path d="M432.879 261.2L423.129 238.09C418.469 226.18 420.219 210.09 420.219 210.09C425.829 209.99 431.089 211.89 434.729 218.48C438.369 225.07 445.549 248.48 447.189 253.57C448.649 257.948 449.458 262.517 449.589 267.13C449.909 273.01 448.409 283.83 448.019 289.68C447.839 292.39 447.869 294.99 447.879 297.68C447.889 300.37 447.159 303.28 446.779 306.11C446.556 307.448 445.983 308.704 445.119 309.75C444.579 310.42 443.719 310.64 443.209 311.27C442.699 311.9 442.709 312.83 441.929 313.41C441.149 313.99 439.929 313.96 439.199 314.6C438.497 315.359 437.749 316.073 436.959 316.74C436.19 317.123 435.527 317.69 435.029 318.39C434.599 319.08 434.319 320.5 433.329 320.58C432.339 320.66 431.849 319.65 431.629 318.75C431.338 316.964 431.626 315.132 432.449 313.52C433.289 311.84 433.729 309.99 434.769 308.42C435.627 306.866 436.129 305.141 436.239 303.37C436.369 302.18 435.999 300.76 434.669 301.69C433.099 302.78 431.589 304.75 429.469 304.78C427.999 304.78 427.719 303.69 428.369 302.6C429.449 300.806 430.395 298.934 431.199 297C432.019 295 432.629 293 433.509 291.05C433.986 290.031 434.53 289.046 435.139 288.1C436.789 285.45 436.139 282.37 435.849 279.45C435.429 275.4 433.769 266.37 432.879 261.2Z" fill="#FFA8A7"/>
<path d="M419.27 209.17C427.18 209.76 431.6 211.38 435.82 219.17C440.04 226.96 445.67 245.74 446.9 249.61C448.495 254.28 449.503 259.131 449.9 264.05C450.124 266.868 450.144 269.699 449.96 272.52C449.96 272.52 448.89 274.59 442.56 274.59C436.23 274.59 434.36 273.48 434.36 273.48L432.36 261.4L419.36 232.72L419.27 209.17Z" fill="#455A64"/>
<path d="M327 421.14C326.36 420.86 325.83 422.48 326 423.38C326.46 425.99 329 429.45 333.42 432.06C337.84 434.67 347.68 436.44 350.56 437.25C353.44 438.06 357.89 441.1 360.56 442.47C365.46 444.97 369.46 444.68 371.68 443.57C372.068 443.324 372.402 443.001 372.66 442.621C372.918 442.241 373.095 441.812 373.18 441.36C373.76 439.36 373.72 438.93 373.5 438.87L327 421.14Z" fill="#263238"/>
<path d="M374.77 433C374.519 435.487 373.902 437.924 372.94 440.23C372.367 440.785 371.683 441.213 370.933 441.485C370.184 441.757 369.385 441.868 368.59 441.81C364.87 441.81 361.59 440.5 358.17 438.5C355.972 437.119 353.597 436.042 351.11 435.3C348.11 434.51 341.42 433.07 338.46 432.16C335.693 431.31 333.13 429.901 330.93 428.02C329.28 426.49 326.93 423.53 326.81 421.81C327.31 418.07 328.35 416.09 330.81 415.55C333.27 415.01 336.52 415.72 340.87 416.77C342.17 417.09 343.79 417.53 344.5 417.68C347.16 418.22 349.62 418.81 351.61 419.31C353.263 419.862 355.02 420.037 356.75 419.82C357.539 419.742 358.276 419.388 358.83 418.82C359.53 418.05 359.94 416.73 360.76 416.91C360.76 416.91 374.49 424.08 375.63 424.58C376.9 425.09 375.39 426.74 374.77 433Z" fill="#37474F"/>
<path d="M326.81 421.77C327.03 419.17 327.94 415.77 331 415.36C335.58 414.74 340.06 416.61 344.46 417.64L339.12 416.41C332.96 415.12 327.74 413.68 326.81 421.77Z" fill="white"/>
<path d="M343.38 417.14C342.823 417.336 342.315 417.65 341.89 418.06C341.431 418.505 341.025 419.001 340.68 419.54C340.25 420.22 341.11 420.66 341.75 419.92C342.244 419.294 342.811 418.73 343.44 418.24C343.886 417.906 344.433 417.733 344.99 417.75L345.75 417.91C345.74 417.3 344.06 417 343.38 417.14Z" fill="#FAFAFA"/>
<path d="M350.18 418.49C349.944 418.386 349.688 418.332 349.43 418.332C349.172 418.332 348.916 418.386 348.68 418.49C348.071 418.74 347.544 419.156 347.16 419.69C346.671 420.319 346.237 420.988 345.86 421.69C345.65 422.15 346.78 422.5 347.07 422.02C347.445 421.396 347.853 420.792 348.29 420.21C348.52 419.92 349.51 418.85 350.29 418.98L350.65 419.07C350.71 418.91 350.52 418.72 350.38 418.63L350.18 418.49Z" fill="#FAFAFA"/>
<path d="M354.07 419.62C353.721 419.579 353.369 419.656 353.07 419.84C352.685 420.118 352.347 420.455 352.07 420.84C351.61 421.504 351.249 422.232 351 423C350.79 423.61 352 423.81 352.13 423.41C352.444 422.324 353.041 421.34 353.86 420.56C354.225 420.224 354.669 419.983 355.15 419.86C355.15 419.74 355 419.67 354.88 419.65C354.76 419.63 354.25 419.62 354.07 419.62Z" fill="#FAFAFA"/>
<path d="M381 409.26C381 409.26 376.69 422.35 375.37 425.33C374.95 426.33 372.96 426.08 371.86 426.19C370.537 426.245 369.233 426.519 368 427C364.78 428.64 362.75 428.61 362.66 423.88C362.66 422.88 362.2 422.36 361.02 422.2C360.118 422.218 359.222 422.062 358.38 421.74C358.28 421.62 358.38 421.44 358.55 421.34C359.083 421.001 359.538 420.552 359.883 420.022C360.228 419.492 360.455 418.895 360.55 418.27C361.89 412.67 362.55 407.84 364.06 400.96L381 409.26Z" fill="#FFA8A7"/>
<path d="M391.42 279.78C391.42 279.78 384.83 287.67 380.85 302.44C377.242 316.155 374.497 330.082 372.63 344.14C371.68 350.43 370.98 354.91 369.27 366.36C367.85 375.89 361.59 411.36 361.59 411.36C361.59 411.36 366.18 415.36 370.04 416.8C373.64 418.16 376.97 418.7 378.29 418.16C378.29 418.16 382.72 406.78 388.2 391.88C390.845 385.054 392.954 378.033 394.51 370.88C395.23 367.19 395.06 360.63 394.99 357.32L424.45 311.82C426.829 309.002 428.69 305.786 429.95 302.32C433.82 292.6 428.88 278.58 428.88 278.58L391.42 279.78Z" fill="#263238"/>
<path d="M380.85 302.44C376.15 320 373.6 338.82 370.97 356.82C368.27 374.48 364.72 393.7 361.59 411.35C364.35 393.61 367.9 374.45 370.47 356.75C373.25 338.75 375.77 319.92 380.85 302.44Z" fill="white"/>
<path d="M420.41 292.56H384.23C382.881 295.773 381.752 299.074 380.85 302.44C377.49 315.069 374.912 327.894 373.13 340.84C374.01 346.76 375 352.84 375.93 357.02C378.36 368.02 379.87 375.86 381.8 380.41C383.73 384.96 388.34 391.41 388.36 391.41C390.93 384.71 392.986 377.823 394.51 370.81C395.23 367.12 395.06 360.56 394.99 357.25L416.39 324.25L418.05 314C423.52 305.08 422.91 298.4 420.41 292.56Z" fill="black"/>
<path d="M433.06 429.88C431.2 426.88 430.19 421.19 426.11 409.56L410.2 422.56L419.63 437.56C419.929 438.328 420.157 439.121 420.31 439.93C422.34 442.88 433.06 429.88 433.06 429.88Z" fill="#FFA8A7"/>
<path d="M438.67 436.22C438.67 436.05 438.74 434.65 438.67 434.48C438.27 432.97 437.34 432.55 436.14 431.71C434.938 430.896 433.831 429.951 432.84 428.89C432.44 428.33 432.36 428.04 431.74 427.79C430.932 427.537 430.079 427.464 429.239 427.574C428.4 427.685 427.595 427.977 426.88 428.43C423.44 430.23 422.39 432.43 422.59 434.77C422.74 436.56 422.89 438.95 421.3 440.02C420.64 440.47 419.6 437.6 419.6 437.6C418.6 439.23 420 441.5 420.71 444.82C421.123 446.654 421.157 448.553 420.81 450.4C420.46 453.31 420.06 453.3 418.51 453.5C417.18 453.68 413.4 453.43 411.1 455.03C410.224 455.541 409.53 456.313 409.114 457.238C408.698 458.164 408.581 459.195 408.78 460.19C409.19 461.31 412.64 466.74 425.22 464.71C428.87 464.12 436.54 458.38 436.43 457.85C436.365 457.302 436.365 456.748 436.43 456.2C436.43 454.91 436.52 453.62 436.58 452.34C436.532 451.109 436.606 449.876 436.8 448.66C437.032 447.674 437.186 446.67 437.26 445.66C437.5 443.07 437.75 440.49 437.99 437.91C438.12 437.12 438.77 437 438.67 436.22Z" fill="#37474F"/>
<path d="M440.26 435.71C441.5 436.91 440.74 440.4 439.08 444.58C438.34 446.43 436.97 449.63 437.37 453.02C437.77 456.41 437.84 458.02 436.97 459.61C435.6 462.1 428.28 465.29 423.97 466.29C426.576 462.633 428.095 458.314 428.35 453.83C428.79 446.34 429.35 441.51 432.79 438.18C437.12 434 440.26 435.71 440.26 435.71Z" fill="black"/>
<path d="M408.81 460.19C408.81 460.19 411.33 464.92 421.07 464.76C424.91 464.7 426.96 462.83 427.07 457.01C427.19 450.01 427.75 442.89 430.02 439.41C432.29 435.93 435.91 434.23 438.72 434.48C439.376 434.679 439.933 435.118 440.28 435.71C440.28 435.71 437.47 434.79 433.1 438.41C429.87 441.09 429 446.68 429.05 453.62C429.05 456.62 429.25 460 428.38 462.27C427.976 463.268 427.346 464.157 426.539 464.869C425.732 465.581 424.77 466.095 423.73 466.37C418.43 467.85 411.19 465.37 409.36 463.17C409.047 462.748 408.835 462.26 408.74 461.744C408.645 461.227 408.668 460.696 408.81 460.19Z" fill="#263238"/>
<path d="M420.51 452.23C420.115 452.509 419.834 452.921 419.72 453.39C419.676 453.989 419.795 454.589 420.064 455.126C420.334 455.663 420.743 456.117 421.25 456.44C421.84 456.81 422.35 456.68 421.42 455.44C420.824 454.475 420.509 453.364 420.51 452.23Z" fill="#FAFAFA"/>
<path d="M421 448.59C421 448.59 420.69 448.79 420.62 449.77C420.781 451.008 421.424 452.133 422.41 452.9C423.41 453.4 422.88 452.22 422.41 451.64C421.718 450.742 421.236 449.699 421 448.59Z" fill="#FAFAFA"/>
<path d="M420.69 444.58C420.69 444.58 420.35 444.67 420.69 446.01C421.163 446.857 421.911 447.516 422.81 447.88C423.47 447.96 423.81 447.63 422.98 447.04C422.36 446.58 420.81 445.23 420.69 444.58Z" fill="#FAFAFA"/>
<path d="M414.27 279.78C415.99 281.54 420.27 287.45 420.97 296.54C421.234 302.514 419.359 308.386 415.68 313.1C414.3 333.26 412.99 371.32 412.99 371.32C417.67 377.93 418.86 382.17 421.94 392C423.81 398 430.29 421.66 430.29 421.66C420.81 423.09 415.05 431.42 415.05 431.42C415.05 431.42 401.91 410.25 393.17 395.52C386.77 384.74 384.57 380.1 382.43 373.99C380.43 368.37 379.03 361.57 377.11 348.45C375.19 335.33 373.31 318.06 372.37 305.14C371.43 292.22 371.97 278.73 371.97 278.73L414.27 279.78Z" fill="#263238"/>
<path d="M415.049 431.42C410.519 424.25 401.569 409.8 397.179 402.55C391.429 392.82 385.019 383.28 381.679 372.37C379.011 361.357 377.008 350.194 375.679 338.94C374.269 327.71 373.149 316.44 372.399 305.14C372.859 310.78 373.403 316.413 374.029 322.04C375.819 338.9 378.029 355.8 382.189 372.24C385.449 383.09 391.809 392.67 397.489 402.38L415.079 431.38L415.049 431.42Z" fill="white"/>
<path d="M431.359 295.58C429.818 295.082 428.467 294.122 427.489 292.83C427.025 291.931 426.689 290.972 426.489 289.98C426.088 288.322 425.543 286.703 424.859 285.14L423.859 285.58C424.51 287.094 425.032 288.659 425.419 290.26C425.643 291.359 426.023 292.42 426.549 293.41C427.718 294.986 429.373 296.132 431.259 296.67C431.299 296.31 431.339 296 431.359 295.58Z" fill="black"/>
<path d="M405.469 307.13C405.705 307.131 405.939 307.108 406.169 307.06C407.749 306.71 408.979 305.65 411.429 302.52C413.289 300.13 413.099 298.42 412.789 295.58C412.669 294.53 411.569 288.96 411.509 287.49L410.459 288.07C410.529 289.58 411.589 294.64 411.699 295.7C412.019 298.52 412.159 299.81 410.569 301.84C408.299 304.74 407.219 305.71 405.929 306C404.639 306.29 399.149 305.36 397.669 304.34C396.819 303.75 395.399 296.47 394.559 290.05L393.479 290.2C393.899 293.44 395.399 304.1 397.049 305.2C398.519 306.25 403.269 307.19 405.469 307.13Z" fill="black"/>
<path d="M394.899 203.29L396.889 217.87L416.699 216.86L414.559 201.07L394.899 203.29Z" fill="#FFA8A7"/>
<path d="M387 176C385.48 177.93 380.82 183.19 380 184.57L384.44 187.26L387 176Z" fill="#F28F8F"/>
<path d="M387 176C384.859 179.009 382.521 181.872 380 184.57C381.986 181.447 384.336 178.57 387 176Z" fill="white"/>
<path d="M398 161.35C391.88 160.69 387.91 165.03 386.13 178.06C386.06 178.57 385.31 179.37 384.74 181.32C382.28 189.68 383.65 197.64 385.07 199.76C388.62 202.61 392.56 203.68 398.27 203.19C402.62 202.82 413.72 201.5 419.36 195.62C425.98 188.71 429.36 178.28 424.62 172.88C418 165.27 401.4 161.71 398 161.35Z" fill="#FFA8A7"/>
<path d="M398 161.35C388.8 160.58 387.53 171.82 386.21 178.57C383.7 183.32 383.32 189.03 383.71 194.32C383.802 196.205 384.264 198.053 385.07 199.76C384.19 198.077 383.643 196.24 383.46 194.35C382.9 188.99 383.25 183.2 385.77 178.35C386.98 171.57 388.77 160.14 398 161.35Z" fill="white"/>
<path d="M385.09 199.76C385.87 200.93 391.48 203.81 395 204.03L394.67 201.29C391.423 201.206 388.201 200.692 385.09 199.76Z" fill="#F28F8F"/>
<path d="M396.809 184.18C396.869 184.389 396.987 184.577 397.15 184.722C397.312 184.867 397.512 184.963 397.727 184.998C397.942 185.034 398.162 185.008 398.362 184.923C398.563 184.839 398.735 184.699 398.859 184.52C399.504 183.576 400.252 182.707 401.089 181.93C402.153 181.054 403.502 180.598 404.879 180.65C410.019 181.04 408.759 187.81 406.239 190.17C402.109 194.02 399.919 190.69 399.919 190.69C399.919 190.69 396.919 197.24 401.269 201.07C401.269 201.07 408.729 204.29 414.589 202.47C418.969 197.75 421.899 194.77 424.849 190.71C431.849 181.09 431.849 171.57 427.359 168.85C427.609 165.44 425.769 160.3 418.749 157.34C412.069 154.51 407.599 154.79 402.749 155.06C397.899 155.33 391.979 157.54 387.489 153.79C386.94 155.144 386.721 156.61 386.852 158.066C386.982 159.521 387.458 160.925 388.239 162.16C387.514 161.811 386.68 161.765 385.92 162.031C385.161 162.298 384.538 162.855 384.189 163.58C383.841 164.305 383.794 165.14 384.061 165.899C384.327 166.659 384.884 167.281 385.609 167.63C385.13 167.904 384.759 168.335 384.561 168.851C384.362 169.367 384.348 169.935 384.519 170.46C384.718 170.975 385.06 171.423 385.505 171.751C385.949 172.079 386.478 172.273 387.029 172.31C388.033 172.369 389.041 172.305 390.029 172.12C391.439 176.06 395.889 177.44 398.539 177.28C398.469 177.28 398.119 177.82 398.069 177.89C397.919 178.11 397.779 178.34 397.649 178.57C397.396 179.04 397.185 179.532 397.019 180.04C396.693 181.063 396.567 182.139 396.649 183.21C396.646 183.54 396.7 183.868 396.809 184.18Z" fill="#455A64"/>
<path d="M387.51 153.79C386.987 155.145 386.789 156.604 386.933 158.049C387.078 159.494 387.559 160.885 388.34 162.11L388.51 162.37L388.22 162.24C387.521 161.931 386.729 161.907 386.013 162.171C385.296 162.436 384.71 162.97 384.38 163.659C384.05 164.348 384.001 165.138 384.244 165.863C384.486 166.587 385.001 167.189 385.68 167.54L385.86 167.63L385.68 167.72C383.17 169.32 385.01 172.51 387.68 172.3C388.483 172.305 389.286 172.245 390.08 172.12C388.896 172.395 387.672 172.445 386.47 172.27C384.25 171.78 383.47 168.71 385.58 167.54V167.72C384.831 167.362 384.254 166.721 383.978 165.938C383.701 165.155 383.747 164.294 384.105 163.545C384.463 162.796 385.104 162.219 385.887 161.943C386.67 161.666 387.531 161.712 388.28 162.07L388.17 162.21C387.385 160.966 386.914 159.549 386.797 158.083C386.681 156.616 386.922 155.143 387.5 153.79H387.51Z" fill="white"/>
<path d="M424.769 211.38C429.909 214.26 433.819 223.86 433.439 231.87C433.199 236.95 431.439 250.04 429.899 261.62C429.419 265.27 430.899 271.43 431.539 278.83C432.039 284.32 432.109 290.16 432.109 290.16C432.109 290.16 425.219 298.68 406.319 299.79C382.179 301.22 371.489 295.38 371.489 295.38C371.489 295.38 371.349 275.72 371.929 260.14C372.789 237.05 372.839 230.3 376.449 222.43C377.639 220.11 378.889 214.94 382.819 213.91C385.939 213.1 393.119 211.38 395.969 210.91C400.629 212.11 412.729 212.21 415.729 209.66L415.679 208.99C420.869 209 421.599 209.61 424.769 211.38Z" fill="#641EFF"/>
<path d="M295.46 270.46C296.25 270.64 297.31 270.23 298.46 269.22C300.793 266.994 302.358 264.084 302.93 260.91C303.14 259.4 302.93 258.29 302.32 257.73L297.59 253.2C296.933 252.67 296.132 252.349 295.291 252.277C294.45 252.206 293.607 252.388 292.87 252.8C288.87 254.86 285.69 260.8 286.15 265.28C286.36 267.29 295 270.35 295.46 270.46Z" fill="#455A64"/>
<path d="M302.679 260.45C302.821 259.813 302.75 259.147 302.478 258.553C302.207 257.96 301.749 257.471 301.175 257.161C300.6 256.851 299.94 256.737 299.295 256.836C298.65 256.935 298.054 257.242 297.599 257.71C296.171 258.702 294.997 260.017 294.172 261.548C293.347 263.078 292.894 264.782 292.849 266.52C292.705 267.159 292.773 267.829 293.045 268.425C293.317 269.022 293.776 269.513 294.353 269.824C294.931 270.135 295.594 270.248 296.241 270.146C296.889 270.044 297.485 269.733 297.939 269.26C299.37 268.271 300.545 266.957 301.369 265.425C302.193 263.894 302.642 262.189 302.679 260.45Z" fill="#263238"/>
<path d="M327.48 284.21C327.824 284.345 328.197 284.39 328.563 284.339C328.929 284.288 329.276 284.144 329.57 283.92C330.397 283.343 331.076 282.581 331.554 281.693C332.032 280.805 332.294 279.818 332.32 278.81C332.345 278.442 332.274 278.073 332.115 277.74C331.955 277.407 331.713 277.121 331.41 276.91L301.29 259.73C300.843 259.498 300.345 259.381 299.842 259.392C299.339 259.402 298.846 259.539 298.41 259.79C297.298 260.396 296.387 261.313 295.787 262.428C295.187 263.543 294.924 264.808 295.03 266.07C295.062 266.572 295.22 267.057 295.49 267.482C295.759 267.906 296.13 268.256 296.57 268.5L327.48 284.21Z" fill="#455A64"/>
<path d="M332.32 278.81C332.345 278.442 332.275 278.073 332.115 277.74C331.956 277.407 331.713 277.121 331.41 276.91C331.077 276.751 330.706 276.688 330.339 276.726C329.972 276.765 329.623 276.905 329.33 277.13C328.474 277.705 327.771 278.48 327.281 279.388C326.791 280.295 326.53 281.309 326.52 282.34C326.495 282.714 326.575 283.088 326.752 283.418C326.929 283.749 327.195 284.023 327.52 284.21C327.864 284.345 328.237 284.39 328.603 284.339C328.969 284.288 329.316 284.144 329.61 283.92C330.43 283.339 331.102 282.574 331.572 281.687C332.043 280.8 332.299 279.814 332.32 278.81Z" fill="#263238"/>
<path d="M365.25 274.35C367.97 273.44 369.98 270.29 373.88 262.17C378.76 252.07 381.39 249.79 384.97 239.45C387.97 231.88 383.97 217.92 382.15 215.01C376.06 217.18 371.81 219.19 367.7 227.73C364.01 235.41 356.62 250.91 353.25 257.73C353.25 257.73 333.64 261.96 328.37 262.31C326.326 262.491 324.271 262.107 322.43 261.2C321.329 260.635 320.107 260.347 318.87 260.36C318.384 260.343 317.9 260.414 317.44 260.57C316.579 260.987 315.816 261.58 315.2 262.31C313.886 263.394 312.507 264.396 311.07 265.31C309.48 266.5 307.61 267.31 306 268.52C304.62 269.52 303.1 270.39 302.23 271.93C302.068 272.179 301.959 272.458 301.91 272.75C301.883 273.004 301.913 273.261 301.996 273.503C302.078 273.745 302.213 273.966 302.39 274.15C302.748 274.521 303.196 274.793 303.69 274.94C304.389 275.061 305.065 275.294 305.69 275.63C306.34 276.11 306.39 277.06 306.98 277.63C307.9 278.5 309.41 278.37 310.46 279.09C311.27 279.65 311.72 280.67 312.59 281.09C313.064 281.3 313.572 281.422 314.09 281.45C315.01 281.54 315.92 281.82 316.84 281.82C317.94 281.82 318.42 281.3 319.33 280.82C322.47 279.07 324.17 276.97 329.72 276.6C333.43 276.36 362.53 275.26 365.25 274.35Z" fill="#FFA8A7"/>
<path d="M382.74 213.91C376.11 215.49 372.19 217.91 367.83 225.91C363.83 233.32 352.83 257 352.83 257L341.83 260.09C340.953 261.373 340.349 262.822 340.057 264.348C339.764 265.874 339.789 267.444 340.13 268.96C341.18 274.1 343.46 276.41 343.46 276.41C343.46 276.41 349.07 276.25 358.63 275.92C368.19 275.59 368.88 273.38 370.98 269.22C373.08 265.06 385.98 239.96 385.98 239.96C385.98 239.96 391.2 221.4 382.74 213.91Z" fill="#455A64"/>
<path d="M396 211C391.54 211.82 387.14 213 382.76 214.1C379.459 214.752 376.368 216.205 373.76 218.33C369.52 222.14 367.27 227.53 364.76 232.53C360.76 240.67 357.01 248.91 353.16 257.11V257.21H353.05L342.05 260.27C336.71 261.08 331.05 262.87 325.63 262.37C323.76 262.2 322.19 260.99 320.41 260.64C319.526 260.455 318.613 260.455 317.73 260.64C316.894 260.973 316.155 261.51 315.58 262.2C312.81 264.68 309.5 266.37 306.41 268.34C304.96 269.43 303.24 270.34 302.31 271.94C303.22 270.3 304.93 269.38 306.31 268.27C309.36 266.27 312.66 264.48 315.31 262.02C315.912 261.291 316.689 260.727 317.57 260.38C318.493 260.185 319.446 260.185 320.37 260.38C322.2 260.72 323.71 261.91 325.58 262.08C331 262.53 336.58 260.74 341.86 259.89L352.8 256.78L352.65 256.91C356.416 248.664 360.306 240.477 364.32 232.35C366.89 227.35 369.19 221.92 373.49 218.1C376.162 215.879 379.386 214.424 382.82 213.89C386.65 212.82 391.68 211.74 395.96 210.99L396 211Z" fill="white"/>
<path opacity="0.3" d="M378.51 357C373.95 374.051 370.609 391.405 368.51 408.93C367.83 414.6 366.97 420.88 362.58 424.52C359.21 427.31 354.58 427.83 350.2 428.15C342.02 428.73 333.15 428.78 326.29 424.5C327.17 426.93 329.56 429.82 333.41 432.08C337.87 434.69 347.67 436.46 350.56 437.27C353.45 438.08 357.88 441.11 360.56 442.49C365.46 444.99 369.46 444.7 371.69 443.59C372.077 443.341 372.408 443.016 372.664 442.634C372.921 442.253 373.096 441.822 373.18 441.37C373.77 439.37 373.72 438.94 373.5 438.89C374.132 436.973 374.568 434.996 374.8 432.99C375.39 426.99 376.8 425.24 375.74 424.6C376.31 423.16 377.17 420.74 378.03 418.25C378.125 418.229 378.218 418.203 378.31 418.17C378.31 418.17 382.74 406.79 388.23 391.9C388.6 390.9 388.95 389.9 389.29 388.96C385.57 382.59 383.67 378.83 382.45 374.01C381.23 369.19 379.91 364.59 378.51 357ZM449.86 264C449.47 259.081 448.479 254.229 446.91 249.55C445.67 245.68 440.04 226.85 435.82 219.11C431.6 211.37 427.18 209.74 419.27 209.11C418.078 208.982 416.879 208.932 415.68 208.96C415.68 208.96 415.68 209.34 415.68 209.53L414.68 202.26C418.98 197.63 421.89 194.66 424.8 190.65C431.8 181.02 431.8 171.51 427.31 168.79C427.57 165.37 425.72 160.24 418.71 157.28C416.469 156.308 414.118 155.609 411.71 155.2C409.353 155.476 407.028 155.982 404.77 156.71C401.66 157.71 398.57 159.24 396.59 161.84C394.87 164.12 394.16 166.98 393.49 169.75C391.34 178.64 389.19 187.7 389.9 196.81C389.933 198.365 390.316 199.893 391.02 201.28C391.465 201.979 392.047 202.58 392.731 203.048C393.415 203.515 394.187 203.839 395 204C395 204 399.31 204.28 401.47 204.32C401.77 206.16 402.2 208.92 402.47 210.76C402.635 211.37 402.607 212.017 402.39 212.61C402.16 212.947 401.864 213.233 401.521 213.451C401.177 213.669 400.792 213.815 400.39 213.88C392.57 216.03 383.45 216.22 377.95 222.18C376.013 224.52 374.461 227.153 373.35 229.98L364.77 248.87C362.91 252.98 360.92 257.25 357.37 260.03C350.96 265.03 341.81 263.69 333.91 265.64C328.18 267.06 323.08 270.25 317.41 271.83C316.11 272.2 314.81 272.55 313.49 272.83C312.17 273.11 310.71 272.98 309.33 273.19C308.804 273.244 308.308 273.46 307.912 273.81C307.515 274.16 307.238 274.625 307.12 275.14C307.084 275.691 307.176 276.242 307.39 276.75C307.659 277.423 308.114 278.005 308.7 278.43C309.313 278.549 309.902 278.772 310.44 279.09C311.26 279.65 311.7 280.67 312.57 281.09C313.043 281.302 313.552 281.42 314.07 281.44C314.978 281.617 315.897 281.741 316.82 281.81C317.92 281.81 318.4 281.29 319.31 280.81L320.02 280.39C322.74 278.74 324.59 276.92 329.71 276.58L330.77 276.52C333.09 276.4 337.88 276.19 343.19 275.94C343.41 276.21 343.54 276.34 343.54 276.34C343.54 276.34 349.15 276.19 358.71 275.86C368.27 275.53 368.96 273.31 371.06 269.16L371.7 267.9V268C374.77 262 380.23 251.27 382.03 247.76C382.03 247.76 381.37 276.76 381.44 289.35C381.57 312.82 385.25 336.1 388.91 359.28C389.82 364.98 392.24 370.4 394.27 375.83C396.51 381.83 398.82 387.83 401.27 393.73C406.03 405.428 411.791 416.694 418.49 427.4C420.098 429.648 421.44 432.074 422.49 434.63C423.75 438.24 423.68 442.16 423.56 445.97C423.637 449.111 423.181 452.242 422.21 455.23C420.21 460.57 413.26 461.08 408.94 457.93C408.704 458.667 408.666 459.454 408.83 460.21C408.686 460.718 408.658 461.251 408.75 461.771C408.842 462.291 409.05 462.783 409.36 463.21C411.19 465.45 418.43 467.9 423.73 466.41L423.99 466.33C428.3 465.33 435.62 462.15 436.99 459.66C437.87 458.07 437.8 456.46 437.39 453.07C436.98 449.68 438.39 446.48 439.1 444.62C440.77 440.44 441.52 436.96 440.28 435.75C439.933 435.159 439.376 434.72 438.72 434.52C438.32 433.02 437.39 432.6 436.2 431.76C434.99 430.949 433.879 430 432.89 428.93C432.697 428.578 432.439 428.266 432.13 428.01C431.49 426.47 430.87 424.43 430.06 421.76H430.32C430.32 421.76 423.81 398 421.94 392C418.86 382.17 417.67 377.93 412.99 371.32C412.99 371.32 413.84 346.67 414.89 326.54L424.45 311.77C426.307 309.605 427.831 307.175 428.97 304.56C428.939 304.615 428.912 304.672 428.89 304.73C429.078 304.786 429.274 304.81 429.47 304.8C431.59 304.8 433.1 302.8 434.67 301.71C434.803 301.589 434.964 301.504 435.139 301.462C435.314 301.42 435.496 301.423 435.67 301.47L435.78 301.4C437.47 300.59 437.57 304.4 437.54 305.21C437.401 307.135 436.934 309.022 436.16 310.79C434.98 313.73 433.49 316.69 433.63 319.85C433.63 320.07 433.66 320.289 433.72 320.5C434.42 320.15 434.72 319.01 435.05 318.41C435.553 317.715 436.215 317.149 436.98 316.76C437.772 316.099 438.52 315.388 439.22 314.63C439.96 313.99 441.1 314.09 441.96 313.44C442.82 312.79 442.69 311.96 443.23 311.3C443.77 310.64 444.6 310.45 445.15 309.77C446.01 308.723 446.579 307.467 446.8 306.13C447.18 303.3 447.91 300.56 447.9 297.71C447.89 294.86 447.9 292.38 448.05 289.71C448.32 285.48 449.18 278.65 449.52 272.97C449.684 272.844 449.823 272.688 449.93 272.51C450.111 269.676 450.087 266.832 449.86 264ZM439.24 286.07C438.66 288.22 437 289.86 435.73 291.68C433.19 295.32 432.14 299.85 429.49 303.42C429.65 303.04 429.82 302.65 429.98 302.24C431.244 298.637 431.708 294.801 431.34 291C431.616 290.753 431.873 290.486 432.11 290.2C432.11 290.2 432.04 284.36 431.54 278.88C430.87 271.47 429.42 265.32 429.9 261.67C430.47 257.33 431.08 252.77 431.62 248.5C433.157 251.533 434.493 254.663 435.62 257.87C438.32 265.72 438.99 274.08 439.42 282.31C439.557 283.569 439.496 284.841 439.24 286.08V286.07Z" fill="black"/>
<path d="M106.14 192.74L95.6401 198.8V224.06L81.1401 232.43L98.1401 168.43L86.8601 175L68.6201 243.2V253L95.6201 237.4V252L106.12 245.94V231.3L113.22 227.2V213.9L106.12 218L106.14 192.74ZM144.35 141.74C129.28 150.44 117.07 173.74 117.07 193.86C117.07 213.98 129.28 223.18 144.35 214.49C159.42 205.8 171.63 182.49 171.63 162.36C171.63 142.23 159.41 133.09 144.35 141.79V141.74ZM144.35 200.48C135.08 205.83 127.57 200.15 127.57 187.8C127.57 175.45 135.08 161.09 144.35 155.74C153.62 150.39 161.12 156.07 161.12 168.43C161.12 180.79 153.61 195.18 144.35 200.53V200.48ZM212.71 156.42V131.21L202.2 137.27V162.53L187.71 170.9L204.71 106.9L193.42 113.42L175.18 181.64V191.4L202.18 175.8V190.42L212.69 184.36V169.77L219.79 165.67V152.37L212.71 156.42Z" fill="#641EFF"/>
<path d="M104.69 151.81C104.716 151.791 104.748 151.78 104.78 151.78C104.813 151.78 104.844 151.791 104.87 151.81C104.93 151.81 104.95 151.91 104.95 152.01V152.94C104.951 153.042 104.923 153.143 104.87 153.23C104.832 153.316 104.769 153.389 104.69 153.44L100.38 155.93C100.354 155.95 100.323 155.96 100.29 155.96C100.258 155.96 100.226 155.95 100.2 155.93C100.173 155.905 100.151 155.874 100.138 155.839C100.124 155.805 100.118 155.767 100.12 155.73V147.28C100.124 147.179 100.152 147.079 100.2 146.99C100.238 146.904 100.301 146.831 100.38 146.78L104.61 144.34C104.637 144.318 104.671 144.306 104.705 144.306C104.74 144.306 104.773 144.318 104.8 144.34C104.827 144.367 104.848 144.4 104.86 144.437C104.872 144.473 104.875 144.512 104.87 144.55V145.47C104.871 145.574 104.847 145.677 104.8 145.77C104.756 145.855 104.69 145.928 104.61 145.98L101.44 147.81V149.89L104.44 148.18C104.468 148.16 104.501 148.149 104.535 148.149C104.569 148.149 104.603 148.16 104.63 148.18C104.658 148.205 104.679 148.236 104.693 148.271C104.707 148.306 104.713 148.343 104.71 148.38V149.31C104.707 149.415 104.68 149.518 104.63 149.61C104.592 149.699 104.525 149.773 104.44 149.82L101.44 151.52V153.69L104.69 151.81Z" fill="#37474F"/>
<path d="M109 141.82C109.82 141.35 110.44 141.25 110.87 141.51C111.3 141.77 111.5 142.34 111.5 143.24C111.503 143.862 111.391 144.479 111.17 145.06C110.94 145.639 110.6 146.169 110.17 146.62L111.52 149.07C111.529 149.109 111.529 149.151 111.52 149.19C111.519 149.274 111.499 149.356 111.46 149.43C111.423 149.497 111.372 149.555 111.31 149.6L110.47 150.09C110.34 150.16 110.25 150.18 110.18 150.09C110.129 150.048 110.085 149.997 110.05 149.94L108.77 147.63L107.46 148.38V151.43C107.462 151.532 107.434 151.633 107.38 151.72C107.339 151.807 107.277 151.883 107.2 151.94L106.4 152.39C106.375 152.411 106.343 152.423 106.31 152.423C106.277 152.423 106.245 152.411 106.22 152.39C106.19 152.365 106.167 152.332 106.153 152.295C106.139 152.259 106.134 152.219 106.14 152.18V143.74C106.138 143.638 106.166 143.537 106.22 143.45C106.258 143.361 106.321 143.285 106.4 143.23L109 141.82ZM107.53 146.82L108.95 146C109.301 145.806 109.608 145.54 109.85 145.22C110.085 144.873 110.201 144.459 110.18 144.04C110.18 143.55 110.07 143.29 109.85 143.25C109.528 143.236 109.211 143.331 108.95 143.52L107.53 144.34V146.82Z" fill="#37474F"/>
<path d="M115.53 138C116.35 137.53 116.97 137.42 117.39 137.68C117.81 137.94 118.03 138.52 118.03 139.42C118.037 140.668 117.577 141.874 116.74 142.8L118.09 145.24C118.099 145.283 118.099 145.327 118.09 145.37C118.089 145.454 118.069 145.536 118.03 145.61C117.993 145.68 117.938 145.739 117.87 145.78L117.04 146.26C116.91 146.34 116.81 146.35 116.75 146.31C116.696 146.267 116.651 146.212 116.62 146.15L115.33 143.85L114.03 144.6V147.65C114.026 147.751 113.998 147.851 113.95 147.94C113.912 148.026 113.849 148.099 113.77 148.15L112.97 148.61C112.943 148.627 112.912 148.636 112.88 148.636C112.848 148.636 112.817 148.627 112.79 148.61C112.76 148.585 112.737 148.552 112.723 148.515C112.709 148.479 112.704 148.439 112.71 148.4V140C112.708 139.894 112.736 139.79 112.79 139.7C112.828 139.614 112.891 139.541 112.97 139.49L115.53 138ZM114.06 143L115.48 142.18C115.828 141.985 116.131 141.72 116.37 141.4C116.612 141.052 116.732 140.633 116.71 140.21C116.71 139.73 116.6 139.46 116.37 139.43C116.053 139.418 115.741 139.509 115.48 139.69L114.06 140.51V143Z" fill="#37474F"/>
<path d="M119.07 139.4C119.091 138.894 119.161 138.392 119.28 137.9C119.399 137.402 119.58 136.922 119.82 136.47C120.055 136.009 120.351 135.582 120.7 135.2C121.063 134.804 121.484 134.467 121.95 134.2C122.329 133.962 122.756 133.812 123.2 133.76C123.515 133.727 123.83 133.817 124.08 134.01C124.34 134.218 124.528 134.501 124.62 134.82C124.752 135.228 124.826 135.652 124.84 136.08C124.84 136.24 124.84 136.42 124.84 136.62C124.84 136.82 124.84 137.03 124.84 137.24C124.84 137.45 124.84 137.66 124.84 137.86C124.84 138.06 124.84 138.25 124.84 138.42C124.82 138.926 124.749 139.428 124.63 139.92C124.507 140.416 124.326 140.896 124.09 141.35C123.855 141.813 123.556 142.241 123.2 142.62C122.842 143.02 122.419 143.358 121.95 143.62C121.574 143.864 121.146 144.018 120.7 144.07C120.387 144.102 120.074 144.016 119.82 143.83C119.561 143.622 119.372 143.339 119.28 143.02C119.153 142.612 119.082 142.188 119.07 141.76C119.07 141.6 119.07 141.42 119.07 141.22C119.07 141.02 119.07 140.81 119.07 140.6C119.07 140.39 119.07 140.18 119.07 139.98C119.07 139.78 119.07 139.57 119.07 139.4ZM123.51 136.9C123.532 136.68 123.503 136.459 123.425 136.252C123.347 136.046 123.222 135.86 123.06 135.71C122.78 135.523 122.41 135.563 121.95 135.83C121.484 136.104 121.103 136.502 120.85 136.98C120.563 137.509 120.409 138.099 120.4 138.7C120.4 139.04 120.4 139.41 120.4 139.82C120.4 140.23 120.4 140.59 120.4 140.91C120.376 141.13 120.404 141.352 120.482 141.559C120.561 141.766 120.687 141.951 120.85 142.1C121.029 142.204 121.235 142.251 121.441 142.233C121.647 142.215 121.842 142.134 122 142C122.47 141.727 122.854 141.329 123.11 140.85C123.392 140.323 123.546 139.738 123.56 139.14C123.56 138.8 123.56 138.43 123.56 138.02C123.56 137.61 123.53 137.22 123.51 136.9Z" fill="#37474F"/>
<path d="M128.92 130.3C129.74 129.83 130.36 129.72 130.79 129.98C131.22 130.24 131.43 130.82 131.43 131.72C131.432 132.342 131.32 132.959 131.1 133.54C130.871 134.117 130.531 134.644 130.1 135.09L131.45 137.54C131.46 137.583 131.46 137.628 131.45 137.67C131.449 137.754 131.429 137.836 131.39 137.91C131.36 137.982 131.307 138.041 131.24 138.08L130.4 138.56C130.27 138.64 130.18 138.65 130.11 138.56C130.054 138.523 130.009 138.471 129.98 138.41L128.7 136.11L127.39 136.86V139.86C127.39 139.961 127.366 140.06 127.32 140.15C127.276 140.235 127.21 140.308 127.13 140.36L126.33 140.82C126.304 140.84 126.273 140.85 126.24 140.85C126.208 140.85 126.176 140.84 126.15 140.82C126.122 140.796 126.099 140.765 126.085 140.73C126.071 140.695 126.066 140.658 126.07 140.62V132.17C126.074 132.069 126.102 131.97 126.15 131.88C126.188 131.794 126.251 131.721 126.33 131.67L128.92 130.3ZM127.45 135.3L128.87 134.47C129.221 134.279 129.527 134.017 129.77 133.7C130.003 133.348 130.118 132.932 130.1 132.51C130.1 132.02 129.99 131.76 129.77 131.72C129.45 131.716 129.136 131.81 128.87 131.99L127.45 132.81V135.3Z" fill="#37474F"/>
<path d="M140.81 132.59C140.69 132.66 140.61 132.67 140.55 132.59C140.503 132.558 140.459 132.521 140.42 132.48L137.68 128.63V134.02C137.676 134.122 137.648 134.221 137.6 134.31C137.559 134.397 137.493 134.471 137.41 134.52L136.62 134.98C136.593 135.001 136.559 135.012 136.525 135.012C136.491 135.012 136.458 135.001 136.43 134.98C136.403 134.955 136.381 134.924 136.367 134.889C136.354 134.855 136.348 134.817 136.35 134.78V126.33C136.354 126.229 136.382 126.13 136.43 126.04C136.471 125.953 136.538 125.88 136.62 125.83L137.31 125.43C137.42 125.37 137.5 125.36 137.56 125.43L137.69 125.54L140.43 129.39V124C140.434 123.896 140.462 123.793 140.51 123.7C140.551 123.613 140.618 123.54 140.7 123.49L141.49 123.03C141.518 123.01 141.551 122.999 141.585 122.999C141.619 122.999 141.653 123.01 141.68 123.03C141.708 123.056 141.729 123.087 141.743 123.121C141.757 123.156 141.763 123.193 141.76 123.23V131.68C141.757 131.782 141.73 131.881 141.68 131.97C141.636 132.058 141.571 132.134 141.49 132.19L140.81 132.59Z" fill="#37474F"/>
<path d="M132.82 136.41C132.836 136.278 132.873 136.15 132.93 136.03C132.987 135.904 133.081 135.799 133.2 135.73L133.96 135.29C133.981 135.275 134.005 135.268 134.03 135.268C134.055 135.268 134.08 135.275 134.1 135.29C134.121 135.309 134.138 135.332 134.148 135.358C134.159 135.384 134.163 135.412 134.16 135.44C134.16 135.44 134.16 135.5 134.16 135.52L133.58 137.81C133.58 137.9 133.51 138 133.46 138.12C133.404 138.238 133.314 138.335 133.2 138.4L132.8 138.63C132.782 138.646 132.759 138.654 132.735 138.654C132.712 138.654 132.688 138.646 132.67 138.63C132.67 138.63 132.61 138.56 132.61 138.49L132.82 136.41Z" fill="#37474F"/>
<path d="M143.051 125.56C143.071 125.054 143.142 124.552 143.261 124.06C143.379 123.559 143.56 123.075 143.801 122.62C144.035 122.162 144.331 121.738 144.681 121.36C145.041 120.962 145.463 120.624 145.931 120.36C146.307 120.117 146.735 119.967 147.181 119.92C147.494 119.885 147.808 119.971 148.061 120.16C148.318 120.374 148.506 120.659 148.601 120.98C148.734 121.387 148.808 121.812 148.821 122.24C148.821 122.4 148.821 122.58 148.821 122.78V124C148.821 124.2 148.821 124.39 148.821 124.56C148.8 125.066 148.729 125.568 148.611 126.06C148.488 126.556 148.306 127.036 148.071 127.49C147.832 127.951 147.533 128.378 147.181 128.76C146.819 129.157 146.397 129.495 145.931 129.76C145.554 130.004 145.126 130.158 144.681 130.21C144.368 130.243 144.054 130.157 143.801 129.97C143.539 129.76 143.35 129.473 143.261 129.15C143.133 128.745 143.062 128.325 143.051 127.9C143.051 127.73 143.051 127.56 143.051 127.36C143.051 127.16 143.051 126.95 143.051 126.74C143.051 126.53 143.051 126.32 143.051 126.11C143.051 125.9 143.001 125.73 143.051 125.56ZM147.491 123.06C147.511 122.839 147.481 122.616 147.403 122.409C147.325 122.201 147.201 122.013 147.041 121.86C146.863 121.774 146.665 121.739 146.468 121.76C146.272 121.782 146.086 121.858 145.931 121.98C145.466 122.26 145.086 122.661 144.831 123.14C144.545 123.67 144.387 124.259 144.371 124.86C144.371 125.2 144.371 125.57 144.371 125.97C144.371 126.37 144.371 126.74 144.371 127.07C144.35 127.289 144.381 127.51 144.461 127.715C144.54 127.92 144.667 128.103 144.831 128.25C145.005 128.341 145.203 128.377 145.399 128.356C145.594 128.335 145.779 128.256 145.931 128.13C146.38 127.854 146.749 127.464 147.001 127C147.283 126.473 147.437 125.888 147.451 125.29C147.451 124.95 147.451 124.58 147.451 124.17C147.451 123.76 147.501 123.38 147.491 123.06Z" fill="#37474F"/>
<path d="M154.54 115.51C154.568 115.49 154.601 115.479 154.635 115.479C154.67 115.479 154.703 115.49 154.73 115.51C154.759 115.535 154.781 115.565 154.795 115.6C154.809 115.635 154.814 115.673 154.81 115.71V116.64C154.806 116.742 154.779 116.841 154.73 116.93C154.689 117.017 154.623 117.09 154.54 117.14L152.78 118.14V125.31C152.776 125.412 152.749 125.511 152.7 125.6C152.659 125.687 152.593 125.76 152.51 125.81L151.72 126.27C151.693 126.291 151.66 126.302 151.625 126.302C151.591 126.302 151.558 126.291 151.53 126.27C151.501 126.247 151.478 126.216 151.464 126.181C151.45 126.146 151.446 126.108 151.45 126.07V118.91L149.69 119.91C149.663 119.931 149.63 119.942 149.595 119.942C149.561 119.942 149.528 119.931 149.5 119.91C149.473 119.885 149.452 119.854 149.438 119.819C149.424 119.785 149.418 119.747 149.42 119.71V118.78C149.423 118.675 149.451 118.573 149.5 118.48C149.542 118.393 149.608 118.32 149.69 118.27L154.54 115.51Z" fill="#37474F"/>
<path d="M162.23 111.07C162.256 111.051 162.288 111.04 162.32 111.04C162.352 111.04 162.384 111.051 162.41 111.07C162.439 111.094 162.462 111.125 162.476 111.16C162.49 111.195 162.495 111.233 162.49 111.27V112.2C162.492 112.302 162.464 112.403 162.41 112.49C162.369 112.577 162.307 112.653 162.23 112.71L159.1 114.51V117.05L162.03 115.36C162.057 115.338 162.09 115.326 162.125 115.326C162.16 115.326 162.193 115.338 162.22 115.36C162.248 115.387 162.27 115.42 162.284 115.456C162.298 115.492 162.303 115.531 162.3 115.57V116.49C162.297 116.595 162.27 116.698 162.22 116.79C162.179 116.877 162.113 116.95 162.03 117L159.1 118.69V121.69C159.096 121.792 159.068 121.891 159.02 121.98C158.982 122.066 158.919 122.139 158.84 122.19L158.04 122.65C158.014 122.67 157.982 122.68 157.95 122.68C157.918 122.68 157.886 122.67 157.86 122.65C157.83 122.627 157.806 122.596 157.792 122.561C157.778 122.526 157.774 122.487 157.78 122.45V114C157.778 113.894 157.806 113.79 157.86 113.7C157.898 113.614 157.961 113.541 158.04 113.49L162.23 111.07Z" fill="#37474F"/>
<path d="M163.32 113.86C163.341 113.355 163.411 112.852 163.53 112.36C163.65 111.861 163.828 111.378 164.06 110.92C164.304 110.464 164.599 110.038 164.94 109.65C165.306 109.254 165.731 108.916 166.2 108.65C166.575 108.41 166.999 108.256 167.44 108.2C167.757 108.173 168.074 108.262 168.33 108.45C168.581 108.67 168.768 108.953 168.87 109.27C169 109.678 169.071 110.102 169.08 110.53C169.08 110.69 169.08 110.87 169.08 111.07V112.31C169.08 112.51 169.08 112.7 169.08 112.87C169.059 113.376 168.989 113.878 168.87 114.37C168.751 114.866 168.573 115.346 168.34 115.8C168.101 116.261 167.802 116.689 167.45 117.07C167.086 117.465 166.665 117.802 166.2 118.07C165.819 118.313 165.389 118.467 164.94 118.52C164.627 118.55 164.314 118.465 164.06 118.28C163.805 118.067 163.62 117.781 163.53 117.46C163.403 117.055 163.332 116.635 163.32 116.21C163.32 116.04 163.32 115.86 163.32 115.66V114.42C163.3 114.21 163.31 114 163.32 113.86ZM167.76 111.36C167.781 111.138 167.75 110.915 167.67 110.706C167.591 110.498 167.464 110.311 167.3 110.16C167.125 110.07 166.928 110.033 166.732 110.054C166.536 110.076 166.351 110.154 166.2 110.28C165.731 110.555 165.35 110.957 165.1 111.44C164.813 111.969 164.656 112.559 164.64 113.16C164.64 113.5 164.64 113.87 164.64 114.27C164.64 114.67 164.64 115.04 164.64 115.37C164.619 115.589 164.65 115.81 164.73 116.015C164.81 116.22 164.937 116.403 165.1 116.55C165.275 116.641 165.473 116.678 165.668 116.656C165.864 116.635 166.049 116.556 166.2 116.43C166.664 116.153 167.044 115.756 167.3 115.28C167.586 114.754 167.743 114.168 167.76 113.57C167.76 113.23 167.76 112.86 167.76 112.45C167.76 112.04 167.77 111.68 167.76 111.36Z" fill="#37474F"/>
<path d="M175.68 103.31C175.707 103.288 175.74 103.276 175.775 103.276C175.81 103.276 175.843 103.288 175.87 103.31C175.897 103.338 175.917 103.371 175.93 103.407C175.942 103.444 175.945 103.482 175.94 103.52V108.88C175.945 109.405 175.888 109.929 175.77 110.44C175.652 110.937 175.474 111.417 175.24 111.87C175.001 112.32 174.705 112.736 174.36 113.11C174 113.501 173.586 113.837 173.13 114.11C172.757 114.346 172.337 114.5 171.9 114.56C171.591 114.605 171.276 114.53 171.02 114.35C170.765 114.134 170.583 113.844 170.5 113.52C170.374 113.078 170.316 112.62 170.33 112.16V106.8C170.33 106.699 170.354 106.6 170.4 106.51C170.444 106.422 170.51 106.347 170.59 106.29L171.39 105.83C171.416 105.811 171.448 105.8 171.48 105.8C171.513 105.8 171.544 105.811 171.57 105.83C171.598 105.857 171.62 105.89 171.634 105.926C171.648 105.963 171.653 106.002 171.65 106.04V111.33C171.642 111.618 171.679 111.904 171.76 112.18C171.808 112.359 171.914 112.517 172.06 112.63C172.202 112.714 172.369 112.742 172.53 112.71C172.742 112.67 172.946 112.592 173.13 112.48C173.349 112.353 173.55 112.198 173.73 112.02C173.92 111.835 174.082 111.623 174.21 111.39C174.345 111.137 174.449 110.868 174.52 110.59C174.596 110.262 174.633 109.927 174.63 109.59V104.29C174.634 104.189 174.662 104.09 174.71 104C174.749 103.911 174.815 103.837 174.9 103.79L175.68 103.31Z" fill="#37474F"/>
<path d="M181.88 108.88C181.841 108.903 181.796 108.915 181.75 108.915C181.705 108.915 181.66 108.903 181.62 108.88L181.49 108.77L178.75 105V110.38C178.748 110.485 178.72 110.588 178.67 110.68C178.632 110.769 178.565 110.843 178.48 110.89L177.69 111.35C177.662 111.369 177.629 111.379 177.595 111.379C177.562 111.379 177.529 111.369 177.5 111.35C177.473 111.325 177.452 111.294 177.438 111.259C177.424 111.225 177.418 111.187 177.42 111.15V102.7C177.425 102.599 177.452 102.499 177.5 102.41C177.545 102.325 177.61 102.253 177.69 102.2L178.38 101.8C178.49 101.73 178.57 101.73 178.63 101.8C178.678 101.832 178.721 101.869 178.76 101.91L181.5 105.76V100.3C181.503 100.195 181.531 100.092 181.58 100C181.622 99.9129 181.688 99.8399 181.77 99.7901L182.56 99.3301C182.588 99.3098 182.621 99.2988 182.655 99.2988C182.69 99.2988 182.723 99.3098 182.75 99.3301C182.778 99.3554 182.799 99.3864 182.813 99.421C182.827 99.4556 182.833 99.4929 182.83 99.5301V108C182.826 108.102 182.799 108.201 182.75 108.29C182.709 108.377 182.643 108.45 182.56 108.5L181.88 108.88Z" fill="#37474F"/>
<path d="M187 96.7402C187.387 96.5058 187.814 96.3463 188.26 96.2702C188.572 96.2282 188.889 96.303 189.15 96.4802C189.415 96.6892 189.607 96.976 189.7 97.3002C189.843 97.7397 189.921 98.198 189.93 98.6602C189.93 99.2902 189.93 99.9402 189.93 100.6C189.91 101.147 189.833 101.69 189.7 102.22C189.585 102.725 189.403 103.213 189.16 103.67C188.923 104.118 188.627 104.532 188.28 104.9C187.921 105.292 187.507 105.629 187.05 105.9L184.58 107.32C184.555 107.341 184.523 107.353 184.49 107.353C184.457 107.353 184.425 107.341 184.4 107.32C184.37 107.295 184.346 107.262 184.332 107.226C184.318 107.189 184.314 107.149 184.32 107.11V98.6502C184.318 98.5478 184.346 98.4471 184.4 98.3602C184.438 98.2713 184.5 98.195 184.58 98.1402L187 96.7402ZM188.61 99.4202C188.605 99.1822 188.565 98.9462 188.49 98.7202C188.436 98.544 188.332 98.3876 188.19 98.2702C188.118 98.2157 188.035 98.1762 187.948 98.1538C187.86 98.1315 187.769 98.1269 187.68 98.1402C187.421 98.18 187.172 98.2718 186.95 98.4102L185.64 99.1702V105.05L187 104.26C187.26 104.113 187.496 103.928 187.7 103.71C187.897 103.503 188.063 103.267 188.19 103.01C188.324 102.758 188.425 102.489 188.49 102.21C188.56 101.932 188.6 101.647 188.61 101.36C188.68 100.7 188.68 100.06 188.65 99.4202H188.61Z" fill="#37474F"/>
</svg>
