<svg width="155" height="216" viewBox="0 0 155 216" fill="none" xmlns="http://www.w3.org/2000/svg">
<path d="M98.2261 105.04L153.248 136.887C153.922 137.277 153.911 138.253 153.229 138.629L150.808 139.961C149.877 140.473 148.745 140.455 147.831 139.913L93.106 107.452C92.3057 106.978 92.5306 105.763 93.4478 105.606L93.749 105.555L98.2261 105.04Z" fill="#E0E0E0"/>
<path d="M99.4184 11.2209L152.667 41.9325C152.99 42.1428 153.259 42.4265 153.452 42.7603C153.644 43.0942 153.755 43.4689 153.775 43.8538V133.153C153.756 133.537 153.644 133.911 153.45 134.243C153.256 134.574 152.985 134.855 152.66 135.06L150.552 136.262C150.206 136.436 149.824 136.527 149.436 136.527C149.049 136.527 148.667 136.436 148.321 136.262L95.0722 105.558C94.7496 105.347 94.4812 105.063 94.2886 104.729C94.0961 104.396 93.9849 104.021 93.964 103.636V14.3223C93.9839 13.9374 94.0956 13.5629 94.2896 13.23C94.4836 12.897 94.7544 12.6152 95.0794 12.4082L97.1949 11.2137C97.5403 11.0408 97.9214 10.9515 98.3075 10.9527C98.6937 10.954 99.0742 11.0458 99.4184 11.2209Z" fill="#B99AFF"/>
<path opacity="0.2" d="M148.321 136.247C148.668 136.418 149.05 136.506 149.436 136.506C149.823 136.506 150.205 136.418 150.552 136.247L152.66 135.046C152.985 134.84 153.256 134.56 153.45 134.228C153.644 133.896 153.756 133.523 153.775 133.139V43.8536C153.761 43.4501 153.639 43.0577 153.423 42.7166L149.105 45.2136C149.312 45.5418 149.426 45.9196 149.436 46.3073V135.607C149.436 136.255 148.976 136.629 148.321 136.247Z" fill="black"/>
<g opacity="0.2">
<path d="M93.9697 14.1212C94.056 13.5599 94.5093 13.3584 95.0634 13.6822L148.312 44.3867C148.639 44.5919 148.909 44.8766 149.097 45.2142L153.414 42.7172C153.229 42.3962 152.967 42.1265 152.651 41.9329L99.4025 11.2213C99.0577 11.0473 98.6769 10.9567 98.2907 10.9567C97.9046 10.9567 97.5238 11.0473 97.179 11.2213L95.0706 12.4158C94.7758 12.6047 94.5249 12.8547 94.3349 13.1489C94.145 13.4431 94.0204 13.7747 93.9697 14.1212Z" fill="white"/>
</g>
<path d="M95.0636 13.682L148.312 44.3864C148.637 44.5959 148.907 44.8792 149.101 45.2132C149.295 45.5471 149.407 45.9222 149.428 46.3077V135.607C149.428 136.327 148.931 136.608 148.312 136.248L95.0636 105.543C94.741 105.333 94.4726 105.049 94.28 104.715C94.0875 104.381 93.9763 104.007 93.9554 103.622V14.3224C93.9554 13.61 94.4519 13.3294 95.0636 13.682Z" fill="white"/>
<path d="M94.8405 14.5742V103.622C94.8622 103.851 94.9333 104.072 95.0488 104.271C95.1643 104.47 95.3216 104.641 95.5097 104.773L148.535 135.355V46.3076C148.514 46.0796 148.443 45.8588 148.329 45.6603C148.215 45.4617 148.06 45.2898 147.873 45.1563L94.8405 14.5742ZM94.5671 13.5308C94.7433 13.5345 94.9152 13.5868 95.0636 13.6819L148.312 44.3863C148.637 44.5959 148.907 44.8792 149.101 45.2131C149.295 45.547 149.407 45.9221 149.428 46.3076V135.607C149.428 136.111 149.176 136.406 148.809 136.406C148.632 136.398 148.461 136.344 148.312 136.248L95.0636 105.543C94.741 105.333 94.4726 105.049 94.28 104.715C94.0875 104.381 93.9763 104.007 93.9554 103.622V14.3224C93.9554 13.8186 94.2073 13.5308 94.5671 13.5308Z" fill="#B99AFF"/>
<path d="M131.265 48.2645V55.928C134.575 57.8421 137.259 62.9727 137.259 67.3909L143.016 70.7082C143.008 62.0588 137.748 52.0063 131.265 48.2645Z" fill="#641EFF"/>
<path d="M135.577 71.9751L139.714 79.689C141.873 77.9476 143.01 74.8606 143.01 70.7086L137.253 67.3914C137.26 69.5501 136.62 71.1044 135.577 71.9751Z" fill="#B99AFF"/>
<path d="M119.518 57.1445C119.518 65.7795 124.778 75.8536 131.269 79.5954C134.644 81.5382 137.371 81.567 139.717 79.6889L135.579 71.975C134.493 72.8529 132.96 72.9033 131.262 71.9247C127.944 70.0106 125.26 64.88 125.26 60.4618C125.26 56.0436 127.944 53.9856 131.262 55.9284V48.2649C124.778 44.5159 119.518 48.4952 119.518 57.1445Z" fill="#543B89"/>
<path d="M112.289 43.5011L115.707 45.48C115.728 45.4929 115.746 45.5108 115.759 45.5322C115.771 45.5535 115.778 45.5776 115.779 45.6023V49.5528C115.779 49.596 115.779 49.6175 115.707 49.596L112.289 47.6171C112.268 47.6059 112.251 47.5893 112.238 47.5691C112.225 47.5489 112.218 47.5258 112.217 47.502V43.5443C112.217 43.5011 112.246 43.4796 112.289 43.5011Z" fill="#641EFF"/>
<path d="M109.761 43.4579C109.806 43.4563 109.85 43.4437 109.889 43.4211C109.928 43.3985 109.961 43.3666 109.984 43.3284C110.016 43.2698 110.024 43.2012 110.007 43.1369C109.989 43.0726 109.948 43.0175 109.891 42.983L100.263 37.471C100.234 37.4545 100.202 37.4438 100.169 37.4395C100.136 37.4353 100.103 37.4375 100.071 37.4462C100.039 37.4549 100.008 37.4698 99.9822 37.4901C99.9559 37.5104 99.9338 37.5357 99.9173 37.5645C99.9007 37.5934 99.89 37.6252 99.8858 37.6581C99.8815 37.6911 99.8838 37.7245 99.8925 37.7566C99.9012 37.7887 99.9161 37.8187 99.9364 37.845C99.9567 37.8714 99.982 37.8934 100.011 37.9099L109.617 43.4219C109.66 43.4485 109.711 43.4611 109.761 43.4579Z" fill="#641EFF"/>
<path d="M109.75 45.6381C109.808 45.6411 109.865 45.6244 109.911 45.5907C109.958 45.557 109.992 45.5083 110.007 45.4528C110.022 45.3973 110.018 45.3383 109.995 45.2856C109.971 45.2329 109.931 45.1897 109.88 45.1632L100.252 39.6584C100.223 39.6417 100.191 39.6309 100.158 39.6265C100.125 39.6222 100.092 39.6244 100.06 39.6331C100.028 39.6418 99.9977 39.6568 99.9714 39.6772C99.9451 39.6976 99.9231 39.723 99.9067 39.7519C99.89 39.7807 99.8791 39.8125 99.8748 39.8455C99.8705 39.8785 99.8727 39.912 99.8814 39.9441C99.8901 39.9763 99.9051 40.0063 99.9255 40.0326C99.9459 40.0589 99.9713 40.0809 100 40.0973L109.607 45.6021C109.65 45.6287 109.7 45.6413 109.75 45.6381Z" fill="#641EFF"/>
<path d="M112.289 51.5889L115.707 53.5677C115.728 53.5806 115.746 53.5985 115.759 53.6199C115.771 53.6412 115.778 53.6653 115.779 53.69V57.6405C115.779 57.6837 115.779 57.7053 115.707 57.6837L112.289 55.7048C112.268 55.6936 112.251 55.677 112.238 55.6568C112.225 55.6366 112.218 55.6135 112.217 55.5897V51.632C112.217 51.5889 112.246 51.5673 112.289 51.5889Z" fill="#B99AFF"/>
<path d="M109.761 51.5458C109.806 51.5443 109.85 51.5316 109.889 51.509C109.928 51.4864 109.961 51.4546 109.984 51.4163C110.016 51.3578 110.024 51.2892 110.007 51.2249C109.989 51.1605 109.948 51.1054 109.891 51.0709L100.263 45.5589C100.234 45.5423 100.202 45.5314 100.169 45.5271C100.136 45.5228 100.103 45.525 100.07 45.5337C100.038 45.5424 100.008 45.5574 99.982 45.5778C99.9557 45.5982 99.9337 45.6236 99.9173 45.6525C99.9006 45.6813 99.8897 45.7131 99.8854 45.7461C99.8811 45.7791 99.8833 45.8126 99.892 45.8447C99.9007 45.8768 99.9157 45.9069 99.9361 45.9332C99.9565 45.9595 99.9819 45.9815 100.011 45.9979L109.617 51.5099C109.66 51.5365 109.711 51.549 109.761 51.5458Z" fill="#641EFF"/>
<path d="M109.75 53.7262C109.808 53.7292 109.865 53.7125 109.911 53.6788C109.958 53.6451 109.992 53.5964 110.007 53.5409C110.022 53.4854 110.018 53.4264 109.995 53.3737C109.971 53.321 109.931 53.2778 109.88 53.2512L100.252 47.7465C100.223 47.7298 100.191 47.7189 100.158 47.7146C100.125 47.7103 100.092 47.7125 100.06 47.7212C100.028 47.7299 99.9977 47.7449 99.9714 47.7653C99.9451 47.7857 99.9231 47.8111 99.9067 47.84C99.89 47.8688 99.8791 47.9006 99.8748 47.9336C99.8705 47.9666 99.8727 48.0001 99.8814 48.0322C99.8901 48.0643 99.9051 48.0944 99.9255 48.1207C99.9459 48.147 99.9713 48.169 100 48.1854L109.607 53.6902C109.65 53.7168 109.7 53.7294 109.75 53.7262Z" fill="#641EFF"/>
<path d="M112.289 59.6773L115.707 61.6561C115.728 61.6691 115.746 61.687 115.759 61.7083C115.771 61.7297 115.778 61.7537 115.779 61.7785V65.729C115.779 65.7721 115.779 65.7937 115.707 65.7721L112.289 63.7933C112.268 63.782 112.251 63.7655 112.238 63.7453C112.225 63.7251 112.218 63.7019 112.217 63.6781V59.7205C112.217 59.6773 112.246 59.6557 112.289 59.6773Z" fill="#543B89"/>
<path d="M109.759 59.6338C109.804 59.6323 109.847 59.6196 109.886 59.597C109.925 59.5744 109.958 59.5426 109.982 59.5043C109.998 59.4755 110.009 59.4437 110.013 59.4107C110.018 59.3778 110.016 59.3442 110.007 59.3121C109.998 59.28 109.983 59.2499 109.963 59.2236C109.942 59.1973 109.917 59.1753 109.888 59.1589L100.26 53.6469C100.202 53.6151 100.133 53.6071 100.069 53.6245C100.004 53.6419 99.9492 53.6835 99.9147 53.7405C99.898 53.7693 99.8872 53.8011 99.8829 53.8341C99.8785 53.867 99.8808 53.9006 99.8895 53.9327C99.8982 53.9648 99.9132 53.9949 99.9335 54.0212C99.9539 54.0475 99.9793 54.0695 100.008 54.0859L109.615 59.5907C109.657 59.6198 109.707 59.6349 109.759 59.6338Z" fill="#641EFF"/>
<path d="M109.761 61.8143C109.806 61.8128 109.85 61.8001 109.889 61.7775C109.928 61.7549 109.961 61.7231 109.984 61.6848C110.016 61.6263 110.024 61.5577 110.007 61.4934C109.989 61.429 109.948 61.3739 109.891 61.3394L100.263 55.8346C100.234 55.818 100.202 55.8071 100.169 55.8028C100.136 55.7985 100.103 55.8007 100.07 55.8094C100.038 55.8181 100.008 55.8331 99.982 55.8535C99.9557 55.8739 99.9337 55.8993 99.9173 55.9282C99.9006 55.957 99.8897 55.9888 99.8854 56.0218C99.8811 56.0548 99.8833 56.0883 99.892 56.1204C99.9007 56.1525 99.9157 56.1826 99.9361 56.2089C99.9565 56.2352 99.9819 56.2572 100.011 56.2736L109.617 61.7496C109.657 61.7865 109.707 61.8092 109.761 61.8143Z" fill="#641EFF"/>
<path d="M143.005 96.3686C143.049 96.3684 143.093 96.3572 143.132 96.3358C143.171 96.3144 143.204 96.2836 143.228 96.2463C143.244 96.2175 143.255 96.1857 143.26 96.1527C143.264 96.1197 143.262 96.0862 143.253 96.054C143.244 96.0219 143.229 95.9919 143.209 95.9656C143.189 95.9393 143.163 95.9173 143.134 95.9009L100.254 71.1905C100.196 71.1604 100.128 71.1533 100.064 71.1706C99.9999 71.1879 99.9448 71.2284 99.9091 71.2841C99.875 71.3433 99.8658 71.4136 99.8833 71.4796C99.9008 71.5457 99.9437 71.6021 100.003 71.6367L142.839 96.3398C142.89 96.3661 142.948 96.3761 143.005 96.3686Z" fill="#641EFF"/>
<path d="M143.005 100.801C143.05 100.8 143.094 100.787 143.132 100.764C143.171 100.742 143.204 100.71 143.228 100.672C143.244 100.643 143.255 100.611 143.26 100.578C143.264 100.545 143.262 100.511 143.253 100.479C143.244 100.447 143.229 100.417 143.209 100.391C143.189 100.365 143.163 100.343 143.134 100.326L100.254 75.623C100.226 75.6065 100.194 75.5958 100.161 75.5916C100.128 75.5873 100.094 75.5896 100.062 75.5983C100.03 75.607 100 75.6219 99.974 75.6422C99.9477 75.6625 99.9256 75.6878 99.9091 75.7166C99.8926 75.7454 99.8818 75.7772 99.8776 75.8102C99.8734 75.8431 99.8756 75.8766 99.8843 75.9087C99.893 75.9407 99.9079 75.9708 99.9282 75.9971C99.9485 76.0234 99.9738 76.0455 100.003 76.062L142.839 100.765C142.89 100.793 142.947 100.806 143.005 100.801Z" fill="#641EFF"/>
<path d="M143.006 105.226C143.064 105.229 143.121 105.212 143.167 105.179C143.214 105.145 143.247 105.096 143.263 105.041C143.278 104.985 143.273 104.926 143.25 104.874C143.227 104.821 143.187 104.778 143.136 104.751L100.256 80.0481C100.227 80.0315 100.196 80.0209 100.163 80.0166C100.13 80.0124 100.096 80.0146 100.064 80.0233C100.032 80.032 100.002 80.0469 99.9757 80.0672C99.9494 80.0875 99.9273 80.1128 99.9108 80.1416C99.8943 80.1704 99.8836 80.2022 99.8793 80.2352C99.8751 80.2681 99.8773 80.3016 99.886 80.3337C99.8947 80.3658 99.9096 80.3958 99.9299 80.4221C99.9502 80.4484 99.9755 80.4705 100.004 80.487L142.841 105.19C142.891 105.218 142.949 105.231 143.006 105.226Z" fill="#641EFF"/>
<path d="M143.006 109.652C143.064 109.655 143.121 109.638 143.167 109.605C143.214 109.571 143.247 109.522 143.263 109.467C143.278 109.411 143.273 109.352 143.25 109.3C143.227 109.247 143.187 109.204 143.136 109.177L100.256 84.474C100.198 84.4421 100.129 84.4341 100.065 84.4515C100 84.4689 99.9453 84.5105 99.9108 84.5675C99.8941 84.5963 99.8833 84.6281 99.8789 84.6611C99.8746 84.6941 99.8769 84.7276 99.8856 84.7597C99.8943 84.7918 99.9092 84.8219 99.9296 84.8482C99.95 84.8745 99.9754 84.8965 100.004 84.9129L142.841 109.616C142.891 109.644 142.949 109.656 143.006 109.652Z" fill="#641EFF"/>
<path d="M143.006 114.078C143.064 114.081 143.121 114.064 143.167 114.03C143.214 113.997 143.247 113.948 143.263 113.892C143.278 113.837 143.273 113.778 143.25 113.725C143.227 113.672 143.187 113.629 143.136 113.603L100.256 88.8996C100.198 88.8677 100.129 88.8597 100.065 88.8771C100 88.8945 99.9453 88.9361 99.9108 88.9931C99.8941 89.0219 99.8833 89.0537 99.8789 89.0867C99.8746 89.1197 99.8769 89.1532 99.8856 89.1853C99.8943 89.2174 99.9092 89.2475 99.9296 89.2738C99.95 89.3001 99.9754 89.3221 100.004 89.3385L142.841 114.049C142.892 114.075 142.95 114.085 143.006 114.078Z" fill="#641EFF"/>
<path d="M143.005 118.503C143.049 118.503 143.093 118.491 143.132 118.47C143.171 118.449 143.204 118.418 143.228 118.38C143.244 118.352 143.255 118.32 143.26 118.287C143.264 118.254 143.262 118.22 143.253 118.188C143.244 118.156 143.229 118.126 143.209 118.1C143.189 118.073 143.163 118.051 143.134 118.035L100.254 93.3246C100.196 93.2945 100.128 93.2874 100.064 93.3047C99.9999 93.322 99.9448 93.3625 99.9091 93.4182C99.875 93.4774 99.8658 93.5477 99.8833 93.6137C99.9008 93.6798 99.9437 93.7362 100.003 93.7708L142.839 118.474C142.89 118.5 142.948 118.51 143.005 118.503Z" fill="#641EFF"/>
<path d="M48.1755 108.751L103.353 140.592C103.676 140.802 103.945 141.086 104.137 141.42C104.33 141.754 104.441 142.128 104.461 142.513V206.232C104.441 206.616 104.329 206.989 104.135 207.321C103.941 207.653 103.67 207.933 103.346 208.139L101.237 209.34C100.891 209.513 100.509 209.603 100.122 209.603C99.7348 209.603 99.3531 209.513 99.0065 209.34L43.858 177.492C43.5362 177.28 43.2684 176.996 43.076 176.663C42.8836 176.329 42.7719 175.955 42.7499 175.571V111.852C42.7704 111.467 42.8822 111.093 43.0762 110.76C43.2702 110.427 43.5406 110.145 43.8652 109.938L46.0168 108.736C46.3546 108.576 46.7241 108.495 47.0978 108.497C47.4715 108.5 47.8398 108.586 48.1755 108.751Z" fill="#B99AFF"/>
<path d="M47.4058 177.144L104.44 210.192C105.12 210.585 105.101 211.573 104.407 211.941L101.914 213.262C100.99 213.751 99.8778 213.725 98.9786 213.191L42.1666 179.485C41.3589 179.006 41.5975 177.778 42.5259 177.636L42.8169 177.592L47.4058 177.144Z" fill="#E0E0E0"/>
<path opacity="0.8" d="M48.1755 108.751L103.353 140.592C103.676 140.802 103.945 141.086 104.137 141.42C104.33 141.754 104.441 142.128 104.461 142.513V206.232C104.441 206.616 104.329 206.989 104.135 207.321C103.941 207.653 103.67 207.933 103.346 208.139L101.237 209.34C100.891 209.513 100.509 209.603 100.122 209.603C99.7348 209.603 99.3531 209.513 99.0065 209.34L43.858 177.492C43.5362 177.28 43.2684 176.996 43.076 176.663C42.8836 176.329 42.7719 175.955 42.7499 175.571V111.852C42.7704 111.467 42.8822 111.093 43.0762 110.76C43.2702 110.427 43.5406 110.145 43.8652 109.938L46.0168 108.736C46.3546 108.576 46.7241 108.495 47.0978 108.497C47.4715 108.5 47.8398 108.586 48.1755 108.751Z" fill="#C7AEFF"/>
<path opacity="0.3" d="M42.7658 111.65C42.8522 111.089 43.3127 110.888 43.8668 111.204L99.0369 143.082C99.3639 143.287 99.6338 143.572 99.8212 143.909L104.139 141.412C103.952 141.091 103.69 140.819 103.376 140.621L48.1699 108.751C47.8246 108.578 47.444 108.489 47.0581 108.489C46.6722 108.489 46.2916 108.578 45.9464 108.751L43.8308 109.952C43.5444 110.145 43.3016 110.396 43.1181 110.688C42.9347 110.981 42.8147 111.309 42.7658 111.65Z" fill="#D0BBFF"/>
<path d="M43.8545 111.212L99.039 143.082C99.3625 143.292 99.632 143.576 99.8258 143.909C100.02 144.243 100.132 144.618 100.154 145.003V208.722C100.154 209.441 99.6506 209.715 99.039 209.362L43.8545 177.492C43.5327 177.281 43.2649 176.997 43.0724 176.663C42.88 176.329 42.7683 175.955 42.7463 175.571V111.852C42.7535 111.14 43.25 110.852 43.8545 111.212Z" fill="#F5F5F5"/>
<path d="M43.6458 112.14V175.607C43.6666 175.835 43.7366 176.056 43.8508 176.255C43.9651 176.454 44.121 176.625 44.3078 176.758L99.262 208.434V144.967C99.2403 144.739 99.1699 144.518 99.0557 144.32C98.9415 144.121 98.7861 143.949 98.6 143.816L43.6458 112.14ZM43.3723 111.089C43.5469 111.096 43.7162 111.151 43.8617 111.248L99.039 143.082C99.3625 143.292 99.632 143.576 99.8258 143.91C100.02 144.243 100.132 144.618 100.154 145.003V208.722C100.154 209.226 99.9025 209.513 99.5355 209.513C99.3598 209.506 99.1888 209.454 99.039 209.362L43.8545 177.492C43.5327 177.281 43.2649 176.997 43.0724 176.663C42.88 176.329 42.7683 175.955 42.7463 175.571V111.852C42.7463 111.348 42.9982 111.053 43.3652 111.053L43.3723 111.089Z" fill="#B99AFF"/>
<path d="M34.842 152.221C34.9062 152.19 34.9775 152.177 35.0485 152.183C35.1194 152.19 35.1873 152.215 35.245 152.257L36.0725 152.811L36.2524 153.3C36.2991 153.46 36.3031 153.629 36.2639 153.79C36.2248 153.952 36.1439 154.101 36.0293 154.221C35.8998 154.365 35.7703 154.516 35.648 154.682C35.6104 154.744 35.5606 154.799 35.5016 154.842C35.4427 154.885 35.3757 154.916 35.3046 154.933C35.2335 154.949 35.1597 154.952 35.0877 154.939C35.0157 154.927 34.9468 154.901 34.8852 154.861L32.9423 153.588C32.8903 153.543 32.8257 153.516 32.7574 153.509C32.6891 153.503 32.6204 153.518 32.561 153.552L34.842 152.221ZM35.4969 150.062L37.7923 148.745L37.9434 148.688L39.3826 148.356C39.5438 148.328 39.7099 148.35 39.8581 148.419C40.0063 148.489 40.1293 148.603 40.2101 148.745L41.5773 151.35C41.7083 151.571 41.9008 151.748 42.1313 151.861L41.6996 153.3C41.6801 153.373 41.6445 153.441 41.5954 153.498C41.5463 153.555 41.4849 153.601 41.4158 153.631C41.3468 153.661 41.2717 153.676 41.1963 153.673C41.1208 153.671 41.047 153.652 40.98 153.617C40.6902 153.497 40.3919 153.398 40.0877 153.322C39.7437 153.227 39.4498 153.002 39.2674 152.696L37.893 150.084C37.8147 149.941 37.6926 149.828 37.5448 149.761C37.397 149.693 37.2315 149.675 37.0727 149.709L35.6336 150.033C35.5882 150.026 35.5422 150.026 35.4969 150.033V150.062ZM40.3828 157.099C40.2533 157.393 40.1638 157.703 40.1165 158.02C39.692 160.503 41.2607 164.029 43.6209 165.885C44.3271 166.482 45.1879 166.866 46.1034 166.994C45.3335 168.656 43.369 168.814 41.3254 167.209C38.958 165.346 37.3965 161.827 37.8211 159.344C38.0945 157.747 39.0875 156.963 40.3828 157.071V157.099ZM42.5055 172.146C42.5247 172.073 42.5602 172.005 42.6094 171.948C42.6587 171.89 42.7204 171.845 42.7897 171.815C42.8591 171.785 42.9344 171.772 43.0099 171.775C43.0853 171.779 43.1589 171.8 43.2251 171.836C43.5174 171.956 43.8181 172.055 44.1246 172.131C44.2252 172.154 44.3204 172.195 44.4052 172.254L44.3405 172.455C44.3286 172.509 44.3059 172.56 44.2737 172.604C44.2415 172.649 44.2006 172.686 44.1534 172.714L41.9083 174.009C41.9733 173.949 42.0205 173.872 42.045 173.786L42.5055 172.146ZM45.1392 156.198L45.4198 154.056C45.3156 154.056 45.3863 153.707 45.3156 153.547C45.2448 153.387 45.1405 153.244 45.0097 153.127L42.8509 151.415C42.7944 151.358 42.7202 151.321 42.6403 151.312C42.5605 151.303 42.4799 151.321 42.412 151.364L44.7147 150.033C44.7663 150.018 44.8213 150.018 44.873 150.033C44.9707 150.035 45.0647 150.071 45.1392 150.134L47.2979 151.854C47.4286 151.967 47.5334 152.108 47.6054 152.265C47.6774 152.423 47.7148 152.594 47.7153 152.768L47.5786 154.854C47.5841 155.215 47.7024 155.565 47.9168 155.855C48.2766 156.286 48.6364 156.725 48.9386 157.193C49.0402 157.333 49.1733 157.446 49.327 157.525C49.4808 157.604 49.6509 157.645 49.8236 157.646L51.2628 157.574C51.4288 157.575 51.5913 157.622 51.7322 157.71C51.8732 157.797 51.9872 157.922 52.0615 158.071L53.3784 161.028C53.4411 161.153 53.4537 161.297 53.4135 161.431C53.3734 161.565 53.2836 161.678 53.1625 161.748L51.601 162.647C51.564 162.777 51.564 162.914 51.601 163.043C51.7089 163.518 51.7881 163.993 51.8457 164.482C51.8982 164.842 52.0618 165.177 52.3134 165.439L54.2491 167.224C54.3695 167.349 54.461 167.498 54.517 167.663C54.5729 167.827 54.592 168.001 54.5729 168.174L54.2131 170.282C54.2049 170.34 54.1847 170.396 54.1537 170.445C54.1227 170.495 54.0817 170.537 54.0332 170.57L51.7948 171.93C51.7948 171.93 51.256 171.473 51.2873 171.423C51.3185 171.373 51.1074 170.328 51.7305 170.519L51.8457 169.434C51.868 169.261 51.8509 169.05 51.7948 168.885C51.7386 168.721 52.0695 168.678 51.9464 168.555L50.0179 166.778C49.7652 166.515 49.4052 166.49 49.3487 166.129C49.2957 165.645 48.8597 164.792 48.7497 164.318C48.7198 164.162 49.1856 163.952 49.2572 163.81C49.3288 163.669 49.6214 163.372 49.7647 163.303L50.2722 162.795C50.4048 162.737 50.7248 162.93 50.7797 162.795C50.8347 162.661 50.833 162.423 50.7797 162.288L49.543 159.6C49.4662 159.452 49.6097 159.166 49.4678 159.078C49.3258 158.991 49.1628 158.944 48.9961 158.942L47.557 159.013C47.3845 159.01 47.215 158.968 47.0607 158.891C46.9064 158.814 46.7712 158.703 46.6647 158.567C46.3481 158.1 46.0099 157.653 45.6573 157.222C45.4041 156.918 45.1221 156.593 45.1392 156.198ZM48.5716 170.678C48.6111 170.615 48.6626 170.561 48.7232 170.519C48.7837 170.476 48.852 170.446 48.9242 170.43C48.9965 170.414 49.0712 170.412 49.144 170.425C49.2169 170.438 49.2864 170.465 49.3487 170.505L50.4425 171.225L51.2484 173.383C51.2919 173.489 51.297 173.607 51.2628 173.716C51.2287 173.825 51.1574 173.919 51.0613 173.981L48.7803 175.29C48.871 175.229 48.9378 175.138 48.9693 175.033C49.0007 174.928 48.995 174.816 48.953 174.715L47.9671 172.052C47.9203 171.897 47.9142 171.731 47.9495 171.573C47.9848 171.414 48.0602 171.267 48.1686 171.146C48.3071 170.999 48.4346 170.843 48.55 170.678H48.5716Z" fill="#220E4D"/>
<path d="M49.8111 157.603L51.2503 157.531C51.463 157.53 51.6694 157.604 51.8331 157.74L49.5305 159.071C49.3699 158.934 49.1661 158.857 48.9548 158.855L47.5157 158.927C47.3742 158.929 47.2342 158.899 47.1055 158.841L49.4082 157.517C49.5352 157.573 49.6723 157.602 49.8111 157.603ZM45.0979 150.091L47.2566 151.81C47.428 151.958 47.5509 152.153 47.6092 152.372L45.321 153.703C45.26 153.48 45.1349 153.28 44.9612 153.127L42.8024 151.415C42.746 151.358 42.6716 151.321 42.5918 151.312C42.512 151.303 42.4314 151.321 42.3635 151.364L44.6661 150.033C44.7356 149.998 44.8139 149.985 44.8908 149.996C44.9678 150.006 45.0399 150.039 45.0979 150.091ZM54.1718 167.145C54.3196 167.296 54.4219 167.485 54.4668 167.692L52.1713 169.023C52.1272 168.812 52.0221 168.62 51.8691 168.469L49.9622 166.713L52.2577 165.389L54.1718 167.145ZM34.8439 152.221C34.9077 152.188 34.9793 152.174 35.0505 152.181C35.1218 152.187 35.1898 152.213 35.2469 152.257L36.0744 152.811L36.2543 153.3C36.3331 153.496 36.3331 153.715 36.2543 153.912C36.2162 154.008 36.1627 154.098 36.096 154.178C36.0564 154.213 36.0202 154.251 35.988 154.293C35.8945 154.394 35.8009 154.516 35.7074 154.638C35.6504 154.731 35.5673 154.804 35.4686 154.849C35.37 154.893 35.2602 154.908 35.1533 154.89C35.1323 154.897 35.1096 154.897 35.0886 154.89C35.0371 154.878 34.9883 154.856 34.9446 154.826L33.0018 153.552C32.9334 153.499 32.8505 153.469 32.7643 153.466C32.7263 153.458 32.6872 153.458 32.6492 153.466C32.6492 153.466 32.6492 153.466 32.6132 153.466L34.8439 152.221ZM35.4987 150.062L37.7942 148.745L37.9453 148.688L39.3844 148.356C39.5456 148.328 39.7117 148.35 39.86 148.419C40.0082 148.489 40.1311 148.603 40.2119 148.745L41.5791 151.35C41.6601 151.487 41.7677 151.607 41.8958 151.703L39.5931 153.027C39.4678 152.933 39.3647 152.812 39.2909 152.674L37.9165 150.062C37.8381 149.92 37.716 149.806 37.5683 149.739C37.4205 149.672 37.2549 149.654 37.0962 149.688L35.657 150.012C35.6034 150.009 35.5498 150.017 35.4987 150.033V150.062Z" fill="#B99AFF"/>
<path d="M49.8111 157.603L51.2503 157.531C51.463 157.53 51.6694 157.604 51.8331 157.74L49.5305 159.071C49.3699 158.934 49.1661 158.857 48.9548 158.855L47.5157 158.927C47.3742 158.929 47.2342 158.899 47.1055 158.841L49.4082 157.517C49.5352 157.573 49.6723 157.602 49.8111 157.603ZM45.0979 150.091L47.2566 151.81C47.428 151.958 47.5509 152.153 47.6092 152.372L45.321 153.703C45.26 153.48 45.1349 153.28 44.9612 153.127L42.8024 151.415C42.746 151.358 42.6716 151.321 42.5918 151.312C42.512 151.303 42.4314 151.321 42.3635 151.364L44.6661 150.033C44.7356 149.998 44.8139 149.985 44.8908 149.996C44.9678 150.006 45.0399 150.039 45.0979 150.091ZM54.1718 167.145C54.3196 167.296 54.4219 167.485 54.4668 167.692L52.1713 169.023C52.1272 168.812 52.0221 168.62 51.8691 168.469L49.9622 166.713L52.2577 165.389L54.1718 167.145ZM34.8439 152.221C34.9077 152.188 34.9793 152.174 35.0505 152.181C35.1218 152.187 35.1898 152.213 35.2469 152.257L36.0744 152.811L36.2543 153.3C36.3331 153.496 36.3331 153.715 36.2543 153.912C36.2162 154.008 36.1627 154.098 36.096 154.178C36.0564 154.213 36.0202 154.251 35.988 154.293C35.8945 154.394 35.8009 154.516 35.7074 154.638C35.6504 154.731 35.5673 154.804 35.4686 154.849C35.37 154.893 35.2602 154.908 35.1533 154.89C35.1323 154.897 35.1096 154.897 35.0886 154.89C35.0371 154.878 34.9883 154.856 34.9446 154.826L33.0018 153.552C32.9334 153.499 32.8505 153.469 32.7643 153.466C32.7263 153.458 32.6872 153.458 32.6492 153.466C32.6492 153.466 32.6492 153.466 32.6132 153.466L34.8439 152.221ZM35.4987 150.062L37.7942 148.745L37.9453 148.688L39.3844 148.356C39.5456 148.328 39.7117 148.35 39.86 148.419C40.0082 148.489 40.1311 148.603 40.2119 148.745L41.5791 151.35C41.6601 151.487 41.7677 151.607 41.8958 151.703L39.5931 153.027C39.4678 152.933 39.3647 152.812 39.2909 152.674L37.9165 150.062C37.8381 149.92 37.716 149.806 37.5683 149.739C37.4205 149.672 37.2549 149.654 37.0962 149.688L35.657 150.012C35.6034 150.009 35.5498 150.017 35.4987 150.033V150.062Z" fill="#554180"/>
<path d="M32.0074 155.941L32.3744 153.832C32.3768 153.767 32.3978 153.703 32.435 153.649C32.4722 153.595 32.5241 153.553 32.5845 153.527C32.6449 153.501 32.7114 153.493 32.7761 153.504C32.8409 153.515 32.9012 153.544 32.9501 153.588L34.8786 154.854C34.9406 154.895 35.0101 154.923 35.0832 154.936C35.1562 154.95 35.2312 154.949 35.3037 154.932C35.3762 154.916 35.4447 154.886 35.5052 154.843C35.5657 154.8 35.6168 154.745 35.6557 154.681C35.7707 154.52 35.8957 154.367 36.0299 154.221C36.1451 154.101 36.2269 153.953 36.2673 153.791C36.3077 153.629 36.3052 153.46 36.2602 153.3L35.2743 150.637C35.2476 150.571 35.2359 150.499 35.2401 150.427C35.2443 150.355 35.2643 150.285 35.2986 150.222C35.333 150.159 35.3809 150.104 35.4389 150.061C35.4968 150.019 35.5635 149.989 35.6341 149.975L37.0733 149.644C37.2344 149.617 37.4001 149.639 37.5481 149.709C37.6961 149.778 37.8192 149.891 37.9008 150.033L39.268 152.638C39.4564 152.942 39.7514 153.165 40.0955 153.264C40.402 153.34 40.7027 153.439 40.995 153.559C41.0601 153.589 41.1308 153.604 41.2024 153.604C41.2739 153.603 41.3446 153.588 41.4095 153.558C41.4744 153.528 41.5321 153.484 41.5785 153.429C41.625 153.375 41.6591 153.311 41.6786 153.242L42.1751 151.609C42.1858 151.543 42.2145 151.482 42.2579 151.432C42.3014 151.381 42.3579 151.344 42.4212 151.324C42.4846 151.304 42.5523 151.302 42.6168 151.318C42.6813 151.334 42.7401 151.367 42.7867 151.415L44.9455 153.127C45.0755 153.244 45.1794 153.387 45.2501 153.547C45.3208 153.707 45.3567 153.881 45.3556 154.055L45.2261 156.128C45.2245 156.492 45.3434 156.846 45.5643 157.135C45.9241 157.567 46.2623 158.013 46.5789 158.474C46.6828 158.613 46.8174 158.726 46.9721 158.805C47.1268 158.883 47.2976 158.925 47.4712 158.927L48.8672 158.855C49.0344 158.855 49.1984 158.901 49.3407 158.989C49.4831 159.076 49.5982 159.202 49.6731 159.352L51.0475 162.309C51.1008 162.444 51.0998 162.594 51.0448 162.728C50.9898 162.862 50.885 162.97 50.7525 163.029L49.6155 163.511C49.4735 163.581 49.3585 163.695 49.2883 163.837C49.218 163.979 49.1965 164.14 49.227 164.295C49.3369 164.77 49.4186 165.25 49.4716 165.734C49.5267 166.095 49.6927 166.429 49.9465 166.691L51.8822 168.469C52.0023 168.594 52.0934 168.744 52.1494 168.908C52.2053 169.072 52.2246 169.246 52.206 169.418L51.839 171.527C51.838 171.593 51.8179 171.658 51.7812 171.713C51.7445 171.768 51.6928 171.811 51.6321 171.838C51.5715 171.864 51.5045 171.873 51.4391 171.862C51.3737 171.852 51.3127 171.823 51.2634 171.779L49.3349 170.505C49.2722 170.465 49.2022 170.439 49.1291 170.426C49.0559 170.414 48.9811 170.416 48.9088 170.433C48.8365 170.45 48.7683 170.48 48.708 170.524C48.6478 170.567 48.5967 170.622 48.5578 170.685C48.4428 170.846 48.3178 171 48.1836 171.145C48.0678 171.265 47.9855 171.413 47.9451 171.575C47.9047 171.737 47.9075 171.906 47.9533 172.066L48.9391 174.729C48.9659 174.796 48.9776 174.868 48.9734 174.939C48.9692 175.011 48.9492 175.081 48.9148 175.144C48.8804 175.208 48.8326 175.263 48.7746 175.305C48.7166 175.348 48.6499 175.377 48.5793 175.391L47.1402 175.715C46.9797 175.745 46.8137 175.725 46.6654 175.657C46.517 175.588 46.3937 175.475 46.3127 175.333L44.9455 172.721C44.7523 172.423 44.4588 172.203 44.1179 172.102C43.8114 172.026 43.5108 171.927 43.2185 171.807C43.1518 171.771 43.0777 171.751 43.0018 171.747C42.926 171.744 42.8504 171.758 42.7809 171.789C42.7114 171.82 42.6498 171.866 42.6009 171.924C42.5521 171.982 42.5171 172.05 42.4989 172.124L42.0096 173.758C41.9975 173.823 41.9677 173.884 41.9235 173.934C41.8793 173.984 41.8223 174.021 41.7586 174.041C41.695 174.061 41.6271 174.063 41.5623 174.047C41.4975 174.032 41.4382 173.999 41.3907 173.952L39.232 172.232C39.1014 172.117 38.9971 171.975 38.9263 171.816C38.8555 171.657 38.8199 171.485 38.8219 171.311L38.9514 169.231C38.9515 168.869 38.8299 168.516 38.606 168.231C38.2534 167.799 37.8864 167.353 37.5986 166.886C37.4943 166.747 37.3595 166.635 37.2047 166.558C37.0499 166.481 36.8793 166.44 36.7063 166.439L35.3031 166.504C35.1357 166.505 34.9714 166.459 34.8289 166.372C34.6864 166.284 34.5714 166.158 34.4972 166.008L33.1804 163.057C33.1252 162.923 33.1252 162.772 33.1804 162.637C33.2356 162.502 33.3416 162.395 33.4754 162.338L34.6051 161.848C34.7457 161.779 34.8598 161.665 34.9299 161.525C35.0001 161.385 35.0225 161.226 34.9937 161.071C34.8867 160.597 34.8074 160.116 34.7562 159.632C34.6998 159.272 34.534 158.938 34.2813 158.675L32.3384 156.898C32.2165 156.772 32.1237 156.621 32.0665 156.456C32.0093 156.291 31.9891 156.115 32.0074 155.941ZM41.326 167.181C43.6934 169.037 45.9601 168.533 46.363 166.051C46.766 163.568 45.2189 160.042 42.8587 158.186C40.4985 156.329 38.2246 156.833 37.8216 159.316C37.4187 161.798 38.9658 165.317 41.326 167.181Z" fill="#543B89"/>
<path d="M76.7386 147.299C76.4554 147.018 76.2732 146.651 76.2205 146.255L75.7167 140.664C75.6877 140.474 75.6189 140.293 75.5147 140.132C75.4105 139.97 75.2734 139.833 75.1123 139.729L70.0753 136.85C70.0189 136.815 69.9557 136.793 69.89 136.784C69.8242 136.775 69.7574 136.781 69.6939 136.8L72.1404 135.361C72.1951 135.35 72.2513 135.35 72.306 135.361C72.3925 135.362 72.4771 135.387 72.5506 135.433L77.5877 138.311C77.7464 138.417 77.881 138.555 77.9826 138.716C78.0843 138.877 78.1508 139.058 78.1777 139.247L78.6814 144.845C78.7427 145.239 78.9294 145.602 79.2139 145.881C80.2039 146.807 81.1341 147.795 81.9987 148.839C82.119 148.977 82.277 149.077 82.4534 149.127C82.6297 149.177 82.8168 149.174 82.9917 149.119L86.2082 148.004C86.3751 147.947 86.5567 147.949 86.7221 148.011C86.8874 148.072 87.0262 148.189 87.1149 148.342L90.8135 154.732C90.8969 154.886 90.9259 155.063 90.8959 155.236C90.8658 155.408 90.7785 155.565 90.648 155.682L88.0647 157.912C87.9344 158.038 87.8417 158.198 87.7972 158.373C87.7527 158.548 87.7582 158.733 87.8129 158.905C88.2846 160.179 88.6716 161.481 88.9714 162.806C89.0808 163.189 89.3072 163.529 89.619 163.777L94.2315 166.994C94.3823 167.112 94.5059 167.261 94.594 167.431C94.6822 167.601 94.7328 167.788 94.7424 167.979V173.779C94.749 173.852 94.7366 173.926 94.7063 173.993C94.6761 174.059 94.629 174.117 94.5697 174.161L92.0944 175.6C92.1563 175.558 92.2062 175.501 92.239 175.434C92.2719 175.367 92.2865 175.293 92.2815 175.218V169.418C92.2696 169.227 92.2172 169.04 92.1279 168.87C92.0386 168.7 91.9144 168.551 91.7634 168.433L87.1796 165.202C86.8642 164.957 86.6368 164.616 86.532 164.23C86.2299 162.909 85.8429 161.609 85.3735 160.337C85.3147 160.165 85.3065 159.979 85.3498 159.802C85.3932 159.624 85.4863 159.463 85.6182 159.337L88.2086 157.106C88.3374 156.99 88.423 156.834 88.4518 156.663C88.4805 156.492 88.4506 156.316 88.367 156.164L84.6755 149.76C84.5831 149.611 84.4439 149.497 84.2799 149.436C84.1158 149.375 83.9361 149.37 83.7688 149.421L80.5451 150.551C80.3723 150.603 80.1881 150.604 80.0147 150.554C79.8412 150.505 79.6856 150.406 79.5665 150.27C78.6917 149.217 77.7469 148.225 76.7386 147.299ZM86.4601 173.923C86.4804 173.85 86.5162 173.783 86.5649 173.725C86.6136 173.668 86.6742 173.621 86.7425 173.589C86.8107 173.557 86.8851 173.54 86.9606 173.539C87.036 173.539 87.1107 173.554 87.1796 173.585L88.259 174.074C88.1439 174.297 88.0287 174.52 87.9064 174.715C87.8129 174.88 87.7584 175.064 87.7472 175.254C87.736 175.444 87.7683 175.633 87.8417 175.808L90.8207 181.81C90.8854 181.964 90.8942 182.136 90.8456 182.296C90.797 182.457 90.6941 182.595 90.5545 182.688L88.0863 184.127C88.2243 184.034 88.3261 183.897 88.3747 183.739C88.4232 183.58 88.4154 183.41 88.3525 183.256L85.3663 177.24C85.2958 177.067 85.2656 176.879 85.2781 176.692C85.2906 176.505 85.3453 176.324 85.4383 176.161C85.8699 175.452 86.2131 174.694 86.4601 173.901V173.923ZM75.7239 184.817L76.2061 179.939C76.2116 179.861 76.2345 179.785 76.2731 179.717C76.3117 179.649 76.365 179.59 76.4291 179.545C76.4933 179.5 76.5666 179.47 76.6438 179.458C76.721 179.445 76.8001 179.449 76.8753 179.471C77.4298 179.591 77.9928 179.668 78.5591 179.701L78.1921 183.393C78.1885 183.46 78.1691 183.526 78.1353 183.585C78.1016 183.644 78.0545 183.694 77.9978 183.731L75.5225 185.17C75.5828 185.133 75.6329 185.081 75.6681 185.019C75.7033 184.958 75.7225 184.888 75.7239 184.817ZM55.5757 144.946C55.6355 144.913 55.7022 144.897 55.77 144.897C55.8378 144.897 55.9046 144.913 55.9643 144.946L59.3463 146.471C59.0916 146.976 58.8774 147.501 58.7059 148.04C58.6864 148.113 58.6512 148.181 58.6028 148.24C58.5545 148.298 58.494 148.345 58.4256 148.378C58.3573 148.411 58.2826 148.429 58.2068 148.43C58.1309 148.431 58.0557 148.416 57.9863 148.385L53.5106 146.37C53.4509 146.334 53.3825 146.315 53.3127 146.315C53.2429 146.315 53.1744 146.334 53.1148 146.37L55.5757 144.946ZM63.6638 134.778L67.3768 140.369C67.4915 140.518 67.6386 140.639 67.8069 140.722C67.9753 140.806 68.1604 140.85 68.3483 140.851C68.5929 140.851 68.8376 140.851 69.0678 140.851L68.9527 142.039C68.9472 142.117 68.9241 142.194 68.8851 142.263C68.8461 142.332 68.7923 142.391 68.7275 142.437C68.6627 142.482 68.5886 142.513 68.5106 142.526C68.4325 142.539 68.3525 142.535 68.2763 142.513C67.4827 142.337 66.6714 142.253 65.8585 142.262C65.6707 142.264 65.4848 142.223 65.316 142.14C65.1472 142.058 65.0003 141.937 64.8871 141.787L61.1741 136.203C61.0787 136.062 60.9339 135.963 60.7687 135.924C60.6034 135.886 60.4296 135.911 60.2818 135.994L62.7572 134.555C62.9098 134.467 63.0894 134.439 63.2618 134.474C63.4342 134.51 63.5874 134.608 63.6926 134.749L63.6638 134.778ZM67.6575 150.17C66.8395 151.521 66.4553 153.091 66.5565 154.667C66.5565 160.078 70.3559 166.662 75.0403 169.368C76.8753 170.426 78.4296 170.807 79.6528 170.483C78.1345 172.254 75.5369 172.505 72.5722 170.793C67.8877 168.087 64.0812 161.503 64.0812 156.092C64.11 152.775 65.5275 150.666 67.6862 150.141L67.6575 150.17Z" fill="#B99AFF"/>
<path d="M76.7386 147.299C76.4554 147.018 76.2732 146.651 76.2205 146.255L75.7167 140.664C75.6877 140.474 75.6189 140.293 75.5147 140.132C75.4105 139.97 75.2734 139.833 75.1123 139.729L70.0753 136.85C70.0189 136.815 69.9557 136.793 69.89 136.784C69.8242 136.775 69.7574 136.781 69.6939 136.8L72.1404 135.361C72.1951 135.35 72.2513 135.35 72.306 135.361C72.3925 135.362 72.4771 135.387 72.5506 135.433L77.5877 138.311C77.7464 138.417 77.881 138.555 77.9826 138.716C78.0843 138.877 78.1508 139.058 78.1777 139.247L78.6814 144.845C78.7427 145.239 78.9294 145.602 79.2139 145.881C80.2039 146.807 81.1341 147.795 81.9987 148.839C82.119 148.977 82.277 149.077 82.4534 149.127C82.6297 149.177 82.8168 149.174 82.9917 149.119L86.2082 148.004C86.3751 147.947 86.5567 147.949 86.7221 148.011C86.8874 148.072 87.0262 148.189 87.1149 148.342L90.8135 154.732C90.8969 154.886 90.9259 155.063 90.8959 155.236C90.8658 155.408 90.7785 155.565 90.648 155.682L88.0647 157.912C87.9344 158.038 87.8417 158.198 87.7972 158.373C87.7527 158.548 87.7582 158.733 87.8129 158.905C88.2846 160.179 88.6716 161.481 88.9714 162.806C89.0808 163.189 89.3072 163.529 89.619 163.777L94.2315 166.994C94.3823 167.112 94.5059 167.261 94.594 167.431C94.6822 167.601 94.7328 167.788 94.7424 167.979V173.779C94.749 173.852 94.7366 173.926 94.7063 173.993C94.6761 174.059 94.629 174.117 94.5697 174.161L92.0944 175.6C92.1563 175.558 92.2062 175.501 92.239 175.434C92.2719 175.367 92.2865 175.293 92.2815 175.218V169.418C92.2696 169.227 92.2172 169.04 92.1279 168.87C92.0386 168.7 91.9144 168.551 91.7634 168.433L87.1796 165.202C86.8642 164.957 86.6368 164.616 86.532 164.23C86.2299 162.909 85.8429 161.609 85.3735 160.337C85.3147 160.165 85.3065 159.979 85.3498 159.802C85.3932 159.624 85.4863 159.463 85.6182 159.337L88.2086 157.106C88.3374 156.99 88.423 156.834 88.4518 156.663C88.4805 156.492 88.4506 156.316 88.367 156.164L84.6755 149.76C84.5831 149.611 84.4439 149.497 84.2799 149.436C84.1158 149.375 83.9361 149.37 83.7688 149.421L80.5451 150.551C80.3723 150.603 80.1881 150.604 80.0147 150.554C79.8412 150.505 79.6856 150.406 79.5665 150.27C78.6917 149.217 77.7469 148.225 76.7386 147.299ZM86.4601 173.923C86.4804 173.85 86.5162 173.783 86.5649 173.725C86.6136 173.668 86.6742 173.621 86.7425 173.589C86.8107 173.557 86.8851 173.54 86.9606 173.539C87.036 173.539 87.1107 173.554 87.1796 173.585L88.259 174.074C88.1439 174.297 88.0287 174.52 87.9064 174.715C87.8129 174.88 87.7584 175.064 87.7472 175.254C87.736 175.444 87.7683 175.633 87.8417 175.808L90.8207 181.81C90.8854 181.964 90.8942 182.136 90.8456 182.296C90.797 182.457 90.6941 182.595 90.5545 182.688L88.0863 184.127C88.2243 184.034 88.3261 183.897 88.3747 183.739C88.4232 183.58 88.4154 183.41 88.3525 183.256L85.3663 177.24C85.2958 177.067 85.2656 176.879 85.2781 176.692C85.2906 176.505 85.3453 176.324 85.4383 176.161C85.8699 175.452 86.2131 174.694 86.4601 173.901V173.923ZM75.7239 184.817L76.2061 179.939C76.2116 179.861 76.2345 179.785 76.2731 179.717C76.3117 179.649 76.365 179.59 76.4291 179.545C76.4933 179.5 76.5666 179.47 76.6438 179.458C76.721 179.445 76.8001 179.449 76.8753 179.471C77.4298 179.591 77.9928 179.668 78.5591 179.701L78.1921 183.393C78.1885 183.46 78.1691 183.526 78.1353 183.585C78.1016 183.644 78.0545 183.694 77.9978 183.731L75.5225 185.17C75.5828 185.133 75.6329 185.081 75.6681 185.019C75.7033 184.958 75.7225 184.888 75.7239 184.817ZM55.5757 144.946C55.6355 144.913 55.7022 144.897 55.77 144.897C55.8378 144.897 55.9046 144.913 55.9643 144.946L59.3463 146.471C59.0916 146.976 58.8774 147.501 58.7059 148.04C58.6864 148.113 58.6512 148.181 58.6028 148.24C58.5545 148.298 58.494 148.345 58.4256 148.378C58.3573 148.411 58.2826 148.429 58.2068 148.43C58.1309 148.431 58.0557 148.416 57.9863 148.385L53.5106 146.37C53.4509 146.334 53.3825 146.315 53.3127 146.315C53.2429 146.315 53.1744 146.334 53.1148 146.37L55.5757 144.946ZM63.6638 134.778L67.3768 140.369C67.4915 140.518 67.6386 140.639 67.8069 140.722C67.9753 140.806 68.1604 140.85 68.3483 140.851C68.5929 140.851 68.8376 140.851 69.0678 140.851L68.9527 142.039C68.9472 142.117 68.9241 142.194 68.8851 142.263C68.8461 142.332 68.7923 142.391 68.7275 142.437C68.6627 142.482 68.5886 142.513 68.5106 142.526C68.4325 142.539 68.3525 142.535 68.2763 142.513C67.4827 142.337 66.6714 142.253 65.8585 142.262C65.6707 142.264 65.4848 142.223 65.316 142.14C65.1472 142.058 65.0003 141.937 64.8871 141.787L61.1741 136.203C61.0787 136.062 60.9339 135.963 60.7687 135.924C60.6034 135.886 60.4296 135.911 60.2818 135.994L62.7572 134.555C62.9098 134.467 63.0894 134.439 63.2618 134.474C63.4342 134.51 63.5874 134.608 63.6926 134.749L63.6638 134.778ZM67.6575 150.17C66.8395 151.521 66.4553 153.091 66.5565 154.667C66.5565 160.078 70.3559 166.662 75.0403 169.368C76.8753 170.426 78.4296 170.807 79.6528 170.483C78.1345 172.254 75.5369 172.505 72.5722 170.793C67.8877 168.087 64.0812 161.503 64.0812 156.092C64.11 152.775 65.5275 150.666 67.6862 150.141L67.6575 150.17Z" fill="#2A1160"/>
<path d="M52.9423 152.523V146.723C52.9314 146.652 52.941 146.58 52.9701 146.514C52.9992 146.449 53.0465 146.393 53.1064 146.353C53.1663 146.314 53.2362 146.293 53.3079 146.292C53.3796 146.291 53.45 146.311 53.5108 146.349L57.9866 148.364C58.0555 148.394 58.1302 148.41 58.2057 148.409C58.2811 148.408 58.3555 148.391 58.4238 148.359C58.492 148.327 58.5526 148.281 58.6013 148.223C58.6501 148.166 58.6858 148.098 58.7062 148.026C58.9505 147.247 59.2863 146.501 59.7064 145.802C59.7997 145.639 59.8541 145.457 59.8653 145.27C59.8766 145.083 59.8443 144.895 59.7711 144.723L56.7921 138.714C56.7274 138.56 56.7186 138.388 56.7672 138.227C56.8158 138.067 56.9187 137.929 57.0583 137.836L60.2892 135.973C60.4362 135.886 60.611 135.859 60.7773 135.898C60.9436 135.936 61.0884 136.038 61.1815 136.181L64.8945 141.765C65.0104 141.915 65.1587 142.036 65.3282 142.119C65.4978 142.203 65.6841 142.247 65.8732 142.247C66.6861 142.229 67.4981 142.311 68.2909 142.492C68.3666 142.512 68.4459 142.516 68.5231 142.502C68.6002 142.488 68.6734 142.457 68.7373 142.412C68.8012 142.367 68.8543 142.308 68.8929 142.239C68.9314 142.171 68.9544 142.095 68.9602 142.017L69.4495 137.138C69.4467 137.067 69.4643 136.996 69.5004 136.935C69.5364 136.873 69.5893 136.823 69.6529 136.791C69.7164 136.758 69.7879 136.744 69.859 136.751C69.93 136.758 69.9977 136.785 70.0539 136.829L75.091 139.707C75.252 139.812 75.3892 139.949 75.4933 140.11C75.5975 140.271 75.6664 140.453 75.6954 140.643L76.1991 146.234C76.2549 146.628 76.4366 146.994 76.7172 147.277C77.7147 148.198 78.6476 149.186 79.5092 150.235C79.6305 150.369 79.7873 150.467 79.9617 150.517C80.1361 150.566 80.3209 150.566 80.495 150.515L83.7187 149.386C83.8859 149.332 84.0661 149.337 84.2304 149.398C84.3948 149.459 84.5338 149.574 84.6254 149.724L88.3168 156.121C88.401 156.274 88.4312 156.451 88.4025 156.623C88.3738 156.796 88.2878 156.953 88.1585 157.071L85.568 159.301C85.4384 159.427 85.3462 159.587 85.3018 159.762C85.2573 159.938 85.2623 160.122 85.3162 160.294C85.7944 161.566 86.184 162.869 86.4819 164.194C86.5885 164.577 86.8125 164.917 87.1223 165.166L91.7132 168.397C91.864 168.515 91.9876 168.664 92.0757 168.834C92.1639 169.004 92.2145 169.191 92.2241 169.383V175.182C92.2351 175.253 92.2254 175.326 92.1963 175.391C92.1672 175.457 92.1199 175.513 92.0601 175.552C92.0002 175.591 91.9302 175.613 91.8585 175.614C91.7868 175.614 91.7164 175.595 91.6557 175.557L87.1871 173.542C87.1176 173.512 87.0426 173.498 86.9671 173.5C86.8917 173.502 86.8174 173.52 86.7494 173.552C86.6814 173.585 86.621 173.632 86.5724 173.689C86.5238 173.747 86.4881 173.815 86.4675 173.887C86.2255 174.663 85.8922 175.407 85.4745 176.103C85.38 176.266 85.3244 176.447 85.3119 176.635C85.2994 176.822 85.3304 177.01 85.4025 177.183L88.3816 183.191C88.4563 183.343 88.4711 183.518 88.4231 183.681C88.3751 183.843 88.2679 183.982 88.1225 184.069L84.8844 185.94C84.7346 186.014 84.5636 186.034 84.4008 185.996C84.238 185.958 84.0935 185.864 83.9922 185.731L80.2791 180.14C80.1644 179.991 80.0173 179.871 79.849 179.787C79.6807 179.704 79.4956 179.66 79.3077 179.658C78.4948 179.677 77.6827 179.595 76.8899 179.414C76.8142 179.393 76.7349 179.39 76.6578 179.404C76.5806 179.417 76.5075 179.448 76.4436 179.494C76.3796 179.539 76.3265 179.598 76.288 179.666C76.2495 179.734 76.2265 179.81 76.2207 179.888L75.7242 184.767C75.727 184.839 75.7093 184.909 75.6733 184.971C75.6373 185.032 75.5844 185.082 75.5208 185.115C75.4573 185.148 75.3857 185.161 75.3147 185.154C75.2436 185.148 75.176 185.121 75.1197 185.077L70.0827 182.198C69.9217 182.095 69.785 181.957 69.6819 181.796C69.5789 181.634 69.5118 181.453 69.4855 181.263L68.9817 175.672C68.9265 175.276 68.7419 174.909 68.4565 174.628C67.4614 173.708 66.5309 172.72 65.6717 171.671C65.5482 171.537 65.3901 171.44 65.2148 171.39C65.0395 171.341 64.854 171.341 64.6787 171.39L61.455 172.52C61.2878 172.573 61.1076 172.569 60.9432 172.507C60.7789 172.446 60.6398 172.331 60.5483 172.182L56.8568 165.785C56.7735 165.631 56.7444 165.453 56.7745 165.281C56.8045 165.109 56.8919 164.951 57.0223 164.835L59.6056 162.604C59.7381 162.48 59.8323 162.321 59.8769 162.145C59.9216 161.969 59.9148 161.783 59.8575 161.611C59.3825 160.339 58.993 159.036 58.6918 157.711C58.5861 157.328 58.3619 156.988 58.0513 156.74L53.4604 153.509C53.3094 153.39 53.1851 153.241 53.0958 153.071C53.0066 152.901 52.9543 152.714 52.9423 152.523ZM72.5868 170.764C77.2785 173.47 81.0778 171.275 81.0778 165.864C81.0778 160.453 77.2785 153.869 72.5868 151.163C67.8952 148.457 64.103 150.652 64.103 156.063C64.103 161.474 67.9024 168.059 72.5868 170.764Z" fill="#543B89"/>
<path d="M87.1091 148.327L90.8077 154.717C90.8846 154.858 90.9125 155.02 90.8869 155.178L88.4259 156.617C88.4426 156.457 88.4099 156.297 88.3324 156.156L84.641 149.752C84.5785 149.641 84.4876 149.548 84.3776 149.484C84.2676 149.419 84.1424 149.385 84.0149 149.385L86.4687 147.946C86.6001 147.945 86.7292 147.98 86.8421 148.047C86.955 148.114 87.0473 148.211 87.1091 148.327ZM89.6132 163.762L94.2257 166.993C94.3485 167.092 94.4532 167.211 94.5352 167.346L92.0742 168.785C91.9916 168.651 91.8842 168.533 91.7576 168.439L87.1739 165.209C87.0342 165.105 86.9105 164.981 86.8069 164.842L89.2822 163.402C89.3744 163.538 89.4859 163.659 89.6132 163.762ZM72.5592 135.404L77.5963 138.282C77.8171 138.433 77.9915 138.642 78.1 138.886L75.6318 140.326C75.5292 140.074 75.3506 139.86 75.1209 139.714L70.0839 136.836C70.0275 136.801 69.9644 136.778 69.8986 136.769C69.8329 136.761 69.766 136.766 69.7025 136.785L72.1491 135.346C72.2164 135.318 72.2899 135.309 72.362 135.319C72.434 135.329 72.5021 135.358 72.5592 135.404ZM63.6868 134.749L67.3999 140.34C67.4667 140.433 67.5495 140.513 67.6445 140.577L65.1692 142.017C65.0741 141.953 64.9912 141.872 64.9245 141.779L61.2115 136.195C61.1161 136.055 60.9714 135.955 60.8061 135.917C60.6408 135.878 60.467 135.903 60.3192 135.986L62.7946 134.547C62.9436 134.472 63.1141 134.451 63.2768 134.488C63.4396 134.525 63.5845 134.617 63.6868 134.749ZM55.606 144.895C55.6662 144.864 55.7328 144.849 55.8003 144.849C55.8677 144.849 55.9343 144.864 55.9945 144.895L59.3766 146.42C59.2396 146.694 59.1171 146.975 59.0096 147.262C58.9062 147.496 58.8173 147.737 58.7433 147.982C58.7059 148.097 58.6328 148.198 58.5346 148.27C58.4596 148.33 58.3689 148.367 58.2732 148.377C58.1776 148.388 58.081 148.37 57.995 148.327L53.5192 146.312C53.4508 146.284 53.3774 146.269 53.3033 146.269H53.181L55.6347 144.83L55.606 144.895Z" fill="#B99AFF"/>
<path d="M87.1091 148.327L90.8077 154.717C90.8846 154.858 90.9125 155.02 90.8869 155.178L88.4259 156.617C88.4426 156.457 88.4099 156.297 88.3324 156.156L84.641 149.752C84.5785 149.641 84.4876 149.548 84.3776 149.484C84.2676 149.419 84.1424 149.385 84.0149 149.385L86.4687 147.946C86.6001 147.945 86.7292 147.98 86.8421 148.047C86.955 148.114 87.0473 148.211 87.1091 148.327ZM89.6132 163.762L94.2257 166.993C94.3485 167.092 94.4532 167.211 94.5352 167.346L92.0742 168.785C91.9916 168.651 91.8842 168.533 91.7576 168.439L87.1739 165.209C87.0342 165.105 86.9105 164.981 86.8069 164.842L89.2822 163.402C89.3744 163.538 89.4859 163.659 89.6132 163.762ZM72.5592 135.404L77.5963 138.282C77.8171 138.433 77.9915 138.642 78.1 138.886L75.6318 140.326C75.5292 140.074 75.3506 139.86 75.1209 139.714L70.0839 136.836C70.0275 136.801 69.9644 136.778 69.8986 136.769C69.8329 136.761 69.766 136.766 69.7025 136.785L72.1491 135.346C72.2164 135.318 72.2899 135.309 72.362 135.319C72.434 135.329 72.5021 135.358 72.5592 135.404ZM63.6868 134.749L67.3999 140.34C67.4667 140.433 67.5495 140.513 67.6445 140.577L65.1692 142.017C65.0741 141.953 64.9912 141.872 64.9245 141.779L61.2115 136.195C61.1161 136.055 60.9714 135.955 60.8061 135.917C60.6408 135.878 60.467 135.903 60.3192 135.986L62.7946 134.547C62.9436 134.472 63.1141 134.451 63.2768 134.488C63.4396 134.525 63.5845 134.617 63.6868 134.749ZM55.606 144.895C55.6662 144.864 55.7328 144.849 55.8003 144.849C55.8677 144.849 55.9343 144.864 55.9945 144.895L59.3766 146.42C59.2396 146.694 59.1171 146.975 59.0096 147.262C58.9062 147.496 58.8173 147.737 58.7433 147.982C58.7059 148.097 58.6328 148.198 58.5346 148.27C58.4596 148.33 58.3689 148.367 58.2732 148.377C58.1776 148.388 58.081 148.37 57.995 148.327L53.5192 146.312C53.4508 146.284 53.3774 146.269 53.3033 146.269H53.181L55.6347 144.83L55.606 144.895Z" fill="#554180"/>
<path opacity="0.2" d="M99.027 209.331C99.3742 209.501 99.7557 209.59 100.142 209.59C100.529 209.59 100.911 209.501 101.258 209.331L103.366 208.129C103.691 207.924 103.962 207.643 104.156 207.311C104.35 206.98 104.441 206.584 104.461 206.2V143.23C104.446 142.826 104.486 142 104.186 141.5L99.497 143.5C99.997 144 100.142 144.675 100.142 144.92V208.69C100.142 209.338 99.6818 209.712 99.027 209.331Z" fill="black"/>
<path d="M8.98619 55.4921L75.2494 94.0476C75.9542 94.4577 75.8982 95.4937 75.1533 95.8255L72.3293 97.0831C71.4401 97.479 70.414 97.419 69.5771 96.922L3.20602 57.5103C2.36742 57.0123 2.66491 55.7311 3.63713 55.6536L3.88452 55.6339L8.98619 55.4921Z" fill="#E0E0E0"/>
<path d="M9.44887 0.730105L73.9231 37.8963C74.2457 38.1071 74.5141 38.3908 74.7066 38.7246C74.8992 39.0584 75.0104 39.4329 75.0312 39.8176V89.6772C75.0102 90.0618 74.8981 90.4358 74.7041 90.7686C74.5102 91.1014 74.2401 91.3833 73.9159 91.5913L71.8075 92.7858C71.461 92.9582 71.0792 93.0479 70.6922 93.0479C70.3051 93.0479 69.9234 92.9582 69.5768 92.7858L5.10982 55.6124C4.78722 55.4016 4.51879 55.1179 4.32626 54.7841C4.13374 54.4503 4.02254 54.0758 4.00166 53.6911V3.82429C4.02153 3.44042 4.13319 3.06691 4.32726 2.73511C4.52132 2.40331 4.79214 2.1229 5.117 1.91741L7.19659 0.715716C7.54672 0.540942 7.93312 0.451164 8.32444 0.453664C8.71577 0.456165 9.101 0.550871 9.44887 0.730105Z" fill="#B99AFF"/>
<path opacity="0.2" d="M69.5768 92.7789C69.9245 92.9476 70.3058 93.0352 70.6922 93.0352C71.0786 93.0352 71.4599 92.9476 71.8075 92.7789L73.9159 91.5772C74.2408 91.3717 74.5116 91.0913 74.7057 90.7595C74.8997 90.4277 75.0114 90.0542 75.0312 89.6703V39.8179C75.0152 39.4169 74.8935 39.0272 74.6787 38.6882L70.3612 41.1851C70.5631 41.5154 70.6771 41.892 70.6922 42.2789V92.1313C70.6922 92.7789 70.2317 93.1531 69.5768 92.7789Z" fill="black"/>
<g opacity="0.2">
<path d="M4.01121 3.62285C4.09756 3.06878 4.55091 2.90327 5.10498 3.18391L69.572 40.3573C69.8991 40.5626 70.1689 40.8473 70.3564 41.1849L74.6738 38.6879C74.4872 38.3664 74.2255 38.0948 73.9111 37.8964L9.43684 0.730142C9.09206 0.556194 8.71128 0.465576 8.3251 0.465576C7.93893 0.465576 7.55813 0.556194 7.21334 0.730142L5.10498 1.93184C4.81216 2.11889 4.56296 2.36668 4.37425 2.65843C4.18554 2.95018 4.06173 3.27908 4.01121 3.62285Z" fill="white"/>
</g>
<path d="M5.11293 3.18419L69.58 40.3576C69.9035 40.568 70.173 40.8515 70.3668 41.1852C70.5605 41.519 70.6731 41.8936 70.6953 42.2789V92.1385C70.6953 92.8581 70.1916 93.1315 69.58 92.7789L5.11293 55.6055C4.79034 55.3947 4.52191 55.111 4.32938 54.7772C4.13686 54.4434 4.02566 54.069 4.00478 53.6842V3.82461C4.00478 3.11942 4.50129 2.83159 5.11293 3.18419Z" fill="white"/>
<path d="M4.88987 4.08367V53.6842C4.91164 53.9122 4.98196 54.133 5.09615 54.3316C5.21034 54.5302 5.36573 54.702 5.55186 54.8355L69.803 91.8794V42.2789C69.7813 42.0509 69.7109 41.8301 69.5967 41.6315C69.4825 41.4329 69.3272 41.2611 69.141 41.1276L4.88987 4.08367ZM4.61642 3.03308C4.79212 3.0402 4.96306 3.09223 5.11293 3.18419L69.58 40.3576C69.9035 40.568 70.173 40.8515 70.3668 41.1852C70.5605 41.519 70.6731 41.8936 70.6953 42.2789V92.1385C70.6953 92.635 70.4435 92.93 70.0765 92.93C69.9008 92.9229 69.7298 92.8709 69.58 92.7789L5.11293 55.6055C4.79034 55.3947 4.52191 55.111 4.32938 54.7772C4.13686 54.4434 4.02566 54.069 4.00478 53.6842V3.82462C4.00478 3.32811 4.24944 3.03308 4.61642 3.03308Z" fill="#B99AFF"/>
<path d="M66.9166 84.698C66.9433 84.6975 66.9693 84.6898 66.9921 84.6759C67.0148 84.662 67.0335 84.6423 67.0461 84.6189C67.0562 84.602 67.0627 84.5833 67.0652 84.5638C67.0677 84.5444 67.0663 84.5246 67.0609 84.5057C67.0555 84.4869 67.0463 84.4693 67.0339 84.4541C67.0214 84.4389 67.006 84.4264 66.9886 84.4174L8.45806 50.5972C8.44064 50.587 8.42136 50.5804 8.40136 50.5778C8.38135 50.5752 8.36101 50.5766 8.34156 50.582C8.32211 50.5873 8.30395 50.5965 8.28811 50.6091C8.27228 50.6216 8.2591 50.6371 8.24937 50.6548C8.23933 50.6716 8.23285 50.6904 8.23031 50.7098C8.22778 50.7293 8.22925 50.7491 8.23464 50.768C8.24003 50.7868 8.24924 50.8044 8.26167 50.8196C8.27411 50.8348 8.2895 50.8473 8.30693 50.8563L66.8375 84.6765C66.8616 84.6902 66.8888 84.6976 66.9166 84.698Z" fill="#641EFF"/>
<path d="M66.9153 85.4251C66.9554 85.4251 66.9938 85.4091 67.0222 85.3808C67.0505 85.3525 67.0664 85.314 67.0664 85.274V83.8708C67.0664 83.8509 67.0625 83.8313 67.0549 83.813C67.0473 83.7946 67.0362 83.778 67.0222 83.7639C67.0081 83.7499 66.9915 83.7388 66.9731 83.7312C66.9548 83.7236 66.9351 83.7197 66.9153 83.7197C66.8955 83.7197 66.8758 83.7236 66.8575 83.7312C66.8391 83.7388 66.8225 83.7499 66.8084 83.7639C66.7944 83.778 66.7833 83.7946 66.7757 83.813C66.7681 83.8313 66.7642 83.8509 66.7642 83.8708V85.274C66.7642 85.314 66.7801 85.3525 66.8084 85.3808C66.8368 85.4091 66.8752 85.4251 66.9153 85.4251Z" fill="#641EFF"/>
<path d="M57.1575 79.7399C57.1976 79.7399 57.236 79.7239 57.2643 79.6956C57.2927 79.6673 57.3086 79.6288 57.3086 79.5887V78.1496C57.3086 78.1095 57.2927 78.0711 57.2643 78.0427C57.236 78.0144 57.1976 77.9985 57.1575 77.9985C57.1174 77.9985 57.079 78.0144 57.0506 78.0427C57.0223 78.0711 57.0064 78.1095 57.0064 78.1496V79.5887C57.0064 79.6086 57.0103 79.6282 57.0179 79.6466C57.0255 79.6649 57.0366 79.6816 57.0506 79.6956C57.0647 79.7096 57.0813 79.7208 57.0997 79.7283C57.118 79.7359 57.1376 79.7399 57.1575 79.7399Z" fill="#641EFF"/>
<path d="M47.4055 74.1058C47.4456 74.1058 47.4841 74.0899 47.5124 74.0616C47.5407 74.0332 47.5566 73.9948 47.5566 73.9547V72.5156C47.5566 72.4755 47.5407 72.437 47.5124 72.4087C47.4841 72.3804 47.4456 72.3644 47.4055 72.3644C47.3655 72.3644 47.327 72.3804 47.2987 72.4087C47.2703 72.437 47.2544 72.4755 47.2544 72.5156V73.9547C47.2544 73.9948 47.2703 74.0332 47.2987 74.0616C47.327 74.0899 47.3655 74.1058 47.4055 74.1058Z" fill="#641EFF"/>
<path d="M37.6497 68.4427C37.6692 68.4437 37.6886 68.4407 37.7069 68.4339C37.7252 68.4271 37.742 68.4166 37.7561 68.4032C37.7703 68.3897 37.7815 68.3735 37.7892 68.3556C37.7969 68.3376 37.8008 68.3183 37.8008 68.2988V66.8596C37.8008 66.8398 37.7969 66.8201 37.7893 66.8018C37.7817 66.7834 37.7706 66.7668 37.7565 66.7528C37.7425 66.7387 37.7258 66.7276 37.7075 66.72C37.6892 66.7124 37.6695 66.7085 37.6497 66.7085C37.6302 66.7085 37.6108 66.7124 37.5929 66.7201C37.5749 66.7278 37.5587 66.739 37.5453 66.7532C37.5318 66.7673 37.5214 66.784 37.5146 66.8023C37.5078 66.8206 37.5048 66.8401 37.5058 66.8596V68.2988C37.5058 68.3369 37.5209 68.3735 37.5479 68.4005C37.5749 68.4275 37.6115 68.4427 37.6497 68.4427Z" fill="#641EFF"/>
<path d="M27.8977 62.7872C27.9175 62.7872 27.9372 62.7832 27.9555 62.7756C27.9739 62.7681 27.9905 62.7569 28.0046 62.7429C28.0186 62.7289 28.0297 62.7122 28.0373 62.6939C28.0449 62.6755 28.0488 62.6559 28.0488 62.636V61.1969C28.0471 61.1574 28.0306 61.1199 28.0026 61.092C27.9746 61.064 27.9372 61.0475 27.8977 61.0458C27.8576 61.0458 27.8192 61.0617 27.7909 61.09C27.7625 61.1184 27.7466 61.1568 27.7466 61.1969V62.636C27.7466 62.6559 27.7505 62.6755 27.7581 62.6939C27.7657 62.7122 27.7768 62.7289 27.7909 62.7429C27.8049 62.7569 27.8215 62.7681 27.8399 62.7756C27.8582 62.7832 27.8779 62.7872 27.8977 62.7872Z" fill="#641EFF"/>
<path d="M18.1457 57.1239C18.1858 57.1239 18.2243 57.108 18.2526 57.0796C18.2809 57.0513 18.2969 57.0129 18.2969 56.9728V55.5336C18.2969 55.4935 18.2809 55.4551 18.2526 55.4268C18.2243 55.3984 18.1858 55.3825 18.1457 55.3825C18.1057 55.3825 18.0672 55.3984 18.0389 55.4268C18.0106 55.4551 17.9946 55.4935 17.9946 55.5336V56.9728C17.9946 57.0129 18.0106 57.0513 18.0389 57.0796C18.0672 57.108 18.1057 57.1239 18.1457 57.1239Z" fill="#641EFF"/>
<path d="M8.38796 51.4682C8.42803 51.4682 8.46647 51.4523 8.49481 51.4239C8.52315 51.3956 8.53906 51.3572 8.53906 51.3171V49.8779C8.53906 49.8378 8.52315 49.7994 8.49481 49.7711C8.46647 49.7427 8.42803 49.7268 8.38796 49.7268C8.34845 49.7286 8.31102 49.7451 8.28306 49.773C8.25509 49.801 8.23861 49.8384 8.23685 49.8779V51.3171C8.23861 51.3566 8.25509 51.394 8.28306 51.422C8.31102 51.4499 8.34845 51.4664 8.38796 51.4682Z" fill="#641EFF"/>
<path opacity="0.7" d="M66.918 70.4646C62.0392 67.6438 60.8159 73.9833 57.1605 71.9037C53.505 69.8241 55.9444 57.1164 49.8424 53.5976C43.7403 50.0789 44.9636 62.0455 38.8688 58.5196C32.774 54.9936 35.2133 32.4708 29.1113 28.9521C23.0093 25.4333 24.2326 43.2069 18.1377 39.6018C12.0429 35.9967 15.6984 18.3887 8.38025 14.1647V47.9849L66.918 81.8051V70.4646Z" fill="#B99AFF"/>
<path opacity="0.7" d="M8.38025 20.5117V47.9348L66.918 81.755V77.5311L62.6005 73.2136C62.5141 73.4295 62.2911 73.487 62.032 73.3359C61.8534 73.2208 61.7048 73.0648 61.5984 72.8809C61.4921 72.697 61.431 72.4903 61.4204 72.2781C61.4138 72.2082 61.4241 72.1378 61.4504 72.0727C61.4767 72.0075 61.5182 71.9497 61.5715 71.904L57.6138 65.6148C57.5463 65.6619 57.4659 65.6871 57.3836 65.6871C57.3012 65.6871 57.2209 65.6619 57.1533 65.6148C56.9406 65.4796 56.7728 65.2842 56.6712 65.0536L52.7638 66.1761C52.8416 66.3303 52.8834 66.5 52.8862 66.6726C52.8862 67.0612 52.6127 67.2195 52.2745 67.0252C52.0993 66.9072 51.9535 66.7504 51.8487 66.567C51.7439 66.3835 51.6828 66.1783 51.6701 65.9674C51.6673 65.8707 51.6871 65.7746 51.7277 65.6868L47.9427 61.3118C47.8491 61.4917 47.6405 61.5348 47.3958 61.3909C47.2195 61.2757 47.0729 61.1205 46.9678 60.938C46.8628 60.7554 46.8023 60.5506 46.7914 60.3403C46.7865 60.2763 46.7948 60.212 46.8158 60.1513C46.8369 60.0906 46.8702 60.035 46.9137 59.9877L43.0064 54.3462C42.9361 54.3999 42.8501 54.429 42.7617 54.429C42.6733 54.429 42.5873 54.3999 42.5171 54.3462C42.3418 54.2283 42.1961 54.0714 42.0912 53.888C41.9864 53.7045 41.9253 53.4994 41.9126 53.2885C41.9048 53.236 41.9048 53.1826 41.9126 53.1302L38.2212 49.9208C38.1492 50.1943 37.9118 50.2806 37.6239 50.1223C37.449 50.0039 37.3036 49.847 37.1988 49.6636C37.094 49.4803 37.0327 49.2753 37.0195 49.0645C37.0153 48.9668 37.0376 48.8698 37.0842 48.7839L33.2921 44.4089C33.1985 44.5816 32.9898 44.6247 32.7524 44.4808C32.5691 44.3728 32.4196 44.2158 32.3206 44.0275L28.3054 46.3517C28.4148 46.5324 28.4767 46.7379 28.4853 46.949C28.4853 47.3375 28.2118 47.4959 27.8736 47.3016C27.6954 47.186 27.5471 47.03 27.4408 46.8461C27.3345 46.6623 27.2732 46.4559 27.262 46.2438C27.2545 46.1913 27.2545 46.138 27.262 46.0855L23.5634 42.8834C23.4986 43.1568 23.2611 43.2431 22.9733 43.0776C22.7951 42.9621 22.6468 42.806 22.5405 42.6222C22.4342 42.4383 22.3729 42.2319 22.3617 42.0199C22.3499 41.9357 22.3661 41.8501 22.4077 41.776C22.4493 41.7019 22.514 41.6435 22.5919 41.6097L18.4759 33.2914C18.4115 33.3094 18.3439 33.3129 18.278 33.3017C18.212 33.2905 18.1494 33.2649 18.0946 33.2266C17.9169 33.1122 17.7689 32.9574 17.6626 32.7748C17.5563 32.5922 17.4947 32.387 17.4829 32.176L13.8275 30.0677C13.8275 30.4562 13.554 30.6145 13.2158 30.4203C13.0376 30.3047 12.8893 30.1486 12.783 29.9648C12.6767 29.7809 12.6154 29.5745 12.6042 29.3625C12.5932 29.2775 12.6096 29.1912 12.651 29.1161C12.6924 29.041 12.7567 28.9811 12.8344 28.9451L8.73285 20.6556C8.66716 20.6586 8.60159 20.6473 8.5407 20.6224C8.47982 20.5976 8.42506 20.5598 8.38025 20.5117Z" fill="#641EFF"/>
<path d="M66.9199 77.6533C66.9487 77.6525 66.9766 77.6434 67.0004 77.6272C67.0242 77.6109 67.0429 77.5883 67.0542 77.5618C67.0655 77.5354 67.0691 77.5062 67.0644 77.4778C67.0597 77.4494 67.0471 77.4229 67.0279 77.4015L62.7104 73.048C62.6823 73.0212 62.6449 73.0062 62.6061 73.0062C62.5672 73.0062 62.5298 73.0212 62.5017 73.048C62.4876 73.0615 62.4763 73.0777 62.4686 73.0956C62.4609 73.1135 62.4569 73.1328 62.4569 73.1524C62.4569 73.1719 62.4609 73.1912 62.4686 73.2091C62.4763 73.2271 62.4876 73.2433 62.5017 73.2567L66.8192 77.5742C66.8287 77.5943 66.8428 77.6118 66.8603 77.6256C66.8777 77.6393 66.8982 77.6488 66.9199 77.6533Z" fill="#641EFF"/>
<path d="M61.5804 71.9976C61.6062 72.005 61.6337 72.005 61.6595 71.9976C61.6766 71.9873 61.6915 71.9737 61.7032 71.9575C61.715 71.9414 61.7235 71.9232 61.7282 71.9038C61.7329 71.8844 61.7337 71.8642 61.7305 71.8445C61.7274 71.8248 61.7204 71.8059 61.7099 71.7889L57.745 65.4998C57.7354 65.483 57.7224 65.4683 57.707 65.4565C57.6915 65.4448 57.6738 65.4364 57.655 65.4317C57.6362 65.427 57.6166 65.4261 57.5975 65.4292C57.5783 65.4322 57.56 65.4391 57.5435 65.4494C57.5264 65.4598 57.5116 65.4734 57.4998 65.4895C57.488 65.5056 57.4795 65.5239 57.4748 65.5433C57.4702 65.5627 57.4694 65.5828 57.4725 65.6025C57.4757 65.6222 57.4827 65.6411 57.4932 65.6581L61.458 71.9544C61.4736 71.9707 61.4928 71.9831 61.5141 71.9906C61.5353 71.9981 61.558 72.0005 61.5804 71.9976Z" fill="#641EFF"/>
<path d="M52.7741 66.2482H52.8172L56.7174 65.1257C56.7554 65.114 56.7873 65.0878 56.8062 65.0528C56.825 65.0178 56.8293 64.9767 56.8181 64.9386C56.8141 64.9194 56.806 64.9014 56.7945 64.8856C56.7829 64.8699 56.7681 64.8568 56.7511 64.8473C56.734 64.8377 56.7151 64.8319 56.6957 64.8303C56.6762 64.8287 56.6566 64.8312 56.6382 64.8378L52.7309 65.9604C52.6928 65.972 52.6609 65.9982 52.6421 66.0332C52.6232 66.0682 52.6189 66.1093 52.6302 66.1475C52.6407 66.1772 52.6602 66.2028 52.686 66.2209C52.7118 66.239 52.7426 66.2485 52.7741 66.2482Z" fill="#641EFF"/>
<path d="M51.7436 65.7657C51.7613 65.7653 51.7787 65.7613 51.7948 65.7538C51.8109 65.7464 51.8253 65.7358 51.8371 65.7226C51.8639 65.6945 51.8789 65.6571 51.8789 65.6182C51.8789 65.5794 51.8639 65.542 51.8371 65.5139L48.0449 61.1388C48.0315 61.1247 48.0153 61.1134 47.9974 61.1057C47.9794 61.098 47.9601 61.0941 47.9406 61.0941C47.9211 61.0941 47.9018 61.098 47.8838 61.1057C47.8659 61.1134 47.8497 61.1247 47.8363 61.1388C47.8094 61.167 47.7945 61.2043 47.7945 61.2432C47.7945 61.282 47.8094 61.3194 47.8363 61.3475L51.6284 65.7226C51.6435 65.7374 51.6616 65.749 51.6814 65.7564C51.7012 65.7638 51.7224 65.767 51.7436 65.7657Z" fill="#641EFF"/>
<path d="M46.9123 60.0524C46.94 60.0636 46.971 60.0636 46.9986 60.0524C47.0319 60.0304 47.0552 59.9961 47.0633 59.957C47.0714 59.9179 47.0636 59.8772 47.0418 59.8437L43.1345 54.2094C43.1056 54.1841 43.0685 54.1702 43.0302 54.1702C42.9918 54.1702 42.9547 54.1841 42.9258 54.2094C42.8937 54.2325 42.8719 54.2674 42.8652 54.3064C42.8584 54.3454 42.8673 54.3855 42.8898 54.4181L46.7684 59.9876C46.7841 60.0106 46.8058 60.0289 46.8312 60.0403C46.8566 60.0517 46.8847 60.0559 46.9123 60.0524Z" fill="#641EFF"/>
<path d="M41.9416 53.2022C41.9634 53.203 41.985 53.1989 42.005 53.1902C42.0249 53.1815 42.0426 53.1684 42.0568 53.1518C42.0709 53.1384 42.0822 53.1222 42.0899 53.1042C42.0976 53.0863 42.1016 53.067 42.1016 53.0475C42.1016 53.0279 42.0976 53.0086 42.0899 52.9907C42.0822 52.9727 42.0709 52.9566 42.0568 52.9431L38.3581 49.741C38.3278 49.724 38.2927 49.718 38.2585 49.724C38.2243 49.7299 38.1932 49.7474 38.1704 49.7736C38.1476 49.7998 38.1345 49.833 38.1333 49.8677C38.1321 49.9024 38.1429 49.9364 38.1638 49.9641L41.8625 53.1662C41.8836 53.1875 41.9117 53.2003 41.9416 53.2022Z" fill="#641EFF"/>
<path d="M37.112 48.863C37.1466 48.8633 37.1801 48.8504 37.2056 48.827C37.2329 48.7977 37.248 48.7591 37.248 48.7191C37.248 48.679 37.2329 48.6405 37.2056 48.6111L33.4134 44.2361C33.3841 44.2088 33.3455 44.1936 33.3054 44.1936C33.2654 44.1936 33.2268 44.2088 33.1975 44.2361C33.1717 44.2661 33.1574 44.3044 33.1574 44.344C33.1574 44.3837 33.1717 44.422 33.1975 44.452L36.9969 48.7982C37.0095 48.8174 37.0265 48.8333 37.0466 48.8446C37.0666 48.8559 37.089 48.8622 37.112 48.863Z" fill="#641EFF"/>
<path d="M28.328 46.4235H28.3999L32.3792 44.0849C32.3966 44.0759 32.4121 44.0634 32.4245 44.0482C32.4369 44.033 32.4461 44.0155 32.4515 43.9966C32.4569 43.9777 32.4584 43.9579 32.4558 43.9385C32.4533 43.919 32.4468 43.9003 32.4368 43.8834C32.427 43.8657 32.4139 43.8502 32.398 43.8377C32.3822 43.8252 32.364 43.816 32.3446 43.8106C32.3251 43.8053 32.3048 43.8038 32.2848 43.8065C32.2648 43.8091 32.2455 43.8157 32.2281 43.8259L28.2128 46.1429C28.1958 46.1532 28.1809 46.1668 28.1691 46.183C28.1573 46.1991 28.1489 46.2173 28.1442 46.2367C28.1395 46.2561 28.1387 46.2763 28.1418 46.296C28.145 46.3157 28.152 46.3346 28.1625 46.3516C28.1777 46.3806 28.2024 46.4036 28.2325 46.4167C28.2626 46.4298 28.2963 46.4322 28.328 46.4235Z" fill="#641EFF"/>
<path d="M27.3057 46.1646C27.3467 46.1618 27.3852 46.1439 27.4136 46.1143C27.428 46.1002 27.4394 46.0834 27.4472 46.0649C27.455 46.0463 27.459 46.0264 27.459 46.0063C27.459 45.9862 27.455 45.9663 27.4472 45.9478C27.4394 45.9292 27.428 45.9125 27.4136 45.8984L23.7222 42.7035C23.6919 42.6865 23.6567 42.6805 23.6225 42.6864C23.5883 42.6924 23.5572 42.7099 23.5344 42.7361C23.5116 42.7622 23.4986 42.7955 23.4974 42.8301C23.4962 42.8648 23.507 42.8989 23.5279 42.9265L27.2193 46.1286C27.2443 46.1484 27.2742 46.1608 27.3057 46.1646Z" fill="#641EFF"/>
<path d="M22.6455 41.6817H22.7103C22.7283 41.6732 22.7444 41.6612 22.7577 41.6465C22.7711 41.6318 22.7814 41.6146 22.7881 41.5958C22.7948 41.5771 22.7977 41.5573 22.7967 41.5374C22.7957 41.5176 22.7908 41.4981 22.7823 41.4802L18.6735 33.1762C18.6551 33.1412 18.6236 33.1148 18.586 33.1027C18.5483 33.0906 18.5074 33.0937 18.472 33.1115C18.454 33.12 18.4379 33.1319 18.4246 33.1466C18.4112 33.1614 18.4009 33.1786 18.3942 33.1973C18.3875 33.216 18.3846 33.2359 18.3856 33.2557C18.3866 33.2756 18.3915 33.295 18.4 33.313L22.5088 41.6025C22.5221 41.627 22.5419 41.6474 22.566 41.6614C22.5901 41.6753 22.6177 41.6824 22.6455 41.6817Z" fill="#641EFF"/>
<path d="M17.5257 32.2478C17.5515 32.2473 17.5768 32.2405 17.5994 32.2279C17.622 32.2154 17.6411 32.1975 17.6552 32.1758C17.6657 32.1589 17.6727 32.14 17.6758 32.1203C17.679 32.1005 17.6782 32.0804 17.6735 32.061C17.6688 32.0416 17.6603 32.0233 17.6486 32.0072C17.6368 31.9911 17.6219 31.9775 17.6048 31.9672L13.9422 29.8588C13.9258 29.8485 13.9074 29.8416 13.8882 29.8385C13.8691 29.8355 13.8495 29.8363 13.8307 29.841C13.8119 29.8457 13.7942 29.8542 13.7787 29.8659C13.7633 29.8776 13.7503 29.8923 13.7407 29.9092C13.7302 29.9262 13.7232 29.945 13.7201 29.9648C13.7169 29.9845 13.7177 30.0046 13.7224 30.024C13.7271 30.0434 13.7355 30.0617 13.7473 30.0778C13.7591 30.0939 13.774 30.1075 13.7911 30.1178L17.4537 32.2478C17.4773 32.2542 17.5021 32.2542 17.5257 32.2478Z" fill="#641EFF"/>
<path d="M12.878 29.0098H12.9427C12.9607 29.0013 12.9768 28.9894 12.9901 28.9746C13.0035 28.9599 13.0138 28.9427 13.0205 28.924C13.0272 28.9053 13.0301 28.8854 13.0291 28.8656C13.0281 28.8457 13.0232 28.8263 13.0147 28.8083L8.91309 20.5188C8.90459 20.5008 8.89262 20.4847 8.87789 20.4714C8.86316 20.4581 8.84596 20.4477 8.82725 20.4411C8.80854 20.4344 8.7887 20.4315 8.76886 20.4324C8.74902 20.4334 8.72955 20.4383 8.71159 20.4468C8.69364 20.4553 8.67754 20.4673 8.6642 20.482C8.65087 20.4967 8.64058 20.5139 8.6339 20.5327C8.62722 20.5514 8.62428 20.5712 8.62527 20.5911C8.62625 20.6109 8.63115 20.6303 8.63965 20.6483L12.7484 28.9378C12.7608 28.961 12.7796 28.9801 12.8026 28.9929C12.8256 29.0057 12.8517 29.0115 12.878 29.0098Z" fill="#641EFF"/>
<path d="M62.3154 73.5161C62.3966 73.5159 62.4762 73.4935 62.5456 73.4514C62.6324 73.3956 62.7024 73.3172 62.748 73.2247C62.7937 73.1321 62.8132 73.0289 62.8047 72.9261C62.7896 72.6848 62.7162 72.4507 62.5909 72.244C62.4656 72.0372 62.292 71.8638 62.0851 71.7388C62.0028 71.6778 61.9045 71.6421 61.8022 71.6363C61.6999 71.6304 61.5982 71.6546 61.5095 71.7059C61.4208 71.7571 61.349 71.8331 61.303 71.9246C61.2569 72.0162 61.2387 72.1191 61.2504 72.2209C61.2649 72.4624 61.338 72.6966 61.4634 72.9035C61.5888 73.1104 61.7626 73.2836 61.97 73.4082C62.073 73.4752 62.1925 73.5126 62.3154 73.5161ZM61.97 72.005C62.1235 72.1074 62.2514 72.2437 62.3437 72.4034C62.436 72.5631 62.4904 72.742 62.5024 72.9261C62.5024 73.0556 62.4665 73.1563 62.3945 73.1923C62.3478 73.2087 62.2977 73.2133 62.2488 73.2057C62.1999 73.1982 62.1536 73.1788 62.1139 73.1491C61.9595 73.0461 61.831 72.9086 61.7386 72.7476C61.6462 72.5865 61.5924 72.4062 61.5814 72.2209C61.5742 72.1727 61.5798 72.1234 61.5974 72.078C61.6151 72.0326 61.6443 71.9926 61.6821 71.9618C61.7298 71.9435 61.7813 71.9379 61.8318 71.9455C61.8822 71.953 61.9298 71.9736 61.97 72.005Z" fill="#641EFF"/>
<path d="M57.4365 65.7663C57.5172 65.7702 57.5973 65.7502 57.6667 65.7087C57.7535 65.6529 57.8235 65.5745 57.8691 65.482C57.9148 65.3894 57.9343 65.2862 57.9258 65.1834C57.9113 64.9419 57.8381 64.7076 57.7128 64.5008C57.5874 64.2939 57.4135 64.1207 57.2062 63.9961C57.1232 63.9374 57.0257 63.9024 56.9243 63.8948C56.823 63.8872 56.7214 63.9073 56.6305 63.9529C56.5438 64.0087 56.4738 64.0871 56.4282 64.1796C56.3825 64.2722 56.3629 64.3754 56.3715 64.4782C56.386 64.7197 56.4591 64.954 56.5845 65.1608C56.7099 65.3677 56.8837 65.5409 57.0911 65.6655C57.1945 65.7307 57.3142 65.7656 57.4365 65.7663ZM57.0911 64.2551C57.2444 64.3594 57.372 64.4971 57.4642 64.658C57.5564 64.8188 57.6109 64.9984 57.6235 65.1834C57.6306 65.2327 57.625 65.2829 57.6074 65.3295C57.5898 65.376 57.5607 65.4174 57.5228 65.4496C57.4749 65.466 57.4237 65.4706 57.3736 65.4631C57.3236 65.4556 57.276 65.4362 57.235 65.4065C57.0805 65.3034 56.9521 65.1659 56.8597 65.0049C56.7673 64.8438 56.7135 64.6636 56.7025 64.4782C56.6963 64.4283 56.703 64.3777 56.7219 64.3311C56.7408 64.2845 56.7712 64.2435 56.8104 64.212C56.8572 64.1956 56.9072 64.191 56.9561 64.1985C57.0051 64.2061 57.0514 64.2255 57.0911 64.2551Z" fill="#641EFF"/>
<path d="M52.5282 67.1764C52.6108 67.1761 52.6921 67.1564 52.7657 67.1188C52.8506 67.0616 52.9187 66.9827 52.963 66.8904C53.0072 66.798 53.0261 66.6955 53.0175 66.5935C53.0024 66.3522 52.929 66.1181 52.8037 65.9114C52.6784 65.7046 52.5049 65.5313 52.2979 65.4062C52.2257 65.361 52.1444 65.3324 52.0598 65.3224C51.9752 65.3125 51.8894 65.3214 51.8086 65.3486C51.7226 65.4048 51.6536 65.4834 51.6092 65.576C51.5648 65.6687 51.5467 65.7717 51.5568 65.8739C51.5668 66.1122 51.6342 66.3446 51.7532 66.5513C51.8722 66.758 52.0393 66.9329 52.2404 67.0612C52.3268 67.1201 52.4251 67.1593 52.5282 67.1764ZM51.9813 65.6005C52.053 65.6041 52.1225 65.6264 52.1828 65.6652C52.3373 65.7683 52.4657 65.9058 52.5581 66.0668C52.6505 66.2279 52.7043 66.4082 52.7153 66.5935C52.7211 66.6427 52.7149 66.6926 52.6974 66.7389C52.6798 66.7852 52.6514 66.8267 52.6146 66.8598C52.5678 66.8761 52.5178 66.8807 52.4689 66.8732C52.4199 66.8656 52.3736 66.8462 52.3339 66.8166C52.1786 66.7139 52.049 66.5767 51.9554 66.4156C51.8618 66.2546 51.8066 66.0742 51.7943 65.8883C51.7887 65.8385 51.7957 65.788 51.8145 65.7415C51.8334 65.6951 51.8635 65.654 51.9022 65.6221C51.9339 65.6009 51.9727 65.5931 52.0101 65.6005H51.9813Z" fill="#641EFF"/>
<path d="M47.6755 61.5491C47.7581 61.5489 47.8395 61.5291 47.913 61.4916C47.9963 61.4328 48.0632 61.3537 48.1073 61.2617C48.1514 61.1698 48.1712 61.068 48.1649 60.9663C48.1537 60.7282 48.0858 60.4963 47.9669 60.2898C47.848 60.0833 47.6815 59.9082 47.4812 59.779C47.3968 59.7204 47.2982 59.6855 47.1957 59.6779C47.0932 59.6703 46.9906 59.6903 46.8984 59.7358C46.8124 59.7919 46.7434 59.8706 46.699 59.9632C46.6546 60.0558 46.6364 60.1589 46.6465 60.2611C46.6571 60.4992 46.7248 60.7314 46.8437 60.938C46.9627 61.1446 47.1295 61.3196 47.3301 61.4484C47.4349 61.5107 47.5537 61.5453 47.6755 61.5491ZM47.3301 60.038C47.4846 60.1411 47.613 60.2785 47.7054 60.4396C47.7978 60.6007 47.8516 60.7809 47.8626 60.9663C47.8698 61.0145 47.8643 61.0637 47.8466 61.1091C47.8289 61.1546 47.7997 61.1946 47.7619 61.2253C47.7158 61.2453 47.665 61.2519 47.6153 61.2443C47.5657 61.2366 47.5192 61.2151 47.4812 61.1821C47.3256 61.0814 47.1958 60.9456 47.1021 60.7857C47.0084 60.6257 46.9534 60.4461 46.9416 60.2611C46.9269 60.2114 46.9293 60.1582 46.9486 60.1101C46.9679 60.062 47.0028 60.0218 47.0477 59.996C47.0926 59.9702 47.145 59.9603 47.1962 59.968C47.2475 59.9756 47.2947 60.0003 47.3301 60.038Z" fill="#641EFF"/>
<path d="M42.7963 54.5046C42.8799 54.5053 42.9621 54.4829 43.0338 54.4398C43.1176 54.3832 43.185 54.3055 43.2292 54.2145C43.2734 54.1236 43.2929 54.0226 43.2856 53.9217C43.2711 53.6802 43.198 53.446 43.0726 53.2391C42.9473 53.0322 42.7734 52.859 42.5661 52.7344C42.4816 52.6758 42.383 52.6409 42.2805 52.6333C42.178 52.6258 42.0754 52.6457 41.9832 52.6912C41.8972 52.7474 41.8282 52.826 41.7838 52.9186C41.7394 53.0113 41.7212 53.1143 41.7313 53.2165C41.7431 53.4534 41.8112 53.6841 41.9301 53.8894C42.0491 54.0947 42.2153 54.2686 42.415 54.3966C42.5295 54.4676 42.6616 54.505 42.7963 54.5046ZM42.4509 52.9935C42.6054 53.0965 42.7338 53.234 42.8262 53.395C42.9186 53.5561 42.9724 53.7364 42.9834 53.9217C43.0001 53.9709 42.999 54.0243 42.9805 54.0728C42.962 54.1213 42.9272 54.1618 42.882 54.1874C42.8368 54.213 42.7842 54.222 42.7331 54.2129C42.682 54.2038 42.6356 54.1772 42.602 54.1376C42.4485 54.0352 42.3207 53.8989 42.2283 53.7392C42.136 53.5795 42.0816 53.4006 42.0695 53.2165C42.0625 53.1672 42.0681 53.117 42.0857 53.0704C42.1033 53.0239 42.1324 52.9826 42.1703 52.9503C42.217 52.9339 42.2671 52.9293 42.316 52.9369C42.3649 52.9444 42.4113 52.9638 42.4509 52.9935Z" fill="#641EFF"/>
<path d="M37.9221 50.2806C37.9965 50.2842 38.0707 50.2694 38.138 50.2375C38.224 50.1813 38.293 50.1027 38.3374 50.0101C38.3818 49.9174 38.4 49.8144 38.3899 49.7122C38.3781 49.4753 38.31 49.2446 38.1911 49.0393C38.0721 48.834 37.9059 48.6601 37.7062 48.5321C37.6218 48.4735 37.5232 48.4386 37.4207 48.431C37.3182 48.4234 37.2156 48.4434 37.1234 48.4889C37.0374 48.545 36.9684 48.6237 36.924 48.7163C36.8796 48.8089 36.8614 48.912 36.8715 49.0142C36.8872 49.2544 36.9608 49.4872 37.0862 49.6928C37.2115 49.8983 37.3847 50.0704 37.5911 50.1943C37.6929 50.2493 37.8065 50.2789 37.9221 50.2806ZM37.5767 48.7695C37.7302 48.8719 37.8581 49.0082 37.9505 49.1679C38.0428 49.3276 38.0971 49.5065 38.1092 49.6906C38.1092 49.8273 38.1092 49.9209 38.0085 49.9568C37.9077 49.9928 37.843 49.9568 37.7278 49.9137C37.5743 49.8113 37.4465 49.675 37.3541 49.5153C37.2618 49.3555 37.2074 49.1767 37.1954 48.9926C37.1954 48.8559 37.2313 48.7623 37.2961 48.7264C37.3428 48.71 37.3929 48.7054 37.4418 48.7129C37.4907 48.7205 37.5371 48.7399 37.5767 48.7695Z" fill="#641EFF"/>
<path d="M28.1675 47.4669C28.2487 47.4667 28.3283 47.4443 28.3978 47.4022C28.4838 47.3461 28.5528 47.2674 28.5972 47.1748C28.6416 47.0821 28.6597 46.9791 28.6496 46.8769C28.6396 46.6386 28.5722 46.4062 28.4532 46.1995C28.3342 45.9928 28.1671 45.8179 27.966 45.6896C27.8846 45.6249 27.7856 45.5862 27.6819 45.5786C27.5782 45.5709 27.4746 45.5946 27.3846 45.6466C27.2946 45.6986 27.2223 45.7765 27.1771 45.8702C27.1319 45.9638 27.116 46.0689 27.1313 46.1717C27.1464 46.413 27.2198 46.6471 27.3451 46.8538C27.4704 47.0606 27.644 47.2339 27.8509 47.359C27.9465 47.4194 28.0549 47.4563 28.1675 47.4669ZM27.6206 45.8911C27.6889 45.8954 27.7553 45.915 27.8149 45.9486C27.9703 46.0513 28.0998 46.1885 28.1934 46.3496C28.2871 46.5106 28.3422 46.6911 28.3546 46.8769C28.3693 46.9266 28.3668 46.9798 28.3476 47.0279C28.3283 47.076 28.2934 47.1162 28.2484 47.142C28.2035 47.1677 28.1512 47.1776 28.0999 47.17C28.0487 47.1624 28.0015 47.1377 27.966 47.1C27.8116 46.9969 27.6831 46.8594 27.5907 46.6984C27.4984 46.5373 27.4445 46.3571 27.4335 46.1717C27.4278 46.1225 27.4339 46.0726 27.4515 46.0263C27.469 45.98 27.4974 45.9385 27.5343 45.9055L27.6206 45.8911Z" fill="#641EFF"/>
<path d="M23.2925 43.2356C23.3731 43.238 23.4528 43.218 23.5228 43.1781C23.6088 43.1219 23.6778 43.0433 23.7222 42.9507C23.7666 42.858 23.7847 42.755 23.7746 42.6528C23.7607 42.4112 23.6879 42.1766 23.5624 41.9697C23.437 41.7627 23.2628 41.5896 23.055 41.4655C22.9736 41.4008 22.8746 41.3621 22.7709 41.3544C22.6673 41.3468 22.5636 41.3705 22.4736 41.4225C22.3836 41.4745 22.3113 41.5524 22.2661 41.646C22.2209 41.7397 22.205 41.8447 22.2203 41.9476C22.2315 42.1856 22.2994 42.4175 22.4183 42.624C22.5372 42.8306 22.7037 43.0057 22.9039 43.1349C23.0203 43.207 23.1558 43.2421 23.2925 43.2356ZM22.9399 41.7245C23.0957 41.8268 23.2255 41.9639 23.3192 42.125C23.4129 42.2861 23.4678 42.4668 23.4796 42.6528C23.4845 42.7026 23.4772 42.7528 23.4584 42.7992C23.4396 42.8456 23.4098 42.8867 23.3717 42.919C23.3249 42.9354 23.2749 42.94 23.226 42.9324C23.177 42.9249 23.1307 42.9055 23.091 42.8758C22.9366 42.7728 22.8081 42.6353 22.7157 42.4743C22.6234 42.3132 22.5695 42.1329 22.5585 41.9476C22.5528 41.8984 22.5589 41.8485 22.5765 41.8022C22.594 41.7559 22.6224 41.7144 22.6593 41.6813C22.706 41.665 22.756 41.6604 22.805 41.6679C22.8539 41.6755 22.9002 41.6949 22.9399 41.7245Z" fill="#641EFF"/>
<path d="M13.5438 30.5642C13.6264 30.5639 13.7078 30.5442 13.7813 30.5066C13.8662 30.4494 13.9343 30.3705 13.9786 30.2782C14.0229 30.1859 14.0417 30.0834 14.0332 29.9813C14.022 29.7433 13.9541 29.5114 13.8352 29.3049C13.7163 29.0984 13.5498 28.9232 13.3496 28.794C13.2651 28.7355 13.1665 28.7006 13.064 28.693C12.9615 28.6854 12.8589 28.7054 12.7667 28.7509C12.6807 28.807 12.6117 28.8857 12.5673 28.9783C12.5229 29.0709 12.5047 29.1739 12.5149 29.2762C12.5249 29.5145 12.5923 29.7468 12.7113 29.9535C12.8303 30.1602 12.9974 30.3352 13.1984 30.4635C13.3032 30.5258 13.422 30.5604 13.5438 30.5642ZM13.1984 29.0531C13.3529 29.1562 13.4813 29.2936 13.5737 29.4547C13.6661 29.6157 13.7199 29.796 13.7309 29.9813C13.7367 30.0306 13.7305 30.0804 13.713 30.1267C13.6955 30.1731 13.6671 30.2145 13.6302 30.2476C13.5835 30.2639 13.5334 30.2685 13.4845 30.261C13.4356 30.2535 13.3892 30.234 13.3496 30.2044C13.1942 30.1017 13.0646 29.9645 12.971 29.8035C12.8774 29.6425 12.8223 29.462 12.8099 29.2762C12.8099 29.1466 12.8099 29.0459 12.9178 29.0099C12.9646 28.9936 13.0146 28.989 13.0635 28.9965C13.1125 29.004 13.1588 29.0235 13.1984 29.0531Z" fill="#641EFF"/>
<path d="M18.4136 33.385C18.4948 33.3848 18.5744 33.3624 18.6439 33.3203C18.7299 33.2641 18.7989 33.1855 18.8433 33.0928C18.8877 33.0002 18.9058 32.8972 18.8957 32.795C18.8851 32.5568 18.8175 32.3247 18.6985 32.1181C18.5796 31.9114 18.4127 31.7364 18.2121 31.6077C18.1291 31.549 18.0316 31.514 17.9303 31.5064C17.8289 31.4988 17.7273 31.5189 17.6365 31.5645C17.5497 31.6203 17.4797 31.6987 17.4341 31.7912C17.3884 31.8837 17.3688 31.987 17.3774 32.0898C17.3925 32.3311 17.4659 32.5651 17.5912 32.7719C17.7165 32.9787 17.89 33.152 18.097 33.2771C18.1926 33.3374 18.301 33.3744 18.4136 33.385ZM18.061 31.8667C18.2164 31.9694 18.3459 32.1066 18.4395 32.2676C18.5332 32.4286 18.5883 32.6091 18.6007 32.795C18.6007 32.9245 18.5647 33.0252 18.4928 33.0612C18.446 33.0776 18.396 33.0822 18.347 33.0746C18.2981 33.0671 18.2518 33.0477 18.2121 33.018C18.0577 32.915 17.9292 32.7775 17.8368 32.6165C17.7444 32.4554 17.6906 32.2751 17.6796 32.0898C17.6725 32.0416 17.678 31.9923 17.6957 31.9469C17.7133 31.9015 17.7425 31.8614 17.7804 31.8307C17.826 31.8106 17.8762 31.8033 17.9257 31.8096C17.9751 31.8159 18.022 31.8357 18.061 31.8667Z" fill="#641EFF"/>
<path d="M8.63569 20.7345C8.71608 20.7352 8.79531 20.7153 8.86596 20.677C8.95274 20.6212 9.0227 20.5428 9.06834 20.4503C9.11397 20.3577 9.13355 20.2545 9.12499 20.1517C9.11379 19.9137 9.04593 19.6817 8.92703 19.4752C8.80813 19.2687 8.64164 19.0936 8.44141 18.9644C8.35695 18.9058 8.25836 18.8709 8.15586 18.8633C8.05337 18.8557 7.95071 18.8757 7.85855 18.9212C7.77252 18.9773 7.70354 19.056 7.65913 19.1486C7.61472 19.2412 7.59659 19.3443 7.60669 19.4465C7.61671 19.6848 7.68407 19.9172 7.80308 20.1239C7.92209 20.3306 8.08922 20.5055 8.29028 20.6338C8.39502 20.6961 8.51388 20.7308 8.63569 20.7345ZM8.0888 19.1587C8.16047 19.1623 8.22994 19.1846 8.29028 19.2234C8.44472 19.3265 8.57318 19.464 8.66557 19.625C8.75796 19.7861 8.81177 19.9663 8.82278 20.1517C8.82853 20.2009 8.82237 20.2508 8.80484 20.2971C8.78731 20.3434 8.75891 20.3849 8.72203 20.4179C8.6753 20.4343 8.62526 20.4389 8.57633 20.4313C8.52739 20.4238 8.48107 20.4044 8.44141 20.3748C8.28602 20.2721 8.15646 20.1349 8.06284 19.9738C7.96923 19.8128 7.91409 19.6323 7.90172 19.4465C7.89621 19.3967 7.90317 19.3462 7.92201 19.2997C7.94086 19.2533 7.97099 19.2122 8.00966 19.1803C8.04036 19.1633 8.07617 19.1582 8.11039 19.1659L8.0888 19.1587Z" fill="#641EFF"/>
<path d="M33.0435 44.6463C33.1261 44.6461 33.2074 44.6264 33.281 44.5888C33.3664 44.5321 33.4349 44.4533 33.4793 44.3608C33.5236 44.2684 33.5421 44.1656 33.5328 44.0635C33.5177 43.8222 33.4443 43.5881 33.319 43.3814C33.1937 43.1746 33.0202 43.0012 32.8132 42.8762C32.7318 42.8115 32.6328 42.7728 32.5291 42.7651C32.4254 42.7575 32.3218 42.7812 32.2318 42.8332C32.1418 42.8852 32.0695 42.9631 32.0243 43.0567C31.9791 43.1504 31.9632 43.2555 31.9785 43.3583C31.9909 43.5961 32.0592 43.8275 32.178 44.0339C32.2968 44.2402 32.4627 44.4155 32.6621 44.5456C32.7774 44.614 32.9095 44.6489 33.0435 44.6463ZM32.5038 43.0705C32.5732 43.0743 32.6403 43.0967 32.6981 43.1352C32.8525 43.2383 32.981 43.3758 33.0734 43.5368C33.1658 43.6979 33.2196 43.8781 33.2306 44.0635C33.2377 44.1117 33.2322 44.1609 33.2145 44.2064C33.1969 44.2518 33.1677 44.2918 33.1298 44.3225C33.0841 44.3419 33.034 44.3488 32.9847 44.3425C32.9353 44.3362 32.8886 44.3169 32.8492 44.2866C32.6959 44.1823 32.5683 44.0446 32.4761 43.8837C32.3838 43.7229 32.3293 43.5433 32.3167 43.3583C32.3097 43.309 32.3152 43.2588 32.3329 43.2122C32.3505 43.1657 32.3796 43.1243 32.4175 43.0921C32.4397 43.066 32.4702 43.0482 32.5038 43.0417V43.0705Z" fill="#641EFF"/>
<path d="M58.647 72.4653C59.6648 72.3514 60.6212 71.921 61.3814 71.2348C62.8206 70.1986 64.3173 69.1336 66.843 70.5944L66.9941 70.3353C64.2957 68.7738 62.6767 69.9539 61.2015 70.9901C59.9423 71.8968 58.8557 72.674 57.2367 71.7097C55.6176 70.7455 55.2794 67.9607 54.7901 64.6507C54.1497 60.3332 53.4229 55.4185 49.9257 53.4036C46.7452 51.5615 45.4643 53.7778 44.2267 55.9222C43.7461 56.929 43.0626 57.8257 42.2191 58.5558C41.3196 59.1675 40.2762 59.0955 38.945 58.3256C35.9659 56.6058 35.0377 50.0216 34.1454 43.6534C33.2531 37.2851 32.3033 30.557 29.1947 28.7581C28.8611 28.529 28.4801 28.3783 28.0801 28.3172C27.6801 28.2562 27.2715 28.2864 26.8848 28.4055C25.2658 29.0099 24.3663 31.6436 23.4884 34.1621C22.6105 36.6806 21.7614 39.1992 20.2791 39.7389C19.9321 39.8424 19.5658 39.8645 19.2089 39.8033C18.8519 39.7422 18.5139 39.5994 18.2211 39.3863C15.3428 37.7024 14.6952 32.8669 13.9756 27.7507C13.1769 22.0732 12.3493 16.1942 8.46363 13.9492L8.3125 14.2082C12.0759 16.3669 12.889 22.1811 13.6734 27.7938C14.3929 32.982 15.1125 37.8679 18.0628 39.6381C18.395 39.8757 18.7774 40.0337 19.1804 40.0998C19.5835 40.1659 19.9963 40.1384 20.387 40.0195C21.9989 39.4222 22.9056 36.7958 23.7763 34.2629C24.6469 31.7299 25.5032 29.2258 26.9928 28.6645C27.3373 28.5602 27.701 28.5357 28.0564 28.5931C28.4118 28.6504 28.7494 28.7881 29.0436 28.9955C32.0298 30.7225 32.9509 37.3067 33.8432 43.6749C34.7354 50.0432 35.6853 56.7713 38.8011 58.5702C40.2402 59.3905 41.3915 59.4553 42.399 58.7789C43.2867 58.0291 44.0052 57.0996 44.5073 56.0517C45.7162 53.9433 46.8675 51.9501 49.789 53.6411C53.1638 55.584 53.8762 60.4123 54.5094 64.6722C55.0132 68.0615 55.4449 70.9829 57.1071 71.9472C57.5656 72.253 58.0969 72.4318 58.647 72.4653Z" fill="#641EFF"/>
<path d="M28.7865 27.6571C28.2612 27.3548 27.8294 27.5995 27.8294 28.2111C27.8489 28.5405 27.9457 28.8607 28.112 29.1458C28.2783 29.4308 28.5093 29.6727 28.7865 29.8518C29.3118 30.1612 29.7363 29.9093 29.7363 29.3049C29.7187 28.9749 29.6236 28.6537 29.4585 28.3673C29.2935 28.081 29.0632 27.8377 28.7865 27.6571Z" fill="#641EFF"/>
<path d="M48.6197 43.157C48.6464 43.1564 48.6724 43.1488 48.6952 43.1349C48.7179 43.121 48.7366 43.1013 48.7493 43.0778C48.7593 43.061 48.7658 43.0422 48.7683 43.0228C48.7709 43.0033 48.7694 42.9835 48.764 42.9647C48.7586 42.9458 48.7494 42.9282 48.737 42.913C48.7245 42.8979 48.7091 42.8854 48.6917 42.8764L38.9846 37.2852L37.7829 33.8169C37.7784 33.7998 37.7704 33.7839 37.7592 33.7702C37.748 33.7565 37.734 33.7455 37.7181 33.7377L32.8394 30.9242C32.823 30.9138 32.8046 30.9069 32.7855 30.9039C32.7663 30.9008 32.7467 30.9017 32.7279 30.9064C32.7091 30.9111 32.6914 30.9196 32.676 30.9313C32.6605 30.943 32.6475 30.9577 32.6379 30.9745C32.6274 30.9915 32.6204 31.0104 32.6173 31.0301C32.6141 31.0498 32.6149 31.07 32.6196 31.0894C32.6243 31.1088 32.6328 31.127 32.6446 31.1432C32.6563 31.1593 32.6712 31.1729 32.6883 31.1832L37.5166 33.968L38.7183 37.4363C38.724 37.4539 38.7334 37.47 38.7458 37.4837C38.7582 37.4973 38.7734 37.5082 38.7903 37.5155L48.5406 43.1498C48.566 43.1586 48.5932 43.1611 48.6197 43.157Z" fill="#641EFF"/>
<path d="M48.3555 40.739C48.3363 40.5217 48.2681 40.3117 48.1559 40.1247C48.0437 39.9377 47.8905 39.7787 47.7078 39.6596L40.4689 35.486C40.1091 35.2774 39.8213 35.4213 39.8213 35.8171C39.8366 36.0353 39.9032 36.2468 40.0158 36.4343C40.1283 36.6219 40.2835 36.7802 40.4689 36.8964L47.7078 41.07C48.0604 41.2786 48.3555 41.1275 48.3555 40.739Z" fill="#B99AFF"/>
</svg>
