<svg width="178" height="165" viewBox="0 0 178 165" fill="none" xmlns="http://www.w3.org/2000/svg">
<path d="M109.735 42.566L175.555 80.8571C176.259 81.2665 176.205 82.3002 175.462 82.6337L172.654 83.8948C171.763 84.2949 170.733 84.2363 169.893 83.7376L103.98 44.5995C103.143 44.1024 103.438 42.8235 104.408 42.7431L104.658 42.7224L109.735 42.566Z" fill="#E0E0E0"/>
<path d="M109.814 0.510376C110.283 0.512236 110.744 0.623289 111.164 0.834595L175.047 38.1246H175.048C175.445 38.3843 175.776 38.7358 176.014 39.151C176.25 39.5628 176.387 40.0256 176.414 40.5016V76.6285C176.386 77.1035 176.247 77.5646 176.01 77.9742C175.773 78.3832 175.444 78.7289 175.051 78.984L172.459 80.4703C172.037 80.6855 171.571 80.7975 171.1 80.7975C170.63 80.7975 170.166 80.686 169.745 80.4723L105.864 43.1832C105.468 42.9245 105.137 42.5742 104.899 42.1598C104.663 41.7478 104.526 41.2845 104.5 40.8082V4.67053C104.53 4.19535 104.67 3.73384 104.907 3.32385C105.145 2.91415 105.473 2.56692 105.866 2.31018L108.467 0.820923C108.887 0.614527 109.348 0.508551 109.814 0.510376Z" fill="#947BCC" stroke="#B99AFF"/>
<path d="M109.806 0.5C110.22 0.500006 110.63 0.586075 111.011 0.751953L111.172 0.828125L175.066 38.126C175.304 38.2742 175.516 38.4598 175.694 38.6748L170.792 41.5479C170.519 41.1644 170.18 40.8321 169.788 40.5693L169.775 40.5605L169.762 40.5527L105.847 3.30566H105.848C105.609 3.16206 105.356 3.06408 105.104 3.02637C105.318 2.74202 105.578 2.4964 105.875 2.30273L108.439 0.828125C108.864 0.612511 109.332 0.5 109.806 0.5Z" fill="#C7AEFF" stroke="#B99AFF"/>
<path d="M104.721 4.04956C104.8 4.0039 104.996 3.95984 105.336 4.16382L105.342 4.16675L169.25 41.4109C169.638 41.6747 169.961 42.0254 170.194 42.4373C170.429 42.8516 170.566 43.3162 170.594 43.7937V79.9226C170.594 80.3359 170.454 80.4885 170.377 80.5339C170.302 80.5779 170.109 80.6234 169.766 80.4226H169.765L105.861 43.1199C105.467 42.8606 105.137 42.5107 104.9 42.0974C104.664 41.6854 104.527 41.2221 104.5 40.7458V4.65308C104.5 4.25115 104.639 4.09695 104.721 4.04956Z" fill="white" stroke="#B99AFF"/>
<path d="M119.827 20.8196C120.003 20.9377 120.139 21.1063 120.219 21.3039C120.325 21.5198 120.38 21.758 120.379 21.9992V42.5734C120.387 42.6648 120.376 42.7567 120.349 42.8441C120.322 42.9315 120.278 43.0125 120.219 43.0825C120.164 43.129 120.095 43.1544 120.023 43.1544C119.952 43.1544 119.882 43.129 119.827 43.0825L117.156 41.518C116.98 41.4 116.844 41.2313 116.764 41.0338C116.66 40.817 116.606 40.5794 116.604 40.3385V32.5284L112.07 29.9085V37.731C112.08 37.8224 112.071 37.915 112.044 38.0026C112.016 38.0903 111.971 38.1712 111.911 38.2401C111.857 38.2889 111.787 38.316 111.715 38.316C111.642 38.316 111.573 38.2889 111.519 38.2401L108.847 36.6756C108.676 36.567 108.543 36.4061 108.467 36.2162C108.354 35.9933 108.296 35.7465 108.296 35.496V14.9341C108.287 14.8418 108.298 14.7488 108.328 14.661C108.357 14.5733 108.405 14.4929 108.467 14.4251C108.519 14.3771 108.587 14.3505 108.657 14.3505C108.727 14.3505 108.795 14.3771 108.847 14.4251L111.519 15.9896C111.697 16.1046 111.834 16.2742 111.911 16.4738C112.016 16.6945 112.07 16.9365 112.07 17.1815V24.855L116.604 27.4997V19.8263C116.596 19.7349 116.605 19.6428 116.633 19.5553C116.66 19.4678 116.705 19.3869 116.764 19.3172C116.819 19.2707 116.888 19.2453 116.96 19.2453C117.031 19.2453 117.101 19.2707 117.156 19.3172L119.827 20.8196Z" fill="#543B89"/>
<path d="M134.758 29.5485C134.926 29.6656 135.058 29.8294 135.137 30.0203C135.246 30.2403 135.305 30.4822 135.309 30.7281V34.1054C135.316 34.1976 135.304 34.2903 135.275 34.3778C135.245 34.4653 135.199 34.5458 135.137 34.6145C135.084 34.66 135.017 34.685 134.948 34.685C134.878 34.685 134.811 34.66 134.758 34.6145L131.167 32.5161V48.906C131.175 48.9983 131.164 49.0913 131.135 49.1791C131.105 49.2668 131.058 49.3472 130.995 49.415C130.945 49.4658 130.877 49.4943 130.806 49.4943C130.734 49.4943 130.666 49.4658 130.616 49.415L128.005 47.8505C127.827 47.7355 127.69 47.5659 127.613 47.3663C127.505 47.1463 127.446 46.9045 127.442 46.6586V30.2811L123.851 28.1827C123.68 28.0633 123.547 27.8947 123.471 27.6984C123.364 27.4823 123.305 27.2449 123.3 27.0031V23.6258C123.291 23.5335 123.302 23.4404 123.332 23.3527C123.361 23.2649 123.409 23.1845 123.471 23.1167C123.523 23.0687 123.591 23.0421 123.661 23.0421C123.731 23.0421 123.799 23.0687 123.851 23.1167L134.758 29.5485Z" fill="#543B89"/>
<path d="M144.131 51.6997C144.021 51.4514 143.923 51.2279 143.849 51.0168L141.938 44.6347V55.1763C141.95 55.3603 141.893 55.5421 141.778 55.6854C141.725 55.7343 141.655 55.7613 141.582 55.7613C141.51 55.7613 141.44 55.7343 141.386 55.6854L138.715 54.1209C138.537 54.0059 138.399 53.8363 138.323 53.6367C138.217 53.4207 138.162 53.1826 138.163 52.9413V32.4043C138.155 32.311 138.164 32.2169 138.191 32.1274C138.219 32.0379 138.263 31.9547 138.323 31.8828C138.378 31.8364 138.447 31.8109 138.519 31.8109C138.59 31.8109 138.66 31.8364 138.715 31.8828L141.08 33.2735C141.354 33.4368 141.569 33.6849 141.693 33.9812C141.827 34.2916 141.913 34.5151 141.962 34.6393L145.259 45.3921L148.567 38.5133C148.643 38.3829 148.734 38.2621 148.837 38.1532C148.972 38.0042 149.18 38.0042 149.45 38.1532L151.815 39.5439C151.987 39.6602 152.123 39.8239 152.207 40.0157C152.312 40.2364 152.367 40.4784 152.366 40.7234V61.3225C152.376 61.414 152.367 61.5065 152.34 61.5942C152.313 61.6819 152.267 61.7628 152.207 61.8316C152.153 61.8805 152.083 61.9075 152.011 61.9075C151.939 61.9075 151.869 61.8805 151.815 61.8316L149.143 60.2671C148.968 60.1491 148.831 59.9804 148.751 59.7829C148.646 59.5621 148.592 59.3202 148.592 59.0751V48.5335L146.668 52.6309C146.601 52.7704 146.509 52.8965 146.398 53.0034C146.276 53.1152 146.117 53.1028 145.92 53.0034L144.609 52.2336C144.395 52.1147 144.227 51.9268 144.131 51.6997Z" fill="#543B89"/>
<path d="M166.252 65.1593C166.424 65.2787 166.556 65.4474 166.632 65.6436C166.739 65.8597 166.798 66.0972 166.804 66.3389V69.7162C166.812 69.8085 166.801 69.9016 166.772 69.9894C166.742 70.0771 166.695 70.1575 166.632 70.2253C166.58 70.2733 166.513 70.2999 166.442 70.2999C166.372 70.2999 166.304 70.2733 166.252 70.2253L156.792 64.6999C156.62 64.5806 156.488 64.4119 156.412 64.2157C156.302 64.0007 156.243 63.7625 156.24 63.5204V42.9833C156.233 42.8892 156.245 42.7946 156.274 42.705C156.304 42.6155 156.35 42.5328 156.412 42.4618C156.465 42.4163 156.532 42.3914 156.602 42.3914C156.671 42.3914 156.739 42.4163 156.792 42.4618L159.476 44.0263C159.647 44.1457 159.779 44.3143 159.855 44.5106C159.963 44.7267 160.021 44.9641 160.027 45.2059V61.5461L166.252 65.1593Z" fill="#543B89"/>
<path d="M106.863 127.762L105.393 126.897C104.997 126.643 104.656 126.311 104.39 125.919C104.124 125.528 103.94 125.086 103.848 124.62L97.4835 75.886C97.48 75.5332 97.3799 75.1882 97.1942 74.8896C97.0086 74.5911 96.7447 74.3506 96.4321 74.195C96.1195 74.0395 95.7703 73.975 95.4236 74.0087C95.077 74.0424 94.7463 74.1731 94.4686 74.386L61.7048 93.5247C61.0152 93.9313 60.1947 94.0444 59.423 93.8392C58.6513 93.634 57.9913 93.1272 57.5877 92.4298L56.5071 90.5576C56.1015 89.8595 55.4396 89.3525 54.6661 89.1473C53.8926 88.9422 53.0705 89.0555 52.3792 89.4627L37.2292 98.3094C36.4884 98.795 35.8912 99.475 35.5011 100.277C35.1111 101.079 34.9427 101.973 35.014 102.864L42.5782 160.477C42.6718 160.934 42.8537 161.367 43.1133 161.753C43.3729 162.138 43.7052 162.467 44.091 162.722L45.5715 163.576C45.7008 163.676 45.855 163.739 46.017 163.756C46.1791 163.773 46.3427 163.745 46.49 163.674L107.792 127.817C107.647 127.892 107.484 127.927 107.32 127.917C107.157 127.908 106.999 127.854 106.863 127.762Z" fill="#C7AEFF"/>
<path opacity="0.25" d="M106.865 127.762L105.395 126.897C104.999 126.643 104.657 126.311 104.392 125.919C104.126 125.528 103.942 125.086 103.85 124.62L97.4854 75.886C97.482 75.5332 97.3818 75.1882 97.1962 74.8896C97.0105 74.5911 96.7467 74.3506 96.434 74.195C96.1214 74.0395 95.7723 73.975 95.4256 74.0087C95.0789 74.0424 94.7483 74.1731 94.4706 74.386L61.7068 93.5247C61.0172 93.9313 60.1967 94.0444 59.425 93.8392C58.6532 93.634 57.9933 93.1272 57.5897 92.4298L56.5091 90.5576C56.1034 89.8595 55.4415 89.3525 54.6681 89.1473C53.8946 88.9422 53.0724 89.0555 52.3812 89.4627L37.2312 98.3094C36.4903 98.795 35.8931 99.475 35.5031 100.277C35.113 101.079 34.9447 101.973 35.016 102.864L42.5802 160.477C42.6738 160.934 42.8556 161.367 43.1153 161.753C43.3749 162.138 43.7072 162.467 44.093 162.722L45.5734 163.576C45.7028 163.676 45.8569 163.739 46.019 163.756C46.181 163.773 46.3447 163.745 46.4919 163.674L107.794 127.817C107.649 127.892 107.486 127.927 107.322 127.917C107.159 127.908 107.001 127.854 106.865 127.762Z" fill="black"/>
<path opacity="0.25" d="M44.0985 162.722L45.5789 163.576C45.7082 163.676 45.8624 163.738 46.0245 163.756C46.1865 163.773 46.3501 163.745 46.4974 163.674L107.8 127.816C107.651 127.887 107.487 127.917 107.323 127.901C107.16 127.886 107.004 127.826 106.871 127.729L105.401 126.864C105.014 126.619 104.686 126.29 104.439 125.9L43.1367 161.791C43.3904 162.165 43.7178 162.482 44.0985 162.722Z" fill="black"/>
<path d="M44.418 157.553V109.072C44.4506 108.458 44.625 107.861 44.9272 107.329C45.2294 106.796 45.6509 106.343 46.1577 106.006L99.8852 74.5825C100.847 74.0132 101.625 74.473 101.625 75.6007V124.115C101.593 124.727 101.419 125.323 101.117 125.854C100.814 126.385 100.392 126.836 99.8852 127.17L46.201 158.582C45.2392 159.141 44.418 158.681 44.418 157.553Z" fill="#641EFF"/>
<path d="M46.4902 163.707C46.6233 163.612 46.7292 163.483 46.7975 163.333C46.8658 163.183 46.894 163.017 46.8793 162.853V114.842C46.9288 113.923 47.1913 113.029 47.6457 112.231C48.1 111.434 48.7333 110.757 49.4943 110.254L105.556 77.4624C107.004 76.6193 108.171 77.32 108.171 78.9843V126.995C108.188 127.159 108.162 127.324 108.095 127.474C108.029 127.624 107.925 127.753 107.793 127.849L46.4902 163.707Z" fill="#C5ABFF"/>
<path opacity="0.15" d="M46 163.603C46.133 163.507 46.239 163.378 46.3073 163.228C46.3756 163.078 46.4038 162.913 46.389 162.749V114.738C46.4385 113.819 46.7011 112.924 47.1554 112.127C47.6098 111.33 48.2431 110.653 49.0041 110.15L105.066 77.3581C106.514 76.5151 107.681 77.2158 107.681 78.88V126.891C107.698 127.054 107.672 127.22 107.605 127.37C107.539 127.52 107.434 127.649 107.302 127.745L46 163.603Z" fill="white"/>
<path d="M94.5782 140.873L77.9662 120.704C77.8801 120.593 77.776 120.498 77.6583 120.423L73.6772 118.063C73.3386 117.866 73.0923 118.136 73.0923 118.791L73 159.555C73 159.898 73 160.096 73.1436 160.158L77.135 162.487C77.2684 162.56 77.4839 162.341 77.7199 161.832L80.5724 155.646L82.1936 161.53C82.2373 161.724 82.3506 161.895 82.5116 162.009C82.84 162.217 86.3696 164.265 86.5133 164.348C86.8416 164.545 87.3239 164.348 87.7856 163.828L90.0942 161.146C90.424 160.766 90.669 160.319 90.8124 159.834C90.9558 159.35 90.9944 158.84 90.9254 158.339L87.7856 146.976C87.7404 146.52 87.8446 146.063 88.082 145.674C88.3195 145.285 88.6769 144.986 89.099 144.824L93.7573 142.682C94.7013 142.287 95.1117 141.466 94.5782 140.873Z" fill="#641EFF"/>
<path d="M94.5782 140.873L77.9662 120.704C77.8801 120.593 77.776 120.498 77.6583 120.423L73.6772 118.063C73.3386 117.866 73.0923 118.136 73.0923 118.791L73 159.555C73 159.898 73 160.096 73.1436 160.158L77.135 162.487C77.2684 162.56 77.4839 162.341 77.7199 161.832L80.5724 155.646L82.1936 161.53C82.2373 161.724 82.3506 161.895 82.5116 162.009C82.84 162.217 86.3696 164.265 86.5133 164.348C86.8416 164.545 87.3239 164.348 87.7856 163.828L90.0942 161.146C90.424 160.766 90.669 160.319 90.8124 159.834C90.9558 159.35 90.9944 158.84 90.9254 158.339L87.7856 146.976C87.7404 146.52 87.8446 146.063 88.082 145.674C88.3195 145.285 88.6769 144.986 89.099 144.824L93.7573 142.682C94.7013 142.287 95.1117 141.466 94.5782 140.873Z" fill="#2A125E"/>
<path d="M76.9922 161.915L77.0845 121.161C77.0845 120.319 77.4744 120.122 77.967 120.704L94.579 140.873C95.0715 141.465 94.7021 142.287 93.7581 142.713L89.0998 144.854C88.6777 145.017 88.3203 145.316 88.0828 145.705C87.8454 146.094 87.7412 146.551 87.7864 147.007L90.9262 158.37C90.9952 158.871 90.9566 159.381 90.8132 159.865C90.6698 160.35 90.4248 160.797 90.095 161.177L87.7864 163.859C87.1195 164.639 86.4012 164.659 86.1857 163.859L83.046 152.496C82.8305 151.737 82.338 151.83 81.9276 152.704L77.7207 161.832C77.3205 162.767 76.9922 162.767 76.9922 161.915Z" fill="#543B89"/>
<path d="M86.4575 164.337L82.5174 162.04C82.3597 161.922 82.2473 161.753 82.1993 161.561L80.5781 155.687L81.9428 152.735C82.343 151.862 82.8457 151.768 83.0509 152.527L86.1907 163.89C86.2292 164.065 86.3229 164.222 86.4575 164.337Z" fill="#2A1160"/>
<path d="M70.3231 16.645C70.247 15.738 69.9684 14.8603 69.5082 14.0785C69.0481 13.2967 68.4185 12.6311 67.6671 12.1321L66.6782 11.5525C65.8482 11.1282 64.9314 10.9071 64.0018 10.9071C63.0721 10.9071 62.1553 11.1282 61.3253 11.5525L10.7466 41.1716C9.9681 41.6861 9.32036 42.3794 8.85601 43.1952C8.39167 44.011 8.12382 44.9262 8.07422 45.8666V71.0309C8.12378 71.9701 8.39169 72.8842 8.85609 73.6987C9.32049 74.5132 9.96827 75.2049 10.7466 75.7176L11.7354 76.2972C12.5641 76.7261 13.4814 76.9497 14.4119 76.9497C15.3424 76.9497 16.2596 76.7261 17.0883 76.2972L16.8595 76.4049L39.0475 63.4874C39.422 63.2692 39.8195 63.0942 40.2325 62.9657L44.3186 66.6422L44.6292 66.8824L46.8684 68.1658L50.9546 70.5754C51.4432 70.8045 51.9801 70.9077 52.5176 70.8759C53.0551 70.8442 53.5765 70.6784 54.0356 70.3933C55.1879 69.7143 56.1277 67.7684 56.1277 66.0378V56.5898C56.1767 55.6492 56.4442 54.7337 56.9086 53.9178C57.373 53.1019 58.0211 52.4088 58.8001 51.8948L67.6671 46.7278C68.4456 46.2133 69.0933 45.52 69.5576 44.7042C70.022 43.8885 70.2898 42.9732 70.3394 42.0328V16.8437C70.338 16.7772 70.3326 16.7108 70.3231 16.645Z" fill="#641EFF"/>
<path opacity="0.25" d="M70.3231 16.645C70.247 15.738 69.9684 14.8603 69.5082 14.0785C69.0481 13.2967 68.4185 12.6311 67.6671 12.1321L66.6782 11.5525C65.8482 11.1282 64.9314 10.9071 64.0018 10.9071C63.0721 10.9071 62.1553 11.1282 61.3253 11.5525L10.7466 41.1716C9.9681 41.6861 9.32036 42.3794 8.85601 43.1952C8.39167 44.011 8.12382 44.9262 8.07422 45.8666V71.0309C8.12378 71.9701 8.39169 72.8842 8.85609 73.6987C9.32049 74.5132 9.96827 75.2049 10.7466 75.7176L11.7354 76.2972C12.5641 76.7261 13.4814 76.9497 14.4119 76.9497C15.3424 76.9497 16.2596 76.7261 17.0883 76.2972L16.8595 76.4049L39.0475 63.4874C39.422 63.2692 39.8195 63.0942 40.2325 62.9657L44.3186 66.6422L44.6292 66.8824L46.8684 68.1658L50.9546 70.5754C51.4432 70.8045 51.9801 70.9077 52.5176 70.8759C53.0551 70.8442 53.5765 70.6784 54.0356 70.3933C55.1879 69.7143 56.1277 67.7684 56.1277 66.0378V56.5898C56.1767 55.6492 56.4442 54.7337 56.9086 53.9178C57.373 53.1019 58.0211 52.4088 58.8001 51.8948L67.6671 46.7278C68.4456 46.2133 69.0933 45.52 69.5576 44.7042C70.022 43.8885 70.2898 42.9732 70.3394 42.0328V16.8437C70.338 16.7772 70.3326 16.7108 70.3231 16.645Z" fill="black"/>
<path d="M70.3436 16.8268C70.3436 15.0961 69.1505 14.4006 67.6713 15.2617L17.0925 44.8809C16.4183 45.2982 15.8457 45.8643 15.4172 46.5369L9.0918 42.8439C9.50659 42.1742 10.0653 41.6081 10.7263 41.1878L61.305 11.5687C62.1334 11.1438 63.0489 10.9224 63.9774 10.9224C64.9059 10.9224 65.8213 11.1438 66.6497 11.5687L67.6467 12.1483C68.4281 12.6579 69.0796 13.3472 69.5483 14.1602C70.0169 14.9732 70.2894 15.8868 70.3436 16.8268Z" fill="#641EFF"/>
<path opacity="0.45" d="M70.3436 16.8268C70.3436 15.0961 69.1505 14.4006 67.6713 15.2617L17.0925 44.8809C16.4183 45.2982 15.8457 45.8643 15.4172 46.5369L9.0918 42.8439C9.50659 42.1742 10.0653 41.6081 10.7263 41.1878L61.305 11.5687C62.1334 11.1438 63.0489 10.9224 63.9774 10.9224C64.9059 10.9224 65.8213 11.1438 66.6497 11.5687L67.6467 12.1483C68.4281 12.6579 69.0796 13.3472 69.5483 14.1602C70.0169 14.9732 70.2894 15.8868 70.3436 16.8268Z" fill="white"/>
<path d="M15.8956 76.1152C15.0293 76.1152 14.9395 75.1381 14.9395 74.7158V49.5516C14.9916 48.7056 15.2364 47.8833 15.6547 47.1492C16.073 46.4151 16.6533 45.7891 17.3503 45.3203L67.929 15.7426C68.209 15.5635 68.5299 15.4608 68.8607 15.4445C69.7269 15.4445 69.8168 16.4216 69.8168 16.8439V42.0081C69.7607 42.8579 69.5099 43.6827 69.0843 44.4172C68.6587 45.1517 68.0701 45.7756 67.3651 46.2394L58.4981 51.4395C57.639 51.9986 56.9244 52.7578 56.414 53.6538C55.9036 54.5498 55.6123 55.5565 55.5642 56.5899V66.0379C55.5642 67.5698 54.747 69.3501 53.7336 69.9297C53.2645 70.2058 52.7316 70.3515 52.1891 70.352C51.7397 70.3768 51.2973 70.2322 50.9469 69.9462L43.3629 62.8251C42.8616 62.3921 42.2144 62.1725 41.5568 62.2123C40.5656 62.2425 39.5982 62.5274 38.7455 63.0404L16.7864 75.8336C16.5168 76.0002 16.2109 76.097 15.8956 76.1152Z" fill="#FAFAFA"/>
<path d="M68.8611 15.9747C69.2371 15.9747 69.2943 16.5212 69.2943 16.8027V42.0084C69.2416 42.7604 69.0208 43.4905 68.6484 44.1433C68.276 44.796 67.7619 45.3544 67.1449 45.776L58.2943 50.9761C57.3572 51.5845 56.5778 52.4119 56.0218 53.3888C55.4658 54.3658 55.1493 55.4636 55.0989 56.5902V66.0382C55.1052 66.6922 54.9685 67.3395 54.6986 67.9337C54.4288 68.5278 54.0324 69.054 53.538 69.4746C53.1457 69.6974 52.7046 69.8169 52.2549 69.8223C51.9424 69.8464 51.6319 69.7552 51.3805 69.5656L43.7965 62.4445C43.1961 61.9157 42.4172 61.6427 41.6227 61.6827C40.5405 61.7071 39.4826 62.0121 38.5499 62.5687L16.5907 75.3537C16.3898 75.486 16.1595 75.5657 15.9206 75.5855C15.5447 75.5855 15.4875 75.039 15.4875 74.7575V49.5518C15.5401 48.7998 15.761 48.0697 16.1334 47.4169C16.5058 46.7642 17.0199 46.2058 17.6368 45.7842L68.2155 16.2065C68.4165 16.0742 68.6468 15.9945 68.8857 15.9747M68.8857 14.9148C68.4623 14.9291 68.0504 15.0577 67.6925 15.2874L17.1138 44.8568C16.3362 45.3723 15.6891 46.0658 15.2249 46.8814C14.7607 47.697 14.4923 48.6118 14.4414 49.5518V74.7161C14.4414 75.9416 15.038 76.6454 15.9206 76.6454C16.3427 76.6301 16.7536 76.5046 17.1138 76.2811L39.0729 63.4878C39.8465 63.0238 40.724 62.7673 41.6227 62.7426C42.145 62.7091 42.6609 62.8745 43.0692 63.2063L50.6531 70.3274C51.1053 70.722 51.6921 70.9211 52.2876 70.8822C52.921 70.879 53.5429 70.7107 54.0937 70.3937C55.246 69.7147 56.1858 67.7688 56.1858 66.0382V56.5902C56.2348 55.6497 56.5023 54.7341 56.9667 53.9182C57.4311 53.1024 58.0792 52.4092 58.8582 51.8952L67.668 46.7282C68.4465 46.2137 69.0942 45.5205 69.5586 44.7047C70.0229 43.8889 70.2907 42.9736 70.3403 42.0332V16.8441C70.3403 15.6186 69.7356 14.9148 68.853 14.9148H68.8857Z" fill="#E6E6E6"/>
<path d="M54.5826 35.5078C56.2824 34.5224 57.6636 35.3256 57.6636 37.3129C57.604 38.3935 57.294 39.4446 56.7587 40.3812C56.2234 41.3177 55.4779 42.1133 54.5826 42.7035C52.8909 43.6971 51.5098 42.8939 51.5098 40.9066C51.5685 39.8257 51.8771 38.7739 52.4109 37.836C52.9447 36.8982 53.6886 36.1007 54.5826 35.5078Z" fill="#455A64"/>
<path d="M42.2916 42.6954C43.9914 41.7017 45.3644 42.5049 45.3644 44.4922C45.3076 45.5736 44.9997 46.6262 44.4658 47.5643C43.9318 48.5025 43.1869 49.2996 42.2916 49.8911C40.5917 50.8764 39.2188 50.0732 39.2188 48.0859C39.2768 47.0059 39.5852 45.955 40.1191 45.0184C40.653 44.0819 41.3973 43.286 42.2916 42.6954Z" fill="#455A64"/>
<path d="M29.9947 49.8745C31.6945 48.8808 33.0675 49.6923 33.0675 51.6796C33.0095 52.7596 32.701 53.8105 32.1671 54.7471C31.6332 55.6837 30.889 56.4796 29.9947 57.0702C28.303 58.0638 26.9219 57.2606 26.9219 55.2733C26.9806 54.1924 27.2893 53.1405 27.823 52.2027C28.3568 51.2649 29.1007 50.4673 29.9947 49.8745Z" fill="#455A64"/>
</svg>
