<svg width="508" height="428" viewBox="0 0 508 428" fill="none" xmlns="http://www.w3.org/2000/svg">
<g filter="url(#filter0_d_923_3682)">
<path d="M81.3812 176.554C-13.7988 231.554 -13.7887 320.554 81.3812 375.554C176.551 430.554 330.871 430.554 426.051 375.554C521.231 320.554 521.221 231.554 426.051 176.554C330.881 121.554 176.561 121.604 81.3812 176.554Z" fill="#FAFAFA"/>
</g>
<path d="M88.0996 288.952L174.05 337.492L306.05 261.742L220.1 213.202L88.0996 288.952Z" fill="#641EFF"/>
<path opacity="0.6" d="M88.0996 288.952L174.05 337.492L306.05 261.742L220.1 213.202L88.0996 288.952Z" fill="black"/>
<path d="M175 333.942L92.0003 286.752C94.0603 280.902 93.9003 279.122 91.5703 271.322L174.12 318.032C174.12 318.032 175.55 317.922 175 333.942Z" fill="#F5F5F5"/>
<path d="M169.999 311.632C172.205 313.059 174.042 314.986 175.361 317.257C176.68 319.529 177.443 322.08 177.589 324.702V334.902C177.589 339.722 174.189 341.672 169.999 339.262L88.1094 292.732V288.952L168.999 334.602C171.519 336.052 173.549 334.882 173.549 331.992L173.479 322.902C173.391 321.328 172.932 319.798 172.139 318.435C171.347 317.073 170.244 315.917 168.919 315.062L88.1094 269.392V265.102L169.999 311.632Z" fill="#641EFF"/>
<path opacity="0.5" d="M169.999 311.632C172.205 313.059 174.042 314.986 175.361 317.257C176.68 319.529 177.443 322.08 177.589 324.702V334.902C177.589 339.722 174.189 341.672 169.999 339.262L88.1094 292.732V288.952L168.999 334.602C171.519 336.052 173.549 334.882 173.549 331.992L173.479 322.902C173.391 321.328 172.932 319.798 172.139 318.435C171.347 317.073 170.244 315.917 168.919 315.062L88.1094 269.392V265.102L169.999 311.632Z" fill="black"/>
<path d="M88.1094 265.112L220.099 189.322L301.999 235.892C304.205 237.318 306.043 239.245 307.362 241.517C308.681 243.788 309.444 246.339 309.589 248.962V259.172C309.589 261.562 308.749 263.252 307.369 264.042L175.369 339.792C176.749 339.002 177.589 337.312 177.599 334.912V324.692C177.451 322.07 176.686 319.521 175.365 317.251C174.044 314.981 172.206 313.056 169.999 311.632L88.1094 265.112Z" fill="#641EFF"/>
<path opacity="0.35" d="M88.1094 265.112L220.099 189.322L301.999 235.892C304.205 237.318 306.043 239.245 307.362 241.517C308.681 243.788 309.444 246.339 309.589 248.962V259.172C309.589 261.562 308.749 263.252 307.369 264.042L175.369 339.792C176.749 339.002 177.589 337.312 177.599 334.912V324.692C177.451 322.07 176.686 319.521 175.365 317.251C174.044 314.981 172.206 313.056 169.999 311.632L88.1094 265.112Z" fill="black"/>
<path d="M175.399 317.262C176.762 319.508 177.526 322.066 177.619 324.692V334.912C177.619 337.312 176.769 339.002 175.389 339.792L307.389 264.042C308.769 263.252 309.609 261.562 309.609 259.172V248.962C309.516 246.333 308.752 243.772 307.389 241.522L175.399 317.262Z" fill="#641EFF"/>
<path opacity="0.45" d="M175.399 317.262C176.762 319.508 177.526 322.066 177.619 324.692V334.912C177.619 337.312 176.769 339.002 175.389 339.792L307.389 264.042C308.769 263.252 309.609 261.562 309.609 259.172V248.962C309.516 246.333 308.752 243.772 307.389 241.522L175.399 317.262Z" fill="black"/>
<path d="M289.55 251.652C292 262.322 292 266.502 289.55 274.322L283.27 277.952C285.69 270.112 285.72 265.952 283.27 255.252L289.55 251.652Z" fill="#641EFF"/>
<path d="M202.999 301.392C205.459 312.082 205.429 316.122 202.999 323.952L196.719 327.582C199.139 319.742 199.179 315.702 196.719 305.022L202.999 301.392Z" fill="#641EFF"/>
<path d="M70.7598 263.832L156.71 312.372L288.71 236.632L202.76 188.092L70.7598 263.832Z" fill="#641EFF"/>
<path opacity="0.2" d="M70.7598 263.832L156.71 312.372L288.71 236.632L202.76 188.092L70.7598 263.832Z" fill="black"/>
<path d="M157.65 308.822L74.5901 261.642C76.6501 255.782 76.5002 253.162 74.1602 245.372L156.71 292.072C156.71 292.072 158.21 292.812 157.65 308.822Z" fill="#F5F5F5"/>
<path d="M152.68 285.682C154.885 287.106 156.723 289.031 158.042 291.301C159.361 293.571 160.124 296.121 160.27 298.742V309.792C160.27 314.602 156.87 316.552 152.68 314.152L70.7695 267.622V263.842L151.65 309.492C154.16 310.932 156.2 309.762 156.19 306.882L156.12 296.942C156.031 295.368 155.572 293.838 154.779 292.475C153.987 291.113 152.884 289.957 151.56 289.102L70.7695 243.432V239.142L152.68 285.682Z" fill="#641EFF"/>
<path d="M70.7695 239.152L202.77 163.412L284.67 209.932C286.875 211.359 288.712 213.286 290.031 215.557C291.35 217.829 292.114 220.38 292.26 223.002V234.052C292.26 236.452 291.41 238.142 290.03 238.932L158 314.682C159.38 313.882 160.22 312.192 160.23 309.802V298.742C160.084 296.119 159.321 293.568 158.002 291.297C156.683 289.025 154.845 287.098 152.64 285.672L70.7695 239.152Z" fill="#641EFF"/>
<path opacity="0.6" d="M70.7695 239.152L202.77 163.412L284.67 209.932C286.875 211.359 288.712 213.286 290.031 215.557C291.35 217.829 292.114 220.38 292.26 223.002V234.052C292.26 236.452 291.41 238.142 290.03 238.932L158 314.682C159.38 313.882 160.22 312.192 160.23 309.802V298.742C160.084 296.119 159.321 293.568 158.002 291.297C156.683 289.025 154.845 287.098 152.64 285.672L70.7695 239.152Z" fill="white"/>
<path d="M158.059 291.322C159.422 293.572 160.186 296.133 160.279 298.762V309.822C160.279 312.212 159.429 313.902 158.049 314.702L290.049 238.952C291.429 238.162 292.269 236.472 292.279 234.072V223.002C292.186 220.373 291.422 217.812 290.059 215.562L158.059 291.322Z" fill="#641EFF"/>
<path opacity="0.4" d="M158.059 291.322C159.422 293.572 160.186 296.133 160.279 298.762V309.822C160.279 312.212 159.429 313.902 158.049 314.702L290.049 238.952C291.429 238.162 292.269 236.472 292.279 234.072V223.002C292.186 220.373 291.422 217.812 290.059 215.562L158.059 291.322Z" fill="white"/>
<path d="M272.21 225.692C274.67 236.372 274.63 241.392 272.21 249.222L265.93 252.852C268.35 245.022 268.39 240.002 265.93 229.322L272.21 225.692Z" fill="#641EFF"/>
<path d="M185.63 275.502C188.09 286.182 188.06 291.022 185.63 298.862L179.34 302.482C181.77 294.652 181.8 289.782 179.34 279.102L185.63 275.502Z" fill="#641EFF"/>
<path d="M340.73 133.782L316 148.052V134.572L340.73 120.292L347.98 122.852L340.73 133.782Z" fill="#641EFF"/>
<path opacity="0.3" d="M340.73 133.782L316 148.052V134.572L340.73 120.292L347.98 122.852L340.73 133.782Z" fill="black"/>
<path d="M343.599 111.562L318.869 125.832V112.352L343.599 98.0724L350.839 100.632L343.599 111.562Z" fill="#641EFF"/>
<path d="M343.599 223.822L318.869 238.092V224.612L343.599 210.332L350.839 212.892L343.599 223.822Z" fill="#455A64"/>
<path opacity="0.1" d="M191.68 241.062L193.07 134.022L253.32 97.2324L191.81 133.292L191.68 241.062Z" fill="black"/>
<path opacity="0.1" d="M188.839 278.372L188.929 131.632L314.639 60.3925L187.619 130.872L188.839 278.372Z" fill="black"/>
<path opacity="0.1" d="M328.46 56.6124C328.72 57.1324 328.85 57.4324 328.85 57.4324L290.77 79.4324L321 51.6324C324.83 52.3924 327.19 54.1424 328.46 56.6124Z" fill="black"/>
<path d="M290.77 79.4124L328.85 57.4324L329.08 51.3524L290.77 79.4124Z" fill="#FAFAFA"/>
<path opacity="0.1" d="M192.36 329.802C192.94 329.802 193.27 329.742 193.27 329.742V285.742L184.27 325.802C186.89 328.772 189.59 329.952 192.36 329.802Z" fill="black"/>
<path d="M193.269 285.772V329.742L188.119 332.982L193.269 285.772Z" fill="#FAFAFA"/>
<path d="M335.65 274.352L196.51 354.682V136.002L335.65 55.6724V274.352Z" fill="#FAFAFA"/>
<path d="M196.51 136.002V354.682L184.92 347.982V129.312L196.51 136.002Z" fill="#E0E0E0"/>
<g opacity="0.05">
<path d="M196.51 136.002V354.682L184.92 347.982V129.312L196.51 136.002Z" fill="black"/>
</g>
<path d="M324.06 48.9824L184.92 129.312L196.51 136.002L335.65 55.6724L324.06 48.9824Z" fill="#E6E6E6"/>
<path d="M335.65 274.352L196.51 354.682V136.002L335.65 55.6724V274.352Z" fill="#FAFAFA"/>
<path d="M261.549 117.362L205.139 149.922V141.672L261.549 109.102V117.362Z" fill="#E0E0E0"/>
<path d="M261.549 125.652L205.139 158.222V155.182L261.549 122.612V125.652Z" fill="#E0E0E0"/>
<path d="M261.549 131.552L205.139 164.112V161.072L261.549 128.512V131.552Z" fill="#E0E0E0"/>
<path d="M261.549 137.442L205.139 170.012V166.972L261.549 134.402V137.442Z" fill="#E0E0E0"/>
<path d="M261.549 143.342L205.139 175.912V172.872L261.549 140.302V143.342Z" fill="#E0E0E0"/>
<path d="M261.549 149.242L205.139 181.812V178.762L261.549 146.202V149.242Z" fill="#E0E0E0"/>
<path d="M261.549 155.132L205.139 187.702V184.662L261.549 152.092V155.132Z" fill="#E0E0E0"/>
<path d="M261.549 161.032L205.139 193.602V190.562L261.549 157.992V161.032Z" fill="#E0E0E0"/>
<path d="M261.549 166.932L205.139 199.502V196.452L261.549 163.882V166.932Z" fill="#E0E0E0"/>
<path d="M261.549 172.822L205.139 205.392V202.352L261.549 169.782V172.822Z" fill="#E0E0E0"/>
<path d="M261.549 178.722L205.139 211.292V208.252L261.549 175.682V178.722Z" fill="#E0E0E0"/>
<path d="M261.549 184.623L205.139 217.193V214.143L261.549 181.573V184.623Z" fill="#E0E0E0"/>
<path d="M327.019 87.8524L270.619 120.412V117.372L327.019 84.8124V87.8524Z" fill="#E0E0E0"/>
<path d="M327.02 74.3424L297.41 91.4424V88.4024L327.02 71.3024V74.3424Z" fill="#E0E0E0"/>
<path d="M327.019 93.7424L270.619 126.312V123.272L327.019 90.7024V93.7424Z" fill="#E0E0E0"/>
<path d="M327.019 99.6424L270.619 132.212V129.172L327.019 96.6024V99.6424Z" fill="#E0E0E0"/>
<path d="M327.019 105.542L270.619 138.102V135.062L327.019 102.502V105.542Z" fill="#E0E0E0"/>
<path d="M327.019 111.432L270.619 144.002V140.962L327.019 108.392V111.432Z" fill="#E0E0E0"/>
<path d="M327.019 117.332L270.619 149.902V146.862L327.019 114.292V117.332Z" fill="#E0E0E0"/>
<path d="M327.019 123.232L270.619 155.792V152.752L327.019 120.192V123.232Z" fill="#E0E0E0"/>
<path d="M327.019 129.122L270.619 161.692V158.652L327.019 126.082V129.122Z" fill="#E0E0E0"/>
<path d="M327.019 135.022L270.619 167.592V164.552L327.019 131.982V135.022Z" fill="#E0E0E0"/>
<path d="M327.019 140.922L270.619 173.482V170.442L327.019 137.882V140.922Z" fill="#E0E0E0"/>
<path d="M327.019 146.812L270.619 179.382V176.342L327.019 143.772V146.812Z" fill="#E0E0E0"/>
<path d="M327.019 154.732L270.619 187.302V184.262L327.019 151.692V154.732Z" fill="#E0E0E0"/>
<path d="M327.019 160.632L270.619 193.202V190.152L327.019 157.582V160.632Z" fill="#E0E0E0"/>
<path d="M327.019 166.522L270.619 199.092V196.052L327.019 163.482V166.522Z" fill="#E0E0E0"/>
<path d="M327.019 172.422L270.619 204.992V201.952L327.019 169.382V172.422Z" fill="#E0E0E0"/>
<path d="M327.019 178.322L270.619 210.882V207.842L327.019 175.282V178.322Z" fill="#E0E0E0"/>
<path d="M327.019 184.212L270.619 216.782V213.742L327.019 181.172V184.212Z" fill="#E0E0E0"/>
<path d="M327.019 190.113L270.619 222.682V219.643L327.019 187.073V190.113Z" fill="#E0E0E0"/>
<path d="M327.019 196.012L270.619 228.572V225.532L327.019 192.972V196.012Z" fill="#E0E0E0"/>
<path d="M327.019 201.902L270.619 234.472V231.432L327.019 198.862V201.902Z" fill="#E0E0E0"/>
<path d="M327.019 207.802L270.619 240.372V237.332L327.019 204.762V207.802Z" fill="#E0E0E0"/>
<path d="M261.549 253.643L205.139 286.213V283.173L261.549 250.603V253.643Z" fill="#E0E0E0"/>
<path d="M261.549 259.542L205.139 292.112V289.062L261.549 256.502V259.542Z" fill="#E0E0E0"/>
<path d="M261.549 265.432L205.139 298.002V294.962L261.549 262.392V265.432Z" fill="#E0E0E0"/>
<path d="M261.549 271.332L205.139 303.902V300.862L261.549 268.292V271.332Z" fill="#E0E0E0"/>
<path d="M261.549 277.232L205.139 309.802V306.752L261.549 274.192V277.232Z" fill="#E0E0E0"/>
<path d="M261.549 283.122L205.139 315.693V312.652L261.549 280.083V283.122Z" fill="#E0E0E0"/>
<path d="M261.549 289.022L205.139 321.592V318.552L261.549 285.982V289.022Z" fill="#E0E0E0"/>
<path d="M261.549 294.922L205.139 327.492V324.442L261.549 291.882V294.922Z" fill="#E0E0E0"/>
<path d="M261.549 300.812L205.139 333.382V330.342L261.549 297.772V300.812Z" fill="#E0E0E0"/>
<path d="M261.549 306.712L205.139 339.282V336.242L261.549 303.672V306.712Z" fill="#E0E0E0"/>
<path d="M257.999 247.383L208.639 275.883C206.699 277.003 205.119 275.813 205.119 273.223V227.143C205.14 225.822 205.469 224.526 206.08 223.355C206.691 222.185 207.568 221.174 208.639 220.403L257.999 191.903C259.949 190.783 261.529 191.973 261.529 194.573V240.653C261.549 243.243 259.999 246.263 257.999 247.383Z" fill="#E0E0E0"/>
<path d="M209.52 268.762V247.802L223.26 224.412L242.06 234.602L237.08 229.632L245.3 219.732L257.16 222.872V241.262L209.52 268.762Z" fill="#FAFAFA"/>
<path d="M246.069 210.442C246.053 211.461 245.798 212.462 245.326 213.365C244.854 214.268 244.177 215.048 243.349 215.642C241.839 216.512 240.629 215.592 240.629 213.582C240.644 212.563 240.897 211.562 241.37 210.658C241.842 209.755 242.52 208.976 243.349 208.382C244.849 207.522 246.069 208.442 246.069 210.442Z" fill="#FAFAFA"/>
<path d="M323.499 270.822L274.139 299.322C272.189 300.452 270.619 299.252 270.619 296.662V250.582C270.619 247.982 272.189 244.972 274.139 243.842L323.499 215.322C325.449 214.192 327.019 215.392 327.019 217.982V264.062C326.999 266.692 325.449 269.702 323.499 270.822Z" fill="#E0E0E0"/>
<path d="M275 292.212V271.242L288.74 247.852L307.54 258.052L302.55 253.072L310.78 243.172L322.64 246.322V264.702L275 292.212Z" fill="#FAFAFA"/>
<path d="M310.984 236.371C311.888 234.247 311.648 232.111 310.449 231.601C309.249 231.091 307.544 232.399 306.641 234.523C305.737 236.647 305.976 238.783 307.176 239.293C308.375 239.804 310.08 238.495 310.984 236.371Z" fill="#FAFAFA"/>
<path opacity="0.3" d="M327.019 130.402L270.619 162.972V157.372L327.019 124.812V130.402Z" fill="#641EFF"/>
<path opacity="0.3" d="M261.549 278.502L205.139 311.072V305.482L261.549 272.912V278.502Z" fill="#641EFF"/>
<path opacity="0.3" d="M304.489 180.812L270.619 200.372V194.772L304.489 175.222V180.812Z" fill="#641EFF"/>
<path d="M335.65 55.6724L265.97 95.6324L196.51 136.002L266.22 96.0624L335.11 56.6424L335.19 274.102L196.51 354.682L335.65 274.352V55.6724Z" fill="#E0E0E0"/>
<path opacity="0.05" d="M335.65 55.6724L265.97 95.6324L196.51 136.002L266.22 96.0624L335.11 56.6424L335.19 274.102L196.51 354.682L335.65 274.352V55.6724Z" fill="black"/>
<path d="M212.489 109.322L211.139 110.102L209.619 102.492C209.569 100.862 210.749 98.9825 211.889 97.1525C213.029 95.3225 213.969 93.8325 213.939 92.6225C213.829 89.1725 209.819 88.8725 206.289 90.9125C202.759 92.9525 198.889 97.8025 198.989 101.242C198.989 102.472 200.089 102.872 201.209 103.322C202.329 103.772 203.659 104.272 203.709 105.912V105.982L203.059 114.802L201.759 115.552L202.419 106.612C202.359 105.692 201.419 105.312 200.419 104.932C199.169 104.452 197.759 103.932 197.699 102.002C197.839 99.4265 198.779 96.9584 200.389 94.9425C201.952 92.7229 203.953 90.8476 206.269 89.4325C208.044 88.2797 210.172 87.8008 212.269 88.0825C213.15 88.2337 213.944 88.7056 214.498 89.4072C215.052 90.1088 215.327 90.9905 215.269 91.8825C215.329 93.7525 213.989 95.8825 212.809 97.7925C211.809 99.3125 210.949 100.792 210.959 101.712L212.489 109.322Z" fill="#641EFF"/>
<path d="M195.649 123.112L222.229 107.762L219.999 105.002L196.419 118.612C196.105 118.781 195.845 119.034 195.668 119.344C195.491 119.653 195.405 120.006 195.419 120.362L195.649 123.112Z" fill="#263238"/>
<path d="M207.89 143.323L208.89 127.803C208.901 127.548 208.843 127.295 208.721 127.072C208.6 126.848 208.419 126.661 208.2 126.533L196.58 119.823C196.468 119.76 196.341 119.729 196.213 119.732C196.085 119.734 195.96 119.771 195.851 119.839C195.742 119.906 195.653 120.001 195.593 120.114C195.533 120.227 195.504 120.355 195.51 120.483L195.64 123.083L195.5 120.333C195.485 119.976 195.572 119.623 195.748 119.314C195.925 119.005 196.186 118.751 196.5 118.583L222.57 103.583C222.677 103.519 222.8 103.486 222.925 103.486C223.049 103.486 223.172 103.519 223.28 103.583L235.68 110.743C235.897 110.87 236.076 111.055 236.196 111.277C236.316 111.5 236.372 111.75 236.36 112.003L235.36 127.523L207.89 143.323Z" fill="#455A64"/>
<path d="M235.469 111.662L209.879 126.442C209.589 126.609 209.346 126.845 209.171 127.13C208.997 127.415 208.896 127.739 208.879 128.072L207.879 143.352L215.879 138.752V139.752C215.879 139.752 216.199 141.692 217.169 141.132L217.849 140.732L225.009 136.602L225.689 136.212C226.689 135.652 227.179 133.212 227.179 133.212L227.229 132.212L235.409 127.482L236.409 112.162C236.429 112.046 236.412 111.926 236.36 111.82C236.309 111.714 236.225 111.627 236.12 111.571C236.016 111.516 235.897 111.495 235.78 111.511C235.663 111.528 235.554 111.58 235.469 111.662Z" fill="#37474F"/>
<path d="M230.79 131.833L228.53 133.133C227.41 133.783 226.47 133.363 226.82 131.733L230.27 111.863C230.71 109.933 232.27 107.863 233.73 105.813C235.19 103.763 236.44 102.123 236.73 100.693C237.67 96.6225 234.43 95.8625 230.9 97.9025C227.37 99.9425 222.72 105.253 221.79 109.323C221.46 110.753 222.22 111.323 223.03 111.973C223.599 112.284 224.041 112.784 224.281 113.386C224.52 113.989 224.541 114.656 224.34 115.273V115.363L216.34 137.813C215.85 139.491 214.789 140.945 213.34 141.923L211.08 143.223L211.48 141.483L213.74 140.173C214.344 139.782 214.795 139.196 215.02 138.513V138.433L223.36 114.943C223.6 113.833 222.91 113.303 222.19 112.743C221.563 112.382 221.082 111.815 220.828 111.138C220.574 110.46 220.564 109.716 220.8 109.033C221.36 106.623 222.52 104.813 224.74 102.033C226.371 99.8524 228.408 98.0085 230.74 96.6025C231.545 96.0668 232.462 95.7233 233.421 95.5985C234.38 95.4736 235.355 95.5708 236.27 95.8825C237.7 96.5425 238.43 97.8825 237.88 100.323C237.36 102.553 235.73 104.533 234.2 106.623C233.074 107.949 232.163 109.444 231.5 111.053L228.06 130.923C227.92 131.533 228.36 131.663 228.85 131.383L231.11 130.083L230.79 131.833Z" fill="#641EFF"/>
<path d="M215.12 141.723C215.095 141.24 214.956 140.769 214.715 140.35C214.473 139.931 214.136 139.576 213.73 139.313C213.587 139.209 213.419 139.145 213.244 139.128C213.068 139.11 212.891 139.139 212.73 139.213L207.58 142.213L209.58 145.643L214.77 142.643C214.903 142.532 215.005 142.39 215.066 142.229C215.127 142.067 215.146 141.893 215.12 141.723Z" fill="#455A64"/>
<path d="M208.55 145.512C209.32 145.962 209.95 145.602 209.95 144.712C209.924 144.227 209.783 143.756 209.54 143.335C209.297 142.915 208.958 142.557 208.55 142.292C207.78 141.842 207.15 142.202 207.15 143.092C207.177 143.578 207.318 144.049 207.561 144.47C207.804 144.89 208.143 145.248 208.55 145.512Z" fill="#263238"/>
<path d="M208.65 144.383C208.695 144.422 208.75 144.447 208.809 144.453C208.868 144.458 208.928 144.445 208.979 144.415C209.03 144.385 209.07 144.34 209.094 144.285C209.118 144.231 209.123 144.17 209.11 144.113C209.104 143.952 209.058 143.796 208.978 143.656C208.898 143.517 208.786 143.399 208.65 143.313C208.606 143.273 208.551 143.248 208.492 143.242C208.432 143.237 208.373 143.25 208.322 143.28C208.271 143.31 208.23 143.355 208.207 143.41C208.183 143.464 208.177 143.525 208.19 143.583C208.197 143.743 208.243 143.9 208.323 144.039C208.403 144.178 208.515 144.296 208.65 144.383Z" fill="#E0E0E0"/>
<path d="M236.7 129.322C236.675 128.838 236.537 128.367 236.295 127.946C236.053 127.525 235.716 127.168 235.31 126.902C235.167 126.799 234.999 126.735 234.824 126.718C234.648 126.7 234.471 126.729 234.31 126.802L229.16 129.802L231.16 133.222L236.35 130.222C236.48 130.114 236.58 129.975 236.641 129.818C236.702 129.66 236.723 129.49 236.7 129.322Z" fill="#455A64"/>
<path d="M230.129 133.062C230.899 133.512 231.529 133.152 231.529 132.262C231.501 131.778 231.36 131.306 231.117 130.886C230.874 130.465 230.535 130.108 230.129 129.842C229.359 129.392 228.729 129.762 228.729 130.652C228.755 131.136 228.896 131.607 229.139 132.025C229.383 132.444 229.722 132.8 230.129 133.062Z" fill="#263238"/>
<path d="M229.8 132.163C230.06 132.313 230.26 132.163 230.26 131.903C230.253 131.742 230.208 131.586 230.128 131.446C230.048 131.307 229.935 131.189 229.8 131.103C229.55 130.953 229.34 131.103 229.34 131.373C229.348 131.531 229.394 131.686 229.474 131.823C229.554 131.961 229.666 132.077 229.8 132.163Z" fill="#E0E0E0"/>
<path d="M229.899 130.843L229.289 131.193C229.093 131.321 228.864 131.391 228.629 131.393L228.799 132.943C229.017 132.85 229.228 132.739 229.429 132.613L230.069 132.243L230.569 131.953L229.899 130.843Z" fill="#641EFF"/>
<path d="M226.449 135.093C226.462 135.261 226.432 135.43 226.363 135.584C226.293 135.738 226.185 135.872 226.049 135.973L218.619 140.263C218.958 139.945 219.171 139.515 219.219 139.053C219.263 138.617 219.263 138.178 219.219 137.743C219.198 137.456 219.261 137.169 219.399 136.917C219.538 136.665 219.746 136.459 219.999 136.323L224.739 133.593C224.898 133.506 225.081 133.472 225.26 133.496C225.44 133.519 225.607 133.598 225.739 133.723C225.942 133.892 226.11 134.101 226.232 134.336C226.353 134.571 226.427 134.829 226.449 135.093Z" fill="#455A64"/>
<path opacity="0.15" d="M169.15 222.202V271.862L210.29 248.102V198.452L169.15 222.202Z" fill="black"/>
<path d="M220.571 245.322C220.571 245.322 218.571 248.722 211.391 252.872L175.151 273.792L170.811 230.622L211.941 206.872L214.651 236.272C215.001 240.372 216.601 244.702 220.571 245.322Z" fill="#455A64"/>
<path d="M211.941 206.892L170.811 230.642V223.022L211.941 199.272V206.892Z" fill="#37474F"/>
<path d="M207.721 226.962C207.141 227.572 206.041 228.352 205.321 227.492V227.442C205.827 226.584 205.995 225.567 205.791 224.592C205.731 224.362 205.321 223.922 205.061 224.192C204.688 224.572 204.424 225.046 204.299 225.564C204.174 226.082 204.192 226.624 204.351 227.132C203.917 227.825 203.389 228.455 202.781 229.002C202.272 229.553 201.585 229.907 200.841 230.002C199.931 230.002 200.041 228.562 200.061 227.932C200.061 227.652 199.491 227.042 199.291 227.472C198.761 228.54 198.113 229.546 197.361 230.472C196.962 231.034 196.506 231.553 196.001 232.022C195.847 232.165 195.671 232.283 195.481 232.372C195.477 232.299 195.477 232.225 195.481 232.152C195.481 231.782 194.911 231.272 194.681 231.782C194.221 232.782 193.471 235.182 192.161 235.462C191.751 235.542 191.421 235.212 191.001 235.212C190.68 235.22 190.375 235.353 190.151 235.582C189.67 236.163 189.242 236.785 188.871 237.442C188.711 237.672 188.401 238.202 188.101 238.292C187.801 238.382 187.661 237.642 187.601 237.292C187.541 236.942 187.221 236.682 186.941 236.872C186.385 237.291 185.964 237.865 185.731 238.522C185.562 238.178 185.46 237.805 185.431 237.422C185.431 237.172 184.961 236.722 184.741 237.052C184.034 238.121 183.201 239.101 182.261 239.972C181.641 240.552 179.861 242.232 178.991 241.272C178.668 240.873 178.51 240.364 178.551 239.852C179.374 239.333 180.06 238.623 180.551 237.782C181.48 236.361 182.06 234.74 182.241 233.052C182.241 232.862 182.081 232.592 181.881 232.592C180.691 232.592 179.881 234.232 179.401 235.122C178.616 236.467 178.113 237.957 177.921 239.502C177.921 239.552 177.921 239.592 177.921 239.642C177.537 239.796 177.12 239.844 176.711 239.782C176.531 239.782 176.531 240.152 176.711 240.192C177.124 240.268 177.548 240.248 177.951 240.132C177.959 240.574 178.086 241.006 178.318 241.383C178.551 241.759 178.88 242.066 179.271 242.272C180.381 242.692 181.611 241.722 182.401 241.052C183.342 240.253 184.191 239.35 184.931 238.362C185.076 238.832 185.342 239.256 185.701 239.592C185.871 239.752 186.171 239.822 186.271 239.592C186.442 239.057 186.706 238.556 187.051 238.112C187.271 238.792 187.671 239.472 188.421 239.252C189.171 239.032 189.851 237.732 190.301 237.042C190.531 236.692 190.791 236.122 191.301 236.142C191.811 236.162 192.131 236.562 192.761 236.292C193.971 235.782 194.611 234.362 195.141 233.122C195.264 233.237 195.423 233.308 195.591 233.322C196.191 233.402 196.751 232.782 197.121 232.392C198.008 231.48 198.793 230.474 199.461 229.392C199.514 229.671 199.622 229.936 199.78 230.172C199.938 230.407 200.143 230.608 200.381 230.762C200.786 230.933 201.23 230.986 201.664 230.916C202.097 230.845 202.502 230.653 202.831 230.362C203.695 229.775 204.438 229.028 205.021 228.162C206.111 229.372 207.581 228.752 208.531 227.662C208.681 227.322 208.071 226.602 207.721 226.962ZM179.311 236.862C179.612 236.115 179.977 235.396 180.401 234.712C180.659 234.22 181.029 233.795 181.481 233.472C181.249 234.826 180.775 236.127 180.081 237.312C179.69 238.047 179.16 238.699 178.521 239.232C178.704 238.417 178.969 237.623 179.311 236.862Z" fill="#FAFAFA"/>
<path d="M209.801 247.002C205.851 249.047 201.448 250.062 197.001 249.952C192.671 249.952 187.681 249.342 184.261 246.472C184.061 246.302 184.031 245.682 184.421 245.862C188.359 247.753 192.683 248.701 197.051 248.632C200.673 248.658 204.263 247.961 207.611 246.582L206.761 246.462C206.033 246.34 205.315 246.166 204.611 245.942C204.295 245.845 203.985 245.732 203.681 245.602C203.321 245.438 202.985 245.226 202.681 244.972C202.612 244.922 202.56 244.853 202.531 244.772C202.502 244.692 202.499 244.605 202.521 244.522C202.601 244.322 202.731 244.452 202.871 244.432C203.243 244.43 203.612 244.495 203.961 244.622C204.271 244.712 204.591 244.782 204.911 244.842C205.581 244.982 206.251 245.102 206.911 245.202C208.291 245.392 209.681 245.472 211.071 245.562C211.551 245.562 211.741 246.232 211.541 246.612C210.834 247.877 209.886 248.991 208.751 249.892C208.221 250.332 207.671 250.742 207.111 251.142C206.581 251.554 206.023 251.928 205.441 252.262C204.821 252.582 204.571 251.462 204.941 251.112C205.861 250.242 207.021 249.612 208.011 248.822C208.757 248.239 209.428 247.568 210.011 246.822H210.001C209.946 246.894 209.878 246.955 209.801 247.002Z" fill="#FAFAFA"/>
<path d="M321.849 186.052L321.609 185.642L333.199 178.962L346.699 158.922L347.099 159.192L333.489 179.342L321.849 186.052Z" fill="#263238"/>
<path d="M322.79 185.852C322.788 186.061 322.724 186.265 322.606 186.438C322.489 186.611 322.322 186.746 322.129 186.824C321.935 186.903 321.722 186.923 321.517 186.881C321.312 186.839 321.124 186.737 320.977 186.588C320.83 186.44 320.73 186.251 320.69 186.045C320.649 185.84 320.671 185.627 320.752 185.434C320.832 185.241 320.968 185.076 321.142 184.96C321.316 184.844 321.521 184.782 321.73 184.782C321.87 184.782 322.009 184.81 322.138 184.864C322.267 184.918 322.384 184.997 322.483 185.096C322.582 185.196 322.659 185.314 322.712 185.443C322.765 185.573 322.791 185.712 322.79 185.852Z" fill="#263238"/>
<path d="M383.61 125.952V158.322C383.579 158.895 383.413 159.453 383.127 159.949C382.84 160.446 382.44 160.869 381.96 161.182L345.08 182.492C344.914 182.593 344.724 182.648 344.53 182.652C344.46 182.662 344.389 182.662 344.32 182.652H344.18L344.03 182.582C343.845 182.432 343.698 182.24 343.6 182.022C343.485 181.761 343.427 181.478 343.43 181.192V149.192C343.461 148.621 343.626 148.065 343.913 147.569C344.2 147.074 344.6 146.654 345.08 146.342L382 125.002C382.16 124.891 382.344 124.821 382.538 124.796C382.731 124.772 382.927 124.795 383.11 124.862L383.25 124.942C383.296 124.968 383.334 125.006 383.36 125.052C383.36 125.052 383.36 125.052 383.41 125.112C383.432 125.135 383.449 125.162 383.46 125.192C383.505 125.256 383.539 125.327 383.56 125.402C383.564 125.452 383.564 125.502 383.56 125.552C383.569 125.602 383.569 125.653 383.56 125.702C383.584 125.784 383.6 125.868 383.61 125.952Z" fill="#FAFAFA"/>
<path d="M382.7 125.322C382.739 125.311 382.781 125.311 382.82 125.322V125.382L382.88 125.552V125.612C382.88 125.662 382.88 125.712 382.88 125.772V158.322C382.854 158.793 382.717 159.252 382.481 159.66C382.245 160.068 381.915 160.415 381.52 160.672L344.64 181.982C344.561 182.031 344.472 182.058 344.38 182.062H344.29H344.22C344.132 181.967 344.058 181.859 344 181.742C343.928 181.561 343.89 181.367 343.89 181.172V149.172C343.925 148.703 344.065 148.248 344.301 147.842C344.536 147.435 344.861 147.086 345.25 146.822L382.13 125.542C382.266 125.457 382.42 125.405 382.58 125.392M382.58 124.812C382.321 124.821 382.07 124.896 381.85 125.032L345.08 146.322C344.6 146.634 344.2 147.054 343.913 147.549C343.626 148.045 343.461 148.601 343.43 149.172V181.172C343.427 181.458 343.485 181.741 343.6 182.002C343.698 182.22 343.845 182.412 344.03 182.562L344.18 182.632H344.32C344.389 182.642 344.46 182.642 344.53 182.632C344.717 182.623 344.899 182.568 345.06 182.472L382 161.202C382.478 160.887 382.875 160.464 383.16 159.967C383.445 159.471 383.609 158.914 383.64 158.342V125.952C383.645 125.882 383.645 125.812 383.64 125.742C383.649 125.693 383.649 125.642 383.64 125.592C383.644 125.542 383.644 125.492 383.64 125.442C383.619 125.367 383.585 125.296 383.54 125.232C383.529 125.202 383.512 125.175 383.49 125.152C383.49 125.152 383.49 125.102 383.44 125.092C383.414 125.046 383.376 125.008 383.33 124.982L383.19 124.902C383.075 124.845 382.948 124.818 382.82 124.822L382.58 124.812Z" fill="#E0E0E0"/>
<path d="M383.068 124.862C382.886 124.795 382.689 124.772 382.496 124.796C382.303 124.821 382.118 124.891 381.958 125.002L345.078 146.322C344.598 146.634 344.198 147.054 343.912 147.549C343.625 148.045 343.459 148.601 343.428 149.172V154.552L342.068 153.742V148.402C342.099 147.832 342.263 147.277 342.548 146.782C342.833 146.286 343.231 145.865 343.708 145.552L380.608 124.272C380.777 124.145 380.978 124.068 381.189 124.05C381.399 124.033 381.611 124.075 381.798 124.172L383.068 124.862Z" fill="#37474F"/>
<path d="M383.61 125.942C383.61 124.942 382.87 124.482 381.96 125.002L345.07 146.322C344.592 146.636 344.195 147.057 343.911 147.552C343.626 148.047 343.461 148.602 343.43 149.172V154.552L383.61 131.322V125.942Z" fill="#455A64"/>
<path d="M342.068 153.722V148.372C342.09 147.788 342.262 147.22 342.568 146.722L343.918 147.502C343.618 147.998 343.45 148.563 343.428 149.142V154.522L342.068 153.722Z" fill="#263238"/>
<path d="M374.269 131.722C373.969 131.96 373.729 132.265 373.567 132.612C373.406 132.959 373.328 133.34 373.339 133.722C373.339 134.512 373.759 134.912 374.269 134.612C374.568 134.374 374.808 134.069 374.97 133.722C375.131 133.375 375.21 132.995 375.199 132.612C375.199 131.822 374.779 131.422 374.269 131.722Z" fill="#FAFAFA"/>
<path d="M377.619 129.782C377.318 130.019 377.077 130.324 376.915 130.671C376.753 131.019 376.676 131.399 376.689 131.782C376.689 132.572 377.099 132.972 377.619 132.672C377.92 132.435 378.161 132.131 378.323 131.783C378.484 131.436 378.562 131.055 378.549 130.672C378.549 129.892 378.129 129.482 377.619 129.782Z" fill="#FAFAFA"/>
<path d="M381 127.842C380.699 128.079 380.457 128.384 380.296 128.731C380.134 129.079 380.057 129.459 380.07 129.842C380.07 130.632 380.48 131.032 381 130.742C381.299 130.504 381.539 130.199 381.7 129.852C381.862 129.505 381.94 129.125 381.93 128.742C381.9 127.952 381.48 127.552 381 127.842Z" fill="#FAFAFA"/>
<path d="M343.999 182.522L343.799 182.402C343.649 182.302 342.799 181.782 342.729 181.762C342.514 181.625 342.341 181.432 342.229 181.202C342.101 180.93 342.036 180.633 342.039 180.332V153.712L343.399 154.522V181.132C343.396 181.418 343.454 181.701 343.569 181.962C343.67 182.178 343.817 182.369 343.999 182.522Z" fill="#E0E0E0"/>
<path d="M380.37 141.822L346.67 161.282V158.482L380.37 139.022V141.822Z" fill="#E0E0E0"/>
<path d="M380.37 148.252L346.67 167.712V164.912L380.37 145.452V148.252Z" fill="#E0E0E0"/>
<path d="M380.37 154.672L346.67 174.132V171.332L380.37 151.882V154.672Z" fill="#E0E0E0"/>
<path d="M260.87 109.642C260.872 109.855 260.811 110.063 260.694 110.241C260.577 110.418 260.41 110.557 260.215 110.639C260.019 110.721 259.803 110.743 259.594 110.702C259.386 110.661 259.194 110.559 259.044 110.409C258.894 110.259 258.792 110.067 258.751 109.859C258.71 109.65 258.732 109.434 258.814 109.238C258.896 109.042 259.035 108.875 259.212 108.758C259.39 108.642 259.598 108.58 259.81 108.582C260.091 108.585 260.359 108.697 260.557 108.896C260.755 109.094 260.868 109.362 260.87 109.642Z" fill="#263238"/>
<path d="M260.04 109.642H259.57V62.2823L259.62 62.2223L277.07 40.0723L277.44 40.3623L260.04 62.4523V109.642Z" fill="#263238"/>
<path d="M317.87 1.93225V34.3223C317.839 34.894 317.675 35.4506 317.39 35.9474C317.105 36.4441 316.708 36.867 316.23 37.1823L279.34 58.4922C279.173 58.5928 278.984 58.648 278.79 58.6523C278.72 58.662 278.649 58.662 278.58 58.6523H278.44L278.29 58.5823C278.105 58.4317 277.957 58.2399 277.86 58.0222C277.744 57.7609 277.686 57.4779 277.69 57.1923V25.1923C277.717 24.6173 277.881 24.0572 278.168 23.5582C278.455 23.0592 278.857 22.6356 279.34 22.3223L316.23 1.03225C316.388 0.921375 316.571 0.850687 316.762 0.826295C316.954 0.801903 317.149 0.824541 317.33 0.892251L317.47 0.972253C317.51 1.00156 317.544 1.03903 317.57 1.08225C317.57 1.08225 317.57 1.08225 317.62 1.14225C317.645 1.16441 317.665 1.19167 317.68 1.22225C317.717 1.28858 317.748 1.35904 317.77 1.43225C317.779 1.48185 317.779 1.53265 317.77 1.58225C317.774 1.63213 317.774 1.68237 317.77 1.73225C317.808 1.7963 317.841 1.86316 317.87 1.93225Z" fill="#FAFAFA"/>
<path d="M317 1.32231C317.039 1.31064 317.08 1.31064 317.12 1.32231H317.17V1.38231L317.23 1.55231C317.23 1.55231 317.23 1.66231 317.23 1.71231V34.3223C317.204 34.7934 317.067 35.2517 316.831 35.66C316.594 36.0683 316.265 36.4151 315.87 36.6723L278.99 57.9823C278.914 58.0291 278.828 58.0566 278.74 58.0623H278.64H278.57C278.481 57.9666 278.407 57.8589 278.35 57.7423C278.277 57.5609 278.24 57.3675 278.24 57.1723V25.1723C278.275 24.7034 278.415 24.2485 278.651 23.8416C278.886 23.4347 279.21 23.0862 279.6 22.8223L316.49 1.54231C316.633 1.41819 316.811 1.34135 317 1.32231ZM317 0.74231C316.741 0.750632 316.49 0.826483 316.27 0.962311L279.34 22.3223C278.859 22.6337 278.46 23.0541 278.173 23.5494C277.886 24.0447 277.72 24.6008 277.69 25.1723V57.1723C277.686 57.4579 277.744 57.741 277.86 58.0023C277.957 58.2199 278.105 58.4117 278.29 58.5623L278.44 58.6323H278.58C278.649 58.642 278.72 58.642 278.79 58.6323C278.977 58.6246 279.159 58.5696 279.32 58.4723L316.21 37.1623C316.689 36.8513 317.088 36.4325 317.377 35.9393C317.665 35.4462 317.834 34.8924 317.87 34.3223V1.93231C317.875 1.8624 317.875 1.79222 317.87 1.72231C317.874 1.67243 317.874 1.62219 317.87 1.57231C317.879 1.52272 317.879 1.4719 317.87 1.42231C317.848 1.3491 317.818 1.27864 317.78 1.21231C317.765 1.18173 317.745 1.15447 317.72 1.13231C317.72 1.13231 317.72 1.08231 317.67 1.07231C317.644 1.02909 317.61 0.991621 317.57 0.962311L317.43 0.882313C317.315 0.825272 317.188 0.797773 317.06 0.802311L317 0.74231Z" fill="#E0E0E0"/>
<path d="M317.33 0.842292C317.149 0.774582 316.954 0.751944 316.763 0.776336C316.571 0.800728 316.388 0.871416 316.23 0.982291L279.34 22.3223C278.86 22.6336 278.46 23.0541 278.173 23.5494C277.887 24.0447 277.721 24.6008 277.69 25.1723V30.5523L276.33 29.7423V24.3223C276.37 23.7548 276.542 23.2044 276.832 22.7149C277.122 22.2254 277.522 21.8102 278 21.5023L314.9 0.222293C315.07 0.0972217 315.271 0.0216581 315.481 0.00400446C315.691 -0.0136492 315.902 0.0272963 316.09 0.122291L317.33 0.842292Z" fill="#37474F"/>
<path d="M317.869 1.92235C317.869 0.922348 317.129 0.462349 316.229 0.982349L279.339 22.3223C278.859 22.6337 278.459 23.0542 278.173 23.5495C277.886 24.0448 277.72 24.6009 277.689 25.1723V30.5524L317.869 7.32235V1.92235Z" fill="#455A64"/>
<path d="M276.33 29.7022V24.3222C276.357 23.7392 276.528 23.1719 276.83 22.6722L278.18 23.4522C277.88 23.9484 277.711 24.5128 277.69 25.0922V30.4722L276.33 29.7022Z" fill="#263238"/>
<path d="M308.531 7.70226C308.231 7.94025 307.99 8.24497 307.829 8.59219C307.668 8.9394 307.589 9.31951 307.601 9.70226C307.601 10.4923 308.021 10.8923 308.531 10.5923C308.832 10.3553 309.073 10.0508 309.235 9.70334C309.396 9.35587 309.474 8.97524 309.461 8.59226C309.461 7.80226 309.051 7.40226 308.531 7.70226Z" fill="#FAFAFA"/>
<path d="M311.88 5.76225C311.581 6.00076 311.341 6.3056 311.179 6.65268C311.018 6.99977 310.94 7.37962 310.95 7.76225C310.95 8.55225 311.37 8.95226 311.88 8.66226C312.18 8.42375 312.419 8.11892 312.581 7.77183C312.742 7.42474 312.821 7.04489 312.81 6.66226C312.81 5.87226 312.39 5.47225 311.88 5.76225Z" fill="#FAFAFA"/>
<path d="M315.231 3.83227C314.928 4.06755 314.685 4.37178 314.524 4.71964C314.362 5.0675 314.285 5.44895 314.301 5.83227C314.301 6.62227 314.711 7.03227 315.231 6.73227C315.53 6.49376 315.77 6.18893 315.931 5.84185C316.093 5.49476 316.171 5.11491 316.161 4.73227C316.161 3.93227 315.741 3.53227 315.231 3.83227Z" fill="#FAFAFA"/>
<path d="M278.29 58.5023C278.228 58.4557 278.161 58.4155 278.09 58.3823C277.94 58.2823 277.09 57.7623 277.02 57.7423C276.805 57.6054 276.632 57.4115 276.52 57.1823C276.392 56.9102 276.327 56.6128 276.33 56.3123V29.6923L277.69 30.5023V57.1123C277.692 57.3974 277.75 57.6794 277.86 57.9423C277.961 58.1578 278.108 58.3488 278.29 58.5023Z" fill="#E0E0E0"/>
<path d="M314.63 17.8023L280.93 37.2623V34.4623L314.63 15.0023V17.8023Z" fill="#E0E0E0"/>
<path d="M314.63 24.2323L280.93 43.6923V40.8923L314.63 21.4323V24.2323Z" fill="#E0E0E0"/>
<path d="M314.63 30.6523L280.93 50.1123V47.3123L314.63 27.8623V30.6523Z" fill="#E0E0E0"/>
<path d="M206.259 192.452C206.259 192.664 206.196 192.872 206.078 193.048C205.96 193.224 205.792 193.361 205.596 193.442C205.4 193.523 205.185 193.543 204.977 193.501C204.769 193.459 204.578 193.356 204.429 193.205C204.28 193.055 204.179 192.863 204.138 192.655C204.098 192.447 204.121 192.231 204.203 192.036C204.286 191.841 204.425 191.674 204.602 191.558C204.779 191.441 204.987 191.38 205.199 191.382C205.481 191.385 205.751 191.499 205.949 191.699C206.148 191.9 206.259 192.17 206.259 192.452Z" fill="#263238"/>
<path d="M194.831 198.592L170.631 184.482L170.871 184.072L194.841 198.042L205.081 192.242L205.311 192.652L194.831 198.592Z" fill="#263238"/>
<path d="M173.59 165.322V197.712C173.56 198.285 173.394 198.843 173.107 199.339C172.821 199.836 172.421 200.259 171.94 200.572L135.05 221.882C134.884 221.983 134.695 222.038 134.5 222.042C134.431 222.052 134.36 222.052 134.29 222.042L134.15 221.992L134.01 221.922C133.822 221.776 133.671 221.588 133.57 221.372C133.456 221.107 133.398 220.821 133.4 220.532V188.532C133.431 187.961 133.597 187.405 133.884 186.909C134.17 186.414 134.57 185.994 135.05 185.682L171.94 164.322C172.101 164.211 172.285 164.141 172.478 164.116C172.672 164.092 172.868 164.114 173.05 164.182L173.19 164.262C173.229 164.294 173.263 164.331 173.29 164.372C173.295 164.392 173.295 164.412 173.29 164.432C173.29 164.432 173.34 164.432 173.35 164.522C173.392 164.587 173.423 164.658 173.44 164.732C173.45 164.778 173.45 164.826 173.44 164.872C173.446 164.925 173.446 164.979 173.44 165.032C173.503 165.122 173.554 165.219 173.59 165.322Z" fill="#FAFAFA"/>
<path d="M172.67 164.682C172.713 164.672 172.758 164.672 172.8 164.682V164.732V164.792L172.86 164.972C172.865 165.025 172.865 165.079 172.86 165.132V197.522C172.836 197.992 172.7 198.45 172.466 198.858C172.231 199.267 171.904 199.614 171.51 199.872L134.76 221.322C134.687 221.374 134.6 221.402 134.51 221.402H134.38H134.31C134.22 221.31 134.149 221.201 134.1 221.082C134.023 220.902 133.986 220.708 133.99 220.512V188.512C134.024 188.044 134.162 187.589 134.396 187.182C134.63 186.775 134.953 186.427 135.34 186.162L172.23 164.882C172.362 164.795 172.513 164.744 172.67 164.732M172.67 164.152C172.412 164.161 172.16 164.236 171.94 164.372L135.05 185.662C134.57 185.974 134.17 186.394 133.884 186.889C133.597 187.385 133.431 187.941 133.4 188.512V220.512C133.398 220.801 133.456 221.087 133.57 221.352C133.671 221.568 133.822 221.756 134.01 221.902L134.15 221.972L134.29 222.022C134.36 222.032 134.431 222.032 134.5 222.022C134.684 222.013 134.863 221.958 135.02 221.862L171.91 200.552C172.391 200.239 172.791 199.816 173.077 199.319C173.364 198.823 173.53 198.265 173.56 197.692V165.322C173.566 165.256 173.566 165.189 173.56 165.122C173.566 165.069 173.566 165.015 173.56 164.962C173.57 164.916 173.57 164.868 173.56 164.822C173.543 164.748 173.512 164.677 173.47 164.612C173.47 164.612 173.47 164.552 173.41 164.522C173.415 164.502 173.415 164.482 173.41 164.462C173.383 164.421 173.349 164.384 173.31 164.352L173.17 164.272C173.05 164.221 172.921 164.194 172.79 164.192L172.67 164.152Z" fill="#E0E0E0"/>
<path d="M173.049 164.182C172.866 164.115 172.67 164.092 172.477 164.116C172.284 164.141 172.099 164.211 171.939 164.322L135.049 185.612C134.569 185.924 134.169 186.344 133.882 186.839C133.596 187.335 133.43 187.891 133.399 188.462V193.842L132.039 193.042V187.692C132.072 187.121 132.238 186.566 132.524 186.071C132.811 185.576 133.21 185.155 133.689 184.842L170.579 163.562C170.749 163.437 170.95 163.362 171.16 163.344C171.37 163.326 171.581 163.367 171.769 163.462C172.069 163.642 172.689 164.002 173.049 164.182Z" fill="#37474F"/>
<path d="M173.58 165.262C173.58 164.262 172.84 163.802 171.94 164.322L135.05 185.612C134.57 185.924 134.17 186.344 133.884 186.839C133.597 187.335 133.431 187.891 133.4 188.462V193.842L173.58 170.662V165.262Z" fill="#455A64"/>
<path d="M132 193.042V187.692C132.026 187.109 132.198 186.542 132.5 186.042L133.86 186.822C133.553 187.316 133.38 187.881 133.36 188.462V193.842L132 193.042Z" fill="#263238"/>
<path d="M164.24 171.042C163.94 171.281 163.7 171.586 163.539 171.933C163.377 172.28 163.299 172.66 163.31 173.042C163.31 173.832 163.73 174.232 164.24 173.932C164.543 173.697 164.785 173.393 164.947 173.045C165.109 172.697 165.185 172.316 165.17 171.932C165.17 171.142 164.76 170.742 164.24 171.042Z" fill="#FAFAFA"/>
<path d="M167.589 169.102C167.29 169.341 167.05 169.646 166.888 169.993C166.727 170.34 166.649 170.72 166.659 171.102C166.659 171.892 167.079 172.292 167.589 172.002C167.889 171.764 168.128 171.459 168.29 171.112C168.451 170.765 168.53 170.385 168.519 170.002C168.519 169.212 168.099 168.812 167.589 169.102Z" fill="#FAFAFA"/>
<path d="M170.939 167.172C170.638 167.409 170.397 167.714 170.235 168.061C170.074 168.409 169.996 168.789 170.009 169.172C170.009 169.962 170.429 170.362 170.939 170.062C171.239 169.824 171.478 169.519 171.64 169.172C171.801 168.825 171.88 168.445 171.869 168.062C171.869 167.322 171.449 166.872 170.939 167.172Z" fill="#FAFAFA"/>
<path d="M133.999 221.842L133.789 221.722C133.639 221.632 132.789 221.102 132.719 221.092C132.505 220.95 132.333 220.753 132.219 220.522C132.091 220.25 132.027 219.953 132.029 219.652V193.042L133.389 193.842V220.452C133.392 220.74 133.45 221.025 133.559 221.292C133.657 221.51 133.809 221.699 133.999 221.842Z" fill="#E0E0E0"/>
<path d="M170.341 181.142L136.641 200.602V197.802L170.341 178.352V181.142Z" fill="#E0E0E0"/>
<path d="M170.341 187.572L136.641 207.032V204.232L170.341 184.772V187.572Z" fill="#E0E0E0"/>
<path d="M170.341 194.002L136.641 213.452V210.662L170.341 191.202V194.002Z" fill="#E0E0E0"/>
<path d="M256.6 108.702C252.001 110.076 247.924 112.805 244.9 116.532C243.16 118.368 241.837 120.558 241.02 122.952C240.44 124.952 240.75 127.302 243.02 128.022C244.009 128.269 245.046 128.241 246.02 127.942C247.22 127.658 248.389 127.256 249.51 126.742C251.809 125.662 253.996 124.359 256.04 122.852C258.184 121.333 260.106 119.522 261.75 117.472C262.472 116.541 263.054 115.511 263.48 114.412C263.912 113.474 264.028 112.422 263.81 111.412C263.27 109.712 261.12 109.312 259.57 109.412C257.172 109.746 254.887 110.64 252.9 112.022C252.51 112.262 253.09 112.822 253.44 112.632C255.165 111.584 257.04 110.805 259 110.322C259.569 110.167 260.165 110.132 260.749 110.219C261.333 110.307 261.892 110.516 262.39 110.832C263.17 111.502 262.93 112.712 262.66 113.572C262.333 114.601 261.847 115.573 261.22 116.452C259.878 118.276 258.281 119.899 256.48 121.272C254.751 122.63 252.919 123.851 251 124.922C249.109 126.035 247.043 126.819 244.89 127.242C244.477 127.348 244.044 127.354 243.628 127.258C243.212 127.162 242.825 126.968 242.5 126.692C242.165 126.278 241.941 125.785 241.848 125.261C241.756 124.736 241.797 124.196 241.97 123.692C242.53 121.675 243.519 119.802 244.87 118.202C247.927 114.143 252.035 110.997 256.75 109.102C256.94 109.032 256.83 108.632 256.64 108.682L256.6 108.702Z" fill="#455A64"/>
<path d="M215.399 181.672C212.335 182.605 209.63 184.455 207.649 186.972C206.592 188.121 205.797 189.486 205.319 190.972C204.979 192.272 205.319 193.732 206.719 194.132C208.119 194.532 209.789 193.772 211.019 193.202C212.487 192.489 213.887 191.642 215.199 190.672C216.596 189.675 217.837 188.475 218.879 187.112C219.579 186.112 220.459 184.602 220.049 183.362C219.709 182.302 218.369 182.032 217.389 182.082C215.822 182.281 214.325 182.858 213.029 183.762C212.769 183.922 213.149 184.282 213.379 184.162C214.457 183.525 215.618 183.041 216.829 182.722C217.565 182.516 218.352 182.598 219.029 182.952C220.179 183.742 218.949 185.842 218.379 186.652C217.527 187.789 216.516 188.8 215.379 189.652C213.269 191.491 210.76 192.813 208.049 193.512C207.758 193.612 207.446 193.639 207.141 193.592C206.836 193.545 206.548 193.425 206.299 193.242C206.051 192.949 205.889 192.593 205.831 192.214C205.773 191.834 205.821 191.446 205.969 191.092C206.385 189.793 207.066 188.595 207.969 187.572C209.926 185.041 212.522 183.077 215.489 181.882C215.609 181.832 215.539 181.582 215.409 181.612L215.399 181.672Z" fill="#455A64"/>
<path d="M317.33 183.512C314.263 184.435 311.557 186.283 309.58 188.802C308.523 189.952 307.728 191.316 307.25 192.802C306.91 194.092 307.2 195.552 308.65 195.952C310.1 196.352 311.72 195.602 312.95 195.022C314.418 194.315 315.814 193.468 317.12 192.492C318.524 191.501 319.769 190.3 320.81 188.932C321.51 187.982 322.39 186.432 321.98 185.192C321.64 184.132 320.3 183.852 319.32 183.912C317.764 184.13 316.283 184.716 315 185.622C314.75 185.772 315.13 186.132 315.36 186.012C316.438 185.378 317.599 184.897 318.81 184.582C319.543 184.378 320.325 184.461 321 184.812C322.16 185.602 320.93 187.702 320.36 188.512C319.504 189.647 318.494 190.657 317.36 191.512C315.243 193.342 312.736 194.662 310.03 195.372C309.738 195.469 309.426 195.495 309.122 195.448C308.818 195.402 308.529 195.283 308.28 195.102C308.033 194.809 307.871 194.453 307.813 194.073C307.755 193.694 307.802 193.306 307.95 192.952C308.348 191.653 309.012 190.451 309.9 189.422C311.862 186.893 314.46 184.929 317.43 183.732C317.55 183.732 317.43 183.432 317.35 183.472L317.33 183.512Z" fill="#455A64"/>
<path d="M334.308 306.902L300.998 328.962H300.948C300.495 329.311 300.139 329.769 299.913 330.294C299.687 330.819 299.6 331.394 299.658 331.962C299.764 333.596 300.254 335.182 301.091 336.59C301.927 337.998 303.084 339.188 304.468 340.062C304.951 340.403 305.515 340.61 306.104 340.661C306.693 340.712 307.284 340.605 307.818 340.352L343.098 321.932C344.137 321.38 345.054 320.625 345.793 319.711C346.533 318.796 347.081 317.742 347.404 316.611C347.726 315.48 347.817 314.296 347.671 313.129C347.526 311.962 347.146 310.837 346.555 309.82C345.963 308.803 345.173 307.916 344.231 307.212C343.289 306.508 342.215 306.002 341.072 305.723C339.93 305.444 338.743 305.398 337.582 305.589C336.422 305.779 335.312 306.202 334.318 306.832L334.308 306.902Z" fill="#455A64"/>
<path d="M307.809 340.422L343.089 322.002C344.42 321.282 345.542 320.229 346.344 318.946C347.146 317.663 347.601 316.193 347.664 314.681C347.728 313.169 347.398 311.667 346.706 310.321C346.015 308.975 344.985 307.831 343.719 307.002C345.889 309.002 345.719 314.322 339.919 317.822C334.119 321.322 312.449 332.822 302.609 338.662C303.149 339.24 303.773 339.732 304.459 340.122C304.941 340.465 305.505 340.674 306.094 340.726C306.682 340.779 307.275 340.674 307.809 340.422Z" fill="#37474F"/>
<path d="M299.649 332.052C299.76 333.686 300.255 335.27 301.095 336.676C301.934 338.082 303.094 339.27 304.479 340.142C304.949 340.468 305.493 340.67 306.062 340.727C306.63 340.785 307.204 340.697 307.729 340.472C308.349 340.132 310.729 338.892 311.359 338.552C311.883 338.208 312.298 337.723 312.56 337.154C312.822 336.585 312.919 335.954 312.839 335.332C312.721 333.645 312.206 332.01 311.338 330.56C310.469 329.109 309.27 327.883 307.839 326.982C307.331 326.619 306.731 326.406 306.107 326.365C305.484 326.324 304.861 326.458 304.309 326.752L300.919 329.002C300.46 329.355 300.101 329.823 299.878 330.358C299.655 330.893 299.576 331.477 299.649 332.052Z" fill="#641EFF"/>
<path d="M299.648 332.052C299.648 329.052 301.648 327.802 304.318 329.262C305.703 330.136 306.862 331.324 307.701 332.729C308.54 334.135 309.036 335.719 309.148 337.352C309.148 340.352 307.148 341.612 304.478 340.142C303.093 339.27 301.933 338.082 301.094 336.676C300.254 335.27 299.759 333.686 299.648 332.052Z" fill="#641EFF"/>
<path opacity="0.3" d="M299.648 332.052C299.648 329.052 301.648 327.802 304.318 329.262C305.703 330.136 306.862 331.324 307.701 332.729C308.54 334.135 309.036 335.719 309.148 337.352C309.148 340.352 307.148 341.612 304.478 340.142C303.093 339.27 301.933 338.082 301.094 336.676C300.254 335.27 299.759 333.686 299.648 332.052Z" fill="white"/>
<path d="M291.548 345.772C290.631 345.192 289.863 344.403 289.309 343.47C288.754 342.537 288.429 341.485 288.358 340.402C288.314 340.021 288.372 339.634 288.527 339.283C288.681 338.931 288.927 338.627 289.238 338.402L301.628 331.062C301.979 330.897 302.367 330.828 302.754 330.861C303.14 330.895 303.511 331.029 303.828 331.252C304.744 331.835 305.509 332.624 306.064 333.557C306.618 334.49 306.945 335.54 307.018 336.622C307.058 337.004 306.997 337.39 306.841 337.741C306.685 338.092 306.439 338.396 306.128 338.622L293.738 345.972C293.388 346.136 293.001 346.204 292.616 346.169C292.231 346.133 291.863 345.997 291.548 345.772Z" fill="#37474F"/>
<path d="M293.769 345.952C293.417 346.124 293.025 346.199 292.635 346.167C292.244 346.135 291.869 345.999 291.549 345.772C290.855 345.363 290.252 344.815 289.779 344.162L306.489 334.322C306.828 335.047 307.019 335.832 307.049 336.632C307.089 337.014 307.028 337.4 306.872 337.751C306.716 338.102 306.47 338.406 306.159 338.632L293.769 345.982V345.952Z" fill="#263238"/>
<path d="M300.998 352.192C300.998 345.462 296.548 338.722 287.648 333.582C269.848 323.312 240.978 323.312 223.178 333.582C214.278 338.722 209.828 345.462 209.828 352.192V364.602C209.828 371.342 214.278 378.072 223.178 383.212C240.978 393.492 269.848 393.492 287.648 383.212C296.538 378.072 300.998 371.322 300.998 364.602V352.192ZM225.388 337.402C233.388 332.812 243.998 330.282 255.388 330.282C266.778 330.282 277.458 332.812 285.388 337.402C292.578 341.552 296.538 346.812 296.538 352.192C296.538 357.572 292.538 362.842 285.388 366.992C277.438 371.582 266.778 374.102 255.388 374.102C243.998 374.102 233.308 371.582 225.388 366.992C218.198 362.842 214.238 357.582 214.238 352.192C214.238 346.802 218.188 341.552 225.378 337.402H225.388Z" fill="#641EFF"/>
<path opacity="0.3" d="M300.998 352.192C300.998 345.462 296.548 338.722 287.648 333.582C269.848 323.312 240.978 323.312 223.178 333.582C214.278 338.722 209.828 345.462 209.828 352.192V364.602C209.828 371.342 214.278 378.072 223.178 383.212C240.978 393.492 269.848 393.492 287.648 383.212C296.538 378.072 300.998 371.322 300.998 364.602V352.192ZM225.388 337.402C233.388 332.812 243.998 330.282 255.388 330.282C266.778 330.282 277.458 332.812 285.388 337.402C292.578 341.552 296.538 346.812 296.538 352.192C296.538 357.572 292.538 362.842 285.388 366.992C277.438 371.582 266.778 374.102 255.388 374.102C243.998 374.102 233.308 371.582 225.388 366.992C218.198 362.842 214.238 357.582 214.238 352.192C214.238 346.802 218.188 341.552 225.378 337.402H225.388Z" fill="white"/>
<path opacity="0.4" d="M216.368 345.402C215.015 347.412 214.272 349.77 214.228 352.192C214.228 357.582 218.228 362.842 225.378 366.992C228.944 369 232.742 370.562 236.688 371.642V388.642C231.961 387.457 227.414 385.644 223.168 383.252C214.268 378.112 209.818 371.382 209.818 364.642V352.192C209.865 348.928 210.855 345.747 212.668 343.032L216.368 345.402Z" fill="#641EFF"/>
<path opacity="0.3" d="M300.998 352.192V364.602C300.998 371.342 296.548 378.072 287.648 383.212C285.143 384.64 282.52 385.851 279.808 386.832L279.738 369.742C281.699 368.957 283.603 368.038 285.438 366.992C292.628 362.842 296.588 357.582 296.588 352.192C296.569 350.352 296.124 348.542 295.288 346.902L298.738 344.022C300.19 346.502 300.969 349.319 300.998 352.192Z" fill="white"/>
<path d="M223.168 370.802C240.968 381.082 269.828 381.082 287.638 370.802C305.448 360.522 305.438 343.862 287.638 333.582C269.838 323.302 240.968 323.312 223.168 333.582C205.368 343.852 205.368 360.532 223.168 370.802ZM214.228 352.192C214.228 346.812 218.228 341.552 225.368 337.402C233.318 332.812 243.988 330.282 255.368 330.282C266.748 330.282 277.448 332.812 285.368 337.402C292.558 341.552 296.518 346.812 296.518 352.192C296.518 357.572 292.518 362.842 285.368 366.992C277.418 371.582 266.758 374.102 255.368 374.102C243.978 374.102 233.288 371.582 225.368 366.992C218.188 362.842 214.228 357.582 214.228 352.192Z" fill="#641EFF"/>
<g opacity="0.5">
<path d="M223.168 370.802C240.968 381.082 269.828 381.082 287.638 370.802C305.448 360.522 305.438 343.862 287.638 333.582C269.838 323.302 240.968 323.312 223.168 333.582C205.368 343.852 205.368 360.532 223.168 370.802ZM214.228 352.192C214.228 346.812 218.228 341.552 225.368 337.402C233.318 332.812 243.988 330.282 255.368 330.282C266.748 330.282 277.448 332.812 285.368 337.402C292.558 341.552 296.518 346.812 296.518 352.192C296.518 357.572 292.518 362.842 285.368 366.992C277.418 371.582 266.758 374.102 255.368 374.102C243.978 374.102 233.288 371.582 225.368 366.992C218.188 362.842 214.228 357.582 214.228 352.192Z" fill="white"/>
</g>
<path opacity="0.4" d="M295.699 339.762C298.094 342.221 299.816 345.255 300.699 348.572C301.515 351.942 301.202 355.487 299.809 358.662C298.394 361.802 296.304 364.591 293.689 366.832C292.396 367.955 291.029 368.991 289.599 369.932C288.879 370.392 288.159 370.852 287.409 371.252L285.139 372.442C284.383 372.843 283.605 373.2 282.809 373.512C282.029 373.852 281.249 374.192 280.459 374.512L278.029 375.342L276.819 375.762C276.419 375.892 275.999 375.982 275.589 376.102C262.368 379.795 248.389 379.795 235.169 376.102C234.759 375.982 234.349 375.892 233.939 375.762L232.729 375.342L230.309 374.512C229.519 374.192 228.739 373.852 227.949 373.512C227.156 373.195 226.382 372.834 225.629 372.432L223.359 371.242C222.599 370.842 221.879 370.382 221.159 369.922C219.731 368.981 218.368 367.945 217.079 366.822C214.46 364.582 212.367 361.793 210.949 358.652C209.56 355.476 209.247 351.932 210.059 348.562C210.95 345.248 212.67 342.216 215.059 339.752C217.433 337.309 220.151 335.227 223.129 333.572C220.187 335.271 217.512 337.394 215.189 339.872C212.861 342.335 211.205 345.355 210.379 348.642C209.633 351.94 209.984 355.392 211.379 358.472C212.799 361.53 214.87 364.24 217.449 366.412C220.023 368.594 222.871 370.433 225.919 371.882C226.663 372.282 227.431 372.636 228.219 372.942C228.999 373.262 229.769 373.602 230.549 373.942L232.949 374.762L234.149 375.162C234.549 375.292 234.959 375.392 235.369 375.502C248.486 379.075 262.321 379.075 275.439 375.502C275.839 375.392 276.249 375.292 276.659 375.162L277.859 374.762L280.249 373.942C281.039 373.632 281.809 373.292 282.589 372.942C283.375 372.634 284.143 372.28 284.889 371.882C287.937 370.439 290.782 368.6 293.349 366.412C295.933 364.243 298.009 361.533 299.429 358.472C300.819 355.39 301.17 351.94 300.429 348.642C299.599 345.357 297.943 342.338 295.619 339.872C293.293 337.396 290.618 335.274 287.679 333.572C290.639 335.234 293.341 337.319 295.699 339.762Z" fill="white"/>
<path d="M214.219 352.192C214.245 354.386 214.863 356.531 216.009 358.402C217.809 355.272 221.009 352.332 225.379 349.812C233.319 345.222 243.989 342.692 255.379 342.692C266.769 342.692 277.449 345.222 285.379 349.812C289.759 352.332 292.939 355.272 294.759 358.402C295.889 356.526 296.5 354.383 296.529 352.192C296.529 346.812 292.529 341.552 285.379 337.402C277.429 332.812 266.769 330.282 255.379 330.282C243.989 330.282 233.289 332.812 225.379 337.402C218.179 341.552 214.219 346.812 214.219 352.192Z" fill="#641EFF"/>
<path opacity="0.3" d="M214.219 352.192C214.245 354.386 214.863 356.531 216.009 358.402C217.809 355.272 221.009 352.332 225.379 349.812C233.319 345.222 243.989 342.692 255.379 342.692C266.769 342.692 277.449 345.222 285.379 349.812C289.759 352.332 292.939 355.272 294.759 358.402C295.889 356.526 296.5 354.383 296.529 352.192C296.529 346.812 292.529 341.552 285.379 337.402C277.429 332.812 266.769 330.282 255.379 330.282C243.989 330.282 233.289 332.812 225.379 337.402C218.179 341.552 214.219 346.812 214.219 352.192Z" fill="white"/>
<path opacity="0.4" d="M285.428 337.402C292.618 341.552 296.578 346.812 296.578 352.192C296.55 354.383 295.939 356.526 294.808 358.402C292.988 355.272 289.808 352.332 285.428 349.812C283.575 348.756 281.65 347.83 279.668 347.042C281.408 347.712 286.738 349.432 284.798 344.342C282.488 338.342 271.208 331.762 262.918 330.682C270.807 331.333 278.473 333.622 285.428 337.402Z" fill="#641EFF"/>
<path opacity="0.7" d="M225.368 343.022C233.318 338.432 243.988 335.902 255.368 335.902C266.748 335.902 277.448 338.432 285.368 343.022C291.298 346.442 295.028 350.622 296.148 355.022C295.028 359.412 291.298 363.582 285.368 367.022C277.418 371.612 266.758 374.132 255.368 374.132C243.978 374.132 233.288 371.612 225.368 367.022C219.438 363.592 215.718 359.422 214.588 355.022C215.718 350.622 219.438 346.442 225.368 343.022Z" fill="white"/>
<path d="M195.67 0.322266V26.7223L193.28 28.0623V19.7423C193.28 15.2523 189.62 13.7423 185.12 16.3223L173.92 22.7923V70.4023C173.92 75.6123 177.1 77.9923 181.03 75.7223L187.98 71.7223H188.05L195.67 76.1223L157.57 98.1223L152.42 95.1223L150 96.5323V93.6723L157 89.6123C160.93 87.3423 164.11 81.2823 164.11 76.0823V28.4723L152.91 34.9323C148.41 37.5423 144.75 43.2823 144.75 47.7723V56.0923L142.35 57.5223V31.1223L195.67 0.322266Z" fill="#641EFF"/>
<path opacity="0.2" d="M195.67 0.322266V26.7223L193.28 28.0623V19.7423C193.28 15.2523 189.62 13.7423 185.12 16.3223L173.92 22.7923V70.4023C173.92 75.6123 177.1 77.9923 181.03 75.7223L187.98 71.7223H188.05L195.67 76.1223L157.57 98.1223L152.42 95.1223L150 96.5323V93.6723L157 89.6123C160.93 87.3423 164.11 81.2823 164.11 76.0823V28.4723L152.91 34.9323C148.41 37.5423 144.75 43.2823 144.75 47.7723V56.0923L142.35 57.5223V31.1223L195.67 0.322266Z" fill="white"/>
<path d="M200.901 32.4622L193.281 28.0622V14.9122L200.901 16.3522V32.4622Z" fill="#641EFF"/>
<path d="M203.3 4.72229V31.1223L200.9 32.4623V24.1423C200.9 19.6523 197.25 18.1423 192.74 20.7223L181.54 27.1923V74.8023C181.54 80.0123 184.72 82.3923 188.65 80.1223L195.65 76.0623V78.9323L157.55 100.932V98.0723L164.55 94.0123C168.47 91.7423 171.66 85.6823 171.66 80.4823V32.8723L160.5 39.3223C156 41.9323 152.34 47.6723 152.34 52.1623V60.4823L150 61.9223V35.5223L203.3 4.72229Z" fill="#641EFF"/>
<path opacity="0.5" d="M203.3 4.72229V31.1223L200.9 32.4623V24.1423C200.9 19.6523 197.25 18.1423 192.74 20.7223L181.54 27.1923V74.8023C181.54 80.0123 184.72 82.3923 188.65 80.1223L195.65 76.0623V78.9323L157.55 100.932V98.0723L164.55 94.0123C168.47 91.7423 171.66 85.6823 171.66 80.4823V32.8723L160.5 39.3223C156 41.9323 152.34 47.6723 152.34 52.1623V60.4823L150 61.9223V35.5223L203.3 4.72229Z" fill="white"/>
<path d="M195.68 0.322266L203.3 4.72227L149.95 35.5223L142.32 31.1223L195.68 0.322266Z" fill="#641EFF"/>
<path opacity="0.7" d="M195.68 0.322266L203.3 4.72227L149.95 35.5223L142.32 31.1223L195.68 0.322266Z" fill="white"/>
<path d="M142.32 31.1223L149.95 35.5223V61.9223L142.32 57.5223V31.1223Z" fill="#641EFF"/>
<path opacity="0.2" d="M142.32 31.1223L149.95 35.5223V61.9223L142.32 57.5223V31.1223Z" fill="white"/>
<path d="M149.951 93.6722L157.571 98.0722V100.932L149.951 96.5322V93.6722Z" fill="#641EFF"/>
<path d="M405.42 367.752C405.347 368.684 405.058 369.586 404.576 370.387C404.093 371.187 403.43 371.863 402.64 372.362L319.64 420.292C318.779 420.727 317.829 420.953 316.865 420.953C315.901 420.953 314.95 420.727 314.09 420.292L293.59 408.452C292.753 408.008 292.053 407.344 291.565 406.532C291.076 405.72 290.818 404.79 290.818 403.842C290.818 402.895 291.076 401.965 291.565 401.153C292.053 400.341 292.753 399.677 293.59 399.232L376.59 351.312C377.449 350.873 378.4 350.645 379.365 350.645C380.329 350.645 381.28 350.873 382.14 351.312L402.64 363.142C403.43 363.641 404.093 364.318 404.576 365.118C405.058 365.918 405.347 366.82 405.42 367.752Z" fill="#E0E0E0"/>
<path d="M403.06 363.422C404.16 364.322 404.01 365.552 402.64 366.342L368 386.322L319.63 414.322C318.773 414.774 317.818 415.005 316.85 414.992V420.992C317.814 421.012 318.767 420.784 319.62 420.332L402.62 372.402C403.42 371.981 404.097 371.358 404.582 370.596C405.068 369.833 405.345 368.956 405.388 368.053C405.43 367.149 405.236 366.25 404.824 365.445C404.412 364.64 403.797 363.957 403.04 363.462L403.06 363.422Z" fill="#EBEBEB"/>
<path d="M314.079 414.322L293.579 402.492C292.049 401.602 292.049 400.172 293.579 399.282L376.579 351.362C377.438 350.923 378.389 350.695 379.354 350.695C380.319 350.695 381.27 350.923 382.129 351.362L402.629 363.192C404.159 364.082 404.159 365.512 402.629 366.402L367.999 386.322L319.629 414.322C318.77 414.761 317.819 414.99 316.854 414.99C315.889 414.99 314.938 414.761 314.079 414.322Z" fill="#FAFAFA"/>
<path d="M379.369 351.642C380.158 351.628 380.938 351.81 381.639 352.172L402.139 364.012C402.539 364.242 402.789 364.522 402.789 364.742C402.789 364.962 402.539 365.252 402.139 365.482L367.539 385.482L319.129 413.432C318.421 413.781 317.643 413.962 316.854 413.962C316.065 413.962 315.287 413.781 314.579 413.432L294.079 401.592C293.679 401.362 293.429 401.082 293.429 400.862C293.429 400.642 293.679 400.352 294.079 400.122L377.079 352.192C377.783 351.829 378.567 351.647 379.359 351.662M379.359 350.662C378.391 350.647 377.434 350.877 376.579 351.332L293.579 399.252C292.049 400.142 292.049 401.572 293.579 402.462L314.079 414.322C314.938 414.763 315.889 414.992 316.854 414.992C317.819 414.992 318.77 414.763 319.629 414.322L367.999 386.322L402.599 366.322C404.129 365.432 404.129 364.002 402.599 363.112L382.139 351.322C381.29 350.862 380.335 350.631 379.369 350.652L379.359 350.662Z" fill="#E0E0E0"/>
<path d="M371.831 361.882L373.651 364.492C373.678 364.527 373.698 364.568 373.709 364.611C373.72 364.654 373.723 364.698 373.716 364.742C373.71 364.786 373.694 364.828 373.671 364.866C373.648 364.904 373.618 364.937 373.581 364.962L371.061 367.012C370.651 367.332 371.151 367.842 371.891 367.862L376.551 368.022C376.827 368.026 377.096 368.113 377.321 368.272L380.321 370.582C380.791 370.952 381.711 370.902 381.881 370.502L382.951 367.992C383.009 367.898 383.09 367.819 383.186 367.763C383.282 367.707 383.39 367.676 383.501 367.672L387.851 367.062C388.551 366.962 388.631 366.422 387.991 366.152L383.991 364.442C383.731 364.332 383.571 364.162 383.561 363.992L383.281 361.302C383.281 360.872 382.361 360.592 381.801 360.822L378.231 362.322C377.963 362.398 377.679 362.398 377.411 362.322L372.891 361.322C372.171 361.102 371.541 361.462 371.831 361.882Z" fill="#641EFF"/>
<path d="M356.55 370.782L358.37 373.392C358.397 373.428 358.416 373.469 358.426 373.512C358.436 373.555 358.438 373.6 358.43 373.644C358.423 373.688 358.407 373.73 358.383 373.768C358.358 373.805 358.327 373.837 358.29 373.862L355.77 375.862C355.37 376.192 355.86 376.692 356.6 376.722L361.27 376.882C361.543 376.883 361.809 376.971 362.03 377.132L365.03 379.442C365.5 379.812 366.43 379.762 366.6 379.362L367.67 376.842C367.728 376.751 367.808 376.675 367.902 376.621C367.996 376.567 368.102 376.536 368.21 376.532L372.57 375.912C373.26 375.822 373.34 375.282 372.71 375.012L368.71 373.292C368.606 373.263 368.512 373.206 368.437 373.129C368.361 373.052 368.307 372.957 368.28 372.852L368.01 370.162C367.96 369.732 367.09 369.452 366.52 369.682L362.98 371.142C362.716 371.219 362.435 371.219 362.17 371.142L357.64 370.142C356.88 370.002 356.26 370.322 356.55 370.782Z" fill="#641EFF"/>
<path d="M341.261 379.672L343.081 382.292C343.109 382.327 343.13 382.367 343.142 382.41C343.154 382.453 343.157 382.499 343.15 382.543C343.144 382.587 343.128 382.63 343.104 382.667C343.08 382.705 343.048 382.737 343.011 382.762L340.491 384.762C340.091 385.092 340.581 385.592 341.321 385.622L345.981 385.782C346.257 385.784 346.526 385.871 346.751 386.032L349.751 388.342C350.221 388.702 351.151 388.662 351.321 388.262L352.381 385.742C352.44 385.649 352.521 385.572 352.617 385.518C352.713 385.464 352.821 385.435 352.931 385.432L357.291 384.812C357.981 384.712 358.061 384.182 357.421 383.912L353.421 382.192C353.171 382.082 353.001 381.922 352.991 381.752L352.711 379.062C352.711 378.632 351.791 378.352 351.231 378.582L347.691 380.032C347.428 380.119 347.144 380.119 346.881 380.032L342.351 379.032C341.601 378.902 341.001 379.262 341.261 379.672Z" fill="#641EFF"/>
<path d="M326.001 388.572L327.821 391.192C327.848 391.227 327.868 391.268 327.879 391.311C327.89 391.354 327.893 391.398 327.886 391.442C327.88 391.486 327.864 391.528 327.841 391.566C327.818 391.604 327.787 391.637 327.751 391.662L325.221 393.662C324.821 393.982 325.311 394.492 326.051 394.522L330.721 394.672C330.997 394.68 331.264 394.767 331.491 394.922L334.491 397.242C334.971 397.602 335.891 397.562 336.061 397.162L337.131 394.642C337.187 394.548 337.266 394.469 337.36 394.413C337.455 394.357 337.562 394.326 337.671 394.322L342.031 393.712C342.721 393.612 342.811 393.082 342.171 392.802L338.171 391.092C337.921 390.982 337.761 390.822 337.741 390.652L337.471 387.952C337.471 387.532 336.551 387.242 335.991 387.472L332.451 388.932C332.184 389.013 331.899 389.013 331.631 388.932L327.001 387.962C326.311 387.802 325.691 388.162 326.001 388.572Z" fill="#641EFF"/>
<path d="M310.7 397.472L312.51 400.082C312.539 400.117 312.56 400.157 312.572 400.2C312.584 400.243 312.587 400.289 312.58 400.333C312.573 400.377 312.558 400.42 312.534 400.457C312.51 400.495 312.478 400.528 312.44 400.552L309.92 402.552C309.52 402.872 310.01 403.382 310.75 403.402L315.41 403.562C315.686 403.569 315.954 403.655 316.18 403.812L319.18 406.122C319.65 406.492 320.58 406.442 320.75 406.042L321.81 403.532C321.868 403.438 321.949 403.359 322.045 403.303C322.141 403.247 322.249 403.216 322.36 403.212L326.72 402.602C327.41 402.502 327.49 401.962 326.85 401.692L322.85 399.982C322.747 399.949 322.653 399.891 322.578 399.812C322.503 399.733 322.449 399.637 322.42 399.532L322.14 396.842C322.14 396.412 321.22 396.132 320.66 396.362L317.12 397.822C316.857 397.904 316.574 397.904 316.31 397.822L311.78 396.822C311 396.702 310.41 397.052 310.7 397.472Z" fill="#641EFF"/>
<g opacity="0.5">
<path d="M371.831 361.882L373.651 364.492C373.678 364.527 373.698 364.568 373.709 364.611C373.72 364.654 373.723 364.698 373.716 364.742C373.71 364.786 373.694 364.828 373.671 364.866C373.648 364.904 373.618 364.937 373.581 364.962L371.061 367.012C370.651 367.332 371.151 367.842 371.891 367.862L376.551 368.022C376.827 368.026 377.096 368.113 377.321 368.272L380.321 370.582C380.791 370.952 381.711 370.902 381.881 370.502L382.951 367.992C383.009 367.898 383.09 367.819 383.186 367.763C383.282 367.707 383.39 367.676 383.501 367.672L387.851 367.062C388.551 366.962 388.631 366.422 387.991 366.152L383.991 364.442C383.731 364.332 383.571 364.162 383.561 363.992L383.281 361.302C383.281 360.872 382.361 360.592 381.801 360.822L378.231 362.322C377.963 362.398 377.679 362.398 377.411 362.322L372.891 361.322C372.171 361.102 371.541 361.462 371.831 361.882Z" fill="white"/>
<path d="M356.55 370.782L358.37 373.392C358.397 373.428 358.416 373.469 358.426 373.512C358.436 373.555 358.438 373.6 358.43 373.644C358.423 373.688 358.407 373.73 358.383 373.768C358.358 373.805 358.327 373.837 358.29 373.862L355.77 375.862C355.37 376.192 355.86 376.692 356.6 376.722L361.27 376.882C361.543 376.883 361.809 376.971 362.03 377.132L365.03 379.442C365.5 379.812 366.43 379.762 366.6 379.362L367.67 376.842C367.728 376.751 367.808 376.675 367.902 376.621C367.996 376.567 368.102 376.536 368.21 376.532L372.57 375.912C373.26 375.822 373.34 375.282 372.71 375.012L368.71 373.292C368.606 373.263 368.512 373.206 368.437 373.129C368.361 373.052 368.307 372.957 368.28 372.852L368.01 370.162C367.96 369.732 367.09 369.452 366.52 369.682L362.98 371.142C362.716 371.219 362.435 371.219 362.17 371.142L357.64 370.142C356.88 370.002 356.26 370.322 356.55 370.782Z" fill="white"/>
<path d="M341.261 379.672L343.081 382.292C343.109 382.327 343.13 382.367 343.142 382.41C343.154 382.453 343.157 382.499 343.15 382.543C343.144 382.587 343.128 382.63 343.104 382.667C343.08 382.705 343.048 382.737 343.011 382.762L340.491 384.762C340.091 385.092 340.581 385.592 341.321 385.622L345.981 385.782C346.257 385.784 346.526 385.871 346.751 386.032L349.751 388.342C350.221 388.702 351.151 388.662 351.321 388.262L352.381 385.742C352.44 385.649 352.521 385.572 352.617 385.518C352.713 385.464 352.821 385.435 352.931 385.432L357.291 384.812C357.981 384.712 358.061 384.182 357.421 383.912L353.421 382.192C353.171 382.082 353.001 381.922 352.991 381.752L352.711 379.062C352.711 378.632 351.791 378.352 351.231 378.582L347.691 380.032C347.428 380.119 347.144 380.119 346.881 380.032L342.351 379.032C341.601 378.902 341.001 379.262 341.261 379.672Z" fill="white"/>
<path d="M326.001 388.572L327.821 391.192C327.848 391.227 327.868 391.268 327.879 391.311C327.89 391.354 327.893 391.398 327.886 391.442C327.88 391.486 327.864 391.528 327.841 391.566C327.818 391.604 327.787 391.637 327.751 391.662L325.221 393.662C324.821 393.982 325.311 394.492 326.051 394.522L330.721 394.672C330.997 394.68 331.264 394.767 331.491 394.922L334.491 397.242C334.971 397.602 335.891 397.562 336.061 397.162L337.131 394.642C337.187 394.548 337.266 394.469 337.36 394.413C337.455 394.357 337.562 394.326 337.671 394.322L342.031 393.712C342.721 393.612 342.811 393.082 342.171 392.802L338.171 391.092C337.921 390.982 337.761 390.822 337.741 390.652L337.471 387.952C337.471 387.532 336.551 387.242 335.991 387.472L332.451 388.932C332.184 389.013 331.899 389.013 331.631 388.932L327.001 387.962C326.311 387.802 325.691 388.162 326.001 388.572Z" fill="white"/>
<path d="M310.7 397.472L312.51 400.082C312.539 400.117 312.56 400.157 312.572 400.2C312.584 400.243 312.587 400.289 312.58 400.333C312.573 400.377 312.558 400.42 312.534 400.457C312.51 400.495 312.478 400.528 312.44 400.552L309.92 402.552C309.52 402.872 310.01 403.382 310.75 403.402L315.41 403.562C315.686 403.569 315.954 403.655 316.18 403.812L319.18 406.122C319.65 406.492 320.58 406.442 320.75 406.042L321.81 403.532C321.868 403.438 321.949 403.359 322.045 403.303C322.141 403.247 322.249 403.216 322.36 403.212L326.72 402.602C327.41 402.502 327.49 401.962 326.85 401.692L322.85 399.982C322.747 399.949 322.653 399.891 322.578 399.812C322.503 399.733 322.449 399.637 322.42 399.532L322.14 396.842C322.14 396.412 321.22 396.132 320.66 396.362L317.12 397.822C316.857 397.904 316.574 397.904 316.31 397.822L311.78 396.822C311 396.702 310.41 397.052 310.7 397.472Z" fill="white"/>
</g>
<path d="M369.49 287.473L373.17 285.593L378.31 288.933L377.77 299.113L372.19 304.203L368.51 306.073L369.49 287.473Z" fill="#641EFF"/>
<path opacity="0.1" d="M369.49 287.473L373.17 285.593L378.31 288.933L377.77 299.113L372.19 304.203L368.51 306.073L369.49 287.473Z" fill="black"/>
<path d="M374.63 290.812L374.09 300.992L368.51 306.072L369.49 287.472L374.63 290.812Z" fill="#641EFF"/>
<path opacity="0.1" d="M374.09 300.993L377.77 299.113L372.19 304.203L368.51 306.073L374.09 300.993Z" fill="black"/>
<path d="M388.059 262.733C387.829 267.053 385.349 270.433 382.819 274.623C380.289 278.813 380.099 283.133 379.739 289.953C379.665 290.466 379.456 290.951 379.133 291.357C378.809 291.763 378.383 292.076 377.899 292.263C376.578 292.845 375.138 293.109 373.697 293.032C372.255 292.956 370.851 292.541 369.599 291.823C369.134 291.586 368.74 291.23 368.459 290.79C368.178 290.351 368.019 289.844 367.999 289.323C368.359 282.493 368.579 278.093 366.539 273.753C364.499 269.413 362.349 265.693 362.539 261.373L388.059 262.733Z" fill="#263238"/>
<path d="M388.059 262.733L388.119 261.682L394.469 140.583L394.969 131.113L391.969 130.943L389.529 130.803L384.669 130.543L382.229 130.403L377.359 130.133L372.479 129.863L369.479 129.703L369.319 132.763L362.619 260.513C362.613 260.539 362.613 260.566 362.619 260.592V261.143C362.609 261.168 362.609 261.197 362.619 261.223C362.707 262.142 363.002 263.03 363.482 263.82C363.961 264.609 364.613 265.28 365.389 265.783C365.609 265.953 365.849 266.113 366.089 266.273C367.35 267.074 368.721 267.687 370.159 268.092C371.737 268.556 373.366 268.828 375.009 268.902C378.149 269.132 381.295 268.553 384.149 267.223C386.439 266.033 387.759 264.433 388.059 262.733Z" fill="#37474F"/>
<path d="M370.119 268.092C371.697 268.556 373.326 268.828 374.969 268.902L382.229 130.403L377.359 130.133L372.479 129.863L369.479 129.703L369.319 132.763L362.619 260.513C362.613 260.539 362.613 260.566 362.619 260.592V261.143C362.609 261.168 362.609 261.197 362.619 261.223C362.707 262.142 363.002 263.03 363.482 263.82C363.961 264.609 364.613 265.28 365.389 265.783C365.609 265.953 365.849 266.113 366.089 266.273C367.338 267.07 368.695 267.683 370.119 268.092Z" fill="#455A64"/>
<path opacity="0.2" d="M372.48 129.862L365.35 265.782C365.57 265.952 365.81 266.112 366.05 266.272C367.311 267.074 368.682 267.687 370.12 268.092L377.35 130.142L372.48 129.862Z" fill="white"/>
<path d="M372.939 135.132C375.654 136.693 378.699 137.591 381.826 137.755C384.954 137.918 388.076 137.342 390.939 136.072C396.069 133.462 396.309 128.802 391.489 125.672C388.772 124.116 385.728 123.22 382.602 123.055C379.475 122.89 376.354 123.461 373.489 124.722C368.359 127.322 368.109 131.992 372.939 135.132Z" fill="#E0E0E0"/>
<path d="M391.679 136.542C386.129 139.362 377.409 138.902 372.179 135.542C369.569 133.852 368.339 131.742 368.439 129.702L370.839 84.0125L398.399 85.6024L395.999 131.122C395.909 133.162 394.459 135.122 391.679 136.542Z" fill="#641EFF"/>
<path opacity="0.3" d="M376.999 137.582L379.389 91.9624C377.697 91.5278 376.084 90.8293 374.609 89.8925L372.209 135.512C373.691 136.443 375.306 137.141 376.999 137.582Z" fill="white"/>
<path opacity="0.1" d="M391.68 136.543C394.46 135.123 395.91 133.163 396.01 131.113L398.41 85.5725C398.29 87.5725 396.83 89.5125 394.09 90.9125C391.771 92.0215 389.249 92.641 386.68 92.7325L384.25 138.323C386.824 138.254 389.355 137.648 391.68 136.543Z" fill="black"/>
<path d="M374.578 89.8925C379.798 93.2825 388.528 93.7425 394.078 90.8925C399.628 88.0425 399.888 83.0325 394.668 79.6425C389.448 76.2525 380.718 75.7925 375.168 78.6425C369.618 81.4925 369.358 86.5025 374.578 89.8925Z" fill="#641EFF"/>
<path opacity="0.5" d="M374.578 89.8925C379.798 93.2825 388.528 93.7425 394.078 90.8925C399.628 88.0425 399.888 83.0325 394.668 79.6425C389.448 76.2525 380.718 75.7925 375.168 78.6425C369.618 81.4925 369.358 86.5025 374.578 89.8925Z" fill="white"/>
<path opacity="0.6" d="M375.74 84.2624C375.66 85.5924 376.46 86.9624 378.15 88.0724C380.044 89.1635 382.168 89.792 384.351 89.9067C386.533 90.0214 388.712 89.619 390.71 88.7324C392.48 87.8424 393.41 86.5924 393.51 85.2924C393.61 83.9924 392.8 82.5824 391.1 81.4724C389.204 80.3812 387.078 79.7527 384.894 79.638C382.71 79.5233 380.529 79.9257 378.53 80.8124C376.77 81.7124 375.83 82.9724 375.74 84.2624ZM378.41 84.4224C378.493 83.8846 378.716 83.378 379.057 82.9533C379.397 82.5286 379.843 82.2008 380.35 82.0024C381.75 81.3828 383.276 81.1016 384.805 81.1815C386.334 81.2614 387.822 81.7002 389.15 82.4624C389.673 82.6695 390.118 83.0355 390.422 83.5088C390.726 83.982 390.875 84.5388 390.846 85.1007C390.817 85.6626 390.613 86.2013 390.262 86.6411C389.911 87.0809 389.431 87.3996 388.89 87.5524C387.489 88.1697 385.962 88.4488 384.434 88.3672C382.905 88.2855 381.417 87.8454 380.09 87.0824C379.595 86.8327 379.178 86.4533 378.882 85.9849C378.586 85.5164 378.423 84.9764 378.41 84.4224Z" fill="#641EFF"/>
<path d="M388.609 101.912L388.759 99.1024L391.119 100.632L390.979 103.452L388.609 101.912Z" fill="#641EFF"/>
<path d="M392.39 140.643L390 139.103C389.695 138.864 389.459 138.548 389.317 138.187C389.174 137.827 389.13 137.435 389.19 137.053L391.1 100.653L398.64 96.8225L396.72 133.213C396.605 134.292 396.237 135.329 395.647 136.239C395.056 137.15 394.259 137.908 393.32 138.453L393.04 138.593L393.33 138.763L392.39 140.643Z" fill="#641EFF"/>
<path d="M394.599 140.533L395.709 139.963C396.649 139.419 397.447 138.661 398.038 137.751C398.629 136.84 398.996 135.802 399.109 134.723L400.999 98.3225L393.469 102.163L391.549 138.553C391.489 140.563 392.829 141.433 394.599 140.533Z" fill="#641EFF"/>
<path opacity="0.15" d="M394.599 140.533L395.709 139.963C396.649 139.419 397.447 138.661 398.038 137.751C398.629 136.84 398.996 135.802 399.109 134.723L400.999 98.3225L393.469 102.163L391.549 138.553C391.489 140.563 392.829 141.433 394.599 140.533Z" fill="black"/>
<path d="M396.29 95.2625L388.76 99.1024L393.49 102.162L401.02 98.3324L396.29 95.2625Z" fill="#641EFF"/>
<path opacity="0.2" d="M396.29 95.2625L388.76 99.1024L393.49 102.162L401.02 98.3324L396.29 95.2625Z" fill="black"/>
<defs>
<filter id="filter0_d_923_3682" x="0" y="126.322" width="507.432" height="301.481" filterUnits="userSpaceOnUse" color-interpolation-filters="sRGB">
<feFlood flood-opacity="0" result="BackgroundImageFix"/>
<feColorMatrix in="SourceAlpha" type="matrix" values="0 0 0 0 0 0 0 0 0 0 0 0 0 0 0 0 0 0 127 0" result="hardAlpha"/>
<feOffset dy="1"/>
<feGaussianBlur stdDeviation="5"/>
<feComposite in2="hardAlpha" operator="out"/>
<feColorMatrix type="matrix" values="0 0 0 0 0.164706 0 0 0 0 0.0666667 0 0 0 0 0.376471 0 0 0 0.2 0"/>
<feBlend mode="normal" in2="BackgroundImageFix" result="effect1_dropShadow_923_3682"/>
<feBlend mode="normal" in="SourceGraphic" in2="effect1_dropShadow_923_3682" result="shape"/>
</filter>
</defs>
</svg>
