<svg width="1085" height="1085" viewBox="0 0 1085 1085" fill="none" xmlns="http://www.w3.org/2000/svg">
<path d="M485.821 1015.73C477.141 1015.84 468.585 1013.68 460.996 1009.46L149.406 829.569C138.729 823.406 132.371 813.077 132.371 801.945C132.371 790.813 138.729 780.483 149.406 774.321L635.486 493.696C643.113 489.581 651.644 487.426 660.31 487.426C668.977 487.426 677.508 489.581 685.135 493.696L996.725 673.611C1007.38 679.774 1013.74 690.081 1013.74 701.235C1013.74 712.389 1007.38 722.696 996.725 728.838L510.645 1009.46C503.057 1013.68 494.5 1015.84 485.821 1015.73Z" fill="#E0E0E0"/>
<path d="M210.489 96.0004L200.919 99.8196L199.791 81.3529C198.901 66.7271 185.208 63.9929 171.017 72.2389C156.803 80.4198 146.018 98.9516 146.908 113.599L147.082 116.268C144.988 115.843 142.832 115.834 140.735 116.244C138.639 116.654 136.644 117.473 134.864 118.655C124.644 124.579 116.897 137.903 117.504 148.449V149.665L104.484 157.238C97.7574 161.122 92.6579 169.911 93.0702 176.768C93.4825 183.625 99.2981 186.186 106.09 182.301L211.921 121.129C218.648 117.223 223.769 108.456 223.357 101.599C222.945 94.7418 217.129 92.0944 210.489 96.0004Z" fill="#F0F0F0"/>
<path d="M332.464 124.492L315.451 134.344C315.494 133.672 315.494 132.998 315.451 132.326L315.169 127.986C314.691 120.152 308.16 117.375 300.565 121.78C297.38 123.695 294.643 126.27 292.536 129.332C290.648 119.567 281.49 116.442 270.988 122.518C259.617 129.028 251.002 143.936 251.718 155.675L252.109 162.185C252.176 164.84 252.923 167.432 254.279 169.715L240.282 177.94C238.157 179.226 236.389 181.023 235.138 183.169C233.887 185.314 233.194 187.739 233.121 190.222C233.403 194.562 237.027 196.124 241.237 193.672L333.418 140.29C335.559 139.017 337.346 137.228 338.616 135.086C339.886 132.944 340.598 130.518 340.688 128.03C340.297 123.69 336.674 122.062 332.464 124.492Z" fill="#F0F0F0"/>
<path d="M147.427 743.703C147.427 743.703 153.634 702.126 141.937 665.453C130.241 628.78 107.89 601.85 82.7181 592.931C57.5461 584.013 30.3777 602.132 53.5967 625.742C76.8157 649.351 121.257 679.037 127.485 745.873L147.427 743.703Z" fill="#641EFF"/>
<path opacity="0.65" d="M147.427 743.703C147.427 743.703 153.634 702.126 141.937 665.453C130.241 628.78 107.89 601.85 82.7181 592.931C57.5461 584.013 30.3777 602.132 53.5967 625.742C76.8157 649.351 121.257 679.037 127.485 745.873L147.427 743.703Z" fill="white"/>
<path d="M142.676 731.291C142.776 731.312 142.88 731.312 142.98 731.291C143.353 731.242 143.691 731.048 143.923 730.752C144.154 730.456 144.26 730.08 144.217 729.707C134.951 655.558 90.7262 613.807 68.6356 602.089C68.4689 601.974 68.2797 601.896 68.0805 601.859C67.8814 601.823 67.6767 601.829 67.4802 601.878C67.2836 601.926 67.0995 602.016 66.94 602.14C66.7806 602.265 66.6494 602.422 66.5552 602.602C66.461 602.781 66.4058 602.978 66.3933 603.18C66.3809 603.382 66.4114 603.585 66.4829 603.774C66.5544 603.963 66.6653 604.135 66.8082 604.279C66.9511 604.422 67.1228 604.534 67.3119 604.606C89.0119 616.085 132.282 657.077 141.396 730.054C141.434 730.376 141.583 730.674 141.816 730.9C142.049 731.125 142.353 731.263 142.676 731.291Z" fill="white"/>
<path d="M18.9212 684.766C19.7458 690.321 24.4113 694.379 28.8815 697.786C33.3517 701.192 38.1691 704.903 39.5796 710.328C42.4223 721.178 29.7495 732.028 33.0696 742.878C33.928 745.097 35.2286 747.119 36.8923 748.82C38.5561 750.521 40.5482 751.866 42.7478 752.773C46.2849 754.509 50.1041 755.573 53.7931 756.961C55.6111 757.415 57.4507 757.777 59.3049 758.046C64.7082 758.741 70.437 760.065 74.4949 764.057C80.8313 770.35 80.4841 780.463 83.0013 789.034C86.0176 799.298 90.7048 808.456 100.058 813.512C108.765 817.905 118.624 819.483 128.268 818.025L163.508 797.671C175.27 794.09 175.791 782.98 176.116 770.828C176.017 759.119 171.596 747.86 163.704 739.211C158.766 734.144 153.07 729.876 146.821 726.56C143.566 724.694 139.812 723.24 137.599 720.05C135.933 717.145 135.016 713.871 134.929 710.523C134.728 706.688 134.161 702.881 133.237 699.153C131.877 695.368 130 691.79 127.66 688.52C125.236 684.869 121.73 682.069 117.635 680.512C111.533 678.08 105.132 676.482 98.6036 675.76C90.3359 674.87 81.3521 677.171 73.3014 674.523C65.2507 671.876 58.3067 667.666 50.0607 665.952C41.3807 664.194 31.7893 665.366 24.9321 671.29C22.8947 672.864 21.2792 674.919 20.2303 677.271C19.1813 679.623 18.7316 682.198 18.9212 684.766Z" fill="#641EFF"/>
<path opacity="0.25" d="M18.9212 684.766C19.7458 690.321 24.4113 694.379 28.8815 697.786C33.3517 701.192 38.1691 704.903 39.5796 710.328C42.4223 721.178 29.7495 732.028 33.0696 742.878C33.928 745.097 35.2286 747.119 36.8923 748.82C38.5561 750.521 40.5482 751.866 42.7478 752.773C46.2849 754.509 50.1041 755.573 53.7931 756.961C55.6111 757.415 57.4507 757.777 59.3049 758.046C64.7082 758.741 70.437 760.065 74.4949 764.057C80.8313 770.35 80.4841 780.463 83.0013 789.034C86.0176 799.298 90.7048 808.456 100.058 813.512C108.765 817.905 118.624 819.483 128.268 818.025L163.508 797.671C175.27 794.09 175.791 782.98 176.116 770.828C176.017 759.119 171.596 747.86 163.704 739.211C158.766 734.144 153.07 729.876 146.821 726.56C143.566 724.694 139.812 723.24 137.599 720.05C135.933 717.145 135.016 713.871 134.929 710.523C134.728 706.688 134.161 702.881 133.237 699.153C131.877 695.368 130 691.79 127.66 688.52C125.236 684.869 121.73 682.069 117.635 680.512C111.533 678.08 105.132 676.482 98.6036 675.76C90.3359 674.87 81.3521 677.171 73.3014 674.523C65.2507 671.876 58.3067 667.666 50.0607 665.952C41.3807 664.194 31.7893 665.366 24.9321 671.29C22.8947 672.864 21.2792 674.919 20.2303 677.271C19.1813 679.623 18.7316 682.198 18.9212 684.766Z" fill="white"/>
<path d="M120.37 735.935C120.173 735.603 119.955 735.285 119.719 734.98C96.4997 700.542 58.1775 684.875 45.5698 682.314C45.4074 682.283 45.2403 682.283 45.0782 682.317C44.9161 682.35 44.7621 682.414 44.625 682.507C44.488 682.6 44.3705 682.719 44.2794 682.857C44.1884 682.995 44.1254 683.15 44.0942 683.312C44.0595 683.473 44.0573 683.64 44.0878 683.802C44.1183 683.964 44.1808 684.118 44.2718 684.256C44.3628 684.393 44.4803 684.511 44.6175 684.602C44.7547 684.694 44.9088 684.757 45.0707 684.788C56.984 687.218 92.5937 701.67 115.444 733.244C106.589 729.766 97.1136 728.145 87.606 728.481C78.0985 728.817 68.7613 731.103 60.1739 735.197C59.9421 735.331 59.7591 735.535 59.6514 735.78C59.5437 736.025 59.517 736.298 59.575 736.56C59.6331 736.821 59.773 737.057 59.9743 737.233C60.1757 737.41 60.428 737.517 60.6947 737.541C60.9502 737.564 61.2069 737.511 61.4325 737.389C61.6712 737.237 86.713 723.392 118.048 737.02C129.967 755.006 136.101 776.208 135.625 797.78C135.618 798.099 135.733 798.409 135.947 798.647C136.16 798.885 136.456 799.033 136.775 799.06C136.941 799.066 137.106 799.038 137.262 798.979C137.417 798.919 137.558 798.829 137.678 798.713C137.797 798.598 137.892 798.46 137.957 798.307C138.022 798.154 138.055 797.989 138.055 797.823C138.575 775.877 132.407 754.292 120.37 735.935Z" fill="white"/>
<path d="M147.559 788.057C147.559 796.021 153.526 805.917 160.882 810.17L472.473 990.063C476.597 992.159 481.159 993.252 485.786 993.252C490.413 993.252 494.974 992.159 499.099 990.063L985.179 709.438C992.535 705.098 998.481 695.29 998.481 687.326C998.481 679.362 992.535 669.467 985.179 665.235L673.567 485.321C669.446 483.225 664.888 482.132 660.264 482.132C655.641 482.132 651.083 483.225 646.962 485.321L160.904 766.01C153.548 770.198 147.559 780.094 147.559 788.057Z" fill="#37474F"/>
<path d="M160.904 781.33L472.494 961.31C476.619 963.393 481.175 964.478 485.796 964.478C490.417 964.478 494.974 963.393 499.098 961.31L985.178 680.599C992.535 676.368 992.535 669.467 985.178 665.235L673.566 485.321C669.446 483.225 664.888 482.132 660.264 482.132C655.641 482.132 651.083 483.225 646.962 485.321L160.904 766.01C153.548 770.198 153.548 777.077 160.904 781.33Z" fill="#455A64"/>
<path d="M485.82 964.435V993.253C481.188 993.354 476.607 992.263 472.518 990.085L160.906 810.17C153.55 805.83 147.582 796.022 147.582 788.058C147.582 780.593 152.833 771.436 159.539 766.813C153.571 771.153 154.049 777.36 160.906 781.331L472.518 961.311C476.611 963.474 481.191 964.55 485.82 964.435Z" fill="#263238"/>
<path d="M135.104 766.423C128.203 762.452 128.594 755.725 128.594 747.24V366.557C128.847 361.939 130.186 357.445 132.501 353.441C134.816 349.437 138.042 346.035 141.918 343.511L627.954 62.9303C635.311 58.5903 646.009 58.5903 652.237 63.603C658.465 68.6157 660.287 73.151 660.287 81.6357V462.21C660.036 466.829 658.701 471.325 656.39 475.332C654.079 479.339 650.857 482.746 646.985 485.277L160.905 766.01C153.549 770.198 142.004 770.35 135.104 766.423Z" fill="#37474F"/>
<path d="M660.287 81.5928C660.287 73.1081 654.32 69.6795 646.985 73.8893L160.905 354.557C156.955 357.023 153.711 360.469 151.487 364.561L132.5 353.516C134.746 349.452 137.987 346.025 141.918 343.555L627.954 62.9308C635.311 58.6993 646.031 58.5908 652.237 63.6252C658.443 68.6596 660.287 73.1081 660.287 81.5928Z" fill="#455A64"/>
<path d="M159.321 766.749C151.986 770.199 141.527 770.134 135.103 766.423C128.224 762.452 128.593 755.725 128.593 747.24V366.557C128.76 361.954 130.104 357.471 132.499 353.537L151.487 364.561C149.11 368.503 147.767 372.981 147.581 377.581V758.264C147.559 766.141 152.724 769.678 159.321 766.749Z" fill="#263238"/>
<path d="M168.068 369.898L635.811 99.8202C640.151 97.2813 643.797 99.3428 643.797 104.421V458.543C643.644 461.312 642.842 464.006 641.455 466.408C640.067 468.809 638.134 470.85 635.811 472.366L168.068 742.357C163.728 744.896 160.082 742.835 160.082 737.735V383.721C160.229 380.951 161.03 378.255 162.417 375.852C163.805 373.45 165.741 371.41 168.068 369.898Z" fill="black"/>
<path d="M168.068 369.898C165.741 371.41 163.805 373.45 162.417 375.852C161.03 378.254 160.229 380.951 160.082 383.721V731.572L622.487 464.662C624.818 463.153 626.758 461.114 628.15 458.712C629.541 456.309 630.345 453.612 630.495 450.839V102.988L168.068 369.898Z" fill="#263238"/>
<path d="M202.006 768.18L648.7 510.319C650.644 509.335 652.793 508.822 654.971 508.822C657.15 508.822 659.299 509.335 661.243 510.319L677.518 519.455C680.99 521.451 680.99 524.706 677.518 526.702L230.78 784.542C228.832 785.526 226.68 786.039 224.498 786.039C222.315 786.039 220.163 785.526 218.216 784.542L202.006 775.449C198.555 773.453 198.555 770.22 202.006 768.18Z" fill="#263238"/>
<path d="M245.881 794.091L692.553 536.186C694.286 535.195 696.227 534.624 698.221 534.519C700.214 534.413 702.205 534.776 704.033 535.578L820.258 602.697C823.144 604.346 822.645 607.319 819.173 609.315L373.043 866.851C371.312 867.847 369.373 868.424 367.38 868.537C365.387 868.65 363.395 868.296 361.563 867.502L244.817 800.731C241.931 799.038 242.409 796.087 245.881 794.091Z" fill="#263238"/>
<path d="M632.925 644.49L646.922 636.418C647.508 636.071 647.573 635.55 647.03 635.246L633.641 627.543C633.327 627.375 632.977 627.288 632.621 627.288C632.266 627.288 631.915 627.375 631.602 627.543L617.627 635.615C617.019 635.962 616.976 636.483 617.496 636.787L630.885 644.512C631.201 644.676 631.552 644.759 631.908 644.756C632.264 644.752 632.613 644.661 632.925 644.49ZM612.506 616.562L598.531 624.635C597.945 624.96 597.88 625.503 598.401 625.807L611.789 633.532C612.107 633.687 612.456 633.768 612.809 633.768C613.163 633.768 613.512 633.687 613.829 633.532L627.804 625.438C628.39 625.112 628.455 624.57 627.934 624.266L614.545 616.541C614.228 616.38 613.876 616.3 613.52 616.308C613.164 616.315 612.816 616.41 612.506 616.584V616.562ZM567.326 642.602L543.673 656.252C543.065 656.599 543.022 657.12 543.543 657.423L556.932 665.149C557.243 665.312 557.589 665.397 557.941 665.397C558.292 665.397 558.639 665.312 558.95 665.149L582.625 651.499C583.21 651.152 583.276 650.631 582.733 650.306L569.366 642.581C569.045 642.427 568.691 642.354 568.335 642.369C567.979 642.384 567.633 642.487 567.326 642.667V642.602ZM592.064 628.302L578.089 636.374C577.503 636.722 577.438 637.242 577.959 637.546L591.348 645.271C591.662 645.439 592.012 645.526 592.368 645.526C592.724 645.526 593.074 645.439 593.388 645.271L607.363 637.199C607.97 636.852 608.014 636.331 607.493 636.027L594.104 628.302C593.781 628.157 593.43 628.087 593.076 628.098C592.723 628.11 592.377 628.202 592.064 628.367V628.302ZM537.207 659.984L523.232 668.056C522.624 668.404 522.581 668.924 523.102 669.228L536.49 676.953C536.802 677.117 537.148 677.202 537.499 677.202C537.851 677.202 538.197 677.117 538.509 676.953L552.505 668.881C553.091 668.534 553.156 668.013 552.505 667.709L539.138 659.984C538.833 659.845 538.5 659.778 538.165 659.79C537.829 659.801 537.501 659.89 537.207 660.049V659.984ZM516.765 671.789L502.79 679.861C502.183 680.208 502.139 680.729 502.66 681.033L516.049 688.758C516.36 688.922 516.707 689.007 517.058 689.007C517.41 689.007 517.756 688.922 518.067 688.758L532.064 680.686C532.65 680.339 532.715 679.818 532.172 679.514L518.805 671.789C518.486 671.632 518.133 671.555 517.777 671.567C517.421 671.578 517.074 671.677 516.765 671.854V671.789ZM569.214 703.319L583.189 695.225C583.796 694.899 583.84 694.357 583.319 694.053L569.93 686.328C569.619 686.164 569.273 686.079 568.921 686.079C568.569 686.079 568.223 686.164 567.912 686.328L553.915 694.4C553.33 694.747 553.264 695.268 553.915 695.572L567.283 703.297C567.58 703.45 567.906 703.536 568.239 703.551C568.572 703.566 568.905 703.509 569.214 703.384V703.319ZM548.773 715.102L562.747 707.03C563.355 706.682 563.398 706.162 562.878 705.858L549.489 698.133C549.175 697.978 548.83 697.897 548.48 697.897C548.13 697.897 547.784 697.978 547.471 698.133L533.474 706.227C532.888 706.552 532.823 707.095 533.366 707.398L546.733 715.124C547.043 715.298 547.392 715.393 547.747 715.4C548.103 715.408 548.455 715.328 548.773 715.167V715.102ZM528.331 726.95L542.306 718.878C542.914 718.531 542.957 718.01 542.436 717.706L529.047 709.981C528.734 709.826 528.388 709.745 528.038 709.745C527.688 709.745 527.343 709.826 527.029 709.981L513.033 718.053C512.447 718.4 512.382 718.921 513.033 719.225L526.4 726.95C526.7 727.099 527.03 727.177 527.366 727.177C527.701 727.177 528.031 727.099 528.331 726.95ZM507.89 738.755L521.886 730.683C522.472 730.335 522.516 729.815 521.995 729.511L508.606 721.786C508.295 721.622 507.948 721.537 507.597 721.537C507.245 721.537 506.899 721.622 506.588 721.786L492.591 729.945C492.005 730.292 491.94 730.813 492.483 731.117L505.85 738.842C506.169 738.999 506.522 739.075 506.878 739.064C507.234 739.053 507.581 738.954 507.89 738.777V738.755ZM612.506 656.295L626.48 648.223C627.066 647.875 627.131 647.355 626.611 647.051L613.222 639.326C612.908 639.158 612.557 639.071 612.202 639.071C611.846 639.071 611.496 639.158 611.182 639.326L597.207 647.398C596.599 647.745 596.556 648.266 597.077 648.57L610.466 656.295C610.778 656.466 611.127 656.557 611.483 656.561C611.839 656.564 612.19 656.481 612.506 656.317V656.295ZM589.655 691.579L620.86 673.568C621.446 673.221 621.489 672.7 620.969 672.396L588.419 653.626C588.105 653.459 587.754 653.371 587.399 653.371C587.043 653.371 586.693 653.459 586.379 653.626L570.234 662.957C569.648 663.282 569.605 663.825 570.125 664.129L587.334 674.046C587.854 674.349 587.789 674.892 587.203 675.217L574.292 682.682C573.706 683.029 573.641 683.55 574.183 683.854L587.551 691.579C587.877 691.745 588.237 691.831 588.603 691.831C588.969 691.831 589.329 691.745 589.655 691.579ZM496.345 683.659L482.371 691.731C481.763 692.078 481.72 692.599 482.24 692.903L495.629 700.628C495.941 700.792 496.287 700.877 496.638 700.877C496.99 700.877 497.336 700.792 497.647 700.628L511.644 692.556C512.23 692.208 512.295 691.688 511.644 691.384L498.364 683.55C498.041 683.399 497.686 683.331 497.33 683.349C496.974 683.368 496.629 683.475 496.324 683.659H496.345ZM475.904 695.463L461.929 703.536C461.322 703.883 461.278 704.404 461.799 704.708L475.188 712.433C475.502 712.588 475.847 712.669 476.197 712.669C476.547 712.669 476.892 712.588 477.206 712.433L491.202 704.361C491.788 704.013 491.854 703.471 491.311 703.167L477.944 695.442C477.625 695.274 477.27 695.188 476.91 695.192C476.55 695.196 476.197 695.289 475.882 695.463H475.904ZM362.804 821.454C363.115 821.617 363.461 821.703 363.813 821.703C364.164 821.703 364.51 821.617 364.822 821.454L378.818 813.381C379.404 813.034 379.469 812.513 378.927 812.21L365.56 804.484C365.246 804.317 364.895 804.23 364.54 804.23C364.184 804.23 363.834 804.317 363.52 804.484L349.545 812.557C348.937 812.904 348.894 813.425 349.415 813.728L362.804 821.454ZM312.481 789.88L298.485 797.953C297.899 798.3 297.834 798.821 298.376 799.146L311.744 806.85C312.057 807.017 312.408 807.104 312.763 807.104C313.119 807.104 313.469 807.017 313.783 806.85L327.758 798.777C328.366 798.43 328.409 797.909 327.888 797.605L314.391 789.88C314.092 789.742 313.766 789.67 313.436 789.67C313.106 789.67 312.781 789.742 312.481 789.88ZM338.391 813.555C338.709 813.71 339.058 813.791 339.411 813.791C339.765 813.791 340.113 813.71 340.431 813.555L354.406 805.461C354.992 805.135 355.057 804.593 354.536 804.289L341.039 796.39C340.725 796.223 340.374 796.136 340.019 796.136C339.663 796.136 339.313 796.223 338.999 796.39L325.024 804.463C324.438 804.788 324.373 805.331 324.894 805.634L338.391 813.555ZM394.811 826.228L408.786 818.155C409.394 817.808 409.437 817.287 408.916 816.983L395.527 809.258C395.216 809.095 394.87 809.009 394.518 809.009C394.167 809.009 393.82 809.095 393.509 809.258L379.513 817.331C378.927 817.678 378.862 818.199 379.404 818.503L392.771 826.228C393.07 826.37 393.398 826.442 393.729 826.438C394.06 826.434 394.385 826.355 394.681 826.206L394.811 826.228ZM372.33 838.098C372.644 838.265 372.994 838.352 373.35 838.352C373.706 838.352 374.056 838.265 374.37 838.098L388.345 830.025C388.952 829.678 388.996 829.157 388.475 828.853L375.086 821.128C374.775 820.965 374.428 820.879 374.077 820.879C373.725 820.879 373.379 820.965 373.068 821.128L359.071 829.201C358.485 829.548 358.42 830.069 359.071 830.372L372.33 838.098ZM332.944 778.097L318.948 786.17C318.362 786.495 318.297 787.037 318.818 787.341L332.207 795.067C332.521 795.234 332.871 795.321 333.226 795.321C333.582 795.321 333.932 795.234 334.246 795.067L348.221 786.994C348.829 786.669 348.872 786.126 348.351 785.822L334.963 778.097C334.637 777.907 334.268 777.806 333.891 777.802C333.515 777.798 333.143 777.892 332.814 778.075L332.944 778.097ZM435.13 719.073L420.981 727.124C420.374 727.471 420.33 727.992 420.851 728.296L434.24 736.021C434.551 736.184 434.898 736.27 435.249 736.27C435.601 736.27 435.947 736.184 436.258 736.021L450.255 727.948C450.841 727.601 450.906 727.08 450.385 726.777L436.996 719.051C436.684 718.903 436.343 718.826 435.998 718.826C435.652 718.826 435.311 718.903 435 719.051L435.13 719.073ZM353.364 766.292L339.389 774.365C338.803 774.712 338.738 775.233 339.259 775.537L352.648 783.262C352.966 783.417 353.314 783.498 353.668 783.498C354.021 783.498 354.37 783.417 354.688 783.262L368.663 775.189C369.27 774.842 369.314 774.321 368.793 773.996L355.404 766.271C355.074 766.08 354.7 765.98 354.319 765.98C353.938 765.98 353.564 766.08 353.234 766.271L353.364 766.292ZM455.571 707.268L441.596 715.362C440.989 715.688 440.945 716.23 441.466 716.534L454.855 724.259C455.166 724.423 455.512 724.508 455.864 724.508C456.216 724.508 456.562 724.423 456.873 724.259L470.87 716.187C471.456 715.862 471.521 715.319 470.87 715.015L457.502 707.29C457.185 707.124 456.834 707.034 456.477 707.027C456.119 707.019 455.765 707.095 455.441 707.247L455.571 707.268ZM414.471 730.856L400.496 738.929C399.889 739.276 399.846 739.797 400.366 740.1L413.755 747.826C414.069 747.993 414.419 748.08 414.775 748.08C415.131 748.08 415.481 747.993 415.795 747.826L429.77 739.753C430.356 739.406 430.421 738.885 429.9 738.581L416.641 730.791C416.306 730.61 415.928 730.521 415.548 730.533C415.167 730.544 414.795 730.656 414.471 730.856ZM394.03 742.661L380.142 750.82C379.534 751.167 379.491 751.688 380.012 751.992L393.401 759.717C393.715 759.884 394.065 759.972 394.42 759.972C394.776 759.972 395.126 759.884 395.44 759.717L409.415 751.645C410.001 751.298 410.066 750.777 409.545 750.473L396.156 742.748C395.85 742.567 395.503 742.465 395.147 742.45C394.792 742.434 394.438 742.507 394.117 742.661H394.03ZM373.589 754.466L359.614 762.538C359.028 762.885 358.963 763.406 359.484 763.71L372.872 771.435C373.186 771.602 373.537 771.69 373.892 771.69C374.248 771.69 374.598 771.602 374.912 771.435L388.887 763.363C389.473 763.016 389.538 762.495 389.017 762.191L375.628 754.466C375.325 754.313 374.991 754.234 374.652 754.234C374.313 754.234 373.978 754.313 373.675 754.466H373.589ZM466.899 762.386L480.895 754.314C481.481 753.967 481.524 753.446 481.004 753.142L467.636 745.417C467.322 745.25 466.972 745.162 466.616 745.162C466.261 745.162 465.91 745.25 465.596 745.417L451.6 753.489C451.014 753.837 450.971 754.357 451.6 754.661L464.967 762.386C465.281 762.553 465.631 762.641 465.987 762.641C466.343 762.641 466.693 762.553 467.007 762.386H466.899ZM657.598 590.479L643.602 598.551C643.016 598.898 642.951 599.419 643.493 599.745L656.86 607.47C657.174 607.637 657.525 607.725 657.88 607.725C658.236 607.725 658.586 607.637 658.9 607.47L672.875 599.398C673.482 599.05 673.526 598.53 673.005 598.226L659.681 590.414C659.368 590.276 659.028 590.21 658.686 590.221C658.345 590.232 658.01 590.321 657.707 590.479H657.598ZM632.838 604.779L618.864 612.852C618.256 613.199 618.213 613.72 618.733 614.023L632.122 621.749C632.44 621.904 632.789 621.985 633.142 621.985C633.496 621.985 633.845 621.904 634.162 621.749L648.137 613.676C648.723 613.329 648.788 612.808 648.267 612.483L634.878 604.758C634.576 604.612 634.245 604.538 633.91 604.542C633.575 604.545 633.245 604.627 632.947 604.779H632.838ZM678.039 578.739L664.043 586.812C663.457 587.137 663.392 587.68 663.934 587.983L677.302 595.709C677.616 595.876 677.966 595.963 678.322 595.963C678.677 595.963 679.028 595.876 679.341 595.709L693.316 587.636C693.924 587.311 693.967 586.768 693.447 586.464L680.058 578.739C679.764 578.587 679.439 578.504 679.108 578.496C678.777 578.489 678.449 578.557 678.148 578.696L678.039 578.739ZM565.156 683.55L579.153 675.478C579.739 675.131 579.782 674.61 579.261 674.306L565.894 666.581C565.576 666.426 565.228 666.345 564.874 666.345C564.521 666.345 564.172 666.426 563.854 666.581L549.858 674.87C549.272 675.217 549.228 675.738 549.858 676.042L563.225 683.767C563.541 683.884 563.881 683.925 564.216 683.887C564.551 683.849 564.873 683.734 565.156 683.55ZM700.607 566.717C700.296 566.554 699.95 566.469 699.598 566.469C699.247 566.469 698.901 566.554 698.589 566.717L684.593 575.05C684.007 575.397 683.942 575.918 684.484 576.222L697.852 583.947C698.169 584.102 698.518 584.183 698.872 584.183C699.225 584.183 699.574 584.102 699.891 583.947L713.866 575.875C714.474 575.528 714.517 575.007 713.996 574.681L700.607 566.717ZM487.448 750.495L501.445 742.422C502.031 742.075 502.074 741.554 501.445 741.251L488.251 733.612C487.94 733.449 487.594 733.363 487.242 733.363C486.891 733.363 486.544 733.449 486.233 733.612L472.237 741.685C471.651 742.032 471.607 742.552 472.128 742.856L485.495 750.582C485.798 750.734 486.133 750.814 486.472 750.814C486.811 750.814 487.146 750.734 487.448 750.582V750.495ZM738.105 605.864L752.102 597.792C752.688 597.445 752.753 596.924 752.21 596.62L738.843 588.895C738.529 588.728 738.179 588.64 737.823 588.64C737.467 588.64 737.117 588.728 736.803 588.895L722.828 596.967C722.221 597.314 722.177 597.835 722.698 598.139L736.087 605.864C736.398 606.028 736.745 606.113 737.096 606.113C737.448 606.113 737.794 606.028 738.105 605.864ZM698.568 606.624L712.542 598.551C713.128 598.204 713.194 597.683 712.673 597.38L699.284 589.654C698.97 589.487 698.62 589.4 698.264 589.4C697.908 589.4 697.558 589.487 697.244 589.654L683.269 597.727C682.683 598.074 682.618 598.595 683.139 598.898L696.528 606.624C696.842 606.791 697.192 606.878 697.548 606.878C697.904 606.878 698.254 606.791 698.568 606.624ZM719.725 577.85C719.411 577.682 719.061 577.595 718.705 577.595C718.35 577.595 717.999 577.682 717.685 577.85L703.711 585.9C703.125 586.247 703.06 586.768 703.58 587.072L716.969 594.797C717.283 594.964 717.634 595.052 717.989 595.052C718.345 595.052 718.695 594.964 719.009 594.797L732.984 586.725C733.57 586.378 733.635 585.857 733.114 585.553L719.725 577.85ZM724.065 575.376L756.615 594.125C756.926 594.288 757.273 594.373 757.624 594.373C757.976 594.373 758.322 594.288 758.633 594.125L772.521 585.9C773.107 585.553 773.172 585.032 772.63 584.728L740.08 565.958C739.762 565.803 739.413 565.722 739.06 565.722C738.706 565.722 738.358 565.803 738.04 565.958L724.065 574.03C723.544 574.529 723.501 575.05 724.022 575.376H724.065ZM676.803 601.524L662.828 609.597C662.242 609.944 662.177 610.465 662.698 610.768L676.087 618.494C676.4 618.661 676.751 618.748 677.106 618.748C677.462 618.748 677.812 618.661 678.126 618.494L692.101 610.421C692.709 610.074 692.752 609.553 692.231 609.249L678.842 601.524C678.528 601.357 678.178 601.27 677.822 601.27C677.467 601.27 677.117 601.357 676.803 601.524ZM522.971 690.342L508.997 698.415C508.389 698.762 508.346 699.283 508.866 699.587L522.255 707.312C522.566 707.475 522.913 707.561 523.264 707.561C523.616 707.561 523.962 707.475 524.273 707.312L538.27 699.239C538.856 698.892 538.921 698.371 538.27 698.068L524.903 690.342C524.603 690.193 524.272 690.116 523.937 690.116C523.602 690.116 523.271 690.193 522.971 690.342ZM715.646 617.734C715.959 617.889 716.305 617.97 716.655 617.97C717.005 617.97 717.35 617.889 717.664 617.734L731.66 609.64C732.246 609.315 732.311 608.772 731.79 608.468L718.402 600.743C718.088 600.576 717.737 600.488 717.382 600.488C717.026 600.488 716.676 600.576 716.362 600.743L702.387 608.815C701.779 609.163 701.736 609.683 702.257 609.987L715.646 617.734ZM543.413 678.494L529.481 686.61C528.895 686.957 528.852 687.478 529.373 687.782L542.762 695.507C543.073 695.67 543.419 695.756 543.771 695.756C544.122 695.756 544.469 695.67 544.78 695.507L558.776 687.435C559.362 687.087 559.427 686.567 558.776 686.263L545.409 678.538C545.101 678.378 544.758 678.294 544.411 678.294C544.064 678.294 543.721 678.378 543.413 678.538V678.494ZM383.223 809.649C383.535 809.812 383.881 809.898 384.232 809.898C384.584 809.898 384.93 809.812 385.241 809.649L399.238 801.577C399.824 801.229 399.889 800.709 399.346 800.405L385.979 792.68C385.665 792.512 385.315 792.425 384.959 792.425C384.604 792.425 384.253 792.512 383.939 792.68L369.965 800.73C369.357 801.077 369.314 801.598 369.834 801.902L383.223 809.649ZM359.353 784.759L345.379 792.831C344.793 793.179 344.728 793.699 345.248 794.003L358.637 801.728C358.955 801.884 359.304 801.964 359.657 801.964C360.011 801.964 360.359 801.884 360.677 801.728L374.652 793.656C375.238 793.309 375.303 792.788 374.782 792.463L361.393 784.737C361.089 784.588 360.753 784.512 360.414 784.516C360.075 784.52 359.741 784.603 359.44 784.759H359.353ZM405.596 797.779L419.592 789.707C420.178 789.359 420.243 788.839 419.592 788.535L406.225 780.81C405.911 780.642 405.561 780.555 405.205 780.555C404.85 780.555 404.499 780.642 404.185 780.81L390.211 788.882C389.603 789.229 389.56 789.75 390.08 790.054L403.469 797.779C403.817 797.999 404.219 798.116 404.63 798.116C405.041 798.116 405.444 797.999 405.791 797.779H405.596ZM426.037 785.974L440.034 777.902C440.62 777.555 440.685 777.034 440.142 776.73L426.775 769.005C426.458 768.85 426.109 768.769 425.755 768.769C425.402 768.769 425.053 768.85 424.735 769.005L410.761 777.099C410.153 777.424 410.11 777.967 410.63 778.271L424.019 785.996C424.343 786.171 424.706 786.261 425.075 786.257C425.443 786.254 425.804 786.156 426.124 785.974H426.037ZM446.479 774.191L460.475 766.119C461.061 765.771 461.105 765.229 460.475 764.925L447.108 757.2C446.794 757.033 446.444 756.945 446.088 756.945C445.733 756.945 445.382 757.033 445.068 757.2L431.072 765.272C430.486 765.62 430.443 766.14 430.963 766.444L444.352 774.169C444.689 774.361 445.069 774.463 445.456 774.467C445.843 774.471 446.225 774.376 446.566 774.191H446.479ZM379.795 772.954L365.82 781.027C365.212 781.374 365.169 781.895 365.69 782.198L379.079 789.924C379.393 790.091 379.743 790.178 380.099 790.178C380.454 790.178 380.804 790.091 381.118 789.924L395.093 781.851C395.679 781.504 395.744 780.983 395.223 780.679L381.921 772.889C381.602 772.732 381.249 772.656 380.893 772.667C380.538 772.678 380.19 772.777 379.881 772.954H379.795ZM400.236 761.149L386.261 769.222C385.654 769.569 385.61 770.09 386.131 770.394L399.52 778.119C399.831 778.282 400.178 778.368 400.529 778.368C400.881 778.368 401.227 778.282 401.538 778.119L415.535 770.046C416.121 769.699 416.186 769.178 415.643 768.875L402.276 761.149C401.973 760.997 401.639 760.917 401.299 760.917C400.96 760.917 400.626 760.997 400.323 761.149H400.236ZM482.089 713.93L468.114 722.003C467.506 722.35 467.463 722.871 467.984 723.174L481.372 730.9C481.686 731.055 482.031 731.135 482.381 731.135C482.731 731.135 483.077 731.055 483.39 730.9L497.387 722.827C497.973 722.48 498.038 721.959 497.387 721.634L484.128 713.93C483.814 713.763 483.464 713.676 483.108 713.676C482.753 713.676 482.402 713.763 482.089 713.93ZM461.647 725.713L447.672 733.807C447.065 734.133 447.021 734.675 447.542 734.979L460.931 742.704C461.242 742.868 461.589 742.953 461.94 742.953C462.292 742.953 462.638 742.868 462.949 742.704L476.946 734.632C477.531 734.307 477.597 733.764 477.054 733.46L463.687 725.735C463.369 725.58 463.021 725.499 462.667 725.499C462.314 725.499 461.965 725.58 461.647 725.735V725.713ZM502.53 702.125L488.555 710.198C487.948 710.545 487.904 711.066 488.425 711.37L501.814 719.095C502.125 719.258 502.471 719.344 502.823 719.344C503.174 719.344 503.521 719.258 503.832 719.095L517.828 711.022C518.414 710.675 518.479 710.154 517.937 709.851L504.57 702.125C504.254 701.962 503.903 701.878 503.547 701.882C503.191 701.885 502.842 701.977 502.53 702.147V702.125ZM420.764 749.345L406.79 757.33C406.182 757.677 406.138 758.198 406.659 758.502L420.048 766.227C420.359 766.391 420.706 766.476 421.057 766.476C421.409 766.476 421.755 766.391 422.066 766.227L436.063 758.155C436.649 757.808 436.714 757.287 436.171 756.983L422.804 749.258C422.483 749.104 422.129 749.031 421.773 749.046C421.418 749.061 421.071 749.164 420.764 749.345ZM441.206 737.54L427.231 745.612C426.623 745.959 426.58 746.48 427.101 746.806L440.49 754.531C440.801 754.694 441.147 754.78 441.499 754.78C441.85 754.78 442.196 754.694 442.508 754.531L456.504 746.458C457.09 746.111 457.155 745.591 456.504 745.287L443.137 737.562C442.836 737.42 442.507 737.344 442.174 737.34C441.84 737.337 441.51 737.405 441.206 737.54ZM415.166 814.401L429.14 806.329C429.748 806.003 429.792 805.461 429.271 805.157L415.882 797.432C415.568 797.277 415.223 797.196 414.873 797.196C414.523 797.196 414.177 797.277 413.864 797.432L399.867 805.526C399.281 805.851 399.216 806.394 399.759 806.698L413.126 814.423C413.436 814.579 413.779 814.659 414.127 814.655C414.474 814.652 414.816 814.564 415.122 814.401H415.166ZM307.338 809.41L293.95 801.685C293.638 801.522 293.292 801.436 292.94 801.436C292.589 801.436 292.243 801.522 291.931 801.685L277.935 809.757C277.349 810.105 277.284 810.625 277.826 810.929L291.194 818.654C291.508 818.822 291.858 818.909 292.214 818.909C292.569 818.909 292.919 818.822 293.233 818.654L307.208 810.582C307.816 810.148 307.859 809.627 307.338 809.41ZM333.986 815.92L320.597 808.195C320.28 808.04 319.931 807.959 319.577 807.959C319.224 807.959 318.875 808.04 318.557 808.195L297.053 820.629C296.467 820.976 296.402 821.497 296.922 821.801L310.311 829.526C310.625 829.693 310.976 829.781 311.331 829.781C311.687 829.781 312.037 829.693 312.351 829.526L333.856 817.092C334.463 816.832 334.507 816.311 333.986 815.92ZM287.353 793.982L273.986 786.256C273.672 786.089 273.321 786.002 272.966 786.002C272.61 786.002 272.26 786.089 271.946 786.256L254.738 796.39C254.152 796.737 254.087 797.258 254.738 797.562L268.105 805.287C268.419 805.454 268.769 805.542 269.125 805.542C269.48 805.542 269.831 805.454 270.145 805.287L287.353 795.349C287.83 794.893 287.895 794.372 287.353 794.068V793.982ZM300.568 786.365C300.882 786.52 301.227 786.6 301.577 786.6C301.927 786.6 302.272 786.52 302.586 786.365L316.583 778.271C317.168 777.945 317.234 777.424 316.691 777.099L303.324 769.374C303.01 769.207 302.66 769.119 302.304 769.119C301.948 769.119 301.598 769.207 301.284 769.374L287.309 777.446C286.702 777.793 286.658 778.314 287.179 778.618L300.568 786.365ZM358.464 823.862L345.031 816.224C344.717 816.057 344.367 815.969 344.011 815.969C343.656 815.969 343.305 816.057 342.991 816.224L316.105 831.74C315.498 832.087 315.454 832.607 315.975 832.911L329.364 840.637C329.675 840.8 330.021 840.885 330.373 840.885C330.724 840.885 331.071 840.8 331.382 840.637L358.29 825.121C358.941 824.774 359.006 824.253 358.464 823.949V823.862ZM367.903 840.485L354.514 832.759C354.203 832.596 353.857 832.511 353.505 832.511C353.154 832.511 352.807 832.596 352.496 832.759L335.288 842.698C334.68 843.045 334.637 843.566 335.158 843.87L348.547 851.595C348.858 851.758 349.204 851.844 349.556 851.844C349.907 851.844 350.254 851.758 350.565 851.595L367.795 841.656C368.381 841.396 368.424 840.875 367.903 840.571V840.485ZM452.533 698.61C452.847 698.777 453.197 698.865 453.553 698.865C453.909 698.865 454.259 698.777 454.573 698.61L468.548 690.538C469.155 690.19 469.199 689.67 468.678 689.366L455.289 681.641C454.978 681.477 454.632 681.392 454.28 681.392C453.928 681.392 453.582 681.477 453.271 681.641L439.274 689.713C438.688 690.06 438.623 690.581 439.166 690.885L452.533 698.61ZM411.65 722.306C411.964 722.474 412.314 722.561 412.67 722.561C413.026 722.561 413.376 722.474 413.69 722.306L427.665 714.234C428.273 713.887 428.316 713.366 427.795 713.062L414.471 705.25C414.16 705.087 413.814 705.001 413.462 705.001C413.111 705.001 412.764 705.087 412.453 705.25L398.457 713.323C397.871 713.67 397.806 714.191 398.348 714.494L411.65 722.306ZM321.009 774.69C321.321 774.854 321.667 774.939 322.018 774.939C322.37 774.939 322.716 774.854 323.028 774.69L337.024 766.618C337.61 766.271 337.675 765.75 337.132 765.446L323.765 757.721C323.451 757.554 323.101 757.466 322.745 757.466C322.39 757.466 322.039 757.554 321.725 757.721L307.751 765.793C307.143 766.14 307.1 766.661 307.62 766.965L321.009 774.69ZM432.092 710.545C432.406 710.712 432.756 710.8 433.112 710.8C433.467 710.8 433.818 710.712 434.132 710.545L448.106 702.473C448.714 702.125 448.757 701.605 448.236 701.301L434.848 693.576C434.536 693.412 434.19 693.327 433.839 693.327C433.487 693.327 433.141 693.412 432.83 693.576L418.811 701.605C418.225 701.952 418.16 702.473 418.811 702.776L432.092 710.545ZM391.209 734.111C391.526 734.266 391.875 734.347 392.229 734.347C392.582 734.347 392.931 734.266 393.249 734.111L407.224 726.039C407.831 725.692 407.875 725.171 407.354 724.845L393.965 717.12C393.654 716.957 393.307 716.871 392.956 716.871C392.604 716.871 392.258 716.957 391.947 717.12L377.95 725.193C377.364 725.54 377.299 726.061 377.95 726.364L391.209 734.111ZM377.95 841.396C377.636 841.229 377.286 841.141 376.93 841.141C376.575 841.141 376.224 841.229 375.91 841.396L354.384 853.808C353.798 854.156 353.755 854.698 354.275 855.002L367.664 862.727C367.976 862.891 368.322 862.976 368.673 862.976C369.025 862.976 369.371 862.891 369.683 862.727L391.209 850.315C391.795 849.968 391.838 849.447 391.317 849.143L377.95 841.396ZM361.87 751.037C362.184 751.204 362.535 751.292 362.89 751.292C363.246 751.292 363.596 751.204 363.91 751.037L377.907 742.965C378.493 742.618 378.536 742.097 377.907 741.793L364.561 734.003C364.247 733.836 363.897 733.748 363.541 733.748C363.186 733.748 362.835 733.836 362.521 734.003L348.612 742.14C348.026 742.487 347.983 743.008 348.503 743.312L361.87 751.037ZM341.451 762.842C341.762 763.005 342.108 763.091 342.46 763.091C342.811 763.091 343.158 763.005 343.469 762.842L357.465 754.77C358.051 754.422 358.095 753.902 357.574 753.598L344.207 745.873C343.893 745.705 343.542 745.618 343.187 745.618C342.831 745.618 342.481 745.705 342.167 745.873L328.17 753.945C327.584 754.292 327.541 754.813 328.17 755.117L341.451 762.842ZM756.637 622.79C756.323 622.623 755.973 622.536 755.617 622.536C755.261 622.536 754.911 622.623 754.597 622.79L720.181 642.667C719.573 642.993 719.53 643.535 720.051 643.839L733.44 651.564C733.751 651.728 734.097 651.813 734.449 651.813C734.8 651.813 735.147 651.728 735.458 651.564L769.896 631.709C770.482 631.362 770.525 630.841 769.896 630.537L756.637 622.79ZM711.436 648.83C711.125 648.667 710.778 648.581 710.427 648.581C710.075 648.581 709.729 648.667 709.418 648.83L695.421 656.903C694.835 657.25 694.77 657.771 695.313 658.074L708.68 665.8C708.994 665.967 709.344 666.054 709.7 666.054C710.055 666.054 710.406 665.967 710.72 665.8L724.694 657.727C725.302 657.38 725.345 656.859 724.825 656.555L711.436 648.83ZM435.564 802.618L449.539 794.546C450.146 794.199 450.189 793.656 449.669 793.352L436.28 785.54C435.969 785.377 435.622 785.291 435.271 785.291C434.919 785.291 434.573 785.377 434.262 785.54L420.265 793.613C419.679 793.96 419.614 794.481 420.265 794.784L433.632 802.51C433.928 802.665 434.253 802.756 434.586 802.775C434.92 802.793 435.253 802.74 435.564 802.618ZM670.553 672.418C670.242 672.255 669.896 672.169 669.544 672.169C669.192 672.169 668.846 672.255 668.535 672.418L654.538 680.491C653.953 680.838 653.887 681.359 654.43 681.662L667.797 689.388C668.115 689.543 668.464 689.623 668.817 689.623C669.171 689.623 669.519 689.543 669.837 689.388L683.812 681.293C684.419 680.968 684.463 680.425 683.942 680.122L670.553 672.418ZM777.078 610.942C776.764 610.775 776.414 610.687 776.058 610.687C775.703 610.687 775.352 610.775 775.039 610.942L761.042 619.014C760.456 619.362 760.413 619.882 761.042 620.186L774.409 627.911C774.723 628.079 775.073 628.166 775.429 628.166C775.785 628.166 776.135 628.079 776.449 627.911L790.446 619.839C791.031 619.492 791.075 618.971 790.554 618.667L777.078 610.942ZM810.887 606.862L778.337 588.092C778.019 587.937 777.67 587.856 777.317 587.856C776.964 587.856 776.615 587.937 776.297 588.092L762.322 596.186C761.715 596.511 761.671 597.054 762.192 597.358L794.742 616.107C795.056 616.274 795.406 616.361 795.762 616.361C796.118 616.361 796.468 616.274 796.782 616.107L810.778 608.034C811.364 607.709 811.408 607.188 810.887 606.884V606.862ZM594.191 716.534C593.877 716.367 593.527 716.28 593.171 716.28C592.815 716.28 592.465 716.367 592.151 716.534L575.051 726.56C574.444 726.907 574.4 727.428 574.921 727.731L588.31 735.457C588.624 735.612 588.969 735.692 589.319 735.692C589.669 735.692 590.014 735.612 590.328 735.457L607.558 725.518C608.144 725.171 608.187 724.65 607.666 724.346L594.191 716.534ZM645.815 686.718C645.504 686.555 645.157 686.47 644.806 686.47C644.454 686.47 644.108 686.555 643.797 686.718L622.271 699.131C621.685 699.478 621.62 699.999 622.14 700.303L635.529 708.028C635.843 708.195 636.193 708.282 636.549 708.282C636.905 708.282 637.255 708.195 637.569 708.028L659.074 695.615C659.681 695.268 659.725 694.747 659.204 694.444L645.815 686.718ZM546.841 743.876C546.53 743.713 546.184 743.627 545.832 743.627C545.481 743.627 545.134 743.713 544.823 743.876L429.813 810.343C429.206 810.69 429.162 811.211 429.683 811.515L443.072 819.24C443.386 819.408 443.736 819.495 444.092 819.495C444.447 819.495 444.798 819.408 445.112 819.24L560.122 752.773C560.729 752.426 560.773 751.905 560.252 751.601L546.841 743.876ZM425.321 814.054C425.007 813.887 424.657 813.799 424.301 813.799C423.946 813.799 423.595 813.887 423.281 814.054L406.073 823.993C405.488 824.318 405.422 824.861 405.965 825.164L419.332 832.89C419.646 833.057 419.996 833.144 420.352 833.144C420.708 833.144 421.058 833.057 421.372 832.89L438.58 822.951C439.166 822.625 439.231 822.083 438.71 821.779L425.321 814.054ZM570.559 730.205C570.245 730.038 569.895 729.951 569.539 729.951C569.184 729.951 568.834 730.038 568.52 730.205L551.181 740.209C550.595 740.556 550.53 741.099 551.051 741.402L564.44 749.106C564.754 749.273 565.104 749.361 565.46 749.361C565.816 749.361 566.166 749.273 566.48 749.106L583.731 739.102C584.317 738.777 584.382 738.234 583.84 737.93L570.559 730.205ZM401.647 827.725C401.333 827.57 400.988 827.489 400.638 827.489C400.288 827.489 399.942 827.57 399.629 827.725L382.399 837.664C381.813 838.011 381.769 838.532 382.399 838.835L395.766 846.561C396.08 846.728 396.43 846.815 396.786 846.815C397.142 846.815 397.492 846.728 397.806 846.561L415.014 836.622C415.621 836.275 415.665 835.754 415.144 835.45L401.647 827.725ZM617.887 702.885C617.576 702.721 617.23 702.636 616.878 702.636C616.526 702.636 616.18 702.721 615.869 702.885L598.639 712.823C598.053 713.171 597.988 713.692 598.531 713.995L611.898 721.721C612.212 721.888 612.562 721.975 612.918 721.975C613.274 721.975 613.624 721.888 613.938 721.721L631.146 711.782C631.753 711.435 631.797 710.914 631.276 710.61L617.887 702.885ZM691.038 660.657C690.727 660.493 690.38 660.408 690.029 660.408C689.677 660.408 689.331 660.493 689.02 660.657L675.023 668.729C674.437 669.076 674.372 669.597 674.915 669.901L688.282 677.626C688.599 677.781 688.948 677.862 689.302 677.862C689.655 677.862 690.004 677.781 690.322 677.626L704.297 669.554C704.904 669.206 704.948 668.686 704.427 668.382L691.038 660.657ZM736.825 628.693L750.821 620.62C751.407 620.273 751.472 619.752 750.821 619.448L737.454 611.723C737.14 611.556 736.79 611.469 736.434 611.469C736.079 611.469 735.728 611.556 735.414 611.723L721.439 619.796C720.832 620.143 720.789 620.664 721.309 620.967L734.698 628.693C735.018 628.867 735.376 628.959 735.74 628.959C736.104 628.959 736.462 628.867 736.781 628.693H736.825ZM653.41 632.707L667.406 624.635C667.992 624.288 668.057 623.767 667.406 623.463L654.039 615.738C653.725 615.571 653.375 615.483 653.019 615.483C652.664 615.483 652.313 615.571 651.999 615.738L638.025 623.81C637.417 624.157 637.374 624.678 637.895 624.982L651.283 632.707C651.603 632.882 651.961 632.973 652.325 632.973C652.689 632.973 653.047 632.882 653.367 632.707H653.41ZM599.16 708.201L640.043 684.592C640.65 684.245 640.694 683.724 640.173 683.42L626.784 675.695C626.47 675.54 626.125 675.459 625.775 675.459C625.425 675.459 625.08 675.54 624.766 675.695L583.731 699.37C583.124 699.717 583.08 700.237 583.601 700.541L596.99 708.267C597.315 708.431 597.676 708.512 598.04 708.5C598.404 708.489 598.759 708.386 599.073 708.201H599.16ZM714.409 640.563C714.72 640.726 715.066 640.811 715.418 640.811C715.769 640.811 716.116 640.726 716.427 640.563L730.423 632.49C731.009 632.143 731.074 631.622 730.532 631.318L717.165 623.593C716.851 623.426 716.5 623.338 716.145 623.338C715.789 623.338 715.439 623.426 715.125 623.593L701.15 631.666C700.542 632.013 700.499 632.534 701.02 632.837L714.409 640.563ZM697.309 629.452L711.306 621.38C711.892 621.033 711.957 620.512 711.436 620.208L698.047 612.483C697.729 612.327 697.38 612.247 697.027 612.247C696.673 612.247 696.325 612.327 696.007 612.483L681.946 620.62C681.338 620.946 681.295 621.488 681.815 621.792L695.204 629.517C695.521 629.671 695.87 629.745 696.221 629.734C696.573 629.722 696.916 629.626 697.222 629.452H697.309ZM578.654 720.006L592.628 711.934C593.214 711.587 593.279 711.066 592.759 710.762L579.391 703.08C579.077 702.913 578.727 702.826 578.371 702.826C578.016 702.826 577.665 702.913 577.352 703.08L563.377 711.153C562.769 711.5 562.726 712.021 563.246 712.324L576.635 720.05C576.95 720.206 577.298 720.284 577.65 720.277C578.001 720.269 578.346 720.176 578.654 720.006ZM669.121 666.646C669.435 666.813 669.785 666.901 670.141 666.901C670.496 666.901 670.847 666.813 671.161 666.646L685.157 658.573C685.743 658.226 685.786 657.706 685.266 657.402L671.898 649.677C671.584 649.509 671.234 649.422 670.879 649.422C670.523 649.422 670.173 649.509 669.859 649.677L655.862 657.749C655.276 658.096 655.233 658.617 655.754 658.921L669.121 666.646ZM476.447 779.03L490.421 770.958C491.029 770.611 491.072 770.09 490.551 769.786L477.163 762.061C476.851 761.897 476.505 761.812 476.154 761.812C475.802 761.812 475.456 761.897 475.145 762.061L461.148 770.133C460.562 770.48 460.497 771.001 461.018 771.305L474.407 779.03C474.721 779.197 475.071 779.285 475.427 779.285C475.782 779.285 476.133 779.197 476.447 779.03ZM496.888 767.225L510.863 759.153C511.47 758.806 511.514 758.285 510.993 757.981L497.604 750.256C497.293 750.093 496.947 750.007 496.595 750.007C496.243 750.007 495.897 750.093 495.586 750.256L481.589 758.328C481.003 758.676 480.938 759.196 481.459 759.5L494.848 767.225C495.169 767.397 495.528 767.485 495.893 767.481C496.257 767.477 496.614 767.382 496.931 767.204L496.888 767.225ZM456.005 790.835L469.98 782.763C470.588 782.415 470.631 781.895 470.11 781.591L456.721 773.866C456.41 773.702 456.064 773.617 455.712 773.617C455.361 773.617 455.014 773.702 454.703 773.866L440.707 781.938C440.121 782.285 440.056 782.806 440.598 783.11L453.965 790.835C454.281 790.999 454.632 791.083 454.988 791.079C455.344 791.075 455.693 790.984 456.005 790.813V790.835ZM537.771 743.616L551.745 735.543C552.331 735.196 552.397 734.675 551.876 734.372L538.487 726.646C538.169 726.491 537.82 726.41 537.467 726.41C537.113 726.41 536.765 726.491 536.447 726.646L522.472 734.741C521.886 735.066 521.821 735.609 522.342 735.912L535.731 743.638C536.048 743.798 536.401 743.878 536.756 743.87C537.112 743.863 537.46 743.768 537.771 743.594V743.616ZM517.329 755.421L531.304 747.348C531.912 747.001 531.955 746.48 531.434 746.176L518.045 738.451C517.731 738.284 517.381 738.197 517.025 738.197C516.67 738.197 516.32 738.284 516.006 738.451L502.031 746.48C501.445 746.827 501.38 747.348 501.901 747.652L515.29 755.377C515.602 755.548 515.951 755.639 516.307 755.643C516.662 755.646 517.014 755.563 517.329 755.399V755.421ZM558.212 731.833L572.187 723.739C572.773 723.413 572.838 722.871 572.317 722.567L558.928 714.842C558.614 714.674 558.264 714.587 557.908 714.587C557.553 714.587 557.202 714.674 556.888 714.842L542.914 722.914C542.328 723.24 542.263 723.782 542.783 724.086L556.172 731.811C556.49 731.966 556.839 732.047 557.192 732.047C557.546 732.047 557.895 731.966 558.212 731.811V731.833ZM669.75 567.65C670.061 567.814 670.408 567.899 670.759 567.899C671.111 567.899 671.457 567.814 671.768 567.65L685.765 559.578C686.351 559.231 686.416 558.71 685.873 558.406L682.314 556.236C682.003 556.073 681.657 555.987 681.305 555.987C680.954 555.987 680.608 556.073 680.296 556.236L666.3 564.309C665.714 564.656 665.649 565.177 666.191 565.48L669.75 567.65ZM568.151 631.969C568.465 632.137 568.815 632.224 569.171 632.224C569.526 632.224 569.877 632.137 570.191 631.969L584.165 623.897C584.751 623.55 584.816 623.029 584.296 622.725L570.907 615C570.593 614.833 570.242 614.745 569.887 614.745C569.531 614.745 569.181 614.833 568.867 615L554.892 623.072C554.306 623.42 554.241 623.94 554.762 624.244L568.151 631.969ZM609.034 608.381C609.345 608.545 609.691 608.63 610.043 608.63C610.394 608.63 610.74 608.545 611.052 608.381L625.048 600.309C625.634 599.984 625.699 599.441 625.178 599.137L611.789 591.412C611.472 591.257 611.123 591.176 610.77 591.176C610.416 591.176 610.067 591.257 609.75 591.412L595.775 599.506C595.167 599.832 595.124 600.374 595.645 600.678L609.034 608.381ZM543.196 646.378C543.507 646.542 543.853 646.627 544.205 646.627C544.556 646.627 544.903 646.542 545.214 646.378L559.21 638.306C559.796 637.958 559.861 637.438 559.319 637.134L545.952 629.3C545.638 629.133 545.287 629.046 544.932 629.046C544.576 629.046 544.226 629.133 543.912 629.3L529.937 637.373C529.329 637.72 529.286 638.241 529.807 638.544L543.196 646.378ZM588.592 620.165C588.906 620.332 589.256 620.419 589.612 620.419C589.968 620.419 590.318 620.332 590.632 620.165L604.607 612.092C605.193 611.745 605.258 611.224 604.737 610.92L591.348 603.195C591.03 603.04 590.682 602.959 590.328 602.959C589.975 602.959 589.626 603.04 589.308 603.195L575.333 611.268C574.748 611.615 574.682 612.136 575.203 612.439L588.592 620.165ZM502.313 670.075C502.624 670.238 502.97 670.323 503.322 670.323C503.674 670.323 504.02 670.238 504.331 670.075L518.328 662.002C518.913 661.655 518.979 661.134 518.458 660.83L505.069 653.105C504.755 652.938 504.405 652.85 504.049 652.85C503.693 652.85 503.343 652.938 503.029 653.105L489.054 661.178C488.447 661.525 488.403 662.046 488.924 662.349L502.313 670.075ZM522.754 658.27C523.066 658.433 523.412 658.519 523.763 658.519C524.115 658.519 524.461 658.433 524.772 658.27L538.769 650.197C539.355 649.85 539.42 649.329 538.877 649.026L525.51 641.3C525.196 641.133 524.846 641.046 524.49 641.046C524.135 641.046 523.784 641.133 523.47 641.3L509.496 649.373C508.888 649.72 508.845 650.241 509.365 650.545L522.754 658.27ZM628.867 591.347C629.181 591.514 629.531 591.601 629.887 591.601C630.243 591.601 630.593 591.514 630.907 591.347L644.882 583.275C645.468 582.949 645.533 582.407 645.012 582.103L641.432 580.063C641.12 579.899 640.774 579.814 640.423 579.814C640.071 579.814 639.725 579.899 639.414 580.063L625.417 588.07C624.831 588.417 624.766 588.938 625.417 589.242L628.867 591.347ZM690.191 555.933C690.503 556.096 690.849 556.181 691.201 556.181C691.552 556.181 691.898 556.096 692.21 555.933L706.206 547.86C706.792 547.513 706.857 546.992 706.315 546.688L702.756 544.627C702.445 544.463 702.098 544.378 701.747 544.378C701.395 544.378 701.049 544.463 700.738 544.627L686.741 552.699C686.155 553.046 686.09 553.567 686.633 553.871L690.191 555.933ZM718.271 572.056C718.585 572.223 718.936 572.31 719.291 572.31C719.647 572.31 719.997 572.223 720.311 572.056L734.286 563.983C734.894 563.636 734.937 563.115 734.416 562.811L721.027 555.086C720.713 554.919 720.363 554.832 720.007 554.832C719.652 554.832 719.301 554.919 718.987 555.086L705.013 563.159C704.427 563.506 704.362 564.027 704.882 564.33L718.271 572.056ZM757.331 616.888L771.328 608.815C771.914 608.468 771.979 607.947 771.436 607.644L758.069 599.918C757.752 599.763 757.403 599.682 757.049 599.682C756.696 599.682 756.347 599.763 756.029 599.918L742.055 607.991C741.447 608.338 741.404 608.859 741.924 609.163L755.313 616.91C755.626 617.07 755.973 617.151 756.325 617.148C756.676 617.144 757.022 617.055 757.331 616.888ZM649.309 579.39C649.626 579.545 649.975 579.626 650.329 579.626C650.682 579.626 651.031 579.545 651.349 579.39L665.323 571.318C665.909 570.971 665.974 570.45 665.454 570.124L661.873 568.085C661.562 567.921 661.216 567.836 660.864 567.836C660.512 567.836 660.166 567.921 659.855 568.085L645.858 576.157C645.273 576.504 645.207 577.025 645.75 577.329L649.309 579.39ZM481.872 681.727C482.189 681.883 482.538 681.963 482.891 681.963C483.245 681.963 483.594 681.883 483.911 681.727L497.886 673.655C498.472 673.308 498.537 672.787 498.016 672.483L484.627 664.758C484.313 664.591 483.963 664.503 483.608 664.503C483.252 664.503 482.902 664.591 482.588 664.758L468.721 672.874C468.135 673.221 468.07 673.742 468.591 674.046L481.872 681.727Z" fill="#455A64"/>
<path d="M540.418 798.083L543.456 799.841L624.223 846.474L767.877 763.537L770.85 761.822L687.045 713.453L540.418 798.083Z" fill="#263238"/>
<path d="M766.033 764.6L687.045 719.03L545.301 800.904L624.224 846.474L766.033 764.6Z" fill="#37474F"/>
<path d="M256.059 745.85C254.893 746.547 253.575 746.949 252.219 747.022C250.29 747.263 248.333 746.923 246.598 746.045C245.239 745.119 244.117 743.886 243.322 742.446C242.526 741.006 242.08 739.4 242.02 737.756V437.298L251.199 442.593V743.029C251.199 745.199 252.305 746.523 253.911 746.523C254.671 746.477 255.409 746.246 256.059 745.85Z" fill="#E6E6E6"/>
<path d="M730.073 466.55C729.978 468.244 729.486 469.892 728.638 471.362C727.79 472.832 726.61 474.082 725.191 475.013L256.058 745.851C253.367 747.413 251.176 746.154 251.176 743.03V410.824L730.073 134.54V466.55Z" fill="#FAFAFA"/>
<path d="M727.775 138.424V466.55C727.69 467.848 727.31 469.109 726.663 470.238C726.016 471.366 725.12 472.331 724.042 473.06L254.932 743.876C254.622 744.067 254.274 744.186 253.912 744.223C253.499 744.223 253.499 743.051 253.499 743.03V412.148L727.775 138.424ZM730.075 134.54L251.199 410.824V743.03C251.199 745.2 252.306 746.523 253.912 746.523C254.682 746.496 255.431 746.264 256.082 745.851L725.192 475.1C726.611 474.169 727.792 472.919 728.64 471.449C729.488 469.979 729.979 468.331 730.075 466.637V134.54Z" fill="#EBEBEB"/>
<path d="M246.62 425.862C245.256 424.939 244.128 423.707 243.329 422.267C242.53 420.827 242.081 419.219 242.02 417.573V379.424C242.121 377.732 242.617 376.087 243.469 374.621C244.32 373.155 245.504 371.909 246.924 370.983L716.099 100.21C717.513 99.3205 719.143 98.8334 720.813 98.8015C722.483 98.7695 724.13 99.1939 725.577 100.029C727.024 100.864 728.215 102.078 729.023 103.54C729.831 105.002 730.224 106.657 730.161 108.326V146.475C730.062 148.165 729.569 149.809 728.722 151.275C727.874 152.74 726.695 153.987 725.279 154.916L256.059 425.688C254.608 426.449 252.999 426.86 251.36 426.891C249.722 426.921 248.099 426.569 246.62 425.862Z" fill="#641EFF"/>
<path opacity="0.3" d="M730.009 107.524C729.683 105.006 727.622 104.073 725.191 105.505L256.059 376.256C254.623 377.164 253.436 378.418 252.609 379.902L243.43 374.607C244.26 373.123 245.455 371.876 246.902 370.983L716.099 100.211C717.549 99.4453 719.159 99.0309 720.798 99.0008C722.438 98.9706 724.061 99.3256 725.539 100.037C726.782 100.886 727.827 101.995 728.599 103.288C729.371 104.581 729.852 106.026 730.009 107.524Z" fill="white"/>
<path opacity="0.2" d="M252.631 379.901C251.747 381.357 251.253 383.016 251.199 384.719V442.679L242.02 437.385V379.424C242.02 379.229 242.02 379.055 242.02 378.838C242.06 378.429 242.125 378.023 242.215 377.623C242.476 376.565 242.885 375.55 243.43 374.606L252.631 379.901Z" fill="black"/>
<path d="M730.075 108.326V134.539L399.671 325.499C396.98 327.062 394.788 325.782 394.788 322.678V312.479C394.788 309.376 392.618 308.139 389.884 309.658L274.418 376.169C272.995 377.097 271.81 378.347 270.958 379.816C270.107 381.286 269.612 382.936 269.514 384.632V394.505C269.421 396.198 268.933 397.845 268.089 399.314C267.245 400.784 266.068 402.035 264.653 402.968L251.199 410.737V384.697C251.295 383.003 251.786 381.355 252.634 379.885C253.482 378.415 254.663 377.165 256.082 376.234L725.192 105.505C727.883 103.942 730.075 105.201 730.075 108.326Z" fill="#641EFF"/>
<path d="M716.098 122.323C718.159 121.129 719.83 122.106 719.83 124.493C719.764 125.795 719.391 127.063 718.743 128.194C718.094 129.326 717.188 130.288 716.098 131.003C713.928 132.196 712.344 131.22 712.344 128.833C712.409 127.528 712.783 126.257 713.436 125.125C714.089 123.993 715.001 123.033 716.098 122.323Z" fill="white"/>
<path d="M702.582 130.2C704.752 129.006 706.315 129.983 706.315 132.37C706.248 133.672 705.876 134.94 705.227 136.071C704.579 137.202 703.672 138.165 702.582 138.88C700.412 140.073 698.828 139.119 698.828 136.71C698.895 135.405 699.27 134.135 699.923 133.004C700.575 131.872 701.487 130.911 702.582 130.2Z" fill="white"/>
<path d="M689.082 137.881C691.144 136.688 692.836 137.664 692.836 140.051C692.766 141.355 692.389 142.624 691.737 143.755C691.085 144.886 690.175 145.847 689.082 146.561C687.021 147.755 685.328 146.778 685.328 144.391C685.399 143.088 685.775 141.819 686.427 140.688C687.08 139.557 687.989 138.595 689.082 137.881Z" fill="white"/>
<path d="M730.075 134.54V166.2L251.199 442.68V410.824L261.246 405.009C263.937 403.446 264.827 401.081 266.129 396.546L269.514 384.719C270.599 380.618 271.684 377.819 274.418 376.256L387.909 310.896C390.622 309.334 392.727 309.182 394.788 312.567L398.976 320.162C400.495 322.809 401.146 324.372 403.946 322.809L730.075 134.54Z" fill="#E0E0E0"/>
<path d="M251.199 410.824V442.593L242.02 437.298V405.551L251.199 410.824Z" fill="#E0E0E0"/>
<path opacity="0.15" d="M251.199 410.824V442.593L242.02 437.298V405.551L251.199 410.824Z" fill="black"/>
<path opacity="0.5" d="M273.616 413.124L265.935 417.464L268.864 411.844C268.98 411.631 269.041 411.392 269.041 411.149C269.041 410.907 268.98 410.668 268.864 410.455C268.647 410.195 268.256 410.455 267.996 410.867L263.83 418.875V419.178C263.83 419.178 263.83 419.178 263.83 419.287C263.807 419.423 263.807 419.563 263.83 419.699C263.807 419.814 263.807 419.932 263.83 420.046C263.821 420.104 263.821 420.162 263.83 420.22L267.996 423.41C268.051 423.456 268.12 423.481 268.191 423.481C268.263 423.481 268.332 423.456 268.387 423.41C268.604 423.27 268.771 423.065 268.864 422.824C269.081 422.303 269.059 421.717 268.864 421.522L265.935 419.352L273.616 415.012C273.812 414.857 273.968 414.659 274.074 414.433C274.179 414.207 274.231 413.959 274.224 413.71C274.224 413.189 273.963 412.929 273.616 413.124Z" fill="#455A64"/>
<path opacity="0.5" d="M279.928 409.414L287.588 405.074L284.68 402.904C284.42 402.709 284.398 402.123 284.68 401.58C284.962 401.038 285.288 400.799 285.548 400.994L289.715 404.184C289.77 404.232 289.814 404.291 289.845 404.358C289.872 404.472 289.872 404.591 289.845 404.705C289.866 404.842 289.866 404.981 289.845 405.117C289.815 405.224 289.771 405.326 289.715 405.421L285.548 413.428C285.465 413.627 285.32 413.794 285.136 413.906C285.073 413.961 284.992 413.991 284.908 413.991C284.824 413.991 284.743 413.961 284.68 413.906C284.564 413.697 284.503 413.461 284.503 413.222C284.503 412.983 284.564 412.748 284.68 412.539L287.588 406.918L279.928 411.258C279.581 411.454 279.32 411.258 279.32 410.651C279.323 410.412 279.38 410.178 279.485 409.964C279.59 409.75 279.741 409.562 279.928 409.414Z" fill="#455A64"/>
<path opacity="0.5" d="M305.167 387.323C305.167 386.867 304.733 386.932 304.516 387.323L303.474 389.883C301.673 389.688 299.503 391.446 298.049 394.549C296.14 398.563 296.14 403.229 298.049 405.16C298.514 405.585 299.111 405.836 299.74 405.872C300.368 405.908 300.99 405.725 301.5 405.355C303.022 404.328 304.213 402.881 304.928 401.189C305.049 400.985 305.112 400.753 305.112 400.516C305.112 400.28 305.049 400.047 304.928 399.844C304.69 399.605 304.299 399.844 304.06 400.343C302.65 403.337 300.328 404.683 298.917 403.316C297.507 401.949 297.507 398.39 298.917 395.395C299.916 393.225 301.369 391.988 302.65 391.901L301.847 393.854C301.652 394.354 301.847 394.809 302.151 394.614L305.275 392.574C305.402 392.47 305.502 392.336 305.566 392.185C305.631 392.034 305.657 391.87 305.644 391.706L305.167 387.323Z" fill="#455A64"/>
<path opacity="0.5" d="M384.546 325.5L387.346 319.597C387.51 319.318 387.596 318.999 387.596 318.675C387.596 318.351 387.51 318.033 387.346 317.753C387.02 317.427 386.478 317.753 386.152 318.447L383.353 324.35L380.553 321.659C380.228 321.355 379.685 321.659 379.36 322.353C379.196 322.633 379.109 322.951 379.109 323.276C379.109 323.6 379.196 323.918 379.36 324.198L382.159 326.889L379.36 332.813C379.196 333.092 379.109 333.411 379.109 333.735C379.109 334.059 379.196 334.377 379.36 334.657C379.442 334.726 379.546 334.764 379.653 334.764C379.76 334.764 379.864 334.726 379.946 334.657C380.216 334.485 380.428 334.236 380.553 333.941L383.353 328.017L386.152 330.708C386.232 330.781 386.337 330.822 386.445 330.822C386.553 330.822 386.658 330.781 386.738 330.708C387.004 330.522 387.214 330.267 387.346 329.97C387.51 329.69 387.596 329.372 387.596 329.048C387.596 328.723 387.51 328.405 387.346 328.125L384.546 325.5Z" fill="#455A64"/>
<path d="M315.344 394.614V384.719C315.442 383.023 315.936 381.374 316.788 379.904C317.64 378.434 318.825 377.184 320.248 376.256L697.698 158.54C700.388 156.978 702.58 158.236 702.58 161.361V171.235C702.485 172.929 701.993 174.577 701.145 176.047C700.297 177.516 699.117 178.767 697.698 179.697L320.248 397.435C317.535 398.976 315.344 397.717 315.344 394.614Z" fill="#FAFAFA"/>
<path d="M691.035 180.457C690.892 180.49 690.744 180.49 690.601 180.457C690.332 180.328 690.113 180.113 689.979 179.846C689.846 179.578 689.805 179.274 689.863 178.982L690.362 174.967L688.474 173.622C688.308 173.495 688.174 173.33 688.083 173.142C687.993 172.953 687.948 172.746 687.954 172.537C687.949 172.209 688.019 171.884 688.158 171.587C688.297 171.29 688.502 171.029 688.756 170.822L691.621 168.652C691.68 168.582 691.724 168.501 691.751 168.414L693.031 164.226C693.087 163.871 693.246 163.542 693.49 163.279C693.733 163.016 694.05 162.832 694.398 162.75C694.633 162.733 694.866 162.789 695.068 162.909C695.27 163.03 695.43 163.209 695.527 163.423L696.59 165.593L699.021 164.681C699.24 164.587 699.483 164.564 699.717 164.615C699.95 164.665 700.162 164.787 700.323 164.963C700.515 165.257 700.617 165.6 700.617 165.951C700.617 166.301 700.515 166.645 700.323 166.938L698.153 170.844C698.132 170.922 698.132 171.004 698.153 171.083L698.738 174.685C698.774 175.005 698.738 175.328 698.632 175.632C698.527 175.936 698.356 176.213 698.131 176.443C697.993 176.603 697.818 176.729 697.622 176.808C697.426 176.887 697.213 176.918 697.002 176.898L694.659 176.595L692.228 179.828C692.096 180.023 691.919 180.182 691.71 180.292C691.502 180.402 691.27 180.458 691.035 180.457ZM689.668 172.298L691.534 173.665C691.734 173.821 691.886 174.029 691.974 174.267C692.062 174.505 692.083 174.762 692.033 175.01L691.729 177.68L693.422 175.51C693.561 175.303 693.753 175.137 693.979 175.03C694.204 174.923 694.454 174.879 694.702 174.902L697.046 175.184C697.071 175.099 697.071 175.009 697.046 174.924L696.568 171.43C696.526 170.994 696.617 170.555 696.829 170.171L698.652 166.764L696.785 167.481C696.509 167.598 696.197 167.602 695.917 167.493C695.638 167.383 695.412 167.169 695.288 166.895L694.442 165.094L693.313 168.826C693.18 169.247 692.932 169.622 692.597 169.911L689.733 172.081C689.733 172.081 689.69 172.211 689.668 172.298Z" fill="#E0E0E0"/>
<g opacity="0.5">
<path d="M708.333 157.324C707.964 157.32 707.606 157.195 707.315 156.969C707.024 156.743 706.814 156.428 706.718 156.071C706.622 155.715 706.646 155.337 706.784 154.996C706.923 154.654 707.169 154.367 707.486 154.178L721.244 146.236C721.435 146.123 721.646 146.049 721.865 146.019C722.084 145.988 722.307 146.002 722.521 146.058C722.735 146.115 722.936 146.213 723.112 146.348C723.287 146.483 723.434 146.651 723.544 146.843C723.657 147.035 723.732 147.248 723.762 147.469C723.793 147.69 723.78 147.915 723.723 148.13C723.667 148.346 723.568 148.549 723.433 148.726C723.298 148.904 723.129 149.053 722.937 149.165L709.179 157.107C708.921 157.252 708.629 157.327 708.333 157.324Z" fill="#455A64"/>
<path d="M708.333 165.267C707.964 165.262 707.606 165.137 707.315 164.911C707.024 164.685 706.814 164.37 706.718 164.014C706.622 163.658 706.646 163.28 706.784 162.938C706.923 162.596 707.169 162.309 707.486 162.12L721.244 154.178C721.435 154.065 721.646 153.992 721.865 153.961C722.084 153.931 722.307 153.944 722.521 154.001C722.735 154.057 722.936 154.156 723.112 154.29C723.287 154.425 723.434 154.593 723.544 154.786C723.657 154.978 723.732 155.19 723.762 155.411C723.793 155.632 723.78 155.857 723.723 156.073C723.667 156.289 723.568 156.491 723.433 156.669C723.298 156.846 723.129 156.995 722.937 157.107L709.179 165.05C708.921 165.195 708.629 165.27 708.333 165.267Z" fill="#455A64"/>
<path d="M708.333 173.209C707.964 173.205 707.606 173.08 707.315 172.854C707.024 172.628 706.814 172.312 706.718 171.956C706.622 171.6 706.646 171.222 706.784 170.88C706.923 170.539 707.169 170.251 707.486 170.063L721.244 162.12C721.435 162.008 721.646 161.934 721.865 161.904C722.084 161.873 722.307 161.887 722.521 161.943C722.735 162 722.936 162.098 723.112 162.233C723.287 162.368 723.434 162.536 723.544 162.728C723.657 162.92 723.732 163.133 723.762 163.354C723.793 163.575 723.78 163.799 723.723 164.015C723.667 164.231 723.568 164.433 723.433 164.611C723.298 164.789 723.129 164.938 722.937 165.05L709.179 172.992C708.921 173.137 708.629 173.212 708.333 173.209Z" fill="#455A64"/>
</g>
<path d="M286.438 552.72L694.897 316.819C699.91 313.911 703.989 316.255 703.989 322.049V451.012C703.819 454.162 702.908 457.228 701.333 459.961C699.757 462.695 697.559 465.018 694.919 466.744L286.438 702.645C281.447 705.553 277.367 703.209 277.367 697.415V568.539C277.525 565.374 278.428 562.291 280.005 559.541C281.581 556.792 283.785 554.455 286.438 552.72Z" fill="white"/>
<path d="M282.314 704.685C281.349 704.695 280.397 704.448 279.559 703.969C278.515 703.255 277.681 702.275 277.143 701.13C276.605 699.986 276.382 698.718 276.499 697.459V568.539C276.68 565.255 277.63 562.058 279.274 559.209C280.917 556.359 283.207 553.936 285.96 552.134L694.506 316.168C695.499 315.342 696.721 314.839 698.008 314.729C699.295 314.619 700.585 314.906 701.704 315.552C702.822 316.197 703.716 317.171 704.265 318.34C704.813 319.51 704.989 320.819 704.77 322.092V451.056C704.589 454.343 703.636 457.541 701.988 460.391C700.341 463.241 698.045 465.663 695.287 467.461L286.763 703.34C285.42 704.163 283.888 704.627 282.314 704.685ZM698.955 316.385C697.66 316.443 696.402 316.839 695.309 317.535L286.741 553.349C284.215 554.998 282.113 557.219 280.605 559.831C279.097 562.444 278.225 565.375 278.061 568.387V697.351C277.827 698.344 277.919 699.387 278.323 700.325C278.727 701.262 279.423 702.044 280.307 702.556C281.191 703.067 282.215 703.28 283.23 703.163C284.244 703.047 285.194 702.606 285.938 701.908L694.484 466.029C697.012 464.381 699.115 462.161 700.623 459.548C702.131 456.935 703.002 454.003 703.164 450.99V322.092C703.29 321.114 703.155 320.119 702.774 319.209C702.393 318.298 701.78 317.504 700.994 316.906C700.378 316.543 699.67 316.362 698.955 316.385Z" fill="#E0E0E0"/>
<path d="M465.377 551.896L530.738 514.138C532.712 513.009 534.318 513.943 534.318 516.199V533.82C534.248 535.059 533.887 536.264 533.265 537.339C532.643 538.413 531.777 539.326 530.738 540.004L465.377 577.654C463.403 578.804 461.797 577.871 461.797 575.592V558.08C461.864 556.84 462.223 555.633 462.845 554.559C463.468 553.484 464.335 552.571 465.377 551.896Z" fill="#641EFF"/>
<path opacity="0.5" d="M465.377 551.896L530.738 514.138C532.712 513.009 534.318 513.943 534.318 516.199V533.82C534.248 535.059 533.887 536.264 533.265 537.339C532.643 538.413 531.777 539.326 530.738 540.004L465.377 577.654C463.403 578.804 461.797 577.871 461.797 575.592V558.08C461.864 556.84 462.223 555.633 462.845 554.559C463.468 553.484 464.335 552.571 465.377 551.896Z" fill="white"/>
<path d="M300.348 662.392V576.829C300.515 573.681 301.424 570.617 303 567.887C304.576 565.156 306.775 562.837 309.418 561.118L429.658 491.678C434.671 488.771 438.729 491.114 438.729 496.908V582.493C438.554 585.64 437.643 588.701 436.067 591.43C434.491 594.159 432.296 596.48 429.658 598.204L309.418 667.644C304.406 670.53 300.348 668.186 300.348 662.392Z" fill="#641EFF"/>
<path opacity="0.8" d="M300.348 662.392V576.829C300.515 573.681 301.424 570.617 303 567.887C304.576 565.156 306.775 562.837 309.418 561.118L429.658 491.678C434.671 488.771 438.729 491.114 438.729 496.908V582.493C438.554 585.64 437.643 588.701 436.067 591.43C434.491 594.159 432.296 596.48 429.658 598.204L309.418 667.644C304.406 670.53 300.348 668.186 300.348 662.392Z" fill="white"/>
<g opacity="0.5">
<path d="M403.164 542.326C402.266 542.336 401.381 542.103 400.603 541.654C399.627 540.992 398.848 540.077 398.351 539.006C397.855 537.936 397.658 536.751 397.782 535.578C397.935 532.542 398.8 529.585 400.308 526.946C401.816 524.307 403.925 522.06 406.462 520.388C407.384 519.618 408.52 519.15 409.717 519.047C410.914 518.944 412.113 519.212 413.153 519.813C414.192 520.415 415.022 521.321 415.529 522.41C416.036 523.498 416.197 524.717 415.989 525.899C415.838 528.935 414.973 531.893 413.465 534.532C411.957 537.172 409.848 539.418 407.309 541.089C406.06 541.858 404.63 542.285 403.164 542.326ZM410.629 520.756C409.443 520.807 408.291 521.166 407.287 521.798C404.974 523.31 403.05 525.346 401.671 527.739C400.291 530.133 399.494 532.819 399.345 535.578C399.152 536.476 399.25 537.412 399.623 538.252C399.997 539.091 400.627 539.79 401.423 540.249C402.219 540.707 403.14 540.901 404.054 540.802C404.967 540.704 405.826 540.318 406.506 539.701C408.821 538.194 410.748 536.164 412.132 533.773C413.516 531.383 414.317 528.7 414.47 525.943C414.573 525.043 414.437 524.131 414.075 523.3C413.713 522.47 413.138 521.749 412.408 521.212C411.862 520.919 411.248 520.777 410.629 520.8V520.756Z" fill="#641EFF"/>
</g>
<g opacity="0.5">
<path d="M305.36 666.515C304.558 666.515 302.691 666.124 302.691 662.413V619.404L302.865 619.187L342.619 566.63L343.205 566.955L389.448 591.671L380.92 584.489L381.245 583.924L399.625 551.526L436.385 570.709V582.579C436.213 585.313 435.41 587.969 434.039 590.341C432.669 592.713 430.768 594.735 428.486 596.25L308.225 665.69C307.359 666.212 306.371 666.496 305.36 666.515ZM304.275 619.925V662.413C304.275 663.173 304.384 664.952 305.36 664.952C306.135 664.912 306.884 664.664 307.53 664.236L427.792 594.796C429.844 593.432 431.552 591.611 432.783 589.476C434.014 587.342 434.734 584.952 434.888 582.492V571.642L400.32 553.653L382.96 584.185L401.947 600.178L343.075 568.691L304.275 619.925Z" fill="#641EFF"/>
</g>
<path d="M465.204 473.862L515.635 444.85C517.501 443.765 519.02 444.524 519.02 446.564C518.934 447.7 518.583 448.8 517.995 449.776C517.407 450.752 516.599 451.577 515.635 452.184L465.204 481.306C463.316 482.391 461.797 481.631 461.797 479.591C461.865 478.433 462.21 477.309 462.803 476.312C463.396 475.315 464.219 474.475 465.204 473.862Z" fill="#455A64"/>
<path d="M464.64 493.024L673.632 372.437C675.195 371.526 676.453 371.938 676.453 373.348C676.341 374.218 676.027 375.049 675.537 375.776C675.048 376.503 674.395 377.105 673.632 377.536L464.64 498.123C463.077 499.035 461.797 498.622 461.797 497.212C461.913 496.341 462.231 495.51 462.724 494.783C463.218 494.056 463.873 493.454 464.64 493.024Z" fill="#E0E0E0"/>
<path d="M464.64 507.432L673.632 386.845C675.195 385.934 676.453 386.346 676.453 387.778C676.339 388.647 676.025 389.477 675.535 390.204C675.046 390.931 674.394 391.534 673.632 391.966L464.64 512.553C463.077 513.443 461.797 513.031 461.797 511.62C461.917 510.75 462.235 509.92 462.729 509.194C463.222 508.467 463.876 507.864 464.64 507.432Z" fill="#E0E0E0"/>
<path d="M464.64 521.863L673.632 401.276C675.195 400.364 676.453 400.777 676.453 402.187C676.341 403.056 676.027 403.888 675.537 404.615C675.048 405.341 674.395 405.944 673.632 406.375L464.64 526.962C463.077 527.874 461.797 527.461 461.797 526.051C461.913 525.18 462.231 524.348 462.724 523.622C463.218 522.895 463.873 522.293 464.64 521.863Z" fill="#E0E0E0"/>
<path d="M464.64 536.272L602.76 456.568C604.322 455.678 605.581 456.09 605.581 457.501C605.467 458.369 605.153 459.2 604.663 459.926C604.174 460.653 603.522 461.256 602.76 461.689L464.64 541.393C463.077 542.283 461.797 541.87 461.797 540.46C461.917 539.59 462.235 538.76 462.729 538.033C463.222 537.307 463.876 536.704 464.64 536.272Z" fill="#E0E0E0"/>
<path d="M646.767 464.141C649.11 462.774 650.998 463.881 650.998 466.593C650.919 468.062 650.495 469.492 649.76 470.767C649.025 472.041 647.999 473.124 646.767 473.928C644.423 475.295 642.535 474.188 642.535 471.476C642.614 470.006 643.038 468.577 643.773 467.302C644.509 466.028 645.534 464.945 646.767 464.141Z" fill="#641EFF"/>
<path d="M661.394 457.306C662.523 457.306 662.653 458.651 662.653 459.237C662.591 460.538 662.222 461.805 661.577 462.937C660.932 464.068 660.03 465.031 658.942 465.747C658.539 466.005 658.075 466.155 657.597 466.181C657.435 466.188 657.273 466.156 657.126 466.088C656.979 466.02 656.85 465.918 656.75 465.791C656.45 465.335 656.305 464.795 656.338 464.25C656.417 462.968 656.793 461.722 657.437 460.611C658.081 459.5 658.976 458.554 660.049 457.848C660.452 457.59 660.916 457.441 661.394 457.414M661.394 456.308C660.72 456.346 660.064 456.547 659.485 456.894C658.231 457.69 657.185 458.771 656.43 460.05C655.676 461.329 655.235 462.768 655.145 464.25C655.145 466.159 656.099 467.266 657.488 467.266C658.156 467.246 658.807 467.052 659.376 466.702C660.628 465.905 661.674 464.822 662.428 463.544C663.182 462.266 663.623 460.827 663.716 459.346C663.716 457.436 662.761 456.308 661.372 456.308H661.394Z" fill="#641EFF"/>
<path d="M674.111 449.949C675.239 449.949 675.369 451.316 675.369 451.902C675.286 453.181 674.911 454.423 674.271 455.533C673.631 456.643 672.745 457.591 671.68 458.304C671.267 458.554 670.796 458.696 670.313 458.716C670.156 458.727 669.998 458.7 669.855 458.635C669.711 458.571 669.585 458.472 669.489 458.347C669.18 457.887 669.035 457.337 669.076 456.785C669.159 455.506 669.535 454.264 670.175 453.154C670.814 452.044 671.701 451.096 672.765 450.383C673.17 450.128 673.633 449.978 674.111 449.949ZM674.111 448.864C673.441 448.893 672.791 449.094 672.223 449.45C670.971 450.243 669.926 451.321 669.171 452.596C668.417 453.871 667.975 455.306 667.883 456.785C667.883 458.716 668.838 459.823 670.226 459.823C670.903 459.795 671.561 459.593 672.136 459.237C673.389 458.445 674.435 457.368 675.19 456.093C675.945 454.817 676.385 453.381 676.476 451.902C676.476 449.971 675.521 448.864 674.132 448.864H674.111Z" fill="#641EFF"/>
<path d="M594.101 298.679C594.218 297.572 594.039 296.454 593.581 295.44C593.124 294.426 592.404 293.551 591.497 292.907L577.523 284.834C576.508 284.363 575.386 284.171 574.272 284.278C573.158 284.385 572.093 284.786 571.186 285.442L407.46 379.989C404.854 381.679 402.686 383.963 401.132 386.652C399.578 389.341 398.683 392.359 398.519 395.461V439.36C398.402 440.467 398.582 441.584 399.039 442.599C399.497 443.613 400.216 444.488 401.123 445.132L415.098 453.205C416.111 453.673 417.231 453.862 418.341 453.751C419.452 453.64 420.512 453.234 421.413 452.575L585.161 358.05C587.764 356.352 589.93 354.064 591.484 351.372C593.037 348.68 593.934 345.66 594.101 342.556V298.679Z" fill="#641EFF"/>
<path opacity="0.2" d="M415.273 453.269C415.273 453.269 415.273 453.269 415.1 453.269C413.494 452.336 402.753 446.152 401.147 445.197C400.231 444.555 399.504 443.678 399.042 442.659C398.58 441.64 398.4 440.515 398.521 439.403V395.461C398.596 392.908 399.233 390.404 400.387 388.126L414.319 396.177C413.191 398.47 412.57 400.979 412.496 403.533V447.432C412.365 448.568 412.556 449.717 413.047 450.749C413.539 451.781 414.31 452.655 415.273 453.269Z" fill="black"/>
<path opacity="0.2" d="M591.086 292.668C590.106 292.329 589.059 292.229 588.032 292.376C587.005 292.523 586.029 292.913 585.184 293.514L421.435 388.061C418.327 390.02 415.854 392.84 414.318 396.177L400.43 388.126C401.924 384.789 404.36 381.961 407.439 379.989L571.187 285.442C572.092 284.793 573.152 284.394 574.26 284.283C575.368 284.173 576.486 284.355 577.502 284.813C579.021 285.681 588.59 291.193 591.086 292.668Z" fill="white"/>
<path d="M438.448 416.358C438.46 416.024 438.549 415.697 438.708 415.403C438.822 415.18 438.995 414.992 439.208 414.861L441.378 413.645C441.454 413.592 441.545 413.564 441.638 413.564C441.731 413.564 441.822 413.592 441.898 413.645C441.982 413.734 442.044 413.841 442.078 413.958C442.112 414.075 442.117 414.199 442.094 414.318C442.03 415.541 441.848 416.754 441.551 417.942C441.238 419.258 440.772 420.532 440.162 421.74C439.507 423.014 438.706 424.208 437.775 425.298C436.781 426.438 435.6 427.399 434.282 428.141C433.335 428.774 432.23 429.128 431.092 429.161C430.211 429.174 429.361 428.838 428.726 428.228C428.003 427.493 427.486 426.579 427.229 425.58C426.832 424.241 426.614 422.854 426.578 421.457C426.578 420.459 426.578 419.287 426.578 418.116C426.578 416.944 426.578 415.729 426.578 414.687C426.642 413.05 426.86 411.422 427.229 409.826C427.56 408.327 428.063 406.871 428.726 405.486C429.347 404.164 430.143 402.93 431.092 401.819C431.998 400.756 433.076 399.854 434.282 399.15C435.324 398.462 436.529 398.058 437.775 397.978C438.639 397.965 439.482 398.248 440.162 398.781C440.822 399.357 441.304 400.11 441.551 400.951C441.865 401.913 442.047 402.913 442.094 403.924C442.118 404.24 442.05 404.557 441.898 404.835C441.778 405.078 441.599 405.287 441.378 405.443L439.208 406.658C439.133 406.707 439.047 406.732 438.958 406.732C438.869 406.732 438.783 406.707 438.708 406.658C438.535 406.658 438.448 406.376 438.405 406.05C438.37 405.575 438.245 405.111 438.036 404.683C437.88 404.303 437.606 403.984 437.255 403.772C436.873 403.552 436.434 403.454 435.996 403.49C435.364 403.581 434.758 403.803 434.217 404.141C433.538 404.537 432.935 405.052 432.437 405.66C431.928 406.277 431.498 406.955 431.157 407.678C430.822 408.447 430.561 409.246 430.376 410.065C430.203 410.916 430.094 411.78 430.05 412.647C430.05 413.689 430.05 414.817 430.05 416.054C430.05 417.291 430.05 418.419 430.05 419.418C430.082 420.15 430.191 420.878 430.376 421.588C430.523 422.132 430.79 422.636 431.157 423.063C431.504 423.393 431.959 423.586 432.437 423.606C433.071 423.606 433.69 423.417 434.217 423.063C434.881 422.69 435.481 422.214 435.996 421.653C436.487 421.133 436.917 420.557 437.276 419.938C437.611 419.355 437.88 418.736 438.079 418.094C438.257 417.528 438.381 416.947 438.448 416.358Z" fill="white"/>
<path d="M457.872 409.001C457.942 408.943 458.031 408.911 458.122 408.911C458.213 408.911 458.301 408.943 458.371 409.001C458.452 409.088 458.513 409.191 458.551 409.303C458.588 409.415 458.601 409.535 458.588 409.652V412.517C458.587 412.826 458.512 413.131 458.371 413.406C458.271 413.656 458.097 413.868 457.872 414.014L446.393 420.632C446.323 420.691 446.234 420.723 446.143 420.723C446.052 420.723 445.964 420.691 445.894 420.632C445.749 420.448 445.679 420.215 445.698 419.981V393.941C445.7 393.634 445.766 393.331 445.894 393.052C445.995 392.803 446.169 392.592 446.393 392.444L448.563 391.207C448.633 391.149 448.721 391.117 448.812 391.117C448.903 391.117 448.992 391.149 449.062 391.207C449.139 391.296 449.198 391.399 449.236 391.511C449.273 391.623 449.288 391.741 449.279 391.858V413.971L457.872 409.001Z" fill="white"/>
<path d="M462.537 411.411C462.467 411.469 462.379 411.501 462.288 411.501C462.197 411.501 462.108 411.469 462.038 411.411C461.957 411.324 461.896 411.221 461.859 411.109C461.821 410.996 461.808 410.877 461.821 410.76V384.72C461.823 384.41 461.897 384.105 462.038 383.83C462.138 383.581 462.312 383.369 462.537 383.222L464.707 382.007C464.777 381.949 464.866 381.917 464.957 381.917C465.048 381.917 465.136 381.949 465.206 382.007C465.286 382.094 465.346 382.198 465.384 382.31C465.421 382.422 465.435 382.54 465.423 382.658V408.698C465.426 409.008 465.351 409.314 465.206 409.588C465.113 409.841 464.937 410.055 464.707 410.195L462.537 411.411Z" fill="white"/>
<path d="M481.373 391.577C481.425 391.229 481.551 390.896 481.742 390.6C481.862 390.382 482.033 390.196 482.241 390.058L484.411 388.843C484.483 388.788 484.57 388.759 484.661 388.759C484.751 388.759 484.838 388.788 484.91 388.843C484.996 388.93 485.059 389.037 485.093 389.154C485.127 389.272 485.131 389.396 485.105 389.515C484.969 392.094 484.312 394.619 483.174 396.937C482.519 398.211 481.718 399.405 480.787 400.496C479.793 401.635 478.611 402.597 477.293 403.338C476.343 403.962 475.24 404.315 474.103 404.358C473.223 404.371 472.373 404.036 471.738 403.425C471.018 402.679 470.502 401.76 470.241 400.756C469.853 399.422 469.634 398.044 469.59 396.655C469.59 395.656 469.59 394.485 469.59 393.291C469.59 392.098 469.59 390.926 469.59 389.884C469.664 388.248 469.881 386.621 470.241 385.023C470.582 383.527 471.084 382.072 471.738 380.683C472.359 379.361 473.155 378.127 474.103 377.016C475.009 375.954 476.088 375.051 477.293 374.347C478.332 373.65 479.538 373.245 480.787 373.175C481.653 373.151 482.499 373.435 483.174 373.978C483.834 374.554 484.316 375.307 484.563 376.148C484.889 377.107 485.072 378.109 485.105 379.121C485.129 379.437 485.061 379.754 484.91 380.032C484.803 380.272 484.63 380.475 484.411 380.618L482.241 381.855C482.167 381.904 482.08 381.93 481.991 381.93C481.903 381.93 481.816 381.904 481.742 381.855C481.646 381.783 481.569 381.687 481.52 381.577C481.471 381.467 481.45 381.346 481.46 381.226C481.41 380.761 481.286 380.306 481.091 379.881C480.919 379.499 480.64 379.174 480.288 378.947C479.904 378.736 479.466 378.645 479.029 378.687C478.397 378.778 477.791 379 477.25 379.338C476.57 379.733 475.967 380.247 475.471 380.857C474.96 381.469 474.537 382.148 474.212 382.875C473.86 383.64 473.591 384.44 473.409 385.262C473.237 386.114 473.128 386.977 473.084 387.844C473.084 388.886 473.084 390.014 473.084 391.251C473.084 392.488 473.084 393.617 473.084 394.615C473.115 395.348 473.224 396.075 473.409 396.785C473.549 397.33 473.825 397.83 474.212 398.239C474.374 398.411 474.569 398.549 474.785 398.646C475.001 398.743 475.234 398.796 475.471 398.803C476.103 398.795 476.721 398.607 477.25 398.26C477.914 397.888 478.515 397.412 479.029 396.85C479.527 396.327 479.957 395.744 480.31 395.114C480.648 394.54 480.917 393.928 481.113 393.291C481.251 392.729 481.338 392.155 481.373 391.577Z" fill="white"/>
<path d="M502.596 386.585C502.678 386.65 502.732 386.743 502.748 386.846C502.755 386.925 502.755 387.005 502.748 387.084C502.735 387.392 502.662 387.695 502.531 387.974C502.424 388.219 502.251 388.429 502.032 388.582L499.536 390.014C499.189 390.209 498.907 390.231 498.712 390.014C498.58 389.923 498.457 389.822 498.343 389.71L492.18 382.571V393.117C492.179 393.426 492.104 393.731 491.963 394.007C491.863 394.256 491.689 394.468 491.464 394.614L489.294 395.829C489.224 395.888 489.136 395.919 489.045 395.919C488.953 395.919 488.865 395.888 488.795 395.829C488.654 395.643 488.585 395.412 488.6 395.178V369.138C488.601 368.831 488.668 368.528 488.795 368.249C488.903 368.005 489.076 367.795 489.294 367.641L491.464 366.404C491.534 366.346 491.622 366.314 491.714 366.314C491.805 366.314 491.893 366.346 491.963 366.404C492.042 366.487 492.103 366.587 492.14 366.695C492.177 366.804 492.191 366.919 492.18 367.033V376.516L497.887 363.496C498.027 363.172 498.194 362.86 498.386 362.563C498.563 362.308 498.792 362.093 499.059 361.934L501.489 360.545C501.56 360.487 501.648 360.455 501.739 360.455C501.83 360.455 501.918 360.487 501.989 360.545C502.133 360.73 502.203 360.962 502.184 361.196C502.184 361.436 502.132 361.673 502.032 361.891L494.979 377.775L502.596 386.585Z" fill="white"/>
<path d="M526.419 346.267C526.489 346.209 526.578 346.177 526.669 346.177C526.76 346.177 526.848 346.209 526.918 346.267C526.996 346.356 527.055 346.459 527.092 346.571C527.129 346.682 527.144 346.8 527.135 346.918V372.958C527.127 373.266 527.053 373.57 526.918 373.848C526.811 374.092 526.638 374.302 526.419 374.455L524.249 375.67C524.179 375.729 524.091 375.76 524 375.76C523.908 375.76 523.82 375.729 523.75 375.67C523.673 375.582 523.614 375.478 523.576 375.367C523.539 375.255 523.524 375.137 523.533 375.019V364.365L515.678 368.9V379.75C515.678 380.053 515.603 380.351 515.461 380.618C515.361 380.873 515.187 381.092 514.962 381.247L512.792 382.462C512.721 382.521 512.633 382.553 512.542 382.553C512.451 382.553 512.363 382.521 512.292 382.462C512.216 382.374 512.158 382.27 512.125 382.158C512.091 382.046 512.082 381.928 512.097 381.811V355.771C512.099 355.464 512.165 355.161 512.292 354.882C512.401 354.638 512.573 354.428 512.792 354.274L514.962 353.037C515.03 352.975 515.119 352.94 515.211 352.94C515.304 352.94 515.393 352.975 515.461 353.037C515.54 353.121 515.6 353.22 515.637 353.328C515.675 353.437 515.689 353.552 515.678 353.667V364.039L523.576 359.482V349.11C523.585 348.801 523.659 348.498 523.793 348.22C523.894 347.971 524.068 347.76 524.293 347.612L526.419 346.267Z" fill="white"/>
<path d="M544.084 359.287C544.152 359.224 544.241 359.189 544.334 359.189C544.426 359.189 544.515 359.224 544.583 359.287C544.661 359.375 544.72 359.479 544.757 359.59C544.794 359.702 544.809 359.82 544.8 359.938V362.802C544.792 363.111 544.718 363.414 544.583 363.692C544.476 363.936 544.303 364.147 544.084 364.299L532.583 370.94C532.515 371.002 532.426 371.037 532.333 371.037C532.241 371.037 532.152 371.002 532.084 370.94C532.005 370.856 531.945 370.757 531.907 370.648C531.87 370.54 531.856 370.425 531.867 370.31V344.27C531.867 343.967 531.941 343.669 532.084 343.402C532.184 343.147 532.357 342.928 532.583 342.773L543.867 336.263C543.937 336.205 544.025 336.173 544.117 336.173C544.208 336.173 544.296 336.205 544.366 336.263C544.445 336.351 544.504 336.454 544.542 336.566C544.579 336.678 544.593 336.796 544.583 336.914V339.778C544.586 340.088 544.511 340.394 544.366 340.668C544.273 340.921 544.097 341.135 543.867 341.276L535.404 346.18V352.69L543.303 348.133C543.373 348.075 543.461 348.043 543.552 348.043C543.644 348.043 543.732 348.075 543.802 348.133C543.951 348.315 544.021 348.55 543.997 348.784V351.54C543.996 351.847 543.929 352.15 543.802 352.429C543.695 352.674 543.522 352.884 543.303 353.037L535.404 357.594V364.278L544.084 359.287Z" fill="white"/>
<path d="M556.173 329.102C558.343 327.844 560.014 327.67 561.142 328.56C561.811 329.299 562.312 330.174 562.608 331.126C562.904 332.078 562.989 333.083 562.857 334.071C562.868 335.953 562.568 337.822 561.967 339.605C561.417 341.287 560.539 342.843 559.385 344.184L563.008 352.061C563.029 352.19 563.029 352.322 563.008 352.451C563.005 352.707 562.946 352.959 562.835 353.189C562.744 353.389 562.602 353.561 562.423 353.688L560.253 354.969C559.905 355.164 559.645 355.186 559.493 354.969C559.338 354.829 559.213 354.659 559.124 354.469L555.717 347.2L552.245 349.218V358.614C552.233 358.922 552.159 359.225 552.028 359.504C551.921 359.748 551.748 359.959 551.529 360.111L549.359 361.327C549.289 361.385 549.201 361.417 549.11 361.417C549.018 361.417 548.93 361.385 548.86 361.327C548.783 361.238 548.724 361.135 548.686 361.023C548.649 360.911 548.634 360.793 548.643 360.676V334.636C548.651 334.327 548.725 334.024 548.86 333.746C548.961 333.498 549.135 333.286 549.359 333.138L556.173 329.102ZM552.245 344.075L556.043 341.905C556.996 341.377 557.813 340.634 558.43 339.735C559.075 338.656 559.385 337.41 559.319 336.155C559.319 334.657 559.016 333.811 558.43 333.659C558.011 333.597 557.585 333.619 557.175 333.723C556.765 333.828 556.38 334.012 556.043 334.267L552.245 336.437V344.075Z" fill="white"/>
<path d="M579.132 339.041C579.202 338.983 579.29 338.951 579.382 338.951C579.473 338.951 579.561 338.983 579.631 339.041C579.78 339.223 579.85 339.457 579.826 339.692V342.556C579.825 342.863 579.758 343.166 579.631 343.446C579.524 343.69 579.351 343.901 579.132 344.053L567.609 350.694C567.543 350.75 567.458 350.781 567.371 350.781C567.283 350.781 567.199 350.75 567.132 350.694C567.051 350.607 566.99 350.504 566.952 350.392C566.915 350.28 566.902 350.16 566.915 350.043V324.003C566.917 323.693 566.991 323.388 567.132 323.113C567.231 322.87 567.397 322.66 567.609 322.505L578.915 315.995C578.985 315.937 579.073 315.905 579.165 315.905C579.256 315.905 579.344 315.937 579.414 315.995C579.492 316.084 579.551 316.187 579.588 316.299C579.625 316.411 579.64 316.529 579.631 316.646V319.511C579.623 319.819 579.549 320.123 579.414 320.4C579.321 320.654 579.145 320.868 578.915 321.008L570.452 325.891V332.401L578.351 327.844C578.415 327.783 578.501 327.749 578.59 327.749C578.678 327.749 578.764 327.783 578.828 327.844C578.907 327.927 578.968 328.026 579.005 328.135C579.042 328.243 579.056 328.359 579.045 328.473V331.337C579.048 331.647 578.973 331.953 578.828 332.227C578.734 332.473 578.568 332.685 578.351 332.835L570.452 337.392V344.097L579.132 339.041Z" fill="white"/>
<path d="M594.275 339.432C594.049 339.426 593.833 339.332 593.675 339.17C593.517 339.008 593.429 338.79 593.429 338.564V329.276C593.409 329.152 593.416 329.026 593.45 328.905C593.484 328.784 593.544 328.672 593.626 328.576C593.707 328.481 593.808 328.404 593.922 328.351C594.036 328.299 594.16 328.271 594.286 328.271C594.412 328.271 594.536 328.299 594.65 328.351C594.764 328.404 594.865 328.481 594.946 328.576C595.028 328.672 595.088 328.784 595.122 328.905C595.156 329.026 595.163 329.152 595.143 329.276V338.521C595.149 338.638 595.131 338.756 595.09 338.866C595.049 338.976 594.986 339.077 594.905 339.163C594.824 339.248 594.726 339.316 594.618 339.362C594.509 339.408 594.393 339.432 594.275 339.432Z" fill="#37474F"/>
<path d="M588.244 345.399C588.083 345.4 587.924 345.356 587.786 345.272C587.648 345.187 587.536 345.066 587.463 344.921L584.447 338.52C584.385 338.416 584.345 338.3 584.331 338.18C584.316 338.06 584.327 337.938 584.362 337.822C584.397 337.706 584.456 337.599 584.535 337.507C584.615 337.416 584.712 337.342 584.822 337.29C584.931 337.238 585.05 337.21 585.171 337.207C585.292 337.204 585.413 337.227 585.524 337.273C585.636 337.319 585.737 337.389 585.821 337.476C585.904 337.564 585.968 337.668 586.009 337.782L589.026 344.097C589.073 344.198 589.1 344.307 589.105 344.419C589.11 344.531 589.093 344.642 589.054 344.747C589.016 344.852 588.957 344.948 588.882 345.03C588.806 345.112 588.715 345.179 588.613 345.225C588.51 345.318 588.382 345.378 588.244 345.399Z" fill="#37474F"/>
<path d="M583.73 354.752H583.491L578.261 353.103C578.152 353.073 578.051 353.022 577.962 352.951C577.874 352.881 577.801 352.793 577.749 352.693C577.696 352.594 577.664 352.484 577.655 352.372C577.646 352.259 577.66 352.146 577.697 352.039C577.729 351.932 577.782 351.832 577.853 351.746C577.924 351.659 578.012 351.588 578.111 351.535C578.21 351.483 578.318 351.45 578.43 351.44C578.541 351.43 578.653 351.442 578.76 351.475L583.99 353.103C584.208 353.172 584.39 353.326 584.496 353.529C584.601 353.732 584.622 353.969 584.554 354.188C584.494 354.357 584.382 354.503 584.234 354.604C584.086 354.706 583.909 354.757 583.73 354.752Z" fill="#37474F"/>
<path d="M576.181 368.466C576.03 368.466 575.881 368.428 575.749 368.356C575.616 368.284 575.504 368.18 575.421 368.054C575.364 367.956 575.327 367.848 575.312 367.735C575.297 367.623 575.305 367.508 575.336 367.399C575.366 367.29 575.418 367.188 575.489 367.099C575.559 367.01 575.647 366.936 575.747 366.882L581.779 363.388C581.876 363.33 581.983 363.292 582.095 363.275C582.206 363.259 582.32 363.265 582.429 363.294C582.538 363.322 582.641 363.372 582.73 363.44C582.82 363.509 582.895 363.594 582.951 363.692C583.063 363.889 583.094 364.121 583.037 364.34C582.98 364.559 582.84 364.747 582.647 364.864L576.593 368.358C576.469 368.434 576.326 368.471 576.181 368.466Z" fill="#37474F"/>
<path d="M606.364 351.042C606.213 351.041 606.065 351.003 605.932 350.931C605.8 350.859 605.687 350.756 605.605 350.629C605.494 350.43 605.467 350.196 605.528 349.977C605.589 349.758 605.733 349.571 605.93 349.458L611.963 345.964C612.06 345.907 612.167 345.87 612.278 345.854C612.389 345.838 612.503 345.845 612.611 345.873C612.72 345.901 612.822 345.951 612.912 346.018C613.002 346.086 613.077 346.171 613.134 346.268C613.191 346.365 613.229 346.472 613.244 346.583C613.26 346.694 613.253 346.808 613.225 346.916C613.197 347.025 613.148 347.127 613.08 347.217C613.012 347.307 612.928 347.382 612.831 347.439L606.776 350.933C606.653 351.009 606.509 351.047 606.364 351.042Z" fill="#37474F"/>
<path d="M604.737 342.687C604.565 342.69 604.397 342.637 604.259 342.535C604.071 342.407 603.94 342.21 603.896 341.987C603.851 341.764 603.896 341.532 604.021 341.342L609.25 333.682C609.389 333.523 609.581 333.42 609.789 333.392C609.998 333.365 610.21 333.414 610.385 333.531C610.561 333.647 610.688 333.824 610.742 334.027C610.797 334.231 610.776 334.447 610.683 334.636L605.431 342.318C605.353 342.43 605.249 342.522 605.128 342.586C605.007 342.65 604.873 342.685 604.737 342.687Z" fill="#37474F"/>
<path d="M600.33 338.52H600.07C599.961 338.491 599.859 338.439 599.771 338.369C599.683 338.298 599.61 338.211 599.557 338.111C599.504 338.011 599.472 337.902 599.463 337.789C599.455 337.677 599.469 337.564 599.505 337.457L602.522 327.649C602.556 327.542 602.611 327.443 602.683 327.357C602.756 327.271 602.845 327.201 602.944 327.15C603.044 327.098 603.153 327.067 603.265 327.058C603.377 327.048 603.489 327.061 603.596 327.095C603.703 327.13 603.802 327.184 603.888 327.257C603.973 327.329 604.044 327.418 604.095 327.518C604.146 327.618 604.178 327.726 604.187 327.838C604.196 327.95 604.184 328.063 604.149 328.169L601.09 337.826C601.057 338.009 600.965 338.176 600.827 338.302C600.69 338.427 600.515 338.504 600.33 338.52Z" fill="#37474F"/>
<path d="M652.843 377.581C652.327 376.367 651.448 375.344 650.326 374.651L644.012 371.027C641.277 369.465 637.914 371.027 636.156 372.112L632.207 369.834C627.433 366.948 620.814 372.98 619.317 374.434L617.624 373.458C615.454 372.091 612.33 372.958 609.617 374.326V351.324C609.724 350.349 609.58 349.364 609.201 348.46C608.821 347.557 608.217 346.765 607.447 346.159H607.339L601.089 342.47C600.175 342.07 599.173 341.913 598.18 342.016C597.187 342.119 596.238 342.477 595.425 343.056C593.069 344.591 591.108 346.661 589.701 349.097C588.295 351.532 587.483 354.266 587.331 357.074V427.274L586.376 426.818C580.843 422.934 575.027 420.612 569.906 421.523C565.601 422.518 561.837 425.118 559.382 428.793C556.712 433.523 561.118 436.474 566.803 442.984C572.488 449.494 577.414 457.198 582.557 461.972C585.087 464.546 588.095 466.602 591.411 468.026V477.205L597.66 480.808L645.205 453.357V444.178C645.205 444.178 651.107 420.655 652.974 410.825C654.84 400.995 656.489 385.067 652.843 377.581Z" fill="#641EFF"/>
<path opacity="0.8" d="M652.843 377.581C652.327 376.367 651.448 375.344 650.326 374.651L644.012 371.027C641.277 369.465 637.914 371.027 636.156 372.112L632.207 369.834C627.433 366.948 620.814 372.98 619.317 374.434L617.624 373.458C615.454 372.091 612.33 372.958 609.617 374.326V351.324C609.724 350.349 609.58 349.364 609.201 348.46C608.821 347.557 608.217 346.765 607.447 346.159H607.339L601.089 342.47C600.175 342.07 599.173 341.913 598.18 342.016C597.187 342.119 596.238 342.477 595.425 343.056C593.069 344.591 591.108 346.661 589.701 349.097C588.295 351.532 587.483 354.266 587.331 357.074V427.274L586.376 426.818C580.843 422.934 575.027 420.612 569.906 421.523C565.601 422.518 561.837 425.118 559.382 428.793C556.712 433.523 561.118 436.474 566.803 442.984C572.488 449.494 577.414 457.198 582.557 461.972C585.087 464.546 588.095 466.602 591.411 468.026V477.205L597.66 480.808L645.205 453.357V444.178C645.205 444.178 651.107 420.655 652.974 410.825C654.84 400.995 656.489 385.067 652.843 377.581Z" fill="white"/>
<path opacity="0.2" d="M609.64 374.326V382.094C611.513 380.484 613.558 379.087 615.738 377.928L609.64 374.326ZM638.349 370.94C637.595 371.236 636.869 371.599 636.179 372.025L638.197 373.197C639.511 373.953 640.557 375.098 641.192 376.474C642.287 375.639 643.491 374.96 644.773 374.456L638.349 370.94ZM623.572 370.94C622.051 371.907 620.633 373.027 619.34 374.282L623.463 376.669L623.702 376.799C624.327 377.138 624.868 377.613 625.286 378.188C626.599 376.848 628.054 375.654 629.626 374.629L623.572 370.94ZM587.202 356.987V427.187C589.396 428.286 591.488 429.578 593.452 431.049V360.676L587.202 356.987ZM588.656 465.487C583.535 460.713 578.566 452.945 572.924 446.5C567.586 440.38 563.354 437.408 565.09 433.154L558.841 429.661C557.105 434.001 561.336 436.908 566.674 443.028C572.316 449.538 577.286 457.22 582.407 462.037C584.954 464.594 587.967 466.642 591.282 468.07V477.249L597.532 480.851V471.672C594.198 470.238 591.182 468.158 588.656 465.552V465.487Z" fill="#641EFF"/>
<path opacity="0.3" d="M609.64 374.326V382.094C611.513 380.484 613.558 379.087 615.738 377.928L609.64 374.326ZM638.349 370.94C637.595 371.236 636.869 371.599 636.179 372.025L638.197 373.197C639.511 373.953 640.557 375.098 641.192 376.474C642.287 375.639 643.491 374.96 644.773 374.456L638.349 370.94ZM623.572 370.94C622.051 371.907 620.633 373.027 619.34 374.282L623.463 376.669L623.702 376.799C624.327 377.138 624.868 377.613 625.286 378.188C626.599 376.848 628.054 375.654 629.626 374.629L623.572 370.94ZM587.202 356.987V427.187C589.396 428.286 591.488 429.578 593.452 431.049V360.676L587.202 356.987ZM588.656 465.487C583.535 460.713 578.566 452.945 572.924 446.5C567.586 440.38 563.354 437.408 565.09 433.154L558.841 429.661C557.105 434.001 561.336 436.908 566.674 443.028C572.316 449.538 577.286 457.22 582.407 462.037C584.954 464.594 587.967 466.642 591.282 468.07V477.249L597.532 480.851V471.672C594.198 470.238 591.182 468.158 588.656 465.552V465.487Z" fill="#641EFF"/>
<path d="M597.532 480.786V471.607C594.219 470.186 591.212 468.138 588.678 465.574C583.536 460.778 578.566 453.01 572.924 446.565C567.282 440.12 562.812 437.104 565.503 432.395C567.954 428.712 571.718 426.104 576.027 425.103C581.452 424.149 587.637 426.796 593.387 431.114V360.654C593.539 357.849 594.351 355.119 595.757 352.686C597.164 350.254 599.125 348.189 601.481 346.658C605.952 344.076 609.576 346.159 609.576 351.323V382.094C609.576 382.094 620.708 372.177 625.221 378.253C625.221 378.253 636.18 366.796 641.127 376.474C641.127 376.474 649.156 369.964 652.78 377.515C656.404 385.067 654.668 400.973 652.78 410.803C650.892 420.633 645.012 444.156 645.012 444.156V453.335L597.532 480.786Z" fill="#641EFF"/>
<path opacity="0.65" d="M597.532 480.786V471.607C594.219 470.186 591.212 468.138 588.678 465.574C583.536 460.778 578.566 453.01 572.924 446.565C567.282 440.12 562.812 437.104 565.503 432.395C567.954 428.712 571.718 426.104 576.027 425.103C581.452 424.149 587.637 426.796 593.387 431.114V360.654C593.539 357.849 594.351 355.119 595.757 352.686C597.164 350.254 599.125 348.189 601.481 346.658C605.952 344.076 609.576 346.159 609.576 351.323V382.094C609.576 382.094 620.708 372.177 625.221 378.253C625.221 378.253 636.18 366.796 641.127 376.474C641.127 376.474 649.156 369.964 652.78 377.515C656.404 385.067 654.668 400.973 652.78 410.803C650.892 420.633 645.012 444.156 645.012 444.156V453.335L597.532 480.786Z" fill="white"/>
<g opacity="0.3">
<path d="M609.641 395.31C609.641 395.31 610.639 381.27 615.804 377.95H615.63C613.488 379.1 611.48 380.483 609.641 382.073V381.921C609.62 381.962 609.609 382.006 609.609 382.051C609.609 382.097 609.62 382.141 609.641 382.182V395.31Z" fill="#641EFF"/>
<path d="M625.285 378.253V391.1C625.285 391.1 626.717 377.906 629.625 374.694C628.067 375.738 626.614 376.93 625.285 378.253Z" fill="#641EFF"/>
<path d="M641.191 376.474V389.364C641.191 389.364 641.973 376.344 644.772 374.456C643.491 374.96 642.286 375.639 641.191 376.474Z" fill="#641EFF"/>
</g>
</svg>
