<svg width="157" height="464" viewBox="0 0 157 464" fill="none" xmlns="http://www.w3.org/2000/svg">
<path d="M98.9571 396.375L78.6854 390.732L58.4138 396.375C56.8781 406.344 56.949 416.524 58.6235 426.468C61.2797 444.774 73.1398 463.106 78.6854 463.106C84.231 463.106 96.0911 444.774 98.7474 426.468C100.422 416.524 100.493 406.344 98.9571 396.375Z" fill="#641EFF"/>
<path opacity="0.85" d="M98.9571 396.375L78.6854 390.732L58.4138 396.375C56.8781 406.344 56.949 416.524 58.6235 426.468C61.2797 444.774 73.1398 463.106 78.6854 463.106C84.231 463.106 96.0911 444.774 98.7474 426.468C100.422 416.524 100.493 406.344 98.9571 396.375Z" fill="white"/>
<path d="M91.9675 399.083H64.2629C60.3017 424.913 73.0473 444.699 78.2433 444.699C83.4394 444.699 95.9286 424.838 91.9675 399.083Z" fill="#641EFF"/>
<path d="M78.0784 399.083H82.7386C84.9443 403.266 85.8505 408.099 85.325 412.876C84.7424 419.847 80.8512 428.9 77.9852 428.9C75.1192 428.9 71.228 419.847 70.6455 412.876C70.12 408.099 71.0262 403.266 73.2319 399.083H77.892" fill="white"/>
<path d="M115.523 387.045L112.354 350.558H43.9434L40.7744 387.045C40.122 393.49 43.7103 400.086 51.6559 405.001C66.2888 414.079 90.0323 414.079 104.642 405.001C112.587 400.086 116.176 393.49 115.523 387.045Z" fill="#37474F"/>
<path d="M53.9196 367.059C40.5216 358.734 40.5216 345.267 53.9196 336.966C67.3175 328.666 89.0105 328.641 102.408 336.966C115.806 345.292 115.806 358.759 102.408 367.059C89.0105 375.36 67.3175 375.385 53.9196 367.059Z" fill="#455A64"/>
<path d="M114.781 378.118L113.709 365.88C112.731 370.594 109.352 375.159 103.527 378.77C89.5465 387.446 66.8282 387.446 52.8244 378.77C46.9993 375.159 43.5042 370.594 42.6187 365.88L41.5469 378.118C42.409 383.133 45.9274 388.023 52.1254 391.86C66.5253 400.788 89.8494 400.788 104.226 391.86C110.401 388.023 113.919 383.133 114.781 378.118Z" fill="#641EFF"/>
<path opacity="0.2" d="M105.088 404.725L106.206 404.098C97.2999 408.112 87.645 409.83 78.0122 409.113C60.9793 408.336 50.5406 401.339 50.2377 396.198C50.0884 391.962 50.3303 387.719 50.96 383.534C59.6599 387.799 69.1559 389.85 78.7112 389.528C97.7946 389.528 109.375 382.431 114.594 375.936L114.059 369.842L112.381 350.457H43.9465L40.7776 386.945C40.6262 388.151 40.6262 389.374 40.7776 390.581C40.7776 391.108 40.964 391.609 41.0805 392.136C41.2642 392.828 41.4899 393.507 41.7562 394.167C43.8758 398.782 47.3139 402.543 51.5658 404.9C59.7611 409.629 68.948 412.013 78.2452 411.822C80.6351 411.818 83.023 411.676 85.3986 411.395C86.5869 411.245 87.7286 411.069 88.917 410.844C94.469 409.913 99.8248 407.935 104.738 405L105.088 404.725Z" fill="black"/>
<path d="M79.1523 375.811H78.2436C64.2631 375.962 51.7506 372.075 43.106 364.727C42.2814 364.075 41.5872 363.252 41.0647 362.305C40.5422 361.358 40.2022 360.308 40.065 359.217C39.9277 358.126 39.996 357.017 40.2658 355.955C40.5356 354.893 41.0013 353.9 41.6352 353.036C42.2691 352.172 43.0582 351.454 43.9554 350.925C44.8526 350.396 45.8396 350.067 46.8575 349.957C47.8755 349.848 48.9035 349.96 49.8802 350.287C50.857 350.614 51.7625 351.15 52.5428 351.862C58.4612 356.878 67.5718 359.586 78.1737 359.385H78.2436C88.8221 359.511 97.9094 356.878 103.874 351.862C104.644 351.067 105.559 350.454 106.563 350.063C107.566 349.673 108.634 349.513 109.698 349.595C110.763 349.677 111.799 349.999 112.74 350.539C113.681 351.08 114.507 351.827 115.163 352.732C115.819 353.638 116.291 354.681 116.548 355.796C116.806 356.91 116.843 358.07 116.657 359.201C116.472 360.331 116.068 361.407 115.471 362.359C114.875 363.311 114.099 364.118 113.195 364.727C104.853 371.899 92.7599 375.811 79.1523 375.811Z" fill="#455A64"/>
<path d="M112.684 330.696L118.439 255.464L141.623 269.883C152.761 276.805 157.747 294.509 155.93 320.69L152.971 362.77L146.726 339.473C143.324 326.759 134.656 322.396 122.12 327.06L112.684 330.696Z" fill="#641EFF"/>
<path opacity="0.25" d="M112.684 330.696L118.439 255.464L141.623 269.883C152.761 276.805 157.747 294.509 155.93 320.69L152.971 362.77L146.726 339.473C143.324 326.759 134.656 322.396 122.12 327.06L112.684 330.696Z" fill="black"/>
<path d="M43.5969 330.696L37.8416 255.464L14.6573 269.883C3.51952 276.805 -1.46685 294.509 0.373908 320.69L3.30979 362.77L9.55442 339.473C12.9563 326.759 21.6475 322.396 34.16 327.06L43.5969 330.696Z" fill="#641EFF"/>
<path opacity="0.25" d="M43.5969 330.696L37.8416 255.464L14.6573 269.883C3.51952 276.805 -1.46685 294.509 0.373908 320.69L3.30979 362.77L9.55442 339.473C12.9563 326.759 21.6475 322.396 34.16 327.06L43.5969 330.696Z" fill="black"/>
<path d="M138.361 196.407C138.361 116.159 106.858 46.8195 83.4406 30.77L82.9047 30.444H82.7882C81.415 29.5728 79.8502 29.1133 78.2562 29.1133C76.6622 29.1133 75.0973 29.5728 73.7242 30.444H73.6077L72.9786 30.8953C49.6778 46.9449 18.0586 116.284 18.0586 196.532C18.0586 273.745 38.1672 342.182 40.1012 348.526L40.2409 349.003C42.3018 354.313 46.0519 358.66 50.8195 361.266C65.965 370.67 90.5473 370.67 105.693 361.266C110.621 358.606 114.451 354.063 116.435 348.526C118.252 342.031 138.361 273.695 138.361 196.407Z" fill="#F5F5F5"/>
<path d="M100.564 50.0545C96.0402 42.5115 90.229 35.9594 83.4383 30.7449L82.9023 30.444H82.7858C81.4127 29.5728 79.8478 29.1133 78.2539 29.1133C76.6599 29.1133 75.095 29.5728 73.7218 30.444H73.6053L72.9762 30.8703C66.183 36.0897 60.365 42.6406 55.8268 50.1799C52.0758 55.9008 48.667 61.873 45.6211 68.0601C46.4032 70.5146 47.6296 72.7779 49.2294 74.7192C50.8292 76.6604 52.7706 78.2412 54.9414 79.3701C67.7568 87.3447 88.5644 87.3447 101.38 79.3701C103.548 78.2377 105.488 76.6558 107.088 74.715C108.687 72.7742 109.915 70.5127 110.7 68.0601C107.692 61.8257 104.306 55.8109 100.564 50.0545Z" fill="#455A64"/>
<path d="M81.2721 32.9518L78.243 0L75.0508 32.9518C75.0778 33.2469 75.1757 33.5293 75.3351 33.7711C75.4945 34.013 75.7097 34.206 75.9595 34.331C76.6425 34.7014 77.3966 34.8944 78.1614 34.8944C78.9262 34.8944 79.6804 34.7014 80.3634 34.331C80.6132 34.206 80.8284 34.013 80.9877 33.7711C81.1471 33.5293 81.2451 33.2469 81.2721 32.9518Z" fill="#263238"/>
<path opacity="0.15" d="M17.9648 196.406C17.9648 273.62 38.0734 342.056 40.0074 348.401L40.1472 348.877C42.208 354.188 45.9581 358.535 50.7257 361.14C53.4057 362.758 56.2319 364.077 59.1606 365.077C45.5437 310.731 38.3799 254.747 37.8404 198.463C37.8404 109.538 58.182 46.5435 72.7916 30.8701C49.4675 46.8194 17.9648 116.159 17.9648 196.406Z" fill="black"/>
<path opacity="0.35" d="M138.361 196.406C138.361 273.62 118.252 342.056 116.342 348.401C116.301 348.565 116.247 348.724 116.178 348.877C114.126 354.194 110.374 358.544 105.6 361.14C116.971 316.327 129.949 262.661 129.949 198.463C129.949 109.538 98.1437 46.5435 83.3477 30.8701C106.858 46.8194 138.361 116.159 138.361 196.406Z" fill="white"/>
<path d="M137.825 306.497L117.343 265.821L111.938 269.207L102.617 333.129L111.495 340.853C123.269 351.09 131.434 365.355 134.632 381.278L140.528 410.518C140.528 410.518 143.091 391.936 145.933 369.441C148.38 349.279 148.31 326.032 137.825 306.497Z" fill="#641EFF"/>
<path opacity="0.3" d="M137.825 306.497L117.343 265.821L111.938 269.207L102.617 333.129L111.495 340.853C123.269 351.09 131.434 365.355 134.632 381.278L140.528 410.518C140.528 410.518 143.091 391.936 145.933 369.441C148.38 349.279 148.31 326.032 137.825 306.497Z" fill="white"/>
<path d="M102.523 333.129L111.844 269.207L132.325 309.858C142.787 329.393 144.814 351.887 143.09 374.357L140.341 410.518L134.446 381.278C131.247 365.355 123.082 351.09 111.308 340.853L102.523 333.129Z" fill="#641EFF"/>
<path d="M18.4998 306.497L38.9812 265.821L44.387 269.207L53.7073 333.129L44.8297 340.853C33.0551 351.09 24.8902 365.355 21.692 381.278L15.8202 410.518C15.8202 410.518 13.2338 391.936 10.3912 369.441C7.94457 349.279 8.01446 326.032 18.4998 306.497Z" fill="#641EFF"/>
<path opacity="0.3" d="M18.4998 306.497L38.9812 265.821L44.387 269.207L53.7073 333.129L44.8297 340.853C33.0551 351.09 24.8902 365.355 21.692 381.278L15.8202 410.518C15.8202 410.518 13.2338 391.936 10.3912 369.441C7.94457 349.279 8.01446 326.032 18.4998 306.497Z" fill="white"/>
<path d="M53.8013 333.129L44.481 269.207L23.9996 309.858C13.5375 329.393 11.5104 351.887 13.2346 374.357L16.0074 410.518L21.8792 381.278C25.0774 365.355 33.2423 351.09 45.0169 340.853L53.8013 333.129Z" fill="#641EFF"/>
<path d="M125.846 132.409C125.485 128.782 124.367 125.29 122.575 122.194C120.784 119.098 118.365 116.477 115.5 114.529L111.795 112.247C109.07 110.577 105.984 109.712 102.848 109.739C100.467 109.751 98.1039 110.192 95.8577 111.043C84.5568 115.256 76.8442 129.124 77.4733 143.97C77.4933 148.478 78.5482 152.911 80.5442 156.875C82.5402 160.839 85.4153 164.21 88.914 166.69L92.8286 169.198C95.5842 170.938 98.721 171.855 101.916 171.856C104.003 171.851 106.074 171.47 108.044 170.727C121.325 165.862 127.966 146.904 125.846 132.409Z" fill="#641EFF"/>
<g opacity="0.2">
<path d="M125.846 132.409C125.485 128.782 124.367 125.29 122.575 122.194C120.784 119.098 118.365 116.477 115.5 114.529L111.795 112.247C109.07 110.577 105.984 109.712 102.848 109.739C100.467 109.751 98.1039 110.192 95.8577 111.043C84.5568 115.256 76.8442 129.124 77.4733 143.97C77.4933 148.478 78.5482 152.911 80.5442 156.875C82.5402 160.839 85.4153 164.21 88.914 166.69L92.8286 169.198C95.5842 170.938 98.721 171.855 101.916 171.856C104.003 171.851 106.074 171.47 108.044 170.727C121.325 165.862 127.966 146.904 125.846 132.409Z" fill="black"/>
</g>
<path d="M101.965 171.756C90.7341 171.756 81.8099 160.772 81.1808 146.227C80.5516 131.682 88.171 117.513 99.5651 113.3C101.808 112.437 104.173 111.996 106.555 111.996C116.481 111.996 124.078 119.996 125.895 132.409C128.015 146.904 121.375 165.737 108.14 170.627C106.155 171.375 104.068 171.757 101.965 171.756Z" fill="#641EFF"/>
<path d="M105.971 163.981C96.5345 167.492 88.2161 158.213 87.6802 145.9C87.1443 133.587 93.4588 123.005 101.661 119.92C109.863 116.835 117.622 121.575 119.346 133.487C121.07 145.399 115.525 160.495 105.971 163.981Z" fill="#37474F"/>
<path d="M115.524 131.355C115.082 126.774 113.042 122.544 109.815 119.519C107.125 118.729 104.272 118.87 101.66 119.92C93.4111 123.005 87.1199 133.562 87.6791 145.9C87.7054 148.97 88.3429 151.997 89.5488 154.779C90.7546 157.561 92.5008 160.031 94.6693 162.025C97.084 162.831 99.6765 162.769 102.056 161.85C111.586 158.339 117.294 143.292 115.524 131.355Z" fill="#455A64"/>
<path opacity="0.3" d="M101.032 124.986C93.2959 129.149 89.7309 139.08 91.1988 148.007C91.3153 148.734 91.595 149.587 92.2707 149.763C92.9464 149.938 93.6687 149.085 94.0648 148.333C96.3949 144.145 98.725 139.029 102.942 136.672C103.921 136.167 104.954 135.796 106.018 135.569C108.907 134.766 111.447 133.437 111.657 129.801C111.856 128.471 111.57 127.109 110.858 126.001C110.145 124.894 109.062 124.125 107.836 123.858C105.515 123.346 103.101 123.746 101.032 124.986Z" fill="white"/>
<path d="M122.05 202.451C121.772 199.674 120.916 197 119.544 194.63C118.172 192.259 116.321 190.252 114.128 188.758L111.309 187.028C109.216 185.744 106.844 185.078 104.435 185.097C102.624 185.103 100.827 185.442 99.1225 186.1C90.5012 189.31 84.5828 199.918 85.142 211.178C85.1551 214.628 85.9594 218.022 87.4837 221.058C89.0079 224.094 91.205 226.678 93.8798 228.581L96.8856 230.437C99.006 231.772 101.419 232.473 103.876 232.468C105.464 232.459 107.039 232.162 108.536 231.591C118.602 227.954 123.658 213.51 122.05 202.451Z" fill="#641EFF"/>
<g opacity="0.2">
<path d="M122.05 202.451C121.772 199.674 120.916 197 119.544 194.63C118.172 192.259 116.321 190.252 114.128 188.758L111.309 187.028C109.216 185.744 106.844 185.078 104.435 185.097C102.624 185.103 100.827 185.442 99.1225 186.1C90.5012 189.31 84.5828 199.918 85.142 211.178C85.1551 214.628 85.9594 218.022 87.4837 221.058C89.0079 224.094 91.205 226.678 93.8798 228.581L96.8856 230.437C99.006 231.772 101.419 232.473 103.876 232.468C105.464 232.459 107.039 232.162 108.536 231.591C118.602 227.954 123.658 213.51 122.05 202.451Z" fill="black"/>
</g>
<path d="M103.876 232.568C95.3017 232.568 88.4746 224.167 87.9853 213.033C87.496 201.899 93.4144 191.065 101.966 187.83C103.67 187.17 105.467 186.83 107.278 186.827C114.874 186.827 120.676 192.971 122.074 202.45C123.682 213.56 118.626 227.954 108.467 231.691C106.992 232.254 105.441 232.551 103.876 232.568Z" fill="#641EFF"/>
<path d="M106.835 226.625C99.6121 229.283 93.251 222.211 92.8549 212.782C92.4588 203.353 97.2587 195.228 103.573 192.896C109.888 190.564 115.783 194.175 117.111 203.278C118.439 212.381 114.059 223.967 106.835 226.625Z" fill="#37474F"/>
<path d="M114.174 201.648C113.842 198.144 112.284 194.907 109.817 192.595C107.757 191.984 105.572 192.09 103.572 192.896C97.2574 195.253 92.4341 203.353 92.8535 212.782C92.8702 215.135 93.3598 217.456 94.289 219.586C95.2181 221.715 96.5646 223.603 98.236 225.12C100.075 225.769 102.059 225.769 103.898 225.12C111.121 222.311 115.525 210.776 114.174 201.648Z" fill="#455A64"/>
<path opacity="0.3" d="M103.06 196.783C100.245 198.48 98.0004 201.091 96.6485 204.245C95.2966 207.398 94.9065 210.931 95.5342 214.337C95.5342 214.889 95.8371 215.541 96.3497 215.691C96.8623 215.842 97.4215 215.165 97.7245 214.588C99.4254 211.378 101.359 207.491 104.528 205.66C105.27 205.282 106.053 205.004 106.858 204.833C109.188 204.206 111.006 203.203 111.169 200.394C111.314 199.383 111.093 198.351 110.551 197.511C110.009 196.671 109.187 196.087 108.256 195.88C106.48 195.489 104.632 195.81 103.06 196.783Z" fill="white"/>
</svg>
