<svg width="262" height="628" viewBox="0 0 262 628" fill="none" xmlns="http://www.w3.org/2000/svg">
<path d="M259.087 582.65C256.316 581.098 253.162 580.519 250.07 580.995C249.158 579.542 247.936 578.346 246.505 577.509C243.095 575.653 239.328 574.686 235.507 574.686C231.686 574.686 227.919 575.653 224.509 577.509C223.395 578.076 222.414 578.905 221.636 579.933C220.858 580.961 220.303 582.164 220.012 583.452C212.706 581.886 205.124 583.008 198.482 586.637C197.15 587.448 195.933 588.461 194.87 589.646C185.154 586.336 172.711 587.139 164.579 592.355C162.197 593.737 160.165 595.726 158.661 598.148C149.329 594.971 139.211 595.872 130.49 600.655C129.351 601.363 128.289 602.204 127.321 603.163C126.413 602.336 125.438 601.598 124.409 600.956C118.784 597.756 112.477 596.199 106.118 596.442C104.551 593.422 102.204 590.957 99.3604 589.345C90.6226 583.929 77.3645 583.076 67.1587 586.838C66.0091 583.868 63.9096 581.44 61.2403 579.992C55.1868 576.609 48.3126 575.313 41.5511 576.28C40.7111 574.356 39.3015 572.786 37.5434 571.816C34.2318 570.012 30.572 569.071 26.86 569.071C23.1481 569.071 19.4882 570.012 16.1766 571.816C15.0997 572.477 14.1314 573.324 13.3106 574.324C9.81956 573.64 6.21644 574.213 3.05823 575.954C-1.01941 578.462 -1.01941 582.6 3.05823 585.132C5.21509 586.311 7.58848 586.958 10.0065 587.028C12.4245 587.097 14.8265 586.587 17.0387 585.534C19.3122 586.725 21.7673 587.464 24.2852 587.715C23.3765 591.778 25.427 596.041 30.4367 599.151C37.6805 603.111 45.9949 604.178 53.9006 602.16C54.2734 606.072 56.8364 609.934 61.6364 612.918C68.3629 616.704 75.9524 618.348 83.5158 617.658C84.9771 619.883 86.8997 621.712 89.1313 622.999C97.2866 628.015 109.706 628.893 119.236 625.507C121.769 626.865 124.561 627.572 127.391 627.572C130.221 627.572 133.013 626.865 135.546 625.507C136.021 625.203 136.473 624.859 136.898 624.479C145.926 627.077 155.53 625.931 163.81 621.269C165.666 620.166 167.305 618.684 168.634 616.906C178.583 620.968 191.934 620.291 200.789 614.849C203.348 613.376 205.496 611.194 207.01 608.53C214.365 610.142 222.011 609.028 228.703 605.37C233.689 602.26 235.693 597.997 234.645 593.96C238.473 594.17 242.291 593.36 245.759 591.602C247.871 592.65 250.175 593.169 252.499 593.121C254.824 593.073 257.108 592.46 259.18 591.327C262.955 588.944 262.955 585.057 259.087 582.65Z" fill="#E0E0E0"/>
<path d="M192.354 576.003C192.354 591.627 163.67 604.291 128.276 604.291C92.8825 604.291 64.1992 591.627 64.1992 576.003C64.1992 560.38 92.8825 547.741 128.276 547.741C163.67 547.741 192.354 560.405 192.354 576.003Z" fill="#641EFF"/>
<path d="M192.354 576.003C192.354 591.627 163.67 604.291 128.276 604.291C92.8825 604.291 64.1992 591.627 64.1992 576.003C64.1992 560.38 92.8825 547.741 128.276 547.741C163.67 547.741 192.354 560.405 192.354 576.003Z" fill="#641EFF"/>
<path opacity="0.9" d="M192.354 576.003C192.354 591.627 163.67 604.291 128.276 604.291C92.8825 604.291 64.1992 591.627 64.1992 576.003C64.1992 560.38 92.8825 547.741 128.276 547.741C163.67 547.741 192.354 560.405 192.354 576.003Z" fill="white"/>
<path d="M71.3307 561.409C71.5426 553.436 74.6343 545.867 79.9488 540.309C85.2633 534.75 92.3819 531.641 99.7926 531.641C107.203 531.641 114.322 534.75 119.636 540.309C124.951 545.867 128.043 553.436 128.255 561.409C128.255 561.685 128.255 561.96 128.255 562.261C128.255 562.562 128.255 562.813 128.255 563.114C127.928 567.352 125.155 571.515 119.913 574.775C108.822 581.696 90.7635 581.696 79.6257 574.775C74.4297 571.515 71.6569 567.252 71.3307 563.114C71.3307 562.813 71.3307 562.562 71.3307 562.261C71.3307 561.96 71.3074 561.685 71.3307 561.409Z" fill="#641EFF"/>
<path opacity="0.8" d="M71.3307 561.409C71.5426 553.436 74.6343 545.867 79.9488 540.309C85.2633 534.75 92.3819 531.641 99.7926 531.641C107.203 531.641 114.322 534.75 119.636 540.309C124.951 545.867 128.043 553.436 128.255 561.409C128.255 561.685 128.255 561.96 128.255 562.261C128.255 562.562 128.255 562.813 128.255 563.114C127.928 567.352 125.155 571.515 119.913 574.775C108.822 581.696 90.7635 581.696 79.6257 574.775C74.4297 571.515 71.6569 567.252 71.3307 563.114C71.3307 562.813 71.3307 562.562 71.3307 562.261C71.3307 561.96 71.3074 561.685 71.3307 561.409Z" fill="white"/>
<g style="mix-blend-mode:lighten" opacity="0.3">
<path d="M87.4297 534.651C91.7095 532.424 96.4395 531.387 101.188 531.634C105.936 531.882 110.551 533.406 114.611 536.067C118.671 538.728 122.046 542.442 124.429 546.868C126.813 551.295 128.127 556.294 128.253 561.409C128.253 561.684 128.253 561.96 128.253 562.261C128.253 562.562 128.253 562.813 128.253 563.114C127.926 567.352 125.154 571.515 119.911 574.775C115.479 577.419 110.598 579.074 105.558 579.64C112.944 578.286 117.721 569.408 115.461 559.578C112.897 548.143 102.226 531.717 87.4297 534.651Z" fill="white"/>
</g>
<path opacity="0.1" d="M71.332 563.114C71.332 562.813 71.332 562.563 71.332 562.262C71.332 561.961 71.332 561.685 71.332 561.409C71.4344 557.202 72.3442 553.063 74.0043 549.252C75.6644 545.441 78.0389 542.041 80.9786 539.266C77.9029 542.676 71.0058 555.591 78.4854 565.421C83.4019 571.891 106.749 581.12 125.972 569.258C124.318 571.517 122.258 573.393 119.914 574.775C108.823 581.697 90.7649 581.697 79.6271 574.775C74.431 571.515 71.6582 567.352 71.332 563.114Z" fill="#641EFF"/>
<g style="mix-blend-mode:lighten" opacity="0.5">
<path d="M100.083 538.513C98.8013 541.623 101.248 545.81 105.535 547.842C109.823 549.873 114.366 548.97 115.625 545.861C116.883 542.751 114.459 538.563 110.172 536.532C105.885 534.501 101.341 535.378 100.083 538.513Z" fill="white"/>
</g>
<g style="mix-blend-mode:lighten" opacity="0.5">
<path d="M116.582 551.228C116.389 552.138 116.497 553.093 116.888 553.927C117.278 554.761 117.927 555.422 118.722 555.796C119.517 556.17 120.409 556.235 121.243 555.977C122.077 555.72 122.802 555.158 123.292 554.387C123.485 553.477 123.377 552.522 122.986 551.688C122.596 550.854 121.947 550.193 121.152 549.819C120.357 549.445 119.465 549.38 118.631 549.637C117.797 549.895 117.072 550.457 116.582 551.228Z" fill="white"/>
</g>
<path d="M176.279 562.311C176.084 555.551 173.451 549.138 168.939 544.43C164.427 539.722 158.389 537.089 152.104 537.089C145.82 537.089 139.782 539.722 135.269 544.43C130.757 549.138 128.125 555.551 127.93 562.311C127.898 562.796 127.898 563.282 127.93 563.766C128.209 567.352 130.563 570.888 134.92 573.672C140.22 576.564 146.08 578.072 152.023 578.072C157.966 578.072 163.825 576.564 169.125 573.672C173.552 570.888 175.906 567.352 176.116 563.766C176.147 563.282 176.147 562.796 176.116 562.311H176.279Z" fill="#641EFF"/>
<path opacity="0.8" d="M176.279 562.311C176.084 555.551 173.451 549.138 168.939 544.43C164.427 539.722 158.389 537.089 152.104 537.089C145.82 537.089 139.782 539.722 135.269 544.43C130.757 549.138 128.125 555.551 127.93 562.311C127.898 562.796 127.898 563.282 127.93 563.766C128.209 567.352 130.563 570.888 134.92 573.672C140.22 576.564 146.08 578.072 152.023 578.072C157.966 578.072 163.825 576.564 169.125 573.672C173.552 570.888 175.906 567.352 176.116 563.766C176.147 563.282 176.147 562.796 176.116 562.311H176.279Z" fill="white"/>
<g style="mix-blend-mode:lighten" opacity="0.3">
<path d="M162.601 539.516C158.967 537.618 154.949 536.732 150.914 536.939C146.88 537.145 142.958 538.438 139.508 540.699C136.058 542.96 133.19 546.116 131.167 549.879C129.144 553.642 128.031 557.891 127.93 562.236C127.898 562.721 127.898 563.207 127.93 563.691C128.209 567.277 130.563 570.813 134.92 573.596C138.677 575.8 142.803 577.181 147.059 577.659C140.768 576.505 136.714 568.957 138.648 560.631C140.978 551.052 150.042 537.008 162.601 539.516Z" fill="white"/>
</g>
<path opacity="0.1" d="M176.279 563.767C176.31 563.282 176.31 562.796 176.279 562.312C176.19 558.738 175.416 555.222 174.004 551.985C172.593 548.749 170.575 545.861 168.077 543.504C170.71 546.413 176.535 557.372 170.197 565.723C166.026 571.215 146.197 579.064 129.887 568.983C131.283 570.903 133.027 572.499 135.013 573.672C140.313 576.565 146.173 578.072 152.116 578.072C158.059 578.072 163.918 576.565 169.218 573.672C173.646 570.888 175.999 567.353 176.279 563.767Z" fill="#641EFF"/>
<g style="mix-blend-mode:lighten" opacity="0.5">
<path d="M151.857 542.851C152.953 545.51 150.856 549.071 147.197 550.801C143.539 552.531 139.718 551.754 138.623 549.096C137.527 546.438 139.625 542.902 143.283 541.171C146.941 539.441 150.786 540.218 151.857 542.851Z" fill="white"/>
</g>
<g style="mix-blend-mode:lighten" opacity="0.5">
<path d="M137.856 553.659C138.239 554.237 138.447 554.929 138.451 555.64C138.454 556.35 138.253 557.044 137.875 557.626C137.496 558.208 136.96 558.65 136.339 558.89C135.717 559.131 135.042 559.158 134.406 558.968C133.77 558.779 133.204 558.381 132.787 557.831C132.369 557.281 132.12 556.605 132.074 555.896C132.028 555.188 132.188 554.481 132.53 553.874C132.873 553.267 133.382 552.789 133.988 552.506C134.646 552.121 135.417 552.027 136.138 552.242C136.86 552.457 137.475 552.965 137.856 553.659Z" fill="white"/>
</g>
<path d="M195.708 573.27C195.708 568.708 194.024 564.332 191.027 561.106C188.029 557.88 183.963 556.067 179.724 556.067C175.485 556.067 171.419 557.88 168.421 561.106C165.424 564.332 163.74 568.708 163.74 573.27C163.727 573.429 163.727 573.588 163.74 573.747C163.729 573.906 163.729 574.065 163.74 574.223C163.959 575.642 164.498 576.98 165.311 578.122C166.124 579.263 167.184 580.172 168.4 580.769C171.909 582.685 175.789 583.684 179.724 583.684C183.659 583.684 187.539 582.685 191.048 580.769C192.258 580.163 193.313 579.251 194.125 578.112C194.936 576.972 195.48 575.638 195.708 574.223V573.27Z" fill="#641EFF"/>
<path opacity="0.9" d="M195.708 573.27C195.708 568.708 194.024 564.332 191.027 561.106C188.029 557.88 183.963 556.067 179.724 556.067C175.485 556.067 171.419 557.88 168.421 561.106C165.424 564.332 163.74 568.708 163.74 573.27C163.727 573.429 163.727 573.588 163.74 573.747C163.729 573.906 163.729 574.065 163.74 574.223C163.959 575.642 164.498 576.98 165.311 578.122C166.124 579.263 167.184 580.172 168.4 580.769C171.909 582.685 175.789 583.684 179.724 583.684C183.659 583.684 187.539 582.685 191.048 580.769C192.258 580.163 193.313 579.251 194.125 578.112C194.936 576.972 195.48 575.638 195.708 574.223V573.27Z" fill="white"/>
<g style="mix-blend-mode:lighten" opacity="0.5">
<path d="M186.648 558.249C184.473 557.1 182.08 556.508 179.658 556.519C175.488 556.511 171.481 558.259 168.494 561.39C165.507 564.52 163.777 568.784 163.673 573.27C163.661 573.429 163.661 573.588 163.673 573.747C163.662 573.905 163.662 574.065 163.673 574.223C163.892 575.642 164.432 576.98 165.245 578.122C166.057 579.263 167.118 580.172 168.333 580.769C170.819 582.234 173.553 583.147 176.372 583.452C172.225 582.7 169.522 577.709 170.803 572.192C172.364 565.822 178.353 556.594 186.648 558.249Z" fill="white"/>
</g>
<path opacity="0.1" d="M195.711 574.223V573.27C195.664 570.889 195.157 568.544 194.223 566.386C193.288 564.227 191.946 562.301 190.281 560.731C192.006 562.637 195.874 569.885 191.68 575.402C188.907 579.038 175.812 584.229 165.023 577.558C165.944 578.829 167.093 579.887 168.402 580.668C171.911 582.585 175.791 583.583 179.726 583.583C183.661 583.583 187.541 582.585 191.05 580.668C192.249 580.072 193.297 579.176 194.108 578.055C194.918 576.933 195.468 575.62 195.711 574.223Z" fill="#641EFF"/>
<g style="mix-blend-mode:lighten" opacity="0.5">
<path d="M179.562 560.405C180.261 562.161 178.887 564.493 176.487 565.646C174.087 566.8 171.524 566.273 170.825 564.518C170.126 562.763 171.477 560.43 173.9 559.277C176.323 558.123 178.84 558.65 179.562 560.405Z" fill="white"/>
</g>
<g style="mix-blend-mode:lighten" opacity="0.5">
<path d="M170.288 567.553C170.398 568.066 170.338 568.603 170.119 569.073C169.899 569.543 169.534 569.916 169.087 570.127C168.639 570.338 168.137 570.374 167.667 570.23C167.198 570.085 166.79 569.768 166.514 569.334C166.385 568.828 166.439 568.289 166.663 567.825C166.888 567.36 167.267 567.003 167.725 566.826C168.156 566.56 168.666 566.488 169.146 566.624C169.625 566.76 170.036 567.094 170.288 567.553Z" fill="white"/>
</g>
<path d="M226.722 575.427C226.537 569.358 224.167 563.603 220.112 559.38C216.058 555.157 210.636 552.796 204.994 552.796C199.351 552.796 193.93 555.157 189.875 559.38C185.82 563.603 183.45 569.358 183.266 575.427V576.731C183.574 578.66 184.314 580.479 185.422 582.03C186.531 583.581 187.974 584.818 189.627 585.634C194.39 588.243 199.66 589.604 205.005 589.604C210.351 589.604 215.62 588.243 220.384 585.634C222.031 584.813 223.468 583.574 224.572 582.024C225.676 580.473 226.414 578.657 226.722 576.731C226.734 576.514 226.734 576.296 226.722 576.079C226.733 575.862 226.733 575.644 226.722 575.427Z" fill="#641EFF"/>
<path opacity="0.7" d="M226.722 575.427C226.537 569.358 224.167 563.603 220.112 559.38C216.058 555.157 210.636 552.796 204.994 552.796C199.351 552.796 193.93 555.157 189.875 559.38C185.82 563.603 183.45 569.358 183.266 575.427V576.731C183.574 578.66 184.314 580.479 185.422 582.03C186.531 583.581 187.974 584.818 189.627 585.634C194.39 588.243 199.66 589.604 205.005 589.604C210.351 589.604 215.62 588.243 220.384 585.634C222.031 584.813 223.468 583.574 224.572 582.024C225.676 580.473 226.414 578.657 226.722 576.731C226.734 576.514 226.734 576.296 226.722 576.079C226.733 575.862 226.733 575.644 226.722 575.427Z" fill="white"/>
<g style="mix-blend-mode:lighten" opacity="0.3">
<path d="M214.326 555.039C211.426 553.501 208.238 552.695 205.005 552.682C199.343 552.679 193.903 555.055 189.843 559.302C185.783 563.55 183.423 569.335 183.266 575.427V576.731C183.574 578.66 184.314 580.478 185.422 582.029C186.531 583.581 187.974 584.818 189.627 585.633C192.997 587.629 196.705 588.874 200.532 589.295C194.893 588.267 191.211 581.496 192.982 573.997C194.893 565.321 203.048 552.782 214.326 555.039Z" fill="white"/>
</g>
<path opacity="0.1" d="M226.724 576.731C226.736 576.514 226.736 576.296 226.724 576.079C226.735 575.862 226.735 575.644 226.724 575.427C226.648 572.216 225.952 569.058 224.681 566.152C223.409 563.246 221.589 560.657 219.338 558.55C221.668 561.058 226.957 571.089 221.248 578.612C217.497 583.627 199.695 590.574 185.016 581.521C186.292 583.246 187.877 584.678 189.676 585.734C194.439 588.343 199.709 589.704 205.054 589.704C210.4 589.704 215.669 588.343 220.433 585.734C222.083 584.897 223.519 583.64 224.615 582.071C225.711 580.502 226.435 578.669 226.724 576.731Z" fill="#641EFF"/>
<g style="mix-blend-mode:lighten" opacity="0.5">
<path d="M204.682 557.974C205.661 560.356 203.797 563.541 200.512 565.096C197.226 566.65 193.778 565.948 192.822 563.566C191.867 561.183 193.708 557.999 196.993 556.444C200.279 554.889 203.704 555.591 204.682 557.974Z" fill="white"/>
</g>
<g style="mix-blend-mode:lighten" opacity="0.5">
<path d="M192.099 567.679C192.256 568.376 192.183 569.111 191.891 569.757C191.599 570.403 191.107 570.918 190.5 571.216C189.893 571.513 189.208 571.572 188.564 571.385C187.92 571.197 187.357 570.773 186.973 570.186C186.778 569.479 186.827 568.719 187.112 568.047C187.397 567.376 187.897 566.838 188.522 566.532C189.146 566.227 189.852 566.174 190.51 566.385C191.167 566.596 191.731 567.055 192.099 567.679Z" fill="white"/>
</g>
<path d="M167.075 440.535C167.088 446.737 165.844 452.866 163.429 458.497C161.014 464.128 157.487 469.123 153.094 473.136C150.2 475.724 147.866 478.961 146.256 482.622C144.646 486.282 143.799 490.277 143.774 494.327V605.244C143.644 606.796 143.13 608.281 142.286 609.547C141.442 610.813 140.298 611.812 138.974 612.441C137.101 613.551 135.082 614.346 132.986 614.799C129.311 615.602 125.523 615.602 121.848 614.799C119.758 614.349 117.746 613.554 115.883 612.441C114.563 611.808 113.424 610.808 112.585 609.542C111.745 608.277 111.234 606.793 111.106 605.244V494.126C111.064 490.112 110.207 486.157 108.598 482.536C106.988 478.915 104.663 475.715 101.786 473.161C97.3261 469.12 93.7501 464.068 91.3133 458.368C88.8765 452.668 87.639 446.459 87.689 440.184C87.9793 429.006 92.3203 418.393 99.7844 410.613C107.249 402.833 117.244 398.503 127.634 398.549C138.025 398.595 147.987 403.013 155.391 410.858C162.796 418.704 167.056 429.355 167.261 440.535H167.075Z" fill="#641EFF"/>
<path opacity="0.5" d="M167.075 440.535C167.088 446.737 165.844 452.866 163.429 458.497C161.014 464.128 157.487 469.123 153.094 473.136C150.2 475.724 147.866 478.961 146.256 482.622C144.646 486.282 143.799 490.277 143.774 494.327V605.244C143.644 606.796 143.13 608.281 142.286 609.547C141.442 610.813 140.298 611.812 138.974 612.441C137.101 613.551 135.082 614.346 132.986 614.799C129.311 615.602 125.523 615.602 121.848 614.799C119.758 614.349 117.746 613.554 115.883 612.441C114.563 611.808 113.424 610.808 112.585 609.542C111.745 608.277 111.234 606.793 111.106 605.244V494.126C111.064 490.112 110.207 486.157 108.598 482.536C106.988 478.915 104.663 475.715 101.786 473.161C97.3261 469.12 93.7501 464.068 91.3133 458.368C88.8765 452.668 87.639 446.459 87.689 440.184C87.9793 429.006 92.3203 418.393 99.7844 410.613C107.249 402.833 117.244 398.503 127.634 398.549C138.025 398.595 147.987 403.013 155.391 410.858C162.796 418.704 167.056 429.355 167.261 440.535H167.075Z" fill="white"/>
<path d="M149.483 440.535C149.486 444.344 148.642 448.098 147.02 451.484C145.399 454.87 143.047 457.788 140.163 459.995C137.866 461.829 136.008 464.225 134.744 466.986C133.48 469.746 132.845 472.792 132.893 475.869V605.244C132.912 606.838 132.344 608.376 131.314 609.522C130.284 610.668 128.875 611.33 127.394 611.363C125.911 611.33 124.499 610.669 123.465 609.524C122.432 608.378 121.859 606.84 121.872 605.244V475.568C121.9 472.533 121.255 469.535 119.99 466.822C118.726 464.11 116.879 461.761 114.602 459.97C111.636 457.708 109.234 454.694 107.608 451.195C105.982 447.696 105.183 443.819 105.282 439.908C105.797 433.918 108.392 428.357 112.549 424.336C116.706 420.315 122.119 418.129 127.708 418.214C133.297 418.3 138.65 420.651 142.7 424.797C146.749 428.944 149.196 434.582 149.553 440.585L149.483 440.535Z" fill="#641EFF"/>
<path opacity="0.7" d="M149.483 440.535C149.486 444.344 148.642 448.098 147.02 451.484C145.399 454.87 143.047 457.788 140.163 459.995C137.866 461.829 136.008 464.225 134.744 466.986C133.48 469.746 132.845 472.792 132.893 475.869V605.244C132.912 606.838 132.344 608.376 131.314 609.522C130.284 610.668 128.875 611.33 127.394 611.363C125.911 611.33 124.499 610.669 123.465 609.524C122.432 608.378 121.859 606.84 121.872 605.244V475.568C121.9 472.533 121.255 469.535 119.99 466.822C118.726 464.11 116.879 461.761 114.602 459.97C111.636 457.708 109.234 454.694 107.608 451.195C105.982 447.696 105.183 443.819 105.282 439.908C105.797 433.918 108.392 428.357 112.549 424.336C116.706 420.315 122.119 418.129 127.708 418.214C133.297 418.3 138.65 420.651 142.7 424.797C146.749 428.944 149.196 434.582 149.553 440.585L149.483 440.535Z" fill="white"/>
<path opacity="0.7" d="M133.52 456.36C133.52 454.153 134.128 451.995 135.267 450.16C136.406 448.325 138.026 446.894 139.92 446.05C141.815 445.205 143.9 444.984 145.911 445.415C147.923 445.845 149.77 446.908 151.22 448.469C152.67 450.029 153.658 452.018 154.058 454.183C154.458 456.347 154.253 458.591 153.468 460.63C152.683 462.669 151.354 464.412 149.649 465.638C147.944 466.865 145.939 467.519 143.888 467.519C141.138 467.519 138.501 466.343 136.556 464.251C134.612 462.158 133.52 459.319 133.52 456.36Z" fill="white"/>
<path opacity="0.7" d="M137.551 434.191C137.551 432.842 137.922 431.523 138.619 430.402C139.315 429.28 140.305 428.406 141.463 427.889C142.621 427.373 143.896 427.238 145.125 427.501C146.354 427.764 147.484 428.414 148.37 429.368C149.256 430.322 149.86 431.537 150.105 432.86C150.349 434.184 150.224 435.555 149.744 436.801C149.264 438.048 148.452 439.113 147.41 439.863C146.367 440.612 145.142 441.012 143.889 441.012C142.208 441.012 140.596 440.294 139.407 439.014C138.219 437.735 137.551 436 137.551 434.191Z" fill="white"/>
<path opacity="0.7" d="M125.434 423.257C125.429 422.587 125.61 421.93 125.952 421.37C126.295 420.81 126.785 420.372 127.359 420.112C127.934 419.852 128.567 419.781 129.179 419.909C129.79 420.036 130.353 420.357 130.795 420.829C131.237 421.302 131.539 421.905 131.663 422.562C131.786 423.22 131.725 423.902 131.488 424.522C131.25 425.142 130.847 425.672 130.329 426.045C129.811 426.418 129.202 426.618 128.579 426.618C128.167 426.621 127.759 426.536 127.377 426.369C126.996 426.202 126.649 425.955 126.356 425.642C126.064 425.33 125.832 424.958 125.674 424.549C125.515 424.14 125.434 423.701 125.434 423.257Z" fill="white"/>
<path opacity="0.7" d="M100.363 427.32C100.359 425.502 100.856 423.724 101.791 422.211C102.726 420.698 104.058 419.517 105.617 418.82C107.176 418.122 108.893 417.938 110.549 418.291C112.206 418.645 113.728 419.519 114.922 420.805C116.116 422.09 116.928 423.727 117.257 425.51C117.585 427.293 117.414 429.14 116.766 430.819C116.117 432.497 115.021 433.93 113.615 434.936C112.209 435.943 110.557 436.478 108.868 436.473C106.614 436.466 104.455 435.5 102.861 433.785C101.267 432.069 100.369 429.745 100.363 427.32Z" fill="white"/>
<path opacity="0.7" d="M98.9414 443.895C98.9414 444.75 99.177 445.584 99.6185 446.294C100.06 447.004 100.687 447.557 101.421 447.883C102.155 448.209 102.962 448.292 103.74 448.124C104.518 447.955 105.232 447.542 105.791 446.936C106.351 446.331 106.731 445.56 106.883 444.721C107.035 443.883 106.952 443.015 106.645 442.227C106.338 441.44 105.821 440.768 105.159 440.297C104.497 439.826 103.719 439.577 102.926 439.582C101.867 439.589 100.854 440.046 100.107 440.854C99.3604 441.662 98.9414 442.756 98.9414 443.895Z" fill="white"/>
<path opacity="0.7" d="M101.926 458.943C101.921 457.557 102.299 456.2 103.012 455.046C103.724 453.892 104.739 452.991 105.928 452.458C107.117 451.926 108.426 451.785 109.689 452.054C110.952 452.323 112.113 452.99 113.024 453.97C113.934 454.95 114.554 456.199 114.804 457.559C115.054 458.918 114.923 460.327 114.428 461.607C113.933 462.886 113.097 463.978 112.024 464.745C110.951 465.512 109.691 465.919 108.403 465.914C106.687 465.907 105.043 465.171 103.83 463.865C102.616 462.559 101.932 460.789 101.926 458.943Z" fill="white"/>
<path opacity="0.7" d="M117.395 469.474C117.39 468.332 117.701 467.213 118.288 466.261C118.875 465.308 119.712 464.565 120.692 464.125C121.672 463.686 122.752 463.57 123.794 463.791C124.835 464.013 125.792 464.563 126.543 465.371C127.294 466.179 127.805 467.209 128.011 468.33C128.217 469.452 128.109 470.613 127.7 471.668C127.292 472.723 126.601 473.624 125.717 474.256C124.832 474.887 123.792 475.222 122.73 475.217C121.317 475.211 119.964 474.603 118.964 473.528C117.965 472.452 117.401 470.996 117.395 469.474Z" fill="white"/>
<path opacity="0.7" d="M91.3477 434.191C91.3477 433.611 91.5076 433.043 91.8071 432.561C92.1067 432.078 92.5324 431.702 93.0306 431.48C93.5287 431.258 94.0769 431.2 94.6057 431.313C95.1345 431.426 95.6203 431.706 96.0016 432.116C96.3828 432.527 96.6425 433.049 96.7477 433.619C96.8529 434.188 96.7989 434.778 96.5925 435.314C96.3862 435.85 96.0368 436.308 95.5885 436.63C95.1401 436.953 94.6131 437.125 94.0739 437.125C93.3508 437.125 92.6574 436.816 92.1462 436.266C91.6349 435.715 91.3477 434.969 91.3477 434.191Z" fill="white"/>
<path opacity="0.7" d="M150.625 422.004C150.625 421.24 150.835 420.493 151.23 419.858C151.624 419.223 152.184 418.728 152.84 418.436C153.496 418.143 154.217 418.067 154.913 418.216C155.609 418.365 156.249 418.733 156.751 419.273C157.253 419.813 157.594 420.501 157.733 421.25C157.871 421.999 157.8 422.776 157.529 423.481C157.257 424.187 156.797 424.79 156.207 425.215C155.617 425.639 154.923 425.865 154.213 425.865C153.262 425.865 152.349 425.459 151.676 424.734C151.003 424.01 150.625 423.028 150.625 422.004Z" fill="white"/>
<path opacity="0.7" d="M157.799 444.849C159.794 444.849 161.411 443.109 161.411 440.962C161.411 438.816 159.794 437.075 157.799 437.075C155.804 437.075 154.188 438.816 154.188 440.962C154.188 443.109 155.804 444.849 157.799 444.849Z" fill="white"/>
<path opacity="0.7" d="M116.766 444.222C116.766 443.453 116.977 442.702 117.374 442.062C117.771 441.423 118.335 440.925 118.995 440.631C119.655 440.337 120.381 440.26 121.082 440.41C121.782 440.56 122.426 440.93 122.931 441.473C123.436 442.017 123.78 442.71 123.919 443.464C124.059 444.218 123.987 444.999 123.714 445.709C123.441 446.42 122.978 447.027 122.384 447.454C121.79 447.881 121.092 448.109 120.377 448.109C119.903 448.109 119.433 448.008 118.995 447.813C118.557 447.618 118.159 447.331 117.823 446.97C117.488 446.61 117.222 446.181 117.041 445.709C116.859 445.238 116.766 444.732 116.766 444.222Z" fill="white"/>
<path d="M248.743 582.148C248.6 578.47 247.141 574.994 244.673 572.447C242.204 569.899 238.917 568.477 235.497 568.477C232.076 568.477 228.789 569.899 226.32 572.447C223.852 574.994 222.393 578.47 222.25 582.148V582.95C222.439 584.126 222.893 585.234 223.571 586.178C224.249 587.122 225.132 587.873 226.141 588.367C229.03 589.944 232.223 590.766 235.462 590.766C238.7 590.766 241.894 589.944 244.782 588.367C245.789 587.874 246.669 587.122 247.344 586.178C248.018 585.233 248.467 584.125 248.65 582.95V582.148H248.743Z" fill="#641EFF"/>
<path opacity="0.5" d="M248.743 582.148C248.6 578.47 247.141 574.994 244.673 572.447C242.204 569.899 238.917 568.477 235.497 568.477C232.076 568.477 228.789 569.899 226.32 572.447C223.852 574.994 222.393 578.47 222.25 582.148V582.95C222.439 584.126 222.893 585.234 223.571 586.178C224.249 587.122 225.132 587.873 226.141 588.367C229.03 589.944 232.223 590.766 235.462 590.766C238.7 590.766 241.894 589.944 244.782 588.367C245.789 587.874 246.669 587.122 247.344 586.178C248.018 585.233 248.467 584.125 248.65 582.95V582.148H248.743Z" fill="white"/>
<g style="mix-blend-mode:lighten" opacity="0.5">
<path d="M241.24 569.609C239.455 568.672 237.495 568.183 235.508 568.18C232.056 568.178 228.739 569.626 226.263 572.216C223.787 574.806 222.347 578.333 222.25 582.048V582.85C222.439 584.026 222.893 585.134 223.571 586.078C224.249 587.022 225.132 587.773 226.141 588.267C228.191 589.489 230.45 590.249 232.782 590.499C231.888 590.248 231.051 589.802 230.325 589.188C229.598 588.574 228.998 587.805 228.56 586.929C228.123 586.053 227.858 585.09 227.783 584.099C227.707 583.108 227.823 582.11 228.122 581.17C229.403 576.004 234.366 568.355 241.24 569.609Z" fill="white"/>
</g>
<path opacity="0.2" d="M248.741 582.95V582.148C248.695 580.192 248.271 578.269 247.497 576.499C246.722 574.729 245.615 573.151 244.244 571.866C245.689 573.446 248.905 579.389 245.409 584.029C243.079 587.038 232.268 591.326 223.32 585.809C224.093 586.842 225.052 587.695 226.14 588.317C229.028 589.894 232.221 590.716 235.46 590.716C238.699 590.716 241.892 589.894 244.78 588.317C245.8 587.842 246.694 587.103 247.385 586.167C248.076 585.231 248.542 584.126 248.741 582.95Z" fill="#641EFF"/>
<g style="mix-blend-mode:lighten" opacity="0.5">
<path d="M235.367 571.515C235.95 572.97 234.808 574.901 232.827 575.854C230.847 576.807 228.726 576.38 228.167 574.926C227.608 573.471 228.726 571.54 230.73 570.587C232.734 569.635 234.761 570.061 235.367 571.515Z" fill="white"/>
</g>
<g style="mix-blend-mode:lighten" opacity="0.5">
<path d="M227.701 577.408C227.82 577.834 227.783 578.293 227.596 578.69C227.41 579.087 227.088 579.391 226.699 579.54C226.526 579.665 226.33 579.747 226.124 579.782C225.918 579.816 225.708 579.801 225.508 579.739C225.308 579.676 225.123 579.567 224.967 579.419C224.81 579.271 224.686 579.087 224.603 578.882C224.52 578.677 224.479 578.454 224.485 578.23C224.49 578.006 224.542 577.786 224.635 577.585C224.728 577.385 224.861 577.209 225.024 577.07C225.188 576.931 225.378 576.832 225.58 576.781C225.941 576.57 226.363 576.517 226.758 576.634C227.154 576.751 227.491 577.028 227.701 577.408Z" fill="white"/>
</g>
<path d="M231.731 592.856C231.562 587.773 229.568 582.959 226.167 579.427C222.766 575.895 218.224 573.922 213.499 573.922C208.773 573.922 204.231 575.895 200.83 579.427C197.429 582.959 195.434 587.773 195.266 592.856V593.959C195.521 595.585 196.14 597.12 197.07 598.431C197.999 599.741 199.211 600.789 200.602 601.483C204.604 603.658 209.026 604.791 213.51 604.791C217.994 604.791 222.416 603.658 226.419 601.483C227.81 600.795 229.023 599.749 229.95 598.436C230.876 597.124 231.488 595.586 231.731 593.959C231.743 593.776 231.743 593.591 231.731 593.408C231.742 593.224 231.742 593.04 231.731 592.856Z" fill="#641EFF"/>
<path opacity="0.6" d="M231.731 592.856C231.562 587.773 229.568 582.959 226.167 579.427C222.766 575.895 218.224 573.922 213.499 573.922C208.773 573.922 204.231 575.895 200.83 579.427C197.429 582.959 195.434 587.773 195.266 592.856V593.959C195.521 595.585 196.14 597.12 197.07 598.431C197.999 599.741 199.211 600.789 200.602 601.483C204.604 603.658 209.026 604.791 213.51 604.791C217.994 604.791 222.416 603.658 226.419 601.483C227.81 600.795 229.023 599.749 229.95 598.436C230.876 597.124 231.488 595.586 231.731 593.959C231.743 593.776 231.743 593.591 231.731 593.408C231.742 593.224 231.742 593.04 231.731 592.856Z" fill="white"/>
<g style="mix-blend-mode:lighten" opacity="0.5">
<path d="M221.409 575.728C218.669 574.303 215.64 573.639 212.6 573.797C209.56 573.955 206.605 574.931 204.006 576.634C201.406 578.337 199.244 580.714 197.717 583.548C196.191 586.382 195.348 589.582 195.266 592.856V593.96C195.521 595.586 196.14 597.12 197.07 598.431C197.999 599.742 199.211 600.789 200.602 601.483C203.439 603.142 206.549 604.19 209.759 604.567C205.099 603.665 201.976 597.997 203.421 591.703C205.099 584.38 211.949 573.848 221.409 575.728Z" fill="white"/>
</g>
<path opacity="0.1" d="M231.732 593.96C231.744 593.776 231.744 593.592 231.732 593.408C231.743 593.224 231.743 593.04 231.732 592.856C231.667 590.164 231.085 587.515 230.023 585.076C228.96 582.638 227.44 580.463 225.557 578.688C227.538 580.869 231.942 589.145 227.142 595.439C223.996 599.577 209.037 605.47 196.734 597.947C197.792 599.391 199.107 600.593 200.602 601.483C204.605 603.658 209.027 604.792 213.511 604.792C217.995 604.792 222.417 603.658 226.42 601.483C227.811 600.795 229.024 599.749 229.951 598.437C230.877 597.125 231.489 595.587 231.732 593.96Z" fill="#641EFF"/>
<g style="mix-blend-mode:lighten" opacity="0.3">
<path d="M213.324 578.21C214.139 580.192 212.578 582.875 209.805 584.179C207.033 585.483 204.167 584.906 203.351 582.9C202.536 580.894 204.12 578.236 206.869 576.932C209.619 575.628 212.508 576.204 213.324 578.21Z" fill="white"/>
</g>
<g style="mix-blend-mode:lighten" opacity="0.3">
<path d="M202.748 586.336C203.018 586.759 203.16 587.262 203.156 587.775C203.152 588.288 203.002 588.788 202.725 589.206C202.449 589.624 202.06 589.942 201.611 590.114C201.162 590.287 200.675 590.308 200.215 590.173C199.754 590.039 199.344 589.755 199.038 589.361C198.732 588.967 198.546 588.482 198.505 587.971C198.464 587.459 198.569 586.947 198.807 586.502C199.045 586.057 199.404 585.702 199.836 585.483C200.328 585.183 200.91 585.105 201.455 585.264C202.001 585.424 202.465 585.809 202.748 586.336Z" fill="white"/>
</g>
<path d="M205.193 599.852C205.193 593.394 202.809 587.201 198.566 582.634C194.323 578.067 188.568 575.502 182.568 575.502C176.567 575.502 170.812 578.067 166.569 582.634C162.326 587.201 159.943 593.394 159.943 599.852C159.931 600.078 159.931 600.304 159.943 600.529C159.931 600.755 159.931 600.981 159.943 601.206C160.199 604.567 162.273 607.877 166.56 610.485C171.521 613.193 177.005 614.604 182.568 614.604C188.13 614.604 193.614 613.193 198.575 610.485C202.723 607.977 204.936 604.567 205.193 601.206C205.204 600.981 205.204 600.755 205.193 600.529C205.205 600.304 205.205 600.078 205.193 599.852Z" fill="#641EFF"/>
<path opacity="0.8" d="M205.193 599.852C205.193 593.394 202.809 587.201 198.566 582.634C194.323 578.067 188.568 575.502 182.568 575.502C176.567 575.502 170.812 578.067 166.569 582.634C162.326 587.201 159.943 593.394 159.943 599.852C159.931 600.078 159.931 600.304 159.943 600.529C159.931 600.755 159.931 600.981 159.943 601.206C160.199 604.567 162.273 607.877 166.56 610.485C171.521 613.193 177.005 614.604 182.568 614.604C188.13 614.604 193.614 613.193 198.575 610.485C202.723 607.977 204.936 604.567 205.193 601.206C205.204 600.981 205.204 600.755 205.193 600.529C205.205 600.304 205.205 600.078 205.193 599.852Z" fill="white"/>
<g style="mix-blend-mode:lighten" opacity="0.3">
<path d="M192.377 578.587C189.328 576.957 185.972 576.099 182.568 576.079C176.671 576.077 171.006 578.553 166.78 582.979C162.554 587.406 160.101 593.433 159.943 599.777C159.931 600.003 159.931 600.229 159.943 600.454C159.931 600.68 159.931 600.906 159.943 601.132C160.199 604.492 162.273 607.802 166.56 610.41C170.071 612.475 173.928 613.77 177.908 614.222C172.036 613.119 168.238 606.072 170.055 598.273C172.129 589.32 180.634 576.255 192.377 578.587Z" fill="white"/>
</g>
<path opacity="0.1" d="M205.194 601.206C205.206 600.981 205.206 600.755 205.194 600.529C205.206 600.304 205.206 600.078 205.194 599.852C205.108 596.513 204.38 593.23 203.056 590.209C201.733 587.188 199.843 584.494 197.505 582.298C199.975 585.006 205.427 595.263 199.486 603.087C195.571 608.228 177.024 615.626 161.762 606.147C163.077 607.936 164.709 609.427 166.562 610.535C171.523 613.243 177.007 614.654 182.569 614.654C188.132 614.654 193.616 613.243 198.577 610.535C202.725 607.877 204.938 604.567 205.194 601.206Z" fill="#641EFF"/>
<g style="mix-blend-mode:lighten" opacity="0.3">
<path d="M182.454 581.646C183.456 584.154 181.522 587.439 178.097 589.17C174.671 590.9 171.106 590.072 170.081 587.59C169.056 585.107 171.013 581.772 174.438 580.066C177.864 578.361 181.312 579.164 182.454 581.646Z" fill="white"/>
</g>
<g style="mix-blend-mode:lighten" opacity="0.3">
<path d="M169.217 591.752C169.576 592.292 169.77 592.939 169.774 593.603C169.777 594.266 169.589 594.915 169.235 595.459C168.882 596.003 168.38 596.416 167.8 596.64C167.219 596.865 166.588 596.89 165.994 596.713C165.399 596.535 164.871 596.164 164.481 595.649C164.091 595.135 163.858 594.503 163.816 593.841C163.773 593.179 163.922 592.519 164.243 591.951C164.563 591.384 165.04 590.938 165.606 590.674C166.218 590.303 166.941 590.209 167.618 590.411C168.295 590.613 168.87 591.095 169.217 591.752Z" fill="white"/>
</g>
<path d="M259.949 585.508C259.838 583.304 258.947 581.229 257.458 579.711C255.969 578.193 253.996 577.347 251.945 577.347C249.894 577.347 247.921 578.193 246.432 579.711C244.943 581.229 244.052 583.304 243.941 585.508V585.985C244.057 586.69 244.329 587.355 244.734 587.923C245.14 588.491 245.668 588.944 246.271 589.245C248.024 590.209 249.965 590.712 251.934 590.712C253.902 590.712 255.843 590.209 257.596 589.245C258.202 588.948 258.731 588.495 259.137 587.927C259.544 587.359 259.814 586.692 259.926 585.985V585.508H259.949Z" fill="#641EFF"/>
<path opacity="0.2" d="M259.949 585.508C259.838 583.304 258.947 581.229 257.458 579.711C255.969 578.193 253.996 577.347 251.945 577.347C249.894 577.347 247.921 578.193 246.432 579.711C244.943 581.229 244.052 583.304 243.941 585.508V585.985C244.057 586.69 244.329 587.355 244.734 587.923C245.14 588.491 245.668 588.944 246.271 589.245C248.024 590.209 249.965 590.712 251.934 590.712C253.902 590.712 255.843 590.209 257.596 589.245C258.202 588.948 258.731 588.495 259.137 587.927C259.544 587.359 259.814 586.692 259.926 585.985V585.508H259.949Z" fill="white"/>
<g style="mix-blend-mode:lighten" opacity="0.5">
<path d="M255.429 577.985C254.226 577.347 252.893 577.047 251.554 577.111C250.214 577.175 248.911 577.602 247.766 578.352C246.621 579.102 245.67 580.152 245.001 581.402C244.333 582.653 243.968 584.065 243.941 585.508V585.984C244.057 586.69 244.329 587.355 244.734 587.922C245.14 588.49 245.668 588.944 246.271 589.244C247.505 589.992 248.87 590.453 250.279 590.599C249.74 590.446 249.237 590.174 248.8 589.801C248.364 589.428 248.004 588.962 247.743 588.432C247.483 587.901 247.327 587.319 247.286 586.721C247.246 586.122 247.32 585.522 247.506 584.956C248.252 581.771 251.258 577.132 255.429 577.985Z" fill="white"/>
</g>
<path opacity="0.05" d="M259.949 585.984V585.508C259.92 584.321 259.662 583.153 259.193 582.079C258.724 581.004 258.053 580.046 257.223 579.264C258.102 580.223 258.65 581.477 258.777 582.818C258.904 584.158 258.603 585.505 257.922 586.636C256.034 588.182 253.771 589.107 251.406 589.298C249.041 589.49 246.675 588.94 244.594 587.715C245.06 588.342 245.638 588.862 246.295 589.244C248.048 590.209 249.988 590.711 251.957 590.711C253.925 590.711 255.866 590.209 257.619 589.244C258.225 588.947 258.755 588.495 259.161 587.926C259.567 587.358 259.838 586.691 259.949 585.984Z" fill="black"/>
<g style="mix-blend-mode:lighten" opacity="0.3">
<path d="M251.866 579.064C252.215 579.941 251.54 581.12 250.328 581.697C249.116 582.274 247.858 581.998 247.485 581.12C247.112 580.242 247.835 579.064 249.023 578.612C250.211 578.161 251.516 578.186 251.866 579.064Z" fill="white"/>
</g>
<g style="mix-blend-mode:lighten" opacity="0.3">
<path d="M247.227 582.624C247.352 582.814 247.42 583.041 247.421 583.274C247.422 583.506 247.356 583.734 247.233 583.925C247.109 584.115 246.933 584.26 246.73 584.34C246.527 584.419 246.305 584.429 246.097 584.367C245.888 584.306 245.702 584.177 245.565 583.998C245.427 583.818 245.344 583.597 245.327 583.365C245.311 583.133 245.361 582.901 245.472 582.701C245.583 582.501 245.748 582.343 245.945 582.248C246.163 582.12 246.418 582.087 246.657 582.157C246.896 582.227 247.1 582.395 247.227 582.624Z" fill="white"/>
</g>
<path d="M13.5678 575.126C13.5678 571.348 14.9622 567.725 17.4442 565.054C19.9262 562.383 23.2926 560.882 26.8026 560.882C30.3127 560.882 33.6791 562.383 36.1611 565.054C38.6431 567.725 40.0375 571.348 40.0375 575.126C40.0483 575.259 40.0483 575.394 40.0375 575.527C40.0498 575.66 40.0498 575.795 40.0375 575.928C39.8543 577.103 39.4057 578.211 38.7313 579.156C38.0569 580.1 37.1772 580.852 36.1696 581.345C33.2619 582.927 30.0493 583.752 26.791 583.752C23.5328 583.752 20.3201 582.927 17.4124 581.345C16.408 580.851 15.532 580.098 14.8615 579.154C14.191 578.209 13.7468 577.101 13.5678 575.928C13.5555 575.795 13.5555 575.66 13.5678 575.527C13.557 575.394 13.557 575.259 13.5678 575.126Z" fill="#641EFF"/>
<path opacity="0.5" d="M13.5678 575.126C13.5678 571.348 14.9622 567.725 17.4442 565.054C19.9262 562.383 23.2926 560.882 26.8026 560.882C30.3127 560.882 33.6791 562.383 36.1611 565.054C38.6431 567.725 40.0375 571.348 40.0375 575.126C40.0483 575.259 40.0483 575.394 40.0375 575.527C40.0498 575.66 40.0498 575.795 40.0375 575.928C39.8543 577.103 39.4057 578.211 38.7313 579.156C38.0569 580.1 37.1772 580.852 36.1696 581.345C33.2619 582.927 30.0493 583.752 26.791 583.752C23.5328 583.752 20.3201 582.927 17.4124 581.345C16.408 580.851 15.532 580.098 14.8615 579.154C14.191 578.209 13.7468 577.101 13.5678 575.928C13.5555 575.795 13.5555 575.66 13.5678 575.527C13.557 575.394 13.557 575.259 13.5678 575.126Z" fill="white"/>
<g style="mix-blend-mode:lighten" opacity="0.5">
<path d="M21.0469 562.688C23.0435 561.643 25.2529 561.155 27.4708 561.272C29.6886 561.388 31.8435 562.104 33.7362 563.354C35.6289 564.604 37.1984 566.347 38.2997 568.422C39.401 570.497 39.9985 572.837 40.037 575.227C40.0479 575.36 40.0479 575.495 40.037 575.628C40.0493 575.762 40.0493 575.896 40.037 576.029C39.8538 577.204 39.4052 578.312 38.7308 579.257C38.0564 580.201 37.1767 580.953 36.1691 581.446C34.1181 582.665 31.8592 583.424 29.5284 583.678C30.4243 583.431 31.263 582.987 31.9913 582.373C32.7197 581.76 33.3219 580.991 33.7598 580.114C34.1978 579.237 34.462 578.272 34.5358 577.28C34.6096 576.288 34.4913 575.29 34.1885 574.349C32.8837 568.983 27.9206 561.334 21.0469 562.688Z" fill="white"/>
</g>
<path opacity="0.2" d="M13.5678 575.929C13.5555 575.796 13.5555 575.661 13.5678 575.528C13.557 575.394 13.557 575.26 13.5678 575.126C13.6132 573.171 14.0366 571.246 14.8108 569.476C15.585 567.706 16.6932 566.129 18.0649 564.845C16.6202 566.425 13.4047 572.368 16.8998 577.007C19.2299 580.017 30.0415 584.305 38.9657 578.788C38.2022 579.82 37.2507 580.673 36.1696 581.296C33.2619 582.878 30.0493 583.702 26.791 583.702C23.5328 583.702 20.3201 582.878 17.4124 581.296C16.4138 580.806 15.5415 580.061 14.8715 579.126C14.2014 578.19 13.7539 577.093 13.5678 575.929Z" fill="#641EFF"/>
<g style="mix-blend-mode:lighten" opacity="0.3">
<path d="M26.9437 564.594C26.3379 566.048 27.4797 567.979 29.4835 568.932C31.4874 569.885 33.5845 569.459 34.1437 568.004C34.7029 566.55 33.6077 564.619 31.6039 563.666C29.6 562.713 27.5262 563.039 26.9437 564.594Z" fill="white"/>
</g>
<g style="mix-blend-mode:lighten" opacity="0.3">
<path d="M34.6088 570.386C34.3982 570.702 34.2838 571.081 34.2813 571.47C34.2788 571.858 34.3883 572.239 34.5948 572.558C34.8012 572.877 35.0945 573.119 35.4342 573.251C35.7739 573.384 36.1434 573.399 36.4918 573.296C36.8401 573.193 37.1502 572.977 37.3795 572.676C37.6087 572.376 37.7458 572.006 37.7718 571.618C37.7979 571.23 37.7116 570.843 37.5248 570.511C37.3381 570.178 37.0602 569.915 36.7292 569.759C36.3704 569.542 35.9462 569.486 35.549 569.603C35.1519 569.72 34.8139 570.002 34.6088 570.386Z" fill="white"/>
</g>
<path d="M41.203 573.646C41.203 568.166 43.2258 562.91 46.8265 559.035C50.4272 555.16 55.3107 552.982 60.4028 552.982C65.4949 552.982 70.3785 555.16 73.9792 559.035C77.5798 562.91 79.6027 568.166 79.6027 573.646C79.6337 574.03 79.6337 574.416 79.6027 574.8C79.3305 576.504 78.677 578.112 77.6987 579.483C76.7203 580.855 75.4465 581.95 73.9872 582.674C69.7682 584.955 65.1124 586.143 60.3912 586.143C55.67 586.143 51.0141 584.955 46.7952 582.674C45.3378 581.951 44.0666 580.855 43.0921 579.483C42.1175 578.111 41.469 576.503 41.203 574.8C41.1719 574.416 41.1719 574.03 41.203 573.646Z" fill="#641EFF"/>
<path opacity="0.7" d="M41.203 573.646C41.203 568.166 43.2258 562.91 46.8265 559.035C50.4272 555.16 55.3107 552.982 60.4028 552.982C65.4949 552.982 70.3785 555.16 73.9792 559.035C77.5798 562.91 79.6027 568.166 79.6027 573.646C79.6337 574.03 79.6337 574.416 79.6027 574.8C79.3305 576.504 78.677 578.112 77.6987 579.483C76.7203 580.855 75.4465 581.95 73.9872 582.674C69.7682 584.955 65.1124 586.143 60.3912 586.143C55.67 586.143 51.0141 584.955 46.7952 582.674C45.3378 581.951 44.0666 580.855 43.0921 579.483C42.1175 578.111 41.469 576.503 41.203 574.8C41.1719 574.416 41.1719 574.03 41.203 573.646Z" fill="white"/>
<g style="mix-blend-mode:lighten" opacity="0.3">
<path d="M51.9688 555.591C54.8566 554.09 58.0477 553.392 61.2507 553.56C64.4538 553.727 67.5667 554.756 70.3055 556.551C73.0442 558.347 75.3215 560.852 76.9294 563.838C78.5373 566.824 79.4246 570.196 79.5103 573.647C79.5414 574.03 79.5414 574.416 79.5103 574.8C79.2381 576.505 78.5846 578.112 77.6063 579.484C76.628 580.856 75.3542 581.951 73.8948 582.674C70.9035 584.413 67.6277 585.512 64.2483 585.91C69.2346 584.982 72.4734 578.988 70.9356 572.368C69.2346 564.594 62.0347 553.61 51.9688 555.591Z" fill="white"/>
</g>
<path opacity="0.1" d="M41.203 574.801C41.1719 574.417 41.1719 574.031 41.203 573.647C41.2531 570.788 41.8596 567.971 42.9834 565.38C44.1071 562.788 45.7231 560.479 47.7272 558.601C45.6301 560.908 40.9933 569.61 46.0262 576.155C49.3582 580.518 65.1096 586.737 78.0648 578.663C76.9481 580.186 75.5622 581.456 73.9872 582.399C69.7682 584.68 65.1124 585.868 60.3912 585.868C55.67 585.868 51.0141 584.68 46.7952 582.399C45.3691 581.702 44.118 580.649 43.1455 579.328C42.173 578.006 41.5071 576.454 41.203 574.801Z" fill="#641EFF"/>
<g style="mix-blend-mode:lighten" opacity="0.5">
<path d="M60.5877 558.199C59.7255 560.305 61.3799 563.214 64.2925 564.493C67.2051 565.772 70.2342 565.27 71.0963 563.164C71.9585 561.057 70.3041 558.148 67.3915 556.844C64.4789 555.54 61.4498 556.092 60.5877 558.199Z" fill="white"/>
</g>
<g style="mix-blend-mode:lighten" opacity="0.5">
<path d="M71.7272 566.775C71.4301 567.233 71.2716 567.778 71.2735 568.336C71.2753 568.894 71.4374 569.438 71.7375 569.894C72.0377 570.349 72.4613 570.693 72.9502 570.88C73.4392 571.066 73.9697 571.085 74.4691 570.934C74.9686 570.784 75.4126 570.47 75.7403 570.038C76.0681 569.605 76.2636 569.074 76.3002 568.517C76.3367 567.96 76.2125 567.405 75.9445 566.927C75.6764 566.449 75.2777 566.072 74.8029 565.847C74.2769 565.551 73.6657 565.482 73.0941 565.655C72.5225 565.827 72.0336 566.228 71.7272 566.775Z" fill="white"/>
</g>
<path d="M27.5 585.784C27.6689 580.701 29.6637 575.887 33.0646 572.355C36.4655 568.823 41.007 566.85 45.7329 566.85C50.4587 566.85 55.0002 568.823 58.4011 572.355C61.802 575.887 63.7969 580.701 63.9657 585.784C63.9779 585.967 63.9779 586.152 63.9657 586.335C63.9773 586.511 63.9773 586.687 63.9657 586.862C63.7203 588.492 63.1048 590.031 62.174 591.343C61.2432 592.656 60.0258 593.701 58.6298 594.385C54.6349 596.574 50.2157 597.715 45.7329 597.715C41.25 597.715 36.8308 596.574 32.8359 594.385C31.4399 593.701 30.2225 592.656 29.2917 591.343C28.3609 590.031 27.7454 588.492 27.5 586.862V585.784Z" fill="#641EFF"/>
<path opacity="0.6" d="M27.5 585.784C27.6689 580.701 29.6637 575.887 33.0646 572.355C36.4655 568.823 41.007 566.85 45.7329 566.85C50.4587 566.85 55.0002 568.823 58.4011 572.355C61.802 575.887 63.7969 580.701 63.9657 585.784C63.9779 585.967 63.9779 586.152 63.9657 586.335C63.9773 586.511 63.9773 586.687 63.9657 586.862C63.7203 588.492 63.1048 590.031 62.174 591.343C61.2432 592.656 60.0258 593.701 58.6298 594.385C54.6349 596.574 50.2157 597.715 45.7329 597.715C41.25 597.715 36.8308 596.574 32.8359 594.385C31.4399 593.701 30.2225 592.656 29.2917 591.343C28.3609 590.031 27.7454 588.492 27.5 586.862V585.784Z" fill="white"/>
<g style="mix-blend-mode:lighten" opacity="0.5">
<path d="M37.8242 568.656C40.5633 567.217 43.5946 566.542 46.6394 566.694C49.6842 566.846 52.6446 567.819 55.2482 569.525C57.8518 571.231 60.0149 573.614 61.5386 576.455C63.0624 579.296 63.8977 582.504 63.9677 585.784C63.9798 585.967 63.9798 586.152 63.9677 586.335C63.9793 586.511 63.9793 586.687 63.9677 586.862C63.7223 588.492 63.1068 590.031 62.176 591.344C61.2452 592.656 60.0278 593.701 58.6318 594.385C55.8088 596.059 52.7032 597.108 49.4979 597.47C54.1581 596.592 57.2804 590.9 55.8358 584.63C54.1348 577.282 47.3076 566.775 37.8242 568.656Z" fill="white"/>
</g>
<path opacity="0.15" d="M27.5 586.862V585.784C27.5659 583.085 28.1507 580.431 29.2174 577.988C30.2842 575.545 31.8098 573.366 33.698 571.59C31.7175 573.797 27.3136 582.047 32.1135 588.342C35.2592 592.479 50.195 598.373 62.4046 590.849C61.3523 592.299 60.0361 593.502 58.5367 594.385C54.5418 596.574 50.1225 597.715 45.6397 597.715C41.1569 597.715 36.7376 596.574 32.7427 594.385C31.3641 593.688 30.1654 592.637 29.2514 591.326C28.3375 590.014 27.7361 588.482 27.5 586.862Z" fill="#641EFF"/>
<g style="mix-blend-mode:lighten" opacity="0.3">
<path d="M45.9311 571.114C45.1156 573.12 46.6768 575.778 49.4263 577.082C52.1758 578.386 55.065 577.81 55.8806 575.828C56.6961 573.847 55.1349 571.139 52.3854 569.835C49.6359 568.531 46.7467 569.108 45.9311 571.114Z" fill="white"/>
</g>
<g style="mix-blend-mode:lighten" opacity="0.3">
<path d="M56.4879 579.264C56.2246 579.69 56.0886 580.192 56.0981 580.704C56.1077 581.215 56.2623 581.711 56.5412 582.125C56.8202 582.539 57.2102 582.852 57.6588 583.021C58.1075 583.189 58.5934 583.206 59.0514 583.069C59.5093 582.933 59.9174 582.648 60.2209 582.255C60.5244 581.861 60.7088 581.377 60.7493 580.867C60.7899 580.357 60.6846 579.847 60.4477 579.403C60.2108 578.96 59.8535 578.605 59.4238 578.386C58.9256 578.087 58.338 578.012 57.7883 578.176C57.2387 578.34 56.7715 578.731 56.4879 579.264Z" fill="white"/>
</g>
<path d="M58.0715 596.919C58.0715 590.461 60.4553 584.267 64.6983 579.7C68.9413 575.134 74.6961 572.568 80.6966 572.568C86.6972 572.568 92.452 575.134 96.695 579.7C100.938 584.267 103.322 590.461 103.322 596.919C103.334 597.144 103.334 597.37 103.322 597.596C103.333 597.821 103.333 598.047 103.322 598.273C103.065 601.633 100.992 604.943 96.7043 607.526C91.7432 610.234 86.2591 611.645 80.6966 611.645C75.1342 611.645 69.65 610.234 64.689 607.526C60.5415 605.019 58.3279 601.633 58.0715 598.273C58.0603 598.047 58.0603 597.821 58.0715 597.596C58.0595 597.37 58.0595 597.144 58.0715 596.919Z" fill="#641EFF"/>
<path opacity="0.8" d="M58.0715 596.919C58.0715 590.461 60.4553 584.267 64.6983 579.7C68.9413 575.134 74.6961 572.568 80.6966 572.568C86.6972 572.568 92.452 575.134 96.695 579.7C100.938 584.267 103.322 590.461 103.322 596.919C103.334 597.144 103.334 597.37 103.322 597.596C103.333 597.821 103.333 598.047 103.322 598.273C103.065 601.633 100.992 604.943 96.7043 607.526C91.7432 610.234 86.2591 611.645 80.6966 611.645C75.1342 611.645 69.65 610.234 64.689 607.526C60.5415 605.019 58.3279 601.633 58.0715 598.273C58.0603 598.047 58.0603 597.821 58.0715 597.596C58.0595 597.37 58.0595 597.144 58.0715 596.919Z" fill="white"/>
<g style="mix-blend-mode:lighten" opacity="0.3">
<path d="M70.8867 575.652C73.9369 574.025 77.2919 573.167 80.6964 573.145C86.5934 573.142 92.2582 575.618 96.4843 580.045C100.71 584.471 103.164 590.498 103.321 596.843C103.333 597.068 103.333 597.294 103.321 597.52C103.333 597.745 103.333 597.971 103.321 598.197C103.065 601.557 100.991 604.867 96.704 607.45C93.1982 609.53 89.3387 610.826 85.3565 611.262C91.2283 610.184 95.0263 603.137 93.2089 595.338C91.1351 586.36 82.6303 573.32 70.8867 575.652Z" fill="white"/>
</g>
<path opacity="0.1" d="M58.0715 598.273C58.0603 598.047 58.0603 597.821 58.0715 597.596C58.0595 597.37 58.0595 597.144 58.0715 596.918C58.1624 593.581 58.8923 590.299 60.2153 587.278C61.5384 584.258 63.4262 581.564 65.7608 579.364C63.4307 582.073 57.8386 592.329 63.7803 600.153C67.6948 605.169 86.2422 612.692 101.504 603.188C100.202 604.99 98.5676 606.484 96.7042 607.576C91.7432 610.284 86.2591 611.695 80.6966 611.695C75.1342 611.695 69.65 610.284 64.689 607.576C60.5415 604.943 58.3279 601.633 58.0715 598.273Z" fill="#641EFF"/>
<g style="mix-blend-mode:lighten" opacity="0.3">
<path d="M80.9321 578.713C79.9302 581.22 81.8641 584.505 85.2894 586.11C88.7146 587.715 92.2796 587.038 93.3048 584.556C94.3301 582.073 92.3728 578.738 88.9476 577.032C85.5223 575.327 81.9573 576.23 80.9321 578.713Z" fill="white"/>
</g>
<g style="mix-blend-mode:lighten" opacity="0.3">
<path d="M94.0486 588.819C93.6898 589.359 93.4955 590.005 93.4922 590.669C93.489 591.333 93.6771 591.981 94.0306 592.525C94.3841 593.069 94.8857 593.482 95.4662 593.707C96.0467 593.931 96.6776 593.956 97.272 593.779C97.8663 593.601 98.395 593.23 98.7851 592.716C99.1752 592.201 99.4075 591.57 99.4501 590.907C99.4927 590.245 99.3434 589.585 99.0229 589.018C98.7023 588.451 98.2262 588.004 97.6602 587.74C97.0481 587.37 96.3244 587.275 95.6476 587.477C94.9708 587.679 94.3958 588.162 94.0486 588.819Z" fill="white"/>
</g>
<path d="M167.751 607.802C167.571 602.035 165.316 596.569 161.461 592.558C157.607 588.547 152.456 586.305 147.095 586.305C141.733 586.305 136.582 588.547 132.728 592.558C128.873 596.569 126.618 602.035 126.438 607.802C126.427 608.01 126.427 608.22 126.438 608.429C126.427 608.637 126.427 608.847 126.438 609.056C126.735 610.888 127.442 612.614 128.497 614.087C129.553 615.559 130.925 616.733 132.497 617.507C137.028 619.979 142.037 621.267 147.118 621.267C152.198 621.267 157.207 619.979 161.739 617.507C163.303 616.728 164.667 615.552 165.714 614.08C166.761 612.607 167.46 610.883 167.751 609.056C167.762 608.847 167.762 608.637 167.751 608.429C167.762 608.22 167.762 608.01 167.751 607.802Z" fill="#641EFF"/>
<path opacity="0.9" d="M167.751 607.802C167.571 602.035 165.316 596.569 161.461 592.558C157.607 588.547 152.456 586.305 147.095 586.305C141.733 586.305 136.582 588.547 132.728 592.558C128.873 596.569 126.618 602.035 126.438 607.802C126.427 608.01 126.427 608.22 126.438 608.429C126.427 608.637 126.427 608.847 126.438 609.056C126.735 610.888 127.442 612.614 128.497 614.087C129.553 615.559 130.925 616.733 132.497 617.507C137.028 619.979 142.037 621.267 147.118 621.267C152.198 621.267 157.207 619.979 161.739 617.507C163.303 616.728 164.667 615.552 165.714 614.08C166.761 612.607 167.46 610.883 167.751 609.056C167.762 608.847 167.762 608.637 167.751 608.429C167.762 608.22 167.762 608.01 167.751 607.802Z" fill="white"/>
<g style="mix-blend-mode:lighten" opacity="0.5">
<path d="M156.078 588.392C152.975 586.801 149.553 586.069 146.121 586.26C142.689 586.452 139.356 587.561 136.422 589.488C133.489 591.415 131.049 594.099 129.322 597.297C127.595 600.494 126.636 604.105 126.532 607.802C126.521 608.011 126.521 608.22 126.532 608.429C126.521 608.638 126.521 608.847 126.532 609.056C126.829 610.888 127.536 612.614 128.591 614.087C129.647 615.559 131.019 616.733 132.59 617.507C135.798 619.396 139.323 620.58 142.959 620.993C137.6 619.989 134.128 613.469 135.783 606.448C137.6 598.197 145.336 586.26 156.078 588.392Z" fill="white"/>
</g>
<path opacity="0.1" d="M167.748 609.056C167.759 608.847 167.759 608.638 167.748 608.429C167.76 608.22 167.76 608.011 167.748 607.802C167.677 604.749 167.02 601.744 165.817 598.977C164.614 596.211 162.891 593.742 160.758 591.728C163.088 594.235 168.004 603.589 162.575 610.711C159.01 615.426 142.071 622.121 128.137 613.495C129.323 615.145 130.814 616.511 132.517 617.507C137.049 619.979 142.058 621.267 147.139 621.267C152.219 621.267 157.228 619.979 161.76 617.507C163.319 616.725 164.678 615.548 165.722 614.076C166.765 612.604 167.46 610.881 167.748 609.056Z" fill="#641EFF"/>
<g style="mix-blend-mode:lighten" opacity="0.5">
<path d="M146.895 591.2C147.804 593.457 146.033 596.492 142.911 597.971C139.788 599.451 136.526 598.799 135.594 596.517C134.662 594.235 136.456 591.225 139.579 589.746C142.701 588.266 145.963 588.918 146.895 591.2Z" fill="white"/>
</g>
<g style="mix-blend-mode:lighten" opacity="0.5">
<path d="M134.918 600.429C135.029 600.754 135.077 601.101 135.058 601.447C135.039 601.793 134.953 602.131 134.806 602.44C134.66 602.749 134.455 603.021 134.206 603.241C133.956 603.46 133.667 603.621 133.356 603.714C132.792 604.042 132.131 604.121 131.513 603.934C130.896 603.747 130.37 603.308 130.048 602.711C129.908 602.05 129.987 601.358 130.271 600.753C130.556 600.149 131.027 599.67 131.604 599.399C132.182 599.129 132.829 599.083 133.433 599.271C134.038 599.46 134.563 599.869 134.918 600.429Z" fill="white"/>
</g>
<path d="M86.6376 609.532C86.6376 603.925 88.7071 598.548 92.3908 594.583C96.0745 590.619 101.071 588.392 106.28 588.392C111.49 588.392 116.486 590.619 120.17 594.583C123.853 598.548 125.923 603.925 125.923 609.532C125.934 609.732 125.934 609.933 125.923 610.134C125.934 610.326 125.934 610.519 125.923 610.711C125.646 612.456 124.977 614.101 123.974 615.504C122.97 616.907 121.664 618.025 120.167 618.76C115.859 621.109 111.098 622.333 106.269 622.333C101.439 622.333 96.6777 621.109 92.3696 618.76C90.8788 618.02 89.5778 616.9 88.5791 615.498C87.5804 614.095 86.9141 612.452 86.6376 610.711C86.626 610.519 86.626 610.326 86.6376 610.134C86.626 609.933 86.626 609.732 86.6376 609.532Z" fill="#641EFF"/>
<path opacity="0.9" d="M86.6376 609.532C86.6376 603.925 88.7071 598.548 92.3908 594.583C96.0745 590.619 101.071 588.392 106.28 588.392C111.49 588.392 116.486 590.619 120.17 594.583C123.853 598.548 125.923 603.925 125.923 609.532C125.934 609.732 125.934 609.933 125.923 610.134C125.934 610.326 125.934 610.519 125.923 610.711C125.646 612.456 124.977 614.101 123.974 615.504C122.97 616.907 121.664 618.025 120.167 618.76C115.859 621.109 111.098 622.333 106.269 622.333C101.439 622.333 96.6777 621.109 92.3696 618.76C90.8788 618.02 89.5778 616.9 88.5791 615.498C87.5804 614.095 86.9141 612.452 86.6376 610.711C86.626 610.519 86.626 610.326 86.6376 610.134C86.626 609.933 86.626 609.732 86.6376 609.532Z" fill="white"/>
<g style="mix-blend-mode:lighten" opacity="0.5">
<path d="M97.7539 591.075C100.411 589.685 103.327 588.964 106.282 588.969C111.4 588.967 116.317 591.115 119.985 594.955C123.654 598.796 125.785 604.026 125.925 609.532C125.936 609.733 125.936 609.934 125.925 610.134C125.936 610.326 125.936 610.519 125.925 610.711C125.648 612.456 124.979 614.102 123.975 615.505C122.972 616.908 121.666 618.026 120.169 618.761C117.122 620.562 113.771 621.687 110.313 622.071C115.416 621.118 118.725 614.999 117.14 608.228C115.323 600.379 107.89 589.044 97.7539 591.075Z" fill="white"/>
</g>
<path opacity="0.1" d="M86.6376 610.711C86.626 610.519 86.626 610.326 86.6376 610.134C86.626 609.933 86.626 609.732 86.6376 609.532C86.7049 606.628 87.3319 603.772 88.4791 601.143C89.6262 598.514 91.2685 596.17 93.3016 594.26C91.158 596.617 86.3114 605.52 91.5774 612.316C94.9793 616.779 111.08 623.149 124.338 614.949C123.207 616.515 121.787 617.813 120.167 618.76C115.859 621.109 111.098 622.333 106.269 622.333C101.439 622.333 96.6777 621.109 92.3696 618.76C90.8788 618.02 89.5778 616.901 88.5791 615.498C87.5804 614.095 86.9141 612.452 86.6376 610.711Z" fill="#641EFF"/>
<g style="mix-blend-mode:lighten" opacity="0.5">
<path d="M106.49 593.733C105.605 595.89 107.282 598.749 110.265 600.178C113.247 601.608 116.347 600.956 117.255 598.799C118.164 596.642 116.463 593.784 113.48 592.354C110.498 590.925 107.352 591.577 106.49 593.733Z" fill="white"/>
</g>
<g style="mix-blend-mode:lighten" opacity="0.5">
<path d="M117.861 602.51C117.554 602.98 117.39 603.541 117.391 604.116C117.392 604.691 117.558 605.251 117.866 605.72C118.175 606.189 118.611 606.543 119.114 606.735C119.618 606.927 120.164 606.946 120.678 606.79C121.192 606.635 121.648 606.312 121.985 605.865C122.321 605.419 122.521 604.872 122.558 604.299C122.594 603.725 122.464 603.154 122.186 602.663C121.908 602.172 121.496 601.786 121.007 601.557C120.471 601.24 119.841 601.163 119.253 601.341C118.664 601.519 118.164 601.939 117.861 602.51Z" fill="white"/>
</g>
<path d="M135.316 617.607C135.206 615.403 134.314 613.328 132.825 611.81C131.336 610.292 129.363 609.445 127.312 609.445C125.261 609.445 123.288 610.292 121.799 611.81C120.311 613.328 119.419 615.403 119.309 617.607V618.109C119.424 618.814 119.696 619.479 120.102 620.047C120.507 620.614 121.035 621.068 121.639 621.369C123.392 622.333 125.332 622.835 127.301 622.835C129.269 622.835 131.21 622.333 132.963 621.369C133.569 621.071 134.099 620.619 134.505 620.051C134.911 619.482 135.182 618.815 135.293 618.109V617.607H135.316Z" fill="#641EFF"/>
<path opacity="0.9" d="M135.316 617.607C135.206 615.403 134.314 613.328 132.825 611.81C131.336 610.292 129.363 609.445 127.312 609.445C125.261 609.445 123.288 610.292 121.799 611.81C120.311 613.328 119.419 615.403 119.309 617.607V618.109C119.424 618.814 119.696 619.479 120.102 620.047C120.507 620.614 121.035 621.068 121.639 621.369C123.392 622.333 125.332 622.835 127.301 622.835C129.269 622.835 131.21 622.333 132.963 621.369C133.569 621.071 134.099 620.619 134.505 620.051C134.911 619.482 135.182 618.815 135.293 618.109V617.607H135.316Z" fill="white"/>
<g style="mix-blend-mode:lighten" opacity="0.6">
<path d="M130.796 610.109C129.716 609.536 128.528 609.236 127.324 609.231C125.238 609.23 123.234 610.105 121.737 611.669C120.24 613.233 119.369 615.363 119.309 617.607V618.109C119.424 618.814 119.696 619.479 120.102 620.047C120.507 620.615 121.035 621.068 121.639 621.369C122.876 622.106 124.239 622.567 125.646 622.723C125.107 622.57 124.604 622.299 124.167 621.926C123.731 621.553 123.371 621.087 123.11 620.556C122.85 620.026 122.694 619.443 122.653 618.845C122.613 618.247 122.688 617.646 122.874 617.081C123.643 613.896 126.648 609.282 130.796 610.109Z" fill="white"/>
</g>
<path opacity="0.1" d="M135.316 618.108V617.607C135.291 616.425 135.037 615.262 134.572 614.192C134.107 613.121 133.44 612.166 132.613 611.388C133.475 612.366 135.409 615.977 133.312 618.735C131.423 620.286 129.155 621.214 126.785 621.405C124.415 621.597 122.045 621.044 119.961 619.814C120.419 620.456 120.999 620.986 121.662 621.369C123.415 622.333 125.355 622.835 127.324 622.835C129.293 622.835 131.233 622.333 132.986 621.369C133.592 621.071 134.122 620.619 134.528 620.05C134.934 619.482 135.205 618.815 135.316 618.108Z" fill="#641EFF"/>
<g style="mix-blend-mode:lighten" opacity="0.5">
<path d="M127.23 611.188C127.603 612.066 126.904 613.244 125.693 613.696C124.481 614.147 123.223 614.022 122.873 613.144C122.524 612.266 123.199 611.088 124.411 610.636C125.623 610.185 126.881 610.31 127.23 611.188Z" fill="white"/>
</g>
<g style="mix-blend-mode:lighten" opacity="0.5">
<path d="M122.591 614.748C122.63 614.875 122.646 615.009 122.637 615.143C122.628 615.276 122.594 615.406 122.538 615.525C122.482 615.644 122.403 615.75 122.308 615.836C122.213 615.923 122.103 615.988 121.985 616.027C121.768 616.156 121.512 616.188 121.273 616.118C121.034 616.048 120.83 615.881 120.703 615.651C120.629 615.395 120.651 615.118 120.764 614.879C120.878 614.64 121.073 614.458 121.309 614.372C121.526 614.244 121.781 614.211 122.02 614.281C122.26 614.352 122.464 614.519 122.591 614.748Z" fill="white"/>
</g>
<path d="M2.36004 578.486C2.36004 576.205 3.20207 574.017 4.70089 572.404C6.19972 570.791 8.23254 569.885 10.3522 569.885C12.4719 569.885 14.5047 570.791 16.0035 572.404C17.5023 574.017 18.3444 576.205 18.3444 578.486C18.3557 578.561 18.3557 578.637 18.3444 578.712C18.3546 578.795 18.3546 578.88 18.3444 578.963C18.233 579.67 17.9623 580.337 17.5561 580.905C17.15 581.473 16.6206 581.926 16.0143 582.223C14.2613 583.187 12.3208 583.69 10.3522 583.69C8.38359 583.69 6.44309 583.187 4.69012 582.223C4.08145 581.929 3.54996 581.478 3.1433 580.909C2.73664 580.34 2.46752 579.671 2.36004 578.963C2.34978 578.88 2.34978 578.795 2.36004 578.712C2.34874 578.637 2.34874 578.561 2.36004 578.486Z" fill="#641EFF"/>
<path opacity="0.2" d="M2.36004 578.486C2.36004 576.205 3.20207 574.017 4.70089 572.404C6.19972 570.791 8.23254 569.885 10.3522 569.885C12.4719 569.885 14.5047 570.791 16.0035 572.404C17.5023 574.017 18.3444 576.205 18.3444 578.486C18.3557 578.561 18.3557 578.637 18.3444 578.712C18.3546 578.795 18.3546 578.88 18.3444 578.963C18.233 579.67 17.9623 580.337 17.5561 580.905C17.15 581.473 16.6206 581.926 16.0143 582.223C14.2613 583.187 12.3208 583.69 10.3522 583.69C8.38359 583.69 6.44309 583.187 4.69012 582.223C4.08145 581.929 3.54996 581.478 3.1433 580.909C2.73664 580.34 2.46752 579.671 2.36004 578.963C2.34978 578.88 2.34978 578.795 2.36004 578.712C2.34874 578.637 2.34874 578.561 2.36004 578.486Z" fill="white"/>
<g style="mix-blend-mode:lighten" opacity="0.5">
<path d="M6.87891 570.964C7.95831 570.388 9.14623 570.088 10.3507 570.086C12.4385 570.085 14.4436 570.964 15.9372 572.534C17.4307 574.104 18.2942 576.241 18.3429 578.487C18.3542 578.562 18.3542 578.638 18.3429 578.713C18.3532 578.796 18.3532 578.88 18.3429 578.963C18.2315 579.67 17.9609 580.337 17.5547 580.905C17.1485 581.474 16.6191 581.926 16.0128 582.223C14.7727 582.975 13.399 583.437 11.9818 583.578C12.5209 583.424 13.0249 583.153 13.4621 582.78C13.8993 582.408 14.2604 581.942 14.5228 581.413C14.7853 580.883 14.9434 580.301 14.9872 579.702C15.0311 579.104 14.9598 578.503 14.7779 577.935C14.0322 574.75 11.0264 570.136 6.87891 570.964Z" fill="white"/>
</g>
<path opacity="0.05" d="M2.36004 578.963C2.34978 578.88 2.34978 578.795 2.36004 578.712C2.34874 578.637 2.34874 578.561 2.36004 578.487C2.38505 577.301 2.63815 576.134 3.10337 575.059C3.5686 573.985 4.2358 573.025 5.06291 572.242C4.20078 573.22 2.26684 576.831 4.36391 579.59C6.25372 581.141 8.5211 582.068 10.891 582.26C13.2609 582.451 15.6315 581.898 17.7153 580.668C17.2569 581.31 16.6772 581.84 16.0143 582.223C14.2613 583.187 12.3208 583.69 10.3522 583.69C8.38359 583.69 6.44309 583.187 4.69012 582.223C4.08145 581.93 3.54996 581.478 3.1433 580.909C2.73664 580.34 2.46752 579.671 2.36004 578.963Z" fill="black"/>
<g style="mix-blend-mode:lighten" opacity="0.3">
<path d="M10.4222 572.117C10.0727 572.995 10.7717 574.174 11.96 574.625C13.1484 575.076 14.4532 574.951 14.8027 574.073C15.1523 573.196 14.4765 572.017 13.2649 571.566C12.0532 571.114 10.795 571.164 10.4222 572.117Z" fill="white"/>
</g>
<g style="mix-blend-mode:lighten" opacity="0.3">
<path d="M15.0587 575.602C14.9847 575.858 15.0067 576.135 15.1198 576.374C15.233 576.613 15.4285 576.795 15.6645 576.881C15.824 576.919 15.9901 576.907 16.1435 576.846C16.2968 576.786 16.4312 576.681 16.5309 576.542C16.6306 576.402 16.6916 576.236 16.7067 576.061C16.7218 575.886 16.6905 575.71 16.6164 575.553C16.5422 575.397 16.4283 575.266 16.2879 575.177C16.1474 575.087 15.9863 575.042 15.8231 575.047C15.6599 575.052 15.5015 575.107 15.3661 575.206C15.2308 575.304 15.1242 575.441 15.0587 575.602Z" fill="white"/>
</g>
<path d="M147.242 396.375L126.971 390.732L106.699 396.375C105.163 406.344 105.234 416.524 106.909 426.468C109.565 444.774 121.425 463.106 126.971 463.106C132.516 463.106 144.376 444.774 147.033 426.468C148.707 416.524 148.778 406.344 147.242 396.375Z" fill="#641EFF"/>
<path opacity="0.85" d="M147.242 396.375L126.971 390.732L106.699 396.375C105.163 406.344 105.234 416.524 106.909 426.468C109.565 444.774 121.425 463.106 126.971 463.106C132.516 463.106 144.376 444.774 147.033 426.468C148.707 416.524 148.778 406.344 147.242 396.375Z" fill="white"/>
<path d="M140.253 399.083H112.548C108.587 424.913 121.332 444.699 126.528 444.699C131.725 444.699 144.214 424.838 140.253 399.083Z" fill="#641EFF"/>
<path d="M126.364 399.083H131.024C133.229 403.266 134.136 408.099 133.61 412.876C133.028 419.847 129.136 428.9 126.27 428.9C123.404 428.9 119.513 419.847 118.931 412.876C118.405 408.099 119.311 403.266 121.517 399.083H126.177" fill="white"/>
<path d="M163.809 387.045L160.64 350.558H92.2285L89.0596 387.045C88.4072 393.49 91.9955 400.086 99.9411 405.001C114.574 414.079 138.317 414.079 152.927 405.001C160.873 400.086 164.461 393.49 163.809 387.045Z" fill="#37474F"/>
<path d="M102.205 367.059C88.8068 358.734 88.8068 345.267 102.205 336.966C115.603 328.666 137.296 328.641 150.694 336.966C164.092 345.292 164.092 358.759 150.694 367.059C137.296 375.36 115.603 375.385 102.205 367.059Z" fill="#455A64"/>
<path d="M163.066 378.118L161.995 365.88C161.016 370.594 157.637 375.159 151.812 378.77C137.832 387.446 115.113 387.446 101.11 378.77C95.2844 375.159 91.7893 370.594 90.9039 365.88L89.832 378.118C90.6942 383.133 94.2126 388.023 100.411 391.86C114.81 400.788 138.135 400.788 152.511 391.86C158.686 388.023 162.204 383.133 163.066 378.118Z" fill="#641EFF"/>
<path opacity="0.2" d="M153.373 404.725L154.491 404.098C145.585 408.112 135.93 409.83 126.297 409.113C109.264 408.336 98.8257 401.339 98.5228 396.198C98.3735 391.962 98.6155 387.719 99.2451 383.534C107.945 387.799 117.441 389.85 126.996 389.528C146.08 389.528 157.66 382.431 162.88 375.936L162.344 369.842L160.666 350.457H92.2316L89.0627 386.945C88.9114 388.151 88.9114 389.374 89.0627 390.581C89.0627 391.108 89.2491 391.609 89.3656 392.136C89.5493 392.828 89.775 393.507 90.0413 394.167C92.161 398.782 95.599 402.543 99.851 404.9C108.046 409.629 117.233 412.013 126.53 411.822C128.92 411.818 131.308 411.676 133.684 411.395C134.872 411.245 136.014 411.069 137.202 410.844C142.754 409.913 148.11 407.935 153.023 405L153.373 404.725Z" fill="black"/>
<path d="M127.437 375.811H126.529C112.548 375.962 100.036 372.075 91.3911 364.727C90.5665 364.075 89.8723 363.252 89.3499 362.305C88.8274 361.358 88.4874 360.308 88.3501 359.217C88.2129 358.126 88.2812 357.017 88.551 355.955C88.8207 354.893 89.2864 353.9 89.9203 353.036C90.5542 352.172 91.3433 351.454 92.2405 350.925C93.1378 350.396 94.1248 350.067 95.1427 349.957C96.1606 349.848 97.1886 349.96 98.1654 350.287C99.1421 350.614 100.048 351.15 100.828 351.862C106.746 356.878 115.857 359.586 126.459 359.385H126.529C137.107 359.511 146.195 356.878 152.16 351.862C152.929 351.067 153.845 350.454 154.848 350.063C155.851 349.673 156.919 349.513 157.984 349.595C159.048 349.677 160.084 349.999 161.025 350.539C161.967 351.08 162.792 351.827 163.448 352.732C164.104 353.638 164.576 354.681 164.833 355.796C165.091 356.91 165.128 358.07 164.943 359.201C164.757 360.331 164.353 361.407 163.756 362.359C163.16 363.311 162.384 364.118 161.48 364.727C153.138 371.899 141.045 375.811 127.437 375.811Z" fill="#455A64"/>
<path d="M160.969 330.696L166.724 255.464L189.908 269.883C201.046 276.805 206.032 294.509 204.215 320.69L201.256 362.77L195.011 339.473C191.609 326.759 182.941 322.396 170.406 327.06L160.969 330.696Z" fill="#641EFF"/>
<path opacity="0.25" d="M160.969 330.696L166.724 255.464L189.908 269.883C201.046 276.805 206.032 294.509 204.215 320.69L201.256 362.77L195.011 339.473C191.609 326.759 182.941 322.396 170.406 327.06L160.969 330.696Z" fill="black"/>
<path d="M91.882 330.696L86.1267 255.464L62.9425 269.883C51.8047 276.805 46.8183 294.509 48.6591 320.69L51.595 362.77L57.8396 339.473C61.2415 326.759 69.9327 322.396 82.4452 327.06L91.882 330.696Z" fill="#641EFF"/>
<path opacity="0.25" d="M91.882 330.696L86.1267 255.464L62.9425 269.883C51.8047 276.805 46.8183 294.509 48.6591 320.69L51.595 362.77L57.8396 339.473C61.2415 326.759 69.9327 322.396 82.4452 327.06L91.882 330.696Z" fill="black"/>
<path d="M186.646 196.407C186.646 116.159 155.143 46.8195 131.726 30.77L131.19 30.444H131.073C129.7 29.5728 128.135 29.1133 126.541 29.1133C124.947 29.1133 123.382 29.5728 122.009 30.444H121.893L121.264 30.8953C97.9629 46.9449 66.3438 116.284 66.3438 196.532C66.3438 273.745 86.4523 342.182 88.3863 348.526L88.5261 349.003C90.587 354.313 94.337 358.66 99.1046 361.266C114.25 370.67 138.832 370.67 153.978 361.266C158.906 358.606 162.736 354.063 164.72 348.526C166.537 342.031 186.646 273.695 186.646 196.407Z" fill="#F5F5F5"/>
<path d="M148.85 50.0545C144.325 42.5115 138.514 35.9594 131.723 30.7449L131.188 30.444H131.071C129.698 29.5728 128.133 29.1133 126.539 29.1133C124.945 29.1133 123.38 29.5728 122.007 30.444H121.89L121.261 30.8703C114.468 36.0897 108.65 42.6406 104.112 50.1799C100.361 55.9008 96.9521 61.873 93.9062 68.0601C94.6884 70.5146 95.9148 72.7779 97.5146 74.7192C99.1143 76.6604 101.056 78.2412 103.227 79.3701C116.042 87.3447 136.85 87.3447 149.665 79.3701C151.834 78.2377 153.773 76.6558 155.373 74.715C156.972 72.7742 158.2 70.5127 158.985 68.0601C155.977 61.8257 152.591 55.8109 148.85 50.0545Z" fill="#455A64"/>
<path d="M129.557 32.9518L126.528 0L123.336 32.9518C123.363 33.2469 123.461 33.5293 123.62 33.7711C123.78 34.013 123.995 34.206 124.245 34.331C124.928 34.7014 125.682 34.8944 126.447 34.8944C127.211 34.8944 127.966 34.7014 128.649 34.331C128.898 34.206 129.114 34.013 129.273 33.7711C129.432 33.5293 129.53 33.2469 129.557 32.9518Z" fill="#263238"/>
<path opacity="0.15" d="M66.25 196.406C66.25 273.62 86.3586 342.056 88.2925 348.401L88.4323 348.877C90.4932 354.188 94.2433 358.535 99.0109 361.14C101.691 362.758 104.517 364.077 107.446 365.077C93.8289 310.731 86.6651 254.747 86.1256 198.463C86.1256 109.538 106.467 46.5435 121.077 30.8701C97.7527 46.8194 66.25 116.159 66.25 196.406Z" fill="black"/>
<path opacity="0.35" d="M186.646 196.406C186.646 273.62 166.537 342.056 164.627 348.401C164.586 348.565 164.532 348.724 164.464 348.877C162.411 354.194 158.659 358.544 153.885 361.14C165.256 316.327 178.234 262.661 178.234 198.463C178.234 109.538 146.429 46.5435 131.633 30.8701C155.143 46.8194 186.646 116.159 186.646 196.406Z" fill="white"/>
<path d="M186.11 306.497L165.628 265.821L160.223 269.207L150.902 333.129L159.78 340.853C171.555 351.09 179.719 365.355 182.918 381.278L188.813 410.518C188.813 410.518 191.376 391.936 194.218 369.441C196.665 349.279 196.595 326.032 186.11 306.497Z" fill="#641EFF"/>
<path opacity="0.3" d="M186.11 306.497L165.628 265.821L160.223 269.207L150.902 333.129L159.78 340.853C171.555 351.09 179.719 365.355 182.918 381.278L188.813 410.518C188.813 410.518 191.376 391.936 194.218 369.441C196.665 349.279 196.595 326.032 186.11 306.497Z" fill="white"/>
<path d="M150.809 333.129L160.129 269.207L180.61 309.858C191.072 329.393 193.099 351.887 191.375 374.357L188.626 410.518L182.731 381.278C179.532 365.355 171.368 351.09 159.593 340.853L150.809 333.129Z" fill="#641EFF"/>
<path d="M66.785 306.497L87.2663 265.821L92.6721 269.207L101.992 333.129L93.1149 340.853C81.3403 351.09 73.1753 365.355 69.9772 381.278L64.1054 410.518C64.1054 410.518 61.519 391.936 58.6763 369.441C56.2297 349.279 56.2996 326.032 66.785 306.497Z" fill="#641EFF"/>
<path opacity="0.3" d="M66.785 306.497L87.2663 265.821L92.6721 269.207L101.992 333.129L93.1149 340.853C81.3403 351.09 73.1753 365.355 69.9772 381.278L64.1054 410.518C64.1054 410.518 61.519 391.936 58.6763 369.441C56.2297 349.279 56.2996 326.032 66.785 306.497Z" fill="white"/>
<path d="M102.086 333.129L92.7661 269.207L72.2847 309.858C61.8227 329.393 59.7955 351.887 61.5198 374.357L64.2925 410.518L70.1644 381.278C73.3625 365.355 81.5275 351.09 93.3021 340.853L102.086 333.129Z" fill="#641EFF"/>
<path d="M174.131 132.409C173.77 128.782 172.652 125.29 170.861 122.194C169.069 119.098 166.65 116.477 163.785 114.529L160.081 112.247C157.355 110.577 154.269 109.712 151.133 109.739C148.752 109.751 146.389 110.192 144.143 111.043C132.842 115.256 125.129 129.124 125.759 143.97C125.778 148.478 126.833 152.911 128.829 156.875C130.825 160.839 133.7 164.21 137.199 166.69L141.114 169.198C143.869 170.938 147.006 171.855 150.201 171.856C152.288 171.851 154.36 171.47 156.329 170.727C169.611 165.862 176.251 146.904 174.131 132.409Z" fill="#641EFF"/>
<g opacity="0.2">
<path d="M174.131 132.409C173.77 128.782 172.652 125.29 170.861 122.194C169.069 119.098 166.65 116.477 163.785 114.529L160.081 112.247C157.355 110.577 154.269 109.712 151.133 109.739C148.752 109.751 146.389 110.192 144.143 111.043C132.842 115.256 125.129 129.124 125.759 143.97C125.778 148.478 126.833 152.911 128.829 156.875C130.825 160.839 133.7 164.21 137.199 166.69L141.114 169.198C143.869 170.938 147.006 171.855 150.201 171.856C152.288 171.851 154.36 171.47 156.329 170.727C169.611 165.862 176.251 146.904 174.131 132.409Z" fill="black"/>
</g>
<path d="M150.25 171.756C139.019 171.756 130.095 160.772 129.466 146.227C128.837 131.682 136.456 117.513 147.85 113.3C150.094 112.437 152.458 111.996 154.84 111.996C164.767 111.996 172.363 119.996 174.18 132.409C176.301 146.904 169.66 165.737 156.425 170.627C154.441 171.375 152.353 171.757 150.25 171.756Z" fill="#641EFF"/>
<path d="M154.256 163.981C144.82 167.492 136.501 158.213 135.965 145.9C135.429 133.587 141.744 123.005 149.946 119.92C158.148 116.835 165.907 121.575 167.631 133.487C169.355 145.399 163.81 160.495 154.256 163.981Z" fill="#37474F"/>
<path d="M163.809 131.355C163.368 126.774 161.327 122.544 158.1 119.519C155.41 118.729 152.557 118.87 149.945 119.92C141.696 123.005 135.405 133.562 135.964 145.9C135.991 148.97 136.628 151.997 137.834 154.779C139.04 157.561 140.786 160.031 142.955 162.025C145.369 162.831 147.962 162.769 150.341 161.85C159.871 158.339 165.58 143.292 163.809 131.355Z" fill="#455A64"/>
<path opacity="0.3" d="M149.317 124.986C141.581 129.149 138.016 139.08 139.484 148.007C139.6 148.734 139.88 149.587 140.556 149.763C141.232 149.938 141.954 149.085 142.35 148.333C144.68 144.145 147.01 139.029 151.228 136.672C152.206 136.167 153.239 135.796 154.303 135.569C157.193 134.766 159.732 133.437 159.942 129.801C160.142 128.471 159.855 127.109 159.143 126.001C158.431 124.894 157.348 124.125 156.121 123.858C153.8 123.346 151.386 123.746 149.317 124.986Z" fill="white"/>
<path d="M170.336 202.451C170.058 199.674 169.201 197 167.829 194.63C166.457 192.259 164.606 190.252 162.413 188.758L159.594 187.028C157.501 185.744 155.129 185.078 152.72 185.097C150.909 185.103 149.112 185.442 147.408 186.1C138.786 189.31 132.868 199.918 133.427 211.178C133.44 214.628 134.245 218.022 135.769 221.058C137.293 224.094 139.49 226.678 142.165 228.581L145.171 230.437C147.291 231.772 149.704 232.473 152.161 232.468C153.749 232.459 155.324 232.162 156.821 231.591C166.887 227.954 171.943 213.51 170.336 202.451Z" fill="#641EFF"/>
<g opacity="0.2">
<path d="M170.336 202.451C170.058 199.674 169.201 197 167.829 194.63C166.457 192.259 164.606 190.252 162.413 188.758L159.594 187.028C157.501 185.744 155.129 185.078 152.72 185.097C150.909 185.103 149.112 185.442 147.408 186.1C138.786 189.31 132.868 199.918 133.427 211.178C133.44 214.628 134.245 218.022 135.769 221.058C137.293 224.094 139.49 226.678 142.165 228.581L145.171 230.437C147.291 231.772 149.704 232.473 152.161 232.468C153.749 232.459 155.324 232.162 156.821 231.591C166.887 227.954 171.943 213.51 170.336 202.451Z" fill="black"/>
</g>
<path d="M152.162 232.568C143.587 232.568 136.76 224.167 136.27 213.033C135.781 201.899 141.7 191.065 150.251 187.83C151.955 187.17 153.752 186.83 155.564 186.827C163.16 186.827 168.961 192.971 170.359 202.45C171.967 213.56 166.911 227.954 156.752 231.691C155.277 232.254 153.726 232.551 152.162 232.568Z" fill="#641EFF"/>
<path d="M155.121 226.625C147.897 229.283 141.536 222.211 141.14 212.782C140.744 203.353 145.544 195.228 151.858 192.896C158.173 190.564 164.068 194.175 165.396 203.278C166.724 212.381 162.344 223.967 155.121 226.625Z" fill="#37474F"/>
<path d="M162.459 201.648C162.127 198.144 160.569 194.907 158.102 192.595C156.043 191.984 153.857 192.09 151.857 192.896C145.543 195.253 140.719 203.353 141.139 212.782C141.155 215.135 141.645 217.456 142.574 219.586C143.503 221.715 144.85 223.603 146.521 225.12C148.36 225.769 150.344 225.769 152.183 225.12C159.406 222.311 163.81 210.776 162.459 201.648Z" fill="#455A64"/>
<path opacity="0.3" d="M151.345 196.783C148.53 198.48 146.286 201.091 144.934 204.245C143.582 207.398 143.192 210.931 143.819 214.337C143.819 214.889 144.122 215.541 144.635 215.691C145.147 215.842 145.707 215.165 146.01 214.588C147.711 211.378 149.645 207.491 152.813 205.66C153.555 205.282 154.338 205.004 155.144 204.833C157.474 204.206 159.291 203.203 159.454 200.394C159.599 199.383 159.378 198.351 158.836 197.511C158.294 196.671 157.472 196.087 156.542 195.88C154.765 195.489 152.917 195.81 151.345 196.783Z" fill="white"/>
</svg>
