<svg width="177" height="121" viewBox="0 0 177 121" fill="none" xmlns="http://www.w3.org/2000/svg">
<path d="M133.032 72.9129L143.199 66.0547C144.919 65.0374 146.821 64.5072 148.751 64.5072C150.68 64.5072 152.582 65.0374 154.302 66.0547L157.808 68.4313L171.038 59.5495C171.708 59.1546 172.448 58.9489 173.2 58.9489C173.951 58.9489 174.692 59.1546 175.362 59.5495H175.455C175.716 59.6526 175.943 59.8482 176.104 60.1088C176.265 60.3694 176.351 60.682 176.351 61.0027C176.351 61.3233 176.265 61.6359 176.104 61.8965C175.943 62.1571 175.716 62.3527 175.455 62.4558L162.226 71.324L162.962 71.8265C166.024 73.8772 166.024 77.2588 162.962 79.2823L152.783 86.0726L137.94 96.0545L118.143 82.7589L133.032 72.9129Z" fill="#E0E0E0"/>
<path d="M59.8805 120.152C59.6025 120.171 59.3258 120.096 59.0833 119.937C58.8408 119.779 58.6428 119.542 58.5131 119.255L55.0655 110.618C54.9889 110.434 54.9491 110.232 54.9491 110.027C54.9491 109.823 54.9889 109.621 55.0655 109.437C55.1722 109.215 55.3248 109.029 55.5095 108.893L55.1239 108.432C54.9834 108.272 54.8797 108.074 54.8225 107.856C54.7653 107.637 54.7564 107.406 54.7966 107.182C54.9336 107.08 55.045 106.938 55.1194 106.77C55.1938 106.601 55.2286 106.413 55.2203 106.224C55.212 106.035 55.1609 105.853 55.0721 105.694C54.9833 105.535 54.8601 105.407 54.7148 105.322C54.7144 105.072 54.773 104.828 54.8844 104.614C54.9957 104.401 55.1554 104.228 55.3459 104.113L100.925 73.5564C101.178 73.3902 101.464 73.3058 101.755 73.312C102.049 73.3072 102.339 73.3915 102.596 73.5564L112.027 79.885C112.213 80.0014 112.368 80.1739 112.476 80.3843C112.584 80.5947 112.641 80.8351 112.641 81.0801C112.641 81.3251 112.584 81.5656 112.476 81.776C112.368 81.9863 112.213 82.1589 112.027 82.2752L104.852 87.0964L111.49 84.5296C111.671 84.4584 111.86 84.4217 112.051 84.421C112.264 84.4063 112.477 84.4421 112.678 84.5262C112.879 84.6102 113.063 84.7408 113.22 84.9099L119.893 92.6645C120.031 92.8253 120.133 93.0241 120.188 93.2424C120.243 93.4607 120.25 93.6916 120.208 93.9139C120.153 94.1619 120.044 94.389 119.89 94.5725C119.736 94.7559 119.544 94.8894 119.332 94.9596L108.136 99.3054L118.42 97.4585C118.509 97.4455 118.6 97.4455 118.689 97.4585C118.967 97.4394 119.244 97.5139 119.486 97.6728C119.729 97.8318 119.927 98.0685 120.056 98.3548L123.504 106.992C123.581 107.176 123.62 107.378 123.62 107.583C123.62 107.787 123.581 107.989 123.504 108.174C123.396 108.391 123.245 108.577 123.065 108.716C122.884 108.855 122.679 108.944 122.464 108.975L60.2311 120.152C60.115 120.174 59.9966 120.174 59.8805 120.152Z" fill="#E0E0E0"/>
<path d="M36.769 91.111C36.0825 91.1039 35.4191 90.8217 34.891 90.312C34.3629 89.8022 34.0025 89.0963 33.8706 88.3134L33.0408 83.2749C31.207 82.8979 29.3958 82.3853 27.6181 81.7403H27.4895H27.3026L20.0684 85.6244C19.5408 85.884 18.9698 86.003 18.3974 85.9725C17.8251 85.9419 17.2659 85.7626 16.761 85.4478L9.6787 80.681C9.31561 80.4494 9.00858 80.1152 8.78594 79.7093C8.56331 79.3035 8.43224 78.839 8.40483 78.3587C8.39372 77.8769 8.48493 77.3993 8.67042 76.9682C8.85592 76.5371 9.12997 76.1658 9.46834 75.887L14.1431 71.9894C13.6081 71.2141 13.1311 70.3872 12.7173 69.5177L3.36777 68.8386C2.64946 68.7835 1.97596 68.4135 1.48346 67.8034C0.990971 67.1933 0.716244 66.3886 0.714844 65.5521V59.4C0.716244 58.5635 0.990971 57.7588 1.48346 57.1487C1.97596 56.5386 2.64946 56.1686 3.36777 56.1135L12.7173 55.4345C13.1311 54.5649 13.6081 53.738 14.1431 52.9628L9.46834 49.0651C9.12997 48.7864 8.85592 48.415 8.67042 47.9839C8.48493 47.5528 8.39372 47.0752 8.40483 46.5934C8.43224 46.1132 8.56331 45.6486 8.78594 45.2428C9.00858 44.8369 9.31561 44.5027 9.6787 44.2711L16.8077 39.4907C17.3126 39.1759 17.8718 38.9966 18.4442 38.9661C19.0165 38.9355 19.5875 39.0545 20.1151 39.3142L27.2091 43.1846C27.2904 43.1986 27.3731 43.1986 27.4545 43.1846H27.548C29.3343 42.5428 31.1532 42.0303 32.9941 41.6501L33.8239 36.6116C33.9557 35.8287 34.3162 35.1227 34.8443 34.613C35.3724 34.1032 36.0357 33.821 36.7222 33.814H47.2404C47.9283 33.8204 48.5933 34.1022 49.1233 34.6117C49.6534 35.1213 50.0161 35.8276 50.1505 36.6116L50.9685 41.6501C52.8024 42.0271 54.6136 42.5396 56.3913 43.1846H56.7185L63.941 39.3006C64.4129 39.0627 64.9226 38.9424 65.4369 38.9475C66.0704 38.9357 66.6952 39.1184 67.2484 39.4771L74.3774 44.2575C74.7448 44.4845 75.0553 44.8182 75.2786 45.2262C75.5019 45.6341 75.6304 46.1024 75.6516 46.5853C75.6728 47.0681 75.5859 47.5491 75.3995 47.9814C75.2131 48.4136 74.9334 48.7823 74.5878 49.0515L69.913 52.9492C70.4404 53.7279 70.9132 54.5545 71.3271 55.4209L80.6767 56.0999C81.395 56.155 82.0685 56.525 82.561 57.1351C83.0535 57.7452 83.3282 58.5499 83.3296 59.3865V65.5385C83.3282 66.375 83.0535 67.1797 82.561 67.7898C82.0685 68.3999 81.395 68.77 80.6767 68.825L71.3271 69.5041C70.9132 70.3705 70.4404 71.197 69.913 71.9758L74.5878 75.8734C74.9298 76.1448 75.2069 76.5127 75.393 76.9427C75.579 77.3727 75.6679 77.8506 75.6513 78.3315C75.6247 78.8138 75.4941 79.2806 75.2715 79.6889C75.0489 80.0971 74.7414 80.4336 74.3774 80.6674L67.2484 85.4478C66.6952 85.8065 66.0704 85.9892 65.4369 85.9775C64.9226 85.9825 64.4129 85.8622 63.941 85.6244L56.7536 81.7539C56.6762 81.7382 56.5972 81.7382 56.5198 81.7539H56.4263C54.64 82.3958 52.8211 82.9082 50.9802 83.2885L50.1621 88.327C50.0258 89.1098 49.6625 89.8146 49.1329 90.3238C48.6033 90.8329 47.9394 91.1156 47.2521 91.1246L36.769 91.111ZM30.9255 56.2901C28.3076 58.042 26.8818 60.242 26.8818 62.4829C26.8818 64.7237 28.3076 66.9102 30.9255 68.6621C34.3711 70.6714 38.1729 71.7178 42.0281 71.7178C45.8832 71.7178 49.685 70.6714 53.1306 68.6621C55.7368 66.9102 57.1743 64.7101 57.1743 62.4829C57.1743 60.2556 55.7368 58.042 53.1306 56.2901C49.685 54.2807 45.8832 53.2343 42.0281 53.2343C38.1729 53.2343 34.3711 54.2807 30.9255 56.2901Z" fill="#E0E0E0"/>
<path d="M103.859 47.3814L97.7346 46.6345C97.3613 46.5887 96.9996 46.4571 96.6705 46.2472C96.3414 46.0374 96.0516 45.7535 95.8179 45.4122C95.5816 45.0727 95.407 44.681 95.3045 44.2609C95.2021 43.8407 95.174 43.4008 95.2219 42.9677L95.4556 40.7269C94.6376 40.4145 93.8312 40.075 93.1183 39.6947C92.9388 39.6178 92.7485 39.5809 92.5573 39.5861C92.4796 39.577 92.4013 39.577 92.3235 39.5861L87.5553 41.3244C87.2177 41.4411 86.8674 41.5006 86.5151 41.5009C85.6159 41.5099 84.7413 41.16 84.0375 40.5096L80.9054 37.4947C80.5762 37.1981 80.3184 36.8078 80.157 36.3616C79.9956 35.9153 79.9362 35.4282 79.9844 34.9474C80.0326 34.4666 80.1868 34.0083 80.4321 33.6171C80.6774 33.2259 81.0055 32.9149 81.3846 32.7142L84.7154 30.7722C84.6128 30.505 84.5307 30.2278 84.4699 29.9438L79.2693 28.9116C78.8829 28.8426 78.5143 28.676 78.1893 28.4236C77.8644 28.1713 77.5909 27.8392 77.3881 27.4509C77.1854 27.0626 77.0583 26.6274 77.0159 26.1759C76.9734 25.7243 77.0165 25.2675 77.1423 24.8374L77.9837 21.7003C78.1988 20.9544 78.6077 20.3044 79.154 19.8398C79.7003 19.3753 80.3571 19.119 81.034 19.1064L86.7138 19.378C86.8987 19.3316 87.0712 19.2337 87.2164 19.0928C87.4852 18.7668 87.7773 18.4545 88.0812 18.1421L86.4567 16.1322C86.1609 15.7968 85.9436 15.3794 85.8253 14.9193C85.707 14.4592 85.6915 13.9717 85.7804 13.5027C85.8693 13.0338 86.0596 12.5989 86.3334 12.2392C86.6071 11.8795 86.9553 11.6067 87.3449 11.4468L92.23 9.16528C92.6703 8.97076 93.1381 8.87403 93.6091 8.88009C94.3764 8.87319 95.1299 9.11795 95.7829 9.58628L99.0669 12.1259C99.2807 12.2327 99.5121 12.2837 99.7447 12.2753C100.832 12.058 101.954 11.895 103.052 11.7999C103.116 11.7727 103.178 11.7409 103.239 11.7049L104.408 8.98872C104.706 8.3603 105.142 7.83468 105.672 7.46504C106.201 7.09539 106.805 6.89486 107.423 6.88373H107.739L113.851 7.63065C114.224 7.67639 114.586 7.80803 114.915 8.01787C115.244 8.22772 115.534 8.51161 115.767 8.85295C116.004 9.19249 116.178 9.58415 116.281 10.0043C116.383 10.4244 116.411 10.8643 116.364 11.2975L116.13 13.5383C116.96 13.8506 117.754 14.1902 118.467 14.5704C118.647 14.6473 118.837 14.6842 119.028 14.679C119.106 14.6881 119.184 14.6881 119.262 14.679L124.03 12.9407C124.368 12.824 124.718 12.7645 125.07 12.7642C125.969 12.7552 126.844 13.1052 127.548 13.7556L130.668 16.7705C131.001 17.0638 131.262 17.4526 131.427 17.8988C131.591 18.345 131.653 18.8331 131.605 19.3153C131.558 19.7975 131.404 20.2572 131.158 20.6491C130.911 21.0411 130.582 21.3518 130.201 21.5509L126.882 23.493C126.975 23.7646 127.057 24.0497 127.127 24.3214L132.328 25.3535C132.714 25.4226 133.083 25.5892 133.408 25.8415C133.733 26.0939 134.006 26.4259 134.209 26.8142C134.412 27.2025 134.539 27.6378 134.581 28.0893C134.624 28.5408 134.581 28.9977 134.455 29.4277L133.613 32.5649C133.399 33.3086 132.992 33.9571 132.448 34.4215C131.904 34.8858 131.25 35.1434 130.575 35.1588L124.883 34.8871C124.697 34.9284 124.523 35.0269 124.381 35.1723C124.112 35.4983 123.82 35.8106 123.516 36.123L125.152 38.133C125.44 38.4756 125.651 38.8949 125.767 39.3541C125.883 39.8133 125.901 40.2986 125.818 40.7676C125.723 41.2328 125.53 41.6633 125.256 42.021C124.983 42.3788 124.638 42.6526 124.252 42.8183L119.367 45.0999C118.928 45.299 118.46 45.4003 117.988 45.3986C117.22 45.3992 116.467 45.1499 115.814 44.6788L112.53 42.1392C112.316 42.0324 112.085 41.9814 111.852 41.9899C110.765 42.2072 109.644 42.3701 108.545 42.4652C108.481 42.4925 108.419 42.5242 108.358 42.5602L107.189 45.2764C106.891 45.9048 106.455 46.4305 105.925 46.8001C105.396 47.1698 104.792 47.3703 104.174 47.3814H103.859ZM99.7798 22.5694C97.5593 23.6016 96.0984 25.1498 95.888 26.7251C95.8635 27.369 95.9818 28.0094 96.2314 28.5849C96.4811 29.1604 96.8538 29.6517 97.3138 30.0117C99.7912 32.0462 102.779 33.0683 105.81 32.918C107.86 32.9428 109.894 32.5141 111.806 31.6549C114.026 30.6228 115.487 29.0746 115.697 27.4992C115.722 26.8554 115.604 26.215 115.354 25.6395C115.104 25.064 114.732 24.5727 114.272 24.2127C111.798 22.1802 108.814 21.1581 105.787 21.3064C103.734 21.2815 101.695 21.7101 99.7798 22.5694Z" fill="#E0E0E0"/>
<path d="M122.912 104.376C122.912 104.376 122.912 104.376 122.912 104.294L119.57 95.9829C119.499 95.8838 119.406 95.8096 119.3 95.7688C119.195 95.728 119.082 95.7222 118.974 95.752L58.9032 106.549C58.6812 106.549 58.5409 106.725 58.5409 106.875V108.341C58.5358 108.368 58.5358 108.396 58.5409 108.423L61.8717 116.761C61.9409 116.863 62.0341 116.939 62.14 116.98C62.2459 117.021 62.3598 117.025 62.4677 116.992L122.538 106.196C122.76 106.196 122.901 106.019 122.901 105.87L122.912 104.376Z" fill="#2D1C51"/>
<path d="M58.9037 106.508L118.974 95.7111C119.082 95.6813 119.195 95.6871 119.301 95.7279C119.406 95.7687 119.499 95.8428 119.57 95.942L122.913 104.294C122.983 104.471 122.819 104.647 122.562 104.702L62.4916 115.498C62.3836 115.528 62.2706 115.522 62.1653 115.481C62.06 115.441 61.9666 115.367 61.8956 115.267L58.5648 106.915C58.4947 106.739 58.6349 106.562 58.9037 106.508Z" fill="#543B89"/>
<path d="M62.2109 108.056L64.1977 113.054L71.6423 111.709L69.6438 106.725L62.2109 108.056Z" fill="#9A4A4D"/>
<path d="M81.25 104.634L83.2485 109.631L90.693 108.287L88.6946 103.289L81.25 104.634Z" fill="#9A4A4D"/>
<path opacity="0.4" d="M81.25 104.634L83.2485 109.631L90.693 108.287L88.6946 103.289L81.25 104.634Z" fill="white"/>
<path d="M90.7734 102.923L92.7719 107.907L100.216 106.576L98.218 101.578L90.7734 102.923Z" fill="#9A4A4D"/>
<path opacity="0.6" d="M90.7734 102.923L92.7719 107.907L100.216 106.576L98.218 101.578L90.7734 102.923Z" fill="white"/>
<path d="M100.299 101.211L102.297 106.195L109.742 104.864L107.743 99.8666L100.299 101.211Z" fill="#9A4A4D"/>
<path opacity="0.8" d="M100.299 101.211L102.297 106.195L109.742 104.864L107.743 99.8666L100.299 101.211Z" fill="white"/>
<path d="M109.824 99.5002L111.823 104.484L119.267 103.153L117.269 98.1557L109.824 99.5002Z" fill="#9A4A4D"/>
<path d="M109.824 99.5002L111.823 104.484L119.267 103.153L117.269 98.1557L109.824 99.5002Z" fill="white"/>
<path d="M71.7363 106.345L73.7231 111.342L81.1677 109.998L79.1692 105L71.7363 106.345Z" fill="#9A4A4D"/>
<path opacity="0.2" d="M71.7363 106.345L73.7231 111.342L81.1677 109.998L79.1692 105L71.7363 106.345Z" fill="white"/>
<path d="M62.047 115.43V116.883C61.9816 116.851 61.9278 116.794 61.8951 116.72L58.5643 108.382C58.5593 108.355 58.5593 108.327 58.5643 108.3V106.847C58.5593 106.874 58.5593 106.902 58.5643 106.929L61.8951 115.281C61.9354 115.343 61.9873 115.394 62.047 115.43Z" fill="#2A1160"/>
<path d="M119.676 90.9578C119.677 90.9273 119.672 90.8971 119.662 90.8691C119.652 90.841 119.637 90.8157 119.618 90.7948L113.178 83.3118C113.083 83.2269 112.971 83.1711 112.853 83.1498C112.734 83.1284 112.613 83.1421 112.5 83.1896L58.6355 104.05C58.4719 104.05 58.3901 104.213 58.3901 104.335V105.788C58.37 105.844 58.37 105.908 58.3901 105.964L64.8296 113.447C64.927 113.527 65.0393 113.578 65.1572 113.597C65.2751 113.616 65.3952 113.602 65.5074 113.556L119.407 92.7097C119.571 92.7097 119.653 92.5331 119.653 92.4109L119.676 90.9578Z" fill="#2D1C51"/>
<path d="M58.6344 104.05L112.476 83.1896C112.589 83.1421 112.71 83.1284 112.828 83.1498C112.947 83.1711 113.059 83.2269 113.154 83.3118L119.593 90.7948C119.734 90.9578 119.652 91.1479 119.406 91.243L65.5647 112.103C65.452 112.15 65.3308 112.164 65.2123 112.143C65.0939 112.121 64.9819 112.066 64.8869 111.981L58.4474 104.498C58.3189 104.348 58.4007 104.131 58.6344 104.05Z" fill="#543B89"/>
<path d="M62.4199 104.973L66.2766 109.441L72.9498 106.861L69.0931 102.393L62.4199 104.973Z" fill="#FFA8A7"/>
<path d="M79.4961 98.3595L83.3528 102.828L90.026 100.247L86.1693 95.7656L79.4961 98.3595Z" fill="#FFA8A7"/>
<path opacity="0.4" d="M79.4961 98.3595L83.3528 102.828L90.026 100.247L86.1693 95.7656L79.4961 98.3595Z" fill="white"/>
<path d="M88.041 95.0457L91.8977 99.5273L98.5592 96.9334L94.7142 92.4653L88.041 95.0457Z" fill="#FFA8A7"/>
<path opacity="0.6" d="M88.041 95.0457L91.8977 99.5273L98.5592 96.9334L94.7142 92.4653L88.041 95.0457Z" fill="white"/>
<path d="M96.5801 91.7455L100.425 96.2135L107.098 93.6332L103.253 89.1516L96.5801 91.7455Z" fill="#FFA8A7"/>
<path opacity="0.8" d="M96.5801 91.7455L100.425 96.2135L107.098 93.6332L103.253 89.1516L96.5801 91.7455Z" fill="white"/>
<path d="M105.113 88.4317L108.97 92.9133L115.643 90.3194L111.786 85.8514L105.113 88.4317Z" fill="#FFA8A7"/>
<path d="M105.113 88.4317L108.97 92.9133L115.643 90.3194L111.786 85.8514L105.113 88.4317Z" fill="white"/>
<path d="M70.9648 101.659L74.8098 106.141L81.4831 103.547L77.6381 99.079L70.9648 101.659Z" fill="#FFA8A7"/>
<path opacity="0.2" d="M70.9648 101.659L74.8098 106.141L81.4831 103.547L77.6381 99.079L70.9648 101.659Z" fill="white"/>
<path d="M65.1784 112.13V113.638C65.0756 113.616 64.9791 113.565 64.8979 113.488L58.4585 106.005C58.4383 105.949 58.4383 105.885 58.4585 105.829V104.403C58.446 104.447 58.446 104.495 58.4585 104.539L64.8979 112.022C64.9806 112.088 65.0779 112.126 65.1784 112.13Z" fill="#2A1160"/>
<path d="M58.1426 102.773V103.303C58.1475 103.441 58.1808 103.576 58.2397 103.697C58.2987 103.817 58.3816 103.92 58.4815 103.995L67.5973 110.107C67.7032 110.173 67.8217 110.208 67.942 110.208C68.0624 110.208 68.1809 110.173 68.2868 110.107L112.265 80.6093C112.364 80.5292 112.445 80.424 112.504 80.3016C112.563 80.1793 112.597 80.043 112.604 79.9032V79.3871C112.599 79.2467 112.565 79.1097 112.507 78.9871C112.448 78.8644 112.365 78.7595 112.265 78.6809L103.149 72.5696C103.041 72.5094 102.923 72.4781 102.804 72.4781C102.685 72.4781 102.567 72.5094 102.459 72.5696L58.4815 102.067C58.3826 102.147 58.3007 102.252 58.242 102.375C58.1833 102.497 58.1493 102.633 58.1426 102.773Z" fill="#2D1C51"/>
<path d="M58.4813 102.012L102.459 72.5151C102.567 72.4549 102.684 72.4236 102.804 72.4236C102.923 72.4236 103.041 72.4549 103.149 72.5151L112.264 78.6264C112.306 78.6431 112.341 78.6743 112.367 78.7156C112.392 78.757 112.406 78.8065 112.406 78.8573C112.406 78.908 112.392 78.9575 112.367 78.9989C112.341 79.0403 112.306 79.0714 112.264 79.0881L68.2866 108.585C68.1807 108.652 68.0622 108.687 67.9418 108.687C67.8214 108.687 67.7029 108.652 67.5971 108.585L58.4813 102.488C58.4411 102.468 58.4068 102.435 58.3827 102.393C58.3586 102.35 58.3457 102.301 58.3457 102.25C58.3457 102.199 58.3586 102.15 58.3827 102.107C58.4068 102.065 58.4411 102.032 58.4813 102.012Z" fill="#543B89"/>
<path d="M67.985 108.694V110.147C67.8668 110.151 67.7498 110.118 67.6461 110.052L58.542 103.941C58.4399 103.867 58.3547 103.765 58.2937 103.645C58.2327 103.524 58.1976 103.388 58.1914 103.248V102.773C58.1963 102.648 58.2237 102.525 58.2721 102.412C58.3204 102.3 58.3885 102.201 58.4719 102.121C58.3433 102.257 58.3667 102.42 58.542 102.542L67.6461 108.64C67.7531 108.692 67.8699 108.711 67.985 108.694Z" fill="#2A1160"/>
<path d="M58.4813 102.013L102.459 72.5154C102.565 72.4488 102.683 72.4139 102.804 72.4139C102.924 72.4139 103.043 72.4488 103.149 72.5154L112.264 78.6267C112.306 78.6434 112.341 78.6745 112.367 78.7159C112.392 78.7573 112.406 78.8068 112.406 78.8576C112.406 78.9083 112.392 78.9578 112.367 78.9992C112.341 79.0406 112.306 79.0717 112.264 79.0884L68.2866 108.586C68.1807 108.652 68.0622 108.687 67.9418 108.687C67.8214 108.687 67.7029 108.652 67.5971 108.586L58.4813 102.488C58.4411 102.468 58.4068 102.435 58.3827 102.393C58.3586 102.351 58.3457 102.301 58.3457 102.25C58.3457 102.2 58.3586 102.15 58.3827 102.108C58.4068 102.065 58.4411 102.032 58.4813 102.013Z" fill="#543B89"/>
<path d="M62.502 102.244L67.9481 105.897L73.3942 102.244L67.9481 98.5905L62.502 102.244Z" fill="#641EFF"/>
<path d="M76.4453 92.8999L81.8914 96.5531L87.3375 92.8863L81.8914 89.2331L76.4453 92.8999Z" fill="#641EFF"/>
<path opacity="0.4" d="M76.4453 92.8999L81.8914 96.5531L87.3375 92.8863L81.8914 89.2331L76.4453 92.8999Z" fill="white"/>
<path d="M83.4102 88.2145L88.8563 91.8677L94.3024 88.2145L88.8563 84.5613L83.4102 88.2145Z" fill="#641EFF"/>
<path opacity="0.6" d="M83.4102 88.2145L88.8563 91.8677L94.3024 88.2145L88.8563 84.5613L83.4102 88.2145Z" fill="white"/>
<path d="M90.3867 83.5428L95.8328 87.196L101.279 83.5292L95.8328 79.876L90.3867 83.5428Z" fill="#641EFF"/>
<path opacity="0.8" d="M90.3867 83.5428L95.8328 87.196L101.279 83.5292L95.8328 79.876L90.3867 83.5428Z" fill="white"/>
<path d="M97.3535 78.8575L102.8 82.5107L108.257 78.8575L102.8 75.2043L97.3535 78.8575Z" fill="#641EFF"/>
<path d="M97.3535 78.8575L102.8 82.5107L108.257 78.8575L102.8 75.2043L97.3535 78.8575Z" fill="white"/>
<path d="M69.4688 97.5716L74.9148 101.225L80.3609 97.5716L74.9148 93.9184L69.4688 97.5716Z" fill="#641EFF"/>
<path opacity="0.2" d="M69.4688 97.5716L74.9148 101.225L80.3609 97.5716L74.9148 93.9184L69.4688 97.5716Z" fill="white"/>
<path d="M61.2184 101.876C61.2858 101.903 61.3444 101.953 61.3859 102.02C61.4274 102.087 61.4497 102.167 61.4497 102.25C61.4497 102.332 61.4274 102.413 61.3859 102.48C61.3444 102.547 61.2858 102.597 61.2184 102.623C61.0386 102.735 60.8379 102.794 60.634 102.794C60.4302 102.794 60.2295 102.735 60.0497 102.623C59.9823 102.597 59.9237 102.547 59.8822 102.48C59.8407 102.413 59.8184 102.332 59.8184 102.25C59.8184 102.167 59.8407 102.087 59.8822 102.02C59.9237 101.953 59.9823 101.903 60.0497 101.876C60.2295 101.765 60.4302 101.706 60.634 101.706C60.8379 101.706 61.0386 101.765 61.2184 101.876Z" fill="#2A1160"/>
<path d="M69.7655 38.2082L65.0089 39.1588C64.7653 39.0183 64.4991 38.9384 64.2274 38.9244C63.9557 38.9104 63.6845 38.9625 63.4312 39.0774L56.232 45.4195C55.9827 45.5308 55.7155 45.5776 55.4491 45.5565C55.1826 45.5354 54.9234 45.4469 54.6894 45.2973C52.8274 43.9267 50.8093 42.8661 48.694 42.1466C48.4431 42.0708 48.2148 41.9169 48.0336 41.7015C47.8524 41.4861 47.7252 41.2174 47.6655 40.9243L47.0695 37.3119C47.0065 37.0377 46.8712 36.7932 46.6826 36.613C46.4939 36.4327 46.2614 36.3257 46.0177 36.3069H35.593C35.3493 36.3257 35.1167 36.4327 34.9281 36.613C34.7394 36.7932 34.6041 37.0377 34.5411 37.3119L34.0035 40.6935C33.9388 40.9845 33.8082 41.25 33.6252 41.4626C33.4423 41.6751 33.2138 41.8269 32.9634 41.9021C30.7584 42.5101 28.6828 43.633 26.8628 45.2023C26.6494 45.3762 26.4026 45.4868 26.1439 45.5247C25.8852 45.5626 25.6225 45.5265 25.3786 45.4195L18.2028 39.0774C17.9498 38.9608 17.6784 38.9078 17.4065 38.9218C17.1345 38.9359 16.8682 39.0166 16.6251 39.1588L9.20391 39.7971V46.9406C9.20389 47.054 9.22986 47.1653 9.27916 47.2632C9.32846 47.3611 9.39929 47.4419 9.4844 47.4974L15.1058 52.1963C15.1985 52.2698 15.276 52.3662 15.3328 52.4786C15.3896 52.591 15.4243 52.7166 15.4344 52.8465C15.4444 52.9763 15.4296 53.1072 15.391 53.2296C15.3524 53.352 15.2909 53.4629 15.211 53.5544C14.4271 54.5397 13.7518 55.6346 13.2008 56.8138C13.0663 57.0797 12.8819 57.307 12.6614 57.4786C12.4408 57.6503 12.1898 57.7619 11.927 57.8052L2.48394 56.0261C2.24622 56.0498 2.02463 56.1756 1.86253 56.379C1.70043 56.5825 1.60946 56.8489 1.60742 57.1261V65.7227C1.6126 65.9998 1.70649 66.2646 1.87073 66.4655C2.03498 66.6664 2.25779 66.7889 2.49563 66.8092L11.9503 67.5018C12.2132 67.5451 12.4642 67.6567 12.6848 67.8283C12.9053 68 13.0897 68.2272 13.2242 68.4932C13.4346 68.9413 13.68 69.3895 13.9371 69.8513L9.26234 71.2093V78.3663C9.26926 78.4846 9.30325 78.5986 9.36078 78.6965C9.41831 78.7944 9.4973 78.8726 9.58958 78.9232L16.6835 83.6764C16.9242 83.82 17.1887 83.9017 17.4589 83.9157C17.7292 83.9298 17.9988 83.8759 18.2496 83.7579L25.437 79.8874C25.9624 79.6485 26.5396 79.6104 27.0849 79.7788C28.9114 80.4351 30.7738 80.9478 32.6595 81.3134C32.9104 81.3781 33.1408 81.523 33.3246 81.7318C33.5083 81.9406 33.6383 82.2049 33.6997 82.4949L34.5996 87.9272C34.6625 88.2014 34.7978 88.4458 34.9865 88.6261C35.1752 88.8063 35.4077 88.9134 35.6514 88.9321H46.0761C46.3198 88.9134 46.5523 88.8063 46.741 88.6261C46.9296 88.4458 47.065 88.2014 47.1279 87.9272L48.0278 82.4949C48.0892 82.2049 48.2192 81.9406 48.4029 81.7318C48.5867 81.523 48.8171 81.3781 49.068 81.3134C50.9537 80.9478 52.8161 80.4351 54.6426 79.7788C55.1879 79.6104 55.7651 79.6485 56.2905 79.8874L63.4779 83.7579C63.7306 83.8762 64.0022 83.9301 64.2744 83.9161C64.5466 83.902 64.813 83.8203 65.0557 83.6764L72.1379 78.9232C72.2294 78.8734 72.3085 78.7974 72.3678 78.7024C72.427 78.6074 72.4646 78.4964 72.4768 78.3799V71.2093L67.4748 70.3266C67.8402 69.7584 68.1684 69.1592 68.4566 68.5339C68.5922 68.2663 68.7784 68.0381 69.0011 67.8663C69.2238 67.6946 69.4772 67.5839 69.7421 67.5425L79.1851 66.8499C79.423 66.8297 79.6458 66.7072 79.81 66.5063C79.9743 66.3054 80.0681 66.0405 80.0733 65.7635V57.0854C80.071 56.806 79.9784 56.5378 79.8139 56.334C79.6494 56.1302 79.4249 56.0058 79.1851 55.9854L69.7421 55.2927C69.4795 55.2539 69.2281 55.1455 69.0073 54.976C68.7864 54.8064 68.602 54.5803 68.4682 54.3149C67.9423 53.2013 67.2995 54.5865 66.4464 53.5408C66.3645 53.4505 66.3012 53.3399 66.2613 53.2172C66.2214 53.0945 66.206 52.9628 66.2161 52.8322C66.2262 52.7015 66.2617 52.5753 66.3197 52.4628C66.3779 52.3503 66.4571 52.2546 66.5516 52.1827L72.1613 47.4838C72.244 47.4273 72.3138 47.3484 72.3647 47.2538C72.4156 47.1592 72.446 47.0518 72.4535 46.9406V39.7835L69.7655 38.2082ZM52.8545 52.1149C59.481 56.5422 59.8667 62.1917 53.2636 66.6326C46.6605 71.0735 35.8033 71.1414 29.1885 66.6326C22.5737 62.1238 22.2816 56.4742 28.8964 52.0469C35.5111 47.6196 46.1813 47.674 52.8545 52.1149Z" fill="#641EFF"/>
<path opacity="0.3" d="M69.7655 38.2082L65.0089 39.1588C64.7653 39.0183 64.4991 38.9384 64.2274 38.9244C63.9557 38.9104 63.6845 38.9625 63.4312 39.0774L56.232 45.4195C55.9827 45.5308 55.7155 45.5776 55.4491 45.5565C55.1826 45.5354 54.9234 45.4469 54.6894 45.2973C52.8274 43.9267 50.8093 42.8661 48.694 42.1466C48.4431 42.0708 48.2148 41.9169 48.0336 41.7015C47.8524 41.4861 47.7252 41.2174 47.6655 40.9243L47.0695 37.3119C47.0065 37.0377 46.8712 36.7932 46.6826 36.613C46.4939 36.4327 46.2614 36.3257 46.0177 36.3069H35.593C35.3493 36.3257 35.1167 36.4327 34.9281 36.613C34.7394 36.7932 34.6041 37.0377 34.5411 37.3119L34.0035 40.6935C33.9388 40.9845 33.8082 41.25 33.6252 41.4626C33.4423 41.6751 33.2138 41.8269 32.9634 41.9021C30.7584 42.5101 28.6828 43.633 26.8628 45.2023C26.6494 45.3762 26.4026 45.4868 26.1439 45.5247C25.8852 45.5626 25.6225 45.5265 25.3786 45.4195L18.2028 39.0774C17.9498 38.9608 17.6784 38.9078 17.4065 38.9218C17.1345 38.9359 16.8682 39.0166 16.6251 39.1588L9.20391 39.7971V46.9406C9.20389 47.054 9.22986 47.1653 9.27916 47.2632C9.32846 47.3611 9.39929 47.4419 9.4844 47.4974L15.1058 52.1963C15.1985 52.2698 15.276 52.3662 15.3328 52.4786C15.3896 52.591 15.4243 52.7166 15.4344 52.8465C15.4444 52.9763 15.4296 53.1072 15.391 53.2296C15.3524 53.352 15.2909 53.4629 15.211 53.5544C14.4271 54.5397 13.7518 55.6346 13.2008 56.8138C13.0663 57.0797 12.8819 57.307 12.6614 57.4786C12.4408 57.6503 12.1898 57.7619 11.927 57.8052L2.48394 56.0261C2.24622 56.0498 2.02463 56.1756 1.86253 56.379C1.70043 56.5825 1.60946 56.8489 1.60742 57.1261V65.7227C1.6126 65.9998 1.70649 66.2646 1.87073 66.4655C2.03498 66.6664 2.25779 66.7889 2.49563 66.8092L11.9503 67.5018C12.2132 67.5451 12.4642 67.6567 12.6848 67.8283C12.9053 68 13.0897 68.2272 13.2242 68.4932C13.4346 68.9413 13.68 69.3895 13.9371 69.8513L9.26234 71.2093V78.3663C9.26926 78.4846 9.30325 78.5986 9.36078 78.6965C9.41831 78.7944 9.4973 78.8726 9.58958 78.9232L16.6835 83.6764C16.9242 83.82 17.1887 83.9017 17.4589 83.9157C17.7292 83.9298 17.9988 83.8759 18.2496 83.7579L25.437 79.8874C25.9624 79.6485 26.5396 79.6104 27.0849 79.7788C28.9114 80.4351 30.7738 80.9478 32.6595 81.3134C32.9104 81.3781 33.1408 81.523 33.3246 81.7318C33.5083 81.9406 33.6383 82.2049 33.6997 82.4949L34.5996 87.9272C34.6625 88.2014 34.7978 88.4458 34.9865 88.6261C35.1752 88.8063 35.4077 88.9134 35.6514 88.9321H46.0761C46.3198 88.9134 46.5523 88.8063 46.741 88.6261C46.9296 88.4458 47.065 88.2014 47.1279 87.9272L48.0278 82.4949C48.0892 82.2049 48.2192 81.9406 48.4029 81.7318C48.5867 81.523 48.8171 81.3781 49.068 81.3134C50.9537 80.9478 52.8161 80.4351 54.6426 79.7788C55.1879 79.6104 55.7651 79.6485 56.2905 79.8874L63.4779 83.7579C63.7306 83.8762 64.0022 83.9301 64.2744 83.9161C64.5466 83.902 64.813 83.8203 65.0557 83.6764L72.1379 78.9232C72.2294 78.8734 72.3085 78.7974 72.3678 78.7024C72.427 78.6074 72.4646 78.4964 72.4768 78.3799V71.2093L67.4748 70.3266C67.8402 69.7584 68.1684 69.1592 68.4566 68.5339C68.5922 68.2663 68.7784 68.0381 69.0011 67.8663C69.2238 67.6946 69.4772 67.5839 69.7421 67.5425L79.1851 66.8499C79.423 66.8297 79.6458 66.7072 79.81 66.5063C79.9743 66.3054 80.0681 66.0405 80.0733 65.7635V57.0854C80.071 56.806 79.9784 56.5378 79.8139 56.334C79.6494 56.1302 79.4249 56.0058 79.1851 55.9854L69.7421 55.2927C69.4795 55.2539 69.2281 55.1455 69.0073 54.976C68.7864 54.8064 68.602 54.5803 68.4682 54.3149C67.9423 53.2013 67.2995 54.5865 66.4464 53.5408C66.3645 53.4505 66.3012 53.3399 66.2613 53.2172C66.2214 53.0945 66.206 52.9628 66.2161 52.8322C66.2262 52.7015 66.2617 52.5753 66.3197 52.4628C66.3779 52.3503 66.4571 52.2546 66.5516 52.1827L72.1613 47.4838C72.244 47.4273 72.3138 47.3484 72.3647 47.2538C72.4156 47.1592 72.446 47.0518 72.4535 46.9406V39.7835L69.7655 38.2082ZM52.8545 52.1149C59.481 56.5422 59.8667 62.1917 53.2636 66.6326C46.6605 71.0735 35.8033 71.1414 29.1885 66.6326C22.5737 62.1238 22.2816 56.4742 28.8964 52.0469C35.5111 47.6196 46.1813 47.674 52.8545 52.1149Z" fill="white"/>
<path opacity="0.1" d="M20.1311 45.6636L18.7053 58.5924L18.2378 70.0953L10.6179 69.9867L13.9019 69.7965C13.6448 69.3484 13.3994 68.9002 13.189 68.4385C13.0546 68.1725 12.8702 67.9452 12.6496 67.7736C12.429 67.6019 12.178 67.4903 11.9152 67.447L2.46046 66.7545C2.22263 66.7342 1.99982 66.6117 1.83558 66.4108C1.67133 66.2099 1.57745 65.945 1.57227 65.668V57.0714C1.57431 56.7942 1.66527 56.5278 1.82737 56.3243C1.98948 56.1209 2.21106 55.995 2.44878 55.9714L11.9502 57.764C12.2131 57.7208 12.4641 57.6091 12.6847 57.4375C12.9052 57.2658 13.0896 57.0386 13.2241 56.7726C13.7768 55.6029 14.4519 54.5173 15.2343 53.5404C15.3142 53.4489 15.3756 53.338 15.4143 53.2156C15.4529 53.0932 15.4677 52.9624 15.4577 52.8325C15.4476 52.7027 15.4129 52.577 15.3561 52.4646C15.2993 52.3522 15.2218 52.2558 15.1291 52.1823L9.50768 47.4834C9.42258 47.4279 9.35173 47.3471 9.30243 47.2492C9.25313 47.1514 9.22716 47.04 9.22719 46.9266V39.7832L12.7333 39.4844L20.1311 45.6636Z" fill="#2A1160"/>
<path opacity="0.1" d="M50.0828 43.6404L61.945 51.5987L63.289 60.2632H57.9247C58.2754 57.4248 56.5223 54.5457 52.7942 52.1148C46.1794 47.6739 35.4508 47.6739 28.836 52.1148C24.956 54.7087 23.4717 57.7507 24.1613 60.7113H20.2695C20.2695 60.7113 22.5251 49.1677 26.3818 45.7726C30.2385 42.3774 50.0828 43.6404 50.0828 43.6404Z" fill="#2A1160"/>
<path d="M76.0284 55.7543L79.1488 55.9852C79.3886 56.0056 79.613 56.13 79.7776 56.3338C79.9421 56.5376 80.0347 56.8058 80.037 57.0852V65.6818C80.0318 65.9588 79.9379 66.2237 79.7737 66.4246C79.6094 66.6255 79.3866 66.748 79.1488 66.7682L69.7058 67.4608C69.5427 67.4816 69.3842 67.5368 69.2383 67.6238V57.2753L76.0284 55.7543Z" fill="#641EFF"/>
<path d="M26.092 79.6157C25.8468 79.6323 25.6059 79.6966 25.3791 79.8058L18.1916 83.6763C17.9867 83.7702 17.769 83.8209 17.5488 83.8257V76.0575L26.0803 70.245L26.092 79.6157Z" fill="#641EFF"/>
<path d="M46.9283 88.3073C46.8334 88.4905 46.6999 88.6427 46.5404 88.7496C46.381 88.8565 46.2008 88.9146 46.0168 88.9184H35.592C35.3633 88.9135 35.1419 88.823 34.9609 88.6604V80.1588L46.905 78.5427L46.9283 88.3073Z" fill="#641EFF"/>
<path d="M63.8984 83.8122V73.8847L70.2211 69.6475L72.4182 71.1278V78.2984C72.4059 78.4149 72.3684 78.5259 72.3091 78.6209C72.2498 78.7159 72.1707 78.7919 72.0793 78.8416L64.997 83.5949C64.6593 83.7988 64.2752 83.8748 63.8984 83.8122Z" fill="#641EFF"/>
<path d="M72.4293 39.7969C72.4302 39.9124 72.4047 40.026 72.3555 40.1262C72.3062 40.2264 72.2349 40.3096 72.1489 40.3673L66.5275 45.0663C66.4311 45.1363 66.35 45.2313 66.2905 45.3438C66.231 45.4564 66.1948 45.5834 66.1846 45.7149C66.1744 45.8465 66.1906 45.979 66.2318 46.1021C66.273 46.2251 66.3382 46.3354 66.4223 46.4243C66.9833 47.1441 68.0818 49.8874 68.8765 50.2541L72.1255 47.538C72.2083 47.4795 72.2773 47.3979 72.3263 47.3007C72.3752 47.2035 72.4026 47.0937 72.406 46.9811L72.4293 39.7969Z" fill="#641EFF"/>
<g opacity="0.7">
<path d="M76.0303 55.7542L79.1507 55.9851C79.3905 56.0055 79.615 56.13 79.7795 56.3337C79.944 56.5375 80.0366 56.8057 80.0389 57.0851V65.6817C80.0337 65.9588 79.9399 66.2236 79.7756 66.4245C79.6114 66.6254 79.3886 66.7479 79.1507 66.7681L69.7077 67.4608C69.5446 67.4815 69.3862 67.5367 69.2402 67.6237V57.2752L76.0303 55.7542Z" fill="white"/>
<path d="M69.6716 67.0668L79.1146 66.3606C79.2646 66.3504 79.4056 66.2748 79.5096 66.1489C79.6136 66.023 79.6729 65.8561 79.6756 65.6816V57.085C79.6709 56.9121 79.6129 56.747 79.512 56.6198C79.4111 56.4926 79.2742 56.4119 79.1263 56.3924L76.041 56.1615L69.5781 57.6146V67.1211L69.6716 67.0668Z" fill="white"/>
<path d="M26.092 79.6155C25.8468 79.6321 25.6059 79.6964 25.3791 79.8056L18.1916 83.6761C17.9867 83.7701 17.769 83.8207 17.5488 83.8255V76.0574L26.0803 70.2448L26.092 79.6155Z" fill="white"/>
<path d="M18.0406 83.3095L25.2281 79.439C25.3921 79.3542 25.565 79.2948 25.7423 79.2624V70.951L17.9004 76.2883V83.3638L18.0406 83.3095Z" fill="white"/>
<path d="M46.9283 88.3073C46.8334 88.4905 46.6999 88.6427 46.5404 88.7496C46.381 88.8565 46.2008 88.9146 46.0168 88.9184H35.592C35.3633 88.9135 35.1419 88.823 34.9609 88.6604V80.1588L46.905 78.5427L46.9283 88.3073Z" fill="white"/>
<path d="M63.8984 83.8119V73.8844L70.2211 69.6472L72.4182 71.1275V78.2981C72.4059 78.4146 72.3684 78.5256 72.3091 78.6206C72.2498 78.7156 72.1707 78.7916 72.0793 78.8413L64.997 83.5946C64.6593 83.7985 64.2752 83.8745 63.8984 83.8119Z" fill="white"/>
<path d="M64.8227 83.2415L71.9049 78.4882C72.0101 78.4882 72.0685 78.3389 72.0685 78.2981V71.3583L70.222 70.1225L64.25 74.1152V83.418C64.4496 83.4081 64.645 83.3478 64.8227 83.2415Z" fill="white"/>
<path d="M72.4293 39.7969C72.4302 39.9124 72.4047 40.026 72.3555 40.1262C72.3062 40.2264 72.2349 40.3096 72.1489 40.3673L66.5275 45.0663C66.4311 45.1363 66.35 45.2313 66.2905 45.3438C66.231 45.4564 66.1948 45.5834 66.1846 45.7149C66.1744 45.8465 66.1906 45.979 66.2318 46.1021C66.273 46.2251 66.3382 46.3354 66.4223 46.4243C66.9833 47.1441 68.1286 49.9417 68.8765 50.2541L72.1255 47.538C72.2083 47.4795 72.2773 47.3979 72.3263 47.3007C72.3752 47.2035 72.4026 47.0937 72.406 46.9811L72.4293 39.7969Z" fill="white"/>
<path d="M71.9275 47.1713C72.0327 47.0898 72.0677 47.0084 72.0677 46.954V46.2614V40.9106L66.7151 45.3923C66.6655 45.4295 66.6238 45.4794 66.5934 45.5383C66.563 45.5972 66.5447 45.6634 66.5398 45.7318C66.5362 45.8042 66.5458 45.8768 66.5679 45.9446C66.5901 46.0125 66.6243 46.0742 66.6684 46.1256C66.9739 46.5821 67.2512 47.0631 67.4981 47.5652C67.8682 48.3505 68.3195 49.0802 68.8421 49.7381L71.9275 47.1713Z" fill="white"/>
</g>
<path d="M63.4428 34.4053L56.2554 38.2759C55.73 38.5148 55.1528 38.5528 54.6075 38.3845C52.7775 37.7266 50.9111 37.2139 49.0212 36.8499C48.7703 36.7851 48.54 36.6402 48.3562 36.4314C48.1724 36.2227 48.0425 35.9583 47.9811 35.6683L47.0812 30.1682C47.0291 29.8898 46.8985 29.6397 46.71 29.4576C46.5215 29.2755 46.286 29.1719 46.041 29.1632H35.6046C35.3596 29.1719 35.1241 29.2755 34.9357 29.4576C34.7472 29.6397 34.6165 29.8898 34.5645 30.1682L33.6646 35.6683C33.6032 35.9583 33.4733 36.2227 33.2895 36.4314C33.1057 36.6402 32.8754 36.7851 32.6245 36.8499C30.7349 37.2155 28.8686 37.7282 27.0381 38.3845C26.4929 38.5528 25.9156 38.5148 25.3903 38.2759L18.2028 34.4053C17.9521 34.2873 17.6824 34.2335 17.4122 34.2476C17.1419 34.2616 16.8774 34.3432 16.6368 34.4868L9.54283 39.2401C9.45068 39.2885 9.37251 39.3668 9.31768 39.4656C9.26284 39.5643 9.23368 39.6794 9.23368 39.7969C9.23368 39.9144 9.26284 40.0294 9.31768 40.1282C9.37251 40.227 9.45068 40.3053 9.54283 40.3537L15.1642 45.0526C15.2569 45.1261 15.3345 45.2225 15.3913 45.3349C15.4481 45.4473 15.4828 45.573 15.4928 45.7028C15.5029 45.8326 15.4881 45.9634 15.4494 46.0858C15.4108 46.2082 15.3493 46.3192 15.2694 46.4107C14.4945 47.3945 13.82 48.4791 13.2593 49.6429C13.1261 49.9101 12.9421 50.1384 12.7213 50.3103C12.5005 50.4821 12.2487 50.593 11.9854 50.6343L2.48394 51.3812C2.24819 51.4046 2.02823 51.5286 1.86641 51.7292C1.70458 51.9297 1.61233 52.1928 1.60742 52.4677V58.6062C1.61233 58.8811 1.70458 59.1441 1.86641 59.3447C2.02823 59.5453 2.24819 59.6692 2.48394 59.6926L11.9386 60.3852C12.202 60.4266 12.4537 60.5374 12.6745 60.7093C12.8953 60.8811 13.0794 61.1094 13.2125 61.3766C13.7732 62.5404 14.4477 63.625 15.2227 64.6088C15.3026 64.7003 15.3641 64.8113 15.4027 64.9337C15.4413 65.0561 15.4561 65.1869 15.4461 65.3167C15.436 65.4466 15.4013 65.5722 15.3445 65.6846C15.2877 65.7971 15.2102 65.8934 15.1175 65.9669L9.49608 70.6658C9.40394 70.7143 9.32576 70.7925 9.27093 70.8913C9.2161 70.9901 9.18694 71.1051 9.18694 71.2226C9.18694 71.3401 9.2161 71.4552 9.27093 71.554C9.32576 71.6527 9.40394 71.731 9.49608 71.7794L16.59 76.5327C16.8307 76.6763 17.0952 76.7579 17.3654 76.772C17.6357 76.786 17.9053 76.7322 18.1561 76.6142L25.3435 72.7437C25.8689 72.5048 26.4461 72.4667 26.9914 72.635C28.8218 73.2913 30.6881 73.804 32.5777 74.1696C32.8286 74.2344 33.059 74.3793 33.2427 74.5881C33.4265 74.7969 33.5565 75.0612 33.6179 75.3512L34.5177 80.8514C34.5698 81.1297 34.7004 81.3798 34.8889 81.5619C35.0774 81.7441 35.3129 81.8477 35.5579 81.8563H45.9943C46.2393 81.8477 46.4748 81.7441 46.6633 81.5619C46.8517 81.3798 46.9824 81.1297 47.0344 80.8514L47.9343 75.3512C47.9957 75.0612 48.1257 74.7969 48.3094 74.5881C48.4932 74.3793 48.7236 74.2344 48.9745 74.1696C50.864 73.804 52.7304 73.2913 54.5608 72.635C55.1061 72.4667 55.6833 72.5048 56.2087 72.7437L63.3961 76.6142C63.6468 76.7322 63.9165 76.786 64.1868 76.772C64.457 76.7579 64.7215 76.6763 64.9622 76.5327L72.0561 71.7794C72.1482 71.731 72.2264 71.6527 72.2812 71.554C72.3361 71.4552 72.3653 71.3401 72.3653 71.2226C72.3653 71.1051 72.3361 70.9901 72.2812 70.8913C72.2264 70.7925 72.1482 70.7143 72.0561 70.6658L66.4347 65.9669C66.342 65.8934 66.2645 65.7971 66.2077 65.6846C66.1508 65.5722 66.1162 65.4466 66.1061 65.3167C66.096 65.1869 66.1109 65.0561 66.1495 64.9337C66.1881 64.8113 66.2496 64.7003 66.3295 64.6088C67.1045 63.625 67.779 62.5404 68.3397 61.3766C68.4728 61.1094 68.6569 60.8811 68.8777 60.7093C69.0985 60.5374 69.3502 60.4266 69.6135 60.3852L79.0682 59.6926C79.304 59.6692 79.524 59.5453 79.6858 59.3447C79.8476 59.1441 79.9398 58.8811 79.9448 58.6062V52.4677C79.9398 52.1928 79.8476 51.9297 79.6858 51.7292C79.524 51.5286 79.304 51.4046 79.0682 51.3812L69.6135 50.6886C69.3502 50.6473 69.0985 50.5364 68.8777 50.3646C68.6569 50.1927 68.4728 49.9645 68.3397 49.6972C67.779 48.5335 67.1045 47.4489 66.3295 46.465C66.2496 46.3735 66.1881 46.2626 66.1495 46.1402C66.1109 46.0178 66.096 45.8869 66.1061 45.7571C66.1162 45.6272 66.1508 45.5016 66.2077 45.3892C66.2645 45.2768 66.342 45.1804 66.4347 45.1069L72.0561 40.408C72.1482 40.3596 72.2264 40.2813 72.2812 40.1825C72.3361 40.0838 72.3653 39.9687 72.3653 39.8512C72.3653 39.7337 72.3361 39.6186 72.2812 39.5199C72.2264 39.4211 72.1482 39.3428 72.0561 39.2944L64.9622 34.5412C64.7311 34.3967 64.4765 34.3099 64.2149 34.2865C63.9532 34.2631 63.6902 34.3036 63.4428 34.4053ZM52.8078 47.4292C59.4226 51.8701 59.4226 59.0679 52.8078 63.5088C46.193 67.9497 35.4644 67.9497 28.8379 63.5088C22.2114 59.0679 22.2231 51.8701 28.8379 47.4292C35.4527 42.9883 46.1813 42.9883 52.8545 47.4292H52.8078Z" fill="#641EFF"/>
<g opacity="0.55">
<path d="M63.4409 34.4053L56.2535 38.2759C55.7281 38.5148 55.1508 38.5528 54.6056 38.3845C52.7755 37.7266 50.9091 37.2139 49.0193 36.8499C48.7684 36.7851 48.538 36.6402 48.3542 36.4314C48.1704 36.2227 48.0405 35.9583 47.9791 35.6683L47.0792 30.1682C47.0272 29.8898 46.8965 29.6397 46.708 29.4576C46.5196 29.2755 46.2841 29.1719 46.0391 29.1632H35.6027C35.3577 29.1719 35.1222 29.2755 34.9337 29.4576C34.7452 29.6397 34.6146 29.8898 34.5625 30.1682L33.6627 35.6683C33.6013 35.9583 33.4713 36.2227 33.2875 36.4314C33.1038 36.6402 32.8734 36.7851 32.6225 36.8499C30.7329 37.2155 28.8666 37.7282 27.0362 38.3845C26.4909 38.5528 25.9137 38.5148 25.3883 38.2759L18.2009 34.4053C17.9501 34.2873 17.6805 34.2335 17.4102 34.2476C17.1399 34.2616 16.8755 34.3432 16.6348 34.4868L9.54088 39.2401C9.44873 39.2885 9.37056 39.3668 9.31572 39.4656C9.26089 39.5643 9.23173 39.6794 9.23173 39.7969C9.23173 39.9144 9.26089 40.0294 9.31572 40.1282C9.37056 40.227 9.44873 40.3053 9.54088 40.3537L15.1623 45.0526C15.255 45.1261 15.3325 45.2225 15.3893 45.3349C15.4461 45.4473 15.4808 45.573 15.4909 45.7028C15.5009 45.8326 15.4861 45.9634 15.4475 46.0858C15.4089 46.2082 15.3474 46.3192 15.2675 46.4107C14.4925 47.3945 13.818 48.4791 13.2573 49.6429C13.1242 49.9101 12.9401 50.1384 12.7193 50.3103C12.4985 50.4821 12.2468 50.593 11.9834 50.6343L2.48199 51.3812C2.24624 51.4046 2.02628 51.5286 1.86445 51.7292C1.70263 51.9297 1.61038 52.1928 1.60547 52.4677V58.6062C1.61038 58.8811 1.70263 59.1441 1.86445 59.3447C2.02628 59.5453 2.24624 59.6692 2.48199 59.6926L11.9367 60.3852C12.2 60.4266 12.4518 60.5374 12.6726 60.7093C12.8934 60.8811 13.0774 61.1094 13.2106 61.3766C13.7713 62.5404 14.4458 63.625 15.2207 64.6088C15.3006 64.7003 15.3621 64.8113 15.4007 64.9337C15.4394 65.0561 15.4542 65.1869 15.4441 65.3167C15.4341 65.4466 15.3994 65.5722 15.3426 65.6846C15.2858 65.7971 15.2082 65.8934 15.1155 65.9669L9.49413 70.6658C9.40198 70.7143 9.32381 70.7925 9.26897 70.8913C9.21414 70.9901 9.18498 71.1051 9.18498 71.2226C9.18498 71.3401 9.21414 71.4552 9.26897 71.554C9.32381 71.6527 9.40198 71.731 9.49413 71.7794L16.5881 76.5327C16.8287 76.6763 17.0932 76.7579 17.3635 76.772C17.6337 76.786 17.9034 76.7322 18.1541 76.6142L25.3416 72.7437C25.8669 72.5048 26.4442 72.4667 26.9894 72.635C28.8199 73.2913 30.6862 73.804 32.5758 74.1696C32.8267 74.2344 33.057 74.3793 33.2408 74.5881C33.4246 74.7969 33.5545 75.0612 33.6159 75.3512L34.5158 80.8514C34.5678 81.1297 34.6985 81.3798 34.887 81.5619C35.0754 81.7441 35.3109 81.8477 35.5559 81.8563H45.9923C46.2373 81.8477 46.4728 81.7441 46.6613 81.5619C46.8498 81.3798 46.9804 81.1297 47.0325 80.8514L47.9324 75.3512C47.9938 75.0612 48.1237 74.7969 48.3075 74.5881C48.4913 74.3793 48.7216 74.2344 48.9725 74.1696C50.8621 73.804 52.7284 73.2913 54.5588 72.635C55.1041 72.4667 55.6813 72.5048 56.2067 72.7437L63.3942 76.6142C63.6449 76.7322 63.9146 76.786 64.1848 76.772C64.4551 76.7579 64.7195 76.6763 64.9602 76.5327L72.0541 71.7794C72.1463 71.731 72.2245 71.6527 72.2793 71.554C72.3341 71.4552 72.3633 71.3401 72.3633 71.2226C72.3633 71.1051 72.3341 70.9901 72.2793 70.8913C72.2245 70.7925 72.1463 70.7143 72.0541 70.6658L66.4327 65.9669C66.34 65.8934 66.2625 65.7971 66.2057 65.6846C66.1489 65.5722 66.1142 65.4466 66.1042 65.3167C66.0941 65.1869 66.1089 65.0561 66.1475 64.9337C66.1862 64.8113 66.2477 64.7003 66.3276 64.6088C67.1025 63.625 67.777 62.5404 68.3377 61.3766C68.4709 61.1094 68.6549 60.8811 68.8757 60.7093C69.0965 60.5374 69.3482 60.4266 69.6116 60.3852L79.0663 59.6926C79.302 59.6692 79.522 59.5453 79.6838 59.3447C79.8457 59.1441 79.9379 58.8811 79.9428 58.6062V52.4677C79.9379 52.1928 79.8457 51.9297 79.6838 51.7292C79.522 51.5286 79.302 51.4046 79.0663 51.3812L69.6116 50.6886C69.3482 50.6473 69.0965 50.5364 68.8757 50.3646C68.6549 50.1927 68.4709 49.9645 68.3377 49.6972C67.777 48.5335 67.1025 47.4489 66.3276 46.465C66.2477 46.3735 66.1862 46.2626 66.1475 46.1402C66.1089 46.0178 66.0941 45.8869 66.1042 45.7571C66.1142 45.6272 66.1489 45.5016 66.2057 45.3892C66.2625 45.2768 66.34 45.1804 66.4327 45.1069L72.0541 40.408C72.1463 40.3596 72.2245 40.2813 72.2793 40.1825C72.3341 40.0838 72.3633 39.9687 72.3633 39.8512C72.3633 39.7337 72.3341 39.6186 72.2793 39.5199C72.2245 39.4211 72.1463 39.3428 72.0541 39.2944L64.9602 34.5412C64.7291 34.3967 64.4746 34.3099 64.2129 34.2865C63.9513 34.2631 63.6883 34.3036 63.4409 34.4053ZM52.8058 47.4292C59.4206 51.8701 59.4206 59.0679 52.8058 63.5088C46.191 67.9497 35.4624 67.9497 28.836 63.5088C22.2095 59.0679 22.2212 51.8701 28.836 47.4292C35.4507 42.9883 46.1793 42.9883 52.8526 47.4292H52.8058Z" fill="white"/>
</g>
<g opacity="0.2">
<path d="M24.4409 51.6667C23.8538 52.8187 23.5393 54.1306 23.5293 55.4693C23.5293 58.6608 25.3525 61.635 28.6598 63.8622C35.3681 68.3574 46.272 68.3574 52.9803 63.8622C56.2877 61.635 58.1108 58.6608 58.1108 55.4693C58.1108 52.2779 56.2877 49.3037 52.9803 47.0764C46.272 42.5812 35.3681 42.5812 28.6715 47.0764C26.9378 48.1465 25.4783 49.7301 24.4409 51.6667ZM28.8351 47.4295C35.4616 42.9886 46.1785 42.9886 52.805 47.4295C59.4315 51.8704 59.4198 59.0682 52.805 63.5091C46.1902 67.95 35.4616 67.95 28.8351 63.5091C22.2087 59.0682 22.2204 51.8704 28.8351 47.4295Z" fill="white"/>
<path d="M2.48199 59.6248L11.9367 60.3174C12.2 60.3588 12.4518 60.4696 12.6726 60.6414C12.8934 60.8133 13.0774 61.0416 13.2106 61.3088C13.7713 62.4726 14.4458 63.5572 15.2207 64.541C15.3006 64.6325 15.3621 64.7435 15.4007 64.8659C15.4394 64.9883 15.4542 65.1191 15.4441 65.2489C15.4341 65.3788 15.3994 65.5044 15.3426 65.6168C15.2858 65.7292 15.2082 65.8257 15.1155 65.8991L9.49413 70.598C9.40198 70.6465 9.32381 70.7248 9.26897 70.8235C9.21414 70.9223 9.18498 71.0373 9.18498 71.1548C9.18498 71.2724 9.21414 71.3874 9.26897 71.4862C9.32381 71.5849 9.40198 71.6632 9.49413 71.7117L16.5881 76.4649C16.8287 76.6085 17.0932 76.6901 17.3635 76.7042C17.6337 76.7182 17.9034 76.6644 18.1541 76.5464L25.3416 72.6759C25.8669 72.437 26.4442 72.3989 26.9894 72.5672C28.8199 73.2236 30.6862 73.7363 32.5758 74.1019C32.8267 74.1666 33.057 74.3115 33.2408 74.5203C33.4246 74.7291 33.5545 74.9934 33.6159 75.2834L34.5158 80.7836C34.5678 81.0619 34.6985 81.312 34.887 81.4941C35.0754 81.6762 35.3109 81.7799 35.5559 81.7886H45.9923C46.2373 81.7799 46.4728 81.6762 46.6613 81.4941C46.8498 81.312 46.9804 81.0619 47.0325 80.7836L47.9324 75.2834C47.9938 74.9934 48.1237 74.7291 48.3075 74.5203C48.4913 74.3115 48.7216 74.1666 48.9725 74.1019C50.8621 73.7363 52.7284 73.2236 54.5588 72.5672C55.1041 72.3989 55.6813 72.437 56.2067 72.6759L63.3942 76.5464C63.6449 76.6644 63.9146 76.7182 64.1848 76.7042C64.4551 76.6901 64.7195 76.6085 64.9602 76.4649L72.0541 71.7117C72.1463 71.6632 72.2245 71.5849 72.2793 71.4862C72.3341 71.3874 72.3633 71.2724 72.3633 71.1548C72.3633 71.0373 72.3341 70.9223 72.2793 70.8235C72.2245 70.7248 72.1463 70.6465 72.0541 70.598L66.4327 65.8991C66.34 65.8257 66.2625 65.7292 66.2057 65.6168C66.1489 65.5044 66.1142 65.3788 66.1042 65.2489C66.0941 65.1191 66.1089 64.9883 66.1475 64.8659C66.1862 64.7435 66.2477 64.6325 66.3276 64.541C67.1025 63.5572 67.777 62.4726 68.3377 61.3088C68.4709 61.0416 68.6549 60.8133 68.8757 60.6414C69.0965 60.4696 69.3482 60.3588 69.6116 60.3174L79.0663 59.6248C79.302 59.6014 79.522 59.4775 79.6838 59.2769C79.8457 59.0763 79.9379 58.8132 79.9428 58.5384V52.3999C79.9379 52.125 79.8457 51.8619 79.6838 51.6613C79.522 51.4608 79.302 51.3369 79.0663 51.3134L69.6116 50.6208C69.3482 50.5795 69.0965 50.4686 68.8757 50.2968C68.6549 50.125 68.4709 49.8967 68.3377 49.6294C67.777 48.4656 67.1025 47.381 66.3276 46.3972C66.2477 46.3057 66.1862 46.1948 66.1475 46.0724C66.1089 45.95 66.0941 45.8192 66.1042 45.6893C66.1142 45.5595 66.1489 45.4338 66.2057 45.3214C66.2625 45.209 66.34 45.1126 66.4327 45.0391L72.0541 40.3402C72.1463 40.2918 72.2245 40.2135 72.2793 40.1147C72.3341 40.016 72.3633 39.9009 72.3633 39.7834C72.3633 39.6659 72.3341 39.5508 72.2793 39.4521C72.2245 39.3533 72.1463 39.275 72.0541 39.2266L64.9602 34.4733C64.7195 34.3297 64.4551 34.2481 64.1848 34.2341C63.9146 34.22 63.6449 34.2738 63.3942 34.3919L56.2067 38.2624C55.6813 38.5013 55.1041 38.5393 54.5588 38.371C52.7288 37.7132 50.8624 37.2005 48.9725 36.8364C48.7216 36.7717 48.4913 36.6267 48.3075 36.4179C48.1237 36.2092 47.9938 35.9449 47.9324 35.6549L47.0325 30.1547C46.9804 29.8763 46.8498 29.6262 46.6613 29.4441C46.4728 29.262 46.2373 29.1584 45.9923 29.1497H35.5559C35.3109 29.1584 35.0754 29.262 34.887 29.4441C34.6985 29.6262 34.5678 29.8763 34.5158 30.1547L33.6159 35.6549C33.5545 35.9449 33.4246 36.2092 33.2408 36.4179C33.057 36.6267 32.8267 36.7717 32.5758 36.8364C30.6862 37.202 28.8199 37.7147 26.9894 38.371C26.4442 38.5393 25.8669 38.5013 25.3416 38.2624L18.1541 34.3919C17.9034 34.2738 17.6337 34.22 17.3635 34.2341C17.0932 34.2481 16.8287 34.3297 16.5881 34.4733L9.49413 39.2266C9.40198 39.275 9.32381 39.3533 9.26897 39.4521C9.21414 39.5508 9.18498 39.6659 9.18498 39.7834C9.18498 39.9009 9.21414 40.016 9.26897 40.1147C9.32381 40.2135 9.40198 40.2918 9.49413 40.3402L15.1155 45.0391C15.2082 45.1126 15.2858 45.209 15.3426 45.3214C15.3994 45.4338 15.4341 45.5595 15.4441 45.6893C15.4542 45.8192 15.4394 45.95 15.4007 46.0724C15.3621 46.1948 15.3006 46.3057 15.2207 46.3972C14.4458 47.381 13.7713 48.4656 13.2106 49.6294C13.0774 49.8967 12.8934 50.125 12.6726 50.2968C12.4518 50.4686 12.2 50.5795 11.9367 50.6208L2.48199 51.3813C2.24624 51.4047 2.02628 51.5287 1.86445 51.7293C1.70263 51.9298 1.61038 52.1929 1.60547 52.4678V58.6063C1.62408 58.8692 1.72241 59.1159 1.88293 59.3024C2.04345 59.4889 2.25574 59.6032 2.48199 59.6248ZM1.95607 58.5384V52.3999C1.95852 52.2276 2.01617 52.0625 2.11774 51.9369C2.21931 51.8114 2.35751 51.7343 2.50536 51.7208L11.9601 51.0147C12.2816 50.9707 12.5897 50.8396 12.8596 50.632C13.1296 50.4245 13.3539 50.1462 13.5144 49.8196C14.051 48.6834 14.7023 47.6257 15.4545 46.6688C15.5637 46.5305 15.6472 46.3674 15.6995 46.1898C15.7518 46.0121 15.7718 45.8238 15.7583 45.6367C15.7425 45.4545 15.6925 45.2785 15.6117 45.1213C15.5309 44.9641 15.4214 44.8294 15.2908 44.7268L9.68112 40.0279C9.58762 39.96 9.52919 39.8649 9.54088 39.797C9.55257 39.7291 9.59931 39.6612 9.69281 39.5933L16.7868 34.84C16.9798 34.7286 17.1906 34.665 17.4059 34.6533C17.6211 34.6416 17.8362 34.6821 18.0373 34.7721L25.2247 38.6426C25.8279 38.9178 26.4903 38.9653 27.118 38.7784C28.9323 38.1209 30.7831 37.6081 32.6576 37.2438C32.9777 37.1679 33.2723 36.9867 33.5064 36.7219C33.7405 36.4571 33.9042 36.1197 33.9782 35.7499L34.8781 30.2498C34.9137 30.0611 35.0015 29.8911 35.1282 29.766C35.2548 29.6409 35.4133 29.5675 35.5793 29.5571H46.0157C46.1817 29.5675 46.3402 29.6409 46.4669 29.766C46.5935 29.8911 46.6814 30.0611 46.7169 30.2498L47.6168 35.7499C47.6908 36.1197 47.8545 36.4571 48.0886 36.7219C48.3227 36.9867 48.6173 37.1679 48.9374 37.2438C50.8119 37.6081 52.6627 38.1209 54.477 38.7784C55.1041 38.973 55.7686 38.9253 56.3703 38.6426L63.5578 34.7721C63.7589 34.6821 63.9739 34.6416 64.1892 34.6533C64.4044 34.665 64.6153 34.7286 64.8083 34.84L71.9022 39.5933C71.9957 39.6612 72.0541 39.7427 72.0541 39.797C72.0541 39.8513 72.0542 39.96 71.9256 40.0279L66.3042 44.7268C66.1725 44.8322 66.0622 44.9698 65.981 45.1298C65.8998 45.2899 65.8497 45.4687 65.8341 45.6536C65.8186 45.8386 65.8379 46.0252 65.8908 46.2006C65.9437 46.3759 66.029 46.5357 66.1406 46.6688C66.9009 47.6242 67.5601 48.682 68.104 49.8196C68.2645 50.1462 68.4888 50.4245 68.7588 50.632C69.0287 50.8396 69.3369 50.9707 69.6583 51.0147L79.113 51.7208C79.2609 51.7343 79.3991 51.8114 79.5007 51.9369C79.6022 52.0625 79.6599 52.2276 79.6623 52.3999V58.5384C79.6626 58.7116 79.6059 58.8784 79.5038 59.0046C79.4016 59.1309 79.2619 59.207 79.113 59.2174L69.6583 59.9236C69.3366 59.9665 69.0281 60.0971 68.758 60.3048C68.4879 60.5125 68.2638 60.7914 68.104 61.1187C67.5601 62.2563 66.9009 63.314 66.1406 64.2694C66.0313 64.4077 65.9478 64.5708 65.8955 64.7485C65.8432 64.9261 65.8232 65.1145 65.8367 65.3016C65.8525 65.4838 65.9025 65.6597 65.9833 65.817C66.0641 65.9742 66.1736 66.1089 66.3042 66.2115L71.9139 70.9104C72.0074 70.9783 72.0658 71.0733 72.0541 71.1412C72.0424 71.2091 72.0542 71.2771 71.9022 71.345L64.8083 76.0982C64.6153 76.2097 64.4044 76.2733 64.1892 76.285C63.9739 76.2966 63.7589 76.2562 63.5578 76.1661L56.3586 72.2956C55.7569 72.0129 55.0924 71.9652 54.4653 72.1598C52.6507 72.8159 50.7999 73.3286 48.9258 73.6944C48.6068 73.7734 48.3136 73.9556 48.08 74.2199C47.8463 74.4843 47.6817 74.82 47.6051 75.1883L46.7052 80.7021C46.6675 80.8883 46.5787 81.0552 46.4522 81.1776C46.3257 81.3001 46.1684 81.3715 46.004 81.3811H35.5676C35.4032 81.3715 35.2459 81.3001 35.1195 81.1776C34.993 81.0552 34.9042 80.8883 34.8664 80.7021L33.9665 75.1883C33.8926 74.8185 33.7288 74.4812 33.4947 74.2163C33.2606 73.9515 32.966 73.7704 32.6459 73.6944C30.7835 73.3268 28.9445 72.8141 27.1414 72.1598C26.5143 71.9652 25.8498 72.0129 25.2481 72.2956L18.0606 76.1661C17.8595 76.2562 17.6445 76.2966 17.4292 76.285C17.214 76.2733 17.0031 76.2097 16.8101 76.0982L9.71618 71.345C9.62268 71.2771 9.56425 71.2091 9.56425 71.1412C9.56425 71.0733 9.56425 70.9783 9.7045 70.9104L15.3142 66.2115C15.4505 66.0991 15.5657 65.9559 15.6531 65.7904C15.7255 65.64 15.7693 65.4733 15.7817 65.3016C15.7952 65.1145 15.7752 64.9261 15.7229 64.7485C15.6706 64.5708 15.5871 64.4077 15.4778 64.2694C14.7174 63.314 14.0583 62.2563 13.5144 61.1187C13.3539 60.7921 13.1296 60.5138 12.8596 60.3062C12.5897 60.0986 12.2816 59.9676 11.9601 59.9236L2.50536 59.2174C2.35751 59.2039 2.21931 59.1269 2.11774 59.0013C2.01617 58.8757 1.95852 58.7107 1.95607 58.5384Z" fill="white"/>
</g>
<path d="M129.883 11.3454L125.71 13.3554C125.24 13.1308 124.721 13.0833 124.226 13.2196L119.154 15.0666C118.437 15.2789 117.68 15.2218 116.992 14.9036C116.106 14.464 115.201 14.0787 114.281 13.7492C113.976 13.6321 113.714 13.4001 113.536 13.09C113.358 12.7799 113.275 12.4097 113.299 12.0381L113.603 9.15895C113.632 8.80693 113.543 8.45531 113.353 8.17886C113.163 7.9024 112.888 7.72294 112.586 7.67866L106.065 6.89095C105.727 6.86732 105.39 6.95402 105.093 7.14124C104.796 7.32845 104.549 7.6087 104.382 7.95025L103.108 10.8429C102.816 11.5084 101.939 11.3998 101.238 11.4541C100.069 11.5492 99.1576 12.3912 98.0474 12.6085C97.3152 12.7216 96.5713 12.5496 95.9321 12.1195L92.426 9.40339C92.1215 9.1906 91.7803 9.05838 91.4268 9.01613C91.0734 8.97388 90.7162 9.02265 90.3808 9.15895L88.6979 9.94661L84.6308 6.11688V12.3912C84.6371 12.6518 84.7291 12.8996 84.8879 13.0838L87.2253 16.0036C87.3283 16.1247 87.4072 16.2704 87.4566 16.4306C87.506 16.5908 87.5246 16.7616 87.5113 16.9311C87.4979 17.1005 87.4528 17.2645 87.3792 17.4117C87.3056 17.5588 87.2052 17.6854 87.0851 17.7827C86.5784 18.2337 86.1018 18.7286 85.6593 19.263C85.1397 19.8459 84.4527 20.1846 83.7309 20.2136L78.951 19.426L75.3047 18.679V24.9397C75.311 25.2075 75.3991 25.4639 75.5533 25.6629C75.7075 25.862 75.9177 25.9908 76.1461 26.0262L81.8143 27.1534C82.1495 27.2394 82.4586 27.4285 82.7094 27.7008C82.9602 27.9732 83.1435 28.3188 83.2401 28.7016C83.3566 29.1655 83.5011 29.6193 83.6725 30.0596C83.8066 30.3727 83.8316 30.7337 83.7423 31.0677C83.6531 31.4016 83.4565 31.6826 83.1933 31.8523L78.5186 28.8102V35.0845C78.5249 35.2192 78.5576 35.3505 78.6143 35.4682C78.6711 35.5859 78.7502 35.687 78.8458 35.7636L82.1649 38.9958C82.4474 39.2407 82.7739 39.4083 83.1199 39.4859C83.466 39.5635 83.8227 39.5491 84.1633 39.4439L89.2472 37.597C89.9618 37.3991 90.7111 37.4559 91.3975 37.7599C92.2843 38.2122 93.1936 38.6022 94.1206 38.9278C94.3837 39.0292 94.6153 39.2181 94.7868 39.4711V43.6947C94.7982 44.0145 94.9065 44.3193 95.0926 44.5554C95.2786 44.7914 95.5304 44.9435 95.8035 44.9849L102.313 45.7725C102.651 45.7978 102.988 45.7118 103.286 45.5244C103.583 45.337 103.83 45.0559 103.996 44.7132L105.305 41.7798C105.485 41.4324 105.729 41.1363 106.021 40.913C106.312 40.6898 106.642 40.5451 106.988 40.4897C108.157 40.3946 109.255 40.2316 110.365 40.0143C111.094 39.8925 111.837 40.0651 112.469 40.5032L115.975 43.2194C116.282 43.4254 116.623 43.5537 116.975 43.5958C117.328 43.6379 117.684 43.593 118.02 43.4638L123.244 41.0329C123.393 40.9782 123.524 40.8724 123.62 40.7293C123.716 40.5862 123.773 40.4127 123.782 40.2316V33.9845C123.407 33.7858 123.015 33.6311 122.613 33.5227L122.742 33.3733C123.261 32.7904 123.948 32.4517 124.67 32.4227L130.63 32.6943C130.96 32.6972 131.282 32.5811 131.552 32.3622C131.822 32.1432 132.027 31.8322 132.138 31.472L133.038 28.1176C133.055 27.9916 133.055 27.8633 133.038 27.7374V21.5038L126.528 25.4694C126.202 25.3707 125.903 25.1766 125.66 24.9056C125.416 24.6346 125.236 24.2957 125.138 23.9212C125.027 23.4567 124.887 23.0028 124.717 22.5631C124.583 22.2501 124.558 21.889 124.647 21.5551C124.736 21.2212 124.933 20.9401 125.196 20.7704L129.38 18.3259C129.513 18.2655 129.628 18.1614 129.711 18.0264C129.794 17.8914 129.841 17.7312 129.847 17.5654L129.883 11.3454ZM114.432 21.5038C118.348 25.2928 116.676 29.3399 111.02 31.961C105.363 34.5821 97.8721 34.8265 93.957 31.0375C90.0419 27.2484 91.4326 22.0335 97.0891 19.3988C102.746 16.7642 110.506 17.7284 114.432 21.5038Z" fill="#641EFF"/>
<path opacity="0.3" d="M129.883 11.3454L125.71 13.3554C125.24 13.1308 124.721 13.0833 124.226 13.2196L119.154 15.0666C118.437 15.2789 117.68 15.2218 116.992 14.9036C116.106 14.464 115.201 14.0787 114.281 13.7492C113.976 13.6321 113.714 13.4001 113.536 13.09C113.358 12.7799 113.275 12.4097 113.299 12.0381L113.603 9.15895C113.632 8.80693 113.543 8.45531 113.353 8.17886C113.163 7.9024 112.888 7.72294 112.586 7.67866L106.065 6.89095C105.727 6.86732 105.39 6.95402 105.093 7.14124C104.796 7.32845 104.549 7.6087 104.382 7.95025L103.108 10.8429C102.816 11.5084 101.939 11.3998 101.238 11.4541C100.069 11.5492 99.1576 12.3912 98.0474 12.6085C97.3152 12.7216 96.5713 12.5496 95.9321 12.1195L92.426 9.40339C92.1215 9.1906 91.7803 9.05838 91.4268 9.01613C91.0734 8.97388 90.7162 9.02265 90.3808 9.15895L88.6979 9.94661L84.6308 6.11688V12.3912C84.6371 12.6518 84.7291 12.8996 84.8879 13.0838L87.2253 16.0036C87.3283 16.1247 87.4072 16.2704 87.4566 16.4306C87.506 16.5908 87.5246 16.7616 87.5113 16.9311C87.4979 17.1005 87.4528 17.2645 87.3792 17.4117C87.3056 17.5588 87.2052 17.6854 87.0851 17.7827C86.5784 18.2337 86.1018 18.7286 85.6593 19.263C85.1397 19.8459 84.4527 20.1846 83.7309 20.2136L78.951 19.426L75.3047 18.679V24.9397C75.311 25.2075 75.3991 25.4639 75.5533 25.6629C75.7075 25.862 75.9177 25.9908 76.1461 26.0262L81.8143 27.1534C82.1495 27.2394 82.4586 27.4285 82.7094 27.7008C82.9602 27.9732 83.1435 28.3188 83.2401 28.7016C83.3566 29.1655 83.5011 29.6193 83.6725 30.0596C83.8066 30.3727 83.8316 30.7337 83.7423 31.0677C83.6531 31.4016 83.4565 31.6826 83.1933 31.8523L78.5186 28.8102V35.0845C78.5249 35.2192 78.5576 35.3505 78.6143 35.4682C78.6711 35.5859 78.7502 35.687 78.8458 35.7636L82.1649 38.9958C82.4474 39.2407 82.7739 39.4083 83.1199 39.4859C83.466 39.5635 83.8227 39.5491 84.1633 39.4439L89.2472 37.597C89.9618 37.3991 90.7111 37.4559 91.3975 37.7599C92.2843 38.2122 93.1936 38.6022 94.1206 38.9278C94.3837 39.0292 94.6153 39.2181 94.7868 39.4711V43.6947C94.7982 44.0145 94.9065 44.3193 95.0926 44.5554C95.2786 44.7914 95.5304 44.9435 95.8035 44.9849L102.313 45.7725C102.651 45.7978 102.988 45.7118 103.286 45.5244C103.583 45.337 103.83 45.0559 103.996 44.7132L105.305 41.7798C105.485 41.4324 105.729 41.1363 106.021 40.913C106.312 40.6898 106.642 40.5451 106.988 40.4897C108.157 40.3946 109.255 40.2316 110.365 40.0143C111.094 39.8925 111.837 40.0651 112.469 40.5032L115.975 43.2194C116.282 43.4254 116.623 43.5537 116.975 43.5958C117.328 43.6379 117.684 43.593 118.02 43.4638L123.244 41.0329C123.393 40.9782 123.524 40.8724 123.62 40.7293C123.716 40.5862 123.773 40.4127 123.782 40.2316V33.9845C123.407 33.7858 123.015 33.6311 122.613 33.5227L122.742 33.3733C123.261 32.7904 123.948 32.4517 124.67 32.4227L130.63 32.6943C130.96 32.6972 131.282 32.5811 131.552 32.3622C131.822 32.1432 132.027 31.8322 132.138 31.472L133.038 28.1176C133.055 27.9916 133.055 27.8633 133.038 27.7374V21.5038L126.528 25.4694C126.202 25.3707 125.903 25.1766 125.66 24.9056C125.416 24.6346 125.236 24.2957 125.138 23.9212C125.027 23.4567 124.887 23.0028 124.717 22.5631C124.583 22.2501 124.558 21.889 124.647 21.5551C124.736 21.2212 124.933 20.9401 125.196 20.7704L129.38 18.3259C129.513 18.2655 129.628 18.1614 129.711 18.0264C129.794 17.8914 129.841 17.7312 129.847 17.5654L129.883 11.3454ZM114.432 21.5038C118.348 25.2928 116.676 29.3399 111.02 31.961C105.363 34.5821 97.8721 34.8265 93.957 31.0375C90.0419 27.2484 91.4326 22.0335 97.0891 19.3988C102.746 16.7642 110.506 17.7284 114.432 21.5038Z" fill="white"/>
<path opacity="0.1" d="M119.563 17.8368L119.108 25.2655L116.536 25.3469C116.289 23.8015 115.535 22.4282 114.433 21.5172C110.506 17.7282 102.746 16.7775 97.0894 19.4122C93.7002 20.9875 91.8536 23.4864 91.7485 26.0532H90.7668C90.7668 26.0532 88.0788 19.8332 90.9304 16.275C92.4537 14.542 94.2623 13.184 96.2479 12.2823C96.8062 12.5656 97.4198 12.6688 98.0243 12.5811C99.1346 12.3638 100.081 11.5218 101.215 11.4267C101.858 11.4267 102.793 11.4267 103.085 10.8156L103.283 10.3674C104.154 10.3202 105.027 10.3703 105.89 10.5168C111.125 11.5082 119.563 17.8368 119.563 17.8368Z" fill="#2A1160"/>
<path d="M89.1762 37.5562L84.1509 39.376C83.739 39.5178 83.3005 39.5178 82.8887 39.376V31.6621L83.1575 31.8387C83.4206 31.669 83.6172 31.3879 83.7065 31.054C83.7957 30.7201 83.7707 30.3591 83.6366 30.046L89.1762 26.3249V37.5562Z" fill="#641EFF"/>
<path d="M103.434 33.8894C104.244 33.8415 105.052 33.7463 105.854 33.6042V41.0057C105.626 41.1939 105.438 41.4401 105.304 41.7255L103.995 44.6589C103.787 45.0986 103.446 45.4326 103.037 45.596V34.2018L103.434 33.8894Z" fill="#641EFF"/>
<path d="M129.895 11.3453C129.883 11.5094 129.832 11.6663 129.747 11.7982C129.662 11.9302 129.548 12.0321 129.416 12.0923L125.232 14.5368C124.972 14.7063 124.777 14.985 124.688 15.3157C124.599 15.6465 124.622 16.0043 124.753 16.3159C124.927 16.7532 125.068 17.2077 125.173 17.674C125.272 18.0472 125.452 18.3846 125.695 18.6535C125.939 18.9223 126.238 19.1135 126.564 19.2086L127.616 19.4259L129.404 18.3802C129.538 18.3153 129.653 18.2086 129.738 18.0719C129.823 17.9352 129.873 17.774 129.883 17.6061L129.895 11.3453Z" fill="#641EFF"/>
<path d="M125.102 23.6497C125.132 23.7188 125.156 23.7917 125.172 23.8669C125.271 24.2415 125.451 24.5804 125.694 24.8514C125.937 25.1224 126.236 25.3165 126.563 25.4152L133.072 21.4496V27.6696C133.089 27.7956 133.089 27.9239 133.072 28.0498L132.172 31.4043C132.061 31.7644 131.856 32.0754 131.586 32.2943C131.316 32.5133 130.994 32.6294 130.665 32.6265L124.704 32.3549C124.384 32.3573 124.066 32.4311 123.77 32.5722V24.2201L125.102 23.6497Z" fill="#641EFF"/>
<path d="M116.652 43.45V35.7362L122.776 33.4954C123.119 33.6097 123.455 33.7504 123.781 33.9164V40.1635C123.772 40.3446 123.716 40.5181 123.62 40.6612C123.524 40.8043 123.393 40.9101 123.244 40.9648L118.02 43.3957C117.578 43.5648 117.103 43.5837 116.652 43.45Z" fill="#641EFF"/>
<g opacity="0.7">
<path d="M89.1762 37.5562L84.1509 39.376C83.739 39.5178 83.3005 39.5178 82.8887 39.376V31.6621L83.1575 31.8387C83.4206 31.669 83.6172 31.3879 83.7065 31.054C83.7957 30.7201 83.7707 30.3591 83.6366 30.046L89.1762 26.3249V37.5562Z" fill="white"/>
<path d="M83.3672 32.2733V38.9143C83.5905 38.9709 83.8217 38.9709 84.045 38.9143L88.7198 37.2031V27.2349L84.1853 30.2769C84.2711 30.7393 84.2088 31.2222 84.01 31.635C83.8484 31.9104 83.6265 32.1307 83.3672 32.2733Z" fill="white"/>
<path d="M103.434 33.8892C104.244 33.8412 105.052 33.7461 105.854 33.604V41.0055C105.626 41.1936 105.438 41.4399 105.304 41.7253L103.995 44.6587C103.787 45.0983 103.446 45.4323 103.037 45.5958V34.2016L103.434 33.8892Z" fill="white"/>
<path d="M103.597 44.4141L104.895 41.4807C105.022 41.2024 105.192 40.9539 105.397 40.7473V34.215C104.789 34.31 104.229 34.378 103.586 34.4051L103.504 34.4866V44.5907C103.542 44.5369 103.573 44.4775 103.597 44.4141Z" fill="white"/>
<path d="M129.891 11.3453C129.879 11.5093 129.828 11.6662 129.743 11.7982C129.658 11.9302 129.544 12.032 129.412 12.0922L125.228 14.5368C124.968 14.7063 124.773 14.9849 124.684 15.3157C124.595 15.6464 124.618 16.0042 124.749 16.3158C124.923 16.7532 125.064 17.2076 125.17 17.6739C125.268 18.0472 125.448 18.3846 125.691 18.6534C125.935 18.9223 126.234 19.1135 126.56 19.2085L127.612 19.4258L129.4 18.3801C129.534 18.3152 129.649 18.2085 129.734 18.0718C129.819 17.9352 129.869 17.7739 129.879 17.606L129.891 11.3453Z" fill="white"/>
<path d="M129.19 17.8641C129.342 17.7826 129.424 17.6604 129.424 17.5789V16.6418V12.6627L125.416 14.9985C125.255 15.1042 125.138 15.2788 125.087 15.4846C125.037 15.6904 125.058 15.9109 125.147 16.0986C125.332 16.5351 125.485 16.9895 125.603 17.4566C125.674 17.7351 125.804 17.9881 125.982 18.1923C126.16 18.3964 126.379 18.5452 126.619 18.6246L127.531 18.8012L129.19 17.8641Z" fill="white"/>
<path d="M125.1 23.6493C125.13 23.7184 125.154 23.7913 125.17 23.8666C125.269 24.2411 125.449 24.58 125.692 24.851C125.935 25.122 126.235 25.3161 126.561 25.4148L133.07 21.4492V27.6692C133.087 27.7952 133.087 27.9235 133.07 28.0495L132.17 31.4039C132.059 31.764 131.854 32.075 131.584 32.294C131.314 32.5129 130.992 32.629 130.663 32.6262L124.703 32.3545C124.382 32.357 124.064 32.4307 123.768 32.5718V24.2197L125.1 23.6493Z" fill="white"/>
<path d="M124.667 31.8249L130.627 32.0965C130.855 32.0888 131.076 32.0036 131.263 31.8516C131.45 31.6996 131.594 31.4873 131.679 31.241L132.59 27.9001C132.597 27.8233 132.597 27.746 132.59 27.6692V22.3184L126.607 25.958H126.455C126.087 25.8608 125.746 25.6619 125.459 25.3781C125.172 25.0944 124.948 24.7342 124.807 24.3283L124.152 24.5864V31.8928C124.321 31.849 124.494 31.8262 124.667 31.8249Z" fill="white"/>
<path d="M116.65 43.4502V35.7364L122.774 33.4955C123.117 33.6099 123.453 33.7506 123.779 33.9166V40.1637C123.77 40.3448 123.714 40.5183 123.618 40.6614C123.522 40.8045 123.391 40.9103 123.242 40.9649L118.018 43.3959C117.576 43.565 117.101 43.5839 116.65 43.4502Z" fill="white"/>
<path d="M117.855 42.9067L123.068 40.4758C123.161 40.4758 123.325 40.3264 123.325 40.1634V38.914V34.2694L122.776 34.0521L117.131 36.1299V43.0017C117.375 43.026 117.622 42.9937 117.855 42.9067Z" fill="white"/>
</g>
<path d="M124.227 6.9451L119.154 8.7921C118.436 8.9962 117.682 8.93928 116.992 8.62909C116.107 8.18498 115.202 7.79515 114.281 7.46117C113.974 7.34829 113.71 7.1172 113.531 6.80609C113.353 6.49498 113.271 6.12244 113.299 5.74999L113.603 2.87088C113.633 2.51886 113.543 2.16724 113.353 1.89079C113.164 1.61434 112.888 1.43488 112.586 1.39059L106.065 0.602886C105.728 0.582391 105.392 0.670456 105.095 0.857358C104.798 1.04426 104.552 1.32279 104.382 1.66222L103.108 4.60921C102.927 4.95405 102.682 5.24757 102.391 5.46841C102.1 5.68925 101.77 5.83185 101.425 5.8858C100.293 5.97928 99.1655 6.14246 98.0479 6.37469C97.3159 6.48075 96.5739 6.30929 95.9326 5.8858L92.4265 3.16966C92.12 2.96282 91.7791 2.83407 91.4265 2.79193C91.0739 2.74979 90.7176 2.79522 90.3813 2.92522L85.1689 5.35613C85.0393 5.39716 84.9218 5.47866 84.8291 5.59175C84.7365 5.70484 84.6722 5.84522 84.6433 5.9977C84.6144 6.15019 84.622 6.30894 84.6652 6.45679C84.7084 6.60464 84.7856 6.73596 84.8884 6.83647L87.2258 9.76987C87.3286 9.88968 87.4074 10.0343 87.4567 10.1934C87.5061 10.3526 87.5247 10.5223 87.5113 10.6908C87.4979 10.8592 87.4529 11.0221 87.3793 11.1681C87.3057 11.314 87.2054 11.4394 87.0856 11.5354C86.5817 11.9903 86.1053 12.4849 85.6598 13.0157C85.1434 13.6042 84.4545 13.9439 83.7314 13.9663L77.7711 13.6947C77.4404 13.6928 77.1174 13.8109 76.8472 14.0324C76.577 14.2539 76.3729 14.5679 76.2635 14.9306L75.3636 18.2714C75.3156 18.432 75.2987 18.6029 75.3141 18.772C75.3296 18.941 75.3769 19.104 75.4529 19.2493C75.5288 19.3946 75.6314 19.5186 75.7533 19.6125C75.8753 19.7064 76.0136 19.7679 76.1583 19.7924L81.8265 20.9197C82.1581 21.0067 82.4639 21.1947 82.7124 21.4644C82.9609 21.7341 83.1432 22.0757 83.2406 22.4543C83.3554 22.9189 83.5 23.3728 83.673 23.8124C83.8036 24.124 83.8267 24.4818 83.7376 24.8125C83.6485 25.1433 83.454 25.4219 83.1938 25.5914L79.0099 28.0359C78.8837 28.0858 78.7724 28.1763 78.6889 28.297C78.6054 28.4177 78.5533 28.5636 78.5386 28.7175C78.5238 28.8714 78.5472 29.027 78.6058 29.1661C78.6645 29.3051 78.756 29.4219 78.8697 29.5027L82.2004 32.7213C82.482 32.9686 82.808 33.1385 83.1541 33.2185C83.5002 33.2985 83.8574 33.2864 84.1989 33.183L89.271 31.336C89.9848 31.1267 90.7371 31.1837 91.4214 31.499C92.311 31.9431 93.2199 32.333 94.1445 32.667C94.4501 32.782 94.7133 33.0135 94.8914 33.3241C95.0696 33.6347 95.1523 34.0061 95.1262 34.3782L94.8223 37.2573C94.7957 37.6071 94.8868 37.9552 95.0763 38.2287C95.2659 38.5022 95.5393 38.6797 95.8391 38.724L102.36 39.5252C102.697 39.5427 103.032 39.4533 103.328 39.2667C103.625 39.0801 103.872 38.8033 104.043 38.4659L105.341 35.5189C105.518 35.1701 105.762 34.8735 106.054 34.6521C106.345 34.4307 106.677 34.2905 107.023 34.2423C108.156 34.148 109.283 33.9848 110.401 33.7534C111.129 33.6454 111.868 33.8171 112.505 34.2423L116.011 36.9585C116.317 37.1645 116.658 37.2928 117.011 37.3349C117.363 37.3771 117.719 37.3321 118.056 37.2029L123.28 34.772C123.41 34.7309 123.527 34.6495 123.62 34.5364C123.712 34.4233 123.777 34.2829 123.806 34.1304C123.834 33.9779 123.827 33.8192 123.784 33.6713C123.74 33.5235 123.663 33.3922 123.56 33.2917L121.223 30.3582C121.123 30.2364 121.046 30.0908 120.999 29.9314C120.952 29.772 120.935 29.6026 120.949 29.4349C120.964 29.2671 121.009 29.105 121.083 28.9596C121.156 28.8143 121.256 28.6891 121.375 28.5928C121.876 28.1343 122.353 27.64 122.801 27.1125C123.316 26.5201 124.005 26.1757 124.729 26.1482L130.689 26.4334C131.02 26.4333 131.342 26.3145 131.612 26.0932C131.882 25.872 132.086 25.5591 132.197 25.1976L133.097 21.8567C133.145 21.6962 133.162 21.5252 133.146 21.3562C133.131 21.1871 133.084 21.0241 133.008 20.8788C132.932 20.7335 132.829 20.6095 132.707 20.5156C132.585 20.4217 132.447 20.3603 132.302 20.3357L126.634 19.2085C126.308 19.1134 126.009 18.9222 125.765 18.6534C125.522 18.3845 125.342 18.0471 125.243 17.6739C125.138 17.2076 124.997 16.7531 124.823 16.3158C124.692 16.0042 124.669 15.6464 124.758 15.3156C124.847 14.9849 125.042 14.7062 125.302 14.5367L129.486 12.0922C129.612 12.0424 129.723 11.9518 129.807 11.8311C129.89 11.7104 129.942 11.5645 129.957 11.4106C129.972 11.2567 129.948 11.1011 129.89 10.9621C129.831 10.823 129.74 10.7062 129.626 10.6255L126.295 7.40684C126.005 7.14712 125.667 6.97005 125.308 6.88985C124.949 6.80965 124.578 6.82857 124.227 6.9451ZM114.433 15.2837C118.36 19.0727 116.946 24.2741 111.301 26.9088C105.656 29.5434 97.8726 28.6063 93.9575 24.8037C90.0424 21.0011 91.4331 15.7997 97.0896 13.1786C102.746 10.5576 110.506 11.4811 114.433 15.2837Z" fill="#641EFF"/>
<g opacity="0.55">
<path d="M124.227 6.94516L119.154 8.79216C118.436 8.99626 117.682 8.93934 116.992 8.62915C116.107 8.18504 115.202 7.79521 114.281 7.46123C113.974 7.34835 113.71 7.11726 113.531 6.80615C113.353 6.49504 113.271 6.1225 113.299 5.75005L113.603 2.87094C113.633 2.51893 113.543 2.1673 113.353 1.89085C113.164 1.6144 112.888 1.43494 112.586 1.39065L106.065 0.602947C105.728 0.582452 105.392 0.670517 105.095 0.857419C104.798 1.04432 104.552 1.32285 104.382 1.66228L103.108 4.60927C102.927 4.95411 102.682 5.24763 102.391 5.46847C102.1 5.68931 101.77 5.83192 101.425 5.88586C100.293 5.97934 99.1655 6.14252 98.0479 6.37475C97.3159 6.48081 96.5739 6.30935 95.9326 5.88586L92.4265 3.16972C92.12 2.96289 91.7791 2.83414 91.4265 2.79199C91.0739 2.74985 90.7176 2.79528 90.3813 2.92528L85.1689 5.3562C85.0393 5.39722 84.9218 5.47872 84.8291 5.59181C84.7365 5.7049 84.6722 5.84528 84.6433 5.99777C84.6144 6.15025 84.622 6.309 84.6652 6.45685C84.7084 6.6047 84.7856 6.73602 84.8884 6.83653L87.2258 9.76993C87.3286 9.88975 87.4074 10.0344 87.4567 10.1935C87.5061 10.3526 87.5247 10.5224 87.5113 10.6908C87.4979 10.8593 87.4529 11.0222 87.3793 11.1682C87.3057 11.3141 87.2054 11.4395 87.0856 11.5354C86.5817 11.9904 86.1053 12.4849 85.6598 13.0157C85.1434 13.6043 84.4545 13.9439 83.7314 13.9664L77.7711 13.6948C77.4404 13.6929 77.1174 13.8109 76.8472 14.0325C76.577 14.254 76.3729 14.568 76.2635 14.9306L75.3636 18.2715C75.3156 18.432 75.2987 18.603 75.3141 18.772C75.3296 18.9411 75.3769 19.1041 75.4529 19.2494C75.5288 19.3947 75.6314 19.5187 75.7533 19.6126C75.8753 19.7065 76.0136 19.7679 76.1583 19.7925L81.8265 20.9197C82.1581 21.0068 82.4639 21.1948 82.7124 21.4644C82.9609 21.7341 83.1432 22.0758 83.2406 22.4543C83.3554 22.9189 83.5 23.3729 83.673 23.8124C83.8036 24.124 83.8267 24.4818 83.7376 24.8126C83.6485 25.1433 83.454 25.422 83.1938 25.5915L79.0099 28.036C78.8837 28.0858 78.7724 28.1764 78.6889 28.2971C78.6054 28.4178 78.5533 28.5637 78.5386 28.7176C78.5238 28.8715 78.5472 29.0271 78.6058 29.1661C78.6645 29.3052 78.756 29.422 78.8697 29.5027L82.2004 32.7214C82.482 32.9686 82.808 33.1386 83.1541 33.2186C83.5002 33.2985 83.8574 33.2864 84.1989 33.1831L89.271 31.3361C89.9848 31.1268 90.7371 31.1838 91.4214 31.4991C92.311 31.9432 93.2199 32.3331 94.1445 32.667C94.4501 32.7821 94.7133 33.0136 94.8914 33.3242C95.0696 33.6348 95.1523 34.0062 95.1262 34.3782L94.8223 37.2573C94.7957 37.6071 94.8868 37.9553 95.0763 38.2287C95.2659 38.5022 95.5393 38.6797 95.8391 38.724L102.36 39.5253C102.697 39.5427 103.032 39.4534 103.328 39.2668C103.625 39.0802 103.872 38.8033 104.043 38.466L105.341 35.519C105.518 35.1702 105.762 34.8736 106.054 34.6522C106.345 34.4308 106.677 34.2905 107.023 34.2424C108.156 34.1481 109.283 33.9849 110.401 33.7535C111.129 33.6454 111.868 33.8172 112.505 34.2424L116.011 36.9585C116.317 37.1646 116.658 37.2929 117.011 37.335C117.363 37.3771 117.719 37.3321 118.056 37.203L123.28 34.772C123.41 34.731 123.527 34.6495 123.62 34.5364C123.712 34.4234 123.777 34.283 123.806 34.1305C123.834 33.978 123.827 33.8192 123.784 33.6714C123.74 33.5235 123.663 33.3922 123.56 33.2917L121.223 30.3583C121.123 30.2364 121.046 30.0908 120.999 29.9314C120.952 29.7721 120.935 29.6027 120.949 29.4349C120.964 29.2672 121.009 29.1051 121.083 28.9597C121.156 28.8143 121.256 28.6892 121.375 28.5928C121.876 28.1344 122.353 27.64 122.801 27.1125C123.316 26.5201 124.005 26.1758 124.729 26.1483L130.689 26.4335C131.02 26.4334 131.342 26.3145 131.612 26.0933C131.882 25.872 132.086 25.5592 132.197 25.1976L133.097 21.8568C133.145 21.6962 133.162 21.5253 133.146 21.3562C133.131 21.1872 133.084 21.0242 133.008 20.8789C132.932 20.7336 132.829 20.6095 132.707 20.5156C132.585 20.4217 132.447 20.3603 132.302 20.3358L126.634 19.2085C126.308 19.1135 126.009 18.9223 125.765 18.6534C125.522 18.3846 125.342 18.0472 125.243 17.6739C125.138 17.2077 124.997 16.7532 124.823 16.3158C124.692 16.0042 124.669 15.6464 124.758 15.3157C124.847 14.9849 125.042 14.7063 125.302 14.5368L129.486 12.0923C129.612 12.0424 129.723 11.9519 129.807 11.8312C129.89 11.7104 129.942 11.5646 129.957 11.4107C129.972 11.2568 129.948 11.1012 129.89 10.9621C129.831 10.8231 129.74 10.7063 129.626 10.6255L126.295 7.4069C126.005 7.14718 125.667 6.97011 125.308 6.88991C124.949 6.80971 124.578 6.82863 124.227 6.94516ZM114.433 15.2837C118.36 19.0728 116.946 24.2742 111.301 26.9088C105.656 29.5435 97.8726 28.6064 93.9575 24.8038C90.0424 21.0012 91.4331 15.7998 97.0896 13.1787C102.746 10.5576 110.506 11.4811 114.433 15.2837Z" fill="white"/>
</g>
<g opacity="0.2">
<path d="M91.3277 19.2087C91.2234 20.3603 91.3849 21.5234 91.7957 22.5784C92.2065 23.6334 92.8518 24.5422 93.6651 25.2114C97.6971 29.109 105.679 30.1004 111.464 27.3978C114.655 25.9175 116.688 23.5409 117.051 20.8791C117.157 19.7272 116.997 18.5631 116.586 17.5076C116.175 16.452 115.528 15.5436 114.713 14.8764C110.681 10.9652 102.699 9.98738 96.914 12.6764C94.8864 13.4824 93.1472 15.0495 91.9705 17.1308C91.6477 17.7714 91.4298 18.4759 91.3277 19.2087ZM97.0894 13.1788C102.746 10.5442 110.506 11.4813 114.433 15.2839C118.36 19.0865 116.945 24.22 111.289 26.9361C105.632 29.6522 97.8607 28.6337 93.9456 24.8311C90.0305 21.0285 91.4212 15.7999 97.0894 13.1788Z" fill="white"/>
<path d="M75.3636 18.2715C75.3156 18.432 75.2987 18.603 75.3141 18.772C75.3296 18.9411 75.3769 19.1041 75.4529 19.2494C75.5288 19.3947 75.6314 19.5187 75.7533 19.6126C75.8753 19.7065 76.0136 19.7679 76.1583 19.7925L81.8265 20.9197C82.1581 21.0068 82.4639 21.1948 82.7124 21.4644C82.9609 21.7341 83.1432 22.0758 83.2406 22.4543C83.3554 22.9189 83.5 23.3729 83.673 23.8124C83.8036 24.124 83.8267 24.4818 83.7376 24.8126C83.6485 25.1433 83.454 25.422 83.1938 25.5915L79.0099 28.036C78.8837 28.0858 78.7724 28.1764 78.6889 28.2971C78.6054 28.4178 78.5533 28.5637 78.5386 28.7176C78.5238 28.8715 78.5472 29.0271 78.6058 29.1661C78.6645 29.3052 78.756 29.422 78.8697 29.5027L82.2004 32.7214C82.482 32.9686 82.808 33.1386 83.1541 33.2186C83.5002 33.2985 83.8574 33.2864 84.1989 33.1831L89.271 31.3361C89.9848 31.1268 90.7371 31.1838 91.4214 31.4991C92.311 31.9432 93.2199 32.3331 94.1445 32.667C94.4501 32.7821 94.7133 33.0136 94.8914 33.3242C95.0696 33.6348 95.1523 34.0062 95.1262 34.3782L94.8223 37.2573C94.7957 37.6071 94.8868 37.9553 95.0763 38.2287C95.2659 38.5022 95.5393 38.6797 95.8391 38.724L102.36 39.5253C102.697 39.5427 103.032 39.4534 103.328 39.2668C103.625 39.0802 103.872 38.8033 104.043 38.466L105.341 35.519C105.518 35.1702 105.762 34.8736 106.054 34.6522C106.345 34.4308 106.677 34.2905 107.023 34.2424C108.156 34.1481 109.283 33.9849 110.401 33.7535C111.129 33.6454 111.868 33.8172 112.505 34.2424L116.011 36.9585C116.317 37.1646 116.658 37.2929 117.011 37.335C117.363 37.3771 117.719 37.3321 118.056 37.203L123.28 34.772C123.41 34.731 123.527 34.6495 123.62 34.5364C123.712 34.4234 123.777 34.283 123.806 34.1305C123.834 33.978 123.827 33.8192 123.784 33.6714C123.74 33.5235 123.663 33.3922 123.56 33.2917L121.223 30.3583C121.123 30.2364 121.046 30.0908 120.999 29.9314C120.952 29.7721 120.935 29.6027 120.949 29.4349C120.964 29.2672 121.009 29.1051 121.083 28.9597C121.156 28.8143 121.256 28.6892 121.375 28.5928C121.876 28.1344 122.353 27.64 122.801 27.1125C123.316 26.5201 124.005 26.1758 124.729 26.1483L130.689 26.4335C131.02 26.4334 131.342 26.3145 131.612 26.0933C131.882 25.872 132.086 25.5592 132.197 25.1976L133.097 21.8568C133.145 21.6962 133.162 21.5253 133.146 21.3562C133.131 21.1872 133.084 21.0242 133.008 20.8789C132.932 20.7336 132.829 20.6095 132.707 20.5156C132.585 20.4217 132.447 20.3603 132.302 20.3358L126.634 19.2085C126.308 19.1135 126.009 18.9223 125.765 18.6534C125.522 18.3846 125.342 18.0472 125.243 17.6739C125.138 17.2077 124.997 16.7532 124.823 16.3158C124.692 16.0042 124.669 15.6464 124.758 15.3157C124.847 14.9849 125.042 14.7063 125.302 14.5368L129.486 12.0923C129.612 12.0424 129.723 11.9519 129.807 11.8312C129.89 11.7104 129.942 11.5646 129.957 11.4107C129.972 11.2568 129.948 11.1012 129.89 10.9621C129.831 10.8231 129.74 10.7063 129.626 10.6255L126.295 7.4069C126.014 7.15962 125.688 6.98961 125.341 6.90964C124.995 6.82967 124.638 6.84183 124.297 6.94516L119.225 8.79216C118.506 8.99626 117.752 8.93934 117.062 8.62915C116.177 8.18504 115.272 7.79521 114.351 7.46123C114.044 7.34835 113.78 7.11726 113.601 6.80615C113.423 6.49504 113.341 6.1225 113.369 5.75005L113.673 2.87094C113.703 2.51893 113.613 2.1673 113.424 1.89085C113.234 1.6144 112.959 1.43494 112.657 1.39065L106.135 0.602947C105.798 0.582452 105.462 0.670517 105.165 0.857419C104.869 1.04432 104.622 1.32285 104.452 1.66228L103.108 4.60927C102.927 4.95411 102.682 5.24763 102.391 5.46847C102.1 5.68931 101.77 5.83192 101.425 5.88586C100.293 5.97934 99.1655 6.14252 98.0479 6.37475C97.3159 6.48081 96.5739 6.30935 95.9326 5.88586L92.4265 3.16972C92.12 2.96289 91.7791 2.83414 91.4265 2.79199C91.0739 2.74985 90.7176 2.79528 90.3813 2.92528L85.1689 5.3562C85.0393 5.39722 84.9218 5.47872 84.8291 5.59181C84.7365 5.7049 84.6722 5.84528 84.6433 5.99777C84.6144 6.15025 84.622 6.309 84.6652 6.45685C84.7084 6.6047 84.7856 6.73602 84.8884 6.83653L87.2258 9.76993C87.3286 9.88975 87.4074 10.0344 87.4567 10.1935C87.5061 10.3526 87.5247 10.5224 87.5113 10.6908C87.4979 10.8593 87.4529 11.0222 87.3793 11.1682C87.3057 11.3141 87.2054 11.4395 87.0856 11.5354C86.5817 11.9904 86.1053 12.4849 85.6598 13.0157C85.1434 13.6043 84.4545 13.9439 83.7314 13.9664L77.7711 13.6948C77.4418 13.6919 77.1199 13.808 76.8498 14.027C76.5798 14.2459 76.3749 14.5569 76.2635 14.917L75.3636 18.2715ZM75.796 18.4344L76.6959 15.08C76.7802 14.8336 76.9248 14.6214 77.1117 14.4693C77.2986 14.3173 77.5197 14.2322 77.7477 14.2244L83.7081 14.496C84.563 14.4811 85.3798 14.082 85.987 13.3824C86.4212 12.8959 86.8819 12.4423 87.3661 12.0243C87.5378 11.875 87.6807 11.6855 87.7854 11.4679C87.8901 11.2503 87.9543 11.0096 87.9738 10.7613C87.9938 10.5141 87.9675 10.2648 87.8969 10.0304C87.8263 9.79598 87.713 9.58207 87.5647 9.40326L85.2274 6.48342C85.1825 6.4385 85.1474 6.38184 85.125 6.31809C85.1027 6.25434 85.0937 6.18534 85.0988 6.11675C85.1211 6.05181 85.1559 5.99359 85.2005 5.94654C85.245 5.89949 85.2981 5.86481 85.3559 5.84512L90.5683 3.41416C90.8369 3.31895 91.1193 3.28793 91.3984 3.32294C91.6776 3.35795 91.9478 3.45826 92.1928 3.61787L95.6988 6.33401C96.4272 6.84725 97.287 7.049 98.1297 6.90442C99.2166 6.68713 100.339 6.52415 101.472 6.42908C101.897 6.37282 102.305 6.20086 102.663 5.92714C103.02 5.65343 103.317 5.28568 103.529 4.85372L104.826 1.92028C104.951 1.67403 105.131 1.47189 105.347 1.33553C105.564 1.19917 105.808 1.13374 106.053 1.14621L112.575 1.93387C112.758 1.96075 112.925 2.06759 113.042 2.23265C113.1 2.31567 113.142 2.41161 113.166 2.51443C113.19 2.61726 113.196 2.72475 113.182 2.8302L112.879 5.69571C112.839 6.19073 112.947 6.68649 113.182 7.10124C113.418 7.51599 113.769 7.82501 114.176 7.9773C115.084 8.30829 115.978 8.69359 116.852 9.13167C117.641 9.49275 118.509 9.55451 119.33 9.30819L124.402 7.46123C124.67 7.38787 124.949 7.38266 125.219 7.44594C125.49 7.50922 125.745 7.63949 125.968 7.8279L129.299 11.0465C129.416 11.1552 129.474 11.2774 129.462 11.3589C129.451 11.4404 129.369 11.549 129.24 11.6305L125.056 14.075C124.87 14.1843 124.703 14.3356 124.567 14.5202C124.431 14.7047 124.328 14.9188 124.264 15.15C124.2 15.3813 124.176 15.6251 124.194 15.8672C124.211 16.1093 124.27 16.3448 124.367 16.5603C124.532 16.9584 124.669 17.3718 124.776 17.7961C124.897 18.2643 125.121 18.6874 125.427 19.0234C125.732 19.3593 126.108 19.5964 126.517 19.711L132.185 20.8382C132.266 20.8489 132.343 20.88 132.411 20.9293C132.48 20.9786 132.539 21.0449 132.583 21.1234C132.615 21.2091 132.631 21.3016 132.631 21.3951C132.631 21.4885 132.615 21.581 132.583 21.6666L131.683 25.0211C131.598 25.2695 131.451 25.4833 131.262 25.6355C131.073 25.7877 130.849 25.8716 130.619 25.8767L124.659 25.5915C123.81 25.622 123.002 26.019 122.392 26.7051C121.96 27.2193 121.499 27.7002 121.013 28.1447C120.841 28.294 120.698 28.4835 120.593 28.7011C120.489 28.9187 120.424 29.1594 120.405 29.4077C120.391 29.6441 120.421 29.8811 120.491 30.1034C120.561 30.3258 120.672 30.5283 120.814 30.6978L123.151 33.6177C123.257 33.7535 123.315 33.8893 123.292 33.9844C123.269 34.0493 123.234 34.1075 123.19 34.1545C123.145 34.2016 123.092 34.2363 123.034 34.256L117.822 36.6734C117.555 36.7746 117.272 36.81 116.993 36.7773C116.713 36.7446 116.442 36.6444 116.198 36.4832L112.692 33.7671C111.959 33.2528 111.096 33.0511 110.249 33.1967C109.174 33.4139 108.052 33.5769 106.918 33.672C106.495 33.7289 106.088 33.8996 105.731 34.1707C105.374 34.4418 105.076 34.8057 104.861 35.2338L103.564 38.1808C103.446 38.4187 103.275 38.6158 103.07 38.7518C102.865 38.8879 102.632 38.958 102.395 38.9549L95.8741 38.1672C95.6913 38.1403 95.5241 38.0335 95.4067 37.8684C95.3491 37.7854 95.307 37.6895 95.2829 37.5867C95.2587 37.4839 95.2531 37.3763 95.2664 37.2709L95.5586 34.3918C95.5984 33.8985 95.493 33.4041 95.2594 32.9896C95.0258 32.575 94.6781 32.265 94.273 32.1102C93.3629 31.7897 92.4693 31.4088 91.5967 30.9694C90.8075 30.6084 89.9403 30.5466 89.1191 30.7929L84.047 32.6399C83.7767 32.7135 83.496 32.7188 83.2239 32.6555C82.9517 32.5923 82.6943 32.4619 82.4692 32.2732L79.1502 29.0546C79.1025 29.018 79.0622 28.9701 79.0319 28.9138C79.0017 28.8576 78.9822 28.7944 78.9749 28.7286C78.994 28.6676 79.0251 28.6125 79.0657 28.5677C79.1062 28.523 79.1551 28.4897 79.2086 28.4706L83.3925 26.026C83.664 25.8728 83.8884 25.6262 84.0353 25.3199C84.1592 25.0454 84.2239 24.7402 84.2239 24.4303C84.2239 24.1204 84.1592 23.8152 84.0353 23.5408C83.8805 23.139 83.7478 22.7262 83.6379 22.3049C83.518 21.8361 83.2939 21.4123 82.9882 21.0762C82.6825 20.74 82.306 20.5034 81.8966 20.3901L76.2168 19.2629C76.1367 19.2526 76.0597 19.221 75.9918 19.1707C75.9238 19.1203 75.8668 19.0524 75.825 18.9724C75.7832 18.8923 75.7578 18.8022 75.7508 18.7089C75.7437 18.6156 75.7552 18.5217 75.7843 18.4344H75.796Z" fill="white"/>
</g>
<path d="M151.32 72.4299L170.522 59.5826C170.73 59.4076 170.895 59.173 171.001 58.9016C171.108 58.6303 171.152 58.3314 171.13 58.0343C171.09 57.203 170.884 56.394 170.526 55.6722C170.169 54.9505 169.671 54.3362 169.073 53.8787C168.863 53.7054 168.617 53.5992 168.361 53.5706C168.105 53.542 167.846 53.5921 167.612 53.7157L148.41 66.563L151.32 72.4299Z" fill="#641EFF"/>
<path opacity="0.2" d="M153.375 63.2495L159.195 67.1743L151.342 72.43L148.432 66.5631L153.375 63.2495Z" fill="#2A1160"/>
<path d="M131.58 73.9102L135.484 71.2891L131.58 68.6681L139.609 63.2358C140.964 62.4322 142.464 62.0132 143.986 62.0132C145.507 62.0132 147.007 62.4322 148.362 63.2358L155.211 67.8532C155.679 68.1025 156.088 68.4797 156.404 68.9527C156.719 69.4257 156.932 69.9804 157.022 70.5694C157.022 70.678 157.022 75.1732 157.022 76.1646C156.942 76.7542 156.736 77.3111 156.424 77.7853C156.112 78.2594 155.703 78.6359 155.234 78.8808L147.205 84.313L131.58 73.9102Z" fill="#641EFF"/>
<path opacity="0.2" d="M131.58 73.9102L135.484 71.2891L131.58 68.6681L139.609 63.2358C140.964 62.4322 142.464 62.0132 143.986 62.0132C145.507 62.0132 147.007 62.4322 148.362 63.2358L155.211 67.8532C155.679 68.1025 156.088 68.4797 156.404 68.9527C156.719 69.4257 156.932 69.9804 157.022 70.5694C157.022 70.678 157.022 75.1732 157.022 76.1646C156.942 76.7542 156.736 77.3111 156.424 77.7853C156.112 78.2594 155.703 78.6359 155.234 78.8808L147.205 84.313L131.58 73.9102Z" fill="#2A1160"/>
<path d="M155.211 67.894L148.362 63.2766C147.007 62.473 145.507 62.054 143.986 62.054C142.464 62.054 140.964 62.473 139.609 63.2766L131.58 68.7088L147.182 79.2067L155.211 73.7745C157.63 72.1855 157.63 69.4694 155.211 67.894Z" fill="#641EFF"/>
<path d="M147.181 79.1662L131.579 68.6683L119.857 76.5179L135.471 87.0158L147.181 79.1662Z" fill="#F5F5F5"/>
<path d="M147.183 79.166L135.473 87.0156L135.461 92.2441L147.183 84.4081V79.166Z" fill="#E0E0E0"/>
<path d="M150.665 76.83L135.062 66.3321L136.664 65.2592L152.347 75.7028L150.665 76.83Z" fill="#F0F0F0"/>
<path d="M150.666 76.8301V82.0722L152.337 80.9451L152.349 75.7029L150.666 76.8301Z" fill="#E0E0E0"/>
<path d="M139.037 89.8404C139.037 89.8404 141.176 86.6489 140.031 83.9464L135.473 87.002V92.2306L139.037 89.8404Z" fill="#2D1C51"/>
<path d="M140.029 83.96C139.899 82.8835 139.539 81.8621 138.981 80.989C138.424 80.116 137.687 79.4192 136.838 78.9622C134.711 77.8894 130.189 80.0759 128.319 76.5313C126.998 74.0325 128.447 70.7731 128.447 70.7731L119.857 76.5177L135.471 87.0156L140.029 83.96Z" fill="#543B89"/>
<path d="M119.857 76.5176V81.7598L135.459 92.2441L135.471 87.0155L119.857 76.5176Z" fill="#2A1160"/>
</svg>
