<svg width="262" height="230" viewBox="0 0 262 230" fill="none" xmlns="http://www.w3.org/2000/svg">
<path d="M259.087 184.101C256.316 182.549 253.162 181.971 250.07 182.446C249.158 180.993 247.936 179.798 246.505 178.96C243.095 177.104 239.328 176.138 235.507 176.138C231.686 176.138 227.919 177.104 224.509 178.96C223.395 179.528 222.414 180.356 221.636 181.384C220.858 182.412 220.303 183.615 220.012 184.903C212.706 183.338 205.124 184.459 198.482 188.088C197.15 188.899 195.933 189.912 194.87 191.097C185.154 187.787 172.711 188.59 164.579 193.806C162.197 195.188 160.165 197.177 158.661 199.599C149.329 196.422 139.211 197.323 130.49 202.107C129.351 202.814 128.289 203.655 127.321 204.614C126.413 203.787 125.438 203.049 124.409 202.407C118.784 199.207 112.477 197.65 106.118 197.894C104.551 194.873 102.204 192.408 99.3604 190.797C90.6226 185.38 77.3645 184.527 67.1587 188.289C66.0091 185.319 63.9096 182.891 61.2403 181.443C55.1868 178.06 48.3126 176.764 41.5511 177.731C40.7111 175.807 39.3015 174.237 37.5434 173.267C34.2318 171.463 30.572 170.522 26.86 170.522C23.1481 170.522 19.4882 171.463 16.1766 173.267C15.0997 173.928 14.1314 174.775 13.3106 175.775C9.81956 175.091 6.21644 175.664 3.05823 177.405C-1.01941 179.913 -1.01941 184.051 3.05823 186.584C5.21509 187.762 7.58848 188.409 10.0065 188.479C12.4245 188.548 14.8265 188.038 17.0387 186.985C19.3122 188.176 21.7673 188.915 24.2852 189.167C23.3765 193.229 25.427 197.492 30.4367 200.602C37.6805 204.562 45.9949 205.629 53.9006 203.611C54.2734 207.523 56.8364 211.385 61.6364 214.369C68.3629 218.155 75.9524 219.799 83.5158 219.109C84.9771 221.335 86.8997 223.163 89.1313 224.451C97.2866 229.466 109.706 230.344 119.236 226.958C121.769 228.316 124.561 229.023 127.391 229.023C130.221 229.023 133.013 228.316 135.546 226.958C136.021 226.654 136.473 226.31 136.898 225.93C145.926 228.528 155.53 227.382 163.81 222.72C165.666 221.617 167.305 220.135 168.634 218.357C178.583 222.419 191.934 221.742 200.789 216.3C203.348 214.827 205.496 212.646 207.01 209.981C214.365 211.593 222.011 210.479 228.703 206.821C233.689 203.711 235.693 199.448 234.645 195.411C238.473 195.621 242.291 194.811 245.759 193.054C247.871 194.101 250.175 194.62 252.499 194.572C254.824 194.524 257.108 193.911 259.18 192.778C262.955 190.395 262.955 186.508 259.087 184.101Z" fill="#E0E0E0"/>
<path d="M192.354 177.455C192.354 193.078 163.67 205.742 128.276 205.742C92.8825 205.742 64.1992 193.078 64.1992 177.455C64.1992 161.831 92.8825 149.192 128.276 149.192C163.67 149.192 192.354 161.856 192.354 177.455Z" fill="#641EFF"/>
<path d="M192.354 177.455C192.354 193.078 163.67 205.742 128.276 205.742C92.8825 205.742 64.1992 193.078 64.1992 177.455C64.1992 161.831 92.8825 149.192 128.276 149.192C163.67 149.192 192.354 161.856 192.354 177.455Z" fill="#641EFF"/>
<path opacity="0.9" d="M192.354 177.455C192.354 193.078 163.67 205.742 128.276 205.742C92.8825 205.742 64.1992 193.078 64.1992 177.455C64.1992 161.831 92.8825 149.192 128.276 149.192C163.67 149.192 192.354 161.856 192.354 177.455Z" fill="white"/>
<path d="M71.3307 162.86C71.5426 154.888 74.6343 147.318 79.9488 141.76C85.2633 136.201 92.3819 133.092 99.7926 133.092C107.203 133.092 114.322 136.201 119.636 141.76C124.951 147.318 128.043 154.888 128.255 162.86C128.255 163.136 128.255 163.412 128.255 163.713C128.255 164.014 128.255 164.264 128.255 164.565C127.928 168.803 125.155 172.966 119.913 176.226C108.822 183.148 90.7635 183.148 79.6257 176.226C74.4297 172.966 71.6569 168.703 71.3307 164.565C71.3307 164.264 71.3307 164.014 71.3307 163.713C71.3307 163.412 71.3074 163.136 71.3307 162.86Z" fill="#641EFF"/>
<path opacity="0.8" d="M71.3307 162.86C71.5426 154.888 74.6343 147.318 79.9488 141.76C85.2633 136.201 92.3819 133.092 99.7926 133.092C107.203 133.092 114.322 136.201 119.636 141.76C124.951 147.318 128.043 154.888 128.255 162.86C128.255 163.136 128.255 163.412 128.255 163.713C128.255 164.014 128.255 164.264 128.255 164.565C127.928 168.803 125.155 172.966 119.913 176.226C108.822 183.148 90.7635 183.148 79.6257 176.226C74.4297 172.966 71.6569 168.703 71.3307 164.565C71.3307 164.264 71.3307 164.014 71.3307 163.713C71.3307 163.412 71.3074 163.136 71.3307 162.86Z" fill="white"/>
<g style="mix-blend-mode:lighten" opacity="0.3">
<path d="M87.4297 136.102C91.7095 133.875 96.4395 132.838 101.188 133.086C105.936 133.333 110.551 134.857 114.611 137.518C118.671 140.179 122.046 143.893 124.429 148.32C126.813 152.746 128.127 157.745 128.253 162.86C128.253 163.136 128.253 163.412 128.253 163.712C128.253 164.013 128.253 164.264 128.253 164.565C127.926 168.803 125.154 172.966 119.911 176.226C115.479 178.871 110.598 180.525 105.558 181.091C112.944 179.737 117.721 170.859 115.461 161.029C112.897 149.594 102.226 133.168 87.4297 136.102Z" fill="white"/>
</g>
<path opacity="0.1" d="M71.332 164.565C71.332 164.265 71.332 164.014 71.332 163.713C71.332 163.412 71.332 163.136 71.332 162.86C71.4344 158.653 72.3442 154.514 74.0043 150.703C75.6644 146.892 78.0389 143.492 80.9786 140.717C77.9029 144.127 71.0058 157.042 78.4854 166.873C83.4019 173.343 106.749 182.571 125.972 170.709C124.318 172.968 122.258 174.844 119.914 176.226C108.823 183.148 90.7649 183.148 79.6271 176.226C74.431 172.966 71.6582 168.804 71.332 164.565Z" fill="#641EFF"/>
<g style="mix-blend-mode:lighten" opacity="0.5">
<path d="M100.083 139.964C98.8013 143.074 101.248 147.262 105.535 149.293C109.823 151.324 114.366 150.421 115.625 147.312C116.883 144.202 114.459 140.014 110.172 137.983C105.885 135.952 101.341 136.829 100.083 139.964Z" fill="white"/>
</g>
<g style="mix-blend-mode:lighten" opacity="0.5">
<path d="M116.582 152.679C116.389 153.589 116.497 154.544 116.888 155.378C117.278 156.212 117.927 156.873 118.722 157.247C119.517 157.622 120.409 157.686 121.243 157.429C122.077 157.172 122.802 156.609 123.292 155.839C123.485 154.928 123.377 153.973 122.986 153.139C122.596 152.305 121.947 151.644 121.152 151.27C120.357 150.896 119.465 150.832 118.631 151.089C117.797 151.346 117.072 151.908 116.582 152.679Z" fill="white"/>
</g>
<path d="M176.279 163.763C176.084 157.002 173.451 150.589 168.939 145.881C164.427 141.173 158.389 138.54 152.104 138.54C145.82 138.54 139.782 141.173 135.269 145.881C130.757 150.589 128.125 157.002 127.93 163.763C127.898 164.247 127.898 164.733 127.93 165.217C128.209 168.803 130.563 172.339 134.92 175.123C140.22 178.015 146.08 179.523 152.023 179.523C157.966 179.523 163.825 178.015 169.125 175.123C173.552 172.339 175.906 168.803 176.116 165.217C176.147 164.733 176.147 164.247 176.116 163.763H176.279Z" fill="#641EFF"/>
<path opacity="0.8" d="M176.279 163.763C176.084 157.002 173.451 150.589 168.939 145.881C164.427 141.173 158.389 138.54 152.104 138.54C145.82 138.54 139.782 141.173 135.269 145.881C130.757 150.589 128.125 157.002 127.93 163.763C127.898 164.247 127.898 164.733 127.93 165.217C128.209 168.803 130.563 172.339 134.92 175.123C140.22 178.015 146.08 179.523 152.023 179.523C157.966 179.523 163.825 178.015 169.125 175.123C173.552 172.339 175.906 168.803 176.116 165.217C176.147 164.733 176.147 164.247 176.116 163.763H176.279Z" fill="white"/>
<g style="mix-blend-mode:lighten" opacity="0.3">
<path d="M162.601 140.967C158.967 139.069 154.949 138.183 150.914 138.39C146.88 138.596 142.958 139.889 139.508 142.15C136.058 144.411 133.19 147.567 131.167 151.33C129.144 155.093 128.031 159.342 127.93 163.688C127.898 164.172 127.898 164.658 127.93 165.142C128.209 168.728 130.563 172.264 134.92 175.048C138.677 177.251 142.803 178.632 147.059 179.11C140.768 177.957 136.714 170.408 138.648 162.083C140.978 152.503 150.042 138.46 162.601 140.967Z" fill="white"/>
</g>
<path opacity="0.1" d="M176.279 165.218C176.31 164.733 176.31 164.247 176.279 163.763C176.19 160.189 175.416 156.673 174.004 153.436C172.593 150.2 170.575 147.312 168.077 144.955C170.71 147.864 176.535 158.823 170.197 167.174C166.026 172.666 146.197 180.515 129.887 170.434C131.283 172.354 133.027 173.95 135.013 175.123C140.313 178.016 146.173 179.523 152.116 179.523C158.059 179.523 163.918 178.016 169.218 175.123C173.646 172.34 175.999 168.804 176.279 165.218Z" fill="#641EFF"/>
<g style="mix-blend-mode:lighten" opacity="0.5">
<path d="M151.857 144.303C152.953 146.961 150.856 150.522 147.197 152.252C143.539 153.983 139.718 153.205 138.623 150.547C137.527 147.889 139.625 144.353 143.283 142.622C146.941 140.892 150.786 141.669 151.857 144.303Z" fill="white"/>
</g>
<g style="mix-blend-mode:lighten" opacity="0.5">
<path d="M137.856 155.111C138.239 155.689 138.447 156.38 138.451 157.091C138.454 157.801 138.253 158.495 137.875 159.077C137.496 159.66 136.96 160.101 136.339 160.342C135.717 160.582 135.042 160.609 134.406 160.419C133.77 160.23 133.204 159.832 132.787 159.282C132.369 158.732 132.12 158.056 132.074 157.347C132.028 156.639 132.188 155.932 132.53 155.325C132.873 154.718 133.382 154.24 133.988 153.957C134.646 153.572 135.417 153.478 136.138 153.693C136.86 153.908 137.475 154.416 137.856 155.111Z" fill="white"/>
</g>
<path d="M195.708 174.722C195.708 170.159 194.024 165.783 191.027 162.557C188.029 159.331 183.963 157.519 179.724 157.519C175.485 157.519 171.419 159.331 168.421 162.557C165.424 165.783 163.74 170.159 163.74 174.722C163.727 174.88 163.727 175.04 163.74 175.198C163.729 175.357 163.729 175.516 163.74 175.675C163.959 177.093 164.498 178.432 165.311 179.573C166.124 180.714 167.184 181.623 168.4 182.22C171.909 184.136 175.789 185.135 179.724 185.135C183.659 185.135 187.539 184.136 191.048 182.22C192.258 181.614 193.313 180.703 194.125 179.563C194.936 178.423 195.48 177.089 195.708 175.675V174.722Z" fill="#641EFF"/>
<path opacity="0.9" d="M195.708 174.722C195.708 170.159 194.024 165.783 191.027 162.557C188.029 159.331 183.963 157.519 179.724 157.519C175.485 157.519 171.419 159.331 168.421 162.557C165.424 165.783 163.74 170.159 163.74 174.722C163.727 174.88 163.727 175.04 163.74 175.198C163.729 175.357 163.729 175.516 163.74 175.675C163.959 177.093 164.498 178.432 165.311 179.573C166.124 180.714 167.184 181.623 168.4 182.22C171.909 184.136 175.789 185.135 179.724 185.135C183.659 185.135 187.539 184.136 191.048 182.22C192.258 181.614 193.313 180.703 194.125 179.563C194.936 178.423 195.48 177.089 195.708 175.675V174.722Z" fill="white"/>
<g style="mix-blend-mode:lighten" opacity="0.5">
<path d="M186.648 159.7C184.473 158.552 182.08 157.959 179.658 157.97C175.488 157.962 171.481 159.71 168.494 162.841C165.507 165.971 163.777 170.236 163.673 174.722C163.661 174.88 163.661 175.04 163.673 175.198C163.662 175.357 163.662 175.516 163.673 175.675C163.892 177.093 164.432 178.432 165.245 179.573C166.057 180.714 167.118 181.623 168.333 182.22C170.819 183.685 173.553 184.598 176.372 184.903C172.225 184.151 169.522 179.16 170.803 173.643C172.364 167.274 178.353 158.045 186.648 159.7Z" fill="white"/>
</g>
<path opacity="0.1" d="M195.711 175.674V174.721C195.664 172.34 195.157 169.996 194.223 167.837C193.288 165.678 191.946 163.752 190.281 162.183C192.006 164.089 195.874 171.336 191.68 176.853C188.907 180.489 175.812 185.68 165.023 179.01C165.944 180.28 167.093 181.338 168.402 182.119C171.911 184.036 175.791 185.035 179.726 185.035C183.661 185.035 187.541 184.036 191.05 182.119C192.249 181.523 193.297 180.627 194.108 179.506C194.918 178.385 195.468 177.071 195.711 175.674Z" fill="#641EFF"/>
<g style="mix-blend-mode:lighten" opacity="0.5">
<path d="M179.562 161.856C180.261 163.612 178.887 165.944 176.487 167.098C174.087 168.251 171.524 167.725 170.825 165.969C170.126 164.214 171.477 161.881 173.9 160.728C176.323 159.574 178.84 160.101 179.562 161.856Z" fill="white"/>
</g>
<g style="mix-blend-mode:lighten" opacity="0.5">
<path d="M170.288 169.004C170.398 169.517 170.338 170.054 170.119 170.524C169.899 170.994 169.534 171.367 169.087 171.578C168.639 171.789 168.137 171.826 167.667 171.681C167.198 171.536 166.79 171.219 166.514 170.785C166.385 170.279 166.439 169.741 166.663 169.276C166.888 168.811 167.267 168.454 167.725 168.277C168.156 168.011 168.666 167.939 169.146 168.075C169.625 168.211 170.036 168.545 170.288 169.004Z" fill="white"/>
</g>
<path d="M226.722 176.878C226.537 170.809 224.167 165.055 220.112 160.831C216.058 156.608 210.636 154.247 204.994 154.247C199.351 154.247 193.93 156.608 189.875 160.831C185.82 165.055 183.45 170.809 183.266 176.878V178.182C183.574 180.111 184.314 181.93 185.422 183.481C186.531 185.032 187.974 186.269 189.627 187.085C194.39 189.695 199.66 191.055 205.005 191.055C210.351 191.055 215.62 189.695 220.384 187.085C222.031 186.264 223.468 185.025 224.572 183.475C225.676 181.924 226.414 180.108 226.722 178.182C226.734 177.965 226.734 177.748 226.722 177.53C226.733 177.313 226.733 177.096 226.722 176.878Z" fill="#641EFF"/>
<path opacity="0.7" d="M226.722 176.878C226.537 170.809 224.167 165.055 220.112 160.831C216.058 156.608 210.636 154.247 204.994 154.247C199.351 154.247 193.93 156.608 189.875 160.831C185.82 165.055 183.45 170.809 183.266 176.878V178.182C183.574 180.111 184.314 181.93 185.422 183.481C186.531 185.032 187.974 186.269 189.627 187.085C194.39 189.695 199.66 191.055 205.005 191.055C210.351 191.055 215.62 189.695 220.384 187.085C222.031 186.264 223.468 185.025 224.572 183.475C225.676 181.924 226.414 180.108 226.722 178.182C226.734 177.965 226.734 177.748 226.722 177.53C226.733 177.313 226.733 177.096 226.722 176.878Z" fill="white"/>
<g style="mix-blend-mode:lighten" opacity="0.3">
<path d="M214.326 156.49C211.426 154.952 208.238 154.146 205.005 154.133C199.343 154.13 193.903 156.506 189.843 160.754C185.783 165.001 183.423 170.786 183.266 176.878V178.182C183.574 180.111 184.314 181.929 185.422 183.481C186.531 185.032 187.974 186.269 189.627 187.085C192.997 189.08 196.705 190.325 200.532 190.746C194.893 189.718 191.211 182.947 192.982 175.449C194.893 166.772 203.048 154.233 214.326 156.49Z" fill="white"/>
</g>
<path opacity="0.1" d="M226.724 178.182C226.736 177.965 226.736 177.747 226.724 177.53C226.735 177.313 226.735 177.095 226.724 176.878C226.648 173.667 225.952 170.509 224.681 167.603C223.409 164.698 221.589 162.109 219.338 160.001C221.668 162.509 226.957 172.54 221.248 180.063C217.497 185.078 199.695 192.025 185.016 182.972C186.292 184.697 187.877 186.129 189.676 187.185C194.439 189.794 199.709 191.155 205.054 191.155C210.4 191.155 215.669 189.794 220.433 187.185C222.083 186.349 223.519 185.091 224.615 183.522C225.711 181.954 226.435 180.12 226.724 178.182Z" fill="#641EFF"/>
<g style="mix-blend-mode:lighten" opacity="0.5">
<path d="M204.682 159.425C205.661 161.807 203.797 164.992 200.512 166.547C197.226 168.102 193.778 167.399 192.822 165.017C191.867 162.635 193.708 159.45 196.993 157.895C200.279 156.34 203.704 157.042 204.682 159.425Z" fill="white"/>
</g>
<g style="mix-blend-mode:lighten" opacity="0.5">
<path d="M192.099 169.13C192.256 169.828 192.183 170.563 191.891 171.208C191.599 171.854 191.107 172.37 190.5 172.667C189.893 172.964 189.208 173.024 188.564 172.836C187.92 172.648 187.357 172.224 186.973 171.638C186.778 170.93 186.827 170.17 187.112 169.498C187.397 168.827 187.897 168.289 188.522 167.983C189.146 167.678 189.852 167.626 190.51 167.836C191.167 168.047 191.731 168.506 192.099 169.13Z" fill="white"/>
</g>
<path d="M167.075 41.9865C167.088 48.1878 165.844 54.3176 163.429 59.9482C161.014 65.5788 157.487 70.5746 153.094 74.5872C150.2 77.1749 147.866 80.4123 146.256 84.0727C144.646 87.7331 143.799 91.728 143.774 95.7777V206.695C143.644 208.247 143.13 209.733 142.286 210.998C141.442 212.264 140.298 213.263 138.974 213.892C137.101 215.002 135.082 215.797 132.986 216.25C129.311 217.054 125.523 217.054 121.848 216.25C119.758 215.8 117.746 215.005 115.883 213.892C114.563 213.26 113.424 212.259 112.585 210.993C111.745 209.728 111.234 208.244 111.106 206.695V95.577C111.064 91.5632 110.207 87.6077 108.598 83.9867C106.988 80.3658 104.663 77.1665 101.786 74.6123C97.3261 70.5709 93.7501 65.5197 91.3133 59.8193C88.8765 54.1189 87.639 47.91 87.689 41.6355C87.9793 30.4569 92.3203 19.8437 99.7844 12.0639C107.249 4.28408 117.244 -0.0454844 127.634 0.000360399C138.025 0.0462052 147.987 4.46383 155.391 12.3093C162.796 20.1547 167.056 30.8057 167.261 41.9865H167.075Z" fill="#641EFF"/>
<path opacity="0.5" d="M167.075 41.9865C167.088 48.1878 165.844 54.3176 163.429 59.9482C161.014 65.5788 157.487 70.5746 153.094 74.5872C150.2 77.1749 147.866 80.4123 146.256 84.0727C144.646 87.7331 143.799 91.728 143.774 95.7777V206.695C143.644 208.247 143.13 209.733 142.286 210.998C141.442 212.264 140.298 213.263 138.974 213.892C137.101 215.002 135.082 215.797 132.986 216.25C129.311 217.054 125.523 217.054 121.848 216.25C119.758 215.8 117.746 215.005 115.883 213.892C114.563 213.26 113.424 212.259 112.585 210.993C111.745 209.728 111.234 208.244 111.106 206.695V95.577C111.064 91.5632 110.207 87.6077 108.598 83.9867C106.988 80.3658 104.663 77.1665 101.786 74.6123C97.3261 70.5709 93.7501 65.5197 91.3133 59.8193C88.8765 54.1189 87.639 47.91 87.689 41.6355C87.9793 30.4569 92.3203 19.8437 99.7844 12.0639C107.249 4.28408 117.244 -0.0454844 127.634 0.000360399C138.025 0.0462052 147.987 4.46383 155.391 12.3093C162.796 20.1547 167.056 30.8057 167.261 41.9865H167.075Z" fill="white"/>
<path d="M149.483 41.9862C149.486 45.7952 148.642 49.5496 147.02 52.9353C145.399 56.321 143.047 59.2394 140.163 61.4463C137.866 63.2798 136.008 65.6763 134.744 68.437C133.48 71.1977 132.845 74.2429 132.893 77.3203V206.695C132.912 208.289 132.344 209.827 131.314 210.973C130.284 212.119 128.875 212.781 127.394 212.814C125.911 212.781 124.499 212.12 123.465 210.975C122.432 209.829 121.859 208.292 121.872 206.695V77.0194C121.9 73.9846 121.255 70.9864 119.99 68.2737C118.726 65.5609 116.879 63.2117 114.602 61.4212C111.636 59.1594 109.234 56.1454 107.608 52.6461C105.982 49.1468 105.183 45.2701 105.282 41.3592C105.797 35.3692 108.392 29.8086 112.549 25.7873C116.706 21.7661 122.119 19.58 127.708 19.6655C133.297 19.751 138.65 22.1017 142.7 26.2485C146.749 30.3952 149.196 36.0329 149.553 42.0363L149.483 41.9862Z" fill="#641EFF"/>
<path opacity="0.7" d="M149.483 41.9862C149.486 45.7952 148.642 49.5496 147.02 52.9353C145.399 56.321 143.047 59.2394 140.163 61.4463C137.866 63.2798 136.008 65.6763 134.744 68.437C133.48 71.1977 132.845 74.2429 132.893 77.3203V206.695C132.912 208.289 132.344 209.827 131.314 210.973C130.284 212.119 128.875 212.781 127.394 212.814C125.911 212.781 124.499 212.12 123.465 210.975C122.432 209.829 121.859 208.292 121.872 206.695V77.0194C121.9 73.9846 121.255 70.9864 119.99 68.2737C118.726 65.5609 116.879 63.2117 114.602 61.4212C111.636 59.1594 109.234 56.1454 107.608 52.6461C105.982 49.1468 105.183 45.2701 105.282 41.3592C105.797 35.3692 108.392 29.8086 112.549 25.7873C116.706 21.7661 122.119 19.58 127.708 19.6655C133.297 19.751 138.65 22.1017 142.7 26.2485C146.749 30.3952 149.196 36.0329 149.553 42.0363L149.483 41.9862Z" fill="white"/>
<path opacity="0.7" d="M133.52 57.8109C133.52 55.6037 134.128 53.4461 135.267 51.611C136.406 49.7758 138.026 48.3455 139.92 47.5008C141.815 46.6562 143.9 46.4352 145.911 46.8658C147.923 47.2964 149.77 48.3593 151.22 49.92C152.67 51.4806 153.658 53.4691 154.058 55.6338C154.458 57.7985 154.253 60.0423 153.468 62.0814C152.683 64.1205 151.354 65.8634 149.649 67.0896C147.944 68.3158 145.939 68.9704 143.888 68.9704C141.138 68.9704 138.501 67.7946 136.556 65.7018C134.612 63.609 133.52 60.7705 133.52 57.8109Z" fill="white"/>
<path opacity="0.7" d="M137.551 35.6423C137.551 34.2933 137.922 32.9745 138.619 31.8528C139.315 30.7311 140.305 29.8568 141.463 29.3405C142.621 28.8242 143.896 28.6892 145.125 28.9524C146.354 29.2155 147.484 29.8651 148.37 30.8191C149.256 31.773 149.86 32.9885 150.105 34.3116C150.349 35.6348 150.224 37.0062 149.744 38.2526C149.264 39.499 148.452 40.5643 147.41 41.3138C146.367 42.0633 145.142 42.4634 143.889 42.4634C142.208 42.4634 140.596 41.7448 139.407 40.4656C138.219 39.1864 137.551 37.4514 137.551 35.6423Z" fill="white"/>
<path opacity="0.7" d="M125.434 24.7085C125.429 24.0378 125.61 23.3808 125.952 22.8208C126.295 22.2607 126.785 21.8229 127.359 21.5628C127.934 21.3027 128.567 21.2321 129.179 21.3599C129.79 21.4877 130.353 21.8082 130.795 22.2806C131.237 22.7531 131.539 23.3562 131.663 24.0136C131.786 24.6709 131.725 25.353 131.488 25.973C131.25 26.5931 130.847 27.1233 130.329 27.4965C129.811 27.8696 129.202 28.0688 128.579 28.0688C128.167 28.0721 127.759 27.9876 127.377 27.8203C126.996 27.6529 126.649 27.4058 126.356 27.0934C126.064 26.7811 125.832 26.4096 125.674 26.0002C125.515 25.5909 125.434 25.1519 125.434 24.7085Z" fill="white"/>
<path opacity="0.7" d="M100.363 28.7708C100.359 26.9534 100.856 25.1754 101.791 23.6622C102.726 22.149 104.058 20.9686 105.617 20.2708C107.176 19.573 108.893 19.3892 110.549 19.7425C112.206 20.0959 113.728 20.9706 114.922 22.2557C116.116 23.5408 116.928 25.1785 117.257 26.9613C117.585 28.744 117.414 30.5916 116.766 32.2697C116.117 33.9479 115.021 35.381 113.615 36.3877C112.209 37.3943 110.557 37.929 108.868 37.9241C106.614 37.9175 104.455 36.9509 102.861 35.2358C101.267 33.5207 100.369 31.1964 100.363 28.7708Z" fill="white"/>
<path opacity="0.7" d="M98.9414 45.3466C98.9414 46.2008 99.177 47.0357 99.6185 47.7455C100.06 48.4554 100.687 49.0083 101.421 49.334C102.155 49.6597 102.962 49.7436 103.74 49.5751C104.518 49.4067 105.232 48.9934 105.791 48.3876C106.351 47.7819 106.731 47.0109 106.883 46.1726C107.035 45.3342 106.952 44.4663 106.645 43.6785C106.338 42.8908 105.821 42.2189 105.159 41.748C104.497 41.2771 103.719 41.0283 102.926 41.0333C101.867 41.0399 100.854 41.4973 100.107 42.3054C99.3604 43.1136 98.9414 44.207 98.9414 45.3466Z" fill="white"/>
<path opacity="0.7" d="M101.926 60.3937C101.921 59.0078 102.299 57.6516 103.012 56.4972C103.724 55.3428 104.739 54.4421 105.928 53.9095C107.117 53.3768 108.426 53.2361 109.689 53.5053C110.952 53.7745 112.113 54.4413 113.024 55.4213C113.934 56.4013 114.554 57.6504 114.804 59.0099C115.054 60.3694 114.923 61.7783 114.428 63.0577C113.933 64.3372 113.097 65.4297 112.024 66.1966C110.951 66.9634 109.691 67.3702 108.403 67.3652C106.687 67.3586 105.043 66.6221 103.83 65.3161C102.616 64.0101 101.932 62.2406 101.926 60.3937Z" fill="white"/>
<path opacity="0.7" d="M117.395 70.9257C117.39 69.7828 117.701 68.6642 118.288 67.7118C118.875 66.7595 119.712 66.0163 120.692 65.5766C121.672 65.137 122.752 65.0207 123.794 65.2424C124.835 65.4642 125.792 66.014 126.543 66.8222C127.294 67.6303 127.805 68.6603 128.011 69.7815C128.217 70.9027 128.109 72.0644 127.7 73.1194C127.292 74.1743 126.601 75.0749 125.717 75.7068C124.832 76.3387 123.792 76.6733 122.73 76.6683C121.317 76.6617 119.964 76.0546 118.964 74.9791C117.965 73.9035 117.401 72.4467 117.395 70.9257Z" fill="white"/>
<path opacity="0.7" d="M91.3477 35.6421C91.3477 35.0618 91.5076 34.4945 91.8071 34.012C92.1067 33.5295 92.5324 33.1534 93.0306 32.9314C93.5287 32.7093 94.0769 32.6512 94.6057 32.7644C95.1345 32.8776 95.6203 33.1571 96.0016 33.5674C96.3828 33.9777 96.6425 34.5006 96.7477 35.0697C96.8529 35.6389 96.7989 36.2288 96.5925 36.7649C96.3862 37.3011 96.0368 37.7592 95.5885 38.0816C95.1401 38.404 94.6131 38.5762 94.0739 38.5762C93.3508 38.5762 92.6574 38.267 92.1462 37.7167C91.6349 37.1665 91.3477 36.4202 91.3477 35.6421Z" fill="white"/>
<path opacity="0.7" d="M150.625 23.4548C150.625 22.6909 150.835 21.9443 151.23 21.3092C151.624 20.6741 152.184 20.1791 152.84 19.8868C153.496 19.5945 154.217 19.518 154.913 19.667C155.609 19.816 156.249 20.1838 156.751 20.7239C157.253 21.264 157.594 21.9522 157.733 22.7013C157.871 23.4505 157.8 24.227 157.529 24.9326C157.257 25.6383 156.797 26.2415 156.207 26.6658C155.617 27.0902 154.923 27.3166 154.213 27.3166C153.262 27.3166 152.349 26.9098 151.676 26.1855C151.003 25.4613 150.625 24.479 150.625 23.4548Z" fill="white"/>
<path opacity="0.7" d="M157.799 46.3004C159.794 46.3004 161.411 44.5602 161.411 42.4134C161.411 40.2667 159.794 38.5264 157.799 38.5264C155.804 38.5264 154.188 40.2667 154.188 42.4134C154.188 44.5602 155.804 46.3004 157.799 46.3004Z" fill="white"/>
<path opacity="0.7" d="M116.766 45.6731C116.766 44.9043 116.977 44.1528 117.374 43.5136C117.771 42.8744 118.335 42.3762 118.995 42.082C119.655 41.7878 120.381 41.7108 121.082 41.8608C121.782 42.0108 122.426 42.381 122.931 42.9246C123.436 43.4682 123.78 44.1608 123.919 44.9148C124.059 45.6688 123.987 46.4504 123.714 47.1606C123.441 47.8709 122.978 48.478 122.384 48.9051C121.79 49.3322 121.092 49.5601 120.377 49.5601C119.903 49.5601 119.433 49.4596 118.995 49.2642C118.557 49.0689 118.159 48.7826 117.823 48.4216C117.488 48.0607 117.222 47.6322 117.041 47.1606C116.859 46.689 116.766 46.1836 116.766 45.6731Z" fill="white"/>
<path d="M248.743 183.599C248.6 179.921 247.141 176.445 244.673 173.898C242.204 171.35 238.917 169.928 235.497 169.928C232.076 169.928 228.789 171.35 226.32 173.898C223.852 176.445 222.393 179.921 222.25 183.599V184.401C222.439 185.577 222.893 186.685 223.571 187.629C224.249 188.573 225.132 189.325 226.141 189.818C229.03 191.395 232.223 192.217 235.462 192.217C238.7 192.217 241.894 191.395 244.782 189.818C245.789 189.325 246.669 188.573 247.344 187.629C248.018 186.684 248.467 185.576 248.65 184.401V183.599H248.743Z" fill="#641EFF"/>
<path opacity="0.5" d="M248.743 183.599C248.6 179.921 247.141 176.445 244.673 173.898C242.204 171.35 238.917 169.928 235.497 169.928C232.076 169.928 228.789 171.35 226.32 173.898C223.852 176.445 222.393 179.921 222.25 183.599V184.401C222.439 185.577 222.893 186.685 223.571 187.629C224.249 188.573 225.132 189.325 226.141 189.818C229.03 191.395 232.223 192.217 235.462 192.217C238.7 192.217 241.894 191.395 244.782 189.818C245.789 189.325 246.669 188.573 247.344 187.629C248.018 186.684 248.467 185.576 248.65 184.401V183.599H248.743Z" fill="white"/>
<g style="mix-blend-mode:lighten" opacity="0.5">
<path d="M241.24 171.06C239.455 170.123 237.495 169.634 235.508 169.631C232.056 169.629 228.739 171.078 226.263 173.667C223.787 176.257 222.347 179.784 222.25 183.499V184.301C222.439 185.477 222.893 186.585 223.571 187.529C224.249 188.473 225.132 189.225 226.141 189.718C228.191 190.94 230.45 191.7 232.782 191.95C231.888 191.7 231.051 191.253 230.325 190.639C229.598 190.025 228.998 189.256 228.56 188.38C228.123 187.504 227.858 186.541 227.783 185.55C227.707 184.559 227.823 183.562 228.122 182.621C229.403 177.455 234.366 169.806 241.24 171.06Z" fill="white"/>
</g>
<path opacity="0.2" d="M248.741 184.402V183.599C248.695 181.644 248.271 179.72 247.497 177.95C246.722 176.18 245.615 174.602 244.244 173.317C245.689 174.897 248.905 180.841 245.409 185.48C243.079 188.489 232.268 192.777 223.32 187.26C224.093 188.293 225.052 189.146 226.14 189.768C229.028 191.345 232.221 192.167 235.46 192.167C238.699 192.167 241.892 191.345 244.78 189.768C245.8 189.293 246.694 188.555 247.385 187.619C248.076 186.683 248.542 185.578 248.741 184.402Z" fill="#641EFF"/>
<g style="mix-blend-mode:lighten" opacity="0.5">
<path d="M235.367 172.966C235.95 174.421 234.808 176.352 232.827 177.305C230.847 178.258 228.726 177.831 228.167 176.377C227.608 174.922 228.726 172.992 230.73 172.039C232.734 171.086 234.761 171.512 235.367 172.966Z" fill="white"/>
</g>
<g style="mix-blend-mode:lighten" opacity="0.5">
<path d="M227.701 178.859C227.82 179.285 227.783 179.744 227.596 180.141C227.41 180.538 227.088 180.842 226.699 180.991C226.526 181.116 226.33 181.198 226.124 181.233C225.918 181.267 225.708 181.253 225.508 181.19C225.308 181.127 225.123 181.018 224.967 180.87C224.81 180.722 224.686 180.539 224.603 180.333C224.52 180.128 224.479 179.905 224.485 179.681C224.49 179.457 224.542 179.237 224.635 179.036C224.728 178.836 224.861 178.66 225.024 178.521C225.188 178.382 225.378 178.283 225.58 178.232C225.941 178.021 226.363 177.968 226.758 178.085C227.154 178.202 227.491 178.48 227.701 178.859Z" fill="white"/>
</g>
<path d="M231.731 194.307C231.562 189.224 229.568 184.41 226.167 180.878C222.766 177.347 218.224 175.373 213.499 175.373C208.773 175.373 204.231 177.347 200.83 180.878C197.429 184.41 195.434 189.224 195.266 194.307V195.41C195.521 197.036 196.14 198.571 197.07 199.882C197.999 201.193 199.211 202.24 200.602 202.934C204.604 205.109 209.026 206.243 213.51 206.243C217.994 206.243 222.416 205.109 226.419 202.934C227.81 202.246 229.023 201.2 229.95 199.888C230.876 198.575 231.488 197.038 231.731 195.41C231.743 195.227 231.743 195.042 231.731 194.859C231.742 194.675 231.742 194.491 231.731 194.307Z" fill="#641EFF"/>
<path opacity="0.6" d="M231.731 194.307C231.562 189.224 229.568 184.41 226.167 180.878C222.766 177.347 218.224 175.373 213.499 175.373C208.773 175.373 204.231 177.347 200.83 180.878C197.429 184.41 195.434 189.224 195.266 194.307V195.41C195.521 197.036 196.14 198.571 197.07 199.882C197.999 201.193 199.211 202.24 200.602 202.934C204.604 205.109 209.026 206.243 213.51 206.243C217.994 206.243 222.416 205.109 226.419 202.934C227.81 202.246 229.023 201.2 229.95 199.888C230.876 198.575 231.488 197.038 231.731 195.41C231.743 195.227 231.743 195.042 231.731 194.859C231.742 194.675 231.742 194.491 231.731 194.307Z" fill="white"/>
<g style="mix-blend-mode:lighten" opacity="0.5">
<path d="M221.409 177.18C218.669 175.754 215.64 175.09 212.6 175.248C209.56 175.407 206.605 176.382 204.006 178.085C201.406 179.788 199.244 182.165 197.717 184.999C196.191 187.833 195.348 191.033 195.266 194.307V195.411C195.521 197.037 196.14 198.572 197.07 199.882C197.999 201.193 199.211 202.24 200.602 202.934C203.439 204.593 206.549 205.641 209.759 206.019C205.099 205.116 201.976 199.448 203.421 193.154C205.099 185.831 211.949 175.299 221.409 177.18Z" fill="white"/>
</g>
<path opacity="0.1" d="M231.732 195.411C231.744 195.227 231.744 195.043 231.732 194.859C231.743 194.675 231.743 194.491 231.732 194.307C231.667 191.615 231.085 188.966 230.023 186.528C228.96 184.089 227.44 181.914 225.557 180.139C227.538 182.32 231.942 190.596 227.142 196.89C223.996 201.028 209.037 206.921 196.734 199.398C197.792 200.842 199.107 202.044 200.602 202.934C204.605 205.11 209.027 206.243 213.511 206.243C217.995 206.243 222.417 205.11 226.42 202.934C227.811 202.246 229.024 201.2 229.951 199.888C230.877 198.576 231.489 197.038 231.732 195.411Z" fill="#641EFF"/>
<g style="mix-blend-mode:lighten" opacity="0.3">
<path d="M213.324 179.662C214.139 181.643 212.578 184.326 209.805 185.63C207.033 186.934 204.167 186.357 203.351 184.351C202.536 182.345 204.12 179.687 206.869 178.383C209.619 177.079 212.508 177.655 213.324 179.662Z" fill="white"/>
</g>
<g style="mix-blend-mode:lighten" opacity="0.3">
<path d="M202.748 187.787C203.018 188.211 203.16 188.713 203.156 189.226C203.152 189.739 203.002 190.239 202.725 190.657C202.449 191.076 202.06 191.393 201.611 191.566C201.162 191.739 200.675 191.759 200.215 191.624C199.754 191.49 199.344 191.206 199.038 190.812C198.732 190.418 198.546 189.933 198.505 189.422C198.464 188.91 198.569 188.398 198.807 187.953C199.045 187.508 199.404 187.153 199.836 186.935C200.328 186.635 200.91 186.556 201.455 186.716C202.001 186.875 202.465 187.261 202.748 187.787Z" fill="white"/>
</g>
<path d="M205.193 201.303C205.193 194.845 202.809 188.652 198.566 184.085C194.323 179.519 188.568 176.953 182.568 176.953C176.567 176.953 170.812 179.519 166.569 184.085C162.326 188.652 159.943 194.845 159.943 201.303C159.931 201.529 159.931 201.755 159.943 201.98C159.931 202.206 159.931 202.432 159.943 202.658C160.199 206.018 162.273 209.328 166.56 211.936C171.521 214.644 177.005 216.055 182.568 216.055C188.13 216.055 193.614 214.644 198.575 211.936C202.723 209.428 204.936 206.018 205.193 202.658C205.204 202.432 205.204 202.206 205.193 201.98C205.205 201.755 205.205 201.529 205.193 201.303Z" fill="#641EFF"/>
<path opacity="0.8" d="M205.193 201.303C205.193 194.845 202.809 188.652 198.566 184.085C194.323 179.519 188.568 176.953 182.568 176.953C176.567 176.953 170.812 179.519 166.569 184.085C162.326 188.652 159.943 194.845 159.943 201.303C159.931 201.529 159.931 201.755 159.943 201.98C159.931 202.206 159.931 202.432 159.943 202.658C160.199 206.018 162.273 209.328 166.56 211.936C171.521 214.644 177.005 216.055 182.568 216.055C188.13 216.055 193.614 214.644 198.575 211.936C202.723 209.428 204.936 206.018 205.193 202.658C205.204 202.432 205.204 202.206 205.193 201.98C205.205 201.755 205.205 201.529 205.193 201.303Z" fill="white"/>
<g style="mix-blend-mode:lighten" opacity="0.3">
<path d="M192.377 180.038C189.328 178.408 185.972 177.55 182.568 177.53C176.671 177.528 171.006 180.004 166.78 184.43C162.554 188.857 160.101 194.884 159.943 201.229C159.931 201.454 159.931 201.68 159.943 201.906C159.931 202.131 159.931 202.357 159.943 202.583C160.199 205.943 162.273 209.253 166.56 211.861C170.071 213.926 173.928 215.222 177.908 215.673C172.036 214.57 168.238 207.523 170.055 199.724C172.129 190.771 180.634 177.706 192.377 180.038Z" fill="white"/>
</g>
<path opacity="0.1" d="M205.194 202.657C205.206 202.432 205.206 202.206 205.194 201.98C205.206 201.755 205.206 201.529 205.194 201.303C205.108 197.965 204.38 194.681 203.056 191.66C201.733 188.639 199.843 185.946 197.505 183.749C199.975 186.457 205.427 196.714 199.486 204.538C195.571 209.679 177.024 217.077 161.762 207.598C163.077 209.387 164.709 210.878 166.562 211.986C171.523 214.694 177.007 216.105 182.569 216.105C188.132 216.105 193.616 214.694 198.577 211.986C202.725 209.328 204.938 206.018 205.194 202.657Z" fill="#641EFF"/>
<g style="mix-blend-mode:lighten" opacity="0.3">
<path d="M182.454 183.097C183.456 185.605 181.522 188.89 178.097 190.621C174.671 192.351 171.106 191.524 170.081 189.041C169.056 186.558 171.013 183.223 174.438 181.518C177.864 179.812 181.312 180.615 182.454 183.097Z" fill="white"/>
</g>
<g style="mix-blend-mode:lighten" opacity="0.3">
<path d="M169.217 193.203C169.576 193.743 169.77 194.39 169.774 195.054C169.777 195.718 169.589 196.366 169.235 196.91C168.882 197.454 168.38 197.867 167.8 198.091C167.219 198.316 166.588 198.341 165.994 198.164C165.399 197.986 164.871 197.615 164.481 197.101C164.091 196.586 163.858 195.954 163.816 195.292C163.773 194.63 163.922 193.97 164.243 193.402C164.563 192.835 165.04 192.389 165.606 192.125C166.218 191.754 166.941 191.66 167.618 191.862C168.295 192.064 168.87 192.546 169.217 193.203Z" fill="white"/>
</g>
<path d="M259.949 186.96C259.838 184.755 258.947 182.681 257.458 181.162C255.969 179.644 253.996 178.798 251.945 178.798C249.894 178.798 247.921 179.644 246.432 181.162C244.943 182.681 244.052 184.755 243.941 186.96V187.436C244.057 188.141 244.329 188.806 244.734 189.374C245.14 189.942 245.668 190.395 246.271 190.696C248.024 191.66 249.965 192.163 251.934 192.163C253.902 192.163 255.843 191.66 257.596 190.696C258.202 190.399 258.731 189.946 259.137 189.378C259.544 188.81 259.814 188.143 259.926 187.436V186.96H259.949Z" fill="#641EFF"/>
<path opacity="0.2" d="M259.949 186.96C259.838 184.755 258.947 182.681 257.458 181.162C255.969 179.644 253.996 178.798 251.945 178.798C249.894 178.798 247.921 179.644 246.432 181.162C244.943 182.681 244.052 184.755 243.941 186.96V187.436C244.057 188.141 244.329 188.806 244.734 189.374C245.14 189.942 245.668 190.395 246.271 190.696C248.024 191.66 249.965 192.163 251.934 192.163C253.902 192.163 255.843 191.66 257.596 190.696C258.202 190.399 258.731 189.946 259.137 189.378C259.544 188.81 259.814 188.143 259.926 187.436V186.96H259.949Z" fill="white"/>
<g style="mix-blend-mode:lighten" opacity="0.5">
<path d="M255.429 179.436C254.226 178.798 252.893 178.498 251.554 178.562C250.214 178.627 248.911 179.053 247.766 179.804C246.621 180.554 245.67 181.603 245.001 182.853C244.333 184.104 243.968 185.516 243.941 186.959V187.435C244.057 188.141 244.329 188.806 244.734 189.374C245.14 189.941 245.668 190.395 246.271 190.696C247.505 191.443 248.87 191.904 250.279 192.05C249.74 191.897 249.237 191.625 248.8 191.252C248.364 190.879 248.004 190.413 247.743 189.883C247.483 189.353 247.327 188.77 247.286 188.172C247.246 187.574 247.32 186.973 247.506 186.407C248.252 183.222 251.258 178.583 255.429 179.436Z" fill="white"/>
</g>
<path opacity="0.05" d="M259.949 187.436V186.959C259.92 185.772 259.662 184.605 259.193 183.53C258.724 182.455 258.053 181.497 257.223 180.715C258.102 181.675 258.65 182.928 258.777 184.269C258.904 185.61 258.603 186.957 257.922 188.088C256.034 189.634 253.771 190.558 251.406 190.749C249.041 190.941 246.675 190.391 244.594 189.166C245.06 189.793 245.638 190.314 246.295 190.696C248.048 191.66 249.988 192.162 251.957 192.162C253.925 192.162 255.866 191.66 257.619 190.696C258.225 190.398 258.755 189.946 259.161 189.378C259.567 188.809 259.838 188.142 259.949 187.436Z" fill="black"/>
<g style="mix-blend-mode:lighten" opacity="0.3">
<path d="M251.866 180.515C252.215 181.393 251.54 182.571 250.328 183.148C249.116 183.725 247.858 183.449 247.485 182.571C247.112 181.693 247.835 180.515 249.023 180.063C250.211 179.612 251.516 179.637 251.866 180.515Z" fill="white"/>
</g>
<g style="mix-blend-mode:lighten" opacity="0.3">
<path d="M247.227 184.076C247.352 184.265 247.42 184.492 247.421 184.725C247.422 184.957 247.356 185.185 247.233 185.376C247.109 185.567 246.933 185.712 246.73 185.791C246.527 185.87 246.305 185.88 246.097 185.819C245.888 185.757 245.702 185.628 245.565 185.449C245.427 185.269 245.344 185.049 245.327 184.816C245.311 184.584 245.361 184.352 245.472 184.152C245.583 183.952 245.748 183.794 245.945 183.699C246.163 183.571 246.418 183.538 246.657 183.608C246.896 183.679 247.1 183.846 247.227 184.076Z" fill="white"/>
</g>
<path d="M13.5678 176.577C13.5678 172.799 14.9622 169.176 17.4442 166.505C19.9262 163.834 23.2926 162.333 26.8026 162.333C30.3127 162.333 33.6791 163.834 36.1611 166.505C38.6431 169.176 40.0375 172.799 40.0375 176.577C40.0483 176.711 40.0483 176.845 40.0375 176.978C40.0498 177.112 40.0498 177.246 40.0375 177.379C39.8543 178.554 39.4057 179.663 38.7313 180.607C38.0569 181.552 37.1772 182.303 36.1696 182.796C33.2619 184.379 30.0493 185.203 26.791 185.203C23.5328 185.203 20.3201 184.379 17.4124 182.796C16.408 182.302 15.532 181.549 14.8615 180.605C14.191 179.66 13.7468 178.552 13.5678 177.379C13.5555 177.246 13.5555 177.112 13.5678 176.978C13.557 176.845 13.557 176.711 13.5678 176.577Z" fill="#641EFF"/>
<path opacity="0.5" d="M13.5678 176.577C13.5678 172.799 14.9622 169.176 17.4442 166.505C19.9262 163.834 23.2926 162.333 26.8026 162.333C30.3127 162.333 33.6791 163.834 36.1611 166.505C38.6431 169.176 40.0375 172.799 40.0375 176.577C40.0483 176.711 40.0483 176.845 40.0375 176.978C40.0498 177.112 40.0498 177.246 40.0375 177.379C39.8543 178.554 39.4057 179.663 38.7313 180.607C38.0569 181.552 37.1772 182.303 36.1696 182.796C33.2619 184.379 30.0493 185.203 26.791 185.203C23.5328 185.203 20.3201 184.379 17.4124 182.796C16.408 182.302 15.532 181.549 14.8615 180.605C14.191 179.66 13.7468 178.552 13.5678 177.379C13.5555 177.246 13.5555 177.112 13.5678 176.978C13.557 176.845 13.557 176.711 13.5678 176.577Z" fill="white"/>
<g style="mix-blend-mode:lighten" opacity="0.5">
<path d="M21.0469 164.139C23.0435 163.094 25.2529 162.607 27.4708 162.723C29.6886 162.839 31.8435 163.555 33.7362 164.805C35.6289 166.055 37.1984 167.798 38.2997 169.873C39.401 171.948 39.9985 174.289 40.037 176.678C40.0479 176.812 40.0479 176.946 40.037 177.079C40.0493 177.213 40.0493 177.347 40.037 177.481C39.8538 178.655 39.4052 179.764 38.7308 180.708C38.0564 181.653 37.1767 182.404 36.1691 182.897C34.1181 184.116 31.8592 184.875 29.5284 185.129C30.4243 184.882 31.263 184.438 31.9913 183.825C32.7197 183.211 33.3219 182.442 33.7598 181.565C34.1978 180.688 34.462 179.723 34.5358 178.731C34.6096 177.739 34.4913 176.741 34.1885 175.8C32.8837 170.434 27.9206 162.785 21.0469 164.139Z" fill="white"/>
</g>
<path opacity="0.2" d="M13.5678 177.38C13.5555 177.247 13.5555 177.112 13.5678 176.979C13.557 176.845 13.557 176.711 13.5678 176.578C13.6132 174.622 14.0366 172.697 14.8108 170.927C15.585 169.157 16.6932 167.58 18.0649 166.296C16.6202 167.876 13.4047 173.819 16.8998 178.458C19.2299 181.468 30.0415 185.756 38.9657 180.239C38.2022 181.271 37.2507 182.125 36.1696 182.747C33.2619 184.329 30.0493 185.154 26.791 185.154C23.5328 185.154 20.3201 184.329 17.4124 182.747C16.4138 182.257 15.5415 181.512 14.8715 180.577C14.2014 179.642 13.7539 178.544 13.5678 177.38Z" fill="#641EFF"/>
<g style="mix-blend-mode:lighten" opacity="0.3">
<path d="M26.9437 166.045C26.3379 167.5 27.4797 169.431 29.4835 170.383C31.4874 171.336 33.5845 170.91 34.1437 169.456C34.7029 168.001 33.6077 166.07 31.6039 165.117C29.6 164.164 27.5262 164.49 26.9437 166.045Z" fill="white"/>
</g>
<g style="mix-blend-mode:lighten" opacity="0.3">
<path d="M34.6088 171.838C34.3982 172.154 34.2838 172.532 34.2813 172.921C34.2788 173.31 34.3883 173.69 34.5948 174.009C34.8012 174.328 35.0945 174.57 35.4342 174.702C35.7739 174.835 36.1434 174.85 36.4918 174.747C36.8401 174.644 37.1502 174.428 37.3795 174.127C37.6087 173.827 37.7458 173.457 37.7718 173.069C37.7979 172.682 37.7116 172.295 37.5248 171.962C37.3381 171.629 37.0602 171.366 36.7292 171.211C36.3704 170.993 35.9462 170.937 35.549 171.054C35.1519 171.172 34.8139 171.453 34.6088 171.838Z" fill="white"/>
</g>
<path d="M41.203 175.097C41.203 169.617 43.2258 164.361 46.8265 160.486C50.4272 156.611 55.3107 154.434 60.4028 154.434C65.4949 154.434 70.3785 156.611 73.9792 160.486C77.5798 164.361 79.6027 169.617 79.6027 175.097C79.6337 175.481 79.6337 175.867 79.6027 176.251C79.3305 177.955 78.677 179.563 77.6987 180.935C76.7203 182.307 75.4465 183.402 73.9872 184.125C69.7682 186.406 65.1124 187.594 60.3912 187.594C55.67 187.594 51.0141 186.406 46.7952 184.125C45.3378 183.402 44.0666 182.307 43.0921 180.934C42.1175 179.562 41.469 177.954 41.203 176.251C41.1719 175.867 41.1719 175.481 41.203 175.097Z" fill="#641EFF"/>
<path opacity="0.7" d="M41.203 175.097C41.203 169.617 43.2258 164.361 46.8265 160.486C50.4272 156.611 55.3107 154.434 60.4028 154.434C65.4949 154.434 70.3785 156.611 73.9792 160.486C77.5798 164.361 79.6027 169.617 79.6027 175.097C79.6337 175.481 79.6337 175.867 79.6027 176.251C79.3305 177.955 78.677 179.563 77.6987 180.935C76.7203 182.307 75.4465 183.402 73.9872 184.125C69.7682 186.406 65.1124 187.594 60.3912 187.594C55.67 187.594 51.0141 186.406 46.7952 184.125C45.3378 183.402 44.0666 182.307 43.0921 180.934C42.1175 179.562 41.469 177.954 41.203 176.251C41.1719 175.867 41.1719 175.481 41.203 175.097Z" fill="white"/>
<g style="mix-blend-mode:lighten" opacity="0.3">
<path d="M51.9688 157.042C54.8566 155.541 58.0477 154.843 61.2507 155.011C64.4538 155.179 67.5667 156.207 70.3055 158.003C73.0442 159.798 75.3215 162.303 76.9294 165.289C78.5373 168.276 79.4246 171.648 79.5103 175.098C79.5414 175.482 79.5414 175.868 79.5103 176.251C79.2381 177.956 78.5846 179.563 77.6063 180.935C76.628 182.307 75.3542 183.402 73.8948 184.126C70.9035 185.864 67.6277 186.963 64.2483 187.361C69.2346 186.433 72.4734 180.439 70.9356 173.819C69.2346 166.045 62.0347 155.061 51.9688 157.042Z" fill="white"/>
</g>
<path opacity="0.1" d="M41.203 176.252C41.1719 175.868 41.1719 175.482 41.203 175.098C41.2531 172.239 41.8596 169.422 42.9834 166.831C44.1071 164.239 45.7231 161.93 47.7272 160.052C45.6301 162.359 40.9933 171.061 46.0262 177.606C49.3582 181.969 65.1096 188.189 78.0648 180.114C76.9481 181.637 75.5622 182.907 73.9872 183.85C69.7682 186.131 65.1124 187.319 60.3912 187.319C55.67 187.319 51.0141 186.131 46.7952 183.85C45.3691 183.153 44.118 182.1 43.1455 180.779C42.173 179.457 41.5071 177.905 41.203 176.252Z" fill="#641EFF"/>
<g style="mix-blend-mode:lighten" opacity="0.5">
<path d="M60.5877 159.65C59.7255 161.756 61.3799 164.665 64.2925 165.944C67.2051 167.223 70.2342 166.722 71.0963 164.615C71.9585 162.509 70.3041 159.6 67.3915 158.296C64.4789 156.992 61.4498 157.543 60.5877 159.65Z" fill="white"/>
</g>
<g style="mix-blend-mode:lighten" opacity="0.5">
<path d="M71.7272 168.226C71.4301 168.684 71.2716 169.229 71.2735 169.787C71.2753 170.345 71.4374 170.889 71.7375 171.345C72.0377 171.8 72.4613 172.144 72.9502 172.331C73.4392 172.517 73.9697 172.536 74.4691 172.385C74.9686 172.235 75.4126 171.922 75.7403 171.489C76.0681 171.056 76.2636 170.525 76.3002 169.968C76.3367 169.411 76.2125 168.856 75.9445 168.378C75.6764 167.9 75.2777 167.523 74.8029 167.298C74.2769 167.002 73.6657 166.933 73.0941 167.106C72.5225 167.278 72.0336 167.679 71.7272 168.226Z" fill="white"/>
</g>
<path d="M27.5 187.235C27.6689 182.152 29.6637 177.338 33.0646 173.806C36.4655 170.274 41.007 168.301 45.7329 168.301C50.4587 168.301 55.0002 170.274 58.4011 173.806C61.802 177.338 63.7969 182.152 63.9657 187.235C63.9779 187.419 63.9779 187.603 63.9657 187.787C63.9773 187.962 63.9773 188.138 63.9657 188.313C63.7203 189.943 63.1048 191.482 62.174 192.795C61.2432 194.107 60.0258 195.152 58.6298 195.836C54.6349 198.025 50.2157 199.166 45.7329 199.166C41.25 199.166 36.8308 198.025 32.8359 195.836C31.4399 195.152 30.2225 194.107 29.2917 192.795C28.3609 191.482 27.7454 189.943 27.5 188.313V187.235Z" fill="#641EFF"/>
<path opacity="0.6" d="M27.5 187.235C27.6689 182.152 29.6637 177.338 33.0646 173.806C36.4655 170.274 41.007 168.301 45.7329 168.301C50.4587 168.301 55.0002 170.274 58.4011 173.806C61.802 177.338 63.7969 182.152 63.9657 187.235C63.9779 187.419 63.9779 187.603 63.9657 187.787C63.9773 187.962 63.9773 188.138 63.9657 188.313C63.7203 189.943 63.1048 191.482 62.174 192.795C61.2432 194.107 60.0258 195.152 58.6298 195.836C54.6349 198.025 50.2157 199.166 45.7329 199.166C41.25 199.166 36.8308 198.025 32.8359 195.836C31.4399 195.152 30.2225 194.107 29.2917 192.795C28.3609 191.482 27.7454 189.943 27.5 188.313V187.235Z" fill="white"/>
<g style="mix-blend-mode:lighten" opacity="0.5">
<path d="M37.8242 170.107C40.5633 168.668 43.5946 167.993 46.6394 168.145C49.6842 168.297 52.6446 169.271 55.2482 170.976C57.8518 172.682 60.0149 175.065 61.5386 177.906C63.0624 180.747 63.8977 183.955 63.9677 187.235C63.9798 187.419 63.9798 187.603 63.9677 187.787C63.9793 187.962 63.9793 188.138 63.9677 188.313C63.7223 189.943 63.1068 191.482 62.176 192.795C61.2452 194.107 60.0278 195.152 58.6318 195.837C55.8088 197.51 52.7032 198.559 49.4979 198.921C54.1581 198.043 57.2804 192.351 55.8358 186.081C54.1348 178.734 47.3076 168.226 37.8242 170.107Z" fill="white"/>
</g>
<path opacity="0.15" d="M27.5 188.313V187.235C27.5659 184.537 28.1507 181.882 29.2174 179.439C30.2842 176.996 31.8098 174.818 33.698 173.041C31.7175 175.248 27.3136 183.498 32.1135 189.793C35.2592 193.931 50.195 199.824 62.4046 192.3C61.3523 193.75 60.0361 194.953 58.5367 195.836C54.5418 198.025 50.1225 199.166 45.6397 199.166C41.1569 199.166 36.7376 198.025 32.7427 195.836C31.3641 195.139 30.1654 194.089 29.2514 192.777C28.3375 191.465 27.7361 189.933 27.5 188.313Z" fill="#641EFF"/>
<g style="mix-blend-mode:lighten" opacity="0.3">
<path d="M45.9311 172.565C45.1156 174.571 46.6768 177.229 49.4263 178.533C52.1758 179.838 55.065 179.261 55.8806 177.28C56.6961 175.298 55.1349 172.59 52.3854 171.286C49.6359 169.982 46.7467 170.559 45.9311 172.565Z" fill="white"/>
</g>
<g style="mix-blend-mode:lighten" opacity="0.3">
<path d="M56.4879 180.715C56.2246 181.141 56.0886 181.643 56.0981 182.155C56.1077 182.666 56.2623 183.162 56.5412 183.576C56.8202 183.99 57.2102 184.303 57.6588 184.472C58.1075 184.64 58.5934 184.658 59.0514 184.521C59.5093 184.384 59.9174 184.099 60.2209 183.706C60.5244 183.312 60.7088 182.828 60.7493 182.318C60.7899 181.809 60.6846 181.298 60.4477 180.854C60.2108 180.411 59.8535 180.056 59.4238 179.837C58.9256 179.538 58.338 179.463 57.7883 179.627C57.2387 179.791 56.7715 180.182 56.4879 180.715Z" fill="white"/>
</g>
<path d="M58.0715 198.37C58.0715 191.912 60.4553 185.718 64.6983 181.152C68.9413 176.585 74.6961 174.02 80.6966 174.02C86.6972 174.02 92.452 176.585 96.695 181.152C100.938 185.718 103.322 191.912 103.322 198.37C103.334 198.595 103.334 198.821 103.322 199.047C103.333 199.272 103.333 199.498 103.322 199.724C103.065 203.084 100.992 206.395 96.7043 208.978C91.7432 211.685 86.2591 213.096 80.6966 213.096C75.1342 213.096 69.65 211.685 64.689 208.978C60.5415 206.47 58.3279 203.084 58.0715 199.724C58.0603 199.498 58.0603 199.272 58.0715 199.047C58.0595 198.821 58.0595 198.595 58.0715 198.37Z" fill="#641EFF"/>
<path opacity="0.8" d="M58.0715 198.37C58.0715 191.912 60.4553 185.718 64.6983 181.152C68.9413 176.585 74.6961 174.02 80.6966 174.02C86.6972 174.02 92.452 176.585 96.695 181.152C100.938 185.718 103.322 191.912 103.322 198.37C103.334 198.595 103.334 198.821 103.322 199.047C103.333 199.272 103.333 199.498 103.322 199.724C103.065 203.084 100.992 206.395 96.7043 208.978C91.7432 211.685 86.2591 213.096 80.6966 213.096C75.1342 213.096 69.65 211.685 64.689 208.978C60.5415 206.47 58.3279 203.084 58.0715 199.724C58.0603 199.498 58.0603 199.272 58.0715 199.047C58.0595 198.821 58.0595 198.595 58.0715 198.37Z" fill="white"/>
<g style="mix-blend-mode:lighten" opacity="0.3">
<path d="M70.8867 177.103C73.9369 175.476 77.2919 174.618 80.6964 174.596C86.5934 174.593 92.2582 177.069 96.4843 181.496C100.71 185.922 103.164 191.949 103.321 198.294C103.333 198.519 103.333 198.745 103.321 198.971C103.333 199.197 103.333 199.423 103.321 199.648C103.065 203.008 100.991 206.319 96.704 208.902C93.1982 210.981 89.3387 212.277 85.3565 212.713C91.2283 211.635 95.0263 204.588 93.2089 196.789C91.1351 187.812 82.6303 174.771 70.8867 177.103Z" fill="white"/>
</g>
<path opacity="0.1" d="M58.0715 199.724C58.0603 199.498 58.0603 199.272 58.0715 199.047C58.0595 198.821 58.0595 198.595 58.0715 198.37C58.1624 195.032 58.8923 191.75 60.2153 188.73C61.5384 185.709 63.4262 183.015 65.7608 180.815C63.4307 183.524 57.8386 193.78 63.7803 201.605C67.6948 206.62 86.2422 214.143 101.504 204.639C100.202 206.442 98.5676 207.936 96.7042 209.028C91.7432 211.735 86.2591 213.146 80.6966 213.146C75.1342 213.146 69.65 211.735 64.689 209.028C60.5415 206.394 58.3279 203.084 58.0715 199.724Z" fill="#641EFF"/>
<g style="mix-blend-mode:lighten" opacity="0.3">
<path d="M80.9321 180.164C79.9302 182.672 81.8641 185.957 85.2894 187.562C88.7146 189.167 92.2796 188.489 93.3048 186.007C94.3301 183.524 92.3728 180.189 88.9476 178.484C85.5223 176.778 81.9573 177.681 80.9321 180.164Z" fill="white"/>
</g>
<g style="mix-blend-mode:lighten" opacity="0.3">
<path d="M94.0486 190.27C93.6898 190.81 93.4955 191.456 93.4922 192.12C93.489 192.784 93.6771 193.433 94.0306 193.977C94.3841 194.521 94.8857 194.933 95.4662 195.158C96.0467 195.382 96.6776 195.408 97.272 195.23C97.8663 195.053 98.395 194.681 98.7851 194.167C99.1752 193.653 99.4075 193.021 99.4501 192.359C99.4927 191.696 99.3434 191.036 99.0229 190.469C98.7023 189.902 98.2262 189.455 97.6602 189.192C97.0481 188.821 96.3244 188.726 95.6476 188.928C94.9708 189.13 94.3958 189.613 94.0486 190.27Z" fill="white"/>
</g>
<path d="M167.751 209.253C167.571 203.486 165.316 198.02 161.461 194.009C157.607 189.998 152.456 187.756 147.095 187.756C141.733 187.756 136.582 189.998 132.728 194.009C128.873 198.02 126.618 203.486 126.438 209.253C126.427 209.462 126.427 209.671 126.438 209.88C126.427 210.089 126.427 210.298 126.438 210.507C126.735 212.339 127.442 214.065 128.497 215.538C129.553 217.01 130.925 218.184 132.497 218.958C137.028 221.43 142.037 222.718 147.118 222.718C152.198 222.718 157.207 221.43 161.739 218.958C163.303 218.179 164.667 217.003 165.714 215.531C166.761 214.059 167.46 212.334 167.751 210.507C167.762 210.298 167.762 210.089 167.751 209.88C167.762 209.671 167.762 209.462 167.751 209.253Z" fill="#641EFF"/>
<path opacity="0.9" d="M167.751 209.253C167.571 203.486 165.316 198.02 161.461 194.009C157.607 189.998 152.456 187.756 147.095 187.756C141.733 187.756 136.582 189.998 132.728 194.009C128.873 198.02 126.618 203.486 126.438 209.253C126.427 209.462 126.427 209.671 126.438 209.88C126.427 210.089 126.427 210.298 126.438 210.507C126.735 212.339 127.442 214.065 128.497 215.538C129.553 217.01 130.925 218.184 132.497 218.958C137.028 221.43 142.037 222.718 147.118 222.718C152.198 222.718 157.207 221.43 161.739 218.958C163.303 218.179 164.667 217.003 165.714 215.531C166.761 214.059 167.46 212.334 167.751 210.507C167.762 210.298 167.762 210.089 167.751 209.88C167.762 209.671 167.762 209.462 167.751 209.253Z" fill="white"/>
<g style="mix-blend-mode:lighten" opacity="0.5">
<path d="M156.078 189.843C152.975 188.253 149.553 187.52 146.121 187.711C142.689 187.903 139.356 189.012 136.422 190.939C133.489 192.866 131.049 195.55 129.322 198.748C127.595 201.945 126.636 205.556 126.532 209.253C126.521 209.462 126.521 209.671 126.532 209.88C126.521 210.089 126.521 210.298 126.532 210.507C126.829 212.339 127.536 214.065 128.591 215.538C129.647 217.01 131.019 218.184 132.59 218.958C135.798 220.847 139.323 222.032 142.959 222.444C137.6 221.441 134.128 214.92 135.783 207.899C137.6 199.648 145.336 187.711 156.078 189.843Z" fill="white"/>
</g>
<path opacity="0.1" d="M167.748 210.507C167.759 210.298 167.759 210.089 167.748 209.88C167.76 209.672 167.76 209.462 167.748 209.253C167.677 206.2 167.02 203.195 165.817 200.428C164.614 197.662 162.891 195.193 160.758 193.179C163.088 195.686 168.004 205.04 162.575 212.162C159.01 216.877 142.071 223.573 128.137 214.946C129.323 216.596 130.814 217.962 132.517 218.958C137.049 221.43 142.058 222.719 147.139 222.719C152.219 222.719 157.228 221.43 161.76 218.958C163.319 218.177 164.678 216.999 165.722 215.527C166.765 214.055 167.46 212.332 167.748 210.507Z" fill="#641EFF"/>
<g style="mix-blend-mode:lighten" opacity="0.5">
<path d="M146.895 192.651C147.804 194.908 146.033 197.943 142.911 199.422C139.788 200.902 136.526 200.25 135.594 197.968C134.662 195.686 136.456 192.676 139.579 191.197C142.701 189.717 145.963 190.369 146.895 192.651Z" fill="white"/>
</g>
<g style="mix-blend-mode:lighten" opacity="0.5">
<path d="M134.918 201.88C135.029 202.206 135.077 202.552 135.058 202.898C135.039 203.245 134.953 203.583 134.806 203.891C134.66 204.2 134.455 204.473 134.206 204.692C133.956 204.911 133.667 205.073 133.356 205.165C132.792 205.494 132.131 205.572 131.513 205.385C130.896 205.198 130.37 204.759 130.048 204.162C129.908 203.502 129.987 202.809 130.271 202.204C130.556 201.6 131.027 201.121 131.604 200.85C132.182 200.58 132.829 200.535 133.433 200.723C134.038 200.911 134.563 201.32 134.918 201.88Z" fill="white"/>
</g>
<path d="M86.6376 210.983C86.6376 205.376 88.7071 199.999 92.3908 196.035C96.0745 192.07 101.071 189.843 106.28 189.843C111.49 189.843 116.486 192.07 120.17 196.035C123.853 199.999 125.923 205.376 125.923 210.983C125.934 211.184 125.934 211.385 125.923 211.585C125.934 211.777 125.934 211.97 125.923 212.162C125.646 213.907 124.977 215.553 123.974 216.956C122.97 218.359 121.664 219.476 120.167 220.212C115.859 222.56 111.098 223.784 106.269 223.784C101.439 223.784 96.6777 222.56 92.3696 220.212C90.8788 219.471 89.5778 218.352 88.5791 216.949C87.5804 215.547 86.9141 213.904 86.6376 212.162C86.626 211.97 86.626 211.777 86.6376 211.585C86.626 211.385 86.626 211.184 86.6376 210.983Z" fill="#641EFF"/>
<path opacity="0.9" d="M86.6376 210.983C86.6376 205.376 88.7071 199.999 92.3908 196.035C96.0745 192.07 101.071 189.843 106.28 189.843C111.49 189.843 116.486 192.07 120.17 196.035C123.853 199.999 125.923 205.376 125.923 210.983C125.934 211.184 125.934 211.385 125.923 211.585C125.934 211.777 125.934 211.97 125.923 212.162C125.646 213.907 124.977 215.553 123.974 216.956C122.97 218.359 121.664 219.476 120.167 220.212C115.859 222.56 111.098 223.784 106.269 223.784C101.439 223.784 96.6777 222.56 92.3696 220.212C90.8788 219.471 89.5778 218.352 88.5791 216.949C87.5804 215.547 86.9141 213.904 86.6376 212.162C86.626 211.97 86.626 211.777 86.6376 211.585C86.626 211.385 86.626 211.184 86.6376 210.983Z" fill="white"/>
<g style="mix-blend-mode:lighten" opacity="0.5">
<path d="M97.7539 192.526C100.411 191.136 103.327 190.415 106.282 190.42C111.4 190.418 116.317 192.566 119.985 196.407C123.654 200.247 125.785 205.477 125.925 210.983C125.936 211.184 125.936 211.385 125.925 211.585C125.936 211.777 125.936 211.97 125.925 212.162C125.648 213.907 124.979 215.553 123.975 216.956C122.972 218.359 121.666 219.477 120.169 220.212C117.122 222.013 113.771 223.138 110.313 223.522C115.416 222.569 118.725 216.45 117.14 209.679C115.323 201.83 107.89 190.495 97.7539 192.526Z" fill="white"/>
</g>
<path opacity="0.1" d="M86.6376 212.162C86.626 211.97 86.626 211.777 86.6376 211.585C86.626 211.385 86.626 211.184 86.6376 210.983C86.7049 208.08 87.3319 205.223 88.4791 202.594C89.6262 199.965 91.2685 197.621 93.3016 195.711C91.158 198.068 86.3114 206.971 91.5774 213.767C94.9793 218.231 111.08 224.6 124.338 216.4C123.207 217.966 121.787 219.264 120.167 220.212C115.859 222.56 111.098 223.784 106.269 223.784C101.439 223.784 96.6777 222.56 92.3696 220.212C90.8788 219.471 89.5778 218.352 88.5791 216.949C87.5804 215.547 86.9141 213.904 86.6376 212.162Z" fill="#641EFF"/>
<g style="mix-blend-mode:lighten" opacity="0.5">
<path d="M106.49 195.185C105.605 197.341 107.282 200.2 110.265 201.63C113.247 203.059 116.347 202.407 117.255 200.25C118.164 198.094 116.463 195.235 113.48 193.805C110.498 192.376 107.352 193.028 106.49 195.185Z" fill="white"/>
</g>
<g style="mix-blend-mode:lighten" opacity="0.5">
<path d="M117.861 203.961C117.554 204.432 117.39 204.992 117.391 205.567C117.392 206.142 117.558 206.702 117.866 207.171C118.175 207.64 118.611 207.995 119.114 208.186C119.618 208.378 120.164 208.397 120.678 208.242C121.192 208.086 121.648 207.763 121.985 207.317C122.321 206.87 122.521 206.323 122.558 205.75C122.594 205.177 122.464 204.605 122.186 204.114C121.908 203.624 121.496 203.237 121.007 203.008C120.471 202.692 119.841 202.614 119.253 202.792C118.664 202.97 118.164 203.39 117.861 203.961Z" fill="white"/>
</g>
<path d="M135.316 219.058C135.206 216.854 134.314 214.779 132.825 213.261C131.336 211.743 129.363 210.896 127.312 210.896C125.261 210.896 123.288 211.743 121.799 213.261C120.311 214.779 119.419 216.854 119.309 219.058V219.56C119.424 220.265 119.696 220.93 120.102 221.498C120.507 222.065 121.035 222.519 121.639 222.82C123.392 223.784 125.332 224.287 127.301 224.287C129.269 224.287 131.21 223.784 132.963 222.82C133.569 222.523 134.099 222.07 134.505 221.502C134.911 220.933 135.182 220.267 135.293 219.56V219.058H135.316Z" fill="#641EFF"/>
<path opacity="0.9" d="M135.316 219.058C135.206 216.854 134.314 214.779 132.825 213.261C131.336 211.743 129.363 210.896 127.312 210.896C125.261 210.896 123.288 211.743 121.799 213.261C120.311 214.779 119.419 216.854 119.309 219.058V219.56C119.424 220.265 119.696 220.93 120.102 221.498C120.507 222.065 121.035 222.519 121.639 222.82C123.392 223.784 125.332 224.287 127.301 224.287C129.269 224.287 131.21 223.784 132.963 222.82C133.569 222.523 134.099 222.07 134.505 221.502C134.911 220.933 135.182 220.267 135.293 219.56V219.058H135.316Z" fill="white"/>
<g style="mix-blend-mode:lighten" opacity="0.6">
<path d="M130.796 211.56C129.716 210.988 128.528 210.687 127.324 210.683C125.238 210.682 123.234 211.556 121.737 213.12C120.24 214.684 119.369 216.814 119.309 219.059V219.56C119.424 220.265 119.696 220.93 120.102 221.498C120.507 222.066 121.035 222.519 121.639 222.82C122.876 223.557 124.239 224.018 125.646 224.174C125.107 224.021 124.604 223.75 124.167 223.377C123.731 223.004 123.371 222.538 123.11 222.008C122.85 221.477 122.694 220.895 122.653 220.296C122.613 219.698 122.688 219.097 122.874 218.532C123.643 215.347 126.648 210.733 130.796 211.56Z" fill="white"/>
</g>
<path opacity="0.1" d="M135.316 219.56V219.058C135.291 217.876 135.037 216.713 134.572 215.643C134.107 214.572 133.44 213.617 132.613 212.839C133.475 213.817 135.409 217.428 133.312 220.187C131.423 221.738 129.155 222.665 126.785 222.856C124.415 223.048 122.045 222.495 119.961 221.265C120.419 221.907 120.999 222.437 121.662 222.82C123.415 223.784 125.355 224.287 127.324 224.287C129.293 224.287 131.233 223.784 132.986 222.82C133.592 222.523 134.122 222.07 134.528 221.502C134.934 220.933 135.205 220.267 135.316 219.56Z" fill="#641EFF"/>
<g style="mix-blend-mode:lighten" opacity="0.5">
<path d="M127.23 212.639C127.603 213.517 126.904 214.695 125.693 215.147C124.481 215.598 123.223 215.473 122.873 214.595C122.524 213.717 123.199 212.539 124.411 212.087C125.623 211.636 126.881 211.761 127.23 212.639Z" fill="white"/>
</g>
<g style="mix-blend-mode:lighten" opacity="0.5">
<path d="M122.591 216.2C122.63 216.326 122.646 216.46 122.637 216.594C122.628 216.727 122.594 216.857 122.538 216.976C122.482 217.096 122.403 217.201 122.308 217.288C122.213 217.374 122.103 217.439 121.985 217.479C121.768 217.607 121.512 217.64 121.273 217.569C121.034 217.499 120.83 217.332 120.703 217.102C120.629 216.846 120.651 216.569 120.764 216.33C120.878 216.091 121.073 215.909 121.309 215.823C121.526 215.695 121.781 215.662 122.02 215.733C122.26 215.803 122.464 215.97 122.591 216.2Z" fill="white"/>
</g>
<path d="M2.36004 179.938C2.36004 177.656 3.20207 175.468 4.70089 173.855C6.19972 172.242 8.23254 171.336 10.3522 171.336C12.4719 171.336 14.5047 172.242 16.0035 173.855C17.5023 175.468 18.3444 177.656 18.3444 179.938C18.3557 180.012 18.3557 180.089 18.3444 180.163C18.3546 180.246 18.3546 180.331 18.3444 180.414C18.233 181.121 17.9623 181.788 17.5561 182.356C17.15 182.924 16.6206 183.377 16.0143 183.674C14.2613 184.638 12.3208 185.141 10.3522 185.141C8.38359 185.141 6.44309 184.638 4.69012 183.674C4.08145 183.381 3.54996 182.929 3.1433 182.36C2.73664 181.791 2.46752 181.122 2.36004 180.414C2.34978 180.331 2.34978 180.246 2.36004 180.163C2.34874 180.089 2.34874 180.012 2.36004 179.938Z" fill="#641EFF"/>
<path opacity="0.2" d="M2.36004 179.938C2.36004 177.656 3.20207 175.468 4.70089 173.855C6.19972 172.242 8.23254 171.336 10.3522 171.336C12.4719 171.336 14.5047 172.242 16.0035 173.855C17.5023 175.468 18.3444 177.656 18.3444 179.938C18.3557 180.012 18.3557 180.089 18.3444 180.163C18.3546 180.246 18.3546 180.331 18.3444 180.414C18.233 181.121 17.9623 181.788 17.5561 182.356C17.15 182.924 16.6206 183.377 16.0143 183.674C14.2613 184.638 12.3208 185.141 10.3522 185.141C8.38359 185.141 6.44309 184.638 4.69012 183.674C4.08145 183.381 3.54996 182.929 3.1433 182.36C2.73664 181.791 2.46752 181.122 2.36004 180.414C2.34978 180.331 2.34978 180.246 2.36004 180.163C2.34874 180.089 2.34874 180.012 2.36004 179.938Z" fill="white"/>
<g style="mix-blend-mode:lighten" opacity="0.5">
<path d="M6.87891 172.415C7.95831 171.84 9.14623 171.539 10.3507 171.537C12.4385 171.536 14.4436 172.415 15.9372 173.985C17.4307 175.555 18.2942 177.692 18.3429 179.938C18.3542 180.013 18.3542 180.089 18.3429 180.164C18.3532 180.247 18.3532 180.331 18.3429 180.415C18.2315 181.121 17.9609 181.788 17.5547 182.357C17.1485 182.925 16.6191 183.377 16.0128 183.675C14.7727 184.426 13.399 184.888 11.9818 185.029C12.5209 184.875 13.0249 184.604 13.4621 184.231C13.8993 183.859 14.2604 183.393 14.5228 182.864C14.7853 182.334 14.9434 181.752 14.9872 181.154C15.0311 180.555 14.9598 179.954 14.7779 179.386C14.0322 176.202 11.0264 171.587 6.87891 172.415Z" fill="white"/>
</g>
<path opacity="0.05" d="M2.36004 180.414C2.34978 180.331 2.34978 180.247 2.36004 180.163C2.34874 180.089 2.34874 180.012 2.36004 179.938C2.38505 178.752 2.63815 177.585 3.10337 176.511C3.5686 175.436 4.2358 174.477 5.06291 173.693C4.20078 174.671 2.26684 178.283 4.36391 181.041C6.25372 182.592 8.5211 183.52 10.891 183.711C13.2609 183.902 15.6315 183.349 17.7153 182.119C17.2569 182.761 16.6772 183.291 16.0143 183.674C14.2613 184.638 12.3208 185.141 10.3522 185.141C8.38359 185.141 6.44309 184.638 4.69012 183.674C4.08145 183.381 3.54996 182.929 3.1433 182.36C2.73664 181.791 2.46752 181.123 2.36004 180.414Z" fill="black"/>
<g style="mix-blend-mode:lighten" opacity="0.3">
<path d="M10.4222 173.568C10.0727 174.446 10.7717 175.625 11.96 176.076C13.1484 176.528 14.4532 176.402 14.8027 175.524C15.1523 174.647 14.4765 173.468 13.2649 173.017C12.0532 172.565 10.795 172.615 10.4222 173.568Z" fill="white"/>
</g>
<g style="mix-blend-mode:lighten" opacity="0.3">
<path d="M15.0587 177.054C14.9847 177.31 15.0067 177.587 15.1198 177.826C15.233 178.064 15.4285 178.246 15.6645 178.332C15.824 178.37 15.9901 178.358 16.1435 178.298C16.2968 178.238 16.4312 178.132 16.5309 177.993C16.6306 177.854 16.6916 177.687 16.7067 177.512C16.7218 177.337 16.6905 177.161 16.6164 177.004C16.5422 176.848 16.4283 176.717 16.2879 176.628C16.1474 176.538 15.9863 176.493 15.8231 176.498C15.6599 176.504 15.5015 176.558 15.3661 176.657C15.2308 176.755 15.1242 176.893 15.0587 177.054Z" fill="white"/>
</g>
</svg>
