<svg width="520" height="520" viewBox="0 0 520 520" fill="none" xmlns="http://www.w3.org/2000/svg">
<g filter="url(#filter0_d_1056_1024)">
<path d="M81.3812 293.135C-13.7988 342.552 -13.7887 422.519 81.3812 471.937C176.551 521.354 330.871 521.354 426.051 471.937C521.231 422.519 521.221 342.552 426.051 293.135C330.881 243.717 176.561 243.762 81.3812 293.135Z" fill="#FAFAFA"/>
<path d="M315 421C361.392 421 399 404.211 399 383.5C399 362.789 361.392 346 315 346C268.608 346 231 362.789 231 383.5C231 404.211 268.608 421 315 421Z" fill="#EDEBEB"/>
<path d="M434.44 127.755C434.962 127.821 435.469 127.964 435.94 128.177C437.046 128.663 437.973 129.424 438.61 130.371C439.247 131.317 439.566 132.409 439.53 133.515C439.499 134.557 439.154 135.573 438.53 136.453C438.199 136.932 437.787 137.362 437.31 137.729C436.817 138.106 436.26 138.409 435.66 138.627C434.401 139.119 433.002 139.245 431.66 138.986C430.306 138.711 429.087 138.053 428.18 137.109C427.758 136.667 427.421 136.166 427.18 135.626C426.921 135.114 426.755 134.568 426.69 134.009C426.545 132.972 426.714 131.92 427.18 130.963C427.668 129.948 428.475 129.082 429.501 128.471C430.527 127.86 431.729 127.53 432.96 127.522C433.488 127.505 434.015 127.569 434.52 127.71C434.52 127.755 433.96 127.611 432.97 127.647C431.56 127.702 430.212 128.18 429.14 129.004C428.403 129.564 427.824 130.272 427.45 131.071C427.025 131.987 426.877 132.988 427.02 133.973C427.093 134.501 427.255 135.016 427.5 135.5C427.747 136.013 428.085 136.486 428.5 136.902C429.351 137.805 430.506 138.435 431.79 138.699C433.067 138.953 434.401 138.837 435.6 138.366C436.172 138.147 436.699 137.844 437.16 137.468C437.617 137.126 438.009 136.719 438.32 136.264C438.925 135.433 439.271 134.471 439.32 133.479C439.366 132.413 439.075 131.358 438.48 130.436C437.885 129.513 437.011 128.761 435.96 128.267C435 127.881 434.43 127.8 434.44 127.755Z" fill="#E0E0E0"/>
<path d="M439.52 121.663C439.515 121.597 439.515 121.531 439.52 121.466C439.52 121.313 439.52 121.115 439.52 120.855C439.52 120.297 439.52 119.498 439.52 118.456L439.57 118.509L433.8 117.377L433.9 117.332L432.38 120.235V120.289H432.31C431.032 120.338 429.768 120.541 428.55 120.89H428.48H428.43L425.8 118.617H426L421 121.475V121.313L422.2 124.332V124.404L422.14 124.467C421.277 125.311 420.541 126.254 419.95 127.27V127.342H419.85H416.29L416.44 127.225C416.04 128.851 415.6 130.603 415.16 132.409L415.07 132.239L418.29 133.604H418.38V133.694C418.432 134.838 418.65 135.971 419.03 137.064V137.153L418.95 137.225L416.43 139.498V139.301L419.59 143.793L419.38 143.721L422.74 142.643H422.84L422.93 142.706C423.86 143.484 424.903 144.146 426.03 144.674C426.08 144.737 425.94 144.53 426.13 144.818V148.016L425.99 147.855L431.75 149.023L431.55 149.112C432.06 148.133 432.55 147.172 433.08 146.21L433.13 146.129H433.24C434.51 146.086 435.768 145.889 436.98 145.545H437.08L437.16 145.617L439.69 147.882H439.47L444.47 145.051L444.4 145.222L443.2 142.203V142.122L443.27 142.05C444.138 141.21 444.878 140.271 445.47 139.256V139.184H449.13L448.99 139.292C449.45 137.495 449.88 135.752 450.29 134.107L450.37 134.251L447.15 132.868H447.08V132.796C447.036 131.649 446.821 130.512 446.44 129.417V129.354V129.309C447.36 128.483 448.18 127.737 448.97 127.036V127.162L445.83 122.67H445.93L442.56 123.721C441.852 123.132 441.086 122.602 440.27 122.139L439.65 121.807L439.45 121.69L439.67 121.78L440.3 122.086C441.137 122.534 441.921 123.058 442.64 123.649H442.58L445.93 122.553H445.99V122.607L449.17 127.099L449.22 127.171L449.16 127.225L446.76 129.399V129.292C447.156 130.406 447.382 131.564 447.43 132.733L447.36 132.634L450.59 134L450.69 134.045V134.143C450.29 135.779 449.86 137.495 449.41 139.319V139.427H445.7L445.84 139.355C445.235 140.394 444.482 141.357 443.6 142.221V142.068C443.99 143.057 444.4 144.063 444.8 145.087L444.85 145.204L444.73 145.267L439.73 148.115L439.61 148.178L439.51 148.088L437 145.851H437.18C435.936 146.206 434.644 146.408 433.34 146.453L433.49 146.363C432.99 147.315 432.49 148.286 431.96 149.256L431.9 149.373H431.76L426 148.268H425.86V144.934C426.05 145.222 425.91 145.015 425.96 145.078C424.804 144.539 423.734 143.862 422.78 143.066H422.96L419.6 144.135L419.46 144.18L419.39 144.072L416.23 139.579L416.15 139.472L416.25 139.382L418.77 137.108V137.27C418.379 136.152 418.153 134.992 418.1 133.82L418.2 133.955L415 132.535L414.88 132.481V132.364L416.18 127.189V127.072H419.87L419.73 127.144C420.338 126.11 421.094 125.153 421.98 124.296V124.431L420.79 121.403V121.313L420.89 121.25L425.89 118.42H425.98L426.05 118.483L428.58 120.756H428.46C429.698 120.408 430.983 120.211 432.28 120.172L432.19 120.226C432.75 119.183 433.27 118.204 433.73 117.332V117.27H433.8L439.55 118.465H439.6C439.6 119.498 439.6 120.262 439.6 120.846C439.6 121.106 439.6 121.313 439.6 121.457C439.578 121.527 439.551 121.596 439.52 121.663Z" fill="#E0E0E0"/>
<path d="M474.46 380.486C474.46 380.486 474.46 380.145 474.46 379.507C474.46 378.869 474.46 377.907 474.46 376.667C474.46 374.179 474.46 370.522 474.41 365.832C474.41 356.46 474.36 342.938 474.33 326.351L474.49 326.495L370.36 326.54L370.58 326.351C370.58 345.507 370.58 363.81 370.58 380.486L370.38 380.306L445.28 380.387L466.79 380.441H472.53H474H474.51H472.56H466.87L445.4 380.495L370.4 380.576H370.21V380.405C370.21 363.729 370.21 345.427 370.21 326.27V326.172H370.43H474.56H474.73V326.324C474.73 342.956 474.67 356.496 474.65 365.859C474.65 370.54 474.65 374.179 474.65 376.641C474.65 377.863 474.65 378.806 474.65 379.444C474.65 380.082 474.46 380.486 474.46 380.486Z" fill="#E0E0E0"/>
<path d="M474.5 332.902C474.5 333.009 451.21 333.09 422.5 333.09C393.79 333.09 370.5 333.009 370.5 332.902C370.5 332.794 393.78 332.713 422.5 332.713C451.22 332.713 474.5 332.794 474.5 332.902Z" fill="#E0E0E0"/>
<path d="M411.51 341.833H379.34V370.737H411.51V341.833Z" fill="#F5F5F5"/>
<path d="M466.91 346.595C466.754 346.614 466.596 346.614 466.44 346.595H465.08L460.08 346.649L443.62 346.711L427.16 346.649L422.16 346.595H420.8C420.644 346.614 420.486 346.614 420.33 346.595C420.486 346.579 420.644 346.579 420.8 346.595H422.16L427.16 346.532L443.62 346.478L460.08 346.532L465.08 346.595H466.44C466.596 346.579 466.754 346.579 466.91 346.595Z" fill="#E0E0E0"/>
<path d="M467.941 353.055C467.781 353.071 467.62 353.071 467.461 353.055H466.071L460.971 353.118L444.151 353.172L427.321 353.118L422.221 353.055H420.831C420.671 353.071 420.51 353.071 420.351 353.055C420.508 353.02 420.669 353.005 420.831 353.01H422.221L427.321 352.956L444.151 352.893L460.971 352.956L466.071 353.01H467.461C467.622 353.005 467.784 353.02 467.941 353.055Z" fill="#E0E0E0"/>
<path d="M467.941 359.506C467.781 359.526 467.62 359.526 467.461 359.506H466.071L460.971 359.56L444.151 359.623L427.321 359.56L422.221 359.506H420.831C420.671 359.526 420.51 359.526 420.351 359.506C420.51 359.49 420.671 359.49 420.831 359.506H422.221L427.321 359.443L444.151 359.389L461.001 359.416L466.101 359.479H467.491C467.641 359.474 467.792 359.483 467.941 359.506Z" fill="#E0E0E0"/>
<path d="M467.941 365.966C467.781 365.982 467.62 365.982 467.461 365.966H466.071L460.971 366.029L444.151 366.083L427.321 366.029L422.221 365.966H420.831C420.671 365.982 420.51 365.982 420.351 365.966C420.508 365.932 420.669 365.917 420.831 365.921H422.221L427.321 365.868L444.151 365.805L460.971 365.868L466.071 365.921H467.461C467.622 365.917 467.784 365.932 467.941 365.966Z" fill="#E0E0E0"/>
<path d="M203.942 112.394C220.843 97.208 220.843 72.586 203.942 57.3996C187.04 42.2132 159.636 42.2132 142.734 57.3996C125.833 72.586 125.833 97.208 142.734 112.394C159.636 127.581 187.04 127.581 203.942 112.394Z" fill="#F5F5F5"/>
<path d="M193 86.0915C192.494 86.1592 191.982 86.1892 191.47 86.1814L187.26 86.2532C183.69 86.2532 178.72 86.3341 173.11 86.3341H172.83V83.5757C172.83 77.9421 172.83 72.8476 172.91 69.1997C172.91 67.4026 172.98 65.9471 173 64.8239C172.985 64.289 173.022 63.7538 173.11 63.2246C173.192 63.7544 173.229 64.2891 173.22 64.8239C173.22 65.9471 173.22 67.4206 173.31 69.1997C173.31 72.8925 173.39 77.987 173.39 83.5757C173.39 84.4742 173.39 85.2918 173.39 86.1005L173.12 85.8489C178.73 85.8489 183.7 85.8489 187.27 85.9298L191.48 86.0106C191.988 85.9945 192.497 86.0216 193 86.0915Z" fill="#E0E0E0"/>
<path d="M173.231 52.3979C173.506 53.4664 173.6 54.5659 173.511 55.6595C173.599 56.7561 173.505 57.8585 173.231 58.9301C172.956 57.8585 172.862 56.7561 172.951 55.6595C172.861 54.5659 172.956 53.4664 173.231 52.3979Z" fill="#E0E0E0"/>
<path d="M193.001 57.6362C192.367 58.5605 191.577 59.391 190.661 60.0981C189.877 60.9193 188.956 61.6256 187.931 62.1916C188.566 61.2711 189.355 60.4439 190.271 59.7387C191.059 58.9195 191.979 58.2108 193.001 57.6362Z" fill="#E0E0E0"/>
<path d="M204.48 68.957C203.564 69.6627 202.557 70.266 201.48 70.754C200.505 71.3814 199.451 71.9032 198.34 72.3084C199.143 71.4917 200.11 70.818 201.19 70.3228C202.177 69.6793 203.295 69.2153 204.48 68.957Z" fill="#E0E0E0"/>
<path d="M211.24 85.7504C209.59 86.0063 207.912 86.0907 206.24 86.002C204.568 86.0907 202.891 86.0063 201.24 85.7504C202.891 85.4999 204.568 85.4155 206.24 85.4988C207.912 85.4155 209.589 85.4999 211.24 85.7504Z" fill="#E0E0E0"/>
<path d="M142.49 85.1572C140.946 85.4051 139.375 85.4896 137.81 85.4088C136.244 85.489 134.674 85.4046 133.13 85.1572C134.674 84.9098 136.244 84.8254 137.81 84.9056C139.375 84.8248 140.946 84.9093 142.49 85.1572Z" fill="#E0E0E0"/>
<path d="M147.361 97.6646C146.304 98.7417 145.117 99.7091 143.821 100.549C142.633 101.508 141.328 102.343 139.931 103.038C140.981 101.955 142.169 100.987 143.471 100.153C144.65 99.1854 145.957 98.3497 147.361 97.6646Z" fill="#E0E0E0"/>
<path d="M159.351 107.333C158.652 108.634 157.846 109.886 156.941 111.079C156.191 112.358 155.339 113.586 154.391 114.754C154.847 113.353 155.545 112.025 156.461 110.819C157.216 109.529 158.192 108.353 159.351 107.333Z" fill="#E0E0E0"/>
<path d="M173.231 119.803C172.952 118.32 172.858 116.813 172.951 115.311C172.858 113.809 172.952 112.302 173.231 110.818C173.509 112.302 173.603 113.809 173.511 115.311C173.603 116.813 173.509 118.32 173.231 119.803Z" fill="#E0E0E0"/>
<path d="M194.601 113.864C193.085 113.245 191.701 112.394 190.511 111.349C189.203 110.428 188.077 109.317 187.181 108.06C188.472 108.969 189.707 109.941 190.881 110.971C192.177 111.875 193.419 112.841 194.601 113.864Z" fill="#E0E0E0"/>
<path d="M204.63 104.16C203.416 103.427 202.31 102.557 201.34 101.573C200.244 100.701 199.277 99.7077 198.46 98.6167C199.671 99.3545 200.773 100.227 201.74 101.213C202.838 102.082 203.809 103.073 204.63 104.16Z" fill="#E0E0E0"/>
<path d="M146.9 73.18C145.817 72.5622 144.84 71.8055 144 70.9338C143.03 70.1793 142.188 69.3015 141.5 68.3281C142.583 68.946 143.56 69.7027 144.4 70.5744C145.37 71.3289 146.212 72.2067 146.9 73.18Z" fill="#E0E0E0"/>
<path d="M159.28 61.4636C158.216 60.8795 157.255 60.1557 156.43 59.3162C155.481 58.5677 154.661 57.6954 154 56.7285C155.063 57.3279 156.02 58.0669 156.84 58.9209C157.79 59.6541 158.613 60.5112 159.28 61.4636Z" fill="#E0E0E0"/>
<g opacity="0.8">
<path fill-rule="evenodd" clip-rule="evenodd" d="M408.74 64.9679C411.01 66.031 413.115 67.3572 415 68.9123L421.65 66.7829L427.9 75.6511L422.9 80.1436C423.667 82.3275 424.104 84.594 424.2 86.8824L430.58 89.5779L428 99.8568H421C419.824 101.89 418.351 103.772 416.62 105.454L418.99 111.429L409.12 117.045L404.12 112.553C401.69 113.245 399.168 113.641 396.62 113.73L393.62 119.453L382.22 117.162V110.819C379.955 109.762 377.86 108.435 375.99 106.874L369.34 109.004L363 100.162L368 95.6697C367.225 93.4987 366.774 91.2447 366.66 88.9669L360.28 86.2714L362.84 76.0285H369.9C371.076 73.9934 372.553 72.1104 374.29 70.4308L371.92 64.4558L381.79 58.8401L386.79 63.3326C389.224 62.6413 391.75 62.2455 394.3 62.1556L397.3 56.4321L408.7 58.7323V65.0218L408.74 64.9679ZM398.69 77.0258C396.273 76.5393 393.75 76.7073 391.44 77.5085C389.129 78.3097 387.135 79.7082 385.708 81.5273C384.282 83.3465 383.487 85.5047 383.425 87.7293C383.363 89.954 384.036 92.1453 385.359 94.0264C386.682 95.9076 388.596 97.3942 390.859 98.2985C393.122 99.2028 395.633 99.4842 398.074 99.1072C400.515 98.7303 402.776 97.7118 404.573 96.1804C406.371 94.649 407.622 92.6735 408.17 90.5034C408.536 89.0589 408.582 87.5638 408.303 86.1037C408.024 84.6436 407.427 83.2473 406.546 81.995C405.666 80.7428 404.518 79.6591 403.17 78.8064C401.822 77.9536 400.299 77.3485 398.69 77.0258Z" fill="#EBEBEB"/>
</g>
<path d="M73.7002 155.079H147.7C147.7 155.079 141.16 144.387 122.12 145.941C103.94 147.433 103.01 140.685 93.7602 139.849C84.5102 139.014 76.7802 145.393 73.7002 155.079Z" fill="#F5F5F5"/>
<path d="M233.8 275.918H293.67C293.67 275.918 288.38 267.266 272.97 268.524C258.25 269.728 257.5 264.265 249.97 263.591C242.44 262.917 236.29 268.075 233.8 275.918Z" fill="#F5F5F5"/>
<path d="M465.19 139.4H319.91V226.806H465.19V139.4Z" fill="white"/>
<path d="M465.19 226.797C465.19 226.797 465.19 226.249 465.19 225.207V220.597C465.19 216.554 465.19 210.615 465.13 203.023C465.13 187.829 465.07 166.004 465.02 139.4L465.23 139.579L319.96 139.633L320.22 139.4C320.22 170.533 320.22 200.139 320.22 226.797L319.98 226.581L424.65 226.689L454.55 226.743H462.5H464.56H462.56H454.65L424.8 226.797L319.98 226.905H319.74V226.689C319.74 200.031 319.74 170.425 319.74 139.292V139.049H320.01L465.28 139.103H465.49V139.292C465.49 165.95 465.41 187.811 465.38 203.023C465.38 210.606 465.38 216.5 465.33 220.561C465.33 222.565 465.33 224.102 465.33 225.144C465.33 226.186 465.19 226.797 465.19 226.797Z" fill="#641EFF"/>
<path d="M319.91 147.199C319.91 147.064 352.41 146.965 392.49 146.965C432.57 146.965 465.07 147.064 465.07 147.199C465.07 147.334 432.58 147.433 392.49 147.433C352.4 147.433 319.91 147.37 319.91 147.199Z" fill="#641EFF"/>
<g opacity="0.3">
<path d="M325.64 143.263C325.64 143.471 325.571 143.675 325.442 143.848C325.313 144.021 325.13 144.156 324.915 144.235C324.701 144.315 324.465 144.335 324.238 144.294C324.011 144.252 323.802 144.151 323.639 144.003C323.476 143.855 323.365 143.667 323.321 143.463C323.277 143.258 323.302 143.047 323.392 142.855C323.482 142.663 323.633 142.499 323.827 142.385C324.021 142.27 324.248 142.21 324.48 142.212C324.633 142.212 324.785 142.239 324.926 142.292C325.067 142.345 325.196 142.423 325.304 142.52C325.411 142.618 325.497 142.734 325.554 142.862C325.612 142.989 325.641 143.126 325.64 143.263Z" fill="#641EFF"/>
</g>
<g opacity="0.3">
<path d="M329.63 143.263C329.63 143.471 329.561 143.675 329.432 143.848C329.303 144.021 329.12 144.156 328.905 144.235C328.691 144.315 328.455 144.335 328.228 144.294C328.001 144.252 327.792 144.151 327.629 144.003C327.466 143.855 327.355 143.667 327.311 143.463C327.267 143.258 327.292 143.047 327.382 142.855C327.472 142.663 327.624 142.499 327.817 142.385C328.011 142.27 328.238 142.21 328.47 142.212C328.623 142.212 328.775 142.239 328.916 142.292C329.058 142.345 329.186 142.423 329.294 142.52C329.402 142.618 329.487 142.734 329.545 142.862C329.602 142.989 329.631 143.126 329.63 143.263Z" fill="#641EFF"/>
</g>
<g opacity="0.3">
<path d="M333.56 143.263C333.56 143.471 333.491 143.675 333.362 143.848C333.233 144.021 333.049 144.156 332.835 144.235C332.621 144.315 332.385 144.335 332.158 144.294C331.931 144.252 331.722 144.151 331.559 144.003C331.396 143.855 331.285 143.667 331.241 143.463C331.197 143.258 331.222 143.047 331.312 142.855C331.402 142.663 331.553 142.499 331.747 142.385C331.941 142.27 332.168 142.21 332.4 142.212C332.553 142.212 332.705 142.239 332.846 142.292C332.987 142.345 333.116 142.423 333.224 142.52C333.331 142.618 333.417 142.734 333.474 142.862C333.532 142.989 333.561 143.126 333.56 143.263Z" fill="#641EFF"/>
</g>
<path d="M371.15 156.31H332.4V191.127H371.15V156.31Z" fill="#641EFF"/>
<path d="M445.27 166.148C445.27 166.283 430.15 166.382 411.51 166.382C392.87 166.382 377.75 166.283 377.75 166.148C377.75 166.013 392.87 165.915 411.51 165.915C430.15 165.915 445.27 166.022 445.27 166.148Z" fill="#641EFF"/>
<path d="M445.27 172.626C445.27 172.752 430.15 172.86 411.51 172.86C392.87 172.86 377.75 172.752 377.75 172.626C377.75 172.501 392.87 172.393 411.51 172.393C430.15 172.393 445.27 172.528 445.27 172.626Z" fill="#641EFF"/>
<path d="M445.27 179.096C445.27 179.221 430.15 179.329 411.51 179.329C392.87 179.329 377.75 179.221 377.75 179.096C377.75 178.97 392.87 178.862 411.51 178.862C430.15 178.862 445.27 178.961 445.27 179.096Z" fill="#641EFF"/>
<path d="M417.66 185.565C417.141 185.638 416.615 185.668 416.09 185.655L411.81 185.727C408.2 185.772 403.21 185.799 397.71 185.799C392.21 185.799 387.21 185.799 383.6 185.727L379.32 185.655C378.795 185.668 378.269 185.638 377.75 185.565C378.269 185.492 378.795 185.462 379.32 185.475L383.6 185.403C387.21 185.358 392.2 185.331 397.71 185.331C403.22 185.331 408.2 185.331 411.81 185.403L416.09 185.475C416.615 185.462 417.141 185.492 417.66 185.565Z" fill="#641EFF"/>
<g opacity="0.3">
<path d="M353.03 202.87H334.82V219.232H353.03V202.87Z" fill="#641EFF"/>
</g>
<path d="M386.06 202.87H367.85V219.232H386.06V202.87Z" fill="#641EFF"/>
<path d="M419.09 202.87H400.88V219.232H419.09V202.87Z" fill="#641EFF"/>
<path d="M452.12 202.87H433.91V219.232H452.12V202.87Z" fill="#641EFF"/>
<g opacity="0.3">
<path d="M371.15 156.31H332.4V191.127H371.15V156.31Z" fill="white"/>
</g>
<g opacity="0.3">
<path d="M386.06 202.87H367.85V219.232H386.06V202.87Z" fill="white"/>
</g>
<g opacity="0.3">
<path d="M419.09 202.87H400.88V219.232H419.09V202.87Z" fill="white"/>
</g>
<g opacity="0.3">
<path d="M452.12 202.87H433.91V219.232H452.12V202.87Z" fill="white"/>
</g>
<path d="M183.63 170.883H54.21V218.118H183.63V170.883Z" fill="white"/>
<path d="M183.63 218.118C183.63 218.118 183.63 217.83 183.63 217.273C183.63 216.716 183.63 215.898 183.63 214.82C183.63 212.664 183.63 209.501 183.63 205.422C183.63 197.272 183.63 185.475 183.55 170.883L183.69 171.009L54.28 171.063L54.49 170.883C54.49 187.425 54.49 203.391 54.49 218.118L54.29 217.938L147.08 218.019L174 218.073H181.21H183.07H181.25H174.09L147.22 218.118L54.29 218.198H54V170.73H54.21L183.62 170.793H183.77V170.919C183.77 185.547 183.71 197.362 183.69 205.538C183.69 209.6 183.69 212.726 183.69 214.91C183.69 215.97 183.69 216.779 183.69 217.336C183.69 217.893 183.63 218.118 183.63 218.118Z" fill="#641EFF"/>
<path d="M54.3398 177.254C54.3398 177.155 83.2699 177.065 118.94 177.065C154.61 177.065 183.56 177.155 183.56 177.254C183.56 177.352 154.63 177.433 118.94 177.433C83.2499 177.433 54.3398 177.352 54.3398 177.254Z" fill="#641EFF"/>
<g opacity="0.3">
<path d="M59.7599 174.405C59.7599 174.572 59.7048 174.736 59.6015 174.875C59.4982 175.014 59.3514 175.122 59.1796 175.186C59.0078 175.25 58.8188 175.266 58.6365 175.234C58.4542 175.201 58.2867 175.121 58.1552 175.003C58.0237 174.884 57.9342 174.734 57.8979 174.57C57.8617 174.406 57.8803 174.237 57.9514 174.082C58.0226 173.928 58.1431 173.796 58.2976 173.703C58.4522 173.61 58.634 173.561 58.8199 173.561C59.0692 173.561 59.3083 173.65 59.4846 173.808C59.6608 173.967 59.7599 174.181 59.7599 174.405Z" fill="#641EFF"/>
</g>
<g opacity="0.3">
<path d="M63.0001 174.405C63.0001 174.572 62.945 174.736 62.8417 174.875C62.7384 175.014 62.5916 175.122 62.4198 175.186C62.2481 175.25 62.0591 175.266 61.8767 175.234C61.6944 175.201 61.5269 175.121 61.3954 175.003C61.264 174.884 61.1744 174.734 61.1382 174.57C61.1019 174.406 61.1205 174.237 61.1917 174.082C61.2628 173.928 61.3833 173.796 61.5379 173.703C61.6925 173.61 61.8742 173.561 62.0601 173.561C62.3094 173.561 62.5485 173.65 62.7248 173.808C62.9011 173.967 63.0001 174.181 63.0001 174.405Z" fill="#641EFF"/>
</g>
<g opacity="0.3">
<path d="M66.1495 174.405C66.1495 174.572 66.0944 174.736 65.9911 174.875C65.8878 175.014 65.741 175.122 65.5693 175.186C65.3975 175.25 65.2085 175.266 65.0261 175.234C64.8438 175.201 64.6763 175.121 64.5448 175.003C64.4134 174.884 64.3239 174.734 64.2876 174.57C64.2513 174.406 64.2699 174.237 64.3411 174.082C64.4122 173.928 64.5327 173.796 64.6873 173.703C64.8419 173.61 65.0236 173.561 65.2095 173.561C65.4588 173.561 65.6979 173.65 65.8742 173.808C66.0505 173.967 66.1495 174.181 66.1495 174.405Z" fill="#641EFF"/>
</g>
<path d="M96.47 184.927H65.21V213.014H96.47V184.927Z" fill="#641EFF"/>
<path d="M174.68 192.456C174.68 192.555 158.59 192.645 138.75 192.645C118.91 192.645 102.82 192.555 102.82 192.456C102.82 192.357 118.91 192.277 138.75 192.277C158.59 192.277 174.68 192.357 174.68 192.456Z" fill="#641EFF"/>
<path d="M174.68 198.18C174.68 198.279 158.59 198.36 138.75 198.36C118.91 198.36 102.82 198.279 102.82 198.18C102.82 198.081 118.91 197.991 138.75 197.991C158.59 197.991 174.68 198.081 174.68 198.18Z" fill="#641EFF"/>
<path d="M149.08 203.903C148.924 203.913 148.767 203.913 148.61 203.903H147.26L142.31 203.957L125.95 204.011L109.6 203.957L104.6 203.903H103.25C103.094 203.912 102.937 203.912 102.78 203.903C102.936 203.883 103.094 203.883 103.25 203.903H104.6L109.6 203.84L125.95 203.786L142.31 203.84L147.26 203.903H148.61C148.766 203.882 148.924 203.882 149.08 203.903Z" fill="#641EFF"/>
<g opacity="0.3">
<path d="M96.47 184.927H65.21V213.014H96.47V184.927Z" fill="#F5F5F5"/>
</g>
<path d="M278.731 111.528C276.561 110.225 273.581 111.016 271.411 112.319C269.241 113.622 267.411 115.401 264.961 116.245C260.401 117.836 254.411 115.949 250.871 118.941C248.621 120.864 248.391 124.026 246.671 126.354C243.771 130.271 236.811 131.745 236.221 136.417C235.871 139.112 238.271 141.754 241.221 142.518C242.711 142.832 244.259 142.855 245.76 142.585C247.261 142.315 248.679 141.759 249.921 140.954C252.921 139.157 255.231 136.462 258.611 135.437C261.991 134.413 266.341 135.267 269.071 133.101C271.801 130.936 271.391 126.938 273.351 124.17C274.529 122.779 275.927 121.55 277.501 120.522C278.971 119.381 280.371 117.97 280.621 116.236C280.871 114.502 280.081 111.546 278.751 111.483" fill="#F5F5F5"/>
<path d="M222.38 302.415C222.51 302.352 222.91 302.712 223.29 303.224C223.67 303.736 223.88 304.221 223.76 304.293C223.64 304.365 223.24 304.006 222.85 303.485C222.46 302.963 222.26 302.487 222.38 302.415Z" fill="#263238"/>
<path d="M218.101 294.311C218.64 294.898 219.045 295.576 219.291 296.305C219.686 296.977 219.927 297.714 220.001 298.471C219.056 297.216 218.409 295.8 218.101 294.311Z" fill="#263238"/>
<path d="M215.781 285.577C216.421 286.978 216.731 288.483 216.691 289.998C216.291 289.327 216.05 288.59 215.981 287.832C215.746 287.1 215.678 286.333 215.781 285.577Z" fill="#263238"/>
<path d="M215.43 276.601C215.747 278.088 215.723 279.616 215.36 281.094C215.107 280.368 215.028 279.602 215.13 278.848C215.053 278.088 215.155 277.323 215.43 276.601Z" fill="#263238"/>
<path d="M217 267.769C217.081 268.526 216.989 269.291 216.73 270.015C216.63 270.77 216.365 271.5 215.95 272.163C215.87 271.405 215.962 270.641 216.22 269.916C216.322 269.162 216.587 268.432 217 267.769Z" fill="#263238"/>
<path d="M220.641 259.368C220.307 260.846 219.625 262.243 218.641 263.465C218.741 262.709 219.009 261.979 219.431 261.318C220.001 260.177 220.511 259.305 220.641 259.368Z" fill="#263238"/>
<path d="M226.15 251.874C225.873 252.595 225.438 253.258 224.87 253.824C224.42 254.466 223.848 255.031 223.18 255.495C223.04 255.414 223.62 254.543 224.45 253.546C225.28 252.548 226 251.793 226.15 251.874Z" fill="#263238"/>
<path d="M232.871 245.226C232.981 245.315 232.291 246.124 231.341 247.023C230.391 247.921 229.531 248.568 229.421 248.487C229.311 248.406 230.001 247.589 230.961 246.69C231.921 245.792 232.771 245.127 232.871 245.226Z" fill="#263238"/>
<path d="M239.91 238.828C240.02 238.918 239.31 239.727 238.34 240.625C237.37 241.524 236.5 242.153 236.4 242.063C236.3 241.973 237 241.164 237.97 240.266C238.94 239.367 239.81 238.738 239.91 238.828Z" fill="#263238"/>
<path d="M246.491 232.053C246.174 232.76 245.701 233.402 245.101 233.94C244.221 234.911 243.421 235.62 243.311 235.531C243.637 234.828 244.108 234.188 244.701 233.644C245.571 232.727 246.371 231.981 246.491 232.053Z" fill="#263238"/>
<path d="M251.591 224.344C251.501 225.106 251.213 225.839 250.751 226.483C250.433 227.195 249.937 227.831 249.301 228.343C249.495 227.603 249.833 226.9 250.301 226.267C250.607 225.565 251.043 224.915 251.591 224.344Z" fill="#263238"/>
<path d="M254 215.656C254.195 216.402 254.178 217.181 253.95 217.92C253.893 218.687 253.628 219.43 253.18 220.085C253.129 219.332 253.217 218.576 253.44 217.848C253.494 217.095 253.683 216.355 254 215.656Z" fill="#263238"/>
<path d="M253.281 206.734C253.724 207.389 253.978 208.133 254.021 208.899C254.226 209.646 254.226 210.426 254.021 211.172C253.706 210.471 253.524 209.727 253.481 208.971C253.28 208.24 253.212 207.484 253.281 206.734Z" fill="#263238"/>
<path d="M249.351 198.512C249.471 198.441 250.201 199.222 250.861 200.309C251.337 200.949 251.632 201.683 251.721 202.448C251.17 201.877 250.724 201.231 250.401 200.534C249.938 199.912 249.584 199.23 249.351 198.512Z" fill="#263238"/>
<path d="M242.38 192.133C243.195 192.363 243.936 192.767 244.54 193.31C245.61 194.119 246.31 194.927 246.21 195.017C246.11 195.107 245.21 194.46 244.21 193.669C243.21 192.879 242.29 192.241 242.38 192.133Z" fill="#263238"/>
<path d="M233.29 188.485C234.142 188.438 234.994 188.58 235.77 188.898C236.605 189.072 237.378 189.43 238.02 189.941C237.183 189.856 236.366 189.653 235.6 189.339C234.782 189.174 234.001 188.885 233.29 188.485Z" fill="#263238"/>
<path d="M223.351 188.081C224.116 187.738 224.966 187.577 225.821 187.613C226.669 187.501 227.536 187.581 228.341 187.847C227.528 188.037 226.689 188.116 225.851 188.081C225.022 188.198 224.179 188.198 223.351 188.081Z" fill="#263238"/>
<path d="M214.13 191.396C214.04 191.288 214.9 190.614 216.13 190.021C216.839 189.585 217.664 189.328 218.52 189.276C217.869 189.749 217.145 190.137 216.37 190.426C215.682 190.848 214.927 191.175 214.13 191.396Z" fill="#263238"/>
<path d="M207.261 197.847C207.478 197.103 207.901 196.42 208.491 195.862C209.341 194.864 210.221 194.208 210.321 194.298C210.421 194.388 209.731 195.197 208.901 196.149C208.071 197.102 207.381 197.91 207.261 197.847Z" fill="#263238"/>
<path d="M203.89 206.24C203.733 205.483 203.798 204.702 204.08 203.975C204.206 203.209 204.551 202.484 205.08 201.873C205.049 202.627 204.89 203.372 204.61 204.083C204.495 204.831 204.252 205.558 203.89 206.24Z" fill="#263238"/>
<path d="M205.08 215.09C204.551 214.478 204.206 213.754 204.08 212.987C203.793 212.261 203.724 211.48 203.88 210.723C204.227 211.409 204.466 212.134 204.59 212.879C204.872 213.591 205.037 214.335 205.08 215.09Z" fill="#263238"/>
<path d="M210.15 222.781C210.04 222.871 209.21 222.17 208.4 221.146C207.835 220.57 207.433 219.879 207.23 219.133C207.36 219.07 208.02 219.879 208.82 220.876C209.376 221.442 209.826 222.085 210.15 222.781Z" fill="#263238"/>
<path d="M217.51 228.846C216.703 228.602 215.967 228.197 215.36 227.66C214.27 226.878 213.52 226.114 213.62 226.016C214.384 226.335 215.08 226.77 215.68 227.3C216.75 228.073 217.6 228.738 217.51 228.846Z" fill="#263238"/>
<path d="M226.181 233.311C224.551 232.921 223.031 232.226 221.721 231.272C222.555 231.401 223.354 231.675 224.071 232.08C224.859 232.358 225.577 232.777 226.181 233.311Z" fill="#263238"/>
<path d="M235.701 236.034C234.852 236.121 233.992 236.029 233.191 235.764C232.346 235.652 231.544 235.359 230.851 234.911C231.693 234.922 232.528 235.059 233.321 235.315C234.155 235.426 234.961 235.669 235.701 236.034Z" fill="#263238"/>
<path d="M245.66 236.492C244.035 236.941 242.304 236.972 240.66 236.582C241.472 236.389 242.314 236.322 243.15 236.384C243.988 236.295 244.836 236.331 245.66 236.492Z" fill="#263238"/>
<path d="M255.28 234.183C253.906 235.08 252.275 235.607 250.58 235.701C251.285 235.288 252.063 234.984 252.88 234.803C253.635 234.475 254.447 234.265 255.28 234.183Z" fill="#263238"/>
<path d="M263.62 229.268C263.72 229.367 262.96 230.167 261.85 230.885C261.229 231.41 260.479 231.794 259.66 232.009C259.58 231.892 260.45 231.272 261.54 230.517C262.155 230.004 262.858 229.582 263.62 229.268Z" fill="#263238"/>
<path d="M270.13 222.475C269.899 223.212 269.478 223.889 268.9 224.452C268.07 225.458 267.24 226.15 267.13 226.069C267.02 225.988 267.67 225.171 268.49 224.174C269.31 223.176 270 222.403 270.13 222.475Z" fill="#263238"/>
<path d="M274.461 214.389C274.458 215.156 274.249 215.911 273.851 216.59C273.331 217.758 272.721 218.621 272.591 218.558C272.711 217.811 272.972 217.088 273.361 216.42C273.601 215.693 273.973 215.007 274.461 214.389Z" fill="#263238"/>
<path d="M276.4 205.593C276.617 207.103 276.382 208.638 275.72 210.04C275.692 208.535 275.922 207.035 276.4 205.593Z" fill="#263238"/>
<path d="M276.14 196.616C276.466 197.319 276.623 198.075 276.6 198.836C276.744 199.587 276.72 200.357 276.53 201.1C276.061 199.642 275.928 198.113 276.14 196.607V196.616Z" fill="#263238"/>
<path d="M274 187.847C274.464 188.487 274.774 189.206 274.91 189.959C275.211 190.669 275.347 191.427 275.31 192.187C274.852 191.545 274.542 190.827 274.4 190.075C274.099 189.365 273.962 188.607 274 187.847Z" fill="#263238"/>
<path d="M270.141 179.545C270.271 179.482 270.871 180.345 271.471 181.468C271.894 182.13 272.159 182.865 272.251 183.624C271.293 182.383 270.579 181.003 270.141 179.545Z" fill="#263238"/>
<path d="M265.221 171.719C265.351 171.647 266.011 172.465 266.711 173.516C267.197 174.133 267.537 174.834 267.711 175.574C267.088 175.068 266.582 174.457 266.221 173.777C265.742 173.155 265.403 172.457 265.221 171.719Z" fill="#263238"/>
<path d="M260.261 163.911C260.391 163.848 261.031 164.684 261.701 165.762C262.184 166.391 262.524 167.099 262.701 167.846C262.088 167.318 261.599 166.686 261.261 165.987C260.772 165.364 260.431 164.657 260.261 163.911Z" fill="#263238"/>
<path d="M256.351 155.645C257.256 156.924 257.852 158.36 258.101 159.859C257.571 159.261 257.19 158.569 256.981 157.828C256.608 157.146 256.393 156.403 256.351 155.645Z" fill="#263238"/>
<path d="M254.65 146.812C254.944 147.522 255.093 148.274 255.09 149.032C255.264 149.77 255.294 150.53 255.18 151.278C254.786 150.598 254.58 149.843 254.58 149.077C254.407 148.327 254.431 147.552 254.65 146.812Z" fill="#263238"/>
<path d="M255.481 137.873C255.56 138.625 255.499 139.384 255.301 140.119C255.265 140.876 255.079 141.622 254.751 142.32C254.557 141.572 254.557 140.795 254.751 140.047C254.8 139.281 255.05 138.536 255.481 137.873Z" fill="#263238"/>
<path d="M258.741 129.399C258.613 130.148 258.343 130.872 257.941 131.538C257.693 132.261 257.31 132.941 256.811 133.55C257.023 132.035 257.69 130.6 258.741 129.399Z" fill="#263238"/>
<path d="M264.31 121.951C264.42 122.041 263.76 122.849 262.92 123.829C262.08 124.808 261.37 125.626 261.25 125.509C261.487 124.771 261.92 124.096 262.51 123.541C263.36 122.553 264.21 121.87 264.31 121.951Z" fill="#263238"/>
<path d="M271.82 116.039C271.9 116.146 271.03 116.784 269.95 117.539C269.337 118.059 268.631 118.481 267.86 118.788C267.76 118.689 268.53 117.889 269.63 117.171C270.251 116.644 271.002 116.256 271.82 116.039Z" fill="#263238"/>
<path d="M280.721 111.978C280.047 112.432 279.293 112.781 278.491 113.011C277.758 113.381 276.96 113.633 276.131 113.757C276.061 113.64 277.011 113.083 278.291 112.589C279.033 112.21 279.867 112.001 280.721 111.978Z" fill="#263238"/>
<path d="M288 110.324C288 110.45 287.49 110.648 286.82 110.756C286.15 110.864 285.57 110.864 285.54 110.756C285.51 110.648 286.04 110.432 286.72 110.316C287.4 110.199 288 110.199 288 110.324Z" fill="#263238"/>
<path d="M308.381 83.8724C308.381 83.8724 320.121 76.3429 336.381 81.1769C336.381 81.1769 337.711 93.2707 324.681 102.885" fill="#641EFF"/>
<path d="M271.351 106.209C271.851 106.883 284.601 125.293 284.601 125.293L322.871 104.107C324.45 103.232 325.81 102.072 326.865 100.7C327.92 99.3287 328.646 97.7752 328.997 96.1383C329.349 94.5013 329.318 92.8166 328.908 91.1908C328.497 89.565 327.714 88.0336 326.611 86.6936C324.559 84.2064 321.52 82.5253 318.125 81.9998C314.73 81.4744 311.24 82.145 308.381 83.8723L271.351 106.209Z" fill="#641EFF"/>
<path d="M284.6 125.293L283.74 138.25C283.74 138.25 308.54 127.468 302.35 115.464L284.6 125.293Z" fill="#263238"/>
<path d="M289.081 95.5168C289.081 95.5168 272.261 88.8499 258.421 98.6257L271.351 106.209L289.081 95.5168Z" fill="#263238"/>
<path d="M289 106.218L265.07 119.696C265.07 119.696 265.89 122.014 266.53 121.816C267.17 121.619 285.06 112.112 290.89 109.013C291.113 108.893 291.305 108.732 291.452 108.541C291.599 108.349 291.698 108.131 291.743 107.901C291.788 107.672 291.777 107.436 291.711 107.211C291.644 106.985 291.525 106.776 291.36 106.596C291.086 106.285 290.694 106.075 290.26 106.006C289.825 105.936 289.377 106.012 289 106.218Z" fill="#263238"/>
<path d="M318.473 97.599C319.442 93.8989 316.889 90.1937 312.771 89.3231C308.653 88.4526 304.529 90.7463 303.56 94.4464C302.591 98.1465 305.144 101.852 309.262 102.722C313.38 103.593 317.504 101.299 318.473 97.599Z" fill="#FAFAFA"/>
<path d="M318.671 96.0199C318.611 96.0199 318.671 95.409 318.331 94.3667C317.884 92.8911 316.898 91.5935 315.531 90.6828C314.602 90.0568 313.524 89.6352 312.381 89.4519C311.074 89.2426 309.728 89.348 308.481 89.7574C307.087 90.2008 305.874 91.0119 305.001 92.0845C304.065 93.2244 303.561 94.6036 303.561 96.0199C303.561 97.4363 304.065 98.8155 305.001 99.9554C305.865 101.023 307.062 101.835 308.441 102.291C309.688 102.7 311.034 102.806 312.341 102.597C313.484 102.414 314.562 101.992 315.491 101.366C316.856 100.453 317.841 99.1566 318.291 97.6822C318.601 96.6399 318.571 96.0199 318.631 96.0199C318.657 96.1688 318.657 96.3204 318.631 96.4692C318.628 96.893 318.571 97.315 318.461 97.7271C318.122 99.0355 317.368 100.228 316.291 101.159C315.214 102.09 313.859 102.721 312.391 102.974C310.93 103.231 309.418 103.109 308.031 102.622C306.644 102.135 305.441 101.304 304.561 100.225C303.554 99.0095 303.011 97.5349 303.011 96.0199C303.011 94.505 303.554 93.0304 304.561 91.815C305.486 90.6788 306.773 89.8206 308.251 89.3531C309.49 88.9496 310.823 88.8361 312.125 89.0232C313.426 89.2102 314.653 89.6917 315.691 90.4223C317.123 91.3933 318.129 92.7867 318.531 94.3577C318.641 94.7698 318.698 95.1919 318.701 95.6156C318.713 95.751 318.703 95.8873 318.671 96.0199Z" fill="#263238"/>
<path d="M328.001 100.647C327.901 100.647 327.791 99.3084 327.201 97.2149C326.852 95.9904 326.407 94.7894 325.871 93.6209C324.538 90.7685 322.656 88.1496 320.311 85.8848C319.35 84.9634 318.317 84.1046 317.221 83.3151C315.331 81.9763 314.021 81.3294 314.071 81.2485C314.404 81.349 314.723 81.4847 315.021 81.6529C315.388 81.8242 315.746 82.0132 316.091 82.2189C316.491 82.4615 316.961 82.7131 317.441 83.0545C318.59 83.8145 319.664 84.6623 320.651 85.5883C323.094 87.8529 325.017 90.5273 326.311 93.4592C326.839 94.6511 327.257 95.8802 327.561 97.1341C327.711 97.6642 327.771 98.1584 327.851 98.5896C327.917 98.9555 327.96 99.3245 327.981 99.6948C328.038 100.01 328.045 100.331 328.001 100.647Z" fill="#263238"/>
<path d="M325.94 101.6C325.84 101.6 325.72 100.243 325.12 98.1136C324.764 96.8711 324.313 95.6523 323.77 94.4657C323.088 93.0187 322.275 91.6243 321.34 90.2966C320.387 88.9812 319.316 87.7372 318.14 86.5768C317.165 85.6328 316.115 84.753 315 83.9442C313.09 82.5695 311.76 81.9046 311.81 81.8237C312.161 81.9271 312.497 82.0689 312.81 82.246C313.18 82.4209 313.537 82.616 313.88 82.83C314.29 83.0726 314.77 83.3422 315.25 83.7286C316.402 84.4987 317.486 85.3489 318.49 86.2713C319.71 87.4354 320.811 88.6954 321.78 90.036C322.727 91.3892 323.54 92.8143 324.21 94.2949C324.745 95.5079 325.17 96.7579 325.48 98.0327C325.63 98.5718 325.69 99.075 325.77 99.5063C325.844 99.8775 325.89 100.253 325.91 100.629C325.96 100.951 325.97 101.276 325.94 101.6Z" fill="#263238"/>
<path d="M91.8401 387.27C90.9801 384.215 93.2302 381.16 95.7402 378.958C98.2502 376.757 101.24 374.789 102.56 371.869C104.69 367.143 101.9 360.988 105.56 357.053C107.68 354.735 111.48 353.98 113.36 351.5C114.236 350.133 114.82 348.631 115.08 347.071C117.124 339.202 121.482 331.972 127.7 326.135C128.088 333.153 126.36 340.134 122.7 346.343C121.23 348.823 119.43 351.24 118.94 354.016C118.12 358.509 120.94 363.172 119.64 367.592C118.19 372.642 111.85 376.002 111.51 381.205C111.23 385.616 115.51 389.498 115.13 393.901C114.867 395.771 114.109 397.558 112.92 399.112C109 404.728 103.43 408.6 95.0002 408.429L84.6602 408.699L91.8401 387.27Z" fill="#641EFF"/>
<g opacity="0.3">
<path d="M91.8401 387.27C90.9801 384.215 93.2302 381.16 95.7402 378.958C98.2502 376.757 101.24 374.789 102.56 371.869C104.69 367.143 101.9 360.988 105.56 357.053C107.68 354.735 111.48 353.98 113.36 351.5C114.236 350.133 114.82 348.631 115.08 347.071C117.124 339.202 121.482 331.972 127.7 326.135C128.088 333.153 126.36 340.134 122.7 346.343C121.23 348.823 119.43 351.24 118.94 354.016C118.12 358.509 120.94 363.172 119.64 367.592C118.19 372.642 111.85 376.002 111.51 381.205C111.23 385.616 115.51 389.498 115.13 393.901C114.867 395.771 114.109 397.558 112.92 399.112C109 404.728 103.43 408.6 95.0002 408.429L84.6602 408.699L91.8401 387.27Z" fill="black"/>
</g>
<path d="M82.5598 408.932C81.6126 409.061 80.6475 409.037 79.7098 408.861C78.5674 408.704 77.4451 408.445 76.3598 408.088C74.8627 407.608 73.4639 406.91 72.2198 406.021C71.4736 405.477 70.8923 404.773 70.5298 403.973C70.2233 403.073 70.065 402.137 70.0598 401.196C70.0443 400.19 69.9709 399.186 69.8398 398.186C69.6447 397.125 69.2201 396.109 68.5898 395.194C67.3898 393.263 65.3698 391.439 64.7398 388.815C64.1098 386.191 64.5698 383.424 65.0698 380.684C65.5698 377.943 66.0698 374.861 64.8798 371.95C63.6898 369.039 61.5398 366.406 60.4298 363.127C59.3198 359.847 59.8698 356.262 59.6498 352.749C59.5927 350.967 59.1477 349.211 58.3398 347.583C57.5098 345.938 56.3398 344.384 55.4698 342.65C53.6598 339.137 53.3598 335.174 52.8798 331.284C52.6498 329.325 52.4098 327.339 52.1798 325.345C52.0377 323.332 51.6623 321.339 51.0598 319.397C50.3779 317.435 49.5665 315.512 48.6298 313.637C48.1426 312.666 47.7478 311.659 47.4498 310.627C47.2796 309.567 47.1728 308.499 47.1298 307.429C47.0319 305.283 47.139 303.134 47.4498 301.004C47.7398 298.866 48.1898 296.736 48.4498 294.589C48.4498 294.463 48.4498 294.337 48.4498 294.221L48.4998 293.798L48.9198 293.987C51.1087 294.998 53.0054 296.453 54.4598 298.237C55.8831 299.976 57.0245 301.888 57.8498 303.915C59.5498 307.914 60.1398 312.101 60.9898 316.09C61.8398 320.08 62.9098 324.024 65.1598 327.348C66.2898 329.011 67.6498 330.529 68.8398 332.146C70.1055 333.725 70.9692 335.535 71.3698 337.448C71.9498 341.383 69.5198 344.824 69.9998 348.302C70.2498 350.014 70.9044 351.659 71.9198 353.126C72.8498 354.618 73.9198 355.993 74.9798 357.385C76.0428 358.737 76.9634 360.175 77.7298 361.68C78.4615 363.157 78.8917 364.739 78.9998 366.352C79.2298 369.488 78.7198 372.453 78.9998 375.266C79.2662 377.937 80.1157 380.535 81.4998 382.912C82.7298 385.203 84.1098 387.279 85.2598 389.282C85.8338 390.249 86.3511 391.241 86.8098 392.256C87.2229 393.204 87.5213 394.189 87.6998 395.194C87.9842 396.952 87.9842 398.738 87.6998 400.496C87.4138 402.951 86.3753 405.287 84.6998 407.243C84.4476 407.535 84.1665 407.806 83.8598 408.052C83.6553 408.245 83.4272 408.417 83.1798 408.564L82.5898 408.932C83.3264 408.4 83.997 407.797 84.5898 407.135C86.1948 405.176 87.1796 402.863 87.4398 400.442C87.684 398.703 87.6503 396.942 87.3398 395.212C87.1539 394.228 86.8522 393.264 86.4398 392.337C86.0098 391.376 85.4398 390.405 84.8898 389.408C83.7198 387.422 82.3298 385.356 81.0698 383.047C79.6466 380.631 78.7665 377.987 78.4798 375.266C78.2198 372.399 78.7198 369.425 78.4798 366.361C78.3735 364.811 77.9604 363.289 77.2598 361.869C76.4981 360.393 75.5876 358.982 74.5398 357.655C73.5398 356.271 72.3998 354.888 71.4398 353.369C70.4054 351.834 69.7442 350.119 69.4998 348.337C69.0298 344.627 71.4398 341.149 70.8398 337.51C70.4454 335.685 69.6052 333.96 68.3798 332.461C67.2098 330.871 65.8398 329.352 64.6798 327.654C62.3598 324.231 61.2398 320.223 60.4098 316.207C59.5798 312.191 58.9598 308.049 57.2898 304.131C56.4869 302.158 55.3758 300.297 53.9898 298.605C52.5967 296.899 50.7826 295.506 48.6898 294.535L49.1698 294.293L49.1198 294.67C48.8398 296.844 48.3998 298.974 48.1198 301.085C47.8092 303.184 47.7022 305.304 47.7998 307.42C47.8598 308.453 47.9298 309.54 48.0998 310.519C48.3961 311.512 48.7772 312.482 49.2398 313.422C50.1876 315.317 51.0091 317.261 51.6998 319.244C52.3009 321.214 52.6729 323.234 52.8098 325.273C53.0498 327.268 53.2798 329.253 53.5098 331.212C53.9798 335.12 54.2798 339.02 56.0198 342.407C56.8898 344.097 58.0198 345.651 58.8798 347.358C59.717 349.059 60.1789 350.89 60.2398 352.749C60.4398 356.343 59.8998 359.838 60.9598 363.019C62.0198 366.2 64.2498 368.823 65.3698 371.833C66.4898 374.843 66.0398 377.997 65.5298 380.773C65.0198 383.55 64.5298 386.29 65.1498 388.761C65.7698 391.232 67.6798 393.074 68.9098 395.051C69.5552 396.002 69.9867 397.059 70.1798 398.159C70.3084 399.171 70.3751 400.188 70.3798 401.205C70.3699 402.118 70.5114 403.026 70.7998 403.901C71.1406 404.665 71.6869 405.341 72.3898 405.869C73.5891 406.748 74.9402 407.446 76.3898 407.935C77.4572 408.307 78.5625 408.583 79.6898 408.762C80.3834 408.875 81.0853 408.941 81.7898 408.959C82.3098 408.924 82.5598 408.932 82.5598 408.932Z" fill="#263238"/>
<path d="M50.5899 299.351C50.636 299.44 50.6696 299.533 50.6898 299.63C50.7398 299.854 50.8199 300.124 50.9099 300.465C51.1099 301.202 51.3399 302.307 51.7199 303.691C52.0999 305.075 53.0499 306.629 53.8399 308.552C54.6299 310.475 55.4899 312.667 56.2499 315.147C57.0099 317.627 57.7098 320.385 58.4198 323.332C59.0239 326.496 60.1179 329.569 61.6698 332.461C62.5098 333.97 63.4499 335.507 64.1999 337.178C64.9318 338.896 65.4223 340.688 65.6599 342.515C66.1562 346.296 66.8739 350.051 67.8099 353.764C69.8099 361.384 71.8099 368.644 73.5199 375.257C75.2299 381.87 76.9398 387.782 78.3098 392.786C79.6798 397.791 80.7199 401.771 81.4799 404.611L82.3098 407.836C82.3898 408.178 82.4599 408.456 82.5099 408.681C82.5209 408.776 82.5209 408.873 82.5099 408.968C82.459 408.881 82.422 408.787 82.3999 408.69L82.1298 407.863C81.8998 407.091 81.5798 406.021 81.1298 404.665L77.7499 392.885C76.3499 387.89 74.6799 381.959 72.8299 375.391C70.9799 368.823 69.1099 361.518 67.0599 353.89C66.1486 350.149 65.4609 346.367 64.9999 342.56C64.7823 340.776 64.3118 339.025 63.5998 337.349C62.8798 335.722 61.9499 334.195 61.1099 332.668C59.5646 329.753 58.4775 326.659 57.8799 323.476C57.1899 320.52 56.5398 317.77 55.7998 315.299C55.0598 312.829 54.2799 310.609 53.4899 308.704C52.6999 306.8 51.8499 305.209 51.4899 303.781C51.1299 302.352 50.9499 301.274 50.7999 300.528C50.7299 300.187 50.6799 299.899 50.6399 299.675C50.6063 299.569 50.5894 299.46 50.5899 299.351Z" fill="#263238"/>
<path d="M80.7297 408.951C73.9997 405.312 72.1297 394.359 74.9897 387.782C77.8497 381.205 82.8197 375.203 83.6197 368.194C84.2397 362.803 82.3097 357.251 83.7397 352.021C85.6797 344.905 93.4497 339.442 93.4097 332.111C93.4097 328.004 90.8097 324.123 91.0397 320.017C91.3297 314.985 95.6497 311.032 98.3397 306.593C102.46 299.827 102.78 291.804 104.22 284.202C105.66 276.601 108.94 268.461 116.47 264.759C117.54 271.228 119.41 275.667 118.76 284.418C118.52 287.554 114.42 293.556 113.82 300.438C113.47 304.553 113.21 308.678 112.91 312.802C112.61 316.926 112.29 320.888 110.67 324.635C109.43 327.501 107.44 330.098 106.51 333.063C104.76 338.643 106.98 344.699 105.51 350.35C104.31 355.139 100.59 359.245 99.7997 364.097C98.6997 370.926 103.57 378.042 101.01 384.547C99.7397 387.773 96.7697 390.352 95.9097 393.685C95.2397 396.273 95.9097 399.013 95.3297 401.61C94.3297 405.797 85.4297 409.004 80.6797 408.726" fill="#641EFF"/>
<path d="M114.569 271.12C114.583 271.243 114.583 271.366 114.569 271.489C114.569 271.758 114.479 272.108 114.409 272.549C114.249 273.447 114.069 274.849 113.709 276.619C113.349 278.389 112.279 280.402 111.449 282.81C110.619 285.218 109.699 287.994 108.919 291.112C108.139 294.23 107.469 297.662 106.769 301.364C106.069 305.066 105.299 309.1 103.229 312.954C102.229 314.886 101.229 316.827 100.389 318.885C99.599 321.005 99.1052 323.205 98.9194 325.435C98.5143 330.173 97.8233 334.888 96.8494 339.559C94.7194 349.119 92.6994 358.23 90.8494 366.514L85.6894 388.474C84.1994 394.691 82.9894 399.732 82.1494 403.263C81.7194 404.979 81.3894 406.327 81.1494 407.279L80.8794 408.321C80.8515 408.441 80.8114 408.559 80.7594 408.672C80.7482 408.552 80.7482 408.432 80.7594 408.313C80.8194 408.043 80.8894 407.693 80.9694 407.252C81.1794 406.291 81.4694 404.943 81.8494 403.218C82.6394 399.678 83.7794 394.619 85.1794 388.384C86.5794 382.148 88.3094 374.664 90.1794 366.397L96.1794 339.442C97.144 334.788 97.835 330.091 98.2494 325.372C98.4417 323.095 98.9524 320.849 99.7694 318.687C100.599 316.584 101.689 314.635 102.649 312.721C104.709 308.929 105.449 304.958 106.199 301.265C106.949 297.572 107.619 294.077 108.449 291.004C109.279 287.931 110.169 285.11 111.079 282.702C111.989 280.294 113.019 278.29 113.429 276.556C113.839 274.822 114.059 273.438 114.259 272.522C114.349 272.082 114.429 271.74 114.479 271.471C114.499 271.352 114.529 271.235 114.569 271.12Z" fill="#263238"/>
<path d="M419.44 267.553H412.47V287.787H419.44V267.553Z" fill="#641EFF"/>
<path d="M432.27 259.224H425.3V287.778H432.27V259.224Z" fill="#641EFF"/>
<path d="M445.92 255.333H438.95V287.778H445.92V255.333Z" fill="#641EFF"/>
<path d="M459.579 251.236H452.609V287.787H459.579V251.236Z" fill="#641EFF"/>
<path d="M177.52 293.826C178.042 293.891 178.549 294.034 179.02 294.248C180.126 294.733 181.053 295.495 181.69 296.441C182.327 297.388 182.646 298.479 182.61 299.585C182.579 300.628 182.233 301.643 181.61 302.523C180.918 303.501 179.919 304.274 178.74 304.742C177.473 305.248 176.058 305.374 174.705 305.1C173.352 304.827 172.134 304.169 171.23 303.224C170.812 302.78 170.474 302.28 170.23 301.741C169.97 301.229 169.805 300.683 169.74 300.124C169.595 299.088 169.764 298.035 170.23 297.078C170.718 296.063 171.525 295.197 172.551 294.586C173.577 293.975 174.779 293.645 176.01 293.637C176.538 293.619 177.065 293.683 177.57 293.826C177.57 293.826 177.01 293.727 176.02 293.763C174.609 293.813 173.259 294.291 172.19 295.119C171.453 295.679 170.874 296.387 170.5 297.186C170.075 298.103 169.927 299.104 170.07 300.088C170.143 300.616 170.305 301.131 170.55 301.616C170.797 302.128 171.134 302.602 171.55 303.017C172.409 303.904 173.562 304.521 174.839 304.778C176.116 305.035 177.451 304.919 178.65 304.446C179.222 304.227 179.749 303.923 180.21 303.547C180.667 303.203 181.062 302.797 181.38 302.343C181.845 301.687 182.154 300.951 182.286 300.182C182.418 299.412 182.37 298.627 182.147 297.875C181.923 297.123 181.528 296.421 180.986 295.814C180.444 295.206 179.768 294.707 179 294.347C178.07 293.924 177.51 293.826 177.52 293.826Z" fill="#263238"/>
<path d="M182.6 287.707C182.595 287.641 182.595 287.575 182.6 287.509C182.6 287.356 182.6 287.159 182.6 286.898C182.6 286.341 182.6 285.541 182.6 284.499L182.65 284.553L176.88 283.421L176.98 283.376L175.46 286.278V286.332H175.39C174.112 286.382 172.848 286.584 171.63 286.934H171.56L171.51 286.889L168.97 284.634H169L164 287.491L164.06 287.338L165.26 290.357V290.429L165.2 290.492C164.337 291.337 163.601 292.279 163.01 293.295V293.367H163H159.44L159.59 293.25C159.19 294.877 158.75 296.629 158.31 298.426L158.22 298.255L161.44 299.63L161.53 299.675V299.765C161.586 300.908 161.805 302.04 162.18 303.134V303.224L162.1 303.296L159.58 305.569V305.371L162.74 309.864L162.53 309.792L165.89 308.714H166L166.08 308.777C167.01 309.555 168.053 310.217 169.18 310.744C169.23 310.807 169.09 310.601 169.28 310.888V314.087L169.14 313.925L174.9 315.093L174.7 315.183C175.21 314.204 175.7 313.242 176.23 312.281L176.28 312.2H176.39C177.66 312.157 178.918 311.96 180.13 311.616H180.24L180.31 311.679L182.84 313.952H182.62L187.62 311.122L187.55 311.292C187.14 310.268 186.75 309.262 186.35 308.273V308.193L186.42 308.121C187.288 307.281 188.028 306.341 188.62 305.326V305.254H192.28L192.14 305.362C192.6 303.565 193.03 301.822 193.44 300.178L193.52 300.322L190.3 298.938H190.23V298.866C190.186 297.719 189.971 296.583 189.59 295.488V295.425V295.38L192.12 293.107V293.232L188.98 288.74H189.08L185.71 289.791C185.002 289.202 184.236 288.673 183.42 288.21L182.8 287.877L182.6 287.761L182.82 287.85L183.45 288.156C184.284 288.604 185.068 289.125 185.79 289.71H185.73L189.08 288.614H189.14V288.668L192.32 293.161V293.223L192.26 293.286L189.75 295.56V295.452C190.146 296.566 190.372 297.724 190.42 298.893L190.35 298.794L193.58 300.16L193.68 300.205V300.304C193.28 301.939 192.85 303.655 192.4 305.479V305.587H188.71L188.85 305.515C188.248 306.553 187.494 307.513 186.61 308.372V308.228C187 309.217 187.41 310.223 187.81 311.247L187.86 311.364L187.74 311.427L182.74 314.266L182.62 314.338L182.52 314.248L179.99 311.984H180.17C178.926 312.339 177.634 312.542 176.33 312.586L176.48 312.496C175.98 313.449 175.48 314.419 174.95 315.39L174.89 315.506H174.75L168.99 314.347H168.85V310.897C169.04 311.185 168.85 310.978 168.95 311.041C167.794 310.501 166.724 309.824 165.77 309.028H165.95L162.59 310.097L162.45 310.142L162.38 310.034L159.22 305.542L159.14 305.434L159.24 305.344L161.76 303.071V303.233C161.369 302.114 161.143 300.954 161.09 299.783L161.19 299.908L158 298.579L157.88 298.525V298.408L159.18 293.232V293.116H163L162.87 293.188C163.471 292.152 164.224 291.194 165.11 290.339V290.474L163.92 287.446V287.347L164.02 287.293L169.02 284.463L169.11 284.418L169.19 284.481L171.71 286.754H171.59C172.828 286.406 174.113 286.21 175.41 286.17L175.32 286.224L176.87 283.331V283.268H176.94L182.69 284.463H182.74C182.74 285.496 182.74 286.26 182.74 286.844C182.74 287.105 182.74 287.311 182.74 287.455C182.7 287.542 182.653 287.626 182.6 287.707Z" fill="#263238"/>
<path fill-rule="evenodd" clip-rule="evenodd" d="M171.72 247.4C172.983 247.993 174.153 248.733 175.2 249.601L178.92 248.415L182.41 253.366L179.63 255.882C180.057 257.105 180.302 258.374 180.36 259.655L183.92 261.174L182.49 266.87H178.55C177.887 268.005 177.06 269.057 176.09 269.997L177.42 273.34L171.9 276.475L169.1 274.058C167.742 274.441 166.333 274.661 164.91 274.714L163.22 277.913L156.85 276.628V273.088C155.586 272.494 154.416 271.751 153.37 270.878L149.65 272.073L146.15 267.113L148.94 264.606C148.516 263.382 148.27 262.114 148.21 260.832L144.65 259.314L146.07 253.591H150C150.658 252.454 151.482 251.403 152.45 250.464L151.14 247.103L156.65 243.959L159.45 246.465C160.812 246.082 162.224 245.862 163.65 245.81L165.34 242.611L171.71 243.896V247.436L171.72 247.4ZM166.1 254.139C164.75 253.867 163.34 253.961 162.049 254.409C160.758 254.858 159.644 255.64 158.847 256.657C158.051 257.674 157.607 258.88 157.574 260.123C157.54 261.366 157.917 262.59 158.658 263.641C159.398 264.692 160.468 265.522 161.734 266.026C162.999 266.53 164.402 266.686 165.766 266.474C167.129 266.262 168.393 265.691 169.395 264.834C170.398 263.977 171.096 262.872 171.4 261.659C171.603 260.853 171.626 260.018 171.469 259.203C171.312 258.389 170.978 257.61 170.486 256.912C169.993 256.213 169.353 255.609 168.6 255.133C167.848 254.657 166.998 254.319 166.1 254.139Z" fill="#641EFF"/>
<g opacity="0.8">
<path fill-rule="evenodd" clip-rule="evenodd" d="M171.72 247.4C172.983 247.993 174.153 248.733 175.2 249.601L178.92 248.415L182.41 253.366L179.63 255.882C180.057 257.105 180.302 258.374 180.36 259.655L183.92 261.174L182.49 266.87H178.55C177.887 268.005 177.06 269.057 176.09 269.997L177.42 273.34L171.9 276.475L169.1 274.058C167.742 274.441 166.333 274.661 164.91 274.714L163.22 277.913L156.85 276.628V273.088C155.586 272.494 154.416 271.751 153.37 270.878L149.65 272.073L146.15 267.113L148.94 264.606C148.516 263.382 148.27 262.114 148.21 260.832L144.65 259.314L146.07 253.591H150C150.658 252.454 151.482 251.403 152.45 250.464L151.14 247.103L156.65 243.959L159.45 246.465C160.812 246.082 162.224 245.862 163.65 245.81L165.34 242.611L171.71 243.896V247.436L171.72 247.4ZM166.1 254.139C164.75 253.867 163.34 253.961 162.049 254.409C160.758 254.858 159.644 255.64 158.847 256.657C158.051 257.674 157.607 258.88 157.574 260.123C157.54 261.366 157.917 262.59 158.658 263.641C159.398 264.692 160.468 265.522 161.734 266.026C162.999 266.53 164.402 266.686 165.766 266.474C167.129 266.262 168.393 265.691 169.395 264.834C170.398 263.977 171.096 262.872 171.4 261.659C171.603 260.853 171.626 260.018 171.469 259.203C171.312 258.389 170.978 257.61 170.486 256.912C169.993 256.213 169.353 255.609 168.6 255.133C167.848 254.657 166.998 254.319 166.1 254.139Z" fill="white"/>
</g>
<path fill-rule="evenodd" clip-rule="evenodd" d="M148.68 281.13C149.406 281.474 150.079 281.903 150.68 282.406L152.85 281.714L154.85 284.598L153.23 286.062C153.48 286.773 153.624 287.51 153.66 288.255L155.73 289.153L155 292.478H152.7C152.315 293.13 151.838 293.734 151.28 294.275L152.05 296.216L148.83 298.013L147.21 296.557C146.415 296.778 145.591 296.904 144.76 296.934L143.76 298.803L140.05 298.048V295.991C139.322 295.645 138.649 295.213 138.05 294.706L135.88 295.398L133.88 292.514L135.5 291.049C135.254 290.338 135.112 289.601 135.08 288.857L133 287.958L133.83 284.625H136C136.389 283.973 136.87 283.37 137.43 282.828L136.66 280.887L139.87 279.09L141.5 280.555C142.29 280.326 143.111 280.196 143.94 280.168L144.94 278.308L148.65 279.054V281.121L148.68 281.13ZM145.41 285.047C144.623 284.887 143.8 284.94 143.046 285.2C142.292 285.46 141.641 285.915 141.176 286.508C140.71 287.1 140.45 287.804 140.43 288.529C140.409 289.254 140.629 289.969 141.06 290.582C141.492 291.195 142.116 291.679 142.854 291.973C143.592 292.268 144.411 292.358 145.206 292.234C146.002 292.11 146.739 291.777 147.323 291.276C147.908 290.776 148.314 290.131 148.49 289.423C148.726 288.476 148.534 287.483 147.957 286.663C147.379 285.843 146.463 285.262 145.41 285.047Z" fill="#641EFF"/>
<g opacity="0.4">
<path fill-rule="evenodd" clip-rule="evenodd" d="M148.68 281.13C149.406 281.474 150.079 281.903 150.68 282.406L152.85 281.714L154.85 284.598L153.23 286.062C153.48 286.773 153.624 287.51 153.66 288.255L155.73 289.153L155 292.478H152.7C152.315 293.13 151.838 293.734 151.28 294.275L152.05 296.216L148.83 298.013L147.21 296.557C146.415 296.778 145.591 296.904 144.76 296.934L143.76 298.803L140.05 298.048V295.991C139.322 295.645 138.649 295.213 138.05 294.706L135.88 295.398L133.88 292.514L135.5 291.049C135.254 290.338 135.112 289.601 135.08 288.857L133 287.958L133.83 284.625H136C136.389 283.973 136.87 283.37 137.43 282.828L136.66 280.887L139.87 279.09L141.5 280.555C142.29 280.326 143.111 280.196 143.94 280.168L144.94 278.308L148.65 279.054V281.121L148.68 281.13ZM145.41 285.047C144.623 284.887 143.8 284.94 143.046 285.2C142.292 285.46 141.641 285.915 141.176 286.508C140.71 287.1 140.45 287.804 140.43 288.529C140.409 289.254 140.629 289.969 141.06 290.582C141.492 291.195 142.116 291.679 142.854 291.973C143.592 292.268 144.411 292.358 145.206 292.234C146.002 292.11 146.739 291.777 147.323 291.276C147.908 290.776 148.314 290.131 148.49 289.423C148.726 288.476 148.534 287.483 147.957 286.663C147.379 285.843 146.463 285.262 145.41 285.047Z" fill="white"/>
</g>
<path d="M369.53 248.065C371.627 247.523 373.463 246.366 374.744 244.778C376.025 243.191 376.678 241.264 376.6 239.304C376.48 237.507 375.75 235.836 375.83 234.075C375.96 231.379 377.98 229.034 379.5 226.662C381.02 224.29 382.03 221.172 380.26 218.944C379.12 217.498 377.09 216.851 375.7 215.593C374.31 214.335 373.7 212.655 372.96 211.046C372.22 209.438 371.29 207.776 369.61 206.922C367.93 206.069 365.36 206.437 364.67 208.063" fill="#263238"/>
<path d="M351.37 203.742C354.37 202.025 355.09 198.063 353.46 195.233C351.83 192.402 348.39 190.677 344.89 190.165C342.344 189.817 339.742 190.015 337.296 190.743C334.851 191.47 332.632 192.707 330.82 194.352C328.89 196.149 327.32 198.476 324.7 199.294C322.4 200.022 319.85 199.366 317.43 199.653C315.817 199.916 314.289 200.499 312.958 201.36C311.627 202.221 310.528 203.339 309.74 204.631C308.191 207.231 307.261 210.092 307.01 213.032C306.66 215.728 306.42 218.648 304.36 220.597C302.3 222.547 299.15 222.907 296.65 224.263C294.348 225.627 292.73 227.746 292.143 230.167C291.556 232.588 292.047 235.119 293.51 237.22C294.51 238.514 295.93 239.709 296.04 241.281C296.15 242.853 295.12 243.976 294.63 245.378C294.378 246.264 294.34 247.188 294.519 248.089C294.698 248.989 295.09 249.844 295.668 250.597C296.246 251.35 296.997 251.983 297.87 252.452C298.744 252.922 299.719 253.218 300.73 253.321C302.81 253.429 305.03 252.701 306.9 253.537C308.77 254.372 309.44 256.376 310.62 257.903C311.839 259.376 313.582 260.43 315.56 260.888C317.538 261.345 319.631 261.18 321.49 260.419C323.02 259.745 324.49 258.622 326.16 258.739C327.83 258.856 329.16 260.141 330.86 260.428C333.05 260.805 335.12 259.359 336.42 257.733C337.72 256.106 338.63 254.192 340.29 252.863C342.47 251.12 345.53 250.697 348.29 249.844C351.34 248.896 354.128 247.372 356.466 245.374C358.804 243.375 360.638 240.949 361.843 238.259C363.047 235.569 363.596 232.678 363.45 229.782C363.305 226.885 362.47 224.05 361 221.469" fill="#263238"/>
<path d="M358 207.273C359.192 207.389 360.292 207.904 361.083 208.714C361.874 209.524 362.297 210.571 362.27 211.648L359.41 269.754C359.29 276.619 348.13 280.474 339.95 280.303C331.69 280.132 331.43 276.493 331.32 269.961C331.15 259.053 331.17 254.956 331.16 255.019C331.15 255.082 320.73 253.447 318.6 241.209C317.54 235.117 317.9 225.144 318.49 216.994C319.03 209.654 324.49 200.66 332.6 201.45L358 207.273Z" fill="#FFBE9D"/>
<path d="M321.439 224.91C321.436 225.319 321.61 225.713 321.923 226.01C322.236 226.306 322.665 226.482 323.119 226.501C323.341 226.517 323.564 226.492 323.776 226.43C323.987 226.367 324.182 226.267 324.35 226.136C324.518 226.004 324.654 225.844 324.752 225.664C324.85 225.485 324.907 225.29 324.92 225.09C324.928 224.681 324.758 224.286 324.445 223.989C324.133 223.692 323.704 223.516 323.249 223.5C323.027 223.484 322.804 223.508 322.592 223.57C322.38 223.633 322.184 223.733 322.015 223.864C321.847 223.995 321.709 224.156 321.61 224.335C321.511 224.515 321.453 224.71 321.439 224.91Z" fill="#263238"/>
<path d="M320.84 222.188C321.06 222.395 322.38 221.514 324.26 221.523C326.14 221.532 327.51 222.377 327.72 222.17C327.93 221.963 327.6 221.712 327 221.316C326.188 220.808 325.22 220.538 324.23 220.544C323.254 220.536 322.301 220.81 321.51 221.325C320.93 221.721 320.73 222.098 320.84 222.188Z" fill="#263238"/>
<path d="M340.17 224.91C340.167 225.319 340.34 225.713 340.653 226.01C340.967 226.306 341.395 226.482 341.85 226.501C342.072 226.517 342.295 226.492 342.506 226.43C342.717 226.367 342.913 226.267 343.08 226.136C343.248 226.004 343.385 225.844 343.483 225.664C343.58 225.485 343.637 225.29 343.65 225.09C343.658 224.68 343.487 224.283 343.172 223.986C342.858 223.688 342.426 223.514 341.97 223.5C341.748 223.484 341.525 223.508 341.314 223.571C341.102 223.633 340.907 223.733 340.74 223.865C340.572 223.996 340.435 224.156 340.337 224.336C340.239 224.515 340.183 224.711 340.17 224.91Z" fill="#263238"/>
<path d="M339.31 222.538C339.53 222.745 340.85 221.864 342.73 221.873C344.61 221.882 345.98 222.772 346.19 222.52C346.4 222.269 346.07 222.062 345.47 221.667C344.658 221.158 343.69 220.888 342.7 220.894C341.725 220.891 340.773 221.165 339.98 221.676C339.4 222.08 339.2 222.448 339.31 222.538Z" fill="#263238"/>
<path d="M332.46 235.045C331.487 234.767 330.479 234.598 329.46 234.542C328.98 234.497 328.52 234.407 328.46 234.12C328.421 233.674 328.536 233.228 328.79 232.844C329.24 231.802 329.72 230.705 330.21 229.564C332.21 224.892 333.63 221.047 333.42 220.984C333.21 220.921 331.42 224.641 329.42 229.304C328.95 230.463 328.49 231.559 328.06 232.61C327.752 233.128 327.66 233.727 327.8 234.3C327.869 234.452 327.976 234.588 328.113 234.697C328.25 234.806 328.413 234.885 328.59 234.928C328.857 234.995 329.133 235.031 329.41 235.036C330.423 235.152 331.447 235.155 332.46 235.045Z" fill="#263238"/>
<path d="M331.11 255.019C337.521 255.122 343.839 253.626 349.36 250.697C349.36 250.697 344.74 259.323 331.11 258.146V255.019Z" fill="#EB996E"/>
<path d="M333.24 239.116C333.596 238.718 334.057 238.407 334.581 238.211C335.105 238.015 335.675 237.94 336.24 237.992C336.655 238.025 337.058 238.133 337.424 238.311C337.79 238.489 338.112 238.732 338.37 239.026C338.616 239.309 338.762 239.653 338.789 240.011C338.816 240.37 338.722 240.728 338.52 241.038C338.215 241.339 337.818 241.553 337.378 241.652C336.939 241.751 336.477 241.731 336.05 241.595C335.165 241.307 334.35 240.868 333.65 240.302C333.443 240.161 333.264 239.991 333.12 239.798C333.051 239.705 333.014 239.596 333.014 239.484C333.014 239.372 333.051 239.263 333.12 239.169" fill="#641EFF"/>
<path d="M338 236.222C337.69 236.222 337.68 238.019 335.93 239.34C334.18 240.661 332.01 240.427 332 240.688C332 240.796 332.48 241.038 333.4 241.065C334.594 241.087 335.758 240.723 336.68 240.041C337.571 239.393 338.145 238.458 338.28 237.435C338.35 236.672 338.12 236.213 338 236.222Z" fill="#263238"/>
<path d="M338.47 219.582C338.65 220.04 340.53 219.825 342.73 220.067C344.93 220.31 346.73 220.858 347.01 220.445C347.15 220.247 346.84 219.816 346.12 219.366C345.16 218.824 344.076 218.483 342.948 218.369C341.821 218.255 340.68 218.372 339.61 218.71C338.8 218.998 338.39 219.366 338.47 219.582Z" fill="#263238"/>
<path d="M321.54 217.3C321.87 217.686 323.17 217.3 324.72 217.3C326.27 217.3 327.6 217.561 327.9 217.165C328.04 216.967 327.83 216.581 327.25 216.222C326.479 215.782 325.579 215.56 324.667 215.584C323.754 215.608 322.87 215.877 322.13 216.357C321.58 216.716 321.4 217.111 321.54 217.3Z" fill="#263238"/>
<path d="M349 203.292C350.551 202.317 352.316 201.651 354.178 201.341C356.039 201.031 357.953 201.084 359.79 201.495C363.42 202.394 366.43 205.377 366.56 208.683C366.64 210.84 365.56 213.176 366.67 215.09C367.78 217.003 370.18 217.695 371.96 219.043C373.324 220.114 374.25 221.565 374.591 223.164C374.931 224.763 374.667 226.418 373.84 227.866C372.35 230.319 369.23 232.116 368.97 234.884C368.72 237.489 371.16 239.691 371.76 242.251C372.41 245.073 370.67 247.993 368.18 249.871C365.69 251.749 362.53 252.782 359.45 253.77C357.05 254.552 354.45 255.343 351.98 254.83C350.521 254.478 349.211 253.746 348.214 252.726C347.217 251.706 346.579 250.444 346.38 249.098C346.231 247.756 346.407 246.402 346.896 245.127C347.384 243.852 348.174 242.687 349.21 241.712C350.96 239.978 353.42 238.514 353.84 236.222C354.49 232.628 349.77 229.744 350.06 226.15C350.21 224.299 351.67 222.763 352.88 221.235C354.09 219.708 355.15 217.794 354.4 216.06C353.4 213.796 350.13 213.203 348.13 211.567C347.306 210.87 346.713 209.981 346.418 208.999C346.123 208.017 346.138 206.981 346.46 206.006C346.824 205.032 347.476 204.165 348.346 203.499C349.216 202.832 350.272 202.391 351.4 202.223" fill="#263238"/>
<path d="M350.47 200.534C350.477 201.764 350.181 202.981 349.604 204.097C349.027 205.213 348.184 206.201 347.133 206.991C346.082 207.78 344.851 208.351 343.526 208.664C342.202 208.977 340.817 209.023 339.47 208.8C337.39 208.459 335.11 207.515 333.31 208.512C331.51 209.51 331.31 212.106 329.66 213.427C327.26 215.305 323.45 213.544 320.4 214.326C318.05 214.955 316.58 216.967 315.01 218.674C313.44 220.382 311.11 221.99 308.75 221.37C308.821 219.463 309.136 217.57 309.69 215.727C310.253 213.875 311.511 212.253 313.25 211.136C314.279 210.655 315.28 210.127 316.25 209.555C318.25 208.144 318.66 205.673 319.86 203.696C320.654 202.424 321.773 201.34 323.126 200.534C324.479 199.727 326.027 199.222 327.64 199.06C330.32 198.818 333.08 199.536 335.64 198.943C337.57 198.512 339.26 197.389 341.21 197.048C345.02 196.401 348.56 198.845 351.32 201.297" fill="#263238"/>
<path d="M375.34 229.78C375.59 229.346 375.698 228.857 375.65 228.369C375.527 227.716 375.205 227.105 374.719 226.606C374.234 226.106 373.604 225.737 372.9 225.539C371.922 225.228 370.919 224.985 369.9 224.811C368.683 224.613 367.528 224.184 366.51 223.553C365.966 223.159 365.527 222.661 365.222 222.095C364.918 221.53 364.757 220.911 364.75 220.283C364.735 218.998 364.805 217.714 364.96 216.437C364.999 215.807 364.963 215.174 364.85 214.55C364.719 213.968 364.445 213.419 364.05 212.942C363.154 212.114 362.018 211.529 360.77 211.253C359.599 210.952 358.477 210.517 357.43 209.959C356.519 209.469 355.69 208.863 354.97 208.162C353.917 207.157 353.101 205.971 352.57 204.676C352.418 204.33 352.301 203.972 352.22 203.607C352.16 203.355 352.14 203.229 352.16 203.22C352.18 203.211 352.34 203.732 352.75 204.613C353.486 206.148 354.607 207.509 356.023 208.592C357.44 209.675 359.116 210.45 360.92 210.858C362.26 211.142 363.482 211.766 364.44 212.655C364.891 213.185 365.206 213.799 365.36 214.452C365.48 215.111 365.52 215.779 365.48 216.446C365.33 217.709 365.257 218.977 365.26 220.247C365.259 220.813 365.397 221.373 365.665 221.886C365.933 222.398 366.324 222.851 366.81 223.212C367.768 223.81 368.855 224.223 370 224.425C371.022 224.62 372.025 224.887 373 225.225C373.839 225.513 374.573 226.004 375.12 226.644C375.517 227.137 375.756 227.718 375.81 228.324C375.836 228.709 375.75 229.093 375.56 229.439C375.47 229.69 375.35 229.789 375.34 229.78Z" fill="#455A64"/>
<path d="M295.15 237.417L294.92 237.319C294.714 237.202 294.539 237.046 294.41 236.86C294.221 236.47 294.147 236.042 294.196 235.619C294.245 235.195 294.415 234.79 294.69 234.443C295.03 233.905 295.537 233.468 296.15 233.185C296.86 232.869 297.591 232.592 298.34 232.359C299.18 232.107 299.958 231.71 300.63 231.191C301.311 230.551 301.767 229.744 301.94 228.873C302.16 227.974 302.23 226.95 302.42 225.908C302.563 224.789 303.028 223.724 303.77 222.817C305.35 220.948 307.95 219.951 309.89 218.189C310.858 217.263 311.586 216.155 312.02 214.946C312.482 213.669 312.817 212.358 313.02 211.028C313.44 208.333 313.87 205.332 315.88 202.87C316.86 201.633 318.331 200.78 319.99 200.489C321.565 200.287 323.167 200.32 324.73 200.588C326.189 200.842 327.678 200.92 329.16 200.821C330.554 200.676 331.841 200.079 332.78 199.141C334.64 197.344 335.7 194.918 337.99 193.678C339.01 193.119 340.147 192.755 341.331 192.608C342.515 192.461 343.719 192.535 344.87 192.825C346.776 193.312 348.397 194.446 349.39 195.987C350.14 197.132 350.547 198.433 350.57 199.761C350.597 200.593 350.451 201.422 350.14 202.205C350.036 202.481 349.898 202.746 349.73 202.996C349.73 202.996 349.85 202.717 350.04 202.178C350.301 201.398 350.413 200.584 350.37 199.77C350.313 198.481 349.893 197.226 349.15 196.122C348.172 194.66 346.603 193.594 344.77 193.148C343.668 192.887 342.518 192.832 341.391 192.986C340.264 193.141 339.185 193.502 338.22 194.047C337.172 194.694 336.278 195.521 335.59 196.482C334.844 197.527 334.023 198.526 333.13 199.474C332.628 199.966 332.04 200.381 331.39 200.705C330.711 201.016 329.977 201.22 329.22 201.307C327.696 201.411 326.162 201.336 324.66 201.082C323.153 200.821 321.61 200.785 320.09 200.974C318.56 201.252 317.205 202.042 316.3 203.184C315.389 204.343 314.727 205.644 314.35 207.021C313.989 208.378 313.712 209.752 313.52 211.136C313.322 212.49 312.987 213.826 312.52 215.126C312.061 216.396 311.288 217.557 310.26 218.522C308.21 220.319 305.64 221.325 304.14 223.095C303.437 223.947 302.99 224.946 302.84 225.997C302.65 227.022 302.57 228.028 302.32 228.98C302.131 229.914 301.629 230.773 300.88 231.442C300.173 231.98 299.353 232.386 298.47 232.637C297.726 232.857 296.998 233.118 296.29 233.419C295.712 233.677 295.227 234.075 294.89 234.569C294.625 234.893 294.453 235.271 294.39 235.67C294.328 236.068 294.375 236.474 294.53 236.851C294.695 237.074 294.905 237.266 295.15 237.417Z" fill="#455A64"/>
<path d="M261.74 321.679L285.89 319.693C285.89 319.693 300.75 284.517 319.07 275.99L330.94 294.616L305.53 337.501H255.93L261.74 321.679Z" fill="#641EFF"/>
<path opacity="0.3" d="M261.74 321.679L285.89 319.693C285.89 319.693 300.75 284.517 319.07 275.99L330.94 294.616L305.53 337.501H255.93L261.74 321.679Z" fill="black"/>
<path d="M271.28 331.562C272.473 329.141 273.991 326.86 275.8 324.77C274.591 327.183 273.074 329.463 271.28 331.562Z" fill="#FAFAFA"/>
<path d="M288.39 331.14C286.294 329.297 284.447 327.237 282.89 325.003C284.006 325.861 284.998 326.842 285.84 327.924C286.825 328.904 287.681 329.983 288.39 331.14Z" fill="#FAFAFA"/>
<path d="M291.36 323.081C291.013 321.194 291.013 319.27 291.36 317.384C291.706 319.27 291.706 321.194 291.36 323.081Z" fill="#FAFAFA"/>
<path d="M282.86 335.651C282.017 335.439 281.23 335.076 280.55 334.581C279.35 333.872 278.45 333.216 278.55 333.108C279.39 333.329 280.175 333.696 280.86 334.186C282 334.887 282.94 335.543 282.86 335.651Z" fill="#FAFAFA"/>
<path d="M296.73 303.323C296.334 304.679 295.774 305.993 295.06 307.24C294.502 308.55 293.785 309.801 292.92 310.969C293.304 309.61 293.861 308.296 294.58 307.051C295.143 305.742 295.864 304.491 296.73 303.323Z" fill="#FAFAFA"/>
<path d="M306.52 289.072C306.6 289.171 305.74 289.89 304.59 290.681C303.936 291.218 303.172 291.636 302.34 291.912C302.26 291.804 303.12 291.085 304.27 290.303C304.921 289.762 305.686 289.344 306.52 289.072Z" fill="#FAFAFA"/>
<path d="M342.64 334.68L355.1 289.477C356.142 285.684 358.752 282.39 362.401 280.266C366.049 278.141 370.461 277.345 374.74 278.039C379.135 278.753 383.046 280.982 385.639 284.25C388.231 287.518 389.301 291.566 388.62 295.533L381 339.712C380.09 344.234 377.634 348.388 373.974 351.597C370.315 354.807 365.633 356.912 360.58 357.619L350.68 359.003L342.64 334.68Z" fill="#641EFF"/>
<path d="M381.9 275.119C380.6 274.163 379.081 273.478 377.45 273.115C375.687 272.746 373.853 272.746 372.09 273.115C369.944 273.602 367.949 274.524 366.26 275.81C362.61 278.56 360.63 282.1 359.26 284.634C358.59 285.901 358.08 286.943 357.72 287.662C357.555 288.046 357.35 288.416 357.11 288.767C357.208 288.366 357.349 287.975 357.53 287.599C357.84 286.853 358.29 285.802 358.92 284.49C359.659 282.968 360.514 281.494 361.48 280.078C362.68 278.338 364.175 276.777 365.91 275.451C367.654 274.105 369.727 273.147 371.96 272.657C373.793 272.282 375.699 272.303 377.52 272.72C378.744 273.002 379.893 273.5 380.9 274.184C381.169 274.372 381.42 274.579 381.65 274.804C381.83 275.029 381.91 275.11 381.9 275.119Z" fill="#263238"/>
<path d="M311.33 285.29C311.231 285.441 311.114 285.583 310.98 285.712L309.92 286.862C308.99 287.859 307.68 289.315 306.18 291.193C302.193 296.052 299.303 301.564 297.67 307.42C295.94 314.311 295.85 320.762 295.56 325.39C295.43 327.708 295.31 329.586 295.2 330.88C295.14 331.491 295.09 331.985 295.05 332.371C295.038 332.546 295.011 332.721 294.97 332.892C294.942 332.719 294.942 332.544 294.97 332.371C294.97 331.976 294.97 331.473 295.02 330.871C295.02 329.514 295.13 327.654 295.21 325.381C295.41 320.762 295.43 314.284 297.21 307.321C298.845 301.408 301.809 295.858 305.92 291.013C307.47 289.144 308.83 287.707 309.8 286.745C310.28 286.26 310.68 285.901 310.94 285.658C311.058 285.525 311.188 285.402 311.33 285.29Z" fill="#263238"/>
<path d="M391.15 285.191C389.78 277.104 384.82 275.172 379.67 272.657C377.99 271.83 369.88 269.961 363.45 268.55C362.83 265.055 361.73 258.784 361.45 257.463C361.11 255.603 328.69 260.248 328.28 260.949C328.01 261.407 327.28 268.667 326.79 273.528L319.03 275.963L308.94 287.536L303.67 294.257C300.565 298.134 298.346 302.525 297.14 307.177C296.008 312.329 295.521 317.579 295.69 322.829L294.12 352.48L362 369.713L367.2 339.649L384.7 318.247C386.19 309.594 392.83 295.128 391.15 285.191Z" fill="#641EFF"/>
<path d="M333.26 274.436C333.023 273.767 332.872 273.077 332.81 272.378C332.6 271.102 332.34 269.332 332.09 267.373C331.97 266.403 331.86 265.478 331.75 264.606C331.647 263.849 331.587 263.087 331.57 262.324C331.56 261.785 331.731 261.256 332.06 260.805C332.32 260.5 332.54 260.419 332.56 260.437C332.58 260.455 332.41 260.599 332.23 260.904C332.003 261.348 331.903 261.836 331.94 262.324C331.94 262.953 332.12 263.707 332.23 264.561C332.34 265.415 332.47 266.358 332.61 267.319C332.86 269.278 333.06 271.057 333.18 272.342C333.296 273.035 333.323 273.737 333.26 274.436Z" fill="#263238"/>
<path d="M341.91 272.603C341.573 272.007 341.331 271.372 341.19 270.716C340.286 267.605 339.948 264.382 340.19 261.174C340.197 260.508 340.305 259.846 340.51 259.206C340.67 259.206 340.38 262.234 340.77 265.936C341.16 269.638 342.07 272.567 341.91 272.603Z" fill="#263238"/>
<path d="M358 270.464C358.205 268.23 358.141 265.983 357.81 263.761C357.299 261.566 356.514 259.429 355.47 257.391C355.972 257.891 356.375 258.466 356.66 259.089C358.254 262.011 358.885 265.281 358.48 268.515C358.433 269.183 358.271 269.841 358 270.464Z" fill="#263238"/>
<path d="M312 296.934C313.545 294.288 315.554 291.882 317.95 289.809C316.097 292.27 314.111 294.648 312 296.934Z" fill="#FAFAFA"/>
<path d="M327.229 285.739C325.29 283.987 323.609 282.018 322.229 279.881C323.247 280.709 324.15 281.644 324.919 282.666C325.83 283.599 326.606 284.632 327.229 285.739Z" fill="#FAFAFA"/>
<path d="M343.19 278.749C342.214 279.79 341.147 280.761 340 281.651C338.977 282.655 337.87 283.59 336.69 284.445C337.495 283.277 338.489 282.223 339.64 281.318C340.671 280.304 341.868 279.438 343.19 278.749Z" fill="#FAFAFA"/>
<path d="M338.71 270.195C337.779 269.756 336.937 269.179 336.22 268.488C335.384 267.907 334.658 267.21 334.07 266.421C335 266.87 335.844 267.45 336.57 268.137C337.404 268.714 338.127 269.409 338.71 270.195Z" fill="#FAFAFA"/>
<path d="M352.7 263.492C351.633 263.941 350.497 264.244 349.33 264.39C348.203 264.683 347.034 264.828 345.86 264.822C346.926 264.377 348.058 264.074 349.22 263.923C350.351 263.63 351.523 263.485 352.7 263.492Z" fill="#FAFAFA"/>
<path d="M355.5 283.394C355.179 282.374 355.031 281.317 355.06 280.258C354.917 279.209 354.944 278.146 355.14 277.104C355.461 278.124 355.61 279.181 355.58 280.24C355.724 281.289 355.697 282.352 355.5 283.394Z" fill="#FAFAFA"/>
<path d="M350.4 292.927C349.659 291.795 349.068 290.589 348.64 289.333C348.06 288.113 347.637 286.838 347.38 285.532C348.695 287.897 349.702 290.39 350.38 292.963L350.4 292.927Z" fill="#FAFAFA"/>
<path d="M336.54 299.71C335.743 298.512 335.099 297.237 334.62 295.91C333.971 294.637 333.488 293.301 333.18 291.929C333.97 293.134 334.614 294.411 335.1 295.739C335.74 297.011 336.223 298.343 336.54 299.71Z" fill="#FAFAFA"/>
<path d="M323.5 307.357C322.576 304.89 321.992 302.332 321.76 299.738C322.298 300.948 322.674 302.212 322.88 303.502C323.254 304.761 323.462 306.055 323.5 307.357Z" fill="#FAFAFA"/>
<path d="M308 307.662C306.459 305.516 305.21 303.212 304.28 300.798C305.821 302.944 307.07 305.249 308 307.662Z" fill="#FAFAFA"/>
<path d="M307.67 316.594C306.4 317.405 305.039 318.095 303.61 318.651C302.249 319.342 300.807 319.894 299.31 320.295C300.577 319.474 301.942 318.781 303.38 318.229C304.737 317.542 306.176 316.993 307.67 316.594Z" fill="#FAFAFA"/>
<path d="M307.86 330.718C307.18 329.707 306.703 328.597 306.45 327.438C306.029 326.325 305.829 325.154 305.86 323.979C306.34 325.06 306.705 326.179 306.95 327.322C307.37 328.426 307.675 329.563 307.86 330.718Z" fill="#FAFAFA"/>
<path d="M304.649 340.637C303.464 339.963 302.37 339.167 301.389 338.265C300.296 337.482 299.318 336.576 298.479 335.57C299.665 336.244 300.759 337.04 301.739 337.942C302.833 338.726 303.811 339.631 304.649 340.637Z" fill="#FAFAFA"/>
<path d="M325.07 333.863C325.07 333.998 322.81 334.591 320.13 335.66C317.45 336.729 315.41 337.825 315.32 337.708C316.686 336.653 318.241 335.814 319.92 335.229C321.536 334.509 323.279 334.047 325.07 333.863Z" fill="#FAFAFA"/>
<path d="M319.1 328.948C318.456 327.986 317.961 326.949 317.63 325.866C317.13 324.838 316.794 323.752 316.63 322.64C317.272 323.599 317.763 324.633 318.09 325.713C318.596 326.743 318.936 327.832 319.1 328.948Z" fill="#FAFAFA"/>
<path d="M331.21 316.8C330.455 318.321 329.541 319.774 328.48 321.14C327.565 322.603 326.5 323.987 325.3 325.273C326.976 322.306 328.955 319.484 331.21 316.845V316.8Z" fill="#FAFAFA"/>
<path d="M344.23 317.959C342.913 316.746 341.792 315.373 340.9 313.88C339.859 312.469 339.038 310.936 338.46 309.325C338.6 309.271 339.76 311.265 341.35 313.646C342.94 316.027 344.35 317.887 344.23 317.959Z" fill="#FAFAFA"/>
<path d="M352 306.404C350.787 306.831 349.492 307.039 348.19 307.015C346.899 307.151 345.591 307.06 344.34 306.746C345.609 306.594 346.889 306.528 348.17 306.548C349.441 306.418 350.721 306.37 352 306.404Z" fill="#FAFAFA"/>
<path d="M370.53 293.277C367.357 294.992 364.008 296.43 360.53 297.572C363.709 295.867 367.057 294.429 370.53 293.277Z" fill="#FAFAFA"/>
<path d="M371.76 284.921C372.78 282.394 374.122 279.982 375.76 277.733C375.337 279.022 374.746 280.262 374 281.426C373.403 282.664 372.652 283.836 371.76 284.921Z" fill="#FAFAFA"/>
<path d="M383.52 291.48C382.905 290.152 382.397 288.786 382 287.392C381.443 286.045 380.995 284.664 380.66 283.259C382.155 285.823 383.124 288.608 383.52 291.48Z" fill="#FAFAFA"/>
<path d="M385.37 300.178C383.996 300.852 382.516 301.337 380.98 301.615C379.487 302.042 377.928 302.258 376.36 302.253C377.828 301.799 379.328 301.436 380.85 301.166C382.33 300.745 383.84 300.415 385.37 300.178Z" fill="#FAFAFA"/>
<path d="M365.21 310.798C365.06 310.798 365.49 308.588 365.61 305.865C365.73 303.143 365.53 300.933 365.68 300.915C366.142 302.536 366.294 304.216 366.13 305.883C366.14 307.557 365.828 309.219 365.21 310.798Z" fill="#FAFAFA"/>
<path d="M361.19 321.733C358.501 319.818 356.287 317.418 354.69 314.689C354.82 314.617 356.14 316.279 357.94 318.22C359.092 319.338 360.177 320.511 361.19 321.733Z" fill="#FAFAFA"/>
<path d="M381.4 319.424C380.091 320.164 378.692 320.767 377.23 321.221C375.835 321.824 374.369 322.288 372.86 322.604C375.567 321.256 378.431 320.18 381.4 319.397V319.424Z" fill="#FAFAFA"/>
<path d="M374.16 339.999C373.857 336.709 373.893 333.4 374.27 330.116C374.587 333.406 374.55 336.716 374.16 339.999Z" fill="#FAFAFA"/>
<path d="M358.65 338.813C358.903 335.376 359.841 332.007 361.42 328.867C361.56 328.912 360.8 331.095 360.04 333.836C359.28 336.576 358.8 338.84 358.65 338.813Z" fill="#FAFAFA"/>
<path d="M359.36 344.213C359.36 344.348 356.88 344.564 353.84 345.022C350.8 345.48 348.36 345.983 348.32 345.849C350.055 345.194 351.883 344.759 353.75 344.555C355.593 344.203 357.482 344.088 359.36 344.213Z" fill="#FAFAFA"/>
<path d="M342.2 340.754C343.069 339.624 344.076 338.585 345.2 337.654C346.191 336.619 347.312 335.691 348.54 334.887C347.671 336.017 346.665 337.056 345.54 337.987C344.547 339.02 343.426 339.948 342.2 340.754Z" fill="#FAFAFA"/>
<path d="M331.09 350.431C330.56 349.286 330.109 348.113 329.74 346.918C329.197 345.776 328.73 344.605 328.34 343.414C329.926 345.496 330.874 347.916 331.09 350.431Z" fill="#FAFAFA"/>
<path d="M349 356.02C345.589 355.004 342.297 353.692 339.17 352.102C340.894 352.539 342.569 353.123 344.17 353.845C345.851 354.435 347.468 355.162 349 356.02Z" fill="#FAFAFA"/>
<path d="M317.76 354.394C317.9 353.263 318.216 352.156 318.7 351.105C319.016 350.006 319.497 348.951 320.13 347.969C319.988 349.099 319.672 350.206 319.19 351.258C318.866 352.354 318.385 353.408 317.76 354.394Z" fill="#FAFAFA"/>
<path d="M338.36 357.529C338.36 357.664 335.49 357.251 331.95 357.089C328.41 356.927 325.54 357.089 325.53 356.909C327.654 356.539 329.826 356.442 331.98 356.622C334.144 356.647 336.293 356.953 338.36 357.529Z" fill="#FAFAFA"/>
<path d="M342.64 331.032C342.621 330.913 342.621 330.792 342.64 330.673C342.638 330.329 342.695 329.986 342.81 329.658C342.966 329.103 343.352 328.624 343.89 328.319C344.627 327.936 345.495 327.808 346.33 327.959L346.13 328.067C347.22 324.617 348.97 319.585 350.72 313.943C352.36 308.66 353.47 303.799 354.24 300.268C354.62 298.569 354.92 297.159 355.16 296.09C355.251 295.576 355.381 295.068 355.55 294.571C355.538 295.093 355.474 295.613 355.36 296.125C355.2 297.123 354.94 298.56 354.6 300.33C353.734 304.958 352.606 309.544 351.22 314.069C349.47 319.72 347.66 324.734 346.46 328.157L346.41 328.292H346.26C345.505 328.137 344.713 328.233 344.03 328.561C343.534 328.827 343.161 329.245 342.98 329.738C342.65 330.529 342.71 331.041 342.64 331.032Z" fill="#263238"/>
<path d="M365.06 343.531C364.98 343.531 364.36 342.345 363.06 340.53C359.727 335.791 355.027 331.953 349.46 329.424C347.33 328.463 345.92 328.023 345.95 327.942C346.292 327.99 346.627 328.072 346.95 328.184C347.854 328.448 348.74 328.763 349.6 329.128C355.349 331.529 360.149 335.447 363.36 340.359C363.843 341.095 364.273 341.857 364.65 342.641C364.839 342.916 364.977 343.216 365.06 343.531Z" fill="#263238"/>
<g opacity="0.2">
<path d="M346.55 327.286C350.14 327.366 353.696 327.945 357.09 329.002C360.68 330.206 364 332.524 365.32 335.759C365.534 336.123 365.63 336.535 365.596 336.947C365.562 337.358 365.401 337.753 365.13 338.086C364.873 338.284 364.561 338.414 364.228 338.463C363.895 338.512 363.553 338.478 363.24 338.364C362.614 338.129 362.049 337.78 361.58 337.34C359.38 335.543 357.09 333.89 354.82 332.129C352.55 330.368 349.23 328.535 346.27 328.112" fill="black"/>
</g>
<path d="M339.34 321.553C339.033 321.771 338.697 321.952 338.34 322.092C337.355 322.525 336.327 322.874 335.27 323.135C331.751 324.037 328.028 324.076 324.487 323.25C320.946 322.424 317.715 320.762 315.13 318.435C314.349 317.742 313.64 316.987 313.01 316.18C312.76 315.906 312.551 315.604 312.39 315.282C312.47 315.228 313.39 316.54 315.39 318.229C317.987 320.433 321.162 322.012 324.62 322.82C328.078 323.627 331.707 323.636 335.17 322.847C337.78 322.218 339.29 321.463 339.34 321.553Z" fill="#263238"/>
<g opacity="0.2">
<path d="M312.88 315.947C314.57 319.235 316.54 322.551 319.74 324.761C321.509 326.134 323.719 326.965 326.05 327.133C329.39 327.187 332.26 325.138 334.81 323.197C326.55 324.366 317.25 320.996 312.88 315.947Z" fill="black"/>
</g>
<path d="M349.86 271.92C349.7 271.92 349.86 268.829 349.48 265.064C349.1 261.3 348.25 258.308 348.4 258.272C348.73 258.883 348.963 259.534 349.09 260.204C349.522 261.787 349.823 263.396 349.99 265.019C350.169 266.644 350.216 268.277 350.13 269.907C350.139 270.586 350.048 271.263 349.86 271.92Z" fill="#263238"/>
<path d="M231.24 392.157C231.24 392.157 220.37 394.269 210.67 392.957C201.57 391.735 181.2 393.002 181.21 403.739C181.21 415.752 208.38 412.787 218.97 410.882C229.56 408.977 240.12 407.288 240.12 407.288L231.24 392.157Z" fill="#641EFF"/>
<path d="M206.839 407.549C206.242 406.201 205.803 404.801 205.529 403.371C205.094 401.972 204.826 400.535 204.729 399.085C205.314 400.434 205.739 401.834 205.999 403.263C206.448 404.661 206.73 406.098 206.839 407.549Z" fill="#263238"/>
<path d="M210.549 407.71C209.763 404.881 209.321 401.982 209.229 399.067C209.706 400.462 210.015 401.899 210.149 403.353C210.451 404.789 210.585 406.249 210.549 407.71Z" fill="#263238"/>
<path d="M214.13 406.453C213.711 405.236 213.456 403.978 213.37 402.706C213.111 401.453 213.027 400.177 213.12 398.905C213.792 401.376 214.127 403.91 214.12 406.453H214.13Z" fill="#263238"/>
<path d="M219.75 405.24C219.054 404.261 218.582 403.167 218.36 402.023C217.969 400.912 217.833 399.741 217.96 398.582C218.342 399.671 218.643 400.781 218.86 401.906C219.244 402.997 219.541 404.111 219.75 405.24Z" fill="#263238"/>
<path d="M221 400.801C221.465 400.705 221.944 400.674 222.42 400.711C223.722 400.752 225.008 400.979 226.23 401.385C226.652 401.52 227.05 401.711 227.41 401.951C227.622 402.09 227.797 402.269 227.923 402.476C228.049 402.682 228.123 402.911 228.14 403.146C228.117 403.405 228.033 403.657 227.892 403.884C227.751 404.111 227.556 404.307 227.323 404.46C227.089 404.613 226.821 404.719 226.537 404.769C226.254 404.82 225.961 404.815 225.68 404.755C224.531 404.472 223.53 403.836 222.85 402.958C221.721 401.649 221.075 400.057 221.001 398.403C220.928 396.749 221.431 395.115 222.44 393.73C222.644 393.507 222.926 393.352 223.24 393.29C223.404 393.271 223.57 393.284 223.727 393.329C223.884 393.374 224.029 393.45 224.15 393.55C224.535 393.906 224.775 394.368 224.83 394.862C224.953 395.675 224.906 396.5 224.69 397.297C224.391 398.453 223.756 399.516 222.85 400.379C222.611 400.615 222.346 400.828 222.06 401.017C221.965 401.089 221.856 401.147 221.74 401.188C221.74 401.188 222.12 400.882 222.74 400.289C223.55 399.411 224.109 398.368 224.37 397.252C224.55 396.493 224.574 395.71 224.44 394.943C224.389 394.545 224.196 394.173 223.89 393.883C223.812 393.824 223.721 393.782 223.623 393.758C223.526 393.735 223.423 393.731 223.323 393.746C223.224 393.761 223.129 393.796 223.045 393.848C222.962 393.899 222.892 393.966 222.84 394.045C221.927 395.357 221.481 396.888 221.561 398.434C221.642 399.98 222.245 401.467 223.29 402.697C223.887 403.501 224.779 404.093 225.81 404.368C226.023 404.418 226.246 404.427 226.464 404.394C226.682 404.361 226.889 404.287 227.072 404.177C227.256 404.066 227.411 403.922 227.528 403.754C227.645 403.585 227.72 403.397 227.75 403.2C227.734 403.023 227.675 402.851 227.579 402.696C227.482 402.541 227.349 402.407 227.19 402.302C226.873 402.074 226.519 401.892 226.14 401.763C224.958 401.341 223.716 401.075 222.45 400.972C221.46 400.819 221 400.837 221 400.801Z" fill="#263238"/>
<path d="M239.05 405.698L238.78 405.779L237.96 405.958L234.81 406.605C232.07 407.144 228.09 407.908 223.15 408.762C218.21 409.615 212.31 410.559 205.69 411.394C202.225 411.906 198.706 412.066 195.2 411.871C193.334 411.758 191.491 411.441 189.71 410.927C188.796 410.648 187.912 410.293 187.07 409.867C186.191 409.444 185.408 408.877 184.76 408.196C184.398 407.896 184.082 407.555 183.82 407.18C183.31 406.392 182.997 405.514 182.902 404.607C182.807 403.699 182.933 402.784 183.27 401.924C183.925 400.265 185.142 398.832 186.75 397.827C188.264 396.869 189.934 396.126 191.7 395.626C192.57 395.401 193.41 395.131 194.27 394.961C195.13 394.79 195.98 394.601 196.83 394.494C203.64 393.532 209.83 394.017 214.99 394.017C217.57 394.062 219.9 394.017 221.94 393.892C223.684 393.779 225.42 393.581 227.14 393.299L229.02 392.939L230.37 392.598L231.2 392.391C231.294 392.361 231.391 392.343 231.49 392.337C231.49 392.337 231.4 392.382 231.22 392.436L230.4 392.688L229.06 393.074L227.19 393.478C225.463 393.792 223.716 394.017 221.96 394.152C219.91 394.287 217.57 394.377 214.96 394.35C209.8 394.395 203.61 393.936 196.89 394.916C196.05 395.024 195.22 395.23 194.37 395.392C193.52 395.554 192.7 395.832 191.84 396.048C190.123 396.536 188.501 397.261 187.03 398.195C185.511 399.146 184.36 400.5 183.74 402.068C183.43 402.863 183.315 403.709 183.401 404.547C183.487 405.386 183.774 406.198 184.24 406.929C184.479 407.26 184.765 407.562 185.09 407.827C185.701 408.449 186.429 408.969 187.24 409.364C188.049 409.776 188.9 410.119 189.78 410.388C191.523 410.884 193.326 411.185 195.15 411.287C198.621 411.483 202.105 411.335 205.54 410.846C212.14 410.065 218.05 409.121 222.99 408.313C227.93 407.504 231.92 406.785 234.68 406.3L237.85 405.743L238.67 405.608C238.803 405.613 238.932 405.644 239.05 405.698Z" fill="#263238"/>
<path d="M199.31 411.529C199.147 410.704 199.056 409.869 199.04 409.031C198.92 407.495 198.72 405.365 198.37 403.038C198.02 400.711 197.6 398.609 197.26 397.09C197.027 396.28 196.87 395.453 196.79 394.619C197.162 395.39 197.44 396.194 197.62 397.018C198.166 398.981 198.59 400.97 198.89 402.975C199.184 404.978 199.358 406.994 199.41 409.013C199.473 409.853 199.44 410.696 199.31 411.529Z" fill="#263238"/>
<path opacity="0.4" d="M227.89 392.679L234.78 408.178L240.12 407.288L229.89 392.157L227.89 392.679Z" fill="black"/>
<path d="M317.65 350.197C316.54 350.521 245.37 332.605 216.59 325.336C212.853 324.39 208.935 324.171 205.097 324.693C201.258 325.215 197.588 326.467 194.33 328.364L193.98 328.562C189.255 331.307 185.589 335.296 183.482 339.984C181.376 344.672 180.931 349.83 182.21 354.753C183.031 357.923 184.545 360.916 186.663 363.556C188.781 366.197 191.462 368.433 194.55 370.135C213.55 380.585 253.7 402.562 254.93 402.131C256.54 401.574 306.7 400.406 306.7 400.406L246.35 361.402L275.06 378.078L317.65 350.224V350.197Z" fill="#263238"/>
<path d="M258.23 330.736L273.36 323.701L288.2 332.057L343.74 333.692L351.74 357.952L271.34 341.204C271.34 341.204 256.71 342.372 255.61 339.407C254.51 336.441 258.23 330.736 258.23 330.736Z" fill="#FFBE9D"/>
<path d="M303.74 369.677L296.26 391.762L297.19 398.492C303.776 404.455 312.557 408.056 321.886 408.62C331.215 409.184 340.453 406.672 347.87 401.556C352.467 398.384 356.187 394.301 358.74 389.626C361.294 384.951 362.611 379.809 362.59 374.601L362.48 351.545L303.74 369.677Z" fill="#263238"/>
<path d="M259.2 369.821C259.12 369.92 250.44 364.232 239.82 357.116C229.2 350 220.65 344.142 220.74 344.043C220.83 343.944 229.5 349.622 240.13 356.739C250.76 363.855 259.29 369.713 259.2 369.821Z" fill="#455A64"/>
<path d="M272.34 328.103C269.934 329.042 267.462 329.837 264.94 330.484C262.468 331.271 259.943 331.916 257.38 332.416C259.785 331.476 262.257 330.68 264.78 330.035C267.251 329.247 269.777 328.601 272.34 328.103Z" fill="#EB996E"/>
<path d="M273.47 332.245C272.626 332.461 271.763 332.608 270.89 332.686C269.3 332.919 267.11 333.27 264.71 333.764C262.31 334.258 260.17 334.806 258.62 335.219C257.796 335.487 256.95 335.694 256.09 335.839C256.852 335.458 257.661 335.156 258.5 334.941C260.495 334.305 262.528 333.771 264.59 333.341C266.651 332.917 268.738 332.599 270.84 332.389C271.708 332.258 272.59 332.21 273.47 332.245Z" fill="#EB996E"/>
<path d="M272.2 336.055C269.466 336.786 266.684 337.362 263.87 337.78C261.088 338.356 258.269 338.779 255.43 339.047C258.168 338.32 260.953 337.744 263.77 337.322C266.549 336.748 269.364 336.324 272.2 336.055Z" fill="#EB996E"/>
<path d="M252.58 298.138L266.53 339.397C266.609 339.627 266.763 339.83 266.971 339.981C267.18 340.131 267.434 340.222 267.7 340.242L305.7 342.803C306.037 342.823 306.353 342.958 306.583 343.18C306.813 343.402 306.941 343.694 306.94 343.998V346.127C306.94 346.286 306.905 346.444 306.836 346.591C306.768 346.738 306.667 346.871 306.54 346.982C306.414 347.093 306.263 347.181 306.099 347.239C305.934 347.298 305.758 347.326 305.58 347.322L201.58 345.525C201.314 345.521 201.056 345.445 200.838 345.307C200.621 345.169 200.454 344.976 200.36 344.752L182.08 301.723C182.004 301.546 181.976 301.356 181.997 301.167C182.019 300.978 182.091 300.797 182.206 300.638C182.321 300.479 182.477 300.347 182.66 300.253C182.844 300.159 183.049 300.105 183.26 300.097L251.17 297.249C251.484 297.224 251.798 297.3 252.056 297.463C252.313 297.625 252.499 297.865 252.58 298.138Z" fill="#455A64"/>
<path d="M223.28 315.911C222.77 316.081 222.316 316.363 221.956 316.73C221.597 317.096 221.344 317.537 221.22 318.013C221.174 318.51 221.274 319.01 221.511 319.461C221.748 319.912 222.113 320.299 222.57 320.583C223.118 320.939 223.772 321.142 224.449 321.164C225.125 321.186 225.794 321.028 226.37 320.709C226.948 320.323 227.362 319.772 227.544 319.146C227.726 318.52 227.664 317.858 227.37 317.267C226.91 316.126 224.59 315.327 223.25 315.911" fill="#E0E0E0"/>
<path d="M240.12 407.288L229.12 391.043L309.92 334.141C314.947 330.436 321.096 328.173 327.57 327.645C332.287 327.26 337.041 327.806 341.498 329.247C345.955 330.687 350.008 332.986 353.371 335.982C356.735 338.979 359.328 342.6 360.969 346.592C362.61 350.585 363.259 354.851 362.87 359.093L361.58 372.974L308 388.492L240.12 407.288Z" fill="#263238"/>
<path d="M343.74 368.725C343.74 368.725 343.68 368.788 343.53 368.904L342.87 369.39L340.3 371.24L338.43 372.561C337.75 373.046 336.94 373.46 336.11 374.026L333.43 375.679C332.95 375.967 332.43 376.281 331.96 376.578L330.35 377.476C328.16 378.653 325.79 380.001 323.1 381.223C321.77 381.852 320.41 382.535 318.98 383.173L314.51 385.068C307.841 387.813 301.022 390.254 294.08 392.382C279.32 396.956 265.68 400.244 255.91 402.904C253.46 403.551 251.25 404.162 249.31 404.701C247.37 405.24 245.71 405.698 244.31 406.111L241.19 407.01L240.37 407.234C240.276 407.264 240.179 407.286 240.08 407.297L240.35 407.19L241.15 406.92L244.25 405.923C245.59 405.482 247.25 405.024 249.19 404.431C251.13 403.838 253.32 403.227 255.76 402.562C265.51 399.813 279.14 396.479 293.87 391.915C301.25 389.66 308.12 387.144 314.27 384.655L318.73 382.777C320.17 382.148 321.53 381.474 322.86 380.854C325.55 379.65 327.92 378.321 330.12 377.171L331.73 376.317C332.24 376.029 332.73 375.724 333.21 375.418L336 373.792C336.83 373.28 337.64 372.84 338.33 372.364L340.22 371.07L342.85 369.273L343.55 368.823L343.74 368.725Z" fill="#455A64"/>
<path d="M345.7 376.317C345.452 376.48 345.179 376.611 344.89 376.703C344.35 376.919 343.56 377.215 342.57 377.539C339.987 378.394 337.34 379.085 334.65 379.605C331.956 380.122 329.226 380.47 326.48 380.648C325.43 380.711 324.57 380.738 323.98 380.738C323.672 380.758 323.363 380.743 323.06 380.693C324.181 380.511 325.313 380.385 326.45 380.315C328.53 380.109 331.45 379.749 334.54 379.147C337.63 378.545 340.45 377.808 342.45 377.233C343.514 376.875 344.599 376.569 345.7 376.317Z" fill="#455A64"/>
<path d="M306.7 336.873C306.79 336.98 289.5 349.191 268.08 364.142C246.66 379.093 229.22 391.151 229.14 391.043C229.06 390.936 246.34 378.734 267.76 363.774C289.18 348.814 306.62 336.774 306.7 336.873Z" fill="#455A64"/>
<path d="M302 397.252C298.13 395.401 293.78 396.497 290.07 397.621C287.6 398.366 285.07 399.552 282.53 398.914C280.72 398.456 279.37 397.117 277.98 395.994C275.176 393.677 271.883 391.888 268.297 390.732C264.711 389.576 260.904 389.077 257.1 389.264C254.927 389.358 252.876 390.19 251.36 391.592C247.55 395.302 250.42 400.118 253.83 403.272C259.905 408.821 267.928 412.312 276.54 413.156C283.63 413.821 293.38 412.94 300.54 410.173C304.97 408.465 307.24 403.766 304.92 399.975C304.265 398.829 303.25 397.882 302 397.252Z" fill="#641EFF"/>
<g opacity="0.4">
<path d="M302 400.217C298.12 398.366 293.77 399.462 290.06 400.585C287.59 401.331 285.06 402.517 282.52 401.879C280.71 401.421 279.36 400.082 277.97 398.959C275.166 396.642 271.874 394.853 268.287 393.697C264.701 392.541 260.894 392.042 257.09 392.229C254.918 392.323 252.866 393.155 251.35 394.556C250.583 395.291 250.033 396.187 249.75 397.162C250.484 399.475 251.889 401.571 253.82 403.236C259.895 408.784 267.918 412.276 276.53 413.119C283.62 413.784 293.37 412.904 300.53 410.136C301.801 409.651 302.927 408.902 303.815 407.951C304.703 407 305.328 405.874 305.64 404.665C305.415 403.736 304.97 402.862 304.337 402.101C303.704 401.34 302.897 400.71 301.97 400.253L302 400.217Z" fill="black"/>
</g>
<path d="M305.7 404.629C305.532 403.892 305.21 403.191 304.75 402.562C304.195 401.85 303.492 401.24 302.68 400.765C301.611 400.116 300.389 399.698 299.11 399.543C296.24 399.238 292.9 400.325 289.2 401.224C287.37 401.664 285.37 402.329 283.2 402.122C282.103 401.995 281.048 401.664 280.1 401.152C279.157 400.623 278.267 400.022 277.44 399.355C274.423 396.778 270.801 394.844 266.84 393.694C265.129 393.172 263.363 392.804 261.57 392.598C260.012 392.396 258.429 392.396 256.87 392.598C255.596 392.771 254.369 393.155 253.25 393.73C252.413 394.166 251.654 394.715 251 395.356C250 396.479 249.63 397.243 249.57 397.207C249.881 396.495 250.312 395.832 250.85 395.239C251.474 394.534 252.224 393.926 253.07 393.442C254.212 392.815 255.479 392.394 256.8 392.203C258.392 391.99 260.009 391.99 261.6 392.203C263.425 392.399 265.224 392.757 266.97 393.272C268.898 393.847 270.76 394.588 272.53 395.482C273.474 395.951 274.38 396.479 275.24 397.063C276.11 397.674 276.92 398.339 277.76 398.986C278.565 399.651 279.431 400.252 280.35 400.783C281.236 401.256 282.219 401.562 283.24 401.682C285.24 401.924 287.24 401.295 289.07 400.864C292.76 399.966 296.15 398.914 299.16 399.265C300.324 399.415 301.438 399.785 302.431 400.351C303.424 400.916 304.272 401.664 304.92 402.544C305.261 403.026 305.505 403.559 305.64 404.117C305.68 404.285 305.7 404.457 305.7 404.629Z" fill="#263238"/>
<path d="M305.7 404.629C305.532 403.892 305.21 403.191 304.75 402.562C304.195 401.85 303.492 401.24 302.68 400.765C301.611 400.116 300.389 399.698 299.11 399.543C296.24 399.238 292.9 400.325 289.2 401.224C287.37 401.664 285.37 402.329 283.2 402.122C282.103 401.995 281.048 401.664 280.1 401.152C279.157 400.623 278.267 400.022 277.44 399.355C274.423 396.778 270.801 394.844 266.84 393.694C265.129 393.172 263.363 392.804 261.57 392.598C260.012 392.396 258.429 392.396 256.87 392.598C255.596 392.771 254.369 393.155 253.25 393.73C252.413 394.166 251.654 394.715 251 395.356C250 396.479 249.63 397.243 249.57 397.207C249.881 396.495 250.312 395.832 250.85 395.239C251.474 394.534 252.224 393.926 253.07 393.442C254.212 392.815 255.479 392.394 256.8 392.203C258.392 391.99 260.009 391.99 261.6 392.203C263.425 392.399 265.224 392.757 266.97 393.272C268.898 393.847 270.76 394.588 272.53 395.482C273.474 395.951 274.38 396.479 275.24 397.063C276.11 397.674 276.92 398.339 277.76 398.986C278.565 399.651 279.431 400.252 280.35 400.783C281.236 401.256 282.219 401.562 283.24 401.682C285.24 401.924 287.24 401.295 289.07 400.864C292.76 399.966 296.15 398.914 299.16 399.265C300.324 399.415 301.438 399.785 302.431 400.351C303.424 400.916 304.272 401.664 304.92 402.544C305.261 403.026 305.505 403.559 305.64 404.117C305.68 404.285 305.7 404.457 305.7 404.629Z" fill="#263238"/>
<path d="M257.63 403.784C258.24 403.304 258.911 402.891 259.63 402.553C261.29 401.651 263.002 400.829 264.76 400.091C266.517 399.347 268.317 398.684 270.15 398.106C270.896 397.832 271.674 397.636 272.47 397.521C271.772 397.881 271.039 398.182 270.28 398.42C268.91 398.932 267.03 399.651 264.98 400.513C262.93 401.376 261.12 402.221 259.81 402.841C259.12 403.22 258.39 403.536 257.63 403.784Z" fill="#263238"/>
<path d="M259 407.27C261.441 405.951 263.969 404.765 266.57 403.721C269.098 402.54 271.703 401.495 274.37 400.594C271.929 401.914 269.401 403.099 266.8 404.144C264.274 405.329 261.669 406.373 259 407.27Z" fill="#263238"/>
<path d="M275 408.78C274.92 408.888 270.79 406.677 265.78 403.838C260.77 400.999 256.78 398.6 256.78 398.492C256.78 398.384 260.98 400.595 266 403.443C271.02 406.291 275.1 408.672 275 408.78Z" fill="#263238"/>
<path d="M277.339 405.168C276.633 404.819 275.964 404.413 275.339 403.955C274.129 403.164 272.45 402.077 270.57 400.909C268.69 399.741 266.979 398.708 265.729 397.962C265.017 397.598 264.347 397.17 263.729 396.686C264.491 396.948 265.218 397.282 265.899 397.683C267.199 398.357 268.969 399.355 270.899 400.523C272.829 401.691 274.44 402.832 275.6 403.694C276.245 404.119 276.83 404.614 277.339 405.168Z" fill="#263238"/>
</g>
<defs>
<filter id="filter0_d_1056_1024" x="0" y="0" width="520" height="520" filterUnits="userSpaceOnUse" color-interpolation-filters="sRGB">
<feFlood flood-opacity="0" result="BackgroundImageFix"/>
<feColorMatrix in="SourceAlpha" type="matrix" values="0 0 0 0 0 0 0 0 0 0 0 0 0 0 0 0 0 0 127 0" result="hardAlpha"/>
<feOffset dy="1"/>
<feGaussianBlur stdDeviation="5"/>
<feComposite in2="hardAlpha" operator="out"/>
<feColorMatrix type="matrix" values="0 0 0 0 0.164706 0 0 0 0 0.0666667 0 0 0 0 0.376471 0 0 0 0.2 0"/>
<feBlend mode="normal" in2="BackgroundImageFix" result="effect1_dropShadow_1056_1024"/>
<feBlend mode="normal" in="SourceGraphic" in2="effect1_dropShadow_1056_1024" result="shape"/>
</filter>
</defs>
</svg>
